%TF.GenerationSoftware,KiCad,Pcbnew,7.0.0-da2b9df05c~163~ubuntu22.04.1*%
%TF.CreationDate,2023-02-19T04:44:01+03:00*%
%TF.ProjectId,freeeeg16-alpha,66726565-6565-4673-9136-2d616c706861,rev?*%
%TF.SameCoordinates,Original*%
%TF.FileFunction,Copper,L1,Top*%
%TF.FilePolarity,Positive*%
%FSLAX46Y46*%
G04 Gerber Fmt 4.6, Leading zero omitted, Abs format (unit mm)*
G04 Created by KiCad (PCBNEW 7.0.0-da2b9df05c~163~ubuntu22.04.1) date 2023-02-19 04:44:01*
%MOMM*%
%LPD*%
G01*
G04 APERTURE LIST*
G04 Aperture macros list*
%AMRoundRect*
0 Rectangle with rounded corners*
0 $1 Rounding radius*
0 $2 $3 $4 $5 $6 $7 $8 $9 X,Y pos of 4 corners*
0 Add a 4 corners polygon primitive as box body*
4,1,4,$2,$3,$4,$5,$6,$7,$8,$9,$2,$3,0*
0 Add four circle primitives for the rounded corners*
1,1,$1+$1,$2,$3*
1,1,$1+$1,$4,$5*
1,1,$1+$1,$6,$7*
1,1,$1+$1,$8,$9*
0 Add four rect primitives between the rounded corners*
20,1,$1+$1,$2,$3,$4,$5,0*
20,1,$1+$1,$4,$5,$6,$7,0*
20,1,$1+$1,$6,$7,$8,$9,0*
20,1,$1+$1,$8,$9,$2,$3,0*%
%AMHorizOval*
0 Thick line with rounded ends*
0 $1 width*
0 $2 $3 position (X,Y) of the first rounded end (center of the circle)*
0 $4 $5 position (X,Y) of the second rounded end (center of the circle)*
0 Add line between two ends*
20,1,$1,$2,$3,$4,$5,0*
0 Add two circle primitives to create the rounded ends*
1,1,$1,$2,$3*
1,1,$1,$4,$5*%
%AMRotRect*
0 Rectangle, with rotation*
0 The origin of the aperture is its center*
0 $1 length*
0 $2 width*
0 $3 Rotation angle, in degrees counterclockwise*
0 Add horizontal line*
21,1,$1,$2,0,0,$3*%
G04 Aperture macros list end*
%TA.AperFunction,SMDPad,CuDef*%
%ADD10RoundRect,0.200000X-0.200000X-0.450000X0.200000X-0.450000X0.200000X0.450000X-0.200000X0.450000X0*%
%TD*%
%TA.AperFunction,SMDPad,CuDef*%
%ADD11RoundRect,0.241072X-0.771428X-1.258928X0.771428X-1.258928X0.771428X1.258928X-0.771428X1.258928X0*%
%TD*%
%TA.AperFunction,SMDPad,CuDef*%
%ADD12R,0.875000X1.625000*%
%TD*%
%TA.AperFunction,SMDPad,CuDef*%
%ADD13R,1.700000X0.900000*%
%TD*%
%TA.AperFunction,SMDPad,CuDef*%
%ADD14RoundRect,0.225000X-0.329006X0.069856X-0.104006X-0.319856X0.329006X-0.069856X0.104006X0.319856X0*%
%TD*%
%TA.AperFunction,SMDPad,CuDef*%
%ADD15RotRect,1.560000X0.650000X150.000000*%
%TD*%
%TA.AperFunction,SMDPad,CuDef*%
%ADD16RoundRect,0.225000X0.104006X-0.319856X0.329006X0.069856X-0.104006X0.319856X-0.329006X-0.069856X0*%
%TD*%
%TA.AperFunction,SMDPad,CuDef*%
%ADD17RoundRect,0.140000X0.170000X-0.140000X0.170000X0.140000X-0.170000X0.140000X-0.170000X-0.140000X0*%
%TD*%
%TA.AperFunction,SMDPad,CuDef*%
%ADD18RoundRect,0.140000X-0.077224X0.206244X-0.217224X-0.036244X0.077224X-0.206244X0.217224X0.036244X0*%
%TD*%
%TA.AperFunction,ComponentPad*%
%ADD19O,1.000000X1.000000*%
%TD*%
%TA.AperFunction,ComponentPad*%
%ADD20R,1.000000X1.000000*%
%TD*%
%TA.AperFunction,SMDPad,CuDef*%
%ADD21RoundRect,0.135000X0.135000X0.185000X-0.135000X0.185000X-0.135000X-0.185000X0.135000X-0.185000X0*%
%TD*%
%TA.AperFunction,SMDPad,CuDef*%
%ADD22RoundRect,0.150000X-0.368838X-0.386154X0.518838X0.126346X0.368838X0.386154X-0.518838X-0.126346X0*%
%TD*%
%TA.AperFunction,SMDPad,CuDef*%
%ADD23RoundRect,0.225000X-0.225000X-0.250000X0.225000X-0.250000X0.225000X0.250000X-0.225000X0.250000X0*%
%TD*%
%TA.AperFunction,SMDPad,CuDef*%
%ADD24RoundRect,0.140000X0.077224X-0.206244X0.217224X0.036244X-0.077224X0.206244X-0.217224X-0.036244X0*%
%TD*%
%TA.AperFunction,SMDPad,CuDef*%
%ADD25RoundRect,0.200000X0.200000X0.450000X-0.200000X0.450000X-0.200000X-0.450000X0.200000X-0.450000X0*%
%TD*%
%TA.AperFunction,SMDPad,CuDef*%
%ADD26RoundRect,0.250001X0.799999X1.249999X-0.799999X1.249999X-0.799999X-1.249999X0.799999X-1.249999X0*%
%TD*%
%TA.AperFunction,SMDPad,CuDef*%
%ADD27RoundRect,0.225000X-0.104006X0.319856X-0.329006X-0.069856X0.104006X-0.319856X0.329006X0.069856X0*%
%TD*%
%TA.AperFunction,SMDPad,CuDef*%
%ADD28RoundRect,0.135000X-0.135000X-0.185000X0.135000X-0.185000X0.135000X0.185000X-0.135000X0.185000X0*%
%TD*%
%TA.AperFunction,SMDPad,CuDef*%
%ADD29R,1.500000X0.900000*%
%TD*%
%TA.AperFunction,SMDPad,CuDef*%
%ADD30R,0.700000X0.700000*%
%TD*%
%TA.AperFunction,ComponentPad*%
%ADD31RotRect,1.000000X1.000000X210.000000*%
%TD*%
%TA.AperFunction,ComponentPad*%
%ADD32HorizOval,1.000000X0.000000X0.000000X0.000000X0.000000X0*%
%TD*%
%TA.AperFunction,ComponentPad*%
%ADD33RotRect,1.000000X1.000000X330.000000*%
%TD*%
%TA.AperFunction,ComponentPad*%
%ADD34HorizOval,1.000000X0.000000X0.000000X0.000000X0.000000X0*%
%TD*%
%TA.AperFunction,ViaPad*%
%ADD35C,0.800000*%
%TD*%
%TA.AperFunction,Conductor*%
%ADD36C,0.250000*%
%TD*%
G04 APERTURE END LIST*
D10*
%TO.P,J5,1,Pin_1*%
%TO.N,3V3_2_GND*%
X-4375000Y-7471000D03*
%TO.P,J5,2,Pin_2*%
%TO.N,RADIO_14_GPIO19{slash}USB_D+*%
X-3125000Y-7471000D03*
%TO.P,J5,3,Pin_3*%
%TO.N,RADIO_13_GPIO18{slash}USB_D-*%
X-1875000Y-7471000D03*
%TO.P,J5,4,Pin_4*%
%TO.N,MCU_7_NRST*%
X-625000Y-7471000D03*
%TO.P,J5,5,Pin_5*%
%TO.N,MCU_34_PA13_SYS_JTMS-SWDIO*%
X625000Y-7471000D03*
%TO.P,J5,6,Pin_6*%
%TO.N,MCU_39_PB3_SYS_JTDO-TRACESWO*%
X1875000Y-7471000D03*
%TO.P,J5,7,Pin_7*%
%TO.N,MCU_38_PA15_SYS_JTDI*%
X3125000Y-7471000D03*
%TO.P,J5,8,Pin_8*%
%TO.N,MCU_37_PA14_SYS_JTCK-SWCLK*%
X4375000Y-7471000D03*
D11*
%TO.P,J5,MP*%
%TO.N,N/C*%
X-6887500Y-10221000D03*
X6887500Y-10221000D03*
%TD*%
D12*
%TO.P,U2,4,Vin*%
%TO.N,CRYSTAL_4_Vin*%
X787499Y14976499D03*
%TO.P,U2,3,OUT*%
%TO.N,CRYSTAL_3_OUT*%
X787499Y12201499D03*
%TO.P,U2,2,GND*%
%TO.N,3V3_2_GND*%
X-787499Y12201499D03*
%TO.P,U2,1,NC*%
%TO.N,/CRYSTAL/1_NC*%
X-787499Y14976499D03*
%TD*%
D13*
%TO.P,SW3,1,1*%
%TO.N,3V3_2_GND*%
X10921999Y-1826999D03*
%TO.P,SW3,2,2*%
%TO.N,RADIO_8_GPIO9*%
X10921999Y1572999D03*
%TD*%
D14*
%TO.P,C14,1*%
%TO.N,3V3_1_IN*%
X-17786500Y-9361830D03*
%TO.P,C14,2*%
%TO.N,3V3_2_GND*%
X-17011500Y-10704170D03*
%TD*%
%TO.P,C15,1*%
%TO.N,ACC_5_VDDIO*%
X-11817500Y-5932830D03*
%TO.P,C15,2*%
%TO.N,3V3_2_GND*%
X-11042500Y-7275170D03*
%TD*%
D13*
%TO.P,SW4,1,1*%
%TO.N,3V3_2_GND*%
X-10921999Y-1875999D03*
%TO.P,SW4,2,2*%
%TO.N,RADIO_2_EN*%
X-10921999Y1523999D03*
%TD*%
D15*
%TO.P,U13,1,GND*%
%TO.N,3V3_2_GND*%
X15426133Y-10006723D03*
%TO.P,U13,2,GND*%
X15901133Y-9183999D03*
%TO.P,U13,3,EN*%
%TO.N,ADC1_15_AVDD*%
X16376133Y-8361275D03*
%TO.P,U13,4,VIN*%
X14037865Y-7011275D03*
%TO.P,U13,5,NR*%
%TO.N,/vref1/5_NR*%
X13562865Y-7833999D03*
%TO.P,U13,6,VREF*%
%TO.N,ADC1_14_REFIN*%
X13087865Y-8656723D03*
%TD*%
D16*
%TO.P,C29,1*%
%TO.N,ADC1_14_REFIN*%
X11042500Y-7275170D03*
%TO.P,C29,2*%
%TO.N,3V3_2_GND*%
X11817500Y-5932830D03*
%TD*%
D17*
%TO.P,C39,1*%
%TO.N,3V3_2_GND*%
X-12827000Y-1242000D03*
%TO.P,C39,2*%
%TO.N,RADIO_2_EN*%
X-12827000Y-282000D03*
%TD*%
D18*
%TO.P,C26,1*%
%TO.N,ADC1_15_AVDD*%
X18553400Y-10150708D03*
%TO.P,C26,2*%
%TO.N,3V3_2_GND*%
X18073400Y-10982092D03*
%TD*%
D19*
%TO.P,J1,6,Pin_6*%
%TO.N,MCU_5_PDO0_RCC_OSC_IN*%
X644999Y16514999D03*
%TO.P,J1,5,Pin_5*%
%TO.N,CRYSTAL_3_OUT*%
X-624999Y16514999D03*
%TO.P,J1,4,Pin_4*%
%TO.N,ADC1_16_SYNC{slash}RESET*%
X644999Y17784999D03*
%TO.P,J1,3,Pin_3*%
%TO.N,MCU_18_PB0_ADC1_SYNC{slash}RESET*%
X-624999Y17784999D03*
%TO.P,J1,2,Pin_2*%
%TO.N,CRYSTAL_4_Vin*%
X644999Y19054999D03*
D20*
%TO.P,J1,1,Pin_1*%
%TO.N,ACC_5_VDDIO*%
X-624999Y19054999D03*
%TD*%
D21*
%TO.P,R9,1*%
%TO.N,RADIO_16_GPIO2*%
X8003000Y8001000D03*
%TO.P,R9,2*%
%TO.N,3V3_5_OUT*%
X6983000Y8001000D03*
%TD*%
D17*
%TO.P,C41,1*%
%TO.N,3V3_2_GND*%
X12827000Y-1214000D03*
%TO.P,C41,2*%
%TO.N,RADIO_8_GPIO9*%
X12827000Y-254000D03*
%TD*%
D22*
%TO.P,U5,1,IN*%
%TO.N,3V3_1_IN*%
X-16192104Y-8255026D03*
%TO.P,U5,2,GND*%
%TO.N,3V3_2_GND*%
X-15717104Y-9077750D03*
%TO.P,U5,3,EN*%
%TO.N,3V3_1_IN*%
X-15242104Y-9900474D03*
%TO.P,U5,4,N/C*%
%TO.N,unconnected-(U5-N{slash}C-Pad4)*%
X-13271896Y-8762974D03*
%TO.P,U5,5,OUT*%
%TO.N,ACC_5_VDDIO*%
X-14221896Y-7117526D03*
%TD*%
D23*
%TO.P,C37,1*%
%TO.N,3V3_5_OUT*%
X-7887000Y8001000D03*
%TO.P,C37,2*%
%TO.N,3V3_2_GND*%
X-6337000Y8001000D03*
%TD*%
D21*
%TO.P,R7,1*%
%TO.N,RADIO_7_GPIO8*%
X-10033000Y-3175000D03*
%TO.P,R7,2*%
%TO.N,3V3_5_OUT*%
X-11053000Y-3175000D03*
%TD*%
D24*
%TO.P,C28,1*%
%TO.N,ADC1_14_REFIN*%
X10326400Y-6486292D03*
%TO.P,C28,2*%
%TO.N,3V3_2_GND*%
X10806400Y-5654908D03*
%TD*%
D25*
%TO.P,J6,1,Pin_1*%
%TO.N,3V3_2_GND*%
X3125000Y7471000D03*
%TO.P,J6,2,Pin_2*%
%TO.N,ADC1_02_AIN2N*%
X1875000Y7471000D03*
%TO.P,J6,3,Pin_3*%
%TO.N,ADC1_16_SYNC{slash}RESET*%
X625000Y7471000D03*
%TO.P,J6,4,Pin_4*%
%TO.N,ADC1_14_REFIN*%
X-625000Y7471000D03*
%TO.P,J6,5,Pin_5*%
%TO.N,MCU_5_PDO0_RCC_OSC_IN*%
X-1875000Y7471000D03*
%TO.P,J6,6,Pin_6*%
%TO.N,3V3_1_IN*%
X-3125000Y7471000D03*
D26*
%TO.P,J6,MP*%
%TO.N,N/C*%
X5675000Y10221000D03*
X-5675000Y10221000D03*
%TD*%
D27*
%TO.P,C27,1*%
%TO.N,ADC1_15_AVDD*%
X17786500Y-9361830D03*
%TO.P,C27,2*%
%TO.N,3V3_2_GND*%
X17011500Y-10704170D03*
%TD*%
D28*
%TO.P,R1,1*%
%TO.N,ACC_5_VDDIO*%
X-492000Y20574000D03*
%TO.P,R1,2*%
%TO.N,CRYSTAL_4_Vin*%
X528000Y20574000D03*
%TD*%
D29*
%TO.P,U9,1,3V3*%
%TO.N,3V3_5_OUT*%
X-8749999Y5749999D03*
%TO.P,U9,2,EN/CHIP_PU*%
%TO.N,RADIO_2_EN*%
X-8749999Y4249999D03*
%TO.P,U9,3,GPIO4/ADC1_CH4*%
%TO.N,/RADIO/3_GPIO4*%
X-8749999Y2749999D03*
%TO.P,U9,4,GPIO5/ADC2_CH0*%
%TO.N,/RADIO/4_GPIO5*%
X-8749999Y1249999D03*
%TO.P,U9,5,GPIO6*%
%TO.N,MCU_13_PA3_USART2_RX*%
X-8749999Y-249999D03*
%TO.P,U9,6,GPIO7*%
%TO.N,MCU_12_PA2_USART2_TX*%
X-8749999Y-1749999D03*
%TO.P,U9,7,GPIO8*%
%TO.N,RADIO_7_GPIO8*%
X-8749999Y-3249999D03*
%TO.P,U9,8,GPIO9*%
%TO.N,RADIO_8_GPIO9*%
X-8749999Y-4749999D03*
%TO.P,U9,9,GND*%
%TO.N,3V3_2_GND*%
X-8749999Y-6249999D03*
%TO.P,U9,10,GPIO10*%
%TO.N,ACC_13_SCL*%
X8749999Y-6249999D03*
%TO.P,U9,11,GPIO20/U0RXD*%
%TO.N,/RADIO/11_GPIO20*%
X8749999Y-4749999D03*
%TO.P,U9,12,GPIO21/U0TXD*%
%TO.N,/RADIO/12_GPIO21*%
X8749999Y-3249999D03*
%TO.P,U9,13,GPIO18/USB_D-*%
%TO.N,RADIO_13_GPIO18{slash}USB_D-*%
X8749999Y-1749999D03*
%TO.P,U9,14,GPIO19/USB_D+*%
%TO.N,RADIO_14_GPIO19{slash}USB_D+*%
X8749999Y-249999D03*
%TO.P,U9,15,GPIO3/ADC1_CH3*%
%TO.N,ACC_14_SDA*%
X8749999Y1249999D03*
%TO.P,U9,16,GPIO2/ADC1_CH2*%
%TO.N,RADIO_16_GPIO2*%
X8749999Y2749999D03*
%TO.P,U9,17,GPIO1/ADC1_CH1/XTAL_32K_N*%
%TO.N,/RADIO/17_GPIO1*%
X8749999Y4249999D03*
%TO.P,U9,18,GPIO0/ADC1_CH0/XTAL_32K_P*%
%TO.N,/RADIO/18_GPIO0*%
X8749999Y5749999D03*
D30*
%TO.P,U9,19,GND*%
%TO.N,3V3_2_GND*%
X-139999Y649999D03*
X-139999Y-449999D03*
X-139999Y-1549999D03*
X909999Y649999D03*
X909999Y-449999D03*
X909999Y-1549999D03*
X2059999Y649999D03*
X2059999Y-449999D03*
X2059999Y-1549999D03*
%TD*%
D20*
%TO.P,J29,1,Pin_1*%
%TO.N,ADC2_08_AIN5P*%
X11167947Y-9026999D03*
D19*
%TO.P,J29,2,Pin_2*%
X11167947Y-10296999D03*
%TO.P,J29,3,Pin_3*%
%TO.N,ADC2_09_AIN6P*%
X9897947Y-9026999D03*
%TO.P,J29,4,Pin_4*%
X9897947Y-10296999D03*
%TO.P,J29,5,Pin_5*%
%TO.N,ADC2_12_AIN7P*%
X8627947Y-9026999D03*
%TO.P,J29,6,Pin_6*%
X8627947Y-10296999D03*
%TD*%
D20*
%TO.P,J28,1,Pin_1*%
%TO.N,ADC1_29_AIN0P*%
X-8630999Y-9026999D03*
D19*
%TO.P,J28,2,Pin_2*%
X-8630999Y-10296999D03*
%TO.P,J28,3,Pin_3*%
%TO.N,ADC1_32_AIN1P*%
X-9900999Y-9026999D03*
%TO.P,J28,4,Pin_4*%
X-9900999Y-10296999D03*
%TO.P,J28,5,Pin_5*%
%TO.N,ADC1_01_AIN2P*%
X-11170999Y-9026999D03*
%TO.P,J28,6,Pin_6*%
X-11170999Y-10296999D03*
%TD*%
D31*
%TO.P,J31,1,Pin_1*%
%TO.N,ADC2_01_AIN2P*%
X12133110Y-2961164D03*
D32*
%TO.P,J31,2,Pin_2*%
X13232962Y-2326164D03*
%TO.P,J31,3,Pin_3*%
%TO.N,ADC2_04_AIN3P*%
X12768110Y-4061016D03*
%TO.P,J31,4,Pin_4*%
X13867962Y-3426016D03*
%TO.P,J31,5,Pin_5*%
%TO.N,ADC2_05_AIN4P*%
X13403110Y-5160869D03*
%TO.P,J31,6,Pin_6*%
X14502962Y-4525869D03*
%TD*%
D33*
%TO.P,J32,1,Pin_1*%
%TO.N,ADC1_09_AIN6P*%
X-3502111Y11988166D03*
D34*
%TO.P,J32,2,Pin_2*%
X-4601963Y12623166D03*
%TO.P,J32,3,Pin_3*%
%TO.N,ADC1_12_AIN7P*%
X-2867111Y13088018D03*
%TO.P,J32,4,Pin_4*%
X-3966963Y13723018D03*
%TO.P,J32,5,Pin_5*%
%TO.N,3V3_2_GND*%
X-2232111Y14187871D03*
%TO.P,J32,6,Pin_6*%
X-3331963Y14822871D03*
%TD*%
D31*
%TO.P,J33,1,Pin_1*%
%TO.N,ADC1_02_AIN2N*%
X2233636Y14185226D03*
D32*
%TO.P,J33,2,Pin_2*%
X3333488Y14820226D03*
%TO.P,J33,3,Pin_3*%
%TO.N,ADC2_29_AIN0P*%
X2868636Y13085374D03*
%TO.P,J33,4,Pin_4*%
X3968488Y13720374D03*
%TO.P,J33,5,Pin_5*%
%TO.N,ADC2_32_AIN1P*%
X3503636Y11985521D03*
%TO.P,J33,6,Pin_6*%
X4603488Y12620521D03*
%TD*%
D33*
%TO.P,J30,1,Pin_1*%
%TO.N,ADC1_04_AIN3P*%
X-13401585Y-5158224D03*
D34*
%TO.P,J30,2,Pin_2*%
X-14501437Y-4523224D03*
%TO.P,J30,3,Pin_3*%
%TO.N,ADC1_05_AIN4P*%
X-12766585Y-4058372D03*
%TO.P,J30,4,Pin_4*%
X-13866437Y-3423372D03*
%TO.P,J30,5,Pin_5*%
%TO.N,ADC1_08_AIN5P*%
X-12131585Y-2958519D03*
%TO.P,J30,6,Pin_6*%
X-13231437Y-2323519D03*
%TD*%
D35*
%TO.N,ACC_14_SDA*%
X2726877Y-4290223D03*
%TO.N,ADC2_21_DIN*%
X337744Y-4935144D03*
%TO.N,ACC_5_VDDIO*%
X-6298133Y-6679133D03*
%TO.N,MCU_39_PB3_SYS_JTDO-TRACESWO*%
X2083941Y-7409134D03*
%TO.N,MCU_38_PA15_SYS_JTDI*%
X3709418Y-6013573D03*
%TO.N,MCU_37_PA14_SYS_JTCK-SWCLK*%
X5143567Y-6489633D03*
%TO.N,MCU_34_PA13_SYS_JTMS-SWDIO*%
X867897Y-7242595D03*
%TO.N,ACC_13_SCL*%
X4521200Y-9245600D03*
%TO.N,RADIO_8_GPIO9*%
X12966920Y-10424462D03*
%TO.N,3V3_1_IN*%
X-3167720Y7207999D03*
X-13843000Y-10287000D03*
X14823166Y-5607300D03*
%TO.N,ADC1_15_AVDD*%
X7340600Y1498600D03*
X17224809Y-7774246D03*
X-291500Y9054851D03*
X14493630Y-6550916D03*
%TO.N,ADC1_26_DVDD*%
X-1931445Y2902448D03*
X-12368202Y-9654691D03*
X6810000Y3968325D03*
%TO.N,ADC1_14_REFIN*%
X-3844068Y6384068D03*
X6623238Y470478D03*
X10099502Y-4953000D03*
X-380655Y7605455D03*
%TO.N,ACC_5_VDDIO*%
X-808039Y-8722850D03*
X-1113615Y-121403D03*
X7023056Y-5311845D03*
X-14872119Y-6454277D03*
X2851899Y-10509451D03*
%TO.N,ADC2_17_CS*%
X3225218Y2481351D03*
X-812967Y-2405237D03*
%TO.N,ADC1_02_AIN2N*%
X10796725Y3303725D03*
X-10581021Y2633053D03*
%TO.N,ADC1_16_SYNC{slash}RESET*%
X2248115Y2691765D03*
X768088Y10681980D03*
X-7142067Y6581825D03*
%TO.N,ADC1_17_CS*%
X-3986395Y-5595707D03*
X-6477000Y1016000D03*
%TO.N,ADC1_18_DRDY*%
X-6063279Y2115660D03*
X-1515793Y-3115899D03*
%TO.N,ADC1_19_SCLK*%
X-3196554Y-6204685D03*
X-5439178Y1270000D03*
%TO.N,ADC1_23_XTAL1{slash}CLKIN*%
X1532753Y-4758553D03*
X3649502Y6107631D03*
X-1867500Y4357250D03*
%TO.N,3V3_2_GND*%
X-4025500Y10414000D03*
X14351000Y-10795000D03*
X-11811000Y-1115000D03*
X-7884806Y-6174332D03*
X-16891000Y-7493000D03*
X254000Y-9271000D03*
X-15113000Y-11030000D03*
X12383734Y-6967042D03*
X-140000Y600500D03*
X-7370644Y3687644D03*
X2859120Y9327522D03*
X2286000Y4826000D03*
X6156471Y-5830636D03*
X-140000Y-347408D03*
X-6409554Y7425554D03*
X-12207157Y-7342951D03*
%TO.N,3V3_5_OUT*%
X928231Y5591946D03*
X-1842809Y11647129D03*
%TO.N,MCU_7_NRST*%
X-4088500Y-9475223D03*
%TO.N,ADC1_20_DOUT*%
X-4441518Y1526035D03*
X-2533936Y-5456391D03*
%TO.N,ADC1_21_DIN*%
X-4104371Y2467523D03*
X-2343219Y-4343400D03*
%TO.N,ADC2_19_SCLK*%
X24571Y-2972145D03*
X4211927Y2321948D03*
%TO.N,ADC2_20_DOUT*%
X4964385Y2979833D03*
X285411Y-3937012D03*
%TO.N,ADC2_21_DIN*%
X5264939Y3933623D03*
%TO.N,MCU_5_PDO0_RCC_OSC_IN*%
X-2803543Y-10720500D03*
X-2032000Y10643086D03*
%TO.N,RADIO_8_GPIO9*%
X-8255000Y-5080000D03*
%TO.N,MCU_12_PA2_USART2_TX*%
X-6045200Y-5156200D03*
%TO.N,MCU_13_PA3_USART2_RX*%
X-6072303Y-4157065D03*
%TO.N,MCU_18_PB0_ADC1_SYNC{slash}RESET*%
X0Y4394498D03*
X-2794000Y9398000D03*
X-1372544Y-4105083D03*
%TD*%
D36*
%TO.N,ACC_14_SDA*%
X2726877Y-4290223D02*
X2909777Y-4290223D01*
X2909777Y-4290223D02*
X8450000Y1250000D01*
X8450000Y1250000D02*
X8750000Y1250000D01*
%TO.N,MCU_34_PA13_SYS_JTMS-SWDIO*%
X853405Y-7242595D02*
X867897Y-7242595D01*
X625000Y-7471000D02*
X853405Y-7242595D01*
%TO.N,ADC1_21_DIN*%
X-2343219Y-3623711D02*
X-2343219Y-4343400D01*
X-3096497Y-2870433D02*
X-2343219Y-3623711D01*
X-3096497Y1459649D02*
X-3096497Y-2870433D01*
%TO.N,ADC2_17_CS*%
X-1838115Y193195D02*
X-1838115Y-1380089D01*
%TO.N,ADC1_18_DRDY*%
X-3914250Y3302000D02*
X-2412501Y1800251D01*
%TO.N,ADC2_17_CS*%
X-1838115Y-1380089D02*
X-812967Y-2405237D01*
X2068867Y1325000D02*
X-706310Y1325000D01*
%TO.N,ADC1_18_DRDY*%
X-4876939Y3302000D02*
X-3914250Y3302000D01*
%TO.N,ADC2_17_CS*%
X-706310Y1325000D02*
X-1838115Y193195D01*
X3225218Y2481351D02*
X2068867Y1325000D01*
%TO.N,ADC1_18_DRDY*%
X-2412501Y1800251D02*
X-2412501Y-2219191D01*
X-6063279Y2115660D02*
X-4876939Y3302000D01*
%TO.N,ADC1_21_DIN*%
X-4104371Y2467523D02*
X-3096497Y1459649D01*
%TO.N,ADC1_18_DRDY*%
X-2412501Y-2219191D02*
X-1515793Y-3115899D01*
%TO.N,RADIO_14_GPIO19{slash}USB_D+*%
X2062988Y-6046499D02*
X2609460Y-5500027D01*
X2609460Y-5450938D02*
X7810398Y-250000D01*
X-3125000Y-7328538D02*
X-1842961Y-6046499D01*
X-3125000Y-7471000D02*
X-3125000Y-7328538D01*
%TO.N,RADIO_13_GPIO18{slash}USB_D-*%
X6946088Y-1750000D02*
X8750000Y-1750000D01*
X3058961Y-5637127D02*
X6946088Y-1750000D01*
X-1875000Y-7471000D02*
X-1875000Y-7328538D01*
X-1042462Y-6496000D02*
X2249177Y-6496000D01*
%TO.N,RADIO_14_GPIO19{slash}USB_D+*%
X-1842961Y-6046499D02*
X2062988Y-6046499D01*
%TO.N,RADIO_13_GPIO18{slash}USB_D-*%
X3058961Y-5686216D02*
X3058961Y-5637127D01*
%TO.N,RADIO_14_GPIO19{slash}USB_D+*%
X7810398Y-250000D02*
X8750000Y-250000D01*
%TO.N,RADIO_13_GPIO18{slash}USB_D-*%
X2249177Y-6496000D02*
X3058961Y-5686216D01*
X-1875000Y-7328538D02*
X-1042462Y-6496000D01*
%TO.N,RADIO_14_GPIO19{slash}USB_D+*%
X2609460Y-5500027D02*
X2609460Y-5450938D01*
%TO.N,ADC1_19_SCLK*%
X-3258436Y-5278647D02*
X-3258436Y-6142803D01*
%TO.N,ADC1_20_DOUT*%
X-3283414Y-3319206D02*
X-3283414Y-4617979D01*
X-4441518Y1526035D02*
X-3545998Y630515D01*
%TO.N,ADC1_19_SCLK*%
X-3732915Y-3505395D02*
X-3732915Y-4804168D01*
X-3995499Y-173679D02*
X-3995499Y-3242811D01*
X-3995499Y-3242811D02*
X-3732915Y-3505395D01*
%TO.N,ADC1_20_DOUT*%
X-2533936Y-5367457D02*
X-2533936Y-5456391D01*
%TO.N,ADC1_19_SCLK*%
X-5439178Y1270000D02*
X-3995499Y-173679D01*
%TO.N,ADC1_20_DOUT*%
X-3283414Y-4617979D02*
X-2533936Y-5367457D01*
X-3545998Y-3056622D02*
X-3283414Y-3319206D01*
%TO.N,ADC1_19_SCLK*%
X-3732915Y-4804168D02*
X-3258436Y-5278647D01*
X-3258436Y-6142803D02*
X-3196554Y-6204685D01*
%TO.N,ADC1_20_DOUT*%
X-3545998Y630515D02*
X-3545998Y-3056622D01*
%TO.N,/RADIO/11_GPIO20*%
X8750000Y-4750000D02*
X8587345Y-4587345D01*
%TO.N,MCU_39_PB3_SYS_JTDO-TRACESWO*%
X1875000Y-7471000D02*
X1936866Y-7409134D01*
X1936866Y-7409134D02*
X2083941Y-7409134D01*
%TO.N,RADIO_16_GPIO2*%
X7534500Y3665500D02*
X7534500Y7532500D01*
X8450000Y2750000D02*
X7534500Y3665500D01*
X8750000Y2750000D02*
X8450000Y2750000D01*
X7534500Y7532500D02*
X8003000Y8001000D01*
%TO.N,ADC1_16_SYNC{slash}RESET*%
X203731Y5256562D02*
X2248115Y3212178D01*
X625000Y7471000D02*
X203731Y7049731D01*
X203731Y7049731D02*
X203731Y5256562D01*
X2248115Y3212178D02*
X2248115Y2691765D01*
%TO.N,ACC_13_SCL*%
X8750000Y-6250000D02*
X8027597Y-6250000D01*
X8027597Y-6250000D02*
X5654597Y-8623000D01*
X5654597Y-8623000D02*
X5143800Y-8623000D01*
X5143800Y-8623000D02*
X4521200Y-9245600D01*
%TO.N,ADC1_17_CS*%
X-4445000Y-3429000D02*
X-4182415Y-3691585D01*
X-4445000Y-1016000D02*
X-4445000Y-3429000D01*
X-4182415Y-3691585D02*
X-4182415Y-5399687D01*
X-4182415Y-5399687D02*
X-3986395Y-5595707D01*
X-6477000Y1016000D02*
X-4445000Y-1016000D01*
%TO.N,3V3_2_GND*%
X910000Y-1397408D02*
X-140000Y-347408D01*
X-127000Y635000D02*
X-127000Y-334408D01*
X910000Y-1550000D02*
X910000Y-1397408D01*
X-127000Y-334408D02*
X-140000Y-347408D01*
X-140000Y-450000D02*
X-140000Y-347408D01*
%TO.N,MCU_5_PDO0_RCC_OSC_IN*%
X-5237006Y-1248592D02*
X-7225913Y740315D01*
X-4894501Y-2983639D02*
X-5237006Y-2641134D01*
X-4894501Y-4123895D02*
X-4894501Y-2983639D01*
X-4813000Y-4205396D02*
X-4894501Y-4123895D01*
X-4813000Y-5676600D02*
X-4813000Y-4205396D01*
X-7225913Y740315D02*
X-7225913Y1977625D01*
X-5156200Y-6019800D02*
X-4813000Y-5676600D01*
X-3868528Y-10720500D02*
X-4813000Y-9776028D01*
X-5237006Y-2641134D02*
X-5237006Y-1248592D01*
X-5156200Y-8082262D02*
X-5156200Y-6019800D01*
X-4813000Y-8425462D02*
X-5156200Y-8082262D01*
X-4813000Y-9776028D02*
X-4813000Y-8425462D01*
X-2803543Y-10720500D02*
X-3868528Y-10720500D01*
X-7225913Y1977625D02*
X-1875000Y7328538D01*
X-1875000Y7328538D02*
X-1875000Y7471000D01*
%TO.N,3V3_2_GND*%
X-3852549Y-8750223D02*
X-4375000Y-8227772D01*
X-1916112Y-9447350D02*
X-2613239Y-8750223D01*
X77650Y-9447350D02*
X-1916112Y-9447350D01*
X254000Y-9271000D02*
X77650Y-9447350D01*
X-4375000Y-8227772D02*
X-4375000Y-7471000D01*
X-2613239Y-8750223D02*
X-3852549Y-8750223D01*
%TO.N,ACC_5_VDDIO*%
X-12372707Y-8202000D02*
X-8356600Y-8202000D01*
X-7821000Y-8202000D02*
X-8356600Y-8202000D01*
X-6298133Y-6679133D02*
X-7821000Y-8202000D01*
%TO.N,3V3_5_OUT*%
X-8331200Y-7750911D02*
X-9099089Y-7750911D01*
X-5262501Y-4391585D02*
X-5262501Y-5410200D01*
X-8331200Y-7750911D02*
X-7159806Y-6579517D01*
X-7159806Y-6579517D02*
X-7159806Y-6372406D01*
X-5733501Y-5881200D02*
X-5262501Y-5410200D01*
X-7159806Y-6372406D02*
X-6654800Y-5867400D01*
X-6641000Y-5881200D02*
X-5733501Y-5881200D01*
X-6654800Y-5867400D02*
X-6641000Y-5881200D01*
%TO.N,MCU_12_PA2_USART2_TX*%
X-8450000Y-1750000D02*
X-6796803Y-3403197D01*
X-8750000Y-1750000D02*
X-8450000Y-1750000D01*
%TO.N,MCU_13_PA3_USART2_RX*%
X-6136008Y-4093360D02*
X-6072303Y-4157065D01*
%TO.N,MCU_12_PA2_USART2_TX*%
X-6796803Y-3403197D02*
X-6796803Y-4648787D01*
%TO.N,MCU_13_PA3_USART2_RX*%
X-8518520Y-250000D02*
X-6136008Y-2632512D01*
%TO.N,MCU_12_PA2_USART2_TX*%
X-6796803Y-4648787D02*
X-6289390Y-5156200D01*
%TO.N,MCU_13_PA3_USART2_RX*%
X-6136008Y-2632512D02*
X-6136008Y-4093360D01*
%TO.N,MCU_12_PA2_USART2_TX*%
X-6289390Y-5156200D02*
X-6045200Y-5156200D01*
%TO.N,MCU_13_PA3_USART2_RX*%
X-8750000Y-250000D02*
X-8518520Y-250000D01*
%TO.N,MCU_38_PA15_SYS_JTDI*%
X3125000Y-6597991D02*
X3709418Y-6013573D01*
X3125000Y-7471000D02*
X3125000Y-6597991D01*
%TO.N,MCU_37_PA14_SYS_JTCK-SWCLK*%
X4375000Y-7471000D02*
X4375000Y-7258200D01*
X4375000Y-7258200D02*
X5143567Y-6489633D01*
%TO.N,MCU_7_NRST*%
X-625000Y-7471000D02*
X-625000Y-7880584D01*
X-625000Y-7880584D02*
X40416Y-8546000D01*
X40416Y-8546000D02*
X554305Y-8546000D01*
X554305Y-8546000D02*
X979000Y-8970695D01*
%TO.N,RADIO_8_GPIO9*%
X14605000Y-8786382D02*
X12966920Y-10424462D01*
X14605000Y-8488332D02*
X14605000Y-8786382D01*
X15547666Y-7545666D02*
X14605000Y-8488332D01*
X14692963Y-3549143D02*
X15494000Y-4350180D01*
X14057963Y-1984438D02*
X14057963Y-2286000D01*
X15547666Y-4752666D02*
X15547666Y-7545666D01*
X13462000Y-881391D02*
X13462000Y-1388475D01*
X15494000Y-4699000D02*
X15547666Y-4752666D01*
X12834609Y-254000D02*
X13462000Y-881391D01*
X15494000Y-4350180D02*
X15494000Y-4699000D01*
X14692963Y-2921000D02*
X14692963Y-3549143D01*
X14057963Y-2286000D02*
X14692963Y-2921000D01*
X13462000Y-1388475D02*
X14057963Y-1984438D01*
X12827000Y-254000D02*
X12834609Y-254000D01*
%TO.N,3V3_5_OUT*%
X-7750000Y5750000D02*
X-6641500Y4641500D01*
X-9970286Y-6879714D02*
X-9970286Y-4257714D01*
X-9099089Y-7750911D02*
X-9970286Y-6879714D01*
X-7675414Y-457416D02*
X-5686507Y-2446323D01*
X-8750000Y5750000D02*
X-7750000Y5750000D01*
X-6641500Y4641500D02*
X-6641500Y3392190D01*
X-7675414Y2358276D02*
X-7675414Y-457416D01*
X-5344002Y-3169828D02*
X-5344002Y-4310084D01*
X-5686507Y-2827323D02*
X-5344002Y-3169828D01*
X-9970286Y-4257714D02*
X-11053000Y-3175000D01*
X-5344002Y-4310084D02*
X-5262501Y-4391585D01*
X-5686507Y-2446323D02*
X-5686507Y-2827323D01*
X-6641500Y3392190D02*
X-7675414Y2358276D01*
X3397828Y5334000D02*
X3139882Y5591946D01*
X4316000Y5334000D02*
X3397828Y5334000D01*
X6983000Y8001000D02*
X4316000Y5334000D01*
X3139882Y5591946D02*
X928231Y5591946D01*
%TO.N,ACC_14_SDA*%
X8750000Y1250000D02*
X8675000Y1325000D01*
%TO.N,CRYSTAL_3_OUT*%
X-625000Y16515000D02*
X-521727Y16515000D01*
X-521727Y16515000D02*
X0Y15993273D01*
X0Y15993273D02*
X0Y12989000D01*
X0Y12989000D02*
X787500Y12201500D01*
%TO.N,CRYSTAL_4_Vin*%
X775000Y14976500D02*
X1470000Y15671500D01*
X1470000Y15671500D02*
X1470000Y18230000D01*
X1470000Y18230000D02*
X645000Y19055000D01*
%TO.N,3V3_2_GND*%
X2060000Y-450000D02*
X2010000Y-450000D01*
X2010000Y-450000D02*
X910000Y650000D01*
X2060000Y-1550000D02*
X2010000Y-1550000D01*
X2010000Y-1550000D02*
X910000Y-450000D01*
X910000Y-450000D02*
X910000Y-449500D01*
X910000Y-449500D02*
X-140000Y600500D01*
X-127000Y613500D02*
X-140000Y600500D01*
X-127000Y635000D02*
X-127000Y613500D01*
X-8750000Y-6250000D02*
X-7960474Y-6250000D01*
X-7960474Y-6250000D02*
X-7884806Y-6174332D01*
X-12139376Y-7275170D02*
X-12207157Y-7342951D01*
%TO.N,ACC_5_VDDIO*%
X-14120430Y-6454277D02*
X-12372707Y-8202000D01*
%TO.N,3V3_2_GND*%
X-11042500Y-7275170D02*
X-12139376Y-7275170D01*
%TO.N,ACC_5_VDDIO*%
X-14872119Y-6454277D02*
X-14120430Y-6454277D01*
%TO.N,3V3_1_IN*%
X-3125000Y7250719D02*
X-3167720Y7207999D01*
X-17786500Y-9361830D02*
X-17298908Y-9361830D01*
X-16065078Y-8128000D02*
X-16192104Y-8255026D01*
X-17298908Y-9361830D02*
X-16192104Y-8255026D01*
X-14724617Y-9382987D02*
X-14724617Y-9018979D01*
X-3125000Y7471000D02*
X-3125000Y7250719D01*
X-14688528Y-8679472D02*
X-15240000Y-8128000D01*
X-14688528Y-8884295D02*
X-14688528Y-8679472D01*
X-14855578Y-10287000D02*
X-15242104Y-9900474D01*
X-15240000Y-8128000D02*
X-16065078Y-8128000D01*
X-14724617Y-9018979D02*
X-14688528Y-8884295D01*
X-15242104Y-9900474D02*
X-14724617Y-9382987D01*
X-13843000Y-10287000D02*
X-14855578Y-10287000D01*
%TO.N,ADC1_15_AVDD*%
X14037866Y-7011276D02*
X14493630Y-6555512D01*
X16637779Y-8361276D02*
X17224809Y-7774246D01*
X16376134Y-8361276D02*
X16637779Y-8361276D01*
X14493630Y-6555512D02*
X14493630Y-6550916D01*
X17786500Y-9361830D02*
X17376688Y-9361830D01*
X18553400Y-10128730D02*
X17786500Y-9361830D01*
X18553400Y-10150708D02*
X18553400Y-10128730D01*
X17376688Y-9361830D02*
X16376134Y-8361276D01*
%TO.N,ADC1_14_REFIN*%
X-625000Y7328538D02*
X-625000Y7471000D01*
X-625000Y7471000D02*
X-490545Y7605455D01*
X11042500Y-7202392D02*
X10326400Y-6486292D01*
X11042500Y-7275170D02*
X11042500Y-7202392D01*
X10326400Y-6486292D02*
X10099502Y-6259394D01*
X13087866Y-8656724D02*
X12424054Y-8656724D01*
X12424054Y-8656724D02*
X11042500Y-7275170D01*
X10099502Y-6259394D02*
X10099502Y-4953000D01*
X-490545Y7605455D02*
X-380655Y7605455D01*
%TO.N,ACC_5_VDDIO*%
X-14872119Y-6454277D02*
X-14872119Y-6467303D01*
X-11662363Y-5777693D02*
X-11817500Y-5932830D01*
X-13745870Y-6641500D02*
X-12526170Y-6641500D01*
X-492000Y19188000D02*
X-625000Y19055000D01*
X-492000Y20574000D02*
X-492000Y19188000D01*
X-14221896Y-7117526D02*
X-13745870Y-6641500D01*
X-14872119Y-6467303D02*
X-14221896Y-7117526D01*
X-12526170Y-6641500D02*
X-11817500Y-5932830D01*
%TO.N,CRYSTAL_4_Vin*%
X645000Y19055000D02*
X645000Y20457000D01*
X645000Y20457000D02*
X528000Y20574000D01*
%TO.N,ADC1_02_AIN2N*%
X1875000Y7471000D02*
X1875000Y13826590D01*
X1875000Y13826590D02*
X2233637Y14185227D01*
%TO.N,ADC1_16_SYNC{slash}RESET*%
X625000Y7471000D02*
X768088Y7614088D01*
X768088Y7614088D02*
X768088Y10681980D01*
%TO.N,3V3_2_GND*%
X-16685670Y-11030000D02*
X-15113000Y-11030000D01*
X10922000Y-1827000D02*
X12214000Y-1827000D01*
X910000Y-1550000D02*
X-140000Y-1550000D01*
X-15717104Y-9077750D02*
X-17011500Y-10372146D01*
X14637858Y-10795000D02*
X15426134Y-10006724D01*
X-12827000Y-1115000D02*
X-11811000Y-1115000D01*
X11817500Y-6400808D02*
X12383734Y-6967042D01*
X-17011500Y-10372146D02*
X-17011500Y-10704170D01*
X910000Y-450000D02*
X910000Y650000D01*
X2060000Y650000D02*
X910000Y650000D01*
X-15452720Y-9077750D02*
X-15717104Y-9077750D01*
X3125000Y9061642D02*
X2859120Y9327522D01*
X-11050000Y-1876000D02*
X-11811000Y-1115000D01*
X11049000Y-5632308D02*
X12383734Y-6967042D01*
X2060000Y-1550000D02*
X2060000Y-450000D01*
X910000Y650000D02*
X910000Y271042D01*
X11817500Y-5932830D02*
X11817500Y-6400808D01*
X12214000Y-1827000D02*
X12827000Y-1214000D01*
X16123580Y-10704170D02*
X15426134Y-10006724D01*
X910000Y-1550000D02*
X910000Y-450000D01*
X17289422Y-10982092D02*
X17011500Y-10704170D01*
X910000Y650000D02*
X-112000Y650000D01*
X17011500Y-10704170D02*
X16123580Y-10704170D01*
X2060000Y-450000D02*
X2060000Y650000D01*
X15901134Y-9184000D02*
X15901134Y-9531724D01*
X2060000Y-1550000D02*
X910000Y-1550000D01*
X-140000Y-1550000D02*
X-140000Y-450000D01*
X14351000Y-10795000D02*
X14637858Y-10795000D01*
X910000Y-450000D02*
X-140000Y-450000D01*
X-112000Y650000D02*
X-127000Y635000D01*
X3125000Y7471000D02*
X3125000Y9061642D01*
X-17011500Y-10704170D02*
X-16685670Y-11030000D01*
X15901134Y-9531724D02*
X15426134Y-10006724D01*
X11084322Y-5932830D02*
X10806400Y-5654908D01*
X11049000Y-2032000D02*
X11049000Y-5632308D01*
X11817500Y-5932830D02*
X11084322Y-5932830D01*
X-2232112Y14187872D02*
X-725000Y12680760D01*
X2060000Y-450000D02*
X910000Y-450000D01*
X18073400Y-10982092D02*
X17289422Y-10982092D01*
X-10922000Y-1876000D02*
X-11050000Y-1876000D01*
%TO.N,3V3_5_OUT*%
X-2223049Y11647129D02*
X-1842809Y11647129D01*
X-3937000Y9398000D02*
X-3238500Y10096500D01*
X-8750000Y5750000D02*
X-6949293Y5750000D01*
X-5164245Y7048146D02*
X-3937000Y8275391D01*
X-3937000Y8275391D02*
X-3937000Y9398000D01*
X-6949293Y5750000D02*
X-5651146Y7048146D01*
X-8750000Y7011000D02*
X-7760000Y8001000D01*
X-8750000Y5750000D02*
X-8599069Y5599069D01*
X-3238500Y10096500D02*
X-3238500Y10631678D01*
X-5651146Y7048146D02*
X-5164245Y7048146D01*
X-8750000Y5750000D02*
X-8750000Y7011000D01*
X-3238500Y10631678D02*
X-2223049Y11647129D01*
%TO.N,MCU_7_NRST*%
X-3567723Y-9996000D02*
X-4088500Y-9475223D01*
X554305Y-9996000D02*
X-3567723Y-9996000D01*
X979000Y-8970695D02*
X979000Y-9571305D01*
X979000Y-9571305D02*
X554305Y-9996000D01*
%TO.N,MCU_5_PDO0_RCC_OSC_IN*%
X-1875000Y7471000D02*
X-1875000Y10486086D01*
X-1875000Y10486086D02*
X-2032000Y10643086D01*
%TO.N,RADIO_2_EN*%
X-10922000Y1524000D02*
X-10664769Y1524000D01*
X-10922000Y1524000D02*
X-12601000Y-155000D01*
X-9825000Y3764000D02*
X-9339000Y4250000D01*
X-12601000Y-155000D02*
X-12827000Y-155000D01*
X-9339000Y4250000D02*
X-8750000Y4250000D01*
X-9825000Y2363769D02*
X-9825000Y3764000D01*
X-10664769Y1524000D02*
X-9825000Y2363769D01*
%TO.N,RADIO_8_GPIO9*%
X11000000Y1573000D02*
X12827000Y-254000D01*
X10922000Y1573000D02*
X11000000Y1573000D01*
X-8585000Y-4750000D02*
X-8255000Y-5080000D01*
X-8750000Y-4750000D02*
X-8585000Y-4750000D01*
%TO.N,RADIO_7_GPIO8*%
X-9958000Y-3250000D02*
X-10033000Y-3175000D01*
X-8750000Y-3250000D02*
X-9958000Y-3250000D01*
%TD*%
M02*
