%TF.GenerationSoftware,KiCad,Pcbnew,7.0.0-da2b9df05c~163~ubuntu22.04.1*%
%TF.CreationDate,2023-02-23T13:52:18+03:00*%
%TF.ProjectId,freeeeg16-alpha,66726565-6565-4673-9136-2d616c706861,rev?*%
%TF.SameCoordinates,Original*%
%TF.FileFunction,Paste,Top*%
%TF.FilePolarity,Positive*%
%FSLAX46Y46*%
G04 Gerber Fmt 4.6, Leading zero omitted, Abs format (unit mm)*
G04 Created by KiCad (PCBNEW 7.0.0-da2b9df05c~163~ubuntu22.04.1) date 2023-02-23 13:52:18*
%MOMM*%
%LPD*%
G01*
G04 APERTURE LIST*
G04 Aperture macros list*
%AMRoundRect*
0 Rectangle with rounded corners*
0 $1 Rounding radius*
0 $2 $3 $4 $5 $6 $7 $8 $9 X,Y pos of 4 corners*
0 Add a 4 corners polygon primitive as box body*
4,1,4,$2,$3,$4,$5,$6,$7,$8,$9,$2,$3,0*
0 Add four circle primitives for the rounded corners*
1,1,$1+$1,$2,$3*
1,1,$1+$1,$4,$5*
1,1,$1+$1,$6,$7*
1,1,$1+$1,$8,$9*
0 Add four rect primitives between the rounded corners*
20,1,$1+$1,$2,$3,$4,$5,0*
20,1,$1+$1,$4,$5,$6,$7,0*
20,1,$1+$1,$6,$7,$8,$9,0*
20,1,$1+$1,$8,$9,$2,$3,0*%
%AMRotRect*
0 Rectangle, with rotation*
0 The origin of the aperture is its center*
0 $1 length*
0 $2 width*
0 $3 Rotation angle, in degrees counterclockwise*
0 Add horizontal line*
21,1,$1,$2,0,0,$3*%
G04 Aperture macros list end*
%ADD10RoundRect,0.225000X-0.329006X0.069856X-0.104006X-0.319856X0.329006X-0.069856X0.104006X0.319856X0*%
%ADD11RotRect,1.560000X0.650000X150.000000*%
%ADD12RoundRect,0.225000X0.104006X-0.319856X0.329006X0.069856X-0.104006X0.319856X-0.329006X-0.069856X0*%
%ADD13RoundRect,0.140000X0.170000X-0.140000X0.170000X0.140000X-0.170000X0.140000X-0.170000X-0.140000X0*%
%ADD14RoundRect,0.140000X-0.077224X0.206244X-0.217224X-0.036244X0.077224X-0.206244X0.217224X0.036244X0*%
%ADD15RoundRect,0.135000X0.135000X0.185000X-0.135000X0.185000X-0.135000X-0.185000X0.135000X-0.185000X0*%
%ADD16RoundRect,0.150000X-0.368838X-0.386154X0.518838X0.126346X0.368838X0.386154X-0.518838X-0.126346X0*%
%ADD17RoundRect,0.225000X-0.225000X-0.250000X0.225000X-0.250000X0.225000X0.250000X-0.225000X0.250000X0*%
%ADD18RoundRect,0.140000X0.077224X-0.206244X0.217224X0.036244X-0.077224X0.206244X-0.217224X-0.036244X0*%
%ADD19RoundRect,0.200000X-0.200000X-0.450000X0.200000X-0.450000X0.200000X0.450000X-0.200000X0.450000X0*%
%ADD20RoundRect,0.241072X-0.771428X-1.258928X0.771428X-1.258928X0.771428X1.258928X-0.771428X1.258928X0*%
%ADD21RoundRect,0.200000X0.200000X0.450000X-0.200000X0.450000X-0.200000X-0.450000X0.200000X-0.450000X0*%
%ADD22RoundRect,0.250001X0.799999X1.249999X-0.799999X1.249999X-0.799999X-1.249999X0.799999X-1.249999X0*%
%ADD23RoundRect,0.135000X-0.135000X-0.185000X0.135000X-0.185000X0.135000X0.185000X-0.135000X0.185000X0*%
%ADD24R,0.875000X1.625000*%
%ADD25R,1.500000X0.900000*%
%ADD26R,0.700000X0.700000*%
G04 APERTURE END LIST*
D10*
%TO.C,C14*%
X-17786500Y-9361830D03*
X-17011500Y-10704170D03*
%TD*%
%TO.C,C15*%
X-11817500Y-5932830D03*
X-11042500Y-7275170D03*
%TD*%
D11*
%TO.C,U13*%
X15426133Y-10006723D03*
X15901133Y-9183999D03*
X16376133Y-8361275D03*
X14037865Y-7011275D03*
X13562865Y-7833999D03*
X13087865Y-8656723D03*
%TD*%
D12*
%TO.C,C29*%
X11042500Y-7275170D03*
X11817500Y-5932830D03*
%TD*%
D13*
%TO.C,C39*%
X-10210800Y-1902400D03*
X-10210800Y-942400D03*
%TD*%
D14*
%TO.C,C26*%
X18553400Y-10150708D03*
X18073400Y-10982092D03*
%TD*%
%TO.C,C38*%
X-10123200Y4428892D03*
X-10603200Y3597508D03*
%TD*%
D15*
%TO.C,R9*%
X8003000Y8001000D03*
X6983000Y8001000D03*
%TD*%
D16*
%TO.C,U5*%
X-16192104Y-8255026D03*
X-15717104Y-9077750D03*
X-15242104Y-9900474D03*
X-13271896Y-8762974D03*
X-14221896Y-7117526D03*
%TD*%
D17*
%TO.C,C37*%
X-7887000Y8001000D03*
X-6337000Y8001000D03*
%TD*%
D15*
%TO.C,R7*%
X-10033000Y-3175000D03*
X-11053000Y-3175000D03*
%TD*%
D18*
%TO.C,C28*%
X10326400Y-6486292D03*
X10806400Y-5654908D03*
%TD*%
D19*
%TO.C,J5*%
X-4375000Y-7471000D03*
X-3125000Y-7471000D03*
X-1875000Y-7471000D03*
X-625000Y-7471000D03*
X625000Y-7471000D03*
X1875000Y-7471000D03*
X3125000Y-7471000D03*
X4375000Y-7471000D03*
D20*
X-6887500Y-10221000D03*
X6887500Y-10221000D03*
%TD*%
D21*
%TO.C,J6*%
X3125000Y7471000D03*
X1875000Y7471000D03*
X625000Y7471000D03*
X-625000Y7471000D03*
X-1875000Y7471000D03*
X-3125000Y7471000D03*
D22*
X5675000Y10221000D03*
X-5675000Y10221000D03*
%TD*%
D14*
%TO.C,C27*%
X17639000Y-9617308D03*
X17159000Y-10448692D03*
%TD*%
D23*
%TO.C,R1*%
X-492000Y20574000D03*
X528000Y20574000D03*
%TD*%
D24*
%TO.C,U2*%
X-787499Y14976499D03*
X-787499Y12201499D03*
X787499Y12201499D03*
X787499Y14976499D03*
%TD*%
D25*
%TO.C,U9*%
X-8749999Y5749999D03*
X-8749999Y4249999D03*
X-8749999Y2749999D03*
X-8749999Y1249999D03*
X-8749999Y-249999D03*
X-8749999Y-1749999D03*
X-8749999Y-3249999D03*
X-8749999Y-4749999D03*
X-8749999Y-6249999D03*
X8749999Y-6249999D03*
X8749999Y-4749999D03*
X8749999Y-3249999D03*
X8749999Y-1749999D03*
X8749999Y-249999D03*
X8749999Y1249999D03*
X8749999Y2749999D03*
X8749999Y4249999D03*
X8749999Y5749999D03*
D26*
X-139999Y649999D03*
X-139999Y-449999D03*
X-139999Y-1549999D03*
X909999Y649999D03*
X909999Y-449999D03*
X909999Y-1549999D03*
X2059999Y649999D03*
X2059999Y-449999D03*
X2059999Y-1549999D03*
%TD*%
M02*
