%TF.GenerationSoftware,KiCad,Pcbnew,7.0.0-da2b9df05c~163~ubuntu22.04.1*%
%TF.CreationDate,2023-04-03T02:04:13+03:00*%
%TF.ProjectId,freeeeg16-alpha,66726565-6565-4673-9136-2d616c706861,rev?*%
%TF.SameCoordinates,Original*%
%TF.FileFunction,Copper,L3,Inr*%
%TF.FilePolarity,Positive*%
%FSLAX46Y46*%
G04 Gerber Fmt 4.6, Leading zero omitted, Abs format (unit mm)*
G04 Created by KiCad (PCBNEW 7.0.0-da2b9df05c~163~ubuntu22.04.1) date 2023-04-03 02:04:13*
%MOMM*%
%LPD*%
G01*
G04 APERTURE LIST*
G04 Aperture macros list*
%AMHorizOval*
0 Thick line with rounded ends*
0 $1 width*
0 $2 $3 position (X,Y) of the first rounded end (center of the circle)*
0 $4 $5 position (X,Y) of the second rounded end (center of the circle)*
0 Add line between two ends*
20,1,$1,$2,$3,$4,$5,0*
0 Add two circle primitives to create the rounded ends*
1,1,$1,$2,$3*
1,1,$1,$4,$5*%
%AMRotRect*
0 Rectangle, with rotation*
0 The origin of the aperture is its center*
0 $1 length*
0 $2 width*
0 $3 Rotation angle, in degrees counterclockwise*
0 Add horizontal line*
21,1,$1,$2,0,0,$3*%
G04 Aperture macros list end*
%TA.AperFunction,ComponentPad*%
%ADD10R,1.000000X1.000000*%
%TD*%
%TA.AperFunction,ComponentPad*%
%ADD11O,1.000000X1.000000*%
%TD*%
%TA.AperFunction,ComponentPad*%
%ADD12RotRect,1.000000X1.000000X210.000000*%
%TD*%
%TA.AperFunction,ComponentPad*%
%ADD13HorizOval,1.000000X0.000000X0.000000X0.000000X0.000000X0*%
%TD*%
%TA.AperFunction,ComponentPad*%
%ADD14RotRect,1.000000X1.000000X150.000000*%
%TD*%
%TA.AperFunction,ComponentPad*%
%ADD15HorizOval,1.000000X0.000000X0.000000X0.000000X0.000000X0*%
%TD*%
%TA.AperFunction,ComponentPad*%
%ADD16RotRect,1.000000X1.000000X330.000000*%
%TD*%
%TA.AperFunction,ComponentPad*%
%ADD17HorizOval,1.000000X0.000000X0.000000X0.000000X0.000000X0*%
%TD*%
%TA.AperFunction,ViaPad*%
%ADD18C,0.800000*%
%TD*%
G04 APERTURE END LIST*
D10*
%TO.N,ACC_5_VDDIO*%
%TO.C,J1*%
X-624999Y19054999D03*
D11*
%TO.N,CRYSTAL_4_Vin*%
X644999Y19054999D03*
%TO.N,MCU_18_PB0_ADC1_SYNC{slash}RESET*%
X-624999Y17784999D03*
%TO.N,ADC1_16_SYNC{slash}RESET*%
X644999Y17784999D03*
%TO.N,CRYSTAL_3_OUT*%
X-624999Y16514999D03*
%TO.N,MCU_5_PDO0_RCC_OSC_IN*%
X644999Y16514999D03*
%TD*%
D12*
%TO.N,ADC1_02_AIN2N*%
%TO.C,J3*%
X12344399Y-1099851D03*
D13*
%TO.N,/J17*%
X11709399Y0D03*
%TO.N,ADC1_09_AIN6P*%
X11074399Y1099852D03*
%TD*%
D14*
%TO.N,3V3_2_GND*%
%TO.C,J2*%
X-12346899Y-1104182D03*
D15*
%TO.N,/J18*%
X-11711899Y-4330D03*
%TO.N,ADC1_09_AIN6P*%
X-11076899Y1095521D03*
%TD*%
D10*
%TO.N,ADC2_08_AIN5P*%
%TO.C,J29*%
X11167947Y-9026999D03*
D11*
X11167947Y-10296999D03*
%TO.N,ADC2_09_AIN6P*%
X9897947Y-9026999D03*
X9897947Y-10296999D03*
%TO.N,ADC2_12_AIN7P*%
X8627947Y-9026999D03*
X8627947Y-10296999D03*
%TD*%
D10*
%TO.N,ADC1_29_AIN0P*%
%TO.C,J28*%
X-8630999Y-9026999D03*
D11*
X-8630999Y-10296999D03*
%TO.N,/J18*%
X-9900999Y-9026999D03*
X-9900999Y-10296999D03*
%TO.N,ADC1_32_AIN1P*%
X-11170999Y-9026999D03*
X-11170999Y-10296999D03*
%TD*%
D12*
%TO.N,ADC2_04_AIN3P*%
%TO.C,J31*%
X12133110Y-2961164D03*
D13*
X13232962Y-2326164D03*
%TO.N,/J17*%
X12768110Y-4061016D03*
X13867962Y-3426016D03*
%TO.N,ADC2_05_AIN4P*%
X13403110Y-5160869D03*
X14502962Y-4525869D03*
%TD*%
D16*
%TO.N,ADC1_08_AIN5P*%
%TO.C,J32*%
X-3502111Y11988166D03*
D17*
X-4601963Y12623166D03*
%TO.N,ADC1_09_AIN6P*%
X-2867111Y13088018D03*
X-3966963Y13723018D03*
%TO.N,ADC1_12_AIN7P*%
X-2232111Y14187871D03*
X-3331963Y14822871D03*
%TD*%
D12*
%TO.N,ADC2_29_AIN0P*%
%TO.C,J33*%
X2233636Y14185226D03*
D13*
X3333488Y14820226D03*
%TO.N,ADC2_32_AIN1P*%
X2868636Y13085374D03*
X3968488Y13720374D03*
%TO.N,ADC2_01_AIN2P*%
X3503636Y11985521D03*
X4603488Y12620521D03*
%TD*%
D16*
%TO.N,ADC1_01_AIN2P*%
%TO.C,J30*%
X-13401585Y-5158224D03*
D17*
X-14501437Y-4523224D03*
%TO.N,ADC1_04_AIN3P*%
X-12766585Y-4058372D03*
X-13866437Y-3423372D03*
%TO.N,ADC1_05_AIN4P*%
X-12131585Y-2958519D03*
X-13231437Y-2323519D03*
%TD*%
D18*
%TO.N,*%
X-6883400Y-10210800D03*
X6908800Y-10210800D03*
%TO.N,3V3_1_IN*%
X-3167720Y7207999D03*
X-13987908Y-10303090D03*
X-15964500Y-6705600D03*
X14599318Y-6155988D03*
%TO.N,ADC1_15_AVDD*%
X14037867Y-7011275D03*
X7342072Y1466090D03*
X17068800Y-7594600D03*
X57669Y9170799D03*
%TO.N,ADC1_26_DVDD*%
X-2146300Y2806700D03*
X-12368202Y-9654691D03*
X6716707Y3884418D03*
%TO.N,ADC1_14_REFIN*%
X-3844068Y6384068D03*
X10102741Y-4966605D03*
X6631839Y474212D03*
X-587663Y7599508D03*
%TO.N,ACC_5_VDDIO*%
X-6298133Y-6679133D03*
X-806128Y-8764200D03*
X-1251473Y-82260D03*
X7023056Y-5311845D03*
X-14457301Y-5911133D03*
X2616200Y-10820400D03*
%TO.N,ADC2_01_AIN2P*%
X10349900Y2474505D03*
%TO.N,ADC2_17_CS*%
X-812967Y-2405237D03*
X2641600Y2895600D03*
%TO.N,ADC2_29_AIN0P*%
X2873887Y11080071D03*
%TO.N,ADC1_02_AIN2N*%
X-6471641Y15181D03*
X5334000Y50800D03*
X1873598Y7594734D03*
%TO.N,ADC1_08_AIN5P*%
X-10622859Y2653900D03*
%TO.N,ADC1_09_AIN6P*%
X2463800Y15849600D03*
%TO.N,ADC1_12_AIN7P*%
X-3022600Y10744200D03*
%TO.N,ADC1_16_SYNC{slash}RESET*%
X2667000Y1600200D03*
X1575177Y10338177D03*
X-7142067Y6599500D03*
%TO.N,ADC1_17_CS*%
X-3986395Y-5595707D03*
X-6500993Y1778000D03*
%TO.N,ADC1_18_DRDY*%
X-5883425Y2581501D03*
X-1515793Y-3115899D03*
%TO.N,ADC1_19_SCLK*%
X-3196554Y-6204685D03*
X-5416652Y1690986D03*
%TO.N,ADC1_23_XTAL1{slash}CLKIN*%
X1626915Y-4835303D03*
X3649502Y6107631D03*
X-1792100Y4338298D03*
%TO.N,3V3_2_GND*%
X-3943752Y10010300D03*
X18694400Y-10820400D03*
X5230505Y-10778132D03*
X12135314Y-10936687D03*
X-10605170Y-5709522D03*
X-7861606Y-6168372D03*
X-17017009Y-7454768D03*
X250212Y-9274788D03*
X-15113000Y-11030000D03*
X12274293Y-7212197D03*
X-335801Y605723D03*
X-7402127Y3747685D03*
X2815280Y10079859D03*
X2006600Y4551933D03*
X6156471Y-5830636D03*
X-285001Y-337089D03*
X-6396854Y7412854D03*
X-4703049Y-9386346D03*
%TO.N,3V3_5_OUT*%
X-1828339Y11676570D03*
X952855Y4940900D03*
%TO.N,MCU_7_NRST*%
X-624999Y-7471002D03*
%TO.N,MCU_34_PA13_SYS_JTMS-SWDIO*%
X867897Y-7242595D03*
%TO.N,MCU_37_PA14_SYS_JTCK-SWCLK*%
X5143567Y-6489633D03*
%TO.N,ADC1_20_DOUT*%
X-4423725Y1576521D03*
X-2533936Y-5456391D03*
%TO.N,ADC1_21_DIN*%
X-3984924Y2578666D03*
X-2343219Y-4343400D03*
%TO.N,ADC2_19_SCLK*%
X70832Y-3129737D03*
X4075967Y2434291D03*
%TO.N,ADC2_20_DOUT*%
X4895219Y3013733D03*
X326162Y-4096077D03*
%TO.N,ADC2_21_DIN*%
X5265859Y3944378D03*
X341897Y-5095456D03*
%TO.N,MCU_38_PA15_SYS_JTDI*%
X3709418Y-6013573D03*
%TO.N,MCU_39_PB3_SYS_JTDO-TRACESWO*%
X2083941Y-7409134D03*
%TO.N,MCU_5_PDO0_RCC_OSC_IN*%
X-3759200Y-10541000D03*
X-1323600Y10692649D03*
%TO.N,ACC_13_SCL*%
X4378065Y-9102465D03*
%TO.N,ACC_14_SDA*%
X2726877Y-4290223D03*
%TO.N,RADIO_8_GPIO9*%
X-8586106Y-4832753D03*
%TO.N,MCU_12_PA2_USART2_TX*%
X-6045200Y-5156200D03*
%TO.N,MCU_13_PA3_USART2_RX*%
X-6072303Y-4157065D03*
%TO.N,MCU_18_PB0_ADC1_SYNC{slash}RESET*%
X-2325545Y8989485D03*
X-1372544Y-4105083D03*
X50800Y3175000D03*
%TO.N,/vref2/1_FILTER*%
X15189200Y-10947400D03*
%TD*%
%TA.AperFunction,Conductor*%
%TO.N,3V3_2_GND*%
G36*
X-1696510Y19667824D02*
G01*
X-1650384Y19621704D01*
X-1633500Y19558699D01*
X-1633500Y18506362D01*
X-1626989Y18445799D01*
X-1575889Y18308796D01*
X-1570489Y18301582D01*
X-1566171Y18293675D01*
X-1567952Y18292702D01*
X-1548619Y18244815D01*
X-1557232Y18180895D01*
X-1558319Y18178269D01*
X-1561241Y18172804D01*
X-1618908Y17982701D01*
X-1638380Y17785000D01*
X-1618908Y17587299D01*
X-1561241Y17397196D01*
X-1467595Y17221996D01*
X-1465099Y17218954D01*
X-1446718Y17174584D01*
X-1446718Y17125416D01*
X-1465099Y17081045D01*
X-1467595Y17078004D01*
X-1561241Y16902804D01*
X-1618908Y16712701D01*
X-1638380Y16515000D01*
X-1618908Y16317299D01*
X-1561241Y16127196D01*
X-1467595Y15951996D01*
X-1341568Y15798432D01*
X-1336788Y15794509D01*
X-1248411Y15721980D01*
X-1188004Y15672405D01*
X-1182545Y15669487D01*
X-1164182Y15659672D01*
X-1012804Y15578759D01*
X-1006880Y15576962D01*
X-828623Y15522888D01*
X-828619Y15522887D01*
X-822701Y15521092D01*
X-816547Y15520485D01*
X-816538Y15520484D01*
X-631163Y15502227D01*
X-625000Y15501620D01*
X-618837Y15502227D01*
X-433461Y15520484D01*
X-433450Y15520486D01*
X-427299Y15521092D01*
X-421382Y15522886D01*
X-421376Y15522888D01*
X-243119Y15576962D01*
X-243116Y15576963D01*
X-237196Y15578759D01*
X-231738Y15581676D01*
X-231734Y15581678D01*
X-67451Y15669488D01*
X-67441Y15669494D01*
X-61996Y15672405D01*
X-58953Y15674901D01*
X-14579Y15693280D01*
X34579Y15693280D01*
X78953Y15674901D01*
X81996Y15672405D01*
X87441Y15669494D01*
X87451Y15669488D01*
X251734Y15581678D01*
X251738Y15581676D01*
X257196Y15578759D01*
X263116Y15576963D01*
X263119Y15576962D01*
X441376Y15522888D01*
X441382Y15522886D01*
X447299Y15521092D01*
X453450Y15520486D01*
X453461Y15520484D01*
X638837Y15502227D01*
X645000Y15501620D01*
X651163Y15502227D01*
X836538Y15520484D01*
X836547Y15520485D01*
X842701Y15521092D01*
X848619Y15522887D01*
X848623Y15522888D01*
X1026880Y15576962D01*
X1032804Y15578759D01*
X1184182Y15659672D01*
X1202545Y15669487D01*
X1208004Y15672405D01*
X1268411Y15721980D01*
X1359464Y15796705D01*
X1420706Y15823912D01*
X1487235Y15815872D01*
X1540232Y15774860D01*
X1564708Y15712477D01*
X1568919Y15672405D01*
X1570258Y15659672D01*
X1572295Y15653401D01*
X1572297Y15653394D01*
X1627230Y15484328D01*
X1627234Y15484318D01*
X1629273Y15478044D01*
X1632576Y15472322D01*
X1632577Y15472321D01*
X1721458Y15318374D01*
X1721461Y15318369D01*
X1724760Y15312656D01*
X1729175Y15307753D01*
X1772731Y15259379D01*
X1799906Y15210854D01*
X1803543Y15155358D01*
X1782934Y15103702D01*
X1742094Y15065950D01*
X1254253Y14784295D01*
X1205059Y14748374D01*
X1200042Y14742298D01*
X1200040Y14742296D01*
X1117700Y14642570D01*
X1111961Y14635619D01*
X1054401Y14501202D01*
X1053331Y14492260D01*
X1053331Y14492257D01*
X1038110Y14364960D01*
X1038110Y14364955D01*
X1037041Y14356014D01*
X1038534Y14347130D01*
X1038535Y14347126D01*
X1049255Y14283379D01*
X1061289Y14211816D01*
X1064473Y14204616D01*
X1064476Y14204609D01*
X1084563Y14159201D01*
X1084571Y14159184D01*
X1085931Y14156111D01*
X1087613Y14153197D01*
X1087620Y14153184D01*
X1632879Y13208769D01*
X1632884Y13208759D01*
X1634569Y13205843D01*
X1636555Y13203122D01*
X1636561Y13203114D01*
X1665841Y13163014D01*
X1665846Y13163007D01*
X1670490Y13156649D01*
X1676560Y13151636D01*
X1676567Y13151630D01*
X1776293Y13069290D01*
X1776297Y13069287D01*
X1783245Y13063551D01*
X1791529Y13060003D01*
X1791540Y13059997D01*
X1792192Y13059718D01*
X1792828Y13059211D01*
X1799225Y13055313D01*
X1798738Y13054514D01*
X1844234Y13018346D01*
X1867975Y12956247D01*
X1874729Y12887674D01*
X1876523Y12881757D01*
X1876525Y12881751D01*
X1924237Y12724467D01*
X1932396Y12697571D01*
X1935313Y12692113D01*
X1935315Y12692109D01*
X2023124Y12527829D01*
X2023127Y12527824D01*
X2026042Y12522371D01*
X2029963Y12517592D01*
X2029968Y12517586D01*
X2148146Y12373586D01*
X2148151Y12373580D01*
X2152069Y12368807D01*
X2156842Y12364889D01*
X2156848Y12364884D01*
X2300848Y12246706D01*
X2300854Y12246701D01*
X2305633Y12242780D01*
X2311091Y12239862D01*
X2311092Y12239862D01*
X2430844Y12175853D01*
X2468847Y12144665D01*
X2492022Y12101308D01*
X2496841Y12052383D01*
X2490864Y11991688D01*
X2490257Y11985522D01*
X2490406Y11983999D01*
X2473983Y11922704D01*
X2427862Y11876585D01*
X2423167Y11873874D01*
X2417135Y11871189D01*
X2411794Y11867308D01*
X2411793Y11867308D01*
X2288396Y11777654D01*
X2262634Y11758937D01*
X2134847Y11617015D01*
X2039360Y11451627D01*
X2037320Y11445349D01*
X2037317Y11445342D01*
X1988309Y11294509D01*
X1956003Y11242808D01*
X1903206Y11212326D01*
X1842278Y11210199D01*
X1670664Y11246677D01*
X1479690Y11246677D01*
X1292889Y11206971D01*
X1118425Y11129295D01*
X963924Y11017043D01*
X836137Y10875121D01*
X740650Y10709733D01*
X738610Y10703455D01*
X738607Y10703448D01*
X683674Y10534382D01*
X683672Y10534377D01*
X681635Y10528105D01*
X661673Y10338177D01*
X662363Y10331612D01*
X679039Y10172943D01*
X681635Y10148249D01*
X683674Y10141973D01*
X683675Y10141969D01*
X693656Y10111249D01*
X698057Y10051297D01*
X674180Y9996130D01*
X627460Y9958303D01*
X568532Y9946427D01*
X514514Y9962127D01*
X514421Y9961917D01*
X339957Y10039593D01*
X153156Y10079299D01*
X-37818Y10079299D01*
X-224619Y10039593D01*
X-399083Y9961917D01*
X-470135Y9910293D01*
X-526658Y9887456D01*
X-587288Y9893828D01*
X-616348Y9913429D01*
X-599478Y9881699D01*
X-599478Y9820734D01*
X-628096Y9766909D01*
X-681371Y9707743D01*
X-776858Y9542355D01*
X-835873Y9360727D01*
X-855835Y9170799D01*
X-835873Y8980871D01*
X-833833Y8974593D01*
X-779093Y8806120D01*
X-776858Y8799243D01*
X-703560Y8672288D01*
X-686853Y8615884D01*
X-697573Y8558041D01*
X-733386Y8511369D01*
X-786481Y8486044D01*
X-869951Y8468302D01*
X-1044415Y8390626D01*
X-1198916Y8278374D01*
X-1326703Y8136452D01*
X-1422190Y7971064D01*
X-1481205Y7789436D01*
X-1501167Y7599508D01*
X-1481205Y7409580D01*
X-1422190Y7227952D01*
X-1326703Y7062564D01*
X-1198916Y6920642D01*
X-1193574Y6916761D01*
X-1193571Y6916758D01*
X-1163440Y6894867D01*
X-1044415Y6808390D01*
X-869951Y6730714D01*
X-863498Y6729342D01*
X-863494Y6729341D01*
X-689606Y6692380D01*
X-689603Y6692379D01*
X-683150Y6691008D01*
X-498779Y6691008D01*
X-492176Y6691008D01*
X-485723Y6692379D01*
X-485719Y6692380D01*
X-311831Y6729341D01*
X-311824Y6729343D01*
X-305375Y6730714D01*
X-191114Y6781586D01*
X-136941Y6805705D01*
X-136938Y6805706D01*
X-130911Y6808390D01*
X-125569Y6812271D01*
X18245Y6916758D01*
X18248Y6916761D01*
X23590Y6920642D01*
X151377Y7062564D01*
X246864Y7227952D01*
X305879Y7409580D01*
X325339Y7594734D01*
X960094Y7594734D01*
X960784Y7588169D01*
X973665Y7465608D01*
X980056Y7404806D01*
X982093Y7398535D01*
X982095Y7398528D01*
X1037028Y7229462D01*
X1037032Y7229452D01*
X1039071Y7223178D01*
X1042374Y7217456D01*
X1042375Y7217455D01*
X1131256Y7063508D01*
X1131259Y7063503D01*
X1134558Y7057790D01*
X1138976Y7052883D01*
X1138977Y7052882D01*
X1257923Y6920778D01*
X1257928Y6920773D01*
X1262345Y6915868D01*
X1267681Y6911990D01*
X1267689Y6911984D01*
X1404933Y6812271D01*
X1416846Y6803616D01*
X1422873Y6800932D01*
X1422876Y6800931D01*
X1580587Y6730714D01*
X1591310Y6725940D01*
X1597759Y6724569D01*
X1597766Y6724567D01*
X1771654Y6687606D01*
X1771658Y6687605D01*
X1778111Y6686234D01*
X1962482Y6686234D01*
X1969085Y6686234D01*
X1975538Y6687605D01*
X1975541Y6687606D01*
X2149429Y6724567D01*
X2149433Y6724568D01*
X2155886Y6725940D01*
X2330350Y6803616D01*
X2461289Y6898749D01*
X2479506Y6911984D01*
X2479509Y6911987D01*
X2484851Y6915868D01*
X2612638Y7057790D01*
X2708125Y7223178D01*
X2727319Y7282249D01*
X2765100Y7398528D01*
X2767140Y7404806D01*
X2787102Y7594734D01*
X2767140Y7784662D01*
X2708125Y7966290D01*
X2612638Y8131678D01*
X2484851Y8273600D01*
X2330350Y8385852D01*
X2155886Y8463528D01*
X1969085Y8503234D01*
X1778111Y8503234D01*
X1591310Y8463528D01*
X1416846Y8385852D01*
X1330525Y8323136D01*
X1268916Y8278374D01*
X1262345Y8273600D01*
X1257923Y8268689D01*
X1249141Y8258936D01*
X1134558Y8131678D01*
X1039071Y7966290D01*
X1037031Y7960012D01*
X1037028Y7960005D01*
X982095Y7790939D01*
X982093Y7790934D01*
X980056Y7784662D01*
X960094Y7594734D01*
X325339Y7594734D01*
X325841Y7599508D01*
X305879Y7789436D01*
X246864Y7971064D01*
X173565Y8098020D01*
X156859Y8154421D01*
X167579Y8212264D01*
X203391Y8258936D01*
X256489Y8284262D01*
X333491Y8300629D01*
X333505Y8300633D01*
X339957Y8302005D01*
X514421Y8379681D01*
X607949Y8447633D01*
X663577Y8488049D01*
X663580Y8488052D01*
X668922Y8491933D01*
X796709Y8633855D01*
X892196Y8799243D01*
X894431Y8806120D01*
X949171Y8974593D01*
X951211Y8980871D01*
X971173Y9170799D01*
X951211Y9360727D01*
X939189Y9397723D01*
X934787Y9457671D01*
X958660Y9512838D01*
X1005374Y9550667D01*
X1064298Y9562549D01*
X1118332Y9546850D01*
X1118425Y9547059D01*
X1119943Y9546382D01*
X1119950Y9546379D01*
X1124452Y9544375D01*
X1124455Y9544374D01*
X1286858Y9472068D01*
X1292889Y9469383D01*
X1299338Y9468012D01*
X1299345Y9468010D01*
X1473233Y9431049D01*
X1473237Y9431048D01*
X1479690Y9429677D01*
X1664061Y9429677D01*
X1670664Y9429677D01*
X1677117Y9431048D01*
X1677120Y9431049D01*
X1851008Y9468010D01*
X1851012Y9468011D01*
X1857465Y9469383D01*
X2031929Y9547059D01*
X2139741Y9625389D01*
X2181085Y9655427D01*
X2181088Y9655430D01*
X2186430Y9659311D01*
X2314217Y9801233D01*
X2409704Y9966621D01*
X2460755Y10123740D01*
X2493060Y10175439D01*
X2545857Y10205921D01*
X2606784Y10208049D01*
X2771943Y10172943D01*
X2771947Y10172942D01*
X2778400Y10171571D01*
X2962771Y10171571D01*
X2969374Y10171571D01*
X2975827Y10172942D01*
X2975830Y10172943D01*
X3149718Y10209904D01*
X3149722Y10209905D01*
X3156175Y10211277D01*
X3330639Y10288953D01*
X3407426Y10344742D01*
X3479795Y10397321D01*
X3479798Y10397324D01*
X3485140Y10401205D01*
X3612927Y10543127D01*
X3708414Y10708515D01*
X3767429Y10890143D01*
X3771883Y10932526D01*
X3786330Y10979234D01*
X3817470Y11016928D01*
X3860615Y11039930D01*
X3885521Y11047485D01*
X3885522Y11047485D01*
X3891441Y11049281D01*
X3896896Y11052196D01*
X3896899Y11052198D01*
X4061182Y11140009D01*
X4066641Y11142927D01*
X4071425Y11146853D01*
X4215425Y11265031D01*
X4220205Y11268954D01*
X4346232Y11422518D01*
X4413159Y11547730D01*
X4444346Y11585732D01*
X4487703Y11608907D01*
X4536628Y11613726D01*
X4597323Y11607749D01*
X4597326Y11607749D01*
X4603489Y11607142D01*
X4609652Y11607749D01*
X4795027Y11626006D01*
X4795036Y11626007D01*
X4801190Y11626614D01*
X4807108Y11628409D01*
X4807112Y11628410D01*
X4985369Y11682484D01*
X4991293Y11684281D01*
X5166493Y11777927D01*
X5280133Y11871189D01*
X5315277Y11900031D01*
X5320057Y11903954D01*
X5446084Y12057518D01*
X5539730Y12232718D01*
X5597397Y12422821D01*
X5598265Y12431628D01*
X5616262Y12614359D01*
X5616869Y12620522D01*
X5614050Y12649143D01*
X5625720Y12715742D01*
X5670138Y12766720D01*
X5734514Y12787397D01*
X5800309Y12771817D01*
X5848577Y12724467D01*
X13938735Y-1295704D01*
X13955598Y-1357877D01*
X13939527Y-1420260D01*
X13894721Y-1466545D01*
X13832894Y-1484635D01*
X13770205Y-1469800D01*
X13626231Y-1392844D01*
X13626226Y-1392842D01*
X13620767Y-1389924D01*
X13616735Y-1388700D01*
X13577415Y-1362652D01*
X13550172Y-1322912D01*
X13540183Y-1277430D01*
X13540996Y-1270639D01*
X13516748Y-1126441D01*
X13492106Y-1070736D01*
X12943468Y-120468D01*
X12907547Y-71274D01*
X12901471Y-66257D01*
X12901469Y-66255D01*
X12821224Y0D01*
X12794792Y21824D01*
X12785860Y25648D01*
X12785225Y26153D01*
X12778811Y30063D01*
X12779298Y30863D01*
X12733807Y67021D01*
X12710061Y129129D01*
X12703308Y197701D01*
X12645641Y387804D01*
X12551995Y563004D01*
X12425968Y716568D01*
X12272404Y842595D01*
X12174776Y894778D01*
X12147192Y909522D01*
X12109188Y940711D01*
X12086012Y984069D01*
X12081194Y1032991D01*
X12087780Y1099853D01*
X12068308Y1297554D01*
X12010641Y1487657D01*
X11916995Y1662857D01*
X11790968Y1816421D01*
X11637404Y1942448D01*
X11462204Y2036094D01*
X11312540Y2081493D01*
X11256592Y2116539D01*
X11226044Y2175065D01*
X11229284Y2241005D01*
X11243442Y2284577D01*
X11263404Y2474505D01*
X11243442Y2664433D01*
X11184427Y2846061D01*
X11088940Y3011449D01*
X10961153Y3153371D01*
X10806652Y3265623D01*
X10632188Y3343299D01*
X10445387Y3383005D01*
X10254413Y3383005D01*
X10067612Y3343299D01*
X9893148Y3265623D01*
X9796978Y3195751D01*
X9759381Y3168435D01*
X9738647Y3153371D01*
X9610860Y3011449D01*
X9515373Y2846061D01*
X9513333Y2839783D01*
X9513330Y2839776D01*
X9458397Y2670710D01*
X9458395Y2670705D01*
X9456358Y2664433D01*
X9436396Y2474505D01*
X9437086Y2467940D01*
X9453802Y2308891D01*
X9456358Y2284577D01*
X9458395Y2278306D01*
X9458397Y2278299D01*
X9513330Y2109233D01*
X9513334Y2109223D01*
X9515373Y2102949D01*
X9518676Y2097227D01*
X9518677Y2097226D01*
X9607558Y1943279D01*
X9607561Y1943274D01*
X9610860Y1937561D01*
X9615278Y1932654D01*
X9615279Y1932653D01*
X9734225Y1800549D01*
X9734230Y1800544D01*
X9738647Y1795639D01*
X9743983Y1791761D01*
X9743991Y1791755D01*
X9887806Y1687268D01*
X9893148Y1683387D01*
X9899175Y1680703D01*
X9899178Y1680702D01*
X10059700Y1609233D01*
X10107231Y1572347D01*
X10132240Y1517628D01*
X10129026Y1457550D01*
X10094280Y1343006D01*
X10080492Y1297554D01*
X10079885Y1291400D01*
X10079884Y1291391D01*
X10061627Y1106016D01*
X10061020Y1099853D01*
X10061627Y1093692D01*
X10061627Y1093690D01*
X10079884Y908314D01*
X10079886Y908303D01*
X10080492Y902152D01*
X10082286Y896235D01*
X10082288Y896229D01*
X10135598Y720490D01*
X10138159Y712049D01*
X10141076Y706591D01*
X10141078Y706587D01*
X10228887Y542307D01*
X10228890Y542302D01*
X10231805Y536849D01*
X10235726Y532070D01*
X10235731Y532064D01*
X10353909Y388064D01*
X10353914Y388058D01*
X10357832Y383285D01*
X10362605Y379367D01*
X10362611Y379362D01*
X10506611Y261184D01*
X10506617Y261179D01*
X10511396Y257258D01*
X10516854Y254340D01*
X10516855Y254340D01*
X10636607Y190331D01*
X10674610Y159143D01*
X10697785Y115786D01*
X10702604Y66861D01*
X10696627Y6166D01*
X10696020Y0D01*
X10696627Y-6163D01*
X10714884Y-191538D01*
X10714885Y-191547D01*
X10715492Y-197701D01*
X10717287Y-203619D01*
X10717288Y-203623D01*
X10752820Y-320756D01*
X10773159Y-387804D01*
X10866805Y-563004D01*
X10870730Y-567787D01*
X10870731Y-567788D01*
X10945401Y-658774D01*
X10992832Y-716568D01*
X10997611Y-720490D01*
X10997615Y-720494D01*
X11103720Y-807572D01*
X11140691Y-857965D01*
X11147731Y-911129D01*
X11148659Y-911107D01*
X11148863Y-919676D01*
X11148896Y-919925D01*
X11148873Y-920113D01*
X11148873Y-920122D01*
X11147804Y-929065D01*
X11149297Y-937949D01*
X11149298Y-937952D01*
X11170745Y-1065491D01*
X11172052Y-1073263D01*
X11175237Y-1080464D01*
X11175239Y-1080469D01*
X11195326Y-1125877D01*
X11195331Y-1125886D01*
X11196694Y-1128968D01*
X11198380Y-1131889D01*
X11198383Y-1131894D01*
X11327838Y-1356116D01*
X11656913Y-1926090D01*
X11673794Y-1989089D01*
X11656913Y-2052089D01*
X11610794Y-2098208D01*
X11156653Y-2360407D01*
X11156643Y-2360412D01*
X11153727Y-2362097D01*
X11151006Y-2364083D01*
X11150998Y-2364089D01*
X11110898Y-2393369D01*
X11110891Y-2393374D01*
X11104533Y-2398018D01*
X11099520Y-2404088D01*
X11099514Y-2404095D01*
X11017174Y-2503821D01*
X11017171Y-2503825D01*
X11011435Y-2510773D01*
X11007887Y-2519058D01*
X11007886Y-2519060D01*
X10957421Y-2636908D01*
X10957420Y-2636911D01*
X10953875Y-2645190D01*
X10952806Y-2654130D01*
X10952805Y-2654134D01*
X10937584Y-2781431D01*
X10937584Y-2781436D01*
X10936515Y-2790378D01*
X10938008Y-2799262D01*
X10938009Y-2799265D01*
X10948729Y-2863013D01*
X10960763Y-2934576D01*
X10963948Y-2941777D01*
X10963950Y-2941782D01*
X10984037Y-2987190D01*
X10984042Y-2987199D01*
X10985405Y-2990281D01*
X10987091Y-2993202D01*
X10987094Y-2993207D01*
X11521409Y-3918667D01*
X11534043Y-3940549D01*
X11536035Y-3943277D01*
X11565315Y-3983377D01*
X11565317Y-3983379D01*
X11569964Y-3989743D01*
X11576039Y-3994759D01*
X11576041Y-3994761D01*
X11660549Y-4064536D01*
X11682719Y-4082841D01*
X11691656Y-4086668D01*
X11692294Y-4087174D01*
X11698698Y-4091078D01*
X11698210Y-4091877D01*
X11743704Y-4128038D01*
X11767449Y-4190144D01*
X11773595Y-4252555D01*
X11773596Y-4252564D01*
X11774203Y-4258718D01*
X11775998Y-4264636D01*
X11775999Y-4264640D01*
X11813497Y-4388253D01*
X11831870Y-4448821D01*
X11925516Y-4624021D01*
X11929441Y-4628804D01*
X11929442Y-4628805D01*
X12045645Y-4770399D01*
X12051543Y-4777585D01*
X12205107Y-4903612D01*
X12330319Y-4970539D01*
X12368321Y-5001726D01*
X12391496Y-5045083D01*
X12396315Y-5094008D01*
X12390338Y-5154704D01*
X12389731Y-5160870D01*
X12390338Y-5167033D01*
X12408595Y-5352408D01*
X12408596Y-5352417D01*
X12409203Y-5358571D01*
X12410998Y-5364489D01*
X12410999Y-5364493D01*
X12456403Y-5514169D01*
X12466870Y-5548674D01*
X12469789Y-5554135D01*
X12544090Y-5693144D01*
X12560516Y-5723874D01*
X12564441Y-5728657D01*
X12564442Y-5728658D01*
X12650622Y-5833669D01*
X12686543Y-5877438D01*
X12840107Y-6003465D01*
X13015307Y-6097111D01*
X13205410Y-6154778D01*
X13307406Y-6164823D01*
X13371267Y-6189878D01*
X13412537Y-6244676D01*
X13418983Y-6312974D01*
X13388692Y-6374525D01*
X13298827Y-6474331D01*
X13295528Y-6480044D01*
X13295525Y-6480049D01*
X13206644Y-6633996D01*
X13203340Y-6639719D01*
X13201301Y-6645993D01*
X13201297Y-6646003D01*
X13146364Y-6815069D01*
X13146362Y-6815076D01*
X13144325Y-6821347D01*
X13143635Y-6827908D01*
X13143635Y-6827910D01*
X13132479Y-6934058D01*
X13124363Y-7011275D01*
X13125053Y-7017840D01*
X13140371Y-7163588D01*
X13144325Y-7201203D01*
X13146362Y-7207475D01*
X13146364Y-7207480D01*
X13201297Y-7376546D01*
X13201300Y-7376553D01*
X13203340Y-7382831D01*
X13298827Y-7548219D01*
X13426614Y-7690141D01*
X13581115Y-7802393D01*
X13755579Y-7880069D01*
X13942380Y-7919775D01*
X14126751Y-7919775D01*
X14133354Y-7919775D01*
X14320155Y-7880069D01*
X14494619Y-7802393D01*
X14649120Y-7690141D01*
X14776907Y-7548219D01*
X14872394Y-7382831D01*
X14931409Y-7201203D01*
X14945702Y-7065203D01*
X14969077Y-7004314D01*
X15019764Y-6963269D01*
X15056070Y-6947106D01*
X15210571Y-6834854D01*
X15338358Y-6692932D01*
X15433845Y-6527544D01*
X15492860Y-6345916D01*
X15512822Y-6155988D01*
X15492860Y-5966060D01*
X15456350Y-5853696D01*
X15435887Y-5790716D01*
X15435886Y-5790714D01*
X15433845Y-5784432D01*
X15338358Y-5619044D01*
X15210571Y-5477122D01*
X15205229Y-5473241D01*
X15205226Y-5473238D01*
X15195592Y-5466239D01*
X15158240Y-5423152D01*
X15143708Y-5368013D01*
X15154970Y-5312114D01*
X15189720Y-5266904D01*
X15214747Y-5246364D01*
X15214746Y-5246364D01*
X15219531Y-5242438D01*
X15345558Y-5088874D01*
X15439204Y-4913674D01*
X15496871Y-4723571D01*
X15516343Y-4525870D01*
X15514629Y-4508470D01*
X15526298Y-4441872D01*
X15570716Y-4390893D01*
X15635092Y-4370216D01*
X15700888Y-4385796D01*
X15749156Y-4433146D01*
X16954248Y-6521560D01*
X16970942Y-6577962D01*
X16960215Y-6635796D01*
X16924403Y-6682459D01*
X16871311Y-6707780D01*
X16792977Y-6724430D01*
X16792960Y-6724435D01*
X16786512Y-6725806D01*
X16780482Y-6728490D01*
X16780481Y-6728491D01*
X16618078Y-6800797D01*
X16618075Y-6800798D01*
X16612048Y-6803482D01*
X16606707Y-6807362D01*
X16606706Y-6807363D01*
X16462891Y-6911850D01*
X16462883Y-6911856D01*
X16457547Y-6915734D01*
X16453130Y-6920639D01*
X16453125Y-6920644D01*
X16353325Y-7031484D01*
X16329760Y-7057656D01*
X16326461Y-7063369D01*
X16326458Y-7063374D01*
X16246883Y-7201203D01*
X16234273Y-7223044D01*
X16232234Y-7229318D01*
X16232230Y-7229328D01*
X16177297Y-7398394D01*
X16177295Y-7398401D01*
X16175258Y-7404672D01*
X16174568Y-7411233D01*
X16174568Y-7411235D01*
X16156173Y-7586260D01*
X16155296Y-7594600D01*
X16155986Y-7601165D01*
X16157345Y-7614100D01*
X16175258Y-7784528D01*
X16177295Y-7790800D01*
X16177297Y-7790805D01*
X16232230Y-7959871D01*
X16232233Y-7959878D01*
X16234273Y-7966156D01*
X16268253Y-8025011D01*
X16316571Y-8108701D01*
X16329760Y-8131544D01*
X16457547Y-8273466D01*
X16462889Y-8277347D01*
X16462891Y-8277349D01*
X16503027Y-8306509D01*
X16612048Y-8385718D01*
X16786512Y-8463394D01*
X16973313Y-8503100D01*
X17157684Y-8503100D01*
X17164287Y-8503100D01*
X17351088Y-8463394D01*
X17525552Y-8385718D01*
X17680053Y-8273466D01*
X17737738Y-8209399D01*
X17786223Y-8176078D01*
X17844557Y-8168403D01*
X17900015Y-8188050D01*
X17940506Y-8230737D01*
X19677266Y-11240526D01*
X19694132Y-11303522D01*
X19677244Y-11366513D01*
X19631126Y-11412623D01*
X19568132Y-11429500D01*
X16161233Y-11429500D01*
X16104030Y-11415767D01*
X16059297Y-11377561D01*
X16036784Y-11323210D01*
X16041399Y-11264565D01*
X16082742Y-11137328D01*
X16102704Y-10947400D01*
X16082742Y-10757472D01*
X16023727Y-10575844D01*
X15928240Y-10410456D01*
X15800453Y-10268534D01*
X15795111Y-10264653D01*
X15795108Y-10264650D01*
X15672717Y-10175728D01*
X15645952Y-10156282D01*
X15471488Y-10078606D01*
X15465035Y-10077234D01*
X15465031Y-10077233D01*
X15291143Y-10040272D01*
X15291140Y-10040271D01*
X15284687Y-10038900D01*
X15093713Y-10038900D01*
X15087260Y-10040271D01*
X15087256Y-10040272D01*
X14913368Y-10077233D01*
X14913361Y-10077235D01*
X14906912Y-10078606D01*
X14900882Y-10081290D01*
X14900881Y-10081291D01*
X14738478Y-10153597D01*
X14738475Y-10153598D01*
X14732448Y-10156282D01*
X14727107Y-10160162D01*
X14727106Y-10160163D01*
X14583291Y-10264650D01*
X14583283Y-10264656D01*
X14577947Y-10268534D01*
X14573530Y-10273439D01*
X14573525Y-10273444D01*
X14458919Y-10400728D01*
X14450160Y-10410456D01*
X14446861Y-10416169D01*
X14446858Y-10416174D01*
X14362771Y-10561818D01*
X14354673Y-10575844D01*
X14352634Y-10582118D01*
X14352630Y-10582128D01*
X14297697Y-10751194D01*
X14297695Y-10751201D01*
X14295658Y-10757472D01*
X14294968Y-10764033D01*
X14294968Y-10764035D01*
X14284379Y-10864788D01*
X14275696Y-10947400D01*
X14276386Y-10953965D01*
X14289416Y-11077944D01*
X14295658Y-11137328D01*
X14337000Y-11264565D01*
X14341616Y-11323210D01*
X14319103Y-11377561D01*
X14274370Y-11415767D01*
X14217167Y-11429500D01*
X11691598Y-11429500D01*
X11627885Y-11412205D01*
X11581664Y-11365066D01*
X11565622Y-11301026D01*
X11584165Y-11237665D01*
X11632202Y-11192378D01*
X11675568Y-11169198D01*
X11730952Y-11139595D01*
X11884516Y-11013568D01*
X12010543Y-10860004D01*
X12104189Y-10684804D01*
X12161856Y-10494701D01*
X12181328Y-10297000D01*
X12161856Y-10099299D01*
X12104189Y-9909196D01*
X12101268Y-9903732D01*
X12100179Y-9901102D01*
X12091569Y-9837168D01*
X12110903Y-9789303D01*
X12109118Y-9788328D01*
X12113437Y-9780416D01*
X12118837Y-9773204D01*
X12169937Y-9636201D01*
X12176448Y-9575638D01*
X12176448Y-8478362D01*
X12169937Y-8417799D01*
X12118837Y-8280796D01*
X12109674Y-8268556D01*
X12036607Y-8170950D01*
X12031209Y-8163739D01*
X11988202Y-8131544D01*
X11921365Y-8081510D01*
X11921362Y-8081508D01*
X11914152Y-8076111D01*
X11905714Y-8072964D01*
X11905711Y-8072962D01*
X11784528Y-8027763D01*
X11784526Y-8027762D01*
X11777149Y-8025011D01*
X11769321Y-8024169D01*
X11769315Y-8024168D01*
X11719936Y-8018860D01*
X11719933Y-8018859D01*
X11716586Y-8018500D01*
X10619310Y-8018500D01*
X10615963Y-8018859D01*
X10615959Y-8018860D01*
X10566580Y-8024168D01*
X10566573Y-8024169D01*
X10558747Y-8025011D01*
X10551371Y-8027761D01*
X10551367Y-8027763D01*
X10430183Y-8072963D01*
X10430180Y-8072964D01*
X10421744Y-8076111D01*
X10414532Y-8081509D01*
X10406622Y-8085829D01*
X10405650Y-8084049D01*
X10357759Y-8103380D01*
X10293848Y-8094769D01*
X10291209Y-8093675D01*
X10285752Y-8090759D01*
X10279833Y-8088963D01*
X10279832Y-8088963D01*
X10101571Y-8034888D01*
X10101567Y-8034887D01*
X10095649Y-8033092D01*
X10089495Y-8032485D01*
X10089486Y-8032484D01*
X9904111Y-8014227D01*
X9897948Y-8013620D01*
X9891785Y-8014227D01*
X9706409Y-8032484D01*
X9706398Y-8032486D01*
X9700247Y-8033092D01*
X9694330Y-8034886D01*
X9694324Y-8034888D01*
X9516067Y-8088962D01*
X9516064Y-8088963D01*
X9510144Y-8090759D01*
X9504686Y-8093676D01*
X9504682Y-8093678D01*
X9340402Y-8181487D01*
X9340401Y-8181488D01*
X9334944Y-8184405D01*
X9331902Y-8186900D01*
X9287529Y-8205281D01*
X9238367Y-8205281D01*
X9193992Y-8186900D01*
X9190952Y-8184405D01*
X9165779Y-8170950D01*
X9021213Y-8093678D01*
X9015752Y-8090759D01*
X8967464Y-8076111D01*
X8831571Y-8034888D01*
X8831567Y-8034887D01*
X8825649Y-8033092D01*
X8819495Y-8032485D01*
X8819486Y-8032484D01*
X8634111Y-8014227D01*
X8627948Y-8013620D01*
X8621785Y-8014227D01*
X8436409Y-8032484D01*
X8436398Y-8032486D01*
X8430247Y-8033092D01*
X8424330Y-8034886D01*
X8424324Y-8034888D01*
X8246067Y-8088962D01*
X8246064Y-8088963D01*
X8240144Y-8090759D01*
X8234686Y-8093676D01*
X8234682Y-8093678D01*
X8070402Y-8181487D01*
X8070401Y-8181488D01*
X8064944Y-8184405D01*
X8060165Y-8188326D01*
X8060159Y-8188331D01*
X7916159Y-8306509D01*
X7916153Y-8306514D01*
X7911380Y-8310432D01*
X7907462Y-8315205D01*
X7907457Y-8315211D01*
X7789279Y-8459211D01*
X7789274Y-8459217D01*
X7785353Y-8463996D01*
X7782438Y-8469449D01*
X7782435Y-8469454D01*
X7726409Y-8574272D01*
X7691707Y-8639196D01*
X7689912Y-8645114D01*
X7689910Y-8645119D01*
X7635836Y-8823376D01*
X7635834Y-8823382D01*
X7634040Y-8829299D01*
X7633434Y-8835450D01*
X7633432Y-8835461D01*
X7615175Y-9020837D01*
X7614568Y-9027000D01*
X7615175Y-9033163D01*
X7633432Y-9218538D01*
X7633433Y-9218547D01*
X7634040Y-9224701D01*
X7635835Y-9230619D01*
X7635836Y-9230623D01*
X7676890Y-9365959D01*
X7679697Y-9428086D01*
X7652447Y-9483989D01*
X7601777Y-9520048D01*
X7540032Y-9527478D01*
X7482254Y-9504471D01*
X7427600Y-9464763D01*
X7365552Y-9419682D01*
X7191088Y-9342006D01*
X7184635Y-9340634D01*
X7184631Y-9340633D01*
X7010743Y-9303672D01*
X7010740Y-9303671D01*
X7004287Y-9302300D01*
X6813313Y-9302300D01*
X6806860Y-9303671D01*
X6806856Y-9303672D01*
X6632968Y-9340633D01*
X6632961Y-9340635D01*
X6626512Y-9342006D01*
X6620482Y-9344690D01*
X6620481Y-9344691D01*
X6458078Y-9416997D01*
X6458075Y-9416998D01*
X6452048Y-9419682D01*
X6446707Y-9423562D01*
X6446706Y-9423563D01*
X6302891Y-9528050D01*
X6302883Y-9528056D01*
X6297547Y-9531934D01*
X6293130Y-9536839D01*
X6293125Y-9536844D01*
X6196358Y-9644316D01*
X6169760Y-9673856D01*
X6166461Y-9679569D01*
X6166458Y-9679574D01*
X6077577Y-9833521D01*
X6074273Y-9839244D01*
X6072234Y-9845518D01*
X6072230Y-9845528D01*
X6017297Y-10014594D01*
X6017295Y-10014601D01*
X6015258Y-10020872D01*
X6014568Y-10027433D01*
X6014568Y-10027435D01*
X6007015Y-10099299D01*
X5995296Y-10210800D01*
X5995986Y-10217365D01*
X6002416Y-10278548D01*
X6015258Y-10400728D01*
X6017295Y-10407000D01*
X6017297Y-10407005D01*
X6072230Y-10576071D01*
X6072233Y-10576078D01*
X6074273Y-10582356D01*
X6102053Y-10630472D01*
X6156261Y-10724364D01*
X6169760Y-10747744D01*
X6297547Y-10889666D01*
X6302889Y-10893547D01*
X6302891Y-10893549D01*
X6329052Y-10912556D01*
X6452048Y-11001918D01*
X6626512Y-11079594D01*
X6813313Y-11119300D01*
X6997684Y-11119300D01*
X7004287Y-11119300D01*
X7191088Y-11079594D01*
X7365552Y-11001918D01*
X7520053Y-10889666D01*
X7576351Y-10827140D01*
X7625789Y-10793459D01*
X7685197Y-10786376D01*
X7741174Y-10807493D01*
X7778826Y-10849511D01*
X7778996Y-10849398D01*
X7779791Y-10850588D01*
X7781101Y-10852050D01*
X7782433Y-10854543D01*
X7782438Y-10854550D01*
X7785353Y-10860004D01*
X7789278Y-10864787D01*
X7789279Y-10864788D01*
X7885436Y-10981956D01*
X7911380Y-11013568D01*
X8064944Y-11139595D01*
X8072441Y-11143602D01*
X8163694Y-11192378D01*
X8211731Y-11237665D01*
X8230274Y-11301026D01*
X8214232Y-11365066D01*
X8168011Y-11412205D01*
X8104298Y-11429500D01*
X3531819Y-11429500D01*
X3468819Y-11412619D01*
X3422700Y-11366500D01*
X3405819Y-11303500D01*
X3422700Y-11240500D01*
X3426891Y-11233241D01*
X3450727Y-11191956D01*
X3509742Y-11010328D01*
X3529704Y-10820400D01*
X3509742Y-10630472D01*
X3465080Y-10493018D01*
X3452769Y-10455128D01*
X3452768Y-10455126D01*
X3450727Y-10448844D01*
X3355240Y-10283456D01*
X3227453Y-10141534D01*
X3222111Y-10137653D01*
X3222108Y-10137650D01*
X3088078Y-10040272D01*
X3072952Y-10029282D01*
X2898488Y-9951606D01*
X2892035Y-9950234D01*
X2892031Y-9950233D01*
X2718143Y-9913272D01*
X2718140Y-9913271D01*
X2711687Y-9911900D01*
X2520713Y-9911900D01*
X2514260Y-9913271D01*
X2514256Y-9913272D01*
X2340368Y-9950233D01*
X2340361Y-9950235D01*
X2333912Y-9951606D01*
X2327882Y-9954290D01*
X2327881Y-9954291D01*
X2165478Y-10026597D01*
X2165475Y-10026598D01*
X2159448Y-10029282D01*
X2154107Y-10033162D01*
X2154106Y-10033163D01*
X2010291Y-10137650D01*
X2010283Y-10137656D01*
X2004947Y-10141534D01*
X2000530Y-10146439D01*
X2000525Y-10146444D01*
X1935921Y-10218195D01*
X1877160Y-10283456D01*
X1873861Y-10289169D01*
X1873858Y-10289174D01*
X1812423Y-10395583D01*
X1781673Y-10448844D01*
X1779634Y-10455118D01*
X1779630Y-10455128D01*
X1724697Y-10624194D01*
X1724695Y-10624201D01*
X1722658Y-10630472D01*
X1721968Y-10637033D01*
X1721968Y-10637035D01*
X1712790Y-10724364D01*
X1702696Y-10820400D01*
X1703386Y-10826965D01*
X1706022Y-10852050D01*
X1722658Y-11010328D01*
X1724695Y-11016600D01*
X1724697Y-11016605D01*
X1779630Y-11185671D01*
X1779633Y-11185678D01*
X1781673Y-11191956D01*
X1784977Y-11197678D01*
X1809700Y-11240500D01*
X1826581Y-11303500D01*
X1809700Y-11366500D01*
X1763581Y-11412619D01*
X1700581Y-11429500D01*
X-3053702Y-11429500D01*
X-3109726Y-11416360D01*
X-3154065Y-11379680D01*
X-3177470Y-11327110D01*
X-3175061Y-11269616D01*
X-3147338Y-11219190D01*
X-3024579Y-11082852D01*
X-3024578Y-11082850D01*
X-3020160Y-11077944D01*
X-2924673Y-10912556D01*
X-2922633Y-10906278D01*
X-2922630Y-10906271D01*
X-2867697Y-10737205D01*
X-2867695Y-10737200D01*
X-2865658Y-10730928D01*
X-2861383Y-10690259D01*
X-2846386Y-10547565D01*
X-2845696Y-10541000D01*
X-2851430Y-10486442D01*
X-2864968Y-10357635D01*
X-2864968Y-10357633D01*
X-2865658Y-10351072D01*
X-2867695Y-10344801D01*
X-2867697Y-10344794D01*
X-2922630Y-10175728D01*
X-2922634Y-10175718D01*
X-2924673Y-10169444D01*
X-2960792Y-10106884D01*
X-3016858Y-10009774D01*
X-3016861Y-10009769D01*
X-3020160Y-10004056D01*
X-3048455Y-9972631D01*
X-3143525Y-9867044D01*
X-3143530Y-9867039D01*
X-3147947Y-9862134D01*
X-3153283Y-9858256D01*
X-3153291Y-9858250D01*
X-3297106Y-9753763D01*
X-3297107Y-9753762D01*
X-3302448Y-9749882D01*
X-3308475Y-9747198D01*
X-3308478Y-9747197D01*
X-3470881Y-9674891D01*
X-3470882Y-9674890D01*
X-3476912Y-9672206D01*
X-3483361Y-9670835D01*
X-3483368Y-9670833D01*
X-3657256Y-9633872D01*
X-3657260Y-9633871D01*
X-3663713Y-9632500D01*
X-3854687Y-9632500D01*
X-3861140Y-9633871D01*
X-3861143Y-9633872D01*
X-4035031Y-9670833D01*
X-4035035Y-9670834D01*
X-4041488Y-9672206D01*
X-4215952Y-9749882D01*
X-4264582Y-9785214D01*
X-4365108Y-9858250D01*
X-4365111Y-9858253D01*
X-4370453Y-9862134D01*
X-4498240Y-10004056D01*
X-4593727Y-10169444D01*
X-4595768Y-10175726D01*
X-4595769Y-10175728D01*
X-4609298Y-10217365D01*
X-4652742Y-10351072D01*
X-4672704Y-10541000D01*
X-4652742Y-10730928D01*
X-4593727Y-10912556D01*
X-4498240Y-11077944D01*
X-4440100Y-11142515D01*
X-4371062Y-11219190D01*
X-4343339Y-11269616D01*
X-4340930Y-11327110D01*
X-4364335Y-11379680D01*
X-4408674Y-11416360D01*
X-4464698Y-11429500D01*
X-8107350Y-11429500D01*
X-8171063Y-11412205D01*
X-8217284Y-11365066D01*
X-8233326Y-11301026D01*
X-8214783Y-11237665D01*
X-8166746Y-11192378D01*
X-8075493Y-11143602D01*
X-8067996Y-11139595D01*
X-7914432Y-11013568D01*
X-7888488Y-10981956D01*
X-7792331Y-10864788D01*
X-7792330Y-10864787D01*
X-7788405Y-10860004D01*
X-7784153Y-10852050D01*
X-7773559Y-10832229D01*
X-7733634Y-10787668D01*
X-7677656Y-10766547D01*
X-7618246Y-10773629D01*
X-7568805Y-10807311D01*
X-7494653Y-10889666D01*
X-7340152Y-11001918D01*
X-7165688Y-11079594D01*
X-6978887Y-11119300D01*
X-6794516Y-11119300D01*
X-6787913Y-11119300D01*
X-6601112Y-11079594D01*
X-6426648Y-11001918D01*
X-6303652Y-10912556D01*
X-6277491Y-10893549D01*
X-6277489Y-10893547D01*
X-6272147Y-10889666D01*
X-6144360Y-10747744D01*
X-6130861Y-10724364D01*
X-6076653Y-10630472D01*
X-6048873Y-10582356D01*
X-6046833Y-10576078D01*
X-6046830Y-10576071D01*
X-5991897Y-10407005D01*
X-5991895Y-10407000D01*
X-5989858Y-10400728D01*
X-5977016Y-10278548D01*
X-5970586Y-10217365D01*
X-5969896Y-10210800D01*
X-5981615Y-10099299D01*
X-5989168Y-10027435D01*
X-5989168Y-10027433D01*
X-5989858Y-10020872D01*
X-5991895Y-10014601D01*
X-5991897Y-10014594D01*
X-6046830Y-9845528D01*
X-6046834Y-9845518D01*
X-6048873Y-9839244D01*
X-6052177Y-9833521D01*
X-6141058Y-9679574D01*
X-6141061Y-9679569D01*
X-6144360Y-9673856D01*
X-6170958Y-9644316D01*
X-6267725Y-9536844D01*
X-6267730Y-9536839D01*
X-6272147Y-9531934D01*
X-6277483Y-9528056D01*
X-6277491Y-9528050D01*
X-6421306Y-9423563D01*
X-6421307Y-9423562D01*
X-6426648Y-9419682D01*
X-6432675Y-9416998D01*
X-6432678Y-9416997D01*
X-6595081Y-9344691D01*
X-6595082Y-9344690D01*
X-6601112Y-9342006D01*
X-6607561Y-9340635D01*
X-6607568Y-9340633D01*
X-6781456Y-9303672D01*
X-6781460Y-9303671D01*
X-6787913Y-9302300D01*
X-6978887Y-9302300D01*
X-6985340Y-9303671D01*
X-6985343Y-9303672D01*
X-7159231Y-9340633D01*
X-7159235Y-9340634D01*
X-7165688Y-9342006D01*
X-7340152Y-9419682D01*
X-7397736Y-9461519D01*
X-7422439Y-9479467D01*
X-7486614Y-9503143D01*
X-7553703Y-9489798D01*
X-7603933Y-9443366D01*
X-7622500Y-9377531D01*
X-7622500Y-8764200D01*
X-1719632Y-8764200D01*
X-1699670Y-8954128D01*
X-1640655Y-9135756D01*
X-1545168Y-9301144D01*
X-1417381Y-9443066D01*
X-1262880Y-9555318D01*
X-1088416Y-9632994D01*
X-901615Y-9672700D01*
X-717244Y-9672700D01*
X-710641Y-9672700D01*
X-523840Y-9632994D01*
X-349376Y-9555318D01*
X-194875Y-9443066D01*
X-67088Y-9301144D01*
X-60318Y-9289419D01*
X-22954Y-9224701D01*
X28399Y-9135756D01*
X39216Y-9102465D01*
X3464561Y-9102465D01*
X3484523Y-9292393D01*
X3486560Y-9298665D01*
X3486562Y-9298670D01*
X3541495Y-9467736D01*
X3541498Y-9467743D01*
X3543538Y-9474021D01*
X3579809Y-9536844D01*
X3633770Y-9630308D01*
X3639025Y-9639409D01*
X3766812Y-9781331D01*
X3772154Y-9785212D01*
X3772156Y-9785214D01*
X3777784Y-9789303D01*
X3921313Y-9893583D01*
X4095777Y-9971259D01*
X4282578Y-10010965D01*
X4466949Y-10010965D01*
X4473552Y-10010965D01*
X4660353Y-9971259D01*
X4834817Y-9893583D01*
X4989318Y-9781331D01*
X5117105Y-9639409D01*
X5212592Y-9474021D01*
X5271607Y-9292393D01*
X5291569Y-9102465D01*
X5271607Y-8912537D01*
X5217604Y-8746335D01*
X5214634Y-8737193D01*
X5214633Y-8737191D01*
X5212592Y-8730909D01*
X5117105Y-8565521D01*
X4989318Y-8423599D01*
X4983976Y-8419718D01*
X4983973Y-8419715D01*
X4843470Y-8317634D01*
X4834817Y-8311347D01*
X4660353Y-8233671D01*
X4653900Y-8232299D01*
X4653896Y-8232298D01*
X4480008Y-8195337D01*
X4480005Y-8195336D01*
X4473552Y-8193965D01*
X4282578Y-8193965D01*
X4276125Y-8195336D01*
X4276121Y-8195337D01*
X4102233Y-8232298D01*
X4102226Y-8232300D01*
X4095777Y-8233671D01*
X4089747Y-8236355D01*
X4089746Y-8236356D01*
X3927343Y-8308662D01*
X3927340Y-8308663D01*
X3921313Y-8311347D01*
X3915972Y-8315227D01*
X3915971Y-8315228D01*
X3772156Y-8419715D01*
X3772148Y-8419721D01*
X3766812Y-8423599D01*
X3762395Y-8428504D01*
X3762390Y-8428509D01*
X3696465Y-8501727D01*
X3639025Y-8565521D01*
X3635726Y-8571234D01*
X3635723Y-8571239D01*
X3593069Y-8645119D01*
X3543538Y-8730909D01*
X3541499Y-8737183D01*
X3541495Y-8737193D01*
X3486562Y-8906259D01*
X3486560Y-8906266D01*
X3484523Y-8912537D01*
X3483833Y-8919098D01*
X3483833Y-8919100D01*
X3479492Y-8960405D01*
X3464561Y-9102465D01*
X39216Y-9102465D01*
X87414Y-8954128D01*
X107376Y-8764200D01*
X87414Y-8574272D01*
X37195Y-8419715D01*
X30441Y-8398928D01*
X30440Y-8398926D01*
X28399Y-8392644D01*
X-27701Y-8295475D01*
X-43891Y-8245650D01*
X-38414Y-8193543D01*
X-12220Y-8148173D01*
X114041Y-8007946D01*
X121387Y-7995221D01*
X171350Y-7946968D01*
X239295Y-7932524D01*
X304569Y-7956281D01*
X318161Y-7966156D01*
X411145Y-8033713D01*
X585609Y-8111389D01*
X772410Y-8151095D01*
X956781Y-8151095D01*
X963384Y-8151095D01*
X1150185Y-8111389D01*
X1156220Y-8108701D01*
X1156223Y-8108701D01*
X1306804Y-8041658D01*
X1311802Y-8039432D01*
X1363050Y-8028539D01*
X1414299Y-8039432D01*
X1456686Y-8070229D01*
X1468263Y-8083087D01*
X1468270Y-8083093D01*
X1472688Y-8088000D01*
X1627189Y-8200252D01*
X1801653Y-8277928D01*
X1988454Y-8317634D01*
X2172825Y-8317634D01*
X2179428Y-8317634D01*
X2366229Y-8277928D01*
X2540693Y-8200252D01*
X2695194Y-8088000D01*
X2822981Y-7946078D01*
X2918468Y-7780690D01*
X2977483Y-7599062D01*
X2997445Y-7409134D01*
X2977483Y-7219206D01*
X2918468Y-7037578D01*
X2822981Y-6872190D01*
X2695194Y-6730268D01*
X2689852Y-6726387D01*
X2689849Y-6726384D01*
X2600637Y-6661568D01*
X2540693Y-6618016D01*
X2366229Y-6540340D01*
X2359776Y-6538968D01*
X2359772Y-6538967D01*
X2185884Y-6502006D01*
X2185881Y-6502005D01*
X2179428Y-6500634D01*
X1988454Y-6500634D01*
X1982001Y-6502005D01*
X1981997Y-6502006D01*
X1808109Y-6538967D01*
X1808102Y-6538969D01*
X1801653Y-6540340D01*
X1795623Y-6543024D01*
X1795622Y-6543025D01*
X1640036Y-6612296D01*
X1588787Y-6623189D01*
X1537538Y-6612295D01*
X1495150Y-6581499D01*
X1483569Y-6568637D01*
X1479150Y-6563729D01*
X1324649Y-6451477D01*
X1150185Y-6373801D01*
X1143732Y-6372429D01*
X1143728Y-6372428D01*
X969840Y-6335467D01*
X969837Y-6335466D01*
X963384Y-6334095D01*
X772410Y-6334095D01*
X765957Y-6335466D01*
X765953Y-6335467D01*
X592065Y-6372428D01*
X592058Y-6372430D01*
X585609Y-6373801D01*
X579579Y-6376485D01*
X579578Y-6376486D01*
X417175Y-6448792D01*
X417172Y-6448793D01*
X411145Y-6451477D01*
X405804Y-6455357D01*
X405803Y-6455358D01*
X261988Y-6559845D01*
X261980Y-6559851D01*
X256644Y-6563729D01*
X252227Y-6568634D01*
X252222Y-6568639D01*
X152058Y-6679884D01*
X128857Y-6705651D01*
X125557Y-6711365D01*
X125553Y-6711372D01*
X121504Y-6718385D01*
X71537Y-6766633D01*
X3596Y-6781072D01*
X-61673Y-6757315D01*
X-162905Y-6683764D01*
X-162913Y-6683759D01*
X-168247Y-6679884D01*
X-174274Y-6677200D01*
X-174277Y-6677199D01*
X-336680Y-6604893D01*
X-336681Y-6604892D01*
X-342711Y-6602208D01*
X-349160Y-6600837D01*
X-349167Y-6600835D01*
X-523055Y-6563874D01*
X-523059Y-6563873D01*
X-529512Y-6562502D01*
X-720486Y-6562502D01*
X-726939Y-6563873D01*
X-726942Y-6563874D01*
X-900830Y-6600835D01*
X-900834Y-6600836D01*
X-907287Y-6602208D01*
X-1081751Y-6679884D01*
X-1149862Y-6729370D01*
X-1230907Y-6788252D01*
X-1230910Y-6788255D01*
X-1236252Y-6792136D01*
X-1364039Y-6934058D01*
X-1459526Y-7099446D01*
X-1518541Y-7281074D01*
X-1538503Y-7471002D01*
X-1518541Y-7660930D01*
X-1459526Y-7842558D01*
X-1403424Y-7939728D01*
X-1387236Y-7989551D01*
X-1392713Y-8041658D01*
X-1418910Y-8087032D01*
X-1420648Y-8088962D01*
X-1545168Y-8227256D01*
X-1640655Y-8392644D01*
X-1642696Y-8398926D01*
X-1642697Y-8398928D01*
X-1649451Y-8419715D01*
X-1699670Y-8574272D01*
X-1719632Y-8764200D01*
X-7622500Y-8764200D01*
X-7622500Y-8481731D01*
X-7622500Y-8478362D01*
X-7622860Y-8475011D01*
X-7628168Y-8425632D01*
X-7628169Y-8425625D01*
X-7629011Y-8417799D01*
X-7631761Y-8410423D01*
X-7631763Y-8410419D01*
X-7676962Y-8289236D01*
X-7676965Y-8289230D01*
X-7680111Y-8280796D01*
X-7685506Y-8273588D01*
X-7685510Y-8273582D01*
X-7762340Y-8170950D01*
X-7762343Y-8170946D01*
X-7767739Y-8163739D01*
X-7774946Y-8158343D01*
X-7774950Y-8158340D01*
X-7877582Y-8081510D01*
X-7877588Y-8081506D01*
X-7884796Y-8076111D01*
X-7893230Y-8072965D01*
X-7893236Y-8072962D01*
X-8014419Y-8027763D01*
X-8014423Y-8027761D01*
X-8021799Y-8025011D01*
X-8029625Y-8024169D01*
X-8029632Y-8024168D01*
X-8079011Y-8018860D01*
X-8079015Y-8018859D01*
X-8082362Y-8018500D01*
X-9179638Y-8018500D01*
X-9182985Y-8018859D01*
X-9182988Y-8018860D01*
X-9232367Y-8024168D01*
X-9232373Y-8024169D01*
X-9240201Y-8025011D01*
X-9247578Y-8027762D01*
X-9247580Y-8027763D01*
X-9368763Y-8072962D01*
X-9368766Y-8072964D01*
X-9377204Y-8076111D01*
X-9384416Y-8081510D01*
X-9392325Y-8085829D01*
X-9393298Y-8084046D01*
X-9441173Y-8103378D01*
X-9505094Y-8094771D01*
X-9507742Y-8093673D01*
X-9513196Y-8090759D01*
X-9519110Y-8088964D01*
X-9519115Y-8088963D01*
X-9697376Y-8034888D01*
X-9697382Y-8034886D01*
X-9703299Y-8033092D01*
X-9709450Y-8032486D01*
X-9709461Y-8032484D01*
X-9894837Y-8014227D01*
X-9901000Y-8013620D01*
X-9907163Y-8014227D01*
X-10092538Y-8032484D01*
X-10092547Y-8032485D01*
X-10098701Y-8033092D01*
X-10104619Y-8034887D01*
X-10104623Y-8034888D01*
X-10240516Y-8076111D01*
X-10288804Y-8090759D01*
X-10294265Y-8093678D01*
X-10458548Y-8181488D01*
X-10458553Y-8181491D01*
X-10464004Y-8184405D01*
X-10467046Y-8186901D01*
X-10511421Y-8205280D01*
X-10560579Y-8205280D01*
X-10604953Y-8186901D01*
X-10607996Y-8184405D01*
X-10613441Y-8181494D01*
X-10613451Y-8181488D01*
X-10777734Y-8093678D01*
X-10777738Y-8093676D01*
X-10783196Y-8090759D01*
X-10789116Y-8088963D01*
X-10789119Y-8088962D01*
X-10967376Y-8034888D01*
X-10967382Y-8034886D01*
X-10973299Y-8033092D01*
X-10979450Y-8032486D01*
X-10979461Y-8032484D01*
X-11164837Y-8014227D01*
X-11171000Y-8013620D01*
X-11177163Y-8014227D01*
X-11362538Y-8032484D01*
X-11362547Y-8032485D01*
X-11368701Y-8033092D01*
X-11374619Y-8034887D01*
X-11374623Y-8034888D01*
X-11510516Y-8076111D01*
X-11558804Y-8090759D01*
X-11564265Y-8093678D01*
X-11708831Y-8170950D01*
X-11734004Y-8184405D01*
X-11738787Y-8188330D01*
X-11738788Y-8188331D01*
X-11847256Y-8277349D01*
X-11887568Y-8310432D01*
X-12013595Y-8463996D01*
X-12107241Y-8639196D01*
X-12109036Y-8645114D01*
X-12114165Y-8662022D01*
X-12146032Y-8714929D01*
X-12199214Y-8746335D01*
X-12260932Y-8748695D01*
X-12266255Y-8747563D01*
X-12266265Y-8747561D01*
X-12272715Y-8746191D01*
X-12463689Y-8746191D01*
X-12470142Y-8747562D01*
X-12470145Y-8747563D01*
X-12644033Y-8784524D01*
X-12644037Y-8784525D01*
X-12650490Y-8785897D01*
X-12824954Y-8863573D01*
X-12883706Y-8906259D01*
X-12974110Y-8971941D01*
X-12974113Y-8971944D01*
X-12979455Y-8975825D01*
X-13107242Y-9117747D01*
X-13202729Y-9283135D01*
X-13261744Y-9464763D01*
X-13262655Y-9473431D01*
X-13263161Y-9474751D01*
X-13263808Y-9477791D01*
X-13264289Y-9477688D01*
X-13286028Y-9534321D01*
X-13336715Y-9575367D01*
X-13401135Y-9585571D01*
X-13462025Y-9562198D01*
X-13525815Y-9515852D01*
X-13525818Y-9515850D01*
X-13531156Y-9511972D01*
X-13537183Y-9509288D01*
X-13537186Y-9509287D01*
X-13699589Y-9436981D01*
X-13699590Y-9436980D01*
X-13705620Y-9434296D01*
X-13712069Y-9432925D01*
X-13712076Y-9432923D01*
X-13885964Y-9395962D01*
X-13885968Y-9395961D01*
X-13892421Y-9394590D01*
X-14083395Y-9394590D01*
X-14089848Y-9395961D01*
X-14089851Y-9395962D01*
X-14263739Y-9432923D01*
X-14263743Y-9432924D01*
X-14270196Y-9434296D01*
X-14444660Y-9511972D01*
X-14478893Y-9536844D01*
X-14593816Y-9620340D01*
X-14593819Y-9620343D01*
X-14599161Y-9624224D01*
X-14726948Y-9766146D01*
X-14822435Y-9931534D01*
X-14881450Y-10113162D01*
X-14901412Y-10303090D01*
X-14881450Y-10493018D01*
X-14822435Y-10674646D01*
X-14726948Y-10840034D01*
X-14599161Y-10981956D01*
X-14444660Y-11094208D01*
X-14270196Y-11171884D01*
X-14230823Y-11180253D01*
X-14176029Y-11206978D01*
X-14140195Y-11256300D01*
X-14131710Y-11316671D01*
X-14152561Y-11373958D01*
X-14197867Y-11414751D01*
X-14257020Y-11429500D01*
X-19568132Y-11429500D01*
X-19631126Y-11412623D01*
X-19677244Y-11366513D01*
X-19694132Y-11303522D01*
X-19677266Y-11240526D01*
X-17100007Y-6774160D01*
X-17056164Y-6729370D01*
X-16996167Y-6711245D01*
X-16934859Y-6724269D01*
X-16887411Y-6765220D01*
X-16865563Y-6823963D01*
X-16858042Y-6895528D01*
X-16799027Y-7077156D01*
X-16703540Y-7242544D01*
X-16575753Y-7384466D01*
X-16421252Y-7496718D01*
X-16246788Y-7574394D01*
X-16059987Y-7614100D01*
X-15875616Y-7614100D01*
X-15869013Y-7614100D01*
X-15682212Y-7574394D01*
X-15507748Y-7496718D01*
X-15381058Y-7404672D01*
X-15358591Y-7388349D01*
X-15358589Y-7388347D01*
X-15353247Y-7384466D01*
X-15225460Y-7242544D01*
X-15129973Y-7077156D01*
X-15127933Y-7070878D01*
X-15127930Y-7070871D01*
X-15072997Y-6901805D01*
X-15072995Y-6901800D01*
X-15070958Y-6895528D01*
X-15064581Y-6834854D01*
X-15062665Y-6816629D01*
X-15043027Y-6761175D01*
X-15000355Y-6720681D01*
X-14943949Y-6703973D01*
X-14886108Y-6714692D01*
X-14739589Y-6779927D01*
X-14552788Y-6819633D01*
X-14368417Y-6819633D01*
X-14361814Y-6819633D01*
X-14175013Y-6779927D01*
X-14000549Y-6702251D01*
X-13968730Y-6679133D01*
X-7211637Y-6679133D01*
X-7191675Y-6869061D01*
X-7132660Y-7050689D01*
X-7037173Y-7216077D01*
X-6909386Y-7357999D01*
X-6754885Y-7470251D01*
X-6580421Y-7547927D01*
X-6393620Y-7587633D01*
X-6209249Y-7587633D01*
X-6202646Y-7587633D01*
X-6015845Y-7547927D01*
X-5841381Y-7470251D01*
X-5728653Y-7388349D01*
X-5692224Y-7361882D01*
X-5692222Y-7361880D01*
X-5686880Y-7357999D01*
X-5559093Y-7216077D01*
X-5554129Y-7207480D01*
X-5499688Y-7113185D01*
X-5463606Y-7050689D01*
X-5461566Y-7044411D01*
X-5461563Y-7044404D01*
X-5406630Y-6875338D01*
X-5406628Y-6875333D01*
X-5404591Y-6869061D01*
X-5400479Y-6829943D01*
X-5385319Y-6685698D01*
X-5384629Y-6679133D01*
X-5388111Y-6646003D01*
X-5403901Y-6495768D01*
X-5403901Y-6495766D01*
X-5404591Y-6489205D01*
X-5406628Y-6482934D01*
X-5406630Y-6482927D01*
X-5461563Y-6313861D01*
X-5461567Y-6313851D01*
X-5463606Y-6307577D01*
X-5468151Y-6299705D01*
X-5555791Y-6147907D01*
X-5555794Y-6147902D01*
X-5559093Y-6142189D01*
X-5583139Y-6115482D01*
X-5613588Y-6053053D01*
X-5606327Y-5983974D01*
X-5563563Y-5929238D01*
X-5439291Y-5838949D01*
X-5439289Y-5838947D01*
X-5433947Y-5835066D01*
X-5306160Y-5693144D01*
X-5249905Y-5595707D01*
X-4899899Y-5595707D01*
X-4879937Y-5785635D01*
X-4820922Y-5967263D01*
X-4725435Y-6132651D01*
X-4597648Y-6274573D01*
X-4443147Y-6386825D01*
X-4268683Y-6464501D01*
X-4123156Y-6495433D01*
X-4070059Y-6520760D01*
X-4034247Y-6567433D01*
X-4033121Y-6569960D01*
X-4031081Y-6576241D01*
X-3935594Y-6741629D01*
X-3807807Y-6883551D01*
X-3653306Y-6995803D01*
X-3478842Y-7073479D01*
X-3292041Y-7113185D01*
X-3107670Y-7113185D01*
X-3101067Y-7113185D01*
X-2914266Y-7073479D01*
X-2739802Y-6995803D01*
X-2601786Y-6895528D01*
X-2590645Y-6887434D01*
X-2590643Y-6887432D01*
X-2585301Y-6883551D01*
X-2575071Y-6872190D01*
X-2531650Y-6823965D01*
X-2457514Y-6741629D01*
X-2453789Y-6735178D01*
X-2395372Y-6633996D01*
X-2362027Y-6576241D01*
X-2359987Y-6569963D01*
X-2359984Y-6569956D01*
X-2303012Y-6394613D01*
X-2300940Y-6395286D01*
X-2280883Y-6353234D01*
X-2234210Y-6317421D01*
X-2199245Y-6301854D01*
X-2077184Y-6247509D01*
X-1963377Y-6164823D01*
X-1928027Y-6139140D01*
X-1928025Y-6139138D01*
X-1922683Y-6135257D01*
X-1916241Y-6128103D01*
X-1885707Y-6094191D01*
X-1794896Y-5993335D01*
X-1699409Y-5827947D01*
X-1697369Y-5821669D01*
X-1697366Y-5821662D01*
X-1642433Y-5652596D01*
X-1642431Y-5652591D01*
X-1640394Y-5646319D01*
X-1639657Y-5639312D01*
X-1621122Y-5462956D01*
X-1620432Y-5456391D01*
X-1621122Y-5449826D01*
X-1639704Y-5273026D01*
X-1639704Y-5273024D01*
X-1640394Y-5266463D01*
X-1642431Y-5260192D01*
X-1642433Y-5260185D01*
X-1674003Y-5163024D01*
X-1677416Y-5097890D01*
X-1647805Y-5039777D01*
X-1593105Y-5004254D01*
X-1527972Y-5000842D01*
X-1503247Y-5006097D01*
X-1474492Y-5012210D01*
X-1474488Y-5012210D01*
X-1468031Y-5013583D01*
X-1283660Y-5013583D01*
X-1277057Y-5013583D01*
X-1090256Y-4973877D01*
X-915792Y-4896201D01*
X-783431Y-4800035D01*
X-766635Y-4787832D01*
X-766633Y-4787830D01*
X-761291Y-4783949D01*
X-757039Y-4779226D01*
X-701597Y-4750240D01*
X-638940Y-4751551D01*
X-584664Y-4782886D01*
X-552199Y-4836492D01*
X-549575Y-4899108D01*
X-549605Y-4899250D01*
X-551645Y-4905528D01*
X-571607Y-5095456D01*
X-551645Y-5285384D01*
X-492630Y-5467012D01*
X-397143Y-5632400D01*
X-269356Y-5774322D01*
X-114855Y-5886574D01*
X59609Y-5964250D01*
X246410Y-6003956D01*
X430781Y-6003956D01*
X437384Y-6003956D01*
X624185Y-5964250D01*
X798649Y-5886574D01*
X953150Y-5774322D01*
X1049062Y-5667800D01*
X1091444Y-5637009D01*
X1142693Y-5626115D01*
X1193941Y-5637007D01*
X1344627Y-5704097D01*
X1531428Y-5743803D01*
X1715799Y-5743803D01*
X1722402Y-5743803D01*
X1909203Y-5704097D01*
X2083667Y-5626421D01*
X2238168Y-5514169D01*
X2365955Y-5372247D01*
X2404619Y-5305280D01*
X2426775Y-5266904D01*
X2438429Y-5246716D01*
X2473487Y-5207781D01*
X2521351Y-5186470D01*
X2573745Y-5186470D01*
X2631390Y-5198723D01*
X2815761Y-5198723D01*
X2822364Y-5198723D01*
X2896831Y-5182894D01*
X2935548Y-5174665D01*
X2998163Y-5177288D01*
X3051769Y-5209753D01*
X3083104Y-5264026D01*
X3084417Y-5326682D01*
X3055383Y-5382221D01*
X3028262Y-5412342D01*
X2970378Y-5476629D01*
X2967079Y-5482342D01*
X2967076Y-5482347D01*
X2884853Y-5624762D01*
X2874891Y-5642017D01*
X2872852Y-5648291D01*
X2872848Y-5648301D01*
X2817915Y-5817367D01*
X2817913Y-5817374D01*
X2815876Y-5823645D01*
X2815186Y-5830206D01*
X2815186Y-5830208D01*
X2797069Y-6002583D01*
X2795914Y-6013573D01*
X2796604Y-6020138D01*
X2808950Y-6137609D01*
X2815876Y-6203501D01*
X2817913Y-6209773D01*
X2817915Y-6209778D01*
X2872848Y-6378844D01*
X2872851Y-6378851D01*
X2874891Y-6385129D01*
X2907932Y-6442358D01*
X2963709Y-6538967D01*
X2970378Y-6550517D01*
X3098165Y-6692439D01*
X3103507Y-6696320D01*
X3103509Y-6696322D01*
X3119280Y-6707780D01*
X3252666Y-6804691D01*
X3427130Y-6882367D01*
X3613931Y-6922073D01*
X3798302Y-6922073D01*
X3804905Y-6922073D01*
X3991706Y-6882367D01*
X4150235Y-6811785D01*
X4210271Y-6801200D01*
X4268252Y-6820039D01*
X4310601Y-6863893D01*
X4388309Y-6998487D01*
X4404527Y-7026577D01*
X4532314Y-7168499D01*
X4686815Y-7280751D01*
X4861279Y-7358427D01*
X5048080Y-7398133D01*
X5232451Y-7398133D01*
X5239054Y-7398133D01*
X5425855Y-7358427D01*
X5600319Y-7280751D01*
X5754820Y-7168499D01*
X5882607Y-7026577D01*
X5978094Y-6861189D01*
X6037109Y-6679561D01*
X6057071Y-6489633D01*
X6037109Y-6299705D01*
X5988279Y-6149423D01*
X5980136Y-6124361D01*
X5980135Y-6124359D01*
X5978094Y-6118077D01*
X5882607Y-5952689D01*
X5754820Y-5810767D01*
X5749478Y-5806886D01*
X5749475Y-5806883D01*
X5662652Y-5743803D01*
X5600319Y-5698515D01*
X5425855Y-5620839D01*
X5419402Y-5619467D01*
X5419398Y-5619466D01*
X5245510Y-5582505D01*
X5245507Y-5582504D01*
X5239054Y-5581133D01*
X5048080Y-5581133D01*
X5041627Y-5582504D01*
X5041623Y-5582505D01*
X4867735Y-5619466D01*
X4867728Y-5619468D01*
X4861279Y-5620839D01*
X4855251Y-5623522D01*
X4855244Y-5623525D01*
X4702750Y-5691419D01*
X4642712Y-5702005D01*
X4584732Y-5683166D01*
X4542383Y-5639312D01*
X4448458Y-5476629D01*
X4320671Y-5334707D01*
X4315329Y-5330826D01*
X4315326Y-5330823D01*
X4289205Y-5311845D01*
X6109552Y-5311845D01*
X6110242Y-5318410D01*
X6125860Y-5467012D01*
X6129514Y-5501773D01*
X6131551Y-5508045D01*
X6131553Y-5508050D01*
X6186486Y-5677116D01*
X6186489Y-5677123D01*
X6188529Y-5683401D01*
X6259077Y-5805594D01*
X6277097Y-5836806D01*
X6284016Y-5848789D01*
X6356453Y-5929238D01*
X6395516Y-5972623D01*
X6411803Y-5990711D01*
X6417145Y-5994592D01*
X6417147Y-5994594D01*
X6433372Y-6006382D01*
X6566304Y-6102963D01*
X6740768Y-6180639D01*
X6927569Y-6220345D01*
X7111940Y-6220345D01*
X7118543Y-6220345D01*
X7305344Y-6180639D01*
X7479808Y-6102963D01*
X7634309Y-5990711D01*
X7762096Y-5848789D01*
X7857583Y-5683401D01*
X7916598Y-5501773D01*
X7936560Y-5311845D01*
X7916598Y-5121917D01*
X7868942Y-4975249D01*
X7866134Y-4966605D01*
X9189237Y-4966605D01*
X9189927Y-4973170D01*
X9206250Y-5128480D01*
X9209199Y-5156533D01*
X9211236Y-5162805D01*
X9211238Y-5162810D01*
X9266171Y-5331876D01*
X9266174Y-5331883D01*
X9268214Y-5338161D01*
X9363701Y-5503549D01*
X9491488Y-5645471D01*
X9496830Y-5649352D01*
X9496832Y-5649354D01*
X9522228Y-5667805D01*
X9645989Y-5757723D01*
X9820453Y-5835399D01*
X10007254Y-5875105D01*
X10191625Y-5875105D01*
X10198228Y-5875105D01*
X10385029Y-5835399D01*
X10559493Y-5757723D01*
X10713994Y-5645471D01*
X10841781Y-5503549D01*
X10937268Y-5338161D01*
X10996283Y-5156533D01*
X11016245Y-4966605D01*
X10996283Y-4776677D01*
X10954924Y-4649388D01*
X10939310Y-4601333D01*
X10939309Y-4601331D01*
X10937268Y-4595049D01*
X10841781Y-4429661D01*
X10713994Y-4287739D01*
X10708652Y-4283858D01*
X10708649Y-4283855D01*
X10630798Y-4227293D01*
X10559493Y-4175487D01*
X10385029Y-4097811D01*
X10378576Y-4096439D01*
X10378572Y-4096438D01*
X10204684Y-4059477D01*
X10204681Y-4059476D01*
X10198228Y-4058105D01*
X10007254Y-4058105D01*
X10000801Y-4059476D01*
X10000797Y-4059477D01*
X9826909Y-4096438D01*
X9826902Y-4096440D01*
X9820453Y-4097811D01*
X9814423Y-4100495D01*
X9814422Y-4100496D01*
X9652019Y-4172802D01*
X9652016Y-4172803D01*
X9645989Y-4175487D01*
X9640648Y-4179367D01*
X9640647Y-4179368D01*
X9496832Y-4283855D01*
X9496824Y-4283861D01*
X9491488Y-4287739D01*
X9487071Y-4292644D01*
X9487066Y-4292649D01*
X9368120Y-4424753D01*
X9363701Y-4429661D01*
X9360402Y-4435374D01*
X9360399Y-4435379D01*
X9282583Y-4570161D01*
X9268214Y-4595049D01*
X9266175Y-4601323D01*
X9266171Y-4601333D01*
X9211238Y-4770399D01*
X9211236Y-4770406D01*
X9209199Y-4776677D01*
X9208509Y-4783238D01*
X9208509Y-4783240D01*
X9205857Y-4808470D01*
X9189237Y-4966605D01*
X7866134Y-4966605D01*
X7859625Y-4946573D01*
X7859624Y-4946571D01*
X7857583Y-4940289D01*
X7762096Y-4774901D01*
X7634309Y-4632979D01*
X7628967Y-4629098D01*
X7628964Y-4629095D01*
X7505791Y-4539605D01*
X7479808Y-4520727D01*
X7305344Y-4443051D01*
X7298891Y-4441679D01*
X7298887Y-4441678D01*
X7124999Y-4404717D01*
X7124996Y-4404716D01*
X7118543Y-4403345D01*
X6927569Y-4403345D01*
X6921116Y-4404716D01*
X6921112Y-4404717D01*
X6747224Y-4441678D01*
X6747217Y-4441680D01*
X6740768Y-4443051D01*
X6734738Y-4445735D01*
X6734737Y-4445736D01*
X6572334Y-4518042D01*
X6572331Y-4518043D01*
X6566304Y-4520727D01*
X6560963Y-4524607D01*
X6560962Y-4524608D01*
X6417147Y-4629095D01*
X6417139Y-4629101D01*
X6411803Y-4632979D01*
X6407386Y-4637884D01*
X6407381Y-4637889D01*
X6324807Y-4729598D01*
X6284016Y-4774901D01*
X6280717Y-4780614D01*
X6280714Y-4780619D01*
X6199232Y-4921751D01*
X6188529Y-4940289D01*
X6186490Y-4946563D01*
X6186486Y-4946573D01*
X6131553Y-5115639D01*
X6131551Y-5115646D01*
X6129514Y-5121917D01*
X6128824Y-5128478D01*
X6128824Y-5128480D01*
X6122729Y-5186470D01*
X6109552Y-5311845D01*
X4289205Y-5311845D01*
X4235775Y-5273026D01*
X4166170Y-5222455D01*
X3991706Y-5144779D01*
X3985253Y-5143407D01*
X3985249Y-5143406D01*
X3811361Y-5106445D01*
X3811358Y-5106444D01*
X3804905Y-5105073D01*
X3613931Y-5105073D01*
X3607481Y-5106443D01*
X3607471Y-5106445D01*
X3500744Y-5129131D01*
X3438130Y-5126506D01*
X3384524Y-5094041D01*
X3353189Y-5039767D01*
X3351877Y-4977111D01*
X3380909Y-4921577D01*
X3465917Y-4827167D01*
X3561404Y-4661779D01*
X3620419Y-4480151D01*
X3640381Y-4290223D01*
X3620419Y-4100295D01*
X3580724Y-3978128D01*
X3563446Y-3924951D01*
X3563445Y-3924949D01*
X3561404Y-3918667D01*
X3465917Y-3753279D01*
X3338130Y-3611357D01*
X3332788Y-3607476D01*
X3332785Y-3607473D01*
X3238751Y-3539154D01*
X3183629Y-3499105D01*
X3009165Y-3421429D01*
X3002712Y-3420057D01*
X3002708Y-3420056D01*
X2828820Y-3383095D01*
X2828817Y-3383094D01*
X2822364Y-3381723D01*
X2631390Y-3381723D01*
X2624937Y-3383094D01*
X2624933Y-3383095D01*
X2451045Y-3420056D01*
X2451038Y-3420058D01*
X2444589Y-3421429D01*
X2438559Y-3424113D01*
X2438558Y-3424114D01*
X2276155Y-3496420D01*
X2276152Y-3496421D01*
X2270125Y-3499105D01*
X2264784Y-3502985D01*
X2264783Y-3502986D01*
X2120968Y-3607473D01*
X2120960Y-3607479D01*
X2115624Y-3611357D01*
X2111207Y-3616262D01*
X2111202Y-3616267D01*
X1992256Y-3748371D01*
X1987837Y-3753279D01*
X1984538Y-3758992D01*
X1984538Y-3758993D01*
X1915362Y-3878809D01*
X1880304Y-3917744D01*
X1832441Y-3939054D01*
X1780047Y-3939055D01*
X1728861Y-3928175D01*
X1728852Y-3928174D01*
X1722402Y-3926803D01*
X1531428Y-3926803D01*
X1524978Y-3928173D01*
X1524968Y-3928175D01*
X1357089Y-3963859D01*
X1296162Y-3961731D01*
X1243366Y-3931249D01*
X1211061Y-3879550D01*
X1160689Y-3724521D01*
X1065202Y-3559133D01*
X982609Y-3467404D01*
X953000Y-3409292D01*
X956414Y-3344160D01*
X964374Y-3319665D01*
X984336Y-3129737D01*
X964374Y-2939809D01*
X915821Y-2790378D01*
X907401Y-2764465D01*
X907400Y-2764463D01*
X905359Y-2758181D01*
X809872Y-2592793D01*
X682085Y-2450871D01*
X676743Y-2446990D01*
X676740Y-2446987D01*
X562640Y-2364089D01*
X527584Y-2338619D01*
X353120Y-2260943D01*
X346667Y-2259571D01*
X346663Y-2259570D01*
X172777Y-2222609D01*
X172770Y-2222608D01*
X166319Y-2221237D01*
X160654Y-2221237D01*
X115163Y-2207328D01*
X77796Y-2177068D01*
X54485Y-2135013D01*
X23602Y-2039965D01*
X23601Y-2039963D01*
X21560Y-2033681D01*
X-42866Y-1922092D01*
X-70625Y-1874011D01*
X-70628Y-1874006D01*
X-73927Y-1868293D01*
X-78346Y-1863385D01*
X-197292Y-1731281D01*
X-197297Y-1731276D01*
X-201714Y-1726371D01*
X-207050Y-1722493D01*
X-207058Y-1722487D01*
X-350873Y-1618000D01*
X-350874Y-1617999D01*
X-356215Y-1614119D01*
X-362242Y-1611435D01*
X-362245Y-1611434D01*
X-524648Y-1539128D01*
X-524649Y-1539127D01*
X-530679Y-1536443D01*
X-537128Y-1535072D01*
X-537135Y-1535070D01*
X-711023Y-1498109D01*
X-711027Y-1498108D01*
X-717480Y-1496737D01*
X-908454Y-1496737D01*
X-914907Y-1498108D01*
X-914910Y-1498109D01*
X-1088798Y-1535070D01*
X-1088802Y-1535071D01*
X-1095255Y-1536443D01*
X-1269719Y-1614119D01*
X-1341024Y-1665925D01*
X-1418875Y-1722487D01*
X-1418878Y-1722490D01*
X-1424220Y-1726371D01*
X-1552007Y-1868293D01*
X-1647494Y-2033681D01*
X-1649535Y-2039963D01*
X-1649536Y-2039965D01*
X-1688333Y-2159370D01*
X-1723855Y-2214070D01*
X-1781966Y-2243679D01*
X-1798081Y-2247105D01*
X-1804104Y-2249786D01*
X-1804108Y-2249788D01*
X-1918171Y-2300572D01*
X-1972545Y-2324781D01*
X-2043850Y-2376587D01*
X-2121701Y-2433149D01*
X-2121704Y-2433152D01*
X-2127046Y-2437033D01*
X-2254833Y-2578955D01*
X-2350320Y-2744343D01*
X-2352361Y-2750625D01*
X-2352362Y-2750627D01*
X-2356858Y-2764465D01*
X-2409335Y-2925971D01*
X-2429297Y-3115899D01*
X-2409334Y-3305827D01*
X-2409335Y-3305827D01*
X-2410192Y-3305917D01*
X-2413287Y-3365079D01*
X-2448808Y-3419785D01*
X-2506925Y-3449399D01*
X-2619042Y-3473231D01*
X-2619049Y-3473233D01*
X-2625507Y-3474606D01*
X-2799971Y-3552282D01*
X-2871276Y-3604088D01*
X-2949127Y-3660650D01*
X-2949130Y-3660653D01*
X-2954472Y-3664534D01*
X-3082259Y-3806456D01*
X-3177746Y-3971844D01*
X-3179787Y-3978126D01*
X-3179788Y-3978128D01*
X-3183562Y-3989743D01*
X-3236761Y-4153472D01*
X-3256723Y-4343400D01*
X-3236761Y-4533328D01*
X-3195024Y-4661779D01*
X-3177746Y-4714956D01*
X-3178891Y-4715328D01*
X-3170293Y-4752529D01*
X-3177809Y-4800035D01*
X-3202579Y-4841263D01*
X-3236047Y-4878433D01*
X-3286588Y-4912524D01*
X-3347218Y-4918897D01*
X-3403743Y-4896060D01*
X-3524302Y-4808469D01*
X-3524305Y-4808467D01*
X-3529643Y-4804589D01*
X-3535670Y-4801905D01*
X-3535673Y-4801904D01*
X-3698076Y-4729598D01*
X-3698077Y-4729597D01*
X-3704107Y-4726913D01*
X-3710556Y-4725542D01*
X-3710563Y-4725540D01*
X-3884451Y-4688579D01*
X-3884455Y-4688578D01*
X-3890908Y-4687207D01*
X-4081882Y-4687207D01*
X-4088335Y-4688578D01*
X-4088338Y-4688579D01*
X-4262226Y-4725540D01*
X-4262230Y-4725541D01*
X-4268683Y-4726913D01*
X-4443147Y-4804589D01*
X-4490947Y-4839318D01*
X-4592303Y-4912957D01*
X-4592306Y-4912960D01*
X-4597648Y-4916841D01*
X-4725435Y-5058763D01*
X-4820922Y-5224151D01*
X-4822963Y-5230433D01*
X-4822964Y-5230435D01*
X-4836803Y-5273026D01*
X-4879937Y-5405779D01*
X-4899899Y-5595707D01*
X-5249905Y-5595707D01*
X-5210673Y-5527756D01*
X-5208633Y-5521478D01*
X-5208630Y-5521471D01*
X-5153697Y-5352405D01*
X-5153695Y-5352400D01*
X-5151658Y-5346128D01*
X-5141172Y-5246364D01*
X-5132386Y-5162765D01*
X-5131696Y-5156200D01*
X-5137390Y-5102021D01*
X-5150968Y-4972835D01*
X-5150968Y-4972833D01*
X-5151658Y-4966272D01*
X-5153695Y-4960001D01*
X-5153697Y-4959994D01*
X-5208630Y-4790928D01*
X-5208634Y-4790918D01*
X-5210673Y-4784644D01*
X-5213971Y-4778930D01*
X-5213975Y-4778923D01*
X-5261759Y-4696159D01*
X-5278639Y-4633160D01*
X-5261759Y-4570161D01*
X-5241078Y-4534341D01*
X-5241076Y-4534337D01*
X-5237776Y-4528621D01*
X-5235736Y-4522343D01*
X-5235733Y-4522336D01*
X-5180800Y-4353270D01*
X-5180798Y-4353265D01*
X-5178761Y-4346993D01*
X-5176782Y-4328169D01*
X-5159489Y-4163630D01*
X-5158799Y-4157065D01*
X-5165171Y-4096438D01*
X-5178071Y-3973700D01*
X-5178071Y-3973698D01*
X-5178761Y-3967137D01*
X-5180798Y-3960866D01*
X-5180800Y-3960859D01*
X-5235733Y-3791793D01*
X-5235737Y-3791783D01*
X-5237776Y-3785509D01*
X-5241080Y-3779786D01*
X-5329961Y-3625839D01*
X-5329964Y-3625834D01*
X-5333263Y-3620121D01*
X-5337682Y-3615213D01*
X-5456628Y-3483109D01*
X-5456633Y-3483104D01*
X-5461050Y-3478199D01*
X-5466386Y-3474321D01*
X-5466394Y-3474315D01*
X-5610209Y-3369828D01*
X-5610210Y-3369827D01*
X-5615551Y-3365947D01*
X-5621578Y-3363263D01*
X-5621581Y-3363262D01*
X-5783984Y-3290956D01*
X-5783985Y-3290955D01*
X-5790015Y-3288271D01*
X-5796464Y-3286900D01*
X-5796471Y-3286898D01*
X-5970359Y-3249937D01*
X-5970363Y-3249936D01*
X-5976816Y-3248565D01*
X-6167790Y-3248565D01*
X-6174243Y-3249936D01*
X-6174246Y-3249937D01*
X-6348134Y-3286898D01*
X-6348138Y-3286899D01*
X-6354591Y-3288271D01*
X-6529055Y-3365947D01*
X-6552657Y-3383095D01*
X-6678211Y-3474315D01*
X-6678214Y-3474318D01*
X-6683556Y-3478199D01*
X-6811343Y-3620121D01*
X-6906830Y-3785509D01*
X-6908871Y-3791791D01*
X-6908872Y-3791793D01*
X-6937145Y-3878809D01*
X-6965845Y-3967137D01*
X-6985807Y-4157065D01*
X-6965845Y-4346993D01*
X-6906830Y-4528621D01*
X-6856428Y-4615918D01*
X-6855744Y-4617103D01*
X-6838863Y-4680104D01*
X-6855743Y-4743104D01*
X-6879727Y-4784644D01*
X-6938742Y-4966272D01*
X-6958704Y-5156200D01*
X-6938742Y-5346128D01*
X-6879727Y-5527756D01*
X-6784240Y-5693144D01*
X-6760194Y-5719849D01*
X-6729745Y-5782275D01*
X-6737004Y-5851357D01*
X-6779769Y-5906094D01*
X-6904041Y-5996383D01*
X-6904044Y-5996386D01*
X-6909386Y-6000267D01*
X-7037173Y-6142189D01*
X-7132660Y-6307577D01*
X-7134701Y-6313859D01*
X-7134702Y-6313861D01*
X-7145117Y-6345916D01*
X-7191675Y-6489205D01*
X-7211637Y-6679133D01*
X-13968730Y-6679133D01*
X-13876737Y-6612296D01*
X-13851392Y-6593882D01*
X-13851390Y-6593880D01*
X-13846048Y-6589999D01*
X-13838394Y-6581499D01*
X-13805349Y-6544798D01*
X-13718261Y-6448077D01*
X-13664419Y-6354821D01*
X-13647820Y-6326070D01*
X-13601701Y-6279951D01*
X-13538700Y-6263070D01*
X-13475700Y-6279950D01*
X-13430702Y-6305931D01*
X-13374997Y-6330573D01*
X-13230799Y-6354821D01*
X-13085611Y-6337461D01*
X-12951194Y-6279901D01*
X-12915216Y-6250195D01*
X-12844516Y-6191821D01*
X-12844514Y-6191819D01*
X-12838439Y-6186803D01*
X-12833792Y-6180439D01*
X-12833790Y-6180437D01*
X-12804510Y-6140337D01*
X-12802518Y-6137609D01*
X-12779136Y-6097111D01*
X-12255569Y-5190267D01*
X-12255566Y-5190262D01*
X-12253880Y-5187341D01*
X-12252517Y-5184259D01*
X-12252512Y-5184250D01*
X-12232425Y-5138842D01*
X-12232423Y-5138837D01*
X-12229238Y-5131636D01*
X-12222916Y-5094041D01*
X-12206484Y-4996325D01*
X-12206483Y-4996322D01*
X-12204990Y-4987438D01*
X-12206059Y-4978495D01*
X-12206059Y-4978486D01*
X-12206082Y-4978298D01*
X-12206049Y-4978049D01*
X-12205845Y-4969480D01*
X-12204917Y-4969502D01*
X-12197877Y-4916338D01*
X-12160906Y-4865945D01*
X-12120461Y-4832753D01*
X-9499610Y-4832753D01*
X-9479648Y-5022681D01*
X-9420633Y-5204309D01*
X-9325146Y-5369697D01*
X-9197359Y-5511619D01*
X-9042858Y-5623871D01*
X-8868394Y-5701547D01*
X-8681593Y-5741253D01*
X-8497222Y-5741253D01*
X-8490619Y-5741253D01*
X-8303818Y-5701547D01*
X-8129354Y-5623871D01*
X-8004939Y-5533478D01*
X-7980197Y-5515502D01*
X-7980195Y-5515500D01*
X-7974853Y-5511619D01*
X-7847066Y-5369697D01*
X-7751579Y-5204309D01*
X-7749539Y-5198031D01*
X-7749536Y-5198024D01*
X-7694603Y-5028958D01*
X-7694601Y-5028953D01*
X-7692564Y-5022681D01*
X-7690682Y-5004780D01*
X-7673292Y-4839318D01*
X-7672602Y-4832753D01*
X-7678496Y-4776677D01*
X-7691874Y-4649388D01*
X-7691874Y-4649386D01*
X-7692564Y-4642825D01*
X-7694601Y-4636554D01*
X-7694603Y-4636547D01*
X-7749536Y-4467481D01*
X-7749540Y-4467471D01*
X-7751579Y-4461197D01*
X-7760505Y-4445736D01*
X-7843764Y-4301527D01*
X-7843767Y-4301522D01*
X-7847066Y-4295809D01*
X-7851485Y-4290901D01*
X-7970431Y-4158797D01*
X-7970436Y-4158792D01*
X-7974853Y-4153887D01*
X-7980189Y-4150009D01*
X-7980197Y-4150003D01*
X-8124012Y-4045516D01*
X-8124013Y-4045515D01*
X-8129354Y-4041635D01*
X-8135381Y-4038951D01*
X-8135384Y-4038950D01*
X-8297787Y-3966644D01*
X-8297788Y-3966643D01*
X-8303818Y-3963959D01*
X-8310267Y-3962588D01*
X-8310274Y-3962586D01*
X-8484162Y-3925625D01*
X-8484166Y-3925624D01*
X-8490619Y-3924253D01*
X-8681593Y-3924253D01*
X-8688046Y-3925624D01*
X-8688049Y-3925625D01*
X-8861937Y-3962586D01*
X-8861941Y-3962587D01*
X-8868394Y-3963959D01*
X-9042858Y-4041635D01*
X-9067415Y-4059477D01*
X-9192014Y-4150003D01*
X-9192017Y-4150006D01*
X-9197359Y-4153887D01*
X-9325146Y-4295809D01*
X-9420633Y-4461197D01*
X-9422674Y-4467479D01*
X-9422675Y-4467481D01*
X-9440501Y-4522344D01*
X-9479648Y-4642825D01*
X-9499610Y-4832753D01*
X-12120461Y-4832753D01*
X-12054801Y-4778867D01*
X-12054797Y-4778863D01*
X-12050018Y-4774941D01*
X-12009475Y-4725540D01*
X-11927917Y-4626161D01*
X-11927916Y-4626160D01*
X-11923991Y-4621377D01*
X-11830345Y-4446177D01*
X-11812029Y-4385796D01*
X-11774474Y-4261996D01*
X-11774473Y-4261992D01*
X-11772678Y-4256074D01*
X-11772071Y-4249920D01*
X-11772070Y-4249911D01*
X-11753813Y-4064536D01*
X-11753206Y-4058373D01*
X-11754854Y-4041635D01*
X-11759790Y-3991511D01*
X-11754971Y-3942586D01*
X-11731796Y-3899229D01*
X-11693794Y-3868042D01*
X-11568582Y-3801115D01*
X-11415018Y-3675088D01*
X-11409999Y-3668973D01*
X-11292917Y-3526308D01*
X-11292916Y-3526307D01*
X-11288991Y-3521524D01*
X-11273332Y-3492229D01*
X-11198264Y-3351785D01*
X-11195345Y-3346324D01*
X-11190373Y-3329932D01*
X-11139474Y-3162143D01*
X-11139473Y-3162139D01*
X-11137678Y-3156221D01*
X-11137071Y-3150067D01*
X-11137070Y-3150058D01*
X-11118813Y-2964683D01*
X-11118206Y-2958520D01*
X-11119402Y-2946372D01*
X-11137070Y-2766981D01*
X-11137072Y-2766970D01*
X-11137678Y-2760819D01*
X-11139472Y-2754902D01*
X-11139474Y-2754896D01*
X-11193548Y-2576639D01*
X-11193549Y-2576636D01*
X-11195345Y-2570716D01*
X-11198264Y-2565254D01*
X-11286073Y-2400974D01*
X-11286076Y-2400969D01*
X-11288991Y-2395516D01*
X-11292912Y-2390737D01*
X-11292917Y-2390731D01*
X-11411095Y-2246731D01*
X-11411100Y-2246725D01*
X-11415018Y-2241952D01*
X-11419791Y-2238034D01*
X-11419797Y-2238029D01*
X-11563797Y-2119851D01*
X-11563803Y-2119846D01*
X-11568582Y-2115925D01*
X-11574032Y-2113011D01*
X-11574041Y-2113006D01*
X-11605459Y-2096213D01*
X-11653781Y-2050456D01*
X-11672054Y-1986466D01*
X-11655180Y-1922092D01*
X-11337903Y-1372551D01*
X-11334867Y-1361219D01*
X-11346198Y-1358183D01*
X-12920862Y-1358183D01*
X-12957431Y-1352758D01*
X-13033737Y-1329612D01*
X-13039894Y-1329005D01*
X-13039902Y-1329004D01*
X-13225275Y-1310747D01*
X-13231438Y-1310140D01*
X-13237601Y-1310747D01*
X-13422973Y-1329004D01*
X-13422979Y-1329005D01*
X-13429139Y-1329612D01*
X-13435062Y-1331408D01*
X-13435068Y-1331410D01*
X-13516513Y-1356116D01*
X-13516514Y-1356117D01*
X-13541502Y-1363696D01*
X-13541505Y-1363697D01*
X-13613316Y-1385481D01*
X-13613319Y-1385482D01*
X-13619242Y-1387279D01*
X-13624697Y-1390195D01*
X-13624707Y-1390199D01*
X-13768679Y-1467153D01*
X-13831367Y-1481988D01*
X-13893195Y-1463898D01*
X-13938000Y-1417612D01*
X-13954071Y-1355230D01*
X-13937208Y-1293057D01*
X-11748066Y2500704D01*
X-11706466Y2544103D01*
X-11649492Y2563287D01*
X-11590115Y2553889D01*
X-11541850Y2518049D01*
X-11516593Y2465804D01*
X-11516401Y2463972D01*
X-11487359Y2374590D01*
X-11467979Y2314944D01*
X-11457386Y2282344D01*
X-11413576Y2206463D01*
X-11396817Y2137956D01*
X-11419499Y2071172D01*
X-11465882Y2033967D01*
X-11464704Y2031763D01*
X-11639904Y1938117D01*
X-11793468Y1812090D01*
X-11919495Y1658526D01*
X-12013141Y1483326D01*
X-12070808Y1293223D01*
X-12090280Y1095522D01*
X-12083694Y1028660D01*
X-12088512Y979738D01*
X-12111688Y936380D01*
X-12149692Y905191D01*
X-12189384Y883975D01*
X-12274904Y838264D01*
X-12428468Y712237D01*
X-12554495Y558673D01*
X-12648141Y383473D01*
X-12705808Y193370D01*
X-12712618Y124227D01*
X-12736362Y62123D01*
X-12781585Y26178D01*
X-12781050Y25299D01*
X-12788091Y21006D01*
X-12788415Y20750D01*
X-12788745Y20608D01*
X-12803980Y11322D01*
X-12903596Y-70927D01*
X-12914318Y-82307D01*
X-12943567Y-122363D01*
X-12947250Y-128019D01*
X-13355896Y-835814D01*
X-13358932Y-847146D01*
X-13347602Y-850183D01*
X-12300372Y-850183D01*
X-12240976Y-865061D01*
X-12225416Y-873378D01*
X-12099704Y-940572D01*
X-11909601Y-998239D01*
X-11711900Y-1017711D01*
X-11705737Y-1017104D01*
X-11520361Y-998846D01*
X-11520360Y-998845D01*
X-11514199Y-998239D01*
X-11324096Y-940572D01*
X-11148896Y-846926D01*
X-10995332Y-720899D01*
X-10948377Y-663685D01*
X-10873231Y-572119D01*
X-10873230Y-572118D01*
X-10869305Y-567335D01*
X-10828530Y-491051D01*
X-10778578Y-397596D01*
X-10775659Y-392135D01*
X-10753653Y-319590D01*
X-10719788Y-207954D01*
X-10719787Y-207950D01*
X-10717992Y-202032D01*
X-10717385Y-195878D01*
X-10717384Y-195869D01*
X-10699127Y-10494D01*
X-10698520Y-4331D01*
X-10699127Y1835D01*
X-10705104Y62530D01*
X-10700285Y111455D01*
X-10677110Y154812D01*
X-10639107Y186000D01*
X-10519355Y250009D01*
X-10519354Y250009D01*
X-10513896Y252927D01*
X-10509117Y256848D01*
X-10509111Y256853D01*
X-10365111Y375031D01*
X-10365105Y375036D01*
X-10360332Y378954D01*
X-10356414Y383727D01*
X-10356409Y383733D01*
X-10238231Y527733D01*
X-10238226Y527739D01*
X-10234305Y532518D01*
X-10231390Y537971D01*
X-10231387Y537976D01*
X-10143578Y702256D01*
X-10143576Y702260D01*
X-10140659Y707718D01*
X-10137548Y717972D01*
X-10084788Y891898D01*
X-10084786Y891904D01*
X-10082992Y897821D01*
X-10082386Y903972D01*
X-10082384Y903983D01*
X-10064127Y1089359D01*
X-10064127Y1089361D01*
X-10063520Y1095522D01*
X-10069571Y1156961D01*
X-10082384Y1287060D01*
X-10082385Y1287069D01*
X-10082992Y1293223D01*
X-10098367Y1343907D01*
X-10138862Y1477402D01*
X-10140659Y1483326D01*
X-10186016Y1568183D01*
X-10231387Y1653067D01*
X-10234305Y1658526D01*
X-10238231Y1663310D01*
X-10241361Y1667994D01*
X-10261108Y1718692D01*
X-10257639Y1772989D01*
X-10254908Y1778000D01*
X-7414497Y1778000D01*
X-7394535Y1588072D01*
X-7371646Y1517628D01*
X-7352126Y1457550D01*
X-7335520Y1406444D01*
X-7240033Y1241056D01*
X-7112246Y1099134D01*
X-7106904Y1095253D01*
X-7106901Y1095250D01*
X-6959096Y987863D01*
X-6920890Y943129D01*
X-6907157Y885927D01*
X-6920890Y828724D01*
X-6959094Y783993D01*
X-7082894Y694047D01*
X-7210681Y552125D01*
X-7306168Y386737D01*
X-7365183Y205109D01*
X-7385145Y15181D01*
X-7365183Y-174747D01*
X-7306168Y-356375D01*
X-7210681Y-521763D01*
X-7082894Y-663685D01*
X-6928393Y-775937D01*
X-6753929Y-853613D01*
X-6567128Y-893319D01*
X-6382757Y-893319D01*
X-6376154Y-893319D01*
X-6189353Y-853613D01*
X-6014889Y-775937D01*
X-5860388Y-663685D01*
X-5732601Y-521763D01*
X-5637114Y-356375D01*
X-5635074Y-350097D01*
X-5635071Y-350090D01*
X-5580138Y-181024D01*
X-5580136Y-181019D01*
X-5578099Y-174747D01*
X-5568378Y-82260D01*
X-2164977Y-82260D01*
X-2145015Y-272188D01*
X-2086000Y-453816D01*
X-1990513Y-619204D01*
X-1862726Y-761126D01*
X-1708225Y-873378D01*
X-1533761Y-951054D01*
X-1346960Y-990760D01*
X-1162589Y-990760D01*
X-1155986Y-990760D01*
X-969185Y-951054D01*
X-794721Y-873378D01*
X-688771Y-796401D01*
X-645564Y-765009D01*
X-645562Y-765007D01*
X-640220Y-761126D01*
X-512433Y-619204D01*
X-416946Y-453816D01*
X-414906Y-447538D01*
X-414903Y-447531D01*
X-359970Y-278465D01*
X-359968Y-278460D01*
X-357931Y-272188D01*
X-337969Y-82260D01*
X-348900Y21746D01*
X-351954Y50800D01*
X4420496Y50800D01*
X4421186Y44235D01*
X4432428Y-62732D01*
X4440458Y-139128D01*
X4442495Y-145400D01*
X4442497Y-145405D01*
X4497430Y-314471D01*
X4497433Y-314478D01*
X4499473Y-320756D01*
X4594960Y-486144D01*
X4722747Y-628066D01*
X4877248Y-740318D01*
X5051712Y-817994D01*
X5238513Y-857700D01*
X5422884Y-857700D01*
X5429487Y-857700D01*
X5616288Y-817994D01*
X5790752Y-740318D01*
X5945253Y-628066D01*
X6073040Y-486144D01*
X6114911Y-413620D01*
X6157260Y-369767D01*
X6215241Y-350928D01*
X6275278Y-361513D01*
X6349551Y-394582D01*
X6536352Y-434288D01*
X6720723Y-434288D01*
X6727326Y-434288D01*
X6914127Y-394582D01*
X7088591Y-316906D01*
X7243092Y-204654D01*
X7370879Y-62732D01*
X7466366Y102656D01*
X7525381Y284284D01*
X7545343Y474212D01*
X7544666Y480644D01*
X7555547Y531830D01*
X7586346Y574218D01*
X7624761Y596394D01*
X7624360Y597296D01*
X7770398Y662316D01*
X7798824Y674972D01*
X7880194Y734091D01*
X7947980Y783340D01*
X7947983Y783343D01*
X7953325Y787224D01*
X8081112Y929146D01*
X8176599Y1094534D01*
X8235614Y1276162D01*
X8255576Y1466090D01*
X8235614Y1656018D01*
X8176599Y1837646D01*
X8081112Y2003034D01*
X7953325Y2144956D01*
X7798824Y2257208D01*
X7624360Y2334884D01*
X7437559Y2374590D01*
X7246585Y2374590D01*
X7059784Y2334884D01*
X6885320Y2257208D01*
X6730819Y2144956D01*
X6603032Y2003034D01*
X6599730Y1997315D01*
X6581345Y1965471D01*
X6507545Y1837646D01*
X6505505Y1831368D01*
X6505502Y1831361D01*
X6450569Y1662295D01*
X6450567Y1662290D01*
X6448530Y1656018D01*
X6428568Y1466090D01*
X6429244Y1459657D01*
X6418364Y1408472D01*
X6387565Y1366084D01*
X6349149Y1343907D01*
X6349551Y1343006D01*
X6175087Y1265330D01*
X6020586Y1153078D01*
X5892799Y1011156D01*
X5874660Y979738D01*
X5850927Y938632D01*
X5808577Y894778D01*
X5750597Y875940D01*
X5690559Y886527D01*
X5622326Y916906D01*
X5622323Y916906D01*
X5616288Y919594D01*
X5429487Y959300D01*
X5238513Y959300D01*
X5051712Y919594D01*
X4877248Y841918D01*
X4722747Y729666D01*
X4718325Y724755D01*
X4710585Y716159D01*
X4594960Y587744D01*
X4499473Y422356D01*
X4497433Y416078D01*
X4497430Y416071D01*
X4442497Y247005D01*
X4442495Y247000D01*
X4440458Y240728D01*
X4439768Y234164D01*
X4435288Y191539D01*
X4420496Y50800D01*
X-351954Y50800D01*
X-357241Y101104D01*
X-357931Y107668D01*
X-359968Y113940D01*
X-359970Y113945D01*
X-414903Y283011D01*
X-414906Y283018D01*
X-416946Y289296D01*
X-512433Y454684D01*
X-640220Y596606D01*
X-794721Y708858D01*
X-969185Y786534D01*
X-1155986Y826240D01*
X-1346960Y826240D01*
X-1533761Y786534D01*
X-1708225Y708858D01*
X-1862726Y596606D01*
X-1990513Y454684D01*
X-2086000Y289296D01*
X-2145015Y107668D01*
X-2164977Y-82260D01*
X-5568378Y-82260D01*
X-5558137Y15181D01*
X-5563071Y62123D01*
X-5577409Y198545D01*
X-5578099Y205109D01*
X-5580136Y211381D01*
X-5580138Y211386D01*
X-5635071Y380452D01*
X-5635074Y380459D01*
X-5637114Y386737D01*
X-5724432Y537976D01*
X-5729299Y546406D01*
X-5732601Y552125D01*
X-5781812Y606780D01*
X-5810846Y662316D01*
X-5809534Y724972D01*
X-5778199Y779245D01*
X-5724593Y811710D01*
X-5661978Y814335D01*
X-5518595Y783858D01*
X-5518592Y783857D01*
X-5512139Y782486D01*
X-5327768Y782486D01*
X-5321165Y782486D01*
X-5314712Y783857D01*
X-5314708Y783858D01*
X-5140824Y820818D01*
X-5140816Y820820D01*
X-5134364Y822192D01*
X-5128333Y824876D01*
X-5128324Y824880D01*
X-5074794Y848713D01*
X-5010375Y858916D01*
X-4949485Y835541D01*
X-4885820Y789284D01*
X-4885813Y789280D01*
X-4880477Y785403D01*
X-4706013Y707727D01*
X-4699560Y706355D01*
X-4699556Y706354D01*
X-4525668Y669393D01*
X-4525665Y669392D01*
X-4519212Y668021D01*
X-4334841Y668021D01*
X-4328238Y668021D01*
X-4321785Y669392D01*
X-4321781Y669393D01*
X-4147893Y706354D01*
X-4147886Y706356D01*
X-4141437Y707727D01*
X-4132868Y711542D01*
X-3973003Y782718D01*
X-3973000Y782719D01*
X-3966973Y785403D01*
X-3961631Y789284D01*
X-3817816Y893771D01*
X-3817808Y893777D01*
X-3812472Y897655D01*
X-3808055Y902560D01*
X-3808050Y902565D01*
X-3689104Y1034669D01*
X-3689103Y1034670D01*
X-3684685Y1039577D01*
X-3681386Y1045290D01*
X-3681383Y1045295D01*
X-3592502Y1199242D01*
X-3592501Y1199243D01*
X-3589198Y1204965D01*
X-3587159Y1211239D01*
X-3587155Y1211249D01*
X-3532222Y1380315D01*
X-3532220Y1380322D01*
X-3530183Y1386593D01*
X-3528096Y1406444D01*
X-3510911Y1569956D01*
X-3510221Y1576521D01*
X-3519295Y1662857D01*
X-3524496Y1712346D01*
X-3514293Y1776764D01*
X-3473248Y1827451D01*
X-3379017Y1895915D01*
X-3379011Y1895919D01*
X-3373671Y1899800D01*
X-3369254Y1904705D01*
X-3369249Y1904710D01*
X-3250303Y2036814D01*
X-3250302Y2036815D01*
X-3245884Y2041722D01*
X-3242585Y2047435D01*
X-3242582Y2047440D01*
X-3153701Y2201387D01*
X-3153700Y2201388D01*
X-3150397Y2207110D01*
X-3148358Y2213385D01*
X-3148355Y2213392D01*
X-3129373Y2271814D01*
X-3099563Y2321035D01*
X-3050977Y2351869D01*
X-2993748Y2357883D01*
X-2939813Y2337825D01*
X-2900421Y2295877D01*
X-2885340Y2269756D01*
X-2757553Y2127834D01*
X-2752211Y2123953D01*
X-2752208Y2123950D01*
X-2684194Y2074535D01*
X-2603052Y2015582D01*
X-2428588Y1937906D01*
X-2422135Y1936534D01*
X-2422131Y1936533D01*
X-2248243Y1899572D01*
X-2248240Y1899571D01*
X-2241787Y1898200D01*
X-2057416Y1898200D01*
X-2050813Y1898200D01*
X-2044360Y1899571D01*
X-2044356Y1899572D01*
X-1870468Y1936533D01*
X-1870461Y1936535D01*
X-1864012Y1937906D01*
X-1851944Y1943279D01*
X-1695578Y2012897D01*
X-1695575Y2012898D01*
X-1689548Y2015582D01*
X-1684206Y2019463D01*
X-1540391Y2123950D01*
X-1540383Y2123956D01*
X-1535047Y2127834D01*
X-1530630Y2132739D01*
X-1530625Y2132744D01*
X-1411679Y2264848D01*
X-1411678Y2264849D01*
X-1407260Y2269756D01*
X-1403961Y2275469D01*
X-1403958Y2275474D01*
X-1315077Y2429421D01*
X-1315076Y2429422D01*
X-1311773Y2435144D01*
X-1309734Y2441418D01*
X-1309730Y2441428D01*
X-1254797Y2610494D01*
X-1254795Y2610501D01*
X-1252758Y2616772D01*
X-1248731Y2655081D01*
X-1233486Y2800135D01*
X-1232796Y2806700D01*
X-1247942Y2950808D01*
X-1252068Y2990064D01*
X-1252758Y2996628D01*
X-1254795Y3002900D01*
X-1254797Y3002905D01*
X-1309730Y3171971D01*
X-1309733Y3171978D01*
X-1310715Y3175000D01*
X-862704Y3175000D01*
X-842742Y2985072D01*
X-833277Y2955942D01*
X-799434Y2851783D01*
X-783727Y2803444D01*
X-688240Y2638056D01*
X-560453Y2496134D01*
X-555111Y2492253D01*
X-555108Y2492250D01*
X-499646Y2451955D01*
X-405952Y2383882D01*
X-231488Y2306206D01*
X-225035Y2304834D01*
X-225031Y2304833D01*
X-51143Y2267872D01*
X-51140Y2267871D01*
X-44687Y2266500D01*
X139684Y2266500D01*
X146287Y2266500D01*
X152740Y2267871D01*
X152743Y2267872D01*
X326631Y2304833D01*
X326635Y2304834D01*
X333088Y2306206D01*
X507552Y2383882D01*
X601246Y2451955D01*
X656708Y2492250D01*
X656711Y2492253D01*
X662053Y2496134D01*
X789840Y2638056D01*
X885327Y2803444D01*
X901034Y2851783D01*
X915271Y2895600D01*
X1728096Y2895600D01*
X1728786Y2889035D01*
X1741836Y2764865D01*
X1748058Y2705672D01*
X1750095Y2699401D01*
X1750097Y2699394D01*
X1805030Y2530328D01*
X1805034Y2530318D01*
X1807073Y2524044D01*
X1810376Y2518322D01*
X1810377Y2518321D01*
X1899258Y2364374D01*
X1899261Y2364369D01*
X1902560Y2358656D01*
X1939074Y2318102D01*
X1967693Y2264277D01*
X1967693Y2203312D01*
X1939073Y2149486D01*
X1927960Y2137144D01*
X1924658Y2131425D01*
X1908217Y2102949D01*
X1832473Y1971756D01*
X1830433Y1965478D01*
X1830430Y1965471D01*
X1775497Y1796405D01*
X1775495Y1796400D01*
X1773458Y1790128D01*
X1753496Y1600200D01*
X1754186Y1593635D01*
X1768260Y1459723D01*
X1773458Y1410272D01*
X1775495Y1404001D01*
X1775497Y1403994D01*
X1830430Y1234928D01*
X1830434Y1234918D01*
X1832473Y1228644D01*
X1835776Y1222922D01*
X1835777Y1222921D01*
X1924658Y1068974D01*
X1924661Y1068969D01*
X1927960Y1063256D01*
X1932378Y1058349D01*
X1932379Y1058348D01*
X2051325Y926244D01*
X2051330Y926239D01*
X2055747Y921334D01*
X2061083Y917456D01*
X2061091Y917450D01*
X2203018Y814335D01*
X2210248Y809082D01*
X2216275Y806398D01*
X2216278Y806397D01*
X2277263Y779245D01*
X2384712Y731406D01*
X2391161Y730035D01*
X2391168Y730033D01*
X2565056Y693072D01*
X2565060Y693071D01*
X2571513Y691700D01*
X2755884Y691700D01*
X2762487Y691700D01*
X2768940Y693071D01*
X2768943Y693072D01*
X2942831Y730033D01*
X2942835Y730034D01*
X2949288Y731406D01*
X3123752Y809082D01*
X3215774Y875940D01*
X3272908Y917450D01*
X3272911Y917453D01*
X3278253Y921334D01*
X3406040Y1063256D01*
X3501527Y1228644D01*
X3560542Y1410272D01*
X3568421Y1485242D01*
X3588058Y1540694D01*
X3630729Y1581189D01*
X3687135Y1597898D01*
X3744977Y1587179D01*
X3787644Y1568183D01*
X3787651Y1568180D01*
X3793679Y1565497D01*
X3800128Y1564126D01*
X3800135Y1564124D01*
X3974023Y1527163D01*
X3974027Y1527162D01*
X3980480Y1525791D01*
X4164851Y1525791D01*
X4171454Y1525791D01*
X4177907Y1527162D01*
X4177910Y1527163D01*
X4351798Y1564124D01*
X4351802Y1564125D01*
X4358255Y1565497D01*
X4532719Y1643173D01*
X4636662Y1718692D01*
X4681875Y1751541D01*
X4681878Y1751544D01*
X4687220Y1755425D01*
X4815007Y1897347D01*
X4899759Y2044142D01*
X4940250Y2086812D01*
X4990814Y2104721D01*
X4990706Y2105233D01*
X4994592Y2106059D01*
X4997154Y2106603D01*
X4997158Y2106604D01*
X5171050Y2143566D01*
X5171054Y2143567D01*
X5177507Y2144939D01*
X5351971Y2222615D01*
X5467024Y2306206D01*
X5501127Y2330983D01*
X5501130Y2330986D01*
X5506472Y2334867D01*
X5634259Y2476789D01*
X5729746Y2642177D01*
X5736978Y2664433D01*
X5786721Y2817527D01*
X5788761Y2823805D01*
X5808723Y3013733D01*
X5796593Y3129138D01*
X5806796Y3193557D01*
X5847841Y3244245D01*
X5863271Y3255456D01*
X5877112Y3265512D01*
X5880080Y3268808D01*
X5937417Y3298024D01*
X6002549Y3294610D01*
X6057249Y3259088D01*
X6101031Y3210463D01*
X6101036Y3210457D01*
X6105454Y3205552D01*
X6110790Y3201674D01*
X6110798Y3201668D01*
X6254613Y3097181D01*
X6259955Y3093300D01*
X6265982Y3090616D01*
X6265985Y3090615D01*
X6423921Y3020298D01*
X6434419Y3015624D01*
X6440868Y3014253D01*
X6440875Y3014251D01*
X6614763Y2977290D01*
X6614767Y2977289D01*
X6621220Y2975918D01*
X6805591Y2975918D01*
X6812194Y2975918D01*
X6818647Y2977289D01*
X6818650Y2977290D01*
X6992538Y3014251D01*
X6992542Y3014252D01*
X6998995Y3015624D01*
X7173459Y3093300D01*
X7276873Y3168435D01*
X7322615Y3201668D01*
X7322618Y3201671D01*
X7327960Y3205552D01*
X7455747Y3347474D01*
X7551234Y3512862D01*
X7554875Y3524066D01*
X7585004Y3616797D01*
X7610249Y3694490D01*
X7630211Y3884418D01*
X7610249Y4074346D01*
X7551234Y4255974D01*
X7455747Y4421362D01*
X7327960Y4563284D01*
X7173459Y4675536D01*
X6998995Y4753212D01*
X6812194Y4792918D01*
X6621220Y4792918D01*
X6434419Y4753212D01*
X6259955Y4675536D01*
X6105454Y4563284D01*
X6102482Y4559983D01*
X6045144Y4530771D01*
X5980013Y4534186D01*
X5925316Y4569707D01*
X5877112Y4623244D01*
X5722611Y4735496D01*
X5548147Y4813172D01*
X5361346Y4852878D01*
X5170372Y4852878D01*
X4983571Y4813172D01*
X4809107Y4735496D01*
X4654606Y4623244D01*
X4526819Y4481322D01*
X4431332Y4315934D01*
X4429292Y4309656D01*
X4429289Y4309649D01*
X4374356Y4140583D01*
X4374354Y4140578D01*
X4372317Y4134306D01*
X4352355Y3944378D01*
X4353045Y3937813D01*
X4364484Y3828970D01*
X4354280Y3764551D01*
X4313235Y3713864D01*
X4283966Y3692599D01*
X4156179Y3550677D01*
X4152877Y3544958D01*
X4071426Y3403881D01*
X4030929Y3361207D01*
X3980370Y3343305D01*
X3980480Y3342791D01*
X3793679Y3303085D01*
X3628200Y3229409D01*
X3568165Y3218824D01*
X3510184Y3237663D01*
X3467836Y3281515D01*
X3380640Y3432544D01*
X3252853Y3574466D01*
X3098352Y3686718D01*
X2923888Y3764394D01*
X2737087Y3804100D01*
X2546113Y3804100D01*
X2359312Y3764394D01*
X2184848Y3686718D01*
X2030347Y3574466D01*
X1902560Y3432544D01*
X1807073Y3267156D01*
X1805033Y3260878D01*
X1805030Y3260871D01*
X1750097Y3091805D01*
X1750095Y3091800D01*
X1748058Y3085528D01*
X1747368Y3078964D01*
X1733898Y2950801D01*
X1728096Y2895600D01*
X915271Y2895600D01*
X934877Y2955942D01*
X944342Y2985072D01*
X964304Y3175000D01*
X944342Y3364928D01*
X885327Y3546556D01*
X789840Y3711944D01*
X676503Y3837817D01*
X647470Y3893353D01*
X648782Y3956009D01*
X680117Y4010282D01*
X733722Y4042747D01*
X796337Y4045372D01*
X850908Y4033772D01*
X850918Y4033770D01*
X857368Y4032400D01*
X1041739Y4032400D01*
X1048342Y4032400D01*
X1054795Y4033771D01*
X1054798Y4033772D01*
X1228686Y4070733D01*
X1228690Y4070734D01*
X1235143Y4072106D01*
X1409607Y4149782D01*
X1480912Y4201588D01*
X1558763Y4258150D01*
X1558766Y4258153D01*
X1564108Y4262034D01*
X1691895Y4403956D01*
X1787382Y4569344D01*
X1846397Y4750972D01*
X1866359Y4940900D01*
X1846397Y5130828D01*
X1787382Y5312456D01*
X1691895Y5477844D01*
X1564108Y5619766D01*
X1409607Y5732018D01*
X1235143Y5809694D01*
X1048342Y5849400D01*
X857368Y5849400D01*
X670567Y5809694D01*
X496103Y5732018D01*
X341602Y5619766D01*
X213815Y5477844D01*
X118328Y5312456D01*
X116288Y5306178D01*
X116285Y5306171D01*
X61352Y5137105D01*
X61350Y5137100D01*
X59313Y5130828D01*
X39351Y4940900D01*
X40041Y4934335D01*
X55048Y4791545D01*
X59313Y4750972D01*
X61350Y4744701D01*
X61352Y4744694D01*
X116285Y4575628D01*
X116289Y4575618D01*
X118328Y4569344D01*
X121631Y4563622D01*
X121632Y4563621D01*
X210513Y4409674D01*
X210516Y4409669D01*
X213815Y4403956D01*
X259485Y4353233D01*
X327150Y4278084D01*
X356184Y4222545D01*
X354871Y4159889D01*
X323536Y4105615D01*
X269929Y4073151D01*
X207314Y4070528D01*
X184658Y4075343D01*
X152748Y4082127D01*
X152744Y4082127D01*
X146287Y4083500D01*
X-44687Y4083500D01*
X-231488Y4043794D01*
X-405952Y3966118D01*
X-560453Y3853866D01*
X-688240Y3711944D01*
X-783727Y3546556D01*
X-842742Y3364928D01*
X-862704Y3175000D01*
X-1310715Y3175000D01*
X-1311773Y3178256D01*
X-1354708Y3252621D01*
X-1403954Y3337919D01*
X-1403958Y3337925D01*
X-1407260Y3343644D01*
X-1410839Y3347619D01*
X-1432558Y3398170D01*
X-1430375Y3453741D01*
X-1404482Y3502960D01*
X-1359921Y3536238D01*
X-1341382Y3544492D01*
X-1341370Y3544498D01*
X-1335348Y3547180D01*
X-1316289Y3561027D01*
X-1186191Y3655548D01*
X-1186183Y3655554D01*
X-1180847Y3659432D01*
X-1176430Y3664337D01*
X-1176425Y3664342D01*
X-1057479Y3796446D01*
X-1057478Y3796447D01*
X-1053060Y3801354D01*
X-1049761Y3807067D01*
X-1049758Y3807072D01*
X-960877Y3961019D01*
X-960876Y3961020D01*
X-957573Y3966742D01*
X-955534Y3973016D01*
X-955530Y3973026D01*
X-900597Y4142092D01*
X-900595Y4142099D01*
X-898558Y4148370D01*
X-886611Y4262034D01*
X-879286Y4331733D01*
X-878596Y4338298D01*
X-884981Y4399048D01*
X-897868Y4521662D01*
X-898558Y4528226D01*
X-900595Y4534498D01*
X-900597Y4534503D01*
X-955530Y4703569D01*
X-955533Y4703576D01*
X-957573Y4709854D01*
X-1053060Y4875242D01*
X-1180847Y5017164D01*
X-1335348Y5129416D01*
X-1509812Y5207092D01*
X-1696613Y5246798D01*
X-1887587Y5246798D01*
X-2074388Y5207092D01*
X-2248852Y5129416D01*
X-2403353Y5017164D01*
X-2531140Y4875242D01*
X-2626627Y4709854D01*
X-2685642Y4528226D01*
X-2705604Y4338298D01*
X-2685642Y4148370D01*
X-2626627Y3966742D01*
X-2531140Y3801354D01*
X-2527560Y3797378D01*
X-2505841Y3746827D01*
X-2508024Y3691253D01*
X-2533920Y3642033D01*
X-2578483Y3608757D01*
X-2584340Y3606148D01*
X-2603052Y3597818D01*
X-2757553Y3485566D01*
X-2885340Y3343644D01*
X-2980827Y3178256D01*
X-2999587Y3120517D01*
X-3001850Y3113553D01*
X-3031659Y3064331D01*
X-3080245Y3033497D01*
X-3137474Y3027481D01*
X-3191409Y3047539D01*
X-3230801Y3089487D01*
X-3242580Y3109888D01*
X-3242582Y3109891D01*
X-3245884Y3115610D01*
X-3373671Y3257532D01*
X-3379320Y3261636D01*
X-3436369Y3303085D01*
X-3528172Y3369784D01*
X-3702636Y3447460D01*
X-3889437Y3487166D01*
X-4080411Y3487166D01*
X-4267212Y3447460D01*
X-4441676Y3369784D01*
X-4596177Y3257532D01*
X-4723964Y3115610D01*
X-4819451Y2950222D01*
X-4819879Y2948903D01*
X-4853224Y2904970D01*
X-4904767Y2879381D01*
X-4962312Y2879379D01*
X-5013857Y2904965D01*
X-5047802Y2949686D01*
X-5048898Y2953057D01*
X-5052202Y2958779D01*
X-5141083Y3112726D01*
X-5144385Y3118445D01*
X-5272172Y3260367D01*
X-5426673Y3372619D01*
X-5601137Y3450295D01*
X-5787938Y3490001D01*
X-5978912Y3490001D01*
X-6165713Y3450295D01*
X-6340177Y3372619D01*
X-6494678Y3260367D01*
X-6622465Y3118445D01*
X-6717952Y2953057D01*
X-6776967Y2771429D01*
X-6782795Y2715973D01*
X-6806169Y2655081D01*
X-6856855Y2614036D01*
X-6957745Y2569118D01*
X-7112246Y2456866D01*
X-7240033Y2314944D01*
X-7335520Y2149556D01*
X-7394535Y1967928D01*
X-7414497Y1778000D01*
X-10254908Y1778000D01*
X-10231601Y1820761D01*
X-10187848Y1853102D01*
X-10172135Y1860097D01*
X-10172126Y1860102D01*
X-10166107Y1862782D01*
X-10160765Y1866663D01*
X-10016950Y1971150D01*
X-10016942Y1971156D01*
X-10011606Y1975034D01*
X-10007189Y1979939D01*
X-10007184Y1979944D01*
X-9888238Y2112048D01*
X-9888237Y2112049D01*
X-9883819Y2116956D01*
X-9880520Y2122669D01*
X-9880517Y2122674D01*
X-9791636Y2276621D01*
X-9791634Y2276625D01*
X-9788332Y2282344D01*
X-9786293Y2288618D01*
X-9786289Y2288628D01*
X-9731356Y2457694D01*
X-9731354Y2457701D01*
X-9729317Y2463972D01*
X-9725936Y2496134D01*
X-9710045Y2647335D01*
X-9709355Y2653900D01*
X-9724725Y2800135D01*
X-9728627Y2837264D01*
X-9729317Y2843828D01*
X-9731354Y2850100D01*
X-9731356Y2850105D01*
X-9786289Y3019171D01*
X-9786292Y3019178D01*
X-9788332Y3025456D01*
X-9883819Y3190844D01*
X-10011606Y3332766D01*
X-10018707Y3337925D01*
X-10080754Y3383005D01*
X-10166107Y3445018D01*
X-10340571Y3522694D01*
X-10527372Y3562400D01*
X-10718346Y3562400D01*
X-10905147Y3522694D01*
X-10907141Y3521805D01*
X-10965153Y3517542D01*
X-11020318Y3541407D01*
X-11058151Y3588112D01*
X-11070042Y3647030D01*
X-11053285Y3704753D01*
X-9382909Y6599500D01*
X-8055571Y6599500D01*
X-8035609Y6409572D01*
X-8033569Y6403294D01*
X-7999214Y6297559D01*
X-7976594Y6227944D01*
X-7881107Y6062556D01*
X-7753320Y5920634D01*
X-7747978Y5916753D01*
X-7747975Y5916750D01*
X-7670124Y5860188D01*
X-7598819Y5808382D01*
X-7424355Y5730706D01*
X-7417902Y5729334D01*
X-7417898Y5729333D01*
X-7244010Y5692372D01*
X-7244007Y5692371D01*
X-7237554Y5691000D01*
X-7053183Y5691000D01*
X-7046580Y5691000D01*
X-7040127Y5692371D01*
X-7040123Y5692372D01*
X-6866235Y5729333D01*
X-6866228Y5729335D01*
X-6859779Y5730706D01*
X-6853748Y5733391D01*
X-6691345Y5805697D01*
X-6691342Y5805698D01*
X-6685315Y5808382D01*
X-6679973Y5812263D01*
X-6536158Y5916750D01*
X-6536150Y5916756D01*
X-6530814Y5920634D01*
X-6526397Y5925539D01*
X-6526392Y5925544D01*
X-6407446Y6057648D01*
X-6407445Y6057649D01*
X-6403027Y6062556D01*
X-6399728Y6068269D01*
X-6399725Y6068274D01*
X-6310844Y6222221D01*
X-6310843Y6222222D01*
X-6307540Y6227944D01*
X-6305501Y6234218D01*
X-6305497Y6234228D01*
X-6250564Y6403294D01*
X-6250562Y6403301D01*
X-6248525Y6409572D01*
X-6228563Y6599500D01*
X-6232699Y6638856D01*
X-6247835Y6782864D01*
X-6248525Y6789428D01*
X-6250562Y6795700D01*
X-6250564Y6795705D01*
X-6305497Y6964771D01*
X-6305500Y6964778D01*
X-6307540Y6971056D01*
X-6403027Y7136444D01*
X-6530814Y7278366D01*
X-6543528Y7287603D01*
X-6627337Y7348494D01*
X-6685315Y7390618D01*
X-6859779Y7468294D01*
X-7046580Y7508000D01*
X-7237554Y7508000D01*
X-7424355Y7468294D01*
X-7598819Y7390618D01*
X-7753320Y7278366D01*
X-7881107Y7136444D01*
X-7976594Y6971056D01*
X-8035609Y6789428D01*
X-8055571Y6599500D01*
X-9382909Y6599500D01*
X-5847052Y12727109D01*
X-5798784Y12774459D01*
X-5732988Y12790039D01*
X-5668612Y12769362D01*
X-5624194Y12718384D01*
X-5612525Y12651785D01*
X-5615344Y12623167D01*
X-5614737Y12617004D01*
X-5607417Y12542678D01*
X-5595872Y12425466D01*
X-5538205Y12235363D01*
X-5444559Y12060163D01*
X-5318532Y11906599D01*
X-5313752Y11902676D01*
X-5275385Y11871189D01*
X-5164968Y11780572D01*
X-5159509Y11777654D01*
X-5131756Y11762820D01*
X-4989768Y11686926D01*
X-4983844Y11685129D01*
X-4805587Y11631055D01*
X-4805583Y11631054D01*
X-4799665Y11629259D01*
X-4793511Y11628652D01*
X-4793502Y11628651D01*
X-4731091Y11622505D01*
X-4668985Y11598760D01*
X-4632824Y11553266D01*
X-4632025Y11553754D01*
X-4628121Y11547350D01*
X-4627615Y11546712D01*
X-4623788Y11537775D01*
X-4618051Y11530826D01*
X-4618050Y11530825D01*
X-4547470Y11445342D01*
X-4530690Y11425020D01*
X-4524326Y11420373D01*
X-4524324Y11420371D01*
X-4486697Y11392896D01*
X-4481496Y11389099D01*
X-4478570Y11387409D01*
X-4478569Y11387409D01*
X-3969330Y11093399D01*
X-3927869Y11054735D01*
X-3907555Y11001809D01*
X-3912499Y10945337D01*
X-3916142Y10934128D01*
X-3936104Y10744200D01*
X-3916142Y10554272D01*
X-3914102Y10547994D01*
X-3868003Y10406115D01*
X-3857127Y10372644D01*
X-3761640Y10207256D01*
X-3633853Y10065334D01*
X-3628511Y10061453D01*
X-3628508Y10061450D01*
X-3550657Y10004888D01*
X-3479352Y9953082D01*
X-3304888Y9875406D01*
X-3298435Y9874034D01*
X-3298431Y9874033D01*
X-3124543Y9837072D01*
X-3124540Y9837071D01*
X-3118087Y9835700D01*
X-3111484Y9835700D01*
X-3069116Y9835700D01*
X-3013092Y9822560D01*
X-2968753Y9785879D01*
X-2945348Y9733310D01*
X-2947758Y9675816D01*
X-2975478Y9625392D01*
X-3064585Y9526429D01*
X-3160072Y9361041D01*
X-3219087Y9179413D01*
X-3239049Y8989485D01*
X-3219087Y8799557D01*
X-3160072Y8617929D01*
X-3064585Y8452541D01*
X-2948065Y8323132D01*
X-2919032Y8267597D01*
X-2920344Y8204941D01*
X-2951679Y8150668D01*
X-3005285Y8118203D01*
X-3059045Y8115949D01*
X-3059205Y8114436D01*
X-3065776Y8115126D01*
X-3072233Y8116499D01*
X-3263207Y8116499D01*
X-3450008Y8076793D01*
X-3624472Y7999117D01*
X-3778973Y7886865D01*
X-3906760Y7744943D01*
X-4002247Y7579555D01*
X-4061262Y7397927D01*
X-4066457Y7348494D01*
X-4089831Y7287603D01*
X-4140518Y7246556D01*
X-4300820Y7175186D01*
X-4455321Y7062934D01*
X-4583108Y6921012D01*
X-4678595Y6755624D01*
X-4737610Y6573996D01*
X-4757572Y6384068D01*
X-4737610Y6194140D01*
X-4735570Y6187862D01*
X-4694856Y6062556D01*
X-4678595Y6012512D01*
X-4583108Y5847124D01*
X-4455321Y5705202D01*
X-4449979Y5701321D01*
X-4449976Y5701318D01*
X-4435774Y5691000D01*
X-4300820Y5592950D01*
X-4126356Y5515274D01*
X-4119903Y5513902D01*
X-4119899Y5513901D01*
X-3946011Y5476940D01*
X-3946008Y5476939D01*
X-3939555Y5475568D01*
X-3755184Y5475568D01*
X-3748581Y5475568D01*
X-3742128Y5476939D01*
X-3742124Y5476940D01*
X-3568236Y5513901D01*
X-3568229Y5513903D01*
X-3561780Y5515274D01*
X-3448343Y5565779D01*
X-3393346Y5590265D01*
X-3393343Y5590266D01*
X-3387316Y5592950D01*
X-3357166Y5614855D01*
X-3238159Y5701318D01*
X-3238151Y5701324D01*
X-3232815Y5705202D01*
X-3228398Y5710107D01*
X-3228393Y5710112D01*
X-3109447Y5842216D01*
X-3109446Y5842217D01*
X-3105028Y5847124D01*
X-3101729Y5852837D01*
X-3101726Y5852842D01*
X-3012845Y6006789D01*
X-3012844Y6006790D01*
X-3009541Y6012512D01*
X-3007502Y6018786D01*
X-3007498Y6018796D01*
X-2978634Y6107631D01*
X2735998Y6107631D01*
X2736688Y6101066D01*
X2740735Y6062556D01*
X2755960Y5917703D01*
X2757997Y5911432D01*
X2757999Y5911425D01*
X2812932Y5742359D01*
X2812936Y5742349D01*
X2814975Y5736075D01*
X2818278Y5730353D01*
X2818279Y5730352D01*
X2907160Y5576405D01*
X2907163Y5576400D01*
X2910462Y5570687D01*
X2914880Y5565780D01*
X2914881Y5565779D01*
X3033827Y5433675D01*
X3033832Y5433670D01*
X3038249Y5428765D01*
X3043585Y5424887D01*
X3043593Y5424881D01*
X3187408Y5320394D01*
X3192750Y5316513D01*
X3198777Y5313829D01*
X3198780Y5313828D01*
X3349333Y5246798D01*
X3367214Y5238837D01*
X3373663Y5237466D01*
X3373670Y5237464D01*
X3547558Y5200503D01*
X3547562Y5200502D01*
X3554015Y5199131D01*
X3738386Y5199131D01*
X3744989Y5199131D01*
X3751442Y5200502D01*
X3751445Y5200503D01*
X3925333Y5237464D01*
X3925337Y5237465D01*
X3931790Y5238837D01*
X4106254Y5316513D01*
X4177559Y5368319D01*
X4255410Y5424881D01*
X4255413Y5424884D01*
X4260755Y5428765D01*
X4388542Y5570687D01*
X4484029Y5736075D01*
X4507950Y5809694D01*
X4541004Y5911425D01*
X4543044Y5917703D01*
X4563006Y6107631D01*
X4543044Y6297559D01*
X4484029Y6479187D01*
X4388542Y6644575D01*
X4260755Y6786497D01*
X4106254Y6898749D01*
X3931790Y6976425D01*
X3744989Y7016131D01*
X3554015Y7016131D01*
X3367214Y6976425D01*
X3192750Y6898749D01*
X3086800Y6821772D01*
X3050923Y6795705D01*
X3038249Y6786497D01*
X2910462Y6644575D01*
X2814975Y6479187D01*
X2812935Y6472909D01*
X2812932Y6472902D01*
X2757999Y6303836D01*
X2757997Y6303831D01*
X2755960Y6297559D01*
X2755270Y6290995D01*
X2744430Y6187860D01*
X2735998Y6107631D01*
X-2978634Y6107631D01*
X-2952566Y6187860D01*
X-2952565Y6187864D01*
X-2950526Y6194140D01*
X-2949836Y6200704D01*
X-2945330Y6243574D01*
X-2921956Y6304464D01*
X-2871269Y6345510D01*
X-2716998Y6414196D01*
X-2716995Y6414197D01*
X-2710968Y6416881D01*
X-2705626Y6420762D01*
X-2561811Y6525249D01*
X-2561803Y6525255D01*
X-2556467Y6529133D01*
X-2552050Y6534038D01*
X-2552045Y6534043D01*
X-2433099Y6666147D01*
X-2433098Y6666148D01*
X-2428680Y6671055D01*
X-2425381Y6676768D01*
X-2425378Y6676773D01*
X-2336497Y6830720D01*
X-2336496Y6830721D01*
X-2333193Y6836443D01*
X-2331154Y6842717D01*
X-2331150Y6842727D01*
X-2276217Y7011793D01*
X-2276215Y7011800D01*
X-2274178Y7018071D01*
X-2269501Y7062564D01*
X-2254906Y7201434D01*
X-2254216Y7207999D01*
X-2274178Y7397927D01*
X-2276215Y7404199D01*
X-2276217Y7404204D01*
X-2331150Y7573270D01*
X-2331153Y7573277D01*
X-2333193Y7579555D01*
X-2428680Y7744943D01*
X-2545198Y7874350D01*
X-2574231Y7929881D01*
X-2572922Y7992533D01*
X-2541594Y8046806D01*
X-2487996Y8079275D01*
X-2434218Y8081537D01*
X-2434060Y8083048D01*
X-2427488Y8082357D01*
X-2421032Y8080985D01*
X-2236661Y8080985D01*
X-2230058Y8080985D01*
X-2223605Y8082356D01*
X-2223601Y8082357D01*
X-2049713Y8119318D01*
X-2049706Y8119320D01*
X-2043257Y8120691D01*
X-2037226Y8123376D01*
X-1874823Y8195682D01*
X-1874820Y8195683D01*
X-1868793Y8198367D01*
X-1863451Y8202248D01*
X-1719636Y8306735D01*
X-1719628Y8306741D01*
X-1714292Y8310619D01*
X-1709875Y8315524D01*
X-1709870Y8315529D01*
X-1590924Y8447633D01*
X-1590920Y8447638D01*
X-1586505Y8452541D01*
X-1583206Y8458254D01*
X-1583203Y8458259D01*
X-1494322Y8612206D01*
X-1494321Y8612207D01*
X-1491018Y8617929D01*
X-1488979Y8624203D01*
X-1488975Y8624213D01*
X-1434042Y8793279D01*
X-1434040Y8793286D01*
X-1432003Y8799557D01*
X-1412041Y8989485D01*
X-1432003Y9179413D01*
X-1434040Y9185685D01*
X-1434042Y9185690D01*
X-1488975Y9354756D01*
X-1488978Y9354763D01*
X-1491018Y9361041D01*
X-1586505Y9526429D01*
X-1653626Y9600975D01*
X-1682660Y9656511D01*
X-1681348Y9719167D01*
X-1650013Y9773440D01*
X-1596407Y9805905D01*
X-1533792Y9808530D01*
X-1425544Y9785521D01*
X-1425539Y9785520D01*
X-1419087Y9784149D01*
X-1234716Y9784149D01*
X-1228113Y9784149D01*
X-1221660Y9785520D01*
X-1221656Y9785521D01*
X-1047768Y9822482D01*
X-1047761Y9822484D01*
X-1041312Y9823855D01*
X-1035281Y9826540D01*
X-872878Y9898846D01*
X-872875Y9898847D01*
X-866848Y9901531D01*
X-861506Y9905412D01*
X-795796Y9953153D01*
X-739270Y9975991D01*
X-678640Y9969618D01*
X-649580Y9950017D01*
X-666452Y9981746D01*
X-666453Y10042711D01*
X-637832Y10096539D01*
X-588979Y10150796D01*
X-588974Y10150802D01*
X-584560Y10155705D01*
X-581261Y10161419D01*
X-581258Y10161423D01*
X-492377Y10315370D01*
X-492376Y10315371D01*
X-489073Y10321093D01*
X-487034Y10327367D01*
X-487030Y10327377D01*
X-432097Y10496443D01*
X-432095Y10496450D01*
X-430058Y10502721D01*
X-410096Y10692649D01*
X-430058Y10882577D01*
X-432095Y10888849D01*
X-432097Y10888854D01*
X-487030Y11057920D01*
X-487033Y11057927D01*
X-489073Y11064205D01*
X-584560Y11229593D01*
X-712347Y11371515D01*
X-790059Y11427976D01*
X-866848Y11483767D01*
X-866365Y11484430D01*
X-896698Y11510797D01*
X-918529Y11553640D01*
X-922720Y11601541D01*
X-915525Y11670003D01*
X-915525Y11670005D01*
X-914835Y11676570D01*
X-925766Y11780572D01*
X-934107Y11859934D01*
X-934797Y11866498D01*
X-936834Y11872770D01*
X-936836Y11872775D01*
X-991769Y12041841D01*
X-991772Y12041848D01*
X-993812Y12048126D01*
X-1089299Y12213514D01*
X-1217086Y12355436D01*
X-1235490Y12368807D01*
X-1301681Y12416898D01*
X-1371587Y12467688D01*
X-1546051Y12545364D01*
X-1732852Y12585070D01*
X-1795908Y12585070D01*
X-1852559Y12598524D01*
X-1897112Y12636012D01*
X-1920053Y12689529D01*
X-1916483Y12747646D01*
X-1875000Y12884395D01*
X-1874998Y12884401D01*
X-1873204Y12890318D01*
X-1872598Y12896469D01*
X-1872596Y12896480D01*
X-1854339Y13081856D01*
X-1853732Y13088019D01*
X-1854339Y13094185D01*
X-1860316Y13154880D01*
X-1855497Y13203805D01*
X-1832322Y13247162D01*
X-1794319Y13278350D01*
X-1674567Y13342359D01*
X-1674566Y13342359D01*
X-1669108Y13345277D01*
X-1664329Y13349198D01*
X-1664323Y13349203D01*
X-1520323Y13467381D01*
X-1520317Y13467386D01*
X-1515544Y13471304D01*
X-1511626Y13476077D01*
X-1511621Y13476083D01*
X-1393443Y13620083D01*
X-1393438Y13620089D01*
X-1389517Y13624868D01*
X-1386602Y13630321D01*
X-1386599Y13630326D01*
X-1298790Y13794606D01*
X-1298788Y13794610D01*
X-1295871Y13800068D01*
X-1290943Y13816314D01*
X-1240000Y13984248D01*
X-1239998Y13984254D01*
X-1238204Y13990171D01*
X-1237598Y13996322D01*
X-1237596Y13996333D01*
X-1219339Y14181709D01*
X-1218732Y14187872D01*
X-1221856Y14219587D01*
X-1237596Y14379410D01*
X-1237597Y14379419D01*
X-1238204Y14385573D01*
X-1273280Y14501202D01*
X-1294074Y14569752D01*
X-1295871Y14575676D01*
X-1389517Y14750876D01*
X-1441376Y14814066D01*
X-1511621Y14899660D01*
X-1515544Y14904440D01*
X-1669108Y15030467D01*
X-1844308Y15124113D01*
X-2034411Y15181780D01*
X-2040572Y15182386D01*
X-2040573Y15182387D01*
X-2225949Y15200645D01*
X-2232112Y15201252D01*
X-2298972Y15194666D01*
X-2347893Y15199484D01*
X-2391252Y15222659D01*
X-2422441Y15260663D01*
X-2486451Y15380416D01*
X-2489369Y15385876D01*
X-2615396Y15539440D01*
X-2768960Y15665467D01*
X-2944160Y15759113D01*
X-3134263Y15816780D01*
X-3140424Y15817386D01*
X-3140425Y15817387D01*
X-3325801Y15835645D01*
X-3331964Y15836252D01*
X-3529665Y15816780D01*
X-3719768Y15759113D01*
X-3876973Y15675085D01*
X-3939658Y15660251D01*
X-4001486Y15678340D01*
X-4046292Y15724626D01*
X-4062363Y15787009D01*
X-4045500Y15849182D01*
X-1868634Y19621673D01*
X-1822521Y19667806D01*
X-1759518Y19684699D01*
X-1696510Y19667824D01*
G37*
%TD.AperFunction*%
%TD*%
M02*
