%TF.GenerationSoftware,KiCad,Pcbnew,7.0.0-da2b9df05c~163~ubuntu22.04.1*%
%TF.CreationDate,2023-03-01T01:28:45+03:00*%
%TF.ProjectId,freeeeg16-alpha,66726565-6565-4673-9136-2d616c706861,rev?*%
%TF.SameCoordinates,Original*%
%TF.FileFunction,Copper,L4,Bot*%
%TF.FilePolarity,Positive*%
%FSLAX46Y46*%
G04 Gerber Fmt 4.6, Leading zero omitted, Abs format (unit mm)*
G04 Created by KiCad (PCBNEW 7.0.0-da2b9df05c~163~ubuntu22.04.1) date 2023-03-01 01:28:45*
%MOMM*%
%LPD*%
G01*
G04 APERTURE LIST*
G04 Aperture macros list*
%AMRoundRect*
0 Rectangle with rounded corners*
0 $1 Rounding radius*
0 $2 $3 $4 $5 $6 $7 $8 $9 X,Y pos of 4 corners*
0 Add a 4 corners polygon primitive as box body*
4,1,4,$2,$3,$4,$5,$6,$7,$8,$9,$2,$3,0*
0 Add four circle primitives for the rounded corners*
1,1,$1+$1,$2,$3*
1,1,$1+$1,$4,$5*
1,1,$1+$1,$6,$7*
1,1,$1+$1,$8,$9*
0 Add four rect primitives between the rounded corners*
20,1,$1+$1,$2,$3,$4,$5,0*
20,1,$1+$1,$4,$5,$6,$7,0*
20,1,$1+$1,$6,$7,$8,$9,0*
20,1,$1+$1,$8,$9,$2,$3,0*%
%AMHorizOval*
0 Thick line with rounded ends*
0 $1 width*
0 $2 $3 position (X,Y) of the first rounded end (center of the circle)*
0 $4 $5 position (X,Y) of the second rounded end (center of the circle)*
0 Add line between two ends*
20,1,$1,$2,$3,$4,$5,0*
0 Add two circle primitives to create the rounded ends*
1,1,$1,$2,$3*
1,1,$1,$4,$5*%
%AMRotRect*
0 Rectangle, with rotation*
0 The origin of the aperture is its center*
0 $1 length*
0 $2 width*
0 $3 Rotation angle, in degrees counterclockwise*
0 Add horizontal line*
21,1,$1,$2,0,0,$3*%
G04 Aperture macros list end*
%TA.AperFunction,SMDPad,CuDef*%
%ADD10RoundRect,0.135000X-0.092715X0.209413X-0.227715X-0.024413X0.092715X-0.209413X0.227715X0.024413X0*%
%TD*%
%TA.AperFunction,SMDPad,CuDef*%
%ADD11RoundRect,0.140000X-0.077224X0.206244X-0.217224X-0.036244X0.077224X-0.206244X0.217224X0.036244X0*%
%TD*%
%TA.AperFunction,ComponentPad*%
%ADD12R,1.000000X1.000000*%
%TD*%
%TA.AperFunction,ComponentPad*%
%ADD13O,1.000000X1.000000*%
%TD*%
%TA.AperFunction,ComponentPad*%
%ADD14RotRect,1.000000X1.000000X210.000000*%
%TD*%
%TA.AperFunction,ComponentPad*%
%ADD15HorizOval,1.000000X0.000000X0.000000X0.000000X0.000000X0*%
%TD*%
%TA.AperFunction,ComponentPad*%
%ADD16RotRect,1.000000X1.000000X150.000000*%
%TD*%
%TA.AperFunction,ComponentPad*%
%ADD17HorizOval,1.000000X0.000000X0.000000X0.000000X0.000000X0*%
%TD*%
%TA.AperFunction,SMDPad,CuDef*%
%ADD18RoundRect,0.140000X0.170000X-0.140000X0.170000X0.140000X-0.170000X0.140000X-0.170000X-0.140000X0*%
%TD*%
%TA.AperFunction,SMDPad,CuDef*%
%ADD19RoundRect,0.135000X-0.185000X0.135000X-0.185000X-0.135000X0.185000X-0.135000X0.185000X0.135000X0*%
%TD*%
%TA.AperFunction,SMDPad,CuDef*%
%ADD20RoundRect,0.140000X0.140000X0.170000X-0.140000X0.170000X-0.140000X-0.170000X0.140000X-0.170000X0*%
%TD*%
%TA.AperFunction,SMDPad,CuDef*%
%ADD21RoundRect,0.225000X0.329006X-0.069856X0.104006X0.319856X-0.329006X0.069856X-0.104006X-0.319856X0*%
%TD*%
%TA.AperFunction,SMDPad,CuDef*%
%ADD22RoundRect,0.140000X-0.219203X-0.021213X-0.021213X-0.219203X0.219203X0.021213X0.021213X0.219203X0*%
%TD*%
%TA.AperFunction,SMDPad,CuDef*%
%ADD23RoundRect,0.225000X-0.104006X0.319856X-0.329006X-0.069856X0.104006X-0.319856X0.329006X0.069856X0*%
%TD*%
%TA.AperFunction,SMDPad,CuDef*%
%ADD24RoundRect,0.140000X-0.170000X0.140000X-0.170000X-0.140000X0.170000X-0.140000X0.170000X0.140000X0*%
%TD*%
%TA.AperFunction,SMDPad,CuDef*%
%ADD25RoundRect,0.075000X-0.415425X-0.521491X0.521491X0.415425X0.415425X0.521491X-0.521491X-0.415425X0*%
%TD*%
%TA.AperFunction,SMDPad,CuDef*%
%ADD26RoundRect,0.075000X0.415425X-0.521491X0.521491X-0.415425X-0.415425X0.521491X-0.521491X0.415425X0*%
%TD*%
%TA.AperFunction,SMDPad,CuDef*%
%ADD27RoundRect,0.150000X-0.368838X-0.386154X0.518838X0.126346X0.368838X0.386154X-0.518838X-0.126346X0*%
%TD*%
%TA.AperFunction,ComponentPad*%
%ADD28RotRect,1.000000X1.000000X330.000000*%
%TD*%
%TA.AperFunction,ComponentPad*%
%ADD29HorizOval,1.000000X0.000000X0.000000X0.000000X0.000000X0*%
%TD*%
%TA.AperFunction,SMDPad,CuDef*%
%ADD30R,1.500000X2.000000*%
%TD*%
%TA.AperFunction,SMDPad,CuDef*%
%ADD31R,3.800000X2.000000*%
%TD*%
%TA.AperFunction,SMDPad,CuDef*%
%ADD32RoundRect,0.075000X0.530330X-0.424264X-0.424264X0.530330X-0.530330X0.424264X0.424264X-0.530330X0*%
%TD*%
%TA.AperFunction,SMDPad,CuDef*%
%ADD33RoundRect,0.075000X0.530330X0.424264X0.424264X0.530330X-0.530330X-0.424264X-0.424264X-0.530330X0*%
%TD*%
%TA.AperFunction,SMDPad,CuDef*%
%ADD34RoundRect,0.140000X-0.021213X0.219203X-0.219203X0.021213X0.021213X-0.219203X0.219203X-0.021213X0*%
%TD*%
%TA.AperFunction,SMDPad,CuDef*%
%ADD35RoundRect,0.135000X-0.135000X-0.185000X0.135000X-0.185000X0.135000X0.185000X-0.135000X0.185000X0*%
%TD*%
%TA.AperFunction,SMDPad,CuDef*%
%ADD36RoundRect,0.140000X0.219203X0.021213X0.021213X0.219203X-0.219203X-0.021213X-0.021213X-0.219203X0*%
%TD*%
%TA.AperFunction,SMDPad,CuDef*%
%ADD37RoundRect,0.150000X0.518838X-0.126346X-0.368838X0.386154X-0.518838X0.126346X0.368838X-0.386154X0*%
%TD*%
%TA.AperFunction,SMDPad,CuDef*%
%ADD38RoundRect,0.140000X-0.140000X-0.170000X0.140000X-0.170000X0.140000X0.170000X-0.140000X0.170000X0*%
%TD*%
%TA.AperFunction,SMDPad,CuDef*%
%ADD39RoundRect,0.250000X0.475000X-0.250000X0.475000X0.250000X-0.475000X0.250000X-0.475000X-0.250000X0*%
%TD*%
%TA.AperFunction,SMDPad,CuDef*%
%ADD40RoundRect,0.225000X-0.250000X0.225000X-0.250000X-0.225000X0.250000X-0.225000X0.250000X0.225000X0*%
%TD*%
%TA.AperFunction,SMDPad,CuDef*%
%ADD41RoundRect,0.075000X-0.424264X-0.530330X0.530330X0.424264X0.424264X0.530330X-0.530330X-0.424264X0*%
%TD*%
%TA.AperFunction,SMDPad,CuDef*%
%ADD42RoundRect,0.075000X0.424264X-0.530330X0.530330X-0.424264X-0.424264X0.530330X-0.530330X0.424264X0*%
%TD*%
%TA.AperFunction,SMDPad,CuDef*%
%ADD43RoundRect,0.135000X0.035355X-0.226274X0.226274X-0.035355X-0.035355X0.226274X-0.226274X0.035355X0*%
%TD*%
%TA.AperFunction,SMDPad,CuDef*%
%ADD44RoundRect,0.135000X-0.227715X0.024413X-0.092715X-0.209413X0.227715X-0.024413X0.092715X0.209413X0*%
%TD*%
%TA.AperFunction,ViaPad*%
%ADD45C,0.800000*%
%TD*%
%TA.AperFunction,Conductor*%
%ADD46C,0.250000*%
%TD*%
%TA.AperFunction,Conductor*%
%ADD47C,0.500000*%
%TD*%
%TA.AperFunction,Conductor*%
%ADD48C,0.750000*%
%TD*%
G04 APERTURE END LIST*
D10*
%TO.P,R12,1*%
%TO.N,/vref2/1_FILTER*%
X13597996Y-10100419D03*
%TO.P,R12,2*%
%TO.N,3V3_2_GND*%
X13087996Y-10983765D03*
%TD*%
D11*
%TO.P,C40,1*%
%TO.N,/vref2/1_FILTER*%
X12838400Y-9718908D03*
%TO.P,C40,2*%
%TO.N,3V3_2_GND*%
X12358400Y-10550292D03*
%TD*%
D12*
%TO.P,J1,1,Pin_1*%
%TO.N,ACC_5_VDDIO*%
X-624999Y19054999D03*
D13*
%TO.P,J1,2,Pin_2*%
%TO.N,CRYSTAL_4_Vin*%
X644999Y19054999D03*
%TO.P,J1,3,Pin_3*%
%TO.N,MCU_18_PB0_ADC1_SYNC{slash}RESET*%
X-624999Y17784999D03*
%TO.P,J1,4,Pin_4*%
%TO.N,ADC1_16_SYNC{slash}RESET*%
X644999Y17784999D03*
%TO.P,J1,5,Pin_5*%
%TO.N,CRYSTAL_3_OUT*%
X-624999Y16514999D03*
%TO.P,J1,6,Pin_6*%
%TO.N,MCU_5_PDO0_RCC_OSC_IN*%
X644999Y16514999D03*
%TD*%
D14*
%TO.P,J3,1,Pin_1*%
%TO.N,ADC1_02_AIN2N*%
X12344399Y-1099851D03*
D15*
%TO.P,J3,2,Pin_2*%
%TO.N,/J17*%
X11709399Y0D03*
%TO.P,J3,3,Pin_3*%
%TO.N,ADC1_09_AIN6P*%
X11074399Y1099852D03*
%TD*%
D16*
%TO.P,J2,1,Pin_1*%
%TO.N,3V3_2_GND*%
X-12346899Y-1104182D03*
D17*
%TO.P,J2,2,Pin_2*%
%TO.N,/J18*%
X-11711899Y-4330D03*
%TO.P,J2,3,Pin_3*%
%TO.N,ADC1_09_AIN6P*%
X-11076899Y1095521D03*
%TD*%
D18*
%TO.P,C36,1*%
%TO.N,ACC_5_VDDIO*%
X-6985000Y-6576000D03*
%TO.P,C36,2*%
%TO.N,3V3_2_GND*%
X-6985000Y-5616000D03*
%TD*%
D12*
%TO.P,J29,1,Pin_1*%
%TO.N,ADC2_08_AIN5P*%
X11167947Y-9026999D03*
D13*
%TO.P,J29,2,Pin_2*%
X11167947Y-10296999D03*
%TO.P,J29,3,Pin_3*%
%TO.N,ADC2_09_AIN6P*%
X9897947Y-9026999D03*
%TO.P,J29,4,Pin_4*%
X9897947Y-10296999D03*
%TO.P,J29,5,Pin_5*%
%TO.N,ADC2_12_AIN7P*%
X8627947Y-9026999D03*
%TO.P,J29,6,Pin_6*%
X8627947Y-10296999D03*
%TD*%
D12*
%TO.P,J28,1,Pin_1*%
%TO.N,ADC1_29_AIN0P*%
X-8630999Y-9026999D03*
D13*
%TO.P,J28,2,Pin_2*%
X-8630999Y-10296999D03*
%TO.P,J28,3,Pin_3*%
%TO.N,/J18*%
X-9900999Y-9026999D03*
%TO.P,J28,4,Pin_4*%
X-9900999Y-10296999D03*
%TO.P,J28,5,Pin_5*%
%TO.N,ADC1_32_AIN1P*%
X-11170999Y-9026999D03*
%TO.P,J28,6,Pin_6*%
X-11170999Y-10296999D03*
%TD*%
D19*
%TO.P,R6,1*%
%TO.N,MCU_20_PB2_BOOT1*%
X-6985000Y-3808000D03*
%TO.P,R6,2*%
%TO.N,3V3_2_GND*%
X-6985000Y-4828000D03*
%TD*%
D20*
%TO.P,C22,1*%
%TO.N,ADC1_14_REFIN*%
X-5108000Y7239000D03*
%TO.P,C22,2*%
%TO.N,3V3_2_GND*%
X-6068000Y7239000D03*
%TD*%
D14*
%TO.P,J31,1,Pin_1*%
%TO.N,ADC2_04_AIN3P*%
X12133110Y-2961164D03*
D15*
%TO.P,J31,2,Pin_2*%
X13232962Y-2326164D03*
%TO.P,J31,3,Pin_3*%
%TO.N,/J17*%
X12768110Y-4061016D03*
%TO.P,J31,4,Pin_4*%
X13867962Y-3426016D03*
%TO.P,J31,5,Pin_5*%
%TO.N,ADC2_05_AIN4P*%
X13403110Y-5160869D03*
%TO.P,J31,6,Pin_6*%
X14502962Y-4525869D03*
%TD*%
D21*
%TO.P,C3,1*%
%TO.N,3V3_1_IN*%
X-17011500Y-10704170D03*
%TO.P,C3,2*%
%TO.N,3V3_2_GND*%
X-17786500Y-9361830D03*
%TD*%
D22*
%TO.P,C20,1*%
%TO.N,3V3_2_GND*%
X-5419411Y-9998389D03*
%TO.P,C20,2*%
%TO.N,MCU_7_NRST*%
X-4740589Y-10677211D03*
%TD*%
D20*
%TO.P,C35,1*%
%TO.N,ACC_5_VDDIO*%
X480000Y-11049000D03*
%TO.P,C35,2*%
%TO.N,3V3_2_GND*%
X-480000Y-11049000D03*
%TD*%
D23*
%TO.P,C2,1*%
%TO.N,ADC1_15_AVDD*%
X11817500Y-5932830D03*
%TO.P,C2,2*%
%TO.N,3V3_2_GND*%
X11042500Y-7275170D03*
%TD*%
%TO.P,C1,1*%
%TO.N,3V3_1_IN*%
X17786500Y-9361830D03*
%TO.P,C1,2*%
%TO.N,3V3_2_GND*%
X17011500Y-10704170D03*
%TD*%
D24*
%TO.P,C5,1*%
%TO.N,ADC1_15_AVDD*%
X1041400Y4061400D03*
%TO.P,C5,2*%
%TO.N,3V3_2_GND*%
X1041400Y3101400D03*
%TD*%
%TO.P,C11,1*%
%TO.N,ADC1_15_AVDD*%
X-6096000Y9088000D03*
%TO.P,C11,2*%
%TO.N,3V3_2_GND*%
X-6096000Y8128000D03*
%TD*%
D25*
%TO.P,U6,1,VBAT*%
%TO.N,ACC_5_VDDIO*%
X-998788Y-10475876D03*
%TO.P,U6,2,PC13*%
%TO.N,/MCU/2_PC13*%
X-1352342Y-10122322D03*
%TO.P,U6,3,PC14*%
%TO.N,/MCU/3_PC14*%
X-1705895Y-9768769D03*
%TO.P,U6,4,PC15*%
%TO.N,/MCU/4_PC15*%
X-2059449Y-9415215D03*
%TO.P,U6,5,PD0*%
%TO.N,MCU_5_PDO0_RCC_OSC_IN*%
X-2413002Y-9061662D03*
%TO.P,U6,6,PD1*%
%TO.N,/MCU/6_PD1*%
X-2766555Y-8708109D03*
%TO.P,U6,7,NRST*%
%TO.N,MCU_7_NRST*%
X-3120109Y-8354555D03*
%TO.P,U6,8,VSSA*%
%TO.N,3V3_2_GND*%
X-3473662Y-8001002D03*
%TO.P,U6,9,VDDA*%
%TO.N,ACC_5_VDDIO*%
X-3827215Y-7647449D03*
%TO.P,U6,10,PA0*%
%TO.N,/MCU/10_PA0*%
X-4180769Y-7293895D03*
%TO.P,U6,11,PA1*%
%TO.N,/MCU/11_PA1*%
X-4534322Y-6940342D03*
%TO.P,U6,12,PA2*%
%TO.N,MCU_12_PA2_USART2_TX*%
X-4887876Y-6586788D03*
D26*
%TO.P,U6,13,PA3*%
%TO.N,MCU_13_PA3_USART2_RX*%
X-4887876Y-4589212D03*
%TO.P,U6,14,PA4*%
%TO.N,ADC1_17_CS*%
X-4534322Y-4235658D03*
%TO.P,U6,15,PA5*%
%TO.N,ADC1_19_SCLK*%
X-4180769Y-3882105D03*
%TO.P,U6,16,PA6*%
%TO.N,ADC1_20_DOUT*%
X-3827215Y-3528551D03*
%TO.P,U6,17,PA7*%
%TO.N,ADC1_21_DIN*%
X-3473662Y-3174998D03*
%TO.P,U6,18,PB0*%
%TO.N,MCU_18_PB0_ADC1_SYNC{slash}RESET*%
X-3120109Y-2821445D03*
%TO.P,U6,19,PB1*%
%TO.N,ADC1_18_DRDY*%
X-2766555Y-2467891D03*
%TO.P,U6,20,PB2*%
%TO.N,MCU_20_PB2_BOOT1*%
X-2413002Y-2114338D03*
%TO.P,U6,21,PB10*%
%TO.N,/MCU/21_PB10*%
X-2059449Y-1760785D03*
%TO.P,U6,22,PB11*%
%TO.N,/MCU/22_PB11*%
X-1705895Y-1407231D03*
%TO.P,U6,23,VSS*%
%TO.N,3V3_2_GND*%
X-1352342Y-1053678D03*
%TO.P,U6,24,VDD*%
%TO.N,ACC_5_VDDIO*%
X-998788Y-700124D03*
D25*
%TO.P,U6,25,PB12*%
%TO.N,ADC2_17_CS*%
X998788Y-700124D03*
%TO.P,U6,26,PB13*%
%TO.N,ADC2_19_SCLK*%
X1352342Y-1053678D03*
%TO.P,U6,27,PB14*%
%TO.N,ADC2_20_DOUT*%
X1705895Y-1407231D03*
%TO.P,U6,28,PB15*%
%TO.N,ADC2_21_DIN*%
X2059449Y-1760785D03*
%TO.P,U6,29,PA8*%
%TO.N,ADC1_23_XTAL1{slash}CLKIN*%
X2413002Y-2114338D03*
%TO.P,U6,30,PA9*%
%TO.N,/MCU/30_PA9*%
X2766555Y-2467891D03*
%TO.P,U6,31,PA10*%
%TO.N,/MCU/31_PA10*%
X3120109Y-2821445D03*
%TO.P,U6,32,PA11*%
%TO.N,/MCU/32_PA11*%
X3473662Y-3174998D03*
%TO.P,U6,33,PA12*%
%TO.N,/MCU/33_PA12*%
X3827215Y-3528551D03*
%TO.P,U6,34,PA13*%
%TO.N,MCU_34_PA13_SYS_JTMS-SWDIO*%
X4180769Y-3882105D03*
%TO.P,U6,35,VSS*%
%TO.N,3V3_2_GND*%
X4534322Y-4235658D03*
%TO.P,U6,36,VDD*%
%TO.N,ACC_5_VDDIO*%
X4887876Y-4589212D03*
D26*
%TO.P,U6,37,PA14*%
%TO.N,MCU_37_PA14_SYS_JTCK-SWCLK*%
X4887876Y-6586788D03*
%TO.P,U6,38,PA15*%
%TO.N,MCU_38_PA15_SYS_JTDI*%
X4534322Y-6940342D03*
%TO.P,U6,39,PB3*%
%TO.N,MCU_39_PB3_SYS_JTDO-TRACESWO*%
X4180769Y-7293895D03*
%TO.P,U6,40,PB4*%
%TO.N,/MCU/40_PB4*%
X3827215Y-7647449D03*
%TO.P,U6,41,PB5*%
%TO.N,/MCU/41_PB5*%
X3473662Y-8001002D03*
%TO.P,U6,42,PB6*%
%TO.N,ACC_13_SCL*%
X3120109Y-8354555D03*
%TO.P,U6,43,PB7*%
%TO.N,ACC_14_SDA*%
X2766555Y-8708109D03*
%TO.P,U6,44,BOOT0*%
%TO.N,MCU_44_BOOT0*%
X2413002Y-9061662D03*
%TO.P,U6,45,PB8*%
%TO.N,/MCU/45_PB8*%
X2059449Y-9415215D03*
%TO.P,U6,46,PB9*%
%TO.N,/MCU/46_PB9*%
X1705895Y-9768769D03*
%TO.P,U6,47,VSS*%
%TO.N,3V3_2_GND*%
X1352342Y-10122322D03*
%TO.P,U6,48,VDD*%
%TO.N,ACC_5_VDDIO*%
X998788Y-10475876D03*
%TD*%
D18*
%TO.P,C21,1*%
%TO.N,ADC1_14_REFIN*%
X889000Y790000D03*
%TO.P,C21,2*%
%TO.N,3V3_2_GND*%
X889000Y1750000D03*
%TD*%
D27*
%TO.P,U4,1,IN*%
%TO.N,3V3_1_IN*%
X-15242104Y-9900474D03*
%TO.P,U4,2,GND*%
%TO.N,3V3_2_GND*%
X-15717104Y-9077750D03*
%TO.P,U4,3,EN*%
%TO.N,3V3_1_IN*%
X-16192104Y-8255026D03*
%TO.P,U4,4,N/C*%
%TO.N,unconnected-(U4-N{slash}C-Pad4)*%
X-14221896Y-7117526D03*
%TO.P,U4,5,OUT*%
%TO.N,ADC1_26_DVDD*%
X-13271896Y-8762974D03*
%TD*%
D28*
%TO.P,J32,1,Pin_1*%
%TO.N,ADC1_08_AIN5P*%
X-3502111Y11988166D03*
D29*
%TO.P,J32,2,Pin_2*%
X-4601963Y12623166D03*
%TO.P,J32,3,Pin_3*%
%TO.N,ADC1_09_AIN6P*%
X-2867111Y13088018D03*
%TO.P,J32,4,Pin_4*%
X-3966963Y13723018D03*
%TO.P,J32,5,Pin_5*%
%TO.N,ADC1_12_AIN7P*%
X-2232111Y14187871D03*
%TO.P,J32,6,Pin_6*%
X-3331963Y14822871D03*
%TD*%
D30*
%TO.P,U10,1,GND*%
%TO.N,3V3_2_GND*%
X2299999Y5993999D03*
%TO.P,U10,2,VO*%
%TO.N,3V3_5_OUT*%
X0Y5993999D03*
D31*
X0Y12293999D03*
D30*
%TO.P,U10,3,VI*%
%TO.N,3V3_1_IN*%
X-2299999Y5993999D03*
%TD*%
D24*
%TO.P,C12,1*%
%TO.N,/ADC1/24_CAP*%
X-889000Y4036000D03*
%TO.P,C12,2*%
%TO.N,3V3_2_GND*%
X-889000Y3076000D03*
%TD*%
D10*
%TO.P,R8,1*%
%TO.N,/J18*%
X-10387600Y-1006127D03*
%TO.P,R8,2*%
%TO.N,3V3_2_GND*%
X-10897600Y-1889473D03*
%TD*%
D32*
%TO.P,U3,1,AIN2P*%
%TO.N,ADC2_01_AIN2P*%
X9705501Y1278373D03*
%TO.P,U3,2,AIN2N*%
%TO.N,ADC1_02_AIN2N*%
X9351948Y924819D03*
%TO.P,U3,3,AIN3N*%
X8998394Y571266D03*
%TO.P,U3,4,AIN3P*%
%TO.N,ADC2_04_AIN3P*%
X8644841Y217713D03*
%TO.P,U3,5,AIN4P*%
%TO.N,ADC2_05_AIN4P*%
X8291287Y-135841D03*
%TO.P,U3,6,AIN4N*%
%TO.N,ADC1_02_AIN2N*%
X7937734Y-489394D03*
%TO.P,U3,7,AIN5N*%
X7584181Y-842948D03*
%TO.P,U3,8,AIN5P*%
%TO.N,ADC2_08_AIN5P*%
X7230627Y-1196501D03*
D33*
%TO.P,U3,9,AIN6P*%
%TO.N,ADC2_09_AIN6P*%
X5215373Y-1196501D03*
%TO.P,U3,10,AIN6N*%
%TO.N,ADC1_02_AIN2N*%
X4861819Y-842948D03*
%TO.P,U3,11,AIN7N*%
X4508266Y-489394D03*
%TO.P,U3,12,AIN7P*%
%TO.N,ADC2_12_AIN7P*%
X4154713Y-135841D03*
%TO.P,U3,13,AGND*%
%TO.N,3V3_2_GND*%
X3801159Y217713D03*
%TO.P,U3,14,REFIN*%
%TO.N,ADC1_14_REFIN*%
X3447606Y571266D03*
%TO.P,U3,15,AVDD*%
%TO.N,ADC1_15_AVDD*%
X3094052Y924819D03*
%TO.P,U3,16,SYNC/RESET*%
%TO.N,ADC1_16_SYNC{slash}RESET*%
X2740499Y1278373D03*
D32*
%TO.P,U3,17,CS*%
%TO.N,ADC2_17_CS*%
X2740499Y3293627D03*
%TO.P,U3,18,DRDY*%
%TO.N,ADC2_18_DRDY*%
X3094052Y3647181D03*
%TO.P,U3,19,SCLK*%
%TO.N,ADC2_19_SCLK*%
X3447606Y4000734D03*
%TO.P,U3,20,DOUT*%
%TO.N,ADC2_20_DOUT*%
X3801159Y4354287D03*
%TO.P,U3,21,DIN*%
%TO.N,ADC2_21_DIN*%
X4154713Y4707841D03*
%TO.P,U3,22,XTAL2*%
%TO.N,/ADC2/22_XTAL2*%
X4508266Y5061394D03*
%TO.P,U3,23,XTAL1/CLKIN*%
%TO.N,ADC1_23_XTAL1{slash}CLKIN*%
X4861819Y5414948D03*
%TO.P,U3,24,CAP*%
%TO.N,/ADC2/24_CAP*%
X5215373Y5768501D03*
D33*
%TO.P,U3,25,DGND*%
%TO.N,3V3_2_GND*%
X7230627Y5768501D03*
%TO.P,U3,26,DVDD*%
%TO.N,ADC1_26_DVDD*%
X7584181Y5414948D03*
%TO.P,U3,27,NC*%
%TO.N,/ADC2/27_NC*%
X7937734Y5061394D03*
%TO.P,U3,28,AGND*%
%TO.N,3V3_2_GND*%
X8291287Y4707841D03*
%TO.P,U3,29,AIN0P*%
%TO.N,ADC2_29_AIN0P*%
X8644841Y4354287D03*
%TO.P,U3,30,AIN0N*%
%TO.N,ADC1_02_AIN2N*%
X8998394Y4000734D03*
%TO.P,U3,31,AIN1N*%
X9351948Y3647181D03*
%TO.P,U3,32,AIN1P*%
%TO.N,ADC2_32_AIN1P*%
X9705501Y3293627D03*
%TD*%
D34*
%TO.P,C33,1*%
%TO.N,ACC_5_VDDIO*%
X-1905000Y254000D03*
%TO.P,C33,2*%
%TO.N,3V3_2_GND*%
X-2583822Y-424822D03*
%TD*%
D21*
%TO.P,C4,1*%
%TO.N,ADC1_26_DVDD*%
X-11042500Y-7275170D03*
%TO.P,C4,2*%
%TO.N,3V3_2_GND*%
X-11817500Y-5932830D03*
%TD*%
D14*
%TO.P,J33,1,Pin_1*%
%TO.N,ADC2_29_AIN0P*%
X2233636Y14185226D03*
D15*
%TO.P,J33,2,Pin_2*%
X3333488Y14820226D03*
%TO.P,J33,3,Pin_3*%
%TO.N,ADC2_32_AIN1P*%
X2868636Y13085374D03*
%TO.P,J33,4,Pin_4*%
X3968488Y13720374D03*
%TO.P,J33,5,Pin_5*%
%TO.N,ADC2_01_AIN2P*%
X3503636Y11985521D03*
%TO.P,J33,6,Pin_6*%
X4603488Y12620521D03*
%TD*%
D35*
%TO.P,R4,1*%
%TO.N,CRYSTAL_3_OUT*%
X-510000Y15367000D03*
%TO.P,R4,2*%
%TO.N,MCU_5_PDO0_RCC_OSC_IN*%
X510000Y15367000D03*
%TD*%
D36*
%TO.P,C41,1*%
%TO.N,3V3_2_GND*%
X-6162989Y-9280211D03*
%TO.P,C41,2*%
%TO.N,RADIO_8_GPIO9*%
X-6841811Y-8601389D03*
%TD*%
D37*
%TO.P,U7,1,IN*%
%TO.N,3V3_1_IN*%
X16192104Y-8255026D03*
%TO.P,U7,2,GND*%
%TO.N,3V3_2_GND*%
X15717104Y-9077750D03*
%TO.P,U7,3,EN*%
%TO.N,3V3_1_IN*%
X15242104Y-9900474D03*
%TO.P,U7,4,N/C*%
%TO.N,unconnected-(U7-N{slash}C-Pad4)*%
X13271896Y-8762974D03*
%TO.P,U7,5,OUT*%
%TO.N,ADC1_15_AVDD*%
X14221896Y-7117526D03*
%TD*%
D28*
%TO.P,J30,1,Pin_1*%
%TO.N,ADC1_01_AIN2P*%
X-13401585Y-5158224D03*
D29*
%TO.P,J30,2,Pin_2*%
X-14501437Y-4523224D03*
%TO.P,J30,3,Pin_3*%
%TO.N,ADC1_04_AIN3P*%
X-12766585Y-4058372D03*
%TO.P,J30,4,Pin_4*%
X-13866437Y-3423372D03*
%TO.P,J30,5,Pin_5*%
%TO.N,ADC1_05_AIN4P*%
X-12131585Y-2958519D03*
%TO.P,J30,6,Pin_6*%
X-13231437Y-2323519D03*
%TD*%
D38*
%TO.P,C6,1*%
%TO.N,/ADC2/24_CAP*%
X4219000Y7112000D03*
%TO.P,C6,2*%
%TO.N,3V3_2_GND*%
X5179000Y7112000D03*
%TD*%
D39*
%TO.P,C16,1*%
%TO.N,3V3_1_IN*%
X-4572000Y8448000D03*
%TO.P,C16,2*%
%TO.N,3V3_2_GND*%
X-4572000Y10348000D03*
%TD*%
D24*
%TO.P,C13,1*%
%TO.N,ADC1_26_DVDD*%
X-889000Y1750000D03*
%TO.P,C13,2*%
%TO.N,3V3_2_GND*%
X-889000Y790000D03*
%TD*%
D40*
%TO.P,C32,1*%
%TO.N,ACC_5_VDDIO*%
X6731000Y-4813000D03*
%TO.P,C32,2*%
%TO.N,3V3_2_GND*%
X6731000Y-6363000D03*
%TD*%
D36*
%TO.P,C34,1*%
%TO.N,ACC_5_VDDIO*%
X6054411Y-3810000D03*
%TO.P,C34,2*%
%TO.N,3V3_2_GND*%
X5375589Y-3131178D03*
%TD*%
D41*
%TO.P,U8,1,AIN2P*%
%TO.N,ADC1_01_AIN2P*%
X-7230627Y-1196501D03*
%TO.P,U8,2,AIN2N*%
%TO.N,ADC1_02_AIN2N*%
X-7584181Y-842948D03*
%TO.P,U8,3,AIN3N*%
X-7937734Y-489394D03*
%TO.P,U8,4,AIN3P*%
%TO.N,ADC1_04_AIN3P*%
X-8291287Y-135841D03*
%TO.P,U8,5,AIN4P*%
%TO.N,ADC1_05_AIN4P*%
X-8644841Y217713D03*
%TO.P,U8,6,AIN4N*%
%TO.N,ADC1_02_AIN2N*%
X-8998394Y571266D03*
%TO.P,U8,7,AIN5N*%
X-9351948Y924819D03*
%TO.P,U8,8,AIN5P*%
%TO.N,ADC1_08_AIN5P*%
X-9705501Y1278373D03*
D42*
%TO.P,U8,9,AIN6P*%
%TO.N,ADC1_09_AIN6P*%
X-9705501Y3293627D03*
%TO.P,U8,10,AIN6N*%
%TO.N,ADC1_02_AIN2N*%
X-9351948Y3647181D03*
%TO.P,U8,11,AIN7N*%
X-8998394Y4000734D03*
%TO.P,U8,12,AIN7P*%
%TO.N,ADC1_12_AIN7P*%
X-8644841Y4354287D03*
%TO.P,U8,13,AGND*%
%TO.N,3V3_2_GND*%
X-8291287Y4707841D03*
%TO.P,U8,14,REFIN*%
%TO.N,ADC1_14_REFIN*%
X-7937734Y5061394D03*
%TO.P,U8,15,AVDD*%
%TO.N,ADC1_15_AVDD*%
X-7584181Y5414948D03*
%TO.P,U8,16,SYNC/RESET*%
%TO.N,ADC1_16_SYNC{slash}RESET*%
X-7230627Y5768501D03*
D41*
%TO.P,U8,17,CS*%
%TO.N,ADC1_17_CS*%
X-5215373Y5768501D03*
%TO.P,U8,18,DRDY*%
%TO.N,ADC1_18_DRDY*%
X-4861819Y5414948D03*
%TO.P,U8,19,SCLK*%
%TO.N,ADC1_19_SCLK*%
X-4508266Y5061394D03*
%TO.P,U8,20,DOUT*%
%TO.N,ADC1_20_DOUT*%
X-4154713Y4707841D03*
%TO.P,U8,21,DIN*%
%TO.N,ADC1_21_DIN*%
X-3801159Y4354287D03*
%TO.P,U8,22,XTAL2*%
%TO.N,/ADC1/22_XTAL2*%
X-3447606Y4000734D03*
%TO.P,U8,23,XTAL1/CLKIN*%
%TO.N,ADC1_23_XTAL1{slash}CLKIN*%
X-3094052Y3647181D03*
%TO.P,U8,24,CAP*%
%TO.N,/ADC1/24_CAP*%
X-2740499Y3293627D03*
D42*
%TO.P,U8,25,DGND*%
%TO.N,3V3_2_GND*%
X-2740499Y1278373D03*
%TO.P,U8,26,DVDD*%
%TO.N,ADC1_26_DVDD*%
X-3094052Y924819D03*
%TO.P,U8,27,NC*%
%TO.N,/ADC1/27_NC*%
X-3447606Y571266D03*
%TO.P,U8,28,AGND*%
%TO.N,3V3_2_GND*%
X-3801159Y217713D03*
%TO.P,U8,29,AIN0P*%
%TO.N,ADC1_29_AIN0P*%
X-4154713Y-135841D03*
%TO.P,U8,30,AIN0N*%
%TO.N,ADC1_02_AIN2N*%
X-4508266Y-489394D03*
%TO.P,U8,31,AIN1N*%
X-4861819Y-842948D03*
%TO.P,U8,32,AIN1P*%
%TO.N,ADC1_32_AIN1P*%
X-5215373Y-1196501D03*
%TD*%
D20*
%TO.P,C7,1*%
%TO.N,ADC1_26_DVDD*%
X6957000Y7112000D03*
%TO.P,C7,2*%
%TO.N,3V3_2_GND*%
X5997000Y7112000D03*
%TD*%
D43*
%TO.P,R5,1*%
%TO.N,MCU_44_BOOT0*%
X5354376Y-9834824D03*
%TO.P,R5,2*%
%TO.N,3V3_2_GND*%
X6075624Y-9113576D03*
%TD*%
D35*
%TO.P,R2,1*%
%TO.N,MCU_18_PB0_ADC1_SYNC{slash}RESET*%
X-492000Y20574000D03*
%TO.P,R2,2*%
%TO.N,ADC1_16_SYNC{slash}RESET*%
X528000Y20574000D03*
%TD*%
D44*
%TO.P,R10,1*%
%TO.N,/J17*%
X10463800Y-955327D03*
%TO.P,R10,2*%
%TO.N,ADC1_02_AIN2N*%
X10973800Y-1838673D03*
%TD*%
D39*
%TO.P,C17,1*%
%TO.N,3V3_5_OUT*%
X4572000Y8448000D03*
%TO.P,C17,2*%
%TO.N,3V3_2_GND*%
X4572000Y10348000D03*
%TD*%
D45*
%TO.N,3V3_2_GND*%
X12135314Y-10936687D03*
%TO.N,/vref2/1_FILTER*%
X15189200Y-10947400D03*
%TO.N,ADC1_14_REFIN*%
X10102741Y-4966605D03*
%TO.N,ADC1_15_AVDD*%
X14037867Y-7011275D03*
%TO.N,3V3_1_IN*%
X-3167720Y7207999D03*
X-13987908Y-10303090D03*
X-15964500Y-6705600D03*
X14599318Y-6155988D03*
%TO.N,ADC1_15_AVDD*%
X7342072Y1466090D03*
X17068800Y-7594600D03*
X57669Y9170799D03*
%TO.N,ADC1_26_DVDD*%
X-2146300Y2806700D03*
X-12368202Y-9654691D03*
X6716707Y3884418D03*
%TO.N,ADC1_14_REFIN*%
X-3844068Y6384068D03*
X6631839Y474212D03*
X-587663Y7599508D03*
%TO.N,ACC_5_VDDIO*%
X-6298133Y-6679133D03*
X-806128Y-8764200D03*
X-1251473Y-82260D03*
X7023056Y-5311845D03*
X-14457301Y-5911133D03*
X2844046Y-10517304D03*
%TO.N,ADC2_01_AIN2P*%
X10349900Y2474505D03*
%TO.N,ADC2_17_CS*%
X-812967Y-2405237D03*
X2641600Y2895600D03*
%TO.N,ADC2_29_AIN0P*%
X2873887Y11080071D03*
%TO.N,ADC1_02_AIN2N*%
X-6471641Y15181D03*
X5334000Y50800D03*
X1873598Y7594734D03*
%TO.N,ADC1_08_AIN5P*%
X-10622859Y2653900D03*
%TO.N,ADC1_09_AIN6P*%
X2463800Y15849600D03*
%TO.N,ADC1_12_AIN7P*%
X-3149600Y10617200D03*
%TO.N,ADC1_16_SYNC{slash}RESET*%
X2667000Y1600200D03*
X1575177Y10338177D03*
X-7142067Y6599500D03*
%TO.N,ADC1_17_CS*%
X-3986395Y-5595707D03*
X-6500993Y1778000D03*
%TO.N,ADC1_18_DRDY*%
X-5883425Y2581501D03*
X-1515793Y-3115899D03*
%TO.N,ADC1_19_SCLK*%
X-3196554Y-6204685D03*
X-5416652Y1690986D03*
%TO.N,ADC1_23_XTAL1{slash}CLKIN*%
X1626915Y-4835303D03*
X3649502Y6107631D03*
X-1792100Y4338298D03*
%TO.N,3V3_2_GND*%
X-3943752Y10010300D03*
X18694400Y-10820400D03*
X-10577904Y-5682256D03*
X-7861606Y-6168372D03*
X-17017009Y-7454768D03*
X254000Y-9271000D03*
X-15113000Y-11030000D03*
X12274293Y-7212197D03*
X-335801Y605723D03*
X-7402127Y3747685D03*
X2815280Y10079859D03*
X2006600Y4551933D03*
X6156471Y-5830636D03*
X-285001Y-337089D03*
X-6396854Y7412854D03*
X-4703049Y-9386346D03*
%TO.N,3V3_5_OUT*%
X-1828339Y11676570D03*
X952855Y4940900D03*
%TO.N,MCU_7_NRST*%
X-624999Y-7471002D03*
%TO.N,MCU_34_PA13_SYS_JTMS-SWDIO*%
X867897Y-7242595D03*
%TO.N,MCU_37_PA14_SYS_JTCK-SWCLK*%
X5143567Y-6489633D03*
%TO.N,ADC1_20_DOUT*%
X-4423725Y1576521D03*
X-2533936Y-5456391D03*
%TO.N,ADC1_21_DIN*%
X-3984924Y2578666D03*
X-2343219Y-4343400D03*
%TO.N,ADC2_19_SCLK*%
X70832Y-3129737D03*
X4075967Y2434291D03*
%TO.N,ADC2_20_DOUT*%
X4895219Y3013733D03*
X326162Y-4096077D03*
%TO.N,ADC2_21_DIN*%
X5265859Y3944378D03*
X341897Y-5095456D03*
%TO.N,MCU_38_PA15_SYS_JTDI*%
X3709418Y-6013573D03*
%TO.N,MCU_39_PB3_SYS_JTDO-TRACESWO*%
X2083941Y-7409134D03*
%TO.N,MCU_5_PDO0_RCC_OSC_IN*%
X-3479800Y-10261600D03*
X-1345449Y10692649D03*
%TO.N,ACC_13_SCL*%
X4378065Y-9102465D03*
%TO.N,ACC_14_SDA*%
X2726877Y-4290223D03*
%TO.N,RADIO_8_GPIO9*%
X-8586106Y-4832753D03*
%TO.N,MCU_12_PA2_USART2_TX*%
X-6045200Y-5156200D03*
%TO.N,MCU_13_PA3_USART2_RX*%
X-6072303Y-4157065D03*
%TO.N,MCU_18_PB0_ADC1_SYNC{slash}RESET*%
X-2325545Y8989485D03*
X-1372544Y-4105083D03*
X50800Y3175000D03*
%TD*%
D46*
%TO.N,ADC1_02_AIN2N*%
X-6223000Y-266171D02*
X-6223000Y-233460D01*
%TO.N,ADC1_20_DOUT*%
X-4828871Y4033683D02*
X-4828871Y3212224D01*
%TO.N,ADC1_19_SCLK*%
X-5158925Y2881599D02*
X-5158925Y1948713D01*
%TO.N,ADC1_20_DOUT*%
X-4709424Y3092777D02*
X-4709424Y1981176D01*
X-4423725Y1695477D02*
X-4423725Y1576521D01*
%TO.N,ADC1_19_SCLK*%
X-5278372Y4291288D02*
X-5278372Y3001046D01*
X-5278372Y3001046D02*
X-5158925Y2881599D01*
%TO.N,ADC1_20_DOUT*%
X-4709424Y1981176D02*
X-4423725Y1695477D01*
X-4828871Y3212224D02*
X-4709424Y3092777D01*
X-4154713Y4707841D02*
X-4828871Y4033683D01*
%TO.N,RADIO_8_GPIO9*%
X-7094176Y-8094318D02*
X-8586106Y-6602388D01*
%TO.N,3V3_2_GND*%
X-6858000Y-5164766D02*
X-7861606Y-6168372D01*
X-7789234Y-6096000D02*
X-7861606Y-6168372D01*
X-7618000Y-6096000D02*
X-7789234Y-6096000D01*
%TO.N,ADC1_19_SCLK*%
X-4508266Y5061394D02*
X-5278372Y4291288D01*
%TO.N,ADC1_02_AIN2N*%
X-6223000Y-233460D02*
X-6471641Y15181D01*
%TO.N,ADC1_19_SCLK*%
X-5158925Y1948713D02*
X-5416652Y1690986D01*
%TO.N,RADIO_8_GPIO9*%
X-7094176Y-8349024D02*
X-7094176Y-8094318D01*
%TO.N,3V3_2_GND*%
X-6858000Y-4828000D02*
X-6858000Y-5164766D01*
%TO.N,RADIO_8_GPIO9*%
X-6841811Y-8601389D02*
X-7094176Y-8349024D01*
X-8586106Y-6602388D02*
X-8586106Y-4832753D01*
D47*
%TO.N,/vref2/1_FILTER*%
X13597996Y-10100419D02*
X13219911Y-10100419D01*
X13219911Y-10100419D02*
X12838400Y-9718908D01*
X15189200Y-10947400D02*
X14444977Y-10947400D01*
X14444977Y-10947400D02*
X13597996Y-10100419D01*
%TO.N,3V3_2_GND*%
X12135314Y-10936687D02*
X13040918Y-10936687D01*
X13040918Y-10936687D02*
X13087996Y-10983765D01*
X12135314Y-10936687D02*
X12135314Y-10773378D01*
X12135314Y-10773378D02*
X12358400Y-10550292D01*
D48*
%TO.N,3V3_1_IN*%
X15494500Y-7557422D02*
X15494500Y-6859409D01*
X15494500Y-6859409D02*
X14791079Y-6155988D01*
X14791079Y-6155988D02*
X14599318Y-6155988D01*
X16192104Y-8255026D02*
X15494500Y-7557422D01*
D46*
%TO.N,3V3_2_GND*%
X12358400Y-10550292D02*
X12654523Y-10550292D01*
X12654523Y-10550292D02*
X13087996Y-10983765D01*
X-889000Y790000D02*
X-285001Y186001D01*
X-1352342Y-1053678D02*
X-784405Y-1621615D01*
X-285001Y186001D02*
X-285001Y-337089D01*
X-77297Y-1281235D02*
X-77297Y-544793D01*
%TO.N,ACC_5_VDDIO*%
X-998788Y-700124D02*
X-1251473Y-447439D01*
%TO.N,3V3_2_GND*%
X-335801Y-286289D02*
X-285001Y-337089D01*
X-417677Y-1621615D02*
X-77297Y-1281235D01*
X-784405Y-1621615D02*
X-417677Y-1621615D01*
X-335801Y605723D02*
X-335801Y-286289D01*
%TO.N,ACC_5_VDDIO*%
X-1251473Y-447439D02*
X-1251473Y-82260D01*
%TO.N,3V3_2_GND*%
X-77297Y-544793D02*
X-285001Y-337089D01*
D48*
%TO.N,ADC1_15_AVDD*%
X13263789Y-6237197D02*
X14037867Y-7011275D01*
X14221896Y-7117526D02*
X14144118Y-7117526D01*
X12121867Y-6237197D02*
X13263789Y-6237197D01*
X14144118Y-7117526D02*
X14037867Y-7011275D01*
X11817500Y-5932830D02*
X12121867Y-6237197D01*
%TO.N,3V3_2_GND*%
X17127730Y-10820400D02*
X18694400Y-10820400D01*
X17011500Y-10704170D02*
X17127730Y-10820400D01*
%TO.N,3V3_1_IN*%
X-15362333Y-9900474D02*
X-15242104Y-9900474D01*
X-13987908Y-10303090D02*
X-14165391Y-10303090D01*
X-4572000Y8448000D02*
X-4504000Y8448000D01*
X-15964500Y-6705600D02*
X-15964500Y-8027422D01*
X17493965Y-9361830D02*
X17786500Y-9361830D01*
D47*
X15984795Y-8047717D02*
X15081562Y-8047717D01*
D48*
X-4504000Y8448000D02*
X-2300000Y6244000D01*
X-14568007Y-9900474D02*
X-15242104Y-9900474D01*
D46*
X-4572000Y8448000D02*
X-4407721Y8448000D01*
X-16192104Y-8255026D02*
X-16118936Y-8181858D01*
D47*
X15081562Y-8047717D02*
X14554387Y-8574892D01*
X16192104Y-8255026D02*
X15984795Y-8047717D01*
D46*
X-2300000Y6340279D02*
X-3167720Y7207999D01*
D48*
X-14165391Y-10303090D02*
X-14568007Y-9900474D01*
X16397008Y-8459930D02*
X16858514Y-8726379D01*
X16858514Y-8726379D02*
X17493965Y-9361830D01*
X-17011500Y-10704170D02*
X-16166029Y-10704170D01*
D46*
X-2300000Y5994000D02*
X-2300000Y6340279D01*
D48*
X-2300000Y6244000D02*
X-2300000Y5994000D01*
D46*
X-4407721Y8448000D02*
X-3167720Y7207999D01*
D47*
X14554387Y-8574892D02*
X14554387Y-9212757D01*
D48*
X-16166029Y-10704170D02*
X-15362333Y-9900474D01*
D47*
X14554387Y-9212757D02*
X15242104Y-9900474D01*
D48*
X-15964500Y-8027422D02*
X-16192104Y-8255026D01*
X16192104Y-8255026D02*
X16397008Y-8459930D01*
D46*
%TO.N,ADC1_15_AVDD*%
X-5911000Y9273000D02*
X-3858827Y9273000D01*
X-6103609Y9088000D02*
X-6096000Y9088000D01*
X2150549Y348043D02*
X1523500Y975092D01*
X939800Y4061400D02*
X947409Y4061400D01*
X1515865Y2608256D02*
X1676400Y2768791D01*
X1523500Y975092D02*
X1523500Y2130316D01*
X1171000Y4061400D02*
X1041400Y4061400D01*
X-7866567Y6738433D02*
X-7866567Y6899598D01*
X3766639Y1597406D02*
X7210756Y1597406D01*
X1523500Y2130316D02*
X1515865Y2137951D01*
X-6847998Y8263622D02*
X-6847998Y8343611D01*
D47*
X13215240Y-6110870D02*
X14221896Y-7117526D01*
D46*
X-7442165Y7324000D02*
X-7289609Y7324000D01*
X1676400Y3556000D02*
X1171000Y4061400D01*
X-7584181Y5414948D02*
X-8160957Y5991724D01*
X-8160957Y6444043D02*
X-7866567Y6738433D01*
X7210756Y1597406D02*
X7342072Y1466090D01*
X-6096000Y9088000D02*
X-5911000Y9273000D01*
X3094052Y924819D02*
X3766639Y1597406D01*
X-3858827Y9273000D02*
X-2459827Y7874000D01*
X861000Y4036000D02*
X889000Y4036000D01*
X-8160957Y5991724D02*
X-8160957Y6444043D01*
X-7289609Y7324000D02*
X-7289609Y7822011D01*
X-2459827Y7874000D02*
X-2286000Y7874000D01*
X3094052Y924819D02*
X2517276Y348043D01*
X2517276Y348043D02*
X2150549Y348043D01*
X-989201Y9170799D02*
X57669Y9170799D01*
X-2286000Y7874000D02*
X-989201Y9170799D01*
D47*
X11995540Y-6110870D02*
X13215240Y-6110870D01*
X11817500Y-5932830D02*
X11995540Y-6110870D01*
D46*
X-7289609Y7822011D02*
X-6847998Y8263622D01*
X-7866567Y6899598D02*
X-7442165Y7324000D01*
X-6847998Y8343611D02*
X-6103609Y9088000D01*
X1515865Y2137951D02*
X1515865Y2608256D01*
X896609Y4008000D02*
X889000Y4008000D01*
X1676400Y2768791D02*
X1676400Y3556000D01*
%TO.N,ADC1_26_DVDD*%
X7407408Y7112000D02*
X8160957Y6358451D01*
X-2744297Y2208703D02*
X-2146300Y2806700D01*
X-889000Y1750000D02*
X-1945700Y2806700D01*
X7584181Y5414948D02*
X6716707Y4547474D01*
X-3094052Y924819D02*
X-3670552Y1501319D01*
D48*
X-13271896Y-8762974D02*
X-13259919Y-8762974D01*
X-13259919Y-8762974D02*
X-12368202Y-9654691D01*
D46*
X6716707Y4547474D02*
X6716707Y3884418D01*
X-1945700Y2806700D02*
X-2146300Y2806700D01*
D48*
X-12530304Y-8762974D02*
X-11042500Y-7275170D01*
D46*
X-3330289Y2208703D02*
X-2744297Y2208703D01*
X8160957Y6358451D02*
X8160957Y5991724D01*
X-3670552Y1868440D02*
X-3330289Y2208703D01*
D48*
X-13271896Y-8762974D02*
X-12530304Y-8762974D01*
D46*
X8160957Y5991724D02*
X7584181Y5414948D01*
X6957000Y7112000D02*
X7407408Y7112000D01*
X-3670552Y1501319D02*
X-3670552Y1868440D01*
%TO.N,/ADC2/24_CAP*%
X4219000Y6764874D02*
X5215373Y5768501D01*
X4219000Y7112000D02*
X4219000Y6764874D01*
%TO.N,ADC1_14_REFIN*%
X-7360958Y4484618D02*
X-6994230Y4484618D01*
X-6300297Y6039094D02*
X-5108000Y7231391D01*
X2774882Y-101458D02*
X3447606Y571266D01*
X3447606Y571266D02*
X4024169Y1147829D01*
X-4253068Y6384068D02*
X-3844068Y6384068D01*
X-6994230Y4484618D02*
X-6300297Y5178551D01*
X-7937734Y5061394D02*
X-7360958Y4484618D01*
X889000Y973902D02*
X1964360Y-101458D01*
X-6300297Y5178551D02*
X-6300297Y6039094D01*
X5958222Y1147829D02*
X6631839Y474212D01*
X-5108000Y7231391D02*
X-5108000Y7239000D01*
X-5108000Y7239000D02*
X-4253068Y6384068D01*
X4024169Y1147829D02*
X5958222Y1147829D01*
X1964360Y-101458D02*
X2774882Y-101458D01*
%TO.N,/ADC1/24_CAP*%
X-1311202Y3613798D02*
X-889000Y4036000D01*
X-2740499Y3293627D02*
X-2420328Y3613798D01*
X-2420328Y3613798D02*
X-1311202Y3613798D01*
%TO.N,CRYSTAL_3_OUT*%
X-625000Y16515000D02*
X-625000Y15355000D01*
X-625000Y15355000D02*
X-510000Y15240000D01*
%TO.N,ACC_5_VDDIO*%
X6054411Y-4136411D02*
X6731000Y-4813000D01*
X-430851Y-9907939D02*
X-430851Y-9541211D01*
X998788Y-10475876D02*
X1566725Y-11043813D01*
X-4761880Y-8215386D02*
X-5091633Y-7885633D01*
X1566725Y-11043813D02*
X2317537Y-11043813D01*
X480000Y-10994664D02*
X998788Y-10475876D01*
X-1905000Y254000D02*
X-1905000Y206088D01*
X-1905000Y206088D02*
X-998788Y-700124D01*
X-806128Y-9165934D02*
X-806128Y-8764200D01*
X5667088Y-3810000D02*
X4887876Y-4589212D01*
X6054411Y-3810000D02*
X6054411Y-4136411D01*
X-4395152Y-8215386D02*
X-3827215Y-7647449D01*
X-6401266Y-6576000D02*
X-6298133Y-6679133D01*
X-4761880Y-8215386D02*
X-4395152Y-8215386D01*
X6054411Y-3810000D02*
X5667088Y-3810000D01*
X-998788Y-10475876D02*
X-430851Y-9907939D01*
X-5091633Y-7885633D02*
X-6298133Y-6679133D01*
X-6985000Y-6576000D02*
X-6401266Y-6576000D01*
X480000Y-11049000D02*
X480000Y-10994664D01*
X2317537Y-11043813D02*
X2844046Y-10517304D01*
X-430851Y-9541211D02*
X-806128Y-9165934D01*
%TO.N,ADC2_01_AIN2P*%
X3968489Y11985522D02*
X4603489Y12620522D01*
X3503637Y11985522D02*
X3968489Y11985522D01*
X10349900Y1922772D02*
X10349900Y2474505D01*
X9705501Y1278373D02*
X10349900Y1922772D01*
%TO.N,ADC2_04_AIN3P*%
X12133111Y-2961165D02*
X10783675Y-2961165D01*
X9317565Y-1495055D02*
X9317565Y-455011D01*
X9317565Y-455011D02*
X8644841Y217713D01*
X13232963Y-2326165D02*
X12768111Y-2326165D01*
X12768111Y-2326165D02*
X12133111Y-2961165D01*
X10783675Y-2961165D02*
X9317565Y-1495055D01*
%TO.N,ADC2_05_AIN4P*%
X13403111Y-5160870D02*
X12030427Y-5160870D01*
X8868064Y-712618D02*
X8291287Y-135841D01*
X12030427Y-5160870D02*
X8868064Y-1998507D01*
X14502963Y-4525870D02*
X14038111Y-4525870D01*
X8868064Y-1998507D02*
X8868064Y-712618D01*
X14038111Y-4525870D02*
X13403111Y-5160870D01*
%TO.N,ADC2_08_AIN5P*%
X11167948Y-9027000D02*
X11167948Y-10297000D01*
X9017000Y-2982874D02*
X7230627Y-1196501D01*
X11167948Y-9008948D02*
X9017000Y-6858000D01*
X11167948Y-9027000D02*
X11167948Y-9008948D01*
X9017000Y-6858000D02*
X9017000Y-2982874D01*
%TO.N,ADC2_09_AIN6P*%
X9897948Y-9027000D02*
X8567499Y-7696551D01*
X8567499Y-4548627D02*
X5215373Y-1196501D01*
X9897948Y-10297000D02*
X9897948Y-9027000D01*
X8567499Y-7696551D02*
X8567499Y-4548627D01*
%TO.N,ADC2_12_AIN7P*%
X4625423Y-2126831D02*
X3577936Y-1079344D01*
X5297648Y-2126831D02*
X4625423Y-2126831D01*
X3577936Y-1079344D02*
X3577936Y-712618D01*
X8117998Y-4947181D02*
X5297648Y-2126831D01*
X8627948Y-9027000D02*
X8117998Y-8517050D01*
X8117998Y-8517050D02*
X8117998Y-4947181D01*
X3577936Y-712618D02*
X4154713Y-135841D01*
X8627948Y-9027000D02*
X8627948Y-10297000D01*
%TO.N,ADC2_17_CS*%
X2740499Y3293627D02*
X2740499Y2994499D01*
X372204Y-1467424D02*
X-565609Y-2405237D01*
X2740499Y2994499D02*
X2641600Y2895600D01*
X372204Y-1326708D02*
X372204Y-1467424D01*
X998788Y-700124D02*
X372204Y-1326708D01*
X-565609Y-2405237D02*
X-812967Y-2405237D01*
%TO.N,ADC2_29_AIN0P*%
X3765898Y11080071D02*
X2873887Y11080071D01*
X8610957Y6582906D02*
X5622000Y9571863D01*
X2233637Y14185227D02*
X2698489Y14185227D01*
X5622000Y9571863D02*
X5622000Y10888000D01*
X8610957Y5908451D02*
X8610957Y6582906D01*
X2698489Y14185227D02*
X3333489Y14820227D01*
X5622000Y10888000D02*
X5275501Y11234499D01*
X9221617Y5297791D02*
X8610957Y5908451D01*
X5275501Y11234499D02*
X3920326Y11234499D01*
X3920326Y11234499D02*
X3765898Y11080071D01*
X9221617Y4931063D02*
X9221617Y5297791D01*
X8644841Y4354287D02*
X9221617Y4931063D01*
%TO.N,ADC2_32_AIN1P*%
X10282278Y4703722D02*
X9671118Y5314882D01*
X9671118Y5314882D02*
X9671118Y5823572D01*
X6672501Y9157052D02*
X6672501Y10473895D01*
X9060458Y6769095D02*
X6672501Y9157052D01*
X4675595Y13720375D02*
X3968489Y13720375D01*
X3333489Y13085375D02*
X3968489Y13720375D01*
X5461897Y11684499D02*
X5461897Y12934073D01*
X2868637Y13085375D02*
X3333489Y13085375D01*
X10282278Y3870404D02*
X10282278Y4703722D01*
X5461897Y12934073D02*
X4675595Y13720375D01*
X9671118Y5823572D02*
X9060458Y6434232D01*
X6672501Y10473895D02*
X5461897Y11684499D01*
X9705501Y3293627D02*
X10282278Y3870404D01*
X9060458Y6434232D02*
X9060458Y6769095D01*
%TO.N,ADC1_01_AIN2P*%
X-14036586Y-4523225D02*
X-13401586Y-5158225D01*
X-12025846Y-5158225D02*
X-11375495Y-4507874D01*
X-14501438Y-4523225D02*
X-14036586Y-4523225D01*
X-13401586Y-5158225D02*
X-12025846Y-5158225D01*
X-11375495Y-4507874D02*
X-10803852Y-4507874D01*
X-8376475Y-2080497D02*
X-8114623Y-2080497D01*
X-8114623Y-2080497D02*
X-7230627Y-1196501D01*
X-10803852Y-4507874D02*
X-8376475Y-2080497D01*
%TO.N,ADC1_02_AIN2N*%
X7360957Y87383D02*
X7360957Y454109D01*
X9767565Y-197905D02*
X9767565Y-1309365D01*
X11605579Y-1838673D02*
X12344400Y-1099852D01*
X4508266Y-489394D02*
X4508266Y-489395D01*
X-7360957Y87383D02*
X-7360957Y454109D01*
X5740400Y-266171D02*
X7007404Y-266171D01*
X-8421617Y1148043D02*
X-8998394Y571266D01*
X7584181Y-842947D02*
X7937734Y-489394D01*
X8054891Y1148043D02*
X8421617Y1148043D01*
X-8775171Y1501596D02*
X-8775171Y3070404D01*
X-7360957Y454109D02*
X-8054891Y1148043D01*
X4508266Y-489395D02*
X4861819Y-842948D01*
X4861819Y-842948D02*
X5438596Y-266171D01*
X10973800Y-1838673D02*
X11605579Y-1838673D01*
X-8054891Y1148043D02*
X-8421617Y1148043D01*
X8775171Y3070404D02*
X9351948Y3647181D01*
X-8775171Y3070404D02*
X-9351948Y3647181D01*
X8998394Y571266D02*
X8998395Y571266D01*
X8775171Y2286000D02*
X8775171Y3070404D01*
X8998394Y571266D02*
X9767565Y-197905D01*
X-7007404Y-266171D02*
X-7584181Y-842948D01*
X10296873Y-1838673D02*
X10973800Y-1838673D01*
X7007404Y-266171D02*
X7584181Y-842948D01*
X8421617Y1148043D02*
X8998394Y571266D01*
X-9351948Y3647181D02*
X-9351947Y3647181D01*
X9351948Y3647181D02*
X9351947Y3647181D01*
X-4861819Y-842948D02*
X-5438596Y-266171D01*
X7584181Y-842948D02*
X7584181Y-842947D01*
X-7584181Y-842948D02*
X-7584181Y-842947D01*
X-8775171Y1501596D02*
X-8775171Y1868323D01*
X5423429Y50800D02*
X5334000Y50800D01*
X8775171Y1501596D02*
X8775171Y2286000D01*
X5740400Y-266171D02*
X5423429Y50800D01*
X-4508266Y-489395D02*
X-4861819Y-842948D01*
X-8998394Y571266D02*
X-8998395Y571266D01*
X9767565Y-1309365D02*
X10296873Y-1838673D01*
X8998395Y571266D02*
X9351948Y924819D01*
X-4508266Y-489394D02*
X-4508266Y-489395D01*
X-5438596Y-266171D02*
X-6223000Y-266171D01*
X-8998395Y571266D02*
X-9351948Y924819D01*
X5438596Y-266171D02*
X5740400Y-266171D01*
X7360957Y454109D02*
X8054891Y1148043D01*
X9351947Y3647181D02*
X8998394Y4000734D01*
X-6223000Y-266171D02*
X-7007404Y-266171D01*
X-7584181Y-842947D02*
X-7937734Y-489394D01*
X-7937734Y-489394D02*
X-7360957Y87383D01*
X9351948Y924819D02*
X8775171Y1501596D01*
X-9351947Y3647181D02*
X-8998394Y4000734D01*
X-9351948Y924819D02*
X-8775171Y1501596D01*
X7937734Y-489394D02*
X7360957Y87383D01*
%TO.N,ADC1_04_AIN3P*%
X-12766586Y-4058373D02*
X-13231438Y-4058373D01*
X-11428316Y-4058373D02*
X-8890000Y-1520057D01*
X-8890000Y-1520057D02*
X-8890000Y-734554D01*
X-13231438Y-4058373D02*
X-13866438Y-3423373D01*
X-12766586Y-4058373D02*
X-11428316Y-4058373D01*
X-8890000Y-734554D02*
X-8291287Y-135841D01*
%TO.N,ADC1_05_AIN4P*%
X-13231438Y-2323520D02*
X-12766586Y-2323520D01*
X-9340000Y-1333661D02*
X-9340000Y-477446D01*
X-9340000Y-477446D02*
X-8644841Y217713D01*
X-10964859Y-2958520D02*
X-9340000Y-1333661D01*
X-12766586Y-2323520D02*
X-12131586Y-2958520D01*
X-12131586Y-2958520D02*
X-10964859Y-2958520D01*
%TO.N,ADC1_08_AIN5P*%
X-3502112Y11988167D02*
X-3966964Y11988167D01*
X-3502112Y11988167D02*
X-3502112Y11864888D01*
X-9705501Y1736542D02*
X-10622859Y2653900D01*
X-3966964Y11988167D02*
X-4601964Y12623167D01*
X-9705501Y1278373D02*
X-9705501Y1736542D01*
%TO.N,ADC1_09_AIN6P*%
X-4674070Y13723019D02*
X-5470864Y12926225D01*
X-3331964Y13088019D02*
X-3966964Y13723019D01*
X-8461002Y7719987D02*
X-8461002Y7576543D01*
X-9059959Y6822265D02*
X-9059959Y6434025D01*
X-4156964Y15164599D02*
X-4156964Y13913019D01*
X-2525385Y15647872D02*
X-3673691Y15647872D01*
X-11347859Y1366481D02*
X-11347859Y2954205D01*
X-10911724Y3390340D02*
X-9802214Y3390340D01*
X-11347859Y2954205D02*
X-10911724Y3390340D01*
X-7366499Y9727364D02*
X-7366499Y9143501D01*
X-9671118Y5314882D02*
X-10282278Y4703722D01*
X-8196501Y7984488D02*
X-8461002Y7719987D01*
X-5470864Y12926225D02*
X-5470864Y11623000D01*
X-4156964Y13913019D02*
X-3966964Y13723019D01*
X-8461002Y7576543D02*
X-8765569Y7271976D01*
X-8765569Y7271976D02*
X-8765569Y7116655D01*
X-10282278Y4703722D02*
X-10282278Y3870404D01*
X-3966964Y13723019D02*
X-4674070Y13723019D01*
X-9802214Y3390340D02*
X-9705501Y3293627D01*
X-11076900Y1095522D02*
X-11347859Y1366481D01*
X1219200Y14605000D02*
X-1482513Y14605000D01*
X-2867112Y13088019D02*
X-3331964Y13088019D01*
X-8196501Y8313499D02*
X-8196501Y7984488D01*
X-7366499Y9143501D02*
X-8196501Y8313499D01*
X-5470864Y11623000D02*
X-7366499Y9727364D01*
X-3673691Y15647872D02*
X-4156964Y15164599D01*
X-9059959Y6434025D02*
X-9671118Y5822866D01*
X-9671118Y5822866D02*
X-9671118Y5314882D01*
X-10282278Y3870404D02*
X-9705501Y3293627D01*
X-1482513Y14605000D02*
X-2525385Y15647872D01*
X-8765569Y7116655D02*
X-9059959Y6822265D01*
X2463800Y15849600D02*
X1219200Y14605000D01*
%TO.N,ADC1_12_AIN7P*%
X-8610458Y6247836D02*
X-8610458Y6636076D01*
X-9221617Y5636677D02*
X-8610458Y6247836D01*
X-2232112Y14187872D02*
X-2696964Y14187872D01*
X-3858827Y11173000D02*
X-3303027Y10617200D01*
X-5285173Y11173000D02*
X-3858827Y11173000D01*
X-8316068Y6930466D02*
X-8316068Y7085787D01*
X-2696964Y14187872D02*
X-3331964Y14822872D01*
X-7747000Y7654855D02*
X-7747000Y8127310D01*
X-9221617Y4931063D02*
X-9221617Y5636677D01*
X-6916499Y9541674D02*
X-5285173Y11173000D01*
X-7747000Y8127310D02*
X-6916499Y8957811D01*
X-3303027Y10617200D02*
X-3149600Y10617200D01*
X-8316068Y7085787D02*
X-7747000Y7654855D01*
X-8610458Y6636076D02*
X-8316068Y6930466D01*
X-6916499Y8957811D02*
X-6916499Y9541674D01*
X-2014240Y13970000D02*
X-2232112Y14187872D01*
X-8644841Y4354287D02*
X-9221617Y4931063D01*
%TO.N,ADC1_16_SYNC{slash}RESET*%
X2740499Y1526701D02*
X2667000Y1600200D01*
X2740499Y1278373D02*
X2740499Y1526701D01*
X1470000Y18230000D02*
X1470000Y19880000D01*
X-7230627Y6510940D02*
X-7142067Y6599500D01*
X645000Y17785000D02*
X1025000Y17785000D01*
X1025000Y17785000D02*
X1470000Y18230000D01*
X-7230627Y5768501D02*
X-7230627Y6510940D01*
X776000Y20574000D02*
X528000Y20574000D01*
X1470000Y19880000D02*
X776000Y20574000D01*
%TO.N,ADC1_17_CS*%
X-4534322Y-4235658D02*
X-3966721Y-4803259D01*
X-6641500Y1918507D02*
X-6500993Y1778000D01*
X-3966721Y-4803259D02*
X-3966721Y-5576033D01*
X-6641500Y4201658D02*
X-6641500Y1918507D01*
X-5850796Y5133078D02*
X-5850796Y4992362D01*
X-3966721Y-5576033D02*
X-3986395Y-5595707D01*
X-5850796Y4992362D02*
X-6641500Y4201658D01*
X-5215373Y5768501D02*
X-5850796Y5133078D01*
%TO.N,ADC1_18_DRDY*%
X-2766555Y-2467891D02*
X-2118547Y-3115899D01*
X-4861819Y5414948D02*
X-5401295Y4875472D01*
X-5401295Y4806173D02*
X-5883425Y4324043D01*
X-5883425Y4324043D02*
X-5883425Y2581501D01*
X-2118547Y-3115899D02*
X-1515793Y-3115899D01*
X-5401295Y4875472D02*
X-5401295Y4806173D01*
%TO.N,ADC1_19_SCLK*%
X-4180769Y-3882105D02*
X-3517220Y-4545654D01*
X-3258436Y-5296948D02*
X-3258436Y-6142803D01*
X-3517220Y-4545654D02*
X-3517220Y-5038164D01*
X-3258436Y-6142803D02*
X-3196554Y-6204685D01*
X-3517220Y-5038164D02*
X-3258436Y-5296948D01*
%TO.N,ADC1_23_XTAL1{slash}CLKIN*%
X2413002Y-2114338D02*
X1694334Y-2833006D01*
X-2402935Y4338298D02*
X-1792100Y4338298D01*
X1652670Y-4809548D02*
X1626915Y-4835303D01*
X3649502Y6107631D02*
X4169136Y6107631D01*
X1694334Y-2833006D02*
X1694334Y-3799464D01*
X1652670Y-3841128D02*
X1652670Y-4809548D01*
X-3094052Y3647181D02*
X-2402935Y4338298D01*
X4169136Y6107631D02*
X4861819Y5414948D01*
X1694334Y-3799464D02*
X1652670Y-3841128D01*
%TO.N,ADC1_29_AIN0P*%
X-9468599Y-5000113D02*
X-9468599Y-5131273D01*
X-9403903Y-5195969D02*
X-9403903Y-7504097D01*
X-8631000Y-8277000D02*
X-8631000Y-9027000D01*
X-9403903Y-7504097D02*
X-8631000Y-8277000D01*
X-8004097Y-2979499D02*
X-9618901Y-4594303D01*
X-5416455Y-2979499D02*
X-8004097Y-2979499D01*
X-3577936Y-1140980D02*
X-5416455Y-2979499D01*
X-9468599Y-5131273D02*
X-9403903Y-5195969D01*
X-4154713Y-135841D02*
X-3577936Y-712618D01*
X-3577936Y-712618D02*
X-3577936Y-1140980D01*
X-8631000Y-9027000D02*
X-8631000Y-10297000D01*
X-9618901Y-4594303D02*
X-9618901Y-4849811D01*
X-9618901Y-4849811D02*
X-9468599Y-5000113D01*
%TO.N,ADC1_32_AIN1P*%
X-9918100Y-5186302D02*
X-10123271Y-4981131D01*
X-6548870Y-2529998D02*
X-5215373Y-1196501D01*
X-9918100Y-5317462D02*
X-9918100Y-5186302D01*
X-11171000Y-9027000D02*
X-9853404Y-7709404D01*
X-8190286Y-2529998D02*
X-6548870Y-2529998D01*
X-10123271Y-4462983D02*
X-8190286Y-2529998D01*
X-9853404Y-7709404D02*
X-9853404Y-5382158D01*
X-11171000Y-9027000D02*
X-11171000Y-10297000D01*
X-9853404Y-5382158D02*
X-9918100Y-5317462D01*
X-10123271Y-4981131D02*
X-10123271Y-4462983D01*
%TO.N,3V3_2_GND*%
X-889000Y2810802D02*
X-889000Y3076000D01*
X-77297Y-10190075D02*
X-77297Y-10646297D01*
X4478314Y10079859D02*
X2815280Y10079859D01*
D48*
X12274293Y-7212197D02*
X11105473Y-7212197D01*
D46*
X-889000Y790000D02*
X-881391Y790000D01*
X6196679Y6912321D02*
X5997000Y7112000D01*
D47*
X-17786500Y-9361830D02*
X-16001184Y-9361830D01*
D46*
X7691524Y4108078D02*
X7691524Y3830611D01*
D48*
X11105473Y-7212197D02*
X11042500Y-7275170D01*
X17011500Y-10704170D02*
X17011500Y-10222867D01*
D46*
X-889000Y790000D02*
X-78609Y790000D01*
X5375589Y-3131178D02*
X5375589Y-3394391D01*
X6196679Y4482320D02*
X6196679Y6912321D01*
X-4807368Y-9386346D02*
X-5419411Y-9998389D01*
X12243320Y-7107456D02*
X12274293Y-7138429D01*
X-6223000Y7239000D02*
X-6396854Y7412854D01*
X5625033Y-7898285D02*
X5625033Y-7352233D01*
X-6096000Y7267000D02*
X-6068000Y7239000D01*
X3966385Y-5170323D02*
X3966385Y-4803595D01*
X-6068000Y7239000D02*
X-6223000Y7239000D01*
X18650Y-9953412D02*
X18650Y-10094128D01*
D48*
X-17786500Y-9361830D02*
X-17779243Y-9369087D01*
D46*
X6688835Y-6363000D02*
X6156471Y-5830636D01*
X4306765Y-5510703D02*
X3966385Y-5170323D01*
X-254000Y2175802D02*
X-889000Y2810802D01*
X5997000Y7002128D02*
X5997000Y7112000D01*
X-78609Y790000D02*
X881391Y1750000D01*
X3127936Y-455510D02*
X3127936Y-1265740D01*
X889000Y2560391D02*
X889000Y3048000D01*
X-6137589Y-9280211D02*
X-5419411Y-9998389D01*
X-1352342Y-1053678D02*
X-1981198Y-424822D01*
X417677Y-9434677D02*
X254000Y-9271000D01*
D48*
X4572000Y10348000D02*
X4303859Y10079859D01*
D46*
X3966385Y-4803595D02*
X4534322Y-4235658D01*
D48*
X-17017009Y-7590398D02*
X-17325831Y-7899220D01*
D47*
X17011500Y-10372146D02*
X15717104Y-9077750D01*
D48*
X17011500Y-10222867D02*
X16400270Y-9611637D01*
D46*
X1352342Y-10122322D02*
X784405Y-9554385D01*
X-4703049Y-9386346D02*
X-6056854Y-9386346D01*
X7691524Y3830611D02*
X7020831Y3159918D01*
X-6056854Y-9386346D02*
X-6162989Y-9280211D01*
X3801159Y217713D02*
X3127936Y-455510D01*
X-12346900Y-1104183D02*
X-11682890Y-1104183D01*
X-77297Y-10646297D02*
X-480000Y-11049000D01*
X3127936Y-1265740D02*
X4993374Y-3131178D01*
X6075624Y-9113576D02*
X6075624Y-8348876D01*
X-2073773Y1278373D02*
X-2740499Y1278373D01*
D48*
X-11817500Y-5932830D02*
X-10828478Y-5932830D01*
X4303859Y10079859D02*
X2815280Y10079859D01*
X2006600Y5700600D02*
X2006600Y4551933D01*
D46*
X-1981198Y-424822D02*
X-2583822Y-424822D01*
D47*
X-16001184Y-9361830D02*
X-15717104Y-9077750D01*
D48*
X2300000Y5994000D02*
X2006600Y5700600D01*
D46*
X-1585400Y790000D02*
X-2073773Y1278373D01*
X6075624Y-8348876D02*
X5625033Y-7898285D01*
X5991880Y3641213D02*
X5991880Y4241409D01*
X-254000Y1417391D02*
X-254000Y2175802D01*
X5989439Y4275080D02*
X6196679Y4482320D01*
X5997000Y7112000D02*
X5997000Y8561173D01*
X-7402127Y3818681D02*
X-7402127Y3747685D01*
D47*
X17011500Y-10704170D02*
X17011500Y-10372146D01*
D46*
X5997000Y7112000D02*
X5179000Y7112000D01*
D48*
X-10828478Y-5932830D02*
X-10577904Y-5682256D01*
D46*
X417677Y-9554385D02*
X417677Y-9434677D01*
X5625033Y-7352233D02*
X6156471Y-6820795D01*
X-889000Y790000D02*
X-1585400Y790000D01*
D48*
X-17325831Y-7899220D02*
X-17786500Y-8697122D01*
D46*
X-4572000Y10348000D02*
X-4281452Y10348000D01*
X-4703049Y-9386346D02*
X-4807368Y-9386346D01*
X-4281452Y10348000D02*
X-3943752Y10010300D01*
X784405Y-9554385D02*
X417677Y-9554385D01*
X-881391Y790000D02*
X-254000Y1417391D01*
X-11682890Y-1104183D02*
X-10897600Y-1889473D01*
D48*
X-17017009Y-7454768D02*
X-17017009Y-7590398D01*
D46*
X5878703Y-5510703D02*
X4306765Y-5510703D01*
D48*
X-17786500Y-8697122D02*
X-17786500Y-9361830D01*
D46*
X-6162989Y-9280211D02*
X-6137589Y-9280211D01*
X-6096000Y8128000D02*
X-6096000Y7267000D01*
X5375589Y-3394391D02*
X4534322Y-4235658D01*
X12274293Y-7138429D02*
X12274293Y-7212197D01*
X6416609Y3159918D02*
X5992207Y3584320D01*
X5997000Y8561173D02*
X4478314Y10079859D01*
X7020831Y3159918D02*
X6416609Y3159918D01*
X18650Y-10094128D02*
X-77297Y-10190075D01*
X-3158624Y-424822D02*
X-3801159Y217713D01*
X7230627Y5768501D02*
X5997000Y7002128D01*
X5991880Y4241409D02*
X5989439Y4243850D01*
X6731000Y-6363000D02*
X6688835Y-6363000D01*
X-3473662Y-8001002D02*
X-4512918Y-9040258D01*
X-2583822Y-424822D02*
X-3158624Y-424822D01*
X417677Y-9554385D02*
X18650Y-9953412D01*
X881391Y1750000D02*
X889000Y1750000D01*
D48*
X-17779243Y-9369087D02*
X-16174449Y-9369087D01*
D46*
X6731000Y-6363000D02*
X5878703Y-5510703D01*
X5992207Y3640886D02*
X5991880Y3641213D01*
X6156471Y-6820795D02*
X6156471Y-5830636D01*
X5992207Y3584320D02*
X5992207Y3640886D01*
X4993374Y-3131178D02*
X5375589Y-3131178D01*
X5989439Y4243850D02*
X5989439Y4275080D01*
X8291287Y4707841D02*
X7691524Y4108078D01*
X-881391Y790000D02*
X889000Y2560391D01*
X-8291287Y4707841D02*
X-7402127Y3818681D01*
%TO.N,3V3_5_OUT*%
X952855Y4940900D02*
X952855Y5041145D01*
X0Y10888756D02*
X1231670Y9657086D01*
X1085804Y7079804D02*
X0Y5994000D01*
D48*
X4440441Y8579559D02*
X1480271Y8579559D01*
D46*
X1231670Y9657086D02*
X1231670Y8684512D01*
D48*
X4572000Y8448000D02*
X4440441Y8579559D01*
D46*
X0Y5994000D02*
X717567Y5276433D01*
X0Y5994000D02*
X0Y5980069D01*
X0Y12294000D02*
X0Y10888756D01*
X0Y12294000D02*
X452000Y12746000D01*
D48*
X1480271Y8579559D02*
X886392Y7985680D01*
D46*
X1231670Y8684512D02*
X1085804Y8538646D01*
X1085804Y8538646D02*
X1085804Y7079804D01*
X952855Y5041145D02*
X0Y5994000D01*
D48*
X886392Y6880392D02*
X0Y5994000D01*
X886392Y7985680D02*
X886392Y6880392D01*
D46*
%TO.N,MCU_7_NRST*%
X-4740589Y-10677211D02*
X-4740589Y-10448484D01*
X-624999Y-7471002D02*
X-2236556Y-7471002D01*
X-2236556Y-7471002D02*
X-3120109Y-8354555D01*
X-3886200Y-9594095D02*
X-3886200Y-9120646D01*
X-4740589Y-10448484D02*
X-3886200Y-9594095D01*
X-3886200Y-9120646D02*
X-3120109Y-8354555D01*
%TO.N,MCU_44_BOOT0*%
X3849822Y-10498482D02*
X4690718Y-10498482D01*
X2413002Y-9061662D02*
X3849822Y-10498482D01*
X4690718Y-10498482D02*
X5354376Y-9834824D01*
%TO.N,MCU_20_PB2_BOOT1*%
X-2980940Y-1546400D02*
X-3347666Y-1546400D01*
X-2413002Y-2114338D02*
X-2980940Y-1546400D01*
X-5611270Y-3593500D02*
X-5772205Y-3432565D01*
X-5394766Y-3593500D02*
X-5611270Y-3593500D01*
X-3347666Y-1546400D02*
X-5394766Y-3593500D01*
X-5772205Y-3432565D02*
X-6482565Y-3432565D01*
X-6482565Y-3432565D02*
X-6858000Y-3808000D01*
%TO.N,MCU_34_PA13_SYS_JTMS-SWDIO*%
X3494334Y-5077504D02*
X3069932Y-5501906D01*
X4180769Y-3882105D02*
X3494334Y-4568540D01*
X1225881Y-7242595D02*
X867897Y-7242595D01*
X3494334Y-4568540D02*
X3494334Y-5077504D01*
X2966570Y-5501906D02*
X1225881Y-7242595D01*
X3069932Y-5501906D02*
X2966570Y-5501906D01*
%TO.N,MCU_37_PA14_SYS_JTCK-SWCLK*%
X4985031Y-6489633D02*
X4887876Y-6586788D01*
X5143567Y-6489633D02*
X4985031Y-6489633D01*
%TO.N,ADC1_20_DOUT*%
X-3827215Y-3528551D02*
X-3067719Y-4288047D01*
X-3067719Y-4288047D02*
X-3067719Y-4851269D01*
X-2533936Y-5385052D02*
X-2533936Y-5456391D01*
X-3067719Y-4851269D02*
X-2533936Y-5385052D01*
%TO.N,ADC1_21_DIN*%
X-3473662Y-3174998D02*
X-2343219Y-4305441D01*
X-2343219Y-4305441D02*
X-2343219Y-4343400D01*
X-3801159Y4354287D02*
X-4377936Y3777510D01*
X-4377936Y3777510D02*
X-4377936Y3410784D01*
X-3984924Y3017772D02*
X-3984924Y2578666D01*
X-4377936Y3410784D02*
X-3984924Y3017772D01*
%TO.N,ADC2_19_SCLK*%
X3447606Y4000734D02*
X4075967Y3372373D01*
X821705Y-1584315D02*
X821705Y-1653613D01*
X821705Y-1653613D02*
X70832Y-2404486D01*
X70832Y-2404486D02*
X70832Y-3129737D01*
X4075967Y3372373D02*
X4075967Y2434291D01*
X1352342Y-1053678D02*
X821705Y-1584315D01*
%TO.N,ADC2_20_DOUT*%
X753668Y-3468750D02*
X753668Y-3668571D01*
X3801159Y4354287D02*
X4895219Y3260227D01*
X795332Y-2826890D02*
X795332Y-3427086D01*
X788375Y-2747271D02*
X788375Y-2819933D01*
X788375Y-2819933D02*
X795332Y-2826890D01*
X753668Y-3668571D02*
X326162Y-4096077D01*
X795332Y-3427086D02*
X753668Y-3468750D01*
X1705895Y-1407231D02*
X753668Y-2359458D01*
X753668Y-2712564D02*
X788375Y-2747271D01*
X753668Y-2359458D02*
X753668Y-2712564D01*
X4895219Y3260227D02*
X4895219Y3013733D01*
%TO.N,ADC2_21_DIN*%
X1203169Y-4063539D02*
X1050662Y-4216046D01*
X1050662Y-4396175D02*
X626260Y-4820577D01*
X626260Y-4820577D02*
X446131Y-4820577D01*
X1203169Y-3654939D02*
X1203169Y-4063539D01*
X4918176Y3944378D02*
X5265859Y3944378D01*
X1244833Y-3613275D02*
X1203169Y-3654939D01*
X446131Y-4820577D02*
X341897Y-4924811D01*
X1244833Y-2575401D02*
X1244833Y-3613275D01*
X4154713Y4707841D02*
X4918176Y3944378D01*
X341897Y-4924811D02*
X341897Y-5095456D01*
X1050662Y-4216046D02*
X1050662Y-4396175D01*
X2059449Y-1760785D02*
X1244833Y-2575401D01*
%TO.N,MCU_38_PA15_SYS_JTDI*%
X4534322Y-6940342D02*
X3709418Y-6115438D01*
X3709418Y-6115438D02*
X3709418Y-6013573D01*
%TO.N,MCU_39_PB3_SYS_JTDO-TRACESWO*%
X4145413Y-7293895D02*
X3577476Y-6725958D01*
X4180769Y-7293895D02*
X4145413Y-7293895D01*
X3577476Y-6725958D02*
X2767117Y-6725958D01*
X2767117Y-6725958D02*
X2083941Y-7409134D01*
%TO.N,MCU_5_PDO0_RCC_OSC_IN*%
X510000Y16380000D02*
X645000Y16515000D01*
X-2413002Y-9061662D02*
X-3479800Y-10128460D01*
X-3479800Y-10128460D02*
X-3479800Y-10261600D01*
X510000Y15240000D02*
X510000Y16380000D01*
%TO.N,ACC_13_SCL*%
X3120109Y-8354555D02*
X3868019Y-9102465D01*
X3868019Y-9102465D02*
X4378065Y-9102465D01*
%TO.N,ACC_14_SDA*%
X2192080Y-8133634D02*
X263034Y-8133634D01*
X140300Y-6945593D02*
X1526090Y-5559803D01*
X2766555Y-8708109D02*
X2192080Y-8133634D01*
X1927013Y-5559803D02*
X2351415Y-5135401D01*
X140300Y-8010900D02*
X140300Y-6945593D01*
X263034Y-8133634D02*
X140300Y-8010900D01*
X2351415Y-4964490D02*
X2726877Y-4589028D01*
X1526090Y-5559803D02*
X1927013Y-5559803D01*
X2351415Y-5135401D02*
X2351415Y-4964490D01*
X2726877Y-4589028D02*
X2726877Y-4290223D01*
%TO.N,MCU_12_PA2_USART2_TX*%
X-6045200Y-5429464D02*
X-6045200Y-5156200D01*
X-4887876Y-6586788D02*
X-6045200Y-5429464D01*
%TO.N,MCU_13_PA3_USART2_RX*%
X-4887876Y-4589212D02*
X-5320023Y-4157065D01*
X-5320023Y-4157065D02*
X-6072303Y-4157065D01*
%TO.N,MCU_18_PB0_ADC1_SYNC{slash}RESET*%
X-1419731Y9895299D02*
X357767Y9895299D01*
X-1075000Y4669000D02*
X-511998Y4669000D01*
X-1312163Y7899606D02*
X-1312163Y7299410D01*
X357767Y8446299D02*
X-765470Y8446299D01*
X50800Y4106202D02*
X50800Y3175000D01*
X-1143000Y4737000D02*
X-1075000Y4669000D01*
X-1450000Y19616000D02*
X-492000Y20574000D01*
X-1551278Y-4105083D02*
X-1372544Y-4105083D01*
X-2342166Y-3599388D02*
X-2056973Y-3599388D01*
X-2325545Y8989485D02*
X-1419731Y9895299D01*
X-625000Y17785000D02*
X-1450000Y18610000D01*
X-765470Y8446299D02*
X-1312163Y7899606D01*
X357767Y9895299D02*
X782169Y9470897D01*
X782169Y9470897D02*
X782169Y8870701D01*
X-3120109Y-2821445D02*
X-2342166Y-3599388D01*
X-511998Y4669000D02*
X50800Y4106202D01*
X-1312163Y7299410D02*
X-1143000Y7130247D01*
X-2056973Y-3599388D02*
X-1551278Y-4105083D01*
X782169Y8870701D02*
X357767Y8446299D01*
X-1450000Y18610000D02*
X-1450000Y19616000D01*
X-1143000Y7130247D02*
X-1143000Y4737000D01*
%TO.N,/J17*%
X12768111Y-4061017D02*
X13232963Y-4061017D01*
X12570194Y0D02*
X11709400Y0D01*
X10463800Y-955327D02*
X10754073Y-955327D01*
X13232963Y-4061017D02*
X13867963Y-3426017D01*
X10754073Y-955327D02*
X11709400Y0D01*
X13352413Y-782219D02*
X12570194Y0D01*
X14367962Y-2926018D02*
X14367962Y-2294437D01*
X13352413Y-1278888D02*
X13352413Y-782219D01*
X14367962Y-2294437D02*
X13352413Y-1278888D01*
X13867963Y-3426017D02*
X14367962Y-2926018D01*
%TO.N,/J18*%
X-14757400Y-8721131D02*
X-14757400Y-8057892D01*
X-13496461Y-928098D02*
X-12572694Y-4331D01*
X-14056438Y-1981793D02*
X-13496461Y-1421816D01*
X-12144400Y-11122000D02*
X-13619946Y-9646454D01*
X-9901000Y-10297000D02*
X-10726000Y-11122000D01*
X-12572694Y-4331D02*
X-11711900Y-4331D01*
X-15214600Y-5003800D02*
X-15326438Y-4891962D01*
X-15250472Y-7310981D02*
X-15214600Y-7177106D01*
X-9901000Y-10297000D02*
X-9901000Y-9027000D01*
X-11389396Y-4331D02*
X-10387600Y-1006127D01*
X-15250472Y-7564820D02*
X-15250472Y-7310981D01*
X-14691438Y-2895600D02*
X-14056438Y-2260600D01*
X-15326438Y-3987800D02*
X-14691438Y-3352800D01*
X-15326438Y-4891962D02*
X-15326438Y-3987800D01*
X-13496461Y-1421816D02*
X-13496461Y-928098D01*
X-15214600Y-7177106D02*
X-15214600Y-5003800D01*
X-14691438Y-3352800D02*
X-14691438Y-2895600D01*
X-13909723Y-9568808D02*
X-14757400Y-8721131D01*
X-14056438Y-2260600D02*
X-14056438Y-1981793D01*
X-11711900Y-4331D02*
X-11389396Y-4331D01*
X-14757400Y-8057892D02*
X-15250472Y-7564820D01*
X-13619946Y-9646454D02*
X-13909723Y-9568808D01*
X-10726000Y-11122000D02*
X-12144400Y-11122000D01*
%TD*%
M02*
