%TF.GenerationSoftware,KiCad,Pcbnew,7.0.0-da2b9df05c~163~ubuntu22.04.1*%
%TF.CreationDate,2023-02-18T04:30:46+03:00*%
%TF.ProjectId,freeeeg16-alpha,66726565-6565-4673-9136-2d616c706861,rev?*%
%TF.SameCoordinates,Original*%
%TF.FileFunction,Copper,L2,Inr*%
%TF.FilePolarity,Positive*%
%FSLAX46Y46*%
G04 Gerber Fmt 4.6, Leading zero omitted, Abs format (unit mm)*
G04 Created by KiCad (PCBNEW 7.0.0-da2b9df05c~163~ubuntu22.04.1) date 2023-02-18 04:30:46*
%MOMM*%
%LPD*%
G01*
G04 APERTURE LIST*
G04 Aperture macros list*
%AMHorizOval*
0 Thick line with rounded ends*
0 $1 width*
0 $2 $3 position (X,Y) of the first rounded end (center of the circle)*
0 $4 $5 position (X,Y) of the second rounded end (center of the circle)*
0 Add line between two ends*
20,1,$1,$2,$3,$4,$5,0*
0 Add two circle primitives to create the rounded ends*
1,1,$1,$2,$3*
1,1,$1,$4,$5*%
%AMRotRect*
0 Rectangle, with rotation*
0 The origin of the aperture is its center*
0 $1 length*
0 $2 width*
0 $3 Rotation angle, in degrees counterclockwise*
0 Add horizontal line*
21,1,$1,$2,0,0,$3*%
G04 Aperture macros list end*
%TA.AperFunction,ComponentPad*%
%ADD10R,1.000000X1.000000*%
%TD*%
%TA.AperFunction,ComponentPad*%
%ADD11O,1.000000X1.000000*%
%TD*%
%TA.AperFunction,ComponentPad*%
%ADD12RotRect,1.000000X1.000000X210.000000*%
%TD*%
%TA.AperFunction,ComponentPad*%
%ADD13HorizOval,1.000000X0.000000X0.000000X0.000000X0.000000X0*%
%TD*%
%TA.AperFunction,ComponentPad*%
%ADD14HorizOval,1.000000X0.000000X0.000000X0.000000X0.000000X0*%
%TD*%
%TA.AperFunction,ComponentPad*%
%ADD15RotRect,1.000000X1.000000X330.000000*%
%TD*%
%TA.AperFunction,ViaPad*%
%ADD16C,0.800000*%
%TD*%
%TA.AperFunction,Conductor*%
%ADD17C,0.250000*%
%TD*%
G04 APERTURE END LIST*
D10*
%TO.N,ACC_5_VDDIO*%
%TO.C,J1*%
X-624999Y19054999D03*
D11*
%TO.N,CRYSTAL_4_Vin*%
X644999Y19054999D03*
%TO.N,MCU_18_PB0_ADC1_SYNC{slash}RESET*%
X-624999Y17784999D03*
%TO.N,ADC1_16_SYNC{slash}RESET*%
X644999Y17784999D03*
%TO.N,CRYSTAL_3_OUT*%
X-624999Y16514999D03*
%TO.N,MCU_5_PDO0_RCC_OSC_IN*%
X644999Y16514999D03*
%TD*%
D10*
%TO.N,ADC2_08_AIN5P*%
%TO.C,J29*%
X11167947Y-9026999D03*
D11*
X11167947Y-10296999D03*
%TO.N,ADC2_09_AIN6P*%
X9897947Y-9026999D03*
X9897947Y-10296999D03*
%TO.N,ADC2_12_AIN7P*%
X8627947Y-9026999D03*
X8627947Y-10296999D03*
%TD*%
D10*
%TO.N,ADC1_29_AIN0P*%
%TO.C,J28*%
X-8630999Y-9026999D03*
D11*
X-8630999Y-10296999D03*
%TO.N,ADC1_32_AIN1P*%
X-9900999Y-9026999D03*
X-9900999Y-10296999D03*
%TO.N,ADC1_01_AIN2P*%
X-11170999Y-9026999D03*
X-11170999Y-10296999D03*
%TD*%
D12*
%TO.N,ADC2_01_AIN2P*%
%TO.C,J31*%
X12133110Y-2961164D03*
D13*
X13232962Y-2326164D03*
%TO.N,ADC2_04_AIN3P*%
X12768110Y-4061016D03*
X13867962Y-3426016D03*
%TO.N,ADC2_05_AIN4P*%
X13403110Y-5160869D03*
X14502962Y-4525869D03*
%TD*%
D14*
%TO.N,3V3_2_GND*%
%TO.C,J32*%
X-3331963Y14822871D03*
X-2232111Y14187871D03*
%TO.N,ADC1_12_AIN7P*%
X-3966963Y13723018D03*
X-2867111Y13088018D03*
%TO.N,ADC1_09_AIN6P*%
X-4601963Y12623166D03*
D15*
X-3502111Y11988166D03*
%TD*%
D12*
%TO.N,ADC1_02_AIN2N*%
%TO.C,J33*%
X2233636Y14185226D03*
D13*
X3333488Y14820226D03*
%TO.N,ADC2_29_AIN0P*%
X2868636Y13085374D03*
X3968488Y13720374D03*
%TO.N,ADC2_32_AIN1P*%
X3503636Y11985521D03*
X4603488Y12620521D03*
%TD*%
D15*
%TO.N,ADC1_04_AIN3P*%
%TO.C,J30*%
X-13401585Y-5158224D03*
D14*
X-14501437Y-4523224D03*
%TO.N,ADC1_05_AIN4P*%
X-12766585Y-4058372D03*
X-13866437Y-3423372D03*
%TO.N,ADC1_08_AIN5P*%
X-12131585Y-2958519D03*
X-13231437Y-2323519D03*
%TD*%
D16*
%TO.N,ADC1_15_AVDD*%
X17224809Y-7774246D03*
%TO.N,MCU_38_PA15_SYS_JTDI*%
X3349611Y-6218133D03*
%TO.N,RADIO_8_GPIO9*%
X0Y-6221500D03*
X-8255000Y-5080000D03*
%TO.N,3V3_2_GND*%
X-140000Y650000D03*
%TO.N,3V3_5_OUT*%
X508000Y5334000D03*
%TO.N,3V3_2_GND*%
X-7918578Y-6174332D03*
X-11811000Y-1115000D03*
%TO.N,3V3_1_IN*%
X-3167720Y7207999D03*
X-13843000Y-10287000D03*
X14823166Y-5607300D03*
%TO.N,ADC1_15_AVDD*%
X7397001Y2361000D03*
X-291500Y9054851D03*
X14493630Y-6550916D03*
%TO.N,ADC1_26_DVDD*%
X-1931445Y2902448D03*
X-12368202Y-9654691D03*
X6962270Y4038067D03*
%TO.N,ADC1_14_REFIN*%
X-3844068Y6384068D03*
X6566000Y508000D03*
X10099502Y-4953000D03*
X-380655Y7605455D03*
%TO.N,ACC_5_VDDIO*%
X-736730Y-8674000D03*
X-1089502Y-127000D03*
X-7114593Y-6992383D03*
X7390800Y-5422552D03*
X-14872119Y-6454277D03*
X-10695286Y-5777693D03*
X2551948Y-10809404D03*
%TO.N,ADC2_17_CS*%
X3570269Y2424987D03*
X-865846Y-2460352D03*
%TO.N,ADC1_02_AIN2N*%
X10796725Y3303725D03*
X-10581021Y2633053D03*
%TO.N,ADC1_16_SYNC{slash}RESET*%
X2390436Y1628436D03*
X768088Y10681980D03*
X-7142067Y6581825D03*
%TO.N,ADC1_17_CS*%
X-3941885Y-5617067D03*
X-6473054Y1654946D03*
%TO.N,ADC1_18_DRDY*%
X-6001569Y3429000D03*
X-893925Y-4243637D03*
%TO.N,ADC1_19_SCLK*%
X-3212280Y-6300406D03*
X-5659543Y2290577D03*
%TO.N,ADC1_23_XTAL1{slash}CLKIN*%
X2297730Y-3948731D03*
X3649502Y6107631D03*
X-1778000Y4357250D03*
%TO.N,3V3_2_GND*%
X-4025500Y10414000D03*
X14351000Y-10795000D03*
X-16891000Y-7493000D03*
X254000Y-9271000D03*
X-15113000Y-11030000D03*
X12383734Y-6967042D03*
X-7454453Y3456498D03*
X2859120Y9327522D03*
X1778000Y5207000D03*
X6036799Y-5901201D03*
X-140000Y-450002D03*
X-6409554Y7425554D03*
X-12293353Y-7429147D03*
%TO.N,3V3_5_OUT*%
X-1842809Y11647129D03*
%TO.N,MCU_7_NRST*%
X-4088500Y-9475223D03*
%TO.N,MCU_34_PA13_SYS_JTMS-SWDIO*%
X1443397Y-6693910D03*
%TO.N,MCU_37_PA14_SYS_JTCK-SWCLK*%
X2451107Y-6693500D03*
%TO.N,ADC1_20_DOUT*%
X-4775698Y1725873D03*
X-2408975Y-5714718D03*
%TO.N,ADC1_21_DIN*%
X-4210543Y2550255D03*
X-2342925Y-4465864D03*
%TO.N,ADC2_19_SCLK*%
X221983Y-2636152D03*
X4568319Y2371116D03*
%TO.N,ADC2_20_DOUT*%
X5048999Y3247444D03*
X470700Y-3604214D03*
%TO.N,ADC2_21_DIN*%
X5498500Y4140314D03*
X1332531Y-4208340D03*
%TO.N,MCU_5_PDO0_RCC_OSC_IN*%
X-2803543Y-10720500D03*
X-2032000Y10643086D03*
%TO.N,MCU_12_PA2_USART2_TX*%
X-5988782Y-5369279D03*
%TO.N,MCU_13_PA3_USART2_RX*%
X-5987001Y-4318000D03*
%TO.N,MCU_18_PB0_ADC1_SYNC{slash}RESET*%
X0Y4394498D03*
X-2794000Y9398000D03*
X-1572062Y-5102135D03*
%TD*%
D17*
%TO.N,3V3_1_IN*%
X14269708Y-5461000D02*
X14676866Y-5461000D01*
X-2188621Y7207999D02*
X-1016000Y8380620D01*
%TO.N,ADC1_15_AVDD*%
X7397001Y-956471D02*
X12875901Y-6435371D01*
%TO.N,3V3_1_IN*%
X1227341Y8560257D02*
X4904503Y8560257D01*
X-596368Y9779351D02*
X8598Y9779351D01*
X433000Y9354949D02*
X433000Y9354598D01*
X4904503Y8560257D02*
X8862502Y4602258D01*
X-3167720Y7207999D02*
X-2188621Y7207999D01*
X-1016000Y8380620D02*
X-1016000Y9359718D01*
X-1016000Y9359718D02*
X-596368Y9779351D01*
%TO.N,ADC1_15_AVDD*%
X16282539Y-7774246D02*
X15059209Y-6550916D01*
X12875901Y-6435371D02*
X14378085Y-6435371D01*
X7397001Y2361000D02*
X7397001Y-956471D01*
%TO.N,3V3_1_IN*%
X8598Y9779351D02*
X433000Y9354949D01*
%TO.N,ADC1_15_AVDD*%
X14378085Y-6435371D02*
X14493630Y-6550916D01*
%TO.N,3V3_1_IN*%
X13062090Y-5985870D02*
X13744838Y-5985870D01*
X14676866Y-5461000D02*
X14823166Y-5607300D01*
X8862502Y-1786282D02*
X13062090Y-5985870D01*
X13744838Y-5985870D02*
X14269708Y-5461000D01*
%TO.N,ADC1_15_AVDD*%
X15059209Y-6550916D02*
X14493630Y-6550916D01*
%TO.N,3V3_1_IN*%
X433000Y9354598D02*
X1227341Y8560257D01*
%TO.N,ADC1_15_AVDD*%
X17224809Y-7774246D02*
X16282539Y-7774246D01*
%TO.N,3V3_1_IN*%
X8862502Y4602258D02*
X8862502Y-1786282D01*
%TO.N,ADC2_21_DIN*%
X5265499Y43636D02*
X1332531Y-3889332D01*
%TO.N,ADC1_23_XTAL1{slash}CLKIN*%
X4564420Y6107631D02*
X6223000Y4449051D01*
X5841500Y-404961D02*
X2297730Y-3948731D01*
X6223000Y1396294D02*
X5841500Y1014794D01*
X6223000Y4449051D02*
X6223000Y1396294D01*
X5841500Y1014794D02*
X5841500Y-404961D01*
%TO.N,ADC2_21_DIN*%
X5773499Y1583189D02*
X5265499Y1075189D01*
X5265499Y1075189D02*
X5265499Y43636D01*
%TO.N,ADC1_23_XTAL1{slash}CLKIN*%
X3649502Y6107631D02*
X4564420Y6107631D01*
%TO.N,ADC2_21_DIN*%
X5498500Y4140314D02*
X5773499Y3865315D01*
X1332531Y-3889332D02*
X1332531Y-4208340D01*
X5773499Y3865315D02*
X5773499Y1583189D01*
%TO.N,MCU_18_PB0_ADC1_SYNC{slash}RESET*%
X-2823504Y-7154552D02*
X-1572062Y-5903110D01*
%TO.N,ADC2_17_CS*%
X-655193Y-2460352D02*
X-865846Y-2460352D01*
%TO.N,ACC_5_VDDIO*%
X-253800Y-3859100D02*
X-253800Y-3904312D01*
X-253800Y-3904312D02*
X724500Y-4882612D01*
%TO.N,ADC2_19_SCLK*%
X4568319Y2371116D02*
X4568319Y1649389D01*
%TO.N,ADC2_20_DOUT*%
X5048999Y3247444D02*
X5323998Y2972445D01*
X4815998Y1261378D02*
X4815998Y741084D01*
%TO.N,ACC_5_VDDIO*%
X718897Y-7218373D02*
X-736730Y-8674000D01*
%TO.N,ADC2_20_DOUT*%
X4815998Y741084D02*
X470700Y-3604214D01*
%TO.N,ACC_5_VDDIO*%
X-1089502Y-127000D02*
X-1590346Y-627844D01*
X-1590346Y-627844D02*
X-1590346Y-2760450D01*
%TO.N,ADC2_17_CS*%
X3570269Y1765110D02*
X-655193Y-2460352D01*
%TO.N,MCU_18_PB0_ADC1_SYNC{slash}RESET*%
X-1904294Y1905000D02*
X-2032000Y1905000D01*
%TO.N,ACC_5_VDDIO*%
X-971317Y-3379479D02*
X-733421Y-3379479D01*
X724500Y-6388209D02*
X718897Y-6393812D01*
%TO.N,ADC2_19_SCLK*%
X282778Y-2636152D02*
X221983Y-2636152D01*
%TO.N,MCU_18_PB0_ADC1_SYNC{slash}RESET*%
X-1016000Y2793294D02*
X-1904294Y1905000D01*
%TO.N,ACC_5_VDDIO*%
X-1590346Y-2760450D02*
X-971317Y-3379479D01*
%TO.N,MCU_18_PB0_ADC1_SYNC{slash}RESET*%
X-4053499Y4180499D02*
X-6275381Y4180499D01*
%TO.N,ACC_5_VDDIO*%
X-733421Y-3379479D02*
X-253800Y-3859100D01*
X724500Y-4882612D02*
X724500Y-6388209D01*
%TO.N,ADC1_21_DIN*%
X-3964786Y-2844003D02*
X-2342925Y-4465864D01*
%TO.N,ADC2_20_DOUT*%
X5323998Y1769378D02*
X4815998Y1261378D01*
%TO.N,ACC_5_VDDIO*%
X718897Y-6393812D02*
X718897Y-7218373D01*
%TO.N,ADC1_17_CS*%
X-6473054Y-2354156D02*
X-4110382Y-4716828D01*
%TO.N,MCU_18_PB0_ADC1_SYNC{slash}RESET*%
X-2032000Y1905000D02*
X-2655945Y2528945D01*
%TO.N,ADC1_18_DRDY*%
X-6001569Y3429000D02*
X-3937690Y3429000D01*
X-3243501Y-1894061D02*
X-893925Y-4243637D01*
%TO.N,ADC2_20_DOUT*%
X5323998Y2972445D02*
X5323998Y1769378D01*
%TO.N,MCU_18_PB0_ADC1_SYNC{slash}RESET*%
X-6662499Y-5655811D02*
X-6662499Y-5783501D01*
%TO.N,ADC1_18_DRDY*%
X-3243501Y2734811D02*
X-3243501Y-1894061D01*
%TO.N,MCU_18_PB0_ADC1_SYNC{slash}RESET*%
X-7297499Y-5020811D02*
X-6662499Y-5655811D01*
%TO.N,ADC1_18_DRDY*%
X-3937690Y3429000D02*
X-3243501Y2734811D01*
%TO.N,MCU_18_PB0_ADC1_SYNC{slash}RESET*%
X-5164464Y-7154552D02*
X-2823504Y-7154552D01*
X-6418501Y-6027499D02*
X-6291517Y-6027499D01*
X-6662499Y-5783501D02*
X-6418501Y-6027499D01*
X-6726575Y3128695D02*
X-7297499Y2557771D01*
X-2655945Y2528945D02*
X-2655945Y2782945D01*
%TO.N,ADC2_19_SCLK*%
X4568319Y1649389D02*
X282778Y-2636152D01*
%TO.N,MCU_18_PB0_ADC1_SYNC{slash}RESET*%
X-1016000Y3378498D02*
X-1016000Y2793294D01*
X0Y4394498D02*
X-1016000Y3378498D01*
%TO.N,ADC1_17_CS*%
X-4110382Y-5448570D02*
X-3941885Y-5617067D01*
X-4110382Y-4716828D02*
X-4110382Y-5448570D01*
X-6473054Y1654946D02*
X-6473054Y-2354156D01*
%TO.N,MCU_18_PB0_ADC1_SYNC{slash}RESET*%
X-6291517Y-6027499D02*
X-5164464Y-7154552D01*
X-2655945Y2782945D02*
X-4053499Y4180499D01*
X-7297499Y2557771D02*
X-7297499Y-5020811D01*
%TO.N,ADC1_21_DIN*%
X-3964786Y2304498D02*
X-3964786Y-2844003D01*
%TO.N,MCU_18_PB0_ADC1_SYNC{slash}RESET*%
X-6275381Y4180499D02*
X-6726575Y3729305D01*
%TO.N,ADC1_21_DIN*%
X-4210543Y2550255D02*
X-3964786Y2304498D01*
%TO.N,MCU_18_PB0_ADC1_SYNC{slash}RESET*%
X-1572062Y-5903110D02*
X-1572062Y-5102135D01*
X-6726575Y3729305D02*
X-6726575Y3128695D01*
%TO.N,ADC2_17_CS*%
X3570269Y2424987D02*
X3570269Y1765110D01*
%TO.N,RADIO_8_GPIO9*%
X-127000Y-6348500D02*
X0Y-6221500D01*
X-127000Y-6985000D02*
X-127000Y-6348500D01*
%TO.N,ADC1_19_SCLK*%
X-3436445Y-5089999D02*
X-3436445Y-5092636D01*
X-3212280Y-5316801D02*
X-3212280Y-6300406D01*
%TO.N,ADC1_20_DOUT*%
X-2986944Y-4903810D02*
X-3211380Y-4679374D01*
%TO.N,ADC1_19_SCLK*%
X-5659543Y2290577D02*
X-5659543Y-2521443D01*
X-3660881Y-4865563D02*
X-3436445Y-5089999D01*
%TO.N,ADC1_20_DOUT*%
X-3211380Y-4333916D02*
X-4775698Y-2769598D01*
X-4775698Y-2769598D02*
X-4775698Y1725873D01*
X-3211380Y-4679374D02*
X-3211380Y-4333916D01*
X-2408975Y-5484416D02*
X-2986944Y-4906447D01*
X-2408975Y-5714718D02*
X-2408975Y-5484416D01*
%TO.N,ADC1_19_SCLK*%
X-3436445Y-5092636D02*
X-3212280Y-5316801D01*
%TO.N,ADC1_20_DOUT*%
X-2986944Y-4906447D02*
X-2986944Y-4903810D01*
%TO.N,ADC1_19_SCLK*%
X-3660881Y-4520105D02*
X-3660881Y-4865563D01*
X-5659543Y-2521443D02*
X-3660881Y-4520105D01*
%TO.N,RADIO_8_GPIO9*%
X-6605396Y-6477000D02*
X-6477706Y-6477000D01*
X-5334706Y-7620000D02*
X-762000Y-7620000D01*
X-6477706Y-6477000D02*
X-5334706Y-7620000D01*
%TO.N,ACC_5_VDDIO*%
X-7881383Y-6992383D02*
X-7114593Y-6992383D01*
%TO.N,RADIO_8_GPIO9*%
X-7874000Y-5080000D02*
X-7112499Y-5841501D01*
%TO.N,ACC_5_VDDIO*%
X-8475000Y-7586000D02*
X-7881383Y-6992383D01*
%TO.N,RADIO_8_GPIO9*%
X-8255000Y-5080000D02*
X-7874000Y-5080000D01*
X-7112499Y-5841501D02*
X-7112499Y-5969897D01*
X-7112499Y-5969897D02*
X-6605396Y-6477000D01*
X-762000Y-7620000D02*
X-127000Y-6985000D01*
%TO.N,ACC_5_VDDIO*%
X-4943691Y13913019D02*
X-4943691Y13448167D01*
%TO.N,ADC1_26_DVDD*%
X-8195811Y-2253620D02*
X-8195811Y3994809D01*
%TO.N,ACC_5_VDDIO*%
X-4475355Y14846208D02*
X-4475355Y14381355D01*
X-5715000Y9144707D02*
X-10541000Y4318707D01*
X-3556000Y16124000D02*
X-3556000Y15647872D01*
X-625000Y19055000D02*
X-3556000Y16124000D01*
X-10283307Y-5777693D02*
X-8475000Y-7586000D01*
%TO.N,3V3_1_IN*%
X-8957811Y3868499D02*
X-7423809Y5402501D01*
%TO.N,ACC_5_VDDIO*%
X-10147000Y-2650414D02*
X-11306586Y-3810000D01*
%TO.N,3V3_1_IN*%
X-11944072Y-5366191D02*
X-8957811Y-2379930D01*
X-4299126Y7207999D02*
X-3167720Y7207999D01*
%TO.N,ACC_5_VDDIO*%
X-10147000Y873479D02*
X-10147000Y-2650414D01*
X-3556000Y15647872D02*
X-3673691Y15647872D01*
X-5715000Y12676858D02*
X-5715000Y9144707D01*
%TO.N,3V3_1_IN*%
X-8957811Y-2379930D02*
X-8957811Y3868499D01*
%TO.N,ADC1_26_DVDD*%
X-6036121Y4630499D02*
X-3659496Y4630499D01*
X-6358622Y4953000D02*
X-6036121Y4630499D01*
%TO.N,ACC_5_VDDIO*%
X-13312277Y-6454277D02*
X-14872119Y-6454277D01*
%TO.N,ADC1_26_DVDD*%
X-11419786Y-7580885D02*
X-11419786Y-5477595D01*
%TO.N,ACC_5_VDDIO*%
X-3673691Y15647872D02*
X-4475355Y14846208D01*
%TO.N,ADC1_26_DVDD*%
X-8195811Y3994809D02*
X-7237620Y4953000D01*
%TO.N,3V3_1_IN*%
X-6104624Y5402501D02*
X-4299126Y7207999D01*
%TO.N,ACC_5_VDDIO*%
X-4475355Y14381355D02*
X-4943691Y13913019D01*
X-4943691Y13448167D02*
X-5715000Y12676858D01*
%TO.N,3V3_1_IN*%
X-13843000Y-10287000D02*
X-13843000Y-7620690D01*
%TO.N,ACC_5_VDDIO*%
X-11306586Y-3993013D02*
X-12393573Y-5080000D01*
%TO.N,ADC1_26_DVDD*%
X-11419786Y-5477595D02*
X-8195811Y-2253620D01*
X-3659496Y4630499D02*
X-1931445Y2902448D01*
X-12368202Y-8529301D02*
X-11419786Y-7580885D01*
%TO.N,3V3_1_IN*%
X-13843000Y-7620690D02*
X-11944072Y-5721762D01*
%TO.N,ADC1_26_DVDD*%
X-7237620Y4953000D02*
X-6358622Y4953000D01*
%TO.N,ACC_5_VDDIO*%
X-12393573Y-5535573D02*
X-13312277Y-6454277D01*
X-10541000Y4318707D02*
X-10541000Y3697672D01*
X-10541000Y3697672D02*
X-11305521Y2933151D01*
X-11305521Y2933151D02*
X-11305521Y2032000D01*
X-11305521Y2032000D02*
X-10147000Y873479D01*
%TO.N,3V3_1_IN*%
X-11944072Y-5721762D02*
X-11944072Y-5366191D01*
%TO.N,ACC_5_VDDIO*%
X-11306586Y-3810000D02*
X-11306586Y-3993013D01*
%TO.N,ADC1_26_DVDD*%
X-12368202Y-9654691D02*
X-12368202Y-8529301D01*
%TO.N,ACC_5_VDDIO*%
X-12393573Y-5080000D02*
X-12393573Y-5535573D01*
X-10695286Y-5777693D02*
X-10283307Y-5777693D01*
%TO.N,3V3_1_IN*%
X-7423809Y5402501D02*
X-6104624Y5402501D01*
%TO.N,ADC1_23_XTAL1{slash}CLKIN*%
X-1778000Y5461000D02*
X-1778000Y4357250D01*
X-1131369Y6107631D02*
X-1778000Y5461000D01*
X3649502Y6107631D02*
X-1131369Y6107631D01*
%TO.N,ACC_5_VDDIO*%
X-8475000Y-7586000D02*
X-7552000Y-8509000D01*
X-7552000Y-8509000D02*
X-901730Y-8509000D01*
X-901730Y-8509000D02*
X-736730Y-8674000D01*
%TO.N,ADC1_14_REFIN*%
X-694189Y7307501D02*
X-995057Y7006633D01*
X-2250932Y6384068D02*
X-3844068Y6384068D01*
X-1628367Y7006633D02*
X-2250932Y6384068D01*
X-995057Y7006633D02*
X-1628367Y7006633D01*
%TO.N,ADC1_26_DVDD*%
X-533369Y6832631D02*
X-808868Y6557132D01*
X6962270Y4038067D02*
X6962270Y4595420D01*
X4725059Y6832631D02*
X-533369Y6832631D01*
X-808868Y6557132D02*
X-1317558Y6557132D01*
%TO.N,ADC1_14_REFIN*%
X-508000Y7307501D02*
X-694189Y7307501D01*
%TO.N,ADC1_26_DVDD*%
X6962270Y4595420D02*
X4725059Y6832631D01*
X-1317558Y6557132D02*
X-2628258Y5246432D01*
X-2628258Y5246432D02*
X-2628258Y3599261D01*
X-2628258Y3599261D02*
X-1931445Y2902448D01*
%TO.N,ADC1_02_AIN2N*%
X1867611Y13819201D02*
X1867611Y12232839D01*
X1867611Y12232839D02*
X10796725Y3303725D01*
X1867611Y10756198D02*
X1052713Y9941300D01*
X1867611Y13819201D02*
X1867611Y10756198D01*
X-1524000Y8508310D02*
X-2099811Y7932499D01*
X-7736308Y5852002D02*
X-10091499Y3496811D01*
X-10091499Y3122575D02*
X-10581021Y2633053D01*
X101339Y10322300D02*
X-692498Y10322300D01*
X-1524000Y9490798D02*
X-1524000Y8508310D01*
X-692498Y10322300D02*
X-1524000Y9490798D01*
X482339Y9941300D02*
X101339Y10322300D01*
X1052713Y9941300D02*
X482339Y9941300D01*
X-2099811Y7932499D02*
X-4210316Y7932499D01*
X-6290813Y5852002D02*
X-7736308Y5852002D01*
X-10091499Y3496811D02*
X-10091499Y3122575D01*
X-4210316Y7932499D02*
X-6290813Y5852002D01*
%TO.N,ADC1_16_SYNC{slash}RESET*%
X678267Y10771801D02*
X-878687Y10771801D01*
X-6196680Y6581825D02*
X-7142067Y6581825D01*
X768088Y10681980D02*
X678267Y10771801D01*
X-878687Y10771801D02*
X-1974000Y9676488D01*
X-1974000Y9676488D02*
X-1974000Y8694000D01*
X-2286000Y8382000D02*
X-4396505Y8382000D01*
X-4396505Y8382000D02*
X-6196680Y6581825D01*
X-1974000Y8694000D02*
X-2286000Y8382000D01*
%TO.N,ADC1_15_AVDD*%
X7450288Y2361000D02*
X8413001Y3323713D01*
X7397001Y2361000D02*
X7450288Y2361000D01*
X8413001Y4416069D02*
X4838072Y7990998D01*
X772353Y7990998D02*
X-291500Y9054851D01*
X8413001Y3323713D02*
X8413001Y4416069D01*
X4838072Y7990998D02*
X772353Y7990998D01*
%TO.N,ADC1_14_REFIN*%
X6938902Y3085500D02*
X6672501Y2819099D01*
X7963500Y4229880D02*
X7963500Y3509902D01*
X7963500Y3509902D02*
X7539098Y3085500D01*
X4885879Y7307501D02*
X7963500Y4229880D01*
X10099502Y-4953000D02*
X6566000Y-1419498D01*
X-508000Y7478110D02*
X-380655Y7605455D01*
X6672501Y2819099D02*
X6672501Y614501D01*
X7539098Y3085500D02*
X6938902Y3085500D01*
X-508000Y7307501D02*
X4885879Y7307501D01*
X6672501Y614501D02*
X6566000Y508000D01*
X-508000Y7307501D02*
X-508000Y7478110D01*
X6566000Y-1419498D02*
X6566000Y508000D01*
%TO.N,ACC_5_VDDIO*%
X2551948Y-10809404D02*
X7390800Y-5970552D01*
X2551948Y-10543643D02*
X554305Y-8546000D01*
X7390800Y-5970552D02*
X7390800Y-5422552D01*
X554305Y-8546000D02*
X-608730Y-8546000D01*
X-608730Y-8546000D02*
X-736730Y-8674000D01*
X2551948Y-10809404D02*
X2551948Y-10543643D01*
%TO.N,ADC1_02_AIN2N*%
X1867611Y13819201D02*
X2233637Y14185227D01*
%TO.N,ADC1_16_SYNC{slash}RESET*%
X1094501Y11008393D02*
X768088Y10681980D01*
X1470000Y16960000D02*
X1470000Y14804310D01*
X1094501Y14428811D02*
X1094501Y11008393D01*
X645000Y17785000D02*
X1470000Y16960000D01*
X1470000Y14804310D02*
X1094501Y14428811D01*
%TO.N,MCU_5_PDO0_RCC_OSC_IN*%
X-1244037Y11221302D02*
X-1822253Y10643086D01*
X645000Y16515000D02*
X645000Y12593668D01*
X-1822253Y10643086D02*
X-2032000Y10643086D01*
X-727366Y11221302D02*
X-1244037Y11221302D01*
X645000Y12593668D02*
X-727366Y11221302D01*
%TO.N,MCU_18_PB0_ADC1_SYNC{slash}RESET*%
X-2667000Y9652000D02*
X-2794000Y9525000D01*
X-1450000Y16960000D02*
X-1450000Y14658000D01*
X-3175000Y10541000D02*
X-2667000Y10033000D01*
X-2667000Y10033000D02*
X-2667000Y9652000D01*
X-3175000Y10795000D02*
X-3175000Y10541000D01*
X-2567809Y11947434D02*
X-2567809Y11402191D01*
X-625000Y17785000D02*
X-1450000Y16960000D01*
X-1407112Y14615112D02*
X-1407112Y13108130D01*
X-2794000Y9525000D02*
X-2794000Y9398000D01*
X-1407112Y13108130D02*
X-2567809Y11947434D01*
X-1450000Y14658000D02*
X-1407112Y14615112D01*
X-2567809Y11402191D02*
X-3175000Y10795000D01*
%TD*%
M02*
