M48
; DRILL file {KiCad 7.0.0-da2b9df05c~163~ubuntu22.04.1} date Sat 18 Feb 2023 04:30:48 AM MSK
; FORMAT={-:-/ absolute / inch / decimal}
; #@! TF.CreationDate,2023-02-18T04:30:48+03:00
; #@! TF.GenerationSoftware,Kicad,Pcbnew,7.0.0-da2b9df05c~163~ubuntu22.04.1
; #@! TF.FileFunction,Plated,1,4,PTH
FMAT,2
INCH
; #@! TA.AperFunction,Plated,PTH,ViaDrill
T1C0.0157
; #@! TA.AperFunction,Plated,PTH,ComponentDrill
T2C0.0256
; #@! TA.AperFunction,Plated,PTH,ComponentDrill
T3C0.0276
%
G90
G05
T1
X-0.665Y-0.295
X-0.595Y-0.4343
X-0.5855Y-0.2541
X-0.545Y-0.405
X-0.4869Y-0.3801
X-0.484Y-0.2925
X-0.465Y-0.0439
X-0.4211Y-0.2275
X-0.4166Y0.1037
X-0.325Y-0.2
X-0.3118Y-0.2431
X-0.2935Y0.1361
X-0.2812Y0.2591
X-0.2801Y-0.2753
X-0.2548Y0.0652
X-0.2523Y0.2923
X-0.2363Y0.135
X-0.2358Y-0.2114
X-0.2357Y-0.17
X-0.2228Y0.0902
X-0.188Y0.0679
X-0.1658Y0.1004
X-0.161Y-0.373
X-0.1585Y0.41
X-0.1552Y-0.2211
X-0.1513Y0.2513
X-0.1265Y-0.248
X-0.1247Y0.2838
X-0.1104Y-0.4221
X-0.11Y0.37
X-0.0948Y-0.225
X-0.0922Y-0.1758
X-0.08Y0.419
X-0.076Y0.1143
X-0.0726Y0.4585
X-0.07Y0.1715
X-0.0619Y-0.2009
X-0.0429Y-0.005
X-0.0352Y-0.1671
X-0.0341Y-0.0969
X-0.029Y-0.3415
X-0.015Y0.2994
X-0.0115Y0.3565
X-0.0055Y0.0256
X-0.0055Y-0.0177
X0.0Y0.173
X0.0Y-0.2449
X0.0087Y-0.1038
X0.01Y-0.365
X0.0185Y-0.1419
X0.02Y0.21
X0.0302Y0.4206
X0.0525Y-0.1657
X0.0568Y-0.2635
X0.07Y0.205
X0.0905Y-0.1555
X0.0941Y0.0641
X0.0965Y-0.2635
X0.1005Y-0.4256
X0.1126Y0.3672
X0.1319Y-0.2448
X0.1406Y0.0955
X0.1437Y0.2405
X0.1799Y0.0934
X0.1988Y0.1279
X0.2165Y0.163
X0.2377Y-0.2323
X0.2585Y0.02
X0.2741Y0.159
X0.291Y-0.2135
X0.2912Y0.093
X0.3976Y-0.195
X0.4251Y0.1301
X0.4875Y-0.2743
X0.565Y-0.425
X0.5706Y-0.2579
X0.5836Y-0.2208
X0.6781Y-0.3061
T2
X-0.0246Y0.7502
X-0.0246Y0.7002
X-0.0246Y0.6502
X0.0254Y0.7502
X0.0254Y0.7002
X0.0254Y0.6502
T3
X-0.5709Y-0.1781
X-0.5459Y-0.1348
X-0.5276Y-0.2031
X-0.5209Y-0.0915
X-0.5026Y-0.1598
X-0.4776Y-0.1165
X-0.4398Y-0.3554
X-0.4398Y-0.4054
X-0.3898Y-0.3554
X-0.3898Y-0.4054
X-0.3398Y-0.3554
X-0.3398Y-0.4054
X-0.1812Y0.497
X-0.1562Y0.5403
X-0.1379Y0.472
X-0.1312Y0.5836
X-0.1129Y0.5153
X-0.0879Y0.5586
X0.0879Y0.5585
X0.1129Y0.5152
X0.1312Y0.5835
X0.1379Y0.4719
X0.1562Y0.5402
X0.1812Y0.4969
X0.3397Y-0.3554
X0.3397Y-0.4054
X0.3897Y-0.3554
X0.3897Y-0.4054
X0.4397Y-0.3554
X0.4397Y-0.4054
X0.4777Y-0.1166
X0.5027Y-0.1599
X0.521Y-0.0916
X0.5277Y-0.2032
X0.546Y-0.1349
X0.571Y-0.1782
T0
M30
