M48
; DRILL file {KiCad 7.0.0-da2b9df05c~163~ubuntu22.04.1} date Sun 19 Feb 2023 04:44:03 AM MSK
; FORMAT={-:-/ absolute / inch / decimal}
; #@! TF.CreationDate,2023-02-19T04:44:03+03:00
; #@! TF.GenerationSoftware,Kicad,Pcbnew,7.0.0-da2b9df05c~163~ubuntu22.04.1
; #@! TF.FileFunction,Plated,1,4,PTH
FMAT,2
INCH
; #@! TA.AperFunction,Plated,PTH,ViaDrill
T1C0.0157
; #@! TA.AperFunction,Plated,PTH,ComponentDrill
T2C0.0256
; #@! TA.AperFunction,Plated,PTH,ComponentDrill
T3C0.0276
%
G90
G05
T1
X-0.665Y-0.295
X-0.595Y-0.4343
X-0.5855Y-0.2541
X-0.545Y-0.405
X-0.4869Y-0.3801
X-0.4806Y-0.2891
X-0.465Y-0.0439
X-0.4166Y0.1037
X-0.325Y-0.2
X-0.3104Y-0.2431
X-0.2902Y0.1452
X-0.2812Y0.2591
X-0.255Y0.04
X-0.2523Y0.2923
X-0.248Y-0.263
X-0.2391Y-0.1637
X-0.2387Y0.0833
X-0.238Y-0.203
X-0.2141Y0.05
X-0.1749Y0.0601
X-0.1616Y0.0971
X-0.161Y-0.373
X-0.1585Y0.41
X-0.1569Y-0.2203
X-0.1513Y0.2513
X-0.1258Y-0.2443
X-0.1247Y0.2838
X-0.1104Y-0.4221
X-0.11Y0.37
X-0.0998Y-0.2148
X-0.0923Y-0.171
X-0.08Y0.419
X-0.076Y0.1143
X-0.0735Y0.1715
X-0.0726Y0.4585
X-0.0597Y-0.1227
X-0.054Y-0.1616
X-0.0438Y-0.0048
X-0.032Y-0.0947
X-0.0318Y-0.3434
X-0.015Y0.2994
X-0.0115Y0.3565
X-0.0055Y0.0236
X-0.0055Y-0.0137
X0.0Y0.173
X0.001Y-0.117
X0.01Y-0.365
X0.0112Y-0.155
X0.0133Y-0.1943
X0.0302Y0.4206
X0.0342Y-0.2851
X0.0365Y0.2202
X0.0603Y-0.1873
X0.082Y-0.2917
X0.0885Y0.106
X0.09Y0.19
X0.1074Y-0.1689
X0.1123Y-0.4138
X0.1126Y0.3672
X0.127Y0.0977
X0.1437Y0.2405
X0.146Y-0.2368
X0.1658Y0.0914
X0.178Y-0.364
X0.1954Y0.1173
X0.2025Y-0.2555
X0.2073Y0.1549
X0.2424Y-0.2296
X0.2608Y0.0185
X0.2681Y0.1562
X0.2765Y-0.2091
X0.289Y0.059
X0.3976Y-0.195
X0.4251Y0.1301
X0.4875Y-0.2743
X0.5105Y-0.4104
X0.565Y-0.425
X0.5706Y-0.2579
X0.5836Y-0.2208
X0.6781Y-0.3061
T2
X-0.0246Y0.7502
X-0.0246Y0.7002
X-0.0246Y0.6502
X0.0254Y0.7502
X0.0254Y0.7002
X0.0254Y0.6502
T3
X-0.5709Y-0.1781
X-0.5459Y-0.1348
X-0.5276Y-0.2031
X-0.5209Y-0.0915
X-0.5026Y-0.1598
X-0.4776Y-0.1165
X-0.4398Y-0.3554
X-0.4398Y-0.4054
X-0.3898Y-0.3554
X-0.3898Y-0.4054
X-0.3398Y-0.3554
X-0.3398Y-0.4054
X-0.1812Y0.497
X-0.1562Y0.5403
X-0.1379Y0.472
X-0.1312Y0.5836
X-0.1129Y0.5153
X-0.0879Y0.5586
X0.0879Y0.5585
X0.1129Y0.5152
X0.1312Y0.5835
X0.1379Y0.4719
X0.1562Y0.5402
X0.1812Y0.4969
X0.3397Y-0.3554
X0.3397Y-0.4054
X0.3897Y-0.3554
X0.3897Y-0.4054
X0.4397Y-0.3554
X0.4397Y-0.4054
X0.4777Y-0.1166
X0.5027Y-0.1599
X0.521Y-0.0916
X0.5277Y-0.2032
X0.546Y-0.1349
X0.571Y-0.1782
T0
M30
