%TF.GenerationSoftware,KiCad,Pcbnew,7.0.0-da2b9df05c~163~ubuntu22.04.1*%
%TF.CreationDate,2023-03-01T01:28:45+03:00*%
%TF.ProjectId,freeeeg16-alpha,66726565-6565-4673-9136-2d616c706861,rev?*%
%TF.SameCoordinates,Original*%
%TF.FileFunction,Legend,Bot*%
%TF.FilePolarity,Positive*%
%FSLAX46Y46*%
G04 Gerber Fmt 4.6, Leading zero omitted, Abs format (unit mm)*
G04 Created by KiCad (PCBNEW 7.0.0-da2b9df05c~163~ubuntu22.04.1) date 2023-03-01 01:28:45*
%MOMM*%
%LPD*%
G01*
G04 APERTURE LIST*
%ADD10C,0.112500*%
%ADD11C,0.100000*%
%ADD12C,0.125000*%
%ADD13C,0.120000*%
G04 APERTURE END LIST*
D10*
X2314286Y2420678D02*
X2314286Y2120678D01*
X2314286Y2377821D02*
X2292857Y2399250D01*
X2292857Y2399250D02*
X2250000Y2420678D01*
X2250000Y2420678D02*
X2185714Y2420678D01*
X2185714Y2420678D02*
X2142857Y2399250D01*
X2142857Y2399250D02*
X2121429Y2356392D01*
X2121429Y2356392D02*
X2121429Y2120678D01*
X1735714Y2142107D02*
X1778571Y2120678D01*
X1778571Y2120678D02*
X1864286Y2120678D01*
X1864286Y2120678D02*
X1907143Y2142107D01*
X1907143Y2142107D02*
X1928571Y2184964D01*
X1928571Y2184964D02*
X1928571Y2356392D01*
X1928571Y2356392D02*
X1907143Y2399250D01*
X1907143Y2399250D02*
X1864286Y2420678D01*
X1864286Y2420678D02*
X1778571Y2420678D01*
X1778571Y2420678D02*
X1735714Y2399250D01*
X1735714Y2399250D02*
X1714286Y2356392D01*
X1714286Y2356392D02*
X1714286Y2313535D01*
X1714286Y2313535D02*
X1928571Y2270678D01*
X1328572Y2420678D02*
X1328572Y2120678D01*
X1521429Y2420678D02*
X1521429Y2184964D01*
X1521429Y2184964D02*
X1500000Y2142107D01*
X1500000Y2142107D02*
X1457143Y2120678D01*
X1457143Y2120678D02*
X1392857Y2120678D01*
X1392857Y2120678D02*
X1350000Y2142107D01*
X1350000Y2142107D02*
X1328572Y2163535D01*
X1114286Y2120678D02*
X1114286Y2420678D01*
X1114286Y2334964D02*
X1092857Y2377821D01*
X1092857Y2377821D02*
X1071429Y2399250D01*
X1071429Y2399250D02*
X1028571Y2420678D01*
X1028571Y2420678D02*
X985714Y2420678D01*
X771429Y2120678D02*
X814286Y2142107D01*
X814286Y2142107D02*
X835715Y2163535D01*
X835715Y2163535D02*
X857143Y2206392D01*
X857143Y2206392D02*
X857143Y2334964D01*
X857143Y2334964D02*
X835715Y2377821D01*
X835715Y2377821D02*
X814286Y2399250D01*
X814286Y2399250D02*
X771429Y2420678D01*
X771429Y2420678D02*
X707143Y2420678D01*
X707143Y2420678D02*
X664286Y2399250D01*
X664286Y2399250D02*
X642858Y2377821D01*
X642858Y2377821D02*
X621429Y2334964D01*
X621429Y2334964D02*
X621429Y2206392D01*
X621429Y2206392D02*
X642858Y2163535D01*
X642858Y2163535D02*
X664286Y2142107D01*
X664286Y2142107D02*
X707143Y2120678D01*
X707143Y2120678D02*
X771429Y2120678D01*
X428572Y2120678D02*
X428572Y2420678D01*
X428572Y2570678D02*
X450000Y2549250D01*
X450000Y2549250D02*
X428572Y2527821D01*
X428572Y2527821D02*
X407143Y2549250D01*
X407143Y2549250D02*
X428572Y2570678D01*
X428572Y2570678D02*
X428572Y2527821D01*
X21429Y2120678D02*
X21429Y2570678D01*
X21429Y2142107D02*
X64286Y2120678D01*
X64286Y2120678D02*
X150000Y2120678D01*
X150000Y2120678D02*
X192857Y2142107D01*
X192857Y2142107D02*
X214286Y2163535D01*
X214286Y2163535D02*
X235714Y2206392D01*
X235714Y2206392D02*
X235714Y2334964D01*
X235714Y2334964D02*
X214286Y2377821D01*
X214286Y2377821D02*
X192857Y2399250D01*
X192857Y2399250D02*
X150000Y2420678D01*
X150000Y2420678D02*
X64286Y2420678D01*
X64286Y2420678D02*
X21429Y2399250D01*
X-171428Y2142107D02*
X-214285Y2120678D01*
X-214285Y2120678D02*
X-299999Y2120678D01*
X-299999Y2120678D02*
X-342856Y2142107D01*
X-342856Y2142107D02*
X-364285Y2184964D01*
X-364285Y2184964D02*
X-364285Y2206392D01*
X-364285Y2206392D02*
X-342856Y2249250D01*
X-342856Y2249250D02*
X-299999Y2270678D01*
X-299999Y2270678D02*
X-235714Y2270678D01*
X-235714Y2270678D02*
X-192856Y2292107D01*
X-192856Y2292107D02*
X-171428Y2334964D01*
X-171428Y2334964D02*
X-171428Y2356392D01*
X-171428Y2356392D02*
X-192856Y2399250D01*
X-192856Y2399250D02*
X-235714Y2420678D01*
X-235714Y2420678D02*
X-299999Y2420678D01*
X-299999Y2420678D02*
X-342856Y2399250D01*
X-535714Y2142107D02*
X-578571Y2120678D01*
X-578571Y2120678D02*
X-664285Y2120678D01*
X-664285Y2120678D02*
X-707142Y2142107D01*
X-707142Y2142107D02*
X-728571Y2184964D01*
X-728571Y2184964D02*
X-728571Y2206392D01*
X-728571Y2206392D02*
X-707142Y2249250D01*
X-707142Y2249250D02*
X-664285Y2270678D01*
X-664285Y2270678D02*
X-600000Y2270678D01*
X-600000Y2270678D02*
X-557142Y2292107D01*
X-557142Y2292107D02*
X-535714Y2334964D01*
X-535714Y2334964D02*
X-535714Y2356392D01*
X-535714Y2356392D02*
X-557142Y2399250D01*
X-557142Y2399250D02*
X-600000Y2420678D01*
X-600000Y2420678D02*
X-664285Y2420678D01*
X-664285Y2420678D02*
X-707142Y2399250D01*
X-921428Y2163535D02*
X-942857Y2142107D01*
X-942857Y2142107D02*
X-921428Y2120678D01*
X-921428Y2120678D02*
X-900000Y2142107D01*
X-900000Y2142107D02*
X-921428Y2163535D01*
X-921428Y2163535D02*
X-921428Y2120678D01*
X-1328572Y2142107D02*
X-1285714Y2120678D01*
X-1285714Y2120678D02*
X-1200000Y2120678D01*
X-1200000Y2120678D02*
X-1157143Y2142107D01*
X-1157143Y2142107D02*
X-1135714Y2163535D01*
X-1135714Y2163535D02*
X-1114286Y2206392D01*
X-1114286Y2206392D02*
X-1114286Y2334964D01*
X-1114286Y2334964D02*
X-1135714Y2377821D01*
X-1135714Y2377821D02*
X-1157143Y2399250D01*
X-1157143Y2399250D02*
X-1200000Y2420678D01*
X-1200000Y2420678D02*
X-1285714Y2420678D01*
X-1285714Y2420678D02*
X-1328572Y2399250D01*
X-1585714Y2120678D02*
X-1542857Y2142107D01*
X-1542857Y2142107D02*
X-1521428Y2163535D01*
X-1521428Y2163535D02*
X-1500000Y2206392D01*
X-1500000Y2206392D02*
X-1500000Y2334964D01*
X-1500000Y2334964D02*
X-1521428Y2377821D01*
X-1521428Y2377821D02*
X-1542857Y2399250D01*
X-1542857Y2399250D02*
X-1585714Y2420678D01*
X-1585714Y2420678D02*
X-1650000Y2420678D01*
X-1650000Y2420678D02*
X-1692857Y2399250D01*
X-1692857Y2399250D02*
X-1714286Y2377821D01*
X-1714286Y2377821D02*
X-1735714Y2334964D01*
X-1735714Y2334964D02*
X-1735714Y2206392D01*
X-1735714Y2206392D02*
X-1714286Y2163535D01*
X-1714286Y2163535D02*
X-1692857Y2142107D01*
X-1692857Y2142107D02*
X-1650000Y2120678D01*
X-1650000Y2120678D02*
X-1585714Y2120678D01*
X-1928571Y2120678D02*
X-1928571Y2420678D01*
X-1928571Y2377821D02*
X-1950000Y2399250D01*
X-1950000Y2399250D02*
X-1992857Y2420678D01*
X-1992857Y2420678D02*
X-2057143Y2420678D01*
X-2057143Y2420678D02*
X-2100000Y2399250D01*
X-2100000Y2399250D02*
X-2121429Y2356392D01*
X-2121429Y2356392D02*
X-2121429Y2120678D01*
X-2121429Y2356392D02*
X-2142857Y2399250D01*
X-2142857Y2399250D02*
X-2185714Y2420678D01*
X-2185714Y2420678D02*
X-2250000Y2420678D01*
X-2250000Y2420678D02*
X-2292857Y2399250D01*
X-2292857Y2399250D02*
X-2314286Y2356392D01*
X-2314286Y2356392D02*
X-2314286Y2120678D01*
D11*
%TO.C,R12*%
X14479835Y-10696584D02*
X14381545Y-10485876D01*
X14594121Y-10498635D02*
X14247711Y-10298635D01*
X14247711Y-10298635D02*
X14171520Y-10430601D01*
X14171520Y-10430601D02*
X14168968Y-10473116D01*
X14168968Y-10473116D02*
X14175940Y-10499136D01*
X14175940Y-10499136D02*
X14199408Y-10534679D01*
X14199408Y-10534679D02*
X14248895Y-10563250D01*
X14248895Y-10563250D02*
X14291410Y-10565802D01*
X14291410Y-10565802D02*
X14317430Y-10558830D01*
X14317430Y-10558830D02*
X14352973Y-10535363D01*
X14352973Y-10535363D02*
X14429164Y-10403397D01*
X14289359Y-11026498D02*
X14403645Y-10828550D01*
X14346502Y-10927524D02*
X14000092Y-10727524D01*
X14000092Y-10727524D02*
X14068627Y-10723104D01*
X14068627Y-10723104D02*
X14120666Y-10709160D01*
X14120666Y-10709160D02*
X14156209Y-10685692D01*
X13899750Y-10977511D02*
X13873731Y-10984483D01*
X13873731Y-10984483D02*
X13838187Y-11007951D01*
X13838187Y-11007951D02*
X13790568Y-11090429D01*
X13790568Y-11090429D02*
X13788016Y-11132945D01*
X13788016Y-11132945D02*
X13794988Y-11158964D01*
X13794988Y-11158964D02*
X13818456Y-11194508D01*
X13818456Y-11194508D02*
X13851447Y-11213555D01*
X13851447Y-11213555D02*
X13910458Y-11225631D01*
X13910458Y-11225631D02*
X14222693Y-11141968D01*
X14222693Y-11141968D02*
X14098883Y-11356412D01*
%TO.C,C40*%
X12478657Y-8683657D02*
X12497704Y-8664609D01*
X12497704Y-8664609D02*
X12516752Y-8607467D01*
X12516752Y-8607467D02*
X12516752Y-8569371D01*
X12516752Y-8569371D02*
X12497704Y-8512228D01*
X12497704Y-8512228D02*
X12459609Y-8474133D01*
X12459609Y-8474133D02*
X12421514Y-8455086D01*
X12421514Y-8455086D02*
X12345323Y-8436038D01*
X12345323Y-8436038D02*
X12288180Y-8436038D01*
X12288180Y-8436038D02*
X12211990Y-8455086D01*
X12211990Y-8455086D02*
X12173895Y-8474133D01*
X12173895Y-8474133D02*
X12135800Y-8512228D01*
X12135800Y-8512228D02*
X12116752Y-8569371D01*
X12116752Y-8569371D02*
X12116752Y-8607467D01*
X12116752Y-8607467D02*
X12135800Y-8664609D01*
X12135800Y-8664609D02*
X12154847Y-8683657D01*
X12250085Y-9026514D02*
X12516752Y-9026514D01*
X12097704Y-8931276D02*
X12383419Y-8836038D01*
X12383419Y-8836038D02*
X12383419Y-9083657D01*
X12116752Y-9312228D02*
X12116752Y-9350323D01*
X12116752Y-9350323D02*
X12135800Y-9388419D01*
X12135800Y-9388419D02*
X12154847Y-9407466D01*
X12154847Y-9407466D02*
X12192942Y-9426514D01*
X12192942Y-9426514D02*
X12269133Y-9445561D01*
X12269133Y-9445561D02*
X12364371Y-9445561D01*
X12364371Y-9445561D02*
X12440561Y-9426514D01*
X12440561Y-9426514D02*
X12478657Y-9407466D01*
X12478657Y-9407466D02*
X12497704Y-9388419D01*
X12497704Y-9388419D02*
X12516752Y-9350323D01*
X12516752Y-9350323D02*
X12516752Y-9312228D01*
X12516752Y-9312228D02*
X12497704Y-9274133D01*
X12497704Y-9274133D02*
X12478657Y-9255085D01*
X12478657Y-9255085D02*
X12440561Y-9236038D01*
X12440561Y-9236038D02*
X12364371Y-9216990D01*
X12364371Y-9216990D02*
X12269133Y-9216990D01*
X12269133Y-9216990D02*
X12192942Y-9236038D01*
X12192942Y-9236038D02*
X12154847Y-9255085D01*
X12154847Y-9255085D02*
X12135800Y-9274133D01*
X12135800Y-9274133D02*
X12116752Y-9312228D01*
D12*
%TO.C,C36*%
X-5705928Y-5901571D02*
X-5682119Y-5877762D01*
X-5682119Y-5877762D02*
X-5658309Y-5806333D01*
X-5658309Y-5806333D02*
X-5658309Y-5758714D01*
X-5658309Y-5758714D02*
X-5682119Y-5687286D01*
X-5682119Y-5687286D02*
X-5729738Y-5639667D01*
X-5729738Y-5639667D02*
X-5777357Y-5615857D01*
X-5777357Y-5615857D02*
X-5872595Y-5592048D01*
X-5872595Y-5592048D02*
X-5944023Y-5592048D01*
X-5944023Y-5592048D02*
X-6039261Y-5615857D01*
X-6039261Y-5615857D02*
X-6086880Y-5639667D01*
X-6086880Y-5639667D02*
X-6134500Y-5687286D01*
X-6134500Y-5687286D02*
X-6158309Y-5758714D01*
X-6158309Y-5758714D02*
X-6158309Y-5806333D01*
X-6158309Y-5806333D02*
X-6134500Y-5877762D01*
X-6134500Y-5877762D02*
X-6110690Y-5901571D01*
X-6158309Y-6068238D02*
X-6158309Y-6377762D01*
X-6158309Y-6377762D02*
X-5967833Y-6211095D01*
X-5967833Y-6211095D02*
X-5967833Y-6282524D01*
X-5967833Y-6282524D02*
X-5944023Y-6330143D01*
X-5944023Y-6330143D02*
X-5920214Y-6353952D01*
X-5920214Y-6353952D02*
X-5872595Y-6377762D01*
X-5872595Y-6377762D02*
X-5753547Y-6377762D01*
X-5753547Y-6377762D02*
X-5705928Y-6353952D01*
X-5705928Y-6353952D02*
X-5682119Y-6330143D01*
X-5682119Y-6330143D02*
X-5658309Y-6282524D01*
X-5658309Y-6282524D02*
X-5658309Y-6139667D01*
X-5658309Y-6139667D02*
X-5682119Y-6092048D01*
X-5682119Y-6092048D02*
X-5705928Y-6068238D01*
X-6158309Y-6806333D02*
X-6158309Y-6711095D01*
X-6158309Y-6711095D02*
X-6134500Y-6663476D01*
X-6134500Y-6663476D02*
X-6110690Y-6639666D01*
X-6110690Y-6639666D02*
X-6039261Y-6592047D01*
X-6039261Y-6592047D02*
X-5944023Y-6568238D01*
X-5944023Y-6568238D02*
X-5753547Y-6568238D01*
X-5753547Y-6568238D02*
X-5705928Y-6592047D01*
X-5705928Y-6592047D02*
X-5682119Y-6615857D01*
X-5682119Y-6615857D02*
X-5658309Y-6663476D01*
X-5658309Y-6663476D02*
X-5658309Y-6758714D01*
X-5658309Y-6758714D02*
X-5682119Y-6806333D01*
X-5682119Y-6806333D02*
X-5705928Y-6830142D01*
X-5705928Y-6830142D02*
X-5753547Y-6853952D01*
X-5753547Y-6853952D02*
X-5872595Y-6853952D01*
X-5872595Y-6853952D02*
X-5920214Y-6830142D01*
X-5920214Y-6830142D02*
X-5944023Y-6806333D01*
X-5944023Y-6806333D02*
X-5967833Y-6758714D01*
X-5967833Y-6758714D02*
X-5967833Y-6663476D01*
X-5967833Y-6663476D02*
X-5944023Y-6615857D01*
X-5944023Y-6615857D02*
X-5920214Y-6592047D01*
X-5920214Y-6592047D02*
X-5872595Y-6568238D01*
%TO.C,J29*%
X7278290Y-9298038D02*
X7635433Y-9298038D01*
X7635433Y-9298038D02*
X7706861Y-9274229D01*
X7706861Y-9274229D02*
X7754480Y-9226610D01*
X7754480Y-9226610D02*
X7778290Y-9155181D01*
X7778290Y-9155181D02*
X7778290Y-9107562D01*
X7325909Y-9512324D02*
X7302100Y-9536133D01*
X7302100Y-9536133D02*
X7278290Y-9583752D01*
X7278290Y-9583752D02*
X7278290Y-9702800D01*
X7278290Y-9702800D02*
X7302100Y-9750419D01*
X7302100Y-9750419D02*
X7325909Y-9774228D01*
X7325909Y-9774228D02*
X7373528Y-9798038D01*
X7373528Y-9798038D02*
X7421147Y-9798038D01*
X7421147Y-9798038D02*
X7492576Y-9774228D01*
X7492576Y-9774228D02*
X7778290Y-9488514D01*
X7778290Y-9488514D02*
X7778290Y-9798038D01*
X7778290Y-10036133D02*
X7778290Y-10131371D01*
X7778290Y-10131371D02*
X7754480Y-10178990D01*
X7754480Y-10178990D02*
X7730671Y-10202799D01*
X7730671Y-10202799D02*
X7659242Y-10250418D01*
X7659242Y-10250418D02*
X7564004Y-10274228D01*
X7564004Y-10274228D02*
X7373528Y-10274228D01*
X7373528Y-10274228D02*
X7325909Y-10250418D01*
X7325909Y-10250418D02*
X7302100Y-10226609D01*
X7302100Y-10226609D02*
X7278290Y-10178990D01*
X7278290Y-10178990D02*
X7278290Y-10083752D01*
X7278290Y-10083752D02*
X7302100Y-10036133D01*
X7302100Y-10036133D02*
X7325909Y-10012323D01*
X7325909Y-10012323D02*
X7373528Y-9988514D01*
X7373528Y-9988514D02*
X7492576Y-9988514D01*
X7492576Y-9988514D02*
X7540195Y-10012323D01*
X7540195Y-10012323D02*
X7564004Y-10036133D01*
X7564004Y-10036133D02*
X7587814Y-10083752D01*
X7587814Y-10083752D02*
X7587814Y-10178990D01*
X7587814Y-10178990D02*
X7564004Y-10226609D01*
X7564004Y-10226609D02*
X7540195Y-10250418D01*
X7540195Y-10250418D02*
X7492576Y-10274228D01*
%TO.C,J28*%
X-12660709Y-10263238D02*
X-12303566Y-10263238D01*
X-12303566Y-10263238D02*
X-12232138Y-10239429D01*
X-12232138Y-10239429D02*
X-12184519Y-10191810D01*
X-12184519Y-10191810D02*
X-12160709Y-10120381D01*
X-12160709Y-10120381D02*
X-12160709Y-10072762D01*
X-12613090Y-10477524D02*
X-12636900Y-10501333D01*
X-12636900Y-10501333D02*
X-12660709Y-10548952D01*
X-12660709Y-10548952D02*
X-12660709Y-10668000D01*
X-12660709Y-10668000D02*
X-12636900Y-10715619D01*
X-12636900Y-10715619D02*
X-12613090Y-10739428D01*
X-12613090Y-10739428D02*
X-12565471Y-10763238D01*
X-12565471Y-10763238D02*
X-12517852Y-10763238D01*
X-12517852Y-10763238D02*
X-12446423Y-10739428D01*
X-12446423Y-10739428D02*
X-12160709Y-10453714D01*
X-12160709Y-10453714D02*
X-12160709Y-10763238D01*
X-12446423Y-11048952D02*
X-12470233Y-11001333D01*
X-12470233Y-11001333D02*
X-12494042Y-10977523D01*
X-12494042Y-10977523D02*
X-12541661Y-10953714D01*
X-12541661Y-10953714D02*
X-12565471Y-10953714D01*
X-12565471Y-10953714D02*
X-12613090Y-10977523D01*
X-12613090Y-10977523D02*
X-12636900Y-11001333D01*
X-12636900Y-11001333D02*
X-12660709Y-11048952D01*
X-12660709Y-11048952D02*
X-12660709Y-11144190D01*
X-12660709Y-11144190D02*
X-12636900Y-11191809D01*
X-12636900Y-11191809D02*
X-12613090Y-11215618D01*
X-12613090Y-11215618D02*
X-12565471Y-11239428D01*
X-12565471Y-11239428D02*
X-12541661Y-11239428D01*
X-12541661Y-11239428D02*
X-12494042Y-11215618D01*
X-12494042Y-11215618D02*
X-12470233Y-11191809D01*
X-12470233Y-11191809D02*
X-12446423Y-11144190D01*
X-12446423Y-11144190D02*
X-12446423Y-11048952D01*
X-12446423Y-11048952D02*
X-12422614Y-11001333D01*
X-12422614Y-11001333D02*
X-12398804Y-10977523D01*
X-12398804Y-10977523D02*
X-12351185Y-10953714D01*
X-12351185Y-10953714D02*
X-12255947Y-10953714D01*
X-12255947Y-10953714D02*
X-12208328Y-10977523D01*
X-12208328Y-10977523D02*
X-12184519Y-11001333D01*
X-12184519Y-11001333D02*
X-12160709Y-11048952D01*
X-12160709Y-11048952D02*
X-12160709Y-11144190D01*
X-12160709Y-11144190D02*
X-12184519Y-11191809D01*
X-12184519Y-11191809D02*
X-12208328Y-11215618D01*
X-12208328Y-11215618D02*
X-12255947Y-11239428D01*
X-12255947Y-11239428D02*
X-12351185Y-11239428D01*
X-12351185Y-11239428D02*
X-12398804Y-11215618D01*
X-12398804Y-11215618D02*
X-12422614Y-11191809D01*
X-12422614Y-11191809D02*
X-12446423Y-11144190D01*
%TO.C,R6*%
X-7918909Y-3929866D02*
X-8157004Y-3763200D01*
X-7918909Y-3644152D02*
X-8418909Y-3644152D01*
X-8418909Y-3644152D02*
X-8418909Y-3834628D01*
X-8418909Y-3834628D02*
X-8395100Y-3882247D01*
X-8395100Y-3882247D02*
X-8371290Y-3906057D01*
X-8371290Y-3906057D02*
X-8323671Y-3929866D01*
X-8323671Y-3929866D02*
X-8252242Y-3929866D01*
X-8252242Y-3929866D02*
X-8204623Y-3906057D01*
X-8204623Y-3906057D02*
X-8180814Y-3882247D01*
X-8180814Y-3882247D02*
X-8157004Y-3834628D01*
X-8157004Y-3834628D02*
X-8157004Y-3644152D01*
X-8418909Y-4358438D02*
X-8418909Y-4263200D01*
X-8418909Y-4263200D02*
X-8395100Y-4215581D01*
X-8395100Y-4215581D02*
X-8371290Y-4191771D01*
X-8371290Y-4191771D02*
X-8299861Y-4144152D01*
X-8299861Y-4144152D02*
X-8204623Y-4120343D01*
X-8204623Y-4120343D02*
X-8014147Y-4120343D01*
X-8014147Y-4120343D02*
X-7966528Y-4144152D01*
X-7966528Y-4144152D02*
X-7942719Y-4167962D01*
X-7942719Y-4167962D02*
X-7918909Y-4215581D01*
X-7918909Y-4215581D02*
X-7918909Y-4310819D01*
X-7918909Y-4310819D02*
X-7942719Y-4358438D01*
X-7942719Y-4358438D02*
X-7966528Y-4382247D01*
X-7966528Y-4382247D02*
X-8014147Y-4406057D01*
X-8014147Y-4406057D02*
X-8133195Y-4406057D01*
X-8133195Y-4406057D02*
X-8180814Y-4382247D01*
X-8180814Y-4382247D02*
X-8204623Y-4358438D01*
X-8204623Y-4358438D02*
X-8228433Y-4310819D01*
X-8228433Y-4310819D02*
X-8228433Y-4215581D01*
X-8228433Y-4215581D02*
X-8204623Y-4167962D01*
X-8204623Y-4167962D02*
X-8180814Y-4144152D01*
X-8180814Y-4144152D02*
X-8133195Y-4120343D01*
%TO.C,C22*%
X-3742571Y6975928D02*
X-3718762Y6952119D01*
X-3718762Y6952119D02*
X-3647333Y6928309D01*
X-3647333Y6928309D02*
X-3599714Y6928309D01*
X-3599714Y6928309D02*
X-3528286Y6952119D01*
X-3528286Y6952119D02*
X-3480667Y6999738D01*
X-3480667Y6999738D02*
X-3456857Y7047357D01*
X-3456857Y7047357D02*
X-3433048Y7142595D01*
X-3433048Y7142595D02*
X-3433048Y7214023D01*
X-3433048Y7214023D02*
X-3456857Y7309261D01*
X-3456857Y7309261D02*
X-3480667Y7356880D01*
X-3480667Y7356880D02*
X-3528286Y7404500D01*
X-3528286Y7404500D02*
X-3599714Y7428309D01*
X-3599714Y7428309D02*
X-3647333Y7428309D01*
X-3647333Y7428309D02*
X-3718762Y7404500D01*
X-3718762Y7404500D02*
X-3742571Y7380690D01*
X-3933048Y7380690D02*
X-3956857Y7404500D01*
X-3956857Y7404500D02*
X-4004476Y7428309D01*
X-4004476Y7428309D02*
X-4123524Y7428309D01*
X-4123524Y7428309D02*
X-4171143Y7404500D01*
X-4171143Y7404500D02*
X-4194952Y7380690D01*
X-4194952Y7380690D02*
X-4218762Y7333071D01*
X-4218762Y7333071D02*
X-4218762Y7285452D01*
X-4218762Y7285452D02*
X-4194952Y7214023D01*
X-4194952Y7214023D02*
X-3909238Y6928309D01*
X-3909238Y6928309D02*
X-4218762Y6928309D01*
X-4409238Y7380690D02*
X-4433047Y7404500D01*
X-4433047Y7404500D02*
X-4480666Y7428309D01*
X-4480666Y7428309D02*
X-4599714Y7428309D01*
X-4599714Y7428309D02*
X-4647333Y7404500D01*
X-4647333Y7404500D02*
X-4671142Y7380690D01*
X-4671142Y7380690D02*
X-4694952Y7333071D01*
X-4694952Y7333071D02*
X-4694952Y7285452D01*
X-4694952Y7285452D02*
X-4671142Y7214023D01*
X-4671142Y7214023D02*
X-4385428Y6928309D01*
X-4385428Y6928309D02*
X-4694952Y6928309D01*
%TO.C,J31*%
X13679778Y-6076887D02*
X13858350Y-6386182D01*
X13858350Y-6386182D02*
X13914684Y-6436136D01*
X13914684Y-6436136D02*
X13979732Y-6453566D01*
X13979732Y-6453566D02*
X14053496Y-6438471D01*
X14053496Y-6438471D02*
X14094735Y-6414661D01*
X13514821Y-6172125D02*
X13246766Y-6326887D01*
X13246766Y-6326887D02*
X13486342Y-6408510D01*
X13486342Y-6408510D02*
X13424483Y-6444225D01*
X13424483Y-6444225D02*
X13395148Y-6488654D01*
X13395148Y-6488654D02*
X13386433Y-6521178D01*
X13386433Y-6521178D02*
X13389623Y-6574322D01*
X13389623Y-6574322D02*
X13449147Y-6677421D01*
X13449147Y-6677421D02*
X13493576Y-6706755D01*
X13493576Y-6706755D02*
X13526100Y-6715470D01*
X13526100Y-6715470D02*
X13579244Y-6712280D01*
X13579244Y-6712280D02*
X13702962Y-6640852D01*
X13702962Y-6640852D02*
X13732297Y-6596423D01*
X13732297Y-6596423D02*
X13741012Y-6563898D01*
X13084373Y-6997994D02*
X13331809Y-6855137D01*
X13208091Y-6926566D02*
X12958091Y-6493553D01*
X12958091Y-6493553D02*
X13035045Y-6531602D01*
X13035045Y-6531602D02*
X13100094Y-6549032D01*
X13100094Y-6549032D02*
X13153238Y-6545842D01*
%TO.C,C3*%
X-18414974Y-10757404D02*
X-18423689Y-10789928D01*
X-18423689Y-10789928D02*
X-18408595Y-10863692D01*
X-18408595Y-10863692D02*
X-18384785Y-10904931D01*
X-18384785Y-10904931D02*
X-18328451Y-10954885D01*
X-18328451Y-10954885D02*
X-18263402Y-10972315D01*
X-18263402Y-10972315D02*
X-18210258Y-10969125D01*
X-18210258Y-10969125D02*
X-18115875Y-10942126D01*
X-18115875Y-10942126D02*
X-18054016Y-10906412D01*
X-18054016Y-10906412D02*
X-17983442Y-10838173D01*
X-17983442Y-10838173D02*
X-17954107Y-10793744D01*
X-17954107Y-10793744D02*
X-17936678Y-10728695D01*
X-17936678Y-10728695D02*
X-17951772Y-10654931D01*
X-17951772Y-10654931D02*
X-17975582Y-10613692D01*
X-17975582Y-10613692D02*
X-18031916Y-10563738D01*
X-18031916Y-10563738D02*
X-18064440Y-10555023D01*
X-18106534Y-10386876D02*
X-18261296Y-10118820D01*
X-18261296Y-10118820D02*
X-18342920Y-10358396D01*
X-18342920Y-10358396D02*
X-18378634Y-10296537D01*
X-18378634Y-10296537D02*
X-18423063Y-10267202D01*
X-18423063Y-10267202D02*
X-18455588Y-10258488D01*
X-18455588Y-10258488D02*
X-18508732Y-10261677D01*
X-18508732Y-10261677D02*
X-18611830Y-10321201D01*
X-18611830Y-10321201D02*
X-18641165Y-10365630D01*
X-18641165Y-10365630D02*
X-18649880Y-10398155D01*
X-18649880Y-10398155D02*
X-18646690Y-10451299D01*
X-18646690Y-10451299D02*
X-18575261Y-10575017D01*
X-18575261Y-10575017D02*
X-18530832Y-10604351D01*
X-18530832Y-10604351D02*
X-18498308Y-10613066D01*
%TO.C,C20*%
X-5812533Y-11093101D02*
X-5812533Y-11126772D01*
X-5812533Y-11126772D02*
X-5778861Y-11194116D01*
X-5778861Y-11194116D02*
X-5745189Y-11227788D01*
X-5745189Y-11227788D02*
X-5677846Y-11261459D01*
X-5677846Y-11261459D02*
X-5610502Y-11261459D01*
X-5610502Y-11261459D02*
X-5559994Y-11244623D01*
X-5559994Y-11244623D02*
X-5475815Y-11194116D01*
X-5475815Y-11194116D02*
X-5425307Y-11143608D01*
X-5425307Y-11143608D02*
X-5374800Y-11059429D01*
X-5374800Y-11059429D02*
X-5357964Y-11008921D01*
X-5357964Y-11008921D02*
X-5357964Y-10941578D01*
X-5357964Y-10941578D02*
X-5391636Y-10874234D01*
X-5391636Y-10874234D02*
X-5425307Y-10840562D01*
X-5425307Y-10840562D02*
X-5492651Y-10806891D01*
X-5492651Y-10806891D02*
X-5526323Y-10806891D01*
X-5661010Y-10672204D02*
X-5661010Y-10638532D01*
X-5661010Y-10638532D02*
X-5677846Y-10588024D01*
X-5677846Y-10588024D02*
X-5762025Y-10503845D01*
X-5762025Y-10503845D02*
X-5812533Y-10487009D01*
X-5812533Y-10487009D02*
X-5846204Y-10487009D01*
X-5846204Y-10487009D02*
X-5896712Y-10503845D01*
X-5896712Y-10503845D02*
X-5930384Y-10537517D01*
X-5930384Y-10537517D02*
X-5964055Y-10604860D01*
X-5964055Y-10604860D02*
X-5964055Y-11008921D01*
X-5964055Y-11008921D02*
X-6182922Y-10790055D01*
X-6048234Y-10217635D02*
X-6081906Y-10183964D01*
X-6081906Y-10183964D02*
X-6132414Y-10167128D01*
X-6132414Y-10167128D02*
X-6166086Y-10167128D01*
X-6166086Y-10167128D02*
X-6216593Y-10183964D01*
X-6216593Y-10183964D02*
X-6300773Y-10234471D01*
X-6300773Y-10234471D02*
X-6384952Y-10318651D01*
X-6384952Y-10318651D02*
X-6435460Y-10402830D01*
X-6435460Y-10402830D02*
X-6452295Y-10453338D01*
X-6452295Y-10453338D02*
X-6452295Y-10487009D01*
X-6452295Y-10487009D02*
X-6435460Y-10537517D01*
X-6435460Y-10537517D02*
X-6401788Y-10571189D01*
X-6401788Y-10571189D02*
X-6351280Y-10588025D01*
X-6351280Y-10588025D02*
X-6317608Y-10588025D01*
X-6317608Y-10588025D02*
X-6267101Y-10571189D01*
X-6267101Y-10571189D02*
X-6182921Y-10520681D01*
X-6182921Y-10520681D02*
X-6098742Y-10436502D01*
X-6098742Y-10436502D02*
X-6048234Y-10352322D01*
X-6048234Y-10352322D02*
X-6031399Y-10301815D01*
X-6031399Y-10301815D02*
X-6031399Y-10268143D01*
X-6031399Y-10268143D02*
X-6048234Y-10217635D01*
%TO.C,C35*%
X-2218571Y-11185071D02*
X-2194762Y-11208880D01*
X-2194762Y-11208880D02*
X-2123333Y-11232690D01*
X-2123333Y-11232690D02*
X-2075714Y-11232690D01*
X-2075714Y-11232690D02*
X-2004286Y-11208880D01*
X-2004286Y-11208880D02*
X-1956667Y-11161261D01*
X-1956667Y-11161261D02*
X-1932857Y-11113642D01*
X-1932857Y-11113642D02*
X-1909048Y-11018404D01*
X-1909048Y-11018404D02*
X-1909048Y-10946976D01*
X-1909048Y-10946976D02*
X-1932857Y-10851738D01*
X-1932857Y-10851738D02*
X-1956667Y-10804119D01*
X-1956667Y-10804119D02*
X-2004286Y-10756500D01*
X-2004286Y-10756500D02*
X-2075714Y-10732690D01*
X-2075714Y-10732690D02*
X-2123333Y-10732690D01*
X-2123333Y-10732690D02*
X-2194762Y-10756500D01*
X-2194762Y-10756500D02*
X-2218571Y-10780309D01*
X-2385238Y-10732690D02*
X-2694762Y-10732690D01*
X-2694762Y-10732690D02*
X-2528095Y-10923166D01*
X-2528095Y-10923166D02*
X-2599524Y-10923166D01*
X-2599524Y-10923166D02*
X-2647143Y-10946976D01*
X-2647143Y-10946976D02*
X-2670952Y-10970785D01*
X-2670952Y-10970785D02*
X-2694762Y-11018404D01*
X-2694762Y-11018404D02*
X-2694762Y-11137452D01*
X-2694762Y-11137452D02*
X-2670952Y-11185071D01*
X-2670952Y-11185071D02*
X-2647143Y-11208880D01*
X-2647143Y-11208880D02*
X-2599524Y-11232690D01*
X-2599524Y-11232690D02*
X-2456667Y-11232690D01*
X-2456667Y-11232690D02*
X-2409048Y-11208880D01*
X-2409048Y-11208880D02*
X-2385238Y-11185071D01*
X-3147142Y-10732690D02*
X-2909047Y-10732690D01*
X-2909047Y-10732690D02*
X-2885238Y-10970785D01*
X-2885238Y-10970785D02*
X-2909047Y-10946976D01*
X-2909047Y-10946976D02*
X-2956666Y-10923166D01*
X-2956666Y-10923166D02*
X-3075714Y-10923166D01*
X-3075714Y-10923166D02*
X-3123333Y-10946976D01*
X-3123333Y-10946976D02*
X-3147142Y-10970785D01*
X-3147142Y-10970785D02*
X-3170952Y-11018404D01*
X-3170952Y-11018404D02*
X-3170952Y-11137452D01*
X-3170952Y-11137452D02*
X-3147142Y-11185071D01*
X-3147142Y-11185071D02*
X-3123333Y-11208880D01*
X-3123333Y-11208880D02*
X-3075714Y-11232690D01*
X-3075714Y-11232690D02*
X-2956666Y-11232690D01*
X-2956666Y-11232690D02*
X-2909047Y-11208880D01*
X-2909047Y-11208880D02*
X-2885238Y-11185071D01*
%TO.C,C2*%
X10351091Y-5884867D02*
X10383616Y-5876152D01*
X10383616Y-5876152D02*
X10439950Y-5826198D01*
X10439950Y-5826198D02*
X10463759Y-5784958D01*
X10463759Y-5784958D02*
X10478854Y-5711195D01*
X10478854Y-5711195D02*
X10461424Y-5646146D01*
X10461424Y-5646146D02*
X10432090Y-5601717D01*
X10432090Y-5601717D02*
X10361516Y-5533478D01*
X10361516Y-5533478D02*
X10299657Y-5497764D01*
X10299657Y-5497764D02*
X10205273Y-5470764D01*
X10205273Y-5470764D02*
X10152129Y-5467574D01*
X10152129Y-5467574D02*
X10087080Y-5485004D01*
X10087080Y-5485004D02*
X10030747Y-5534958D01*
X10030747Y-5534958D02*
X10006937Y-5576198D01*
X10006937Y-5576198D02*
X9991842Y-5649961D01*
X9991842Y-5649961D02*
X10000557Y-5682486D01*
X9905319Y-5847443D02*
X9872795Y-5856158D01*
X9872795Y-5856158D02*
X9828366Y-5885492D01*
X9828366Y-5885492D02*
X9768842Y-5988591D01*
X9768842Y-5988591D02*
X9765652Y-6041735D01*
X9765652Y-6041735D02*
X9774367Y-6074259D01*
X9774367Y-6074259D02*
X9803701Y-6118688D01*
X9803701Y-6118688D02*
X9844941Y-6142498D01*
X9844941Y-6142498D02*
X9918704Y-6157592D01*
X9918704Y-6157592D02*
X10308997Y-6053014D01*
X10308997Y-6053014D02*
X10154235Y-6321069D01*
%TO.C,C1*%
X18574507Y-10663867D02*
X18607032Y-10655152D01*
X18607032Y-10655152D02*
X18663366Y-10605198D01*
X18663366Y-10605198D02*
X18687175Y-10563958D01*
X18687175Y-10563958D02*
X18702270Y-10490195D01*
X18702270Y-10490195D02*
X18684840Y-10425146D01*
X18684840Y-10425146D02*
X18655506Y-10380717D01*
X18655506Y-10380717D02*
X18584932Y-10312478D01*
X18584932Y-10312478D02*
X18523073Y-10276764D01*
X18523073Y-10276764D02*
X18428689Y-10249764D01*
X18428689Y-10249764D02*
X18375545Y-10246574D01*
X18375545Y-10246574D02*
X18310496Y-10264004D01*
X18310496Y-10264004D02*
X18254163Y-10313958D01*
X18254163Y-10313958D02*
X18230353Y-10355198D01*
X18230353Y-10355198D02*
X18215258Y-10428961D01*
X18215258Y-10428961D02*
X18223973Y-10461486D01*
X18377651Y-11100069D02*
X18520509Y-10852633D01*
X18449080Y-10976351D02*
X18016067Y-10726351D01*
X18016067Y-10726351D02*
X18101736Y-10720826D01*
X18101736Y-10720826D02*
X18166785Y-10703396D01*
X18166785Y-10703396D02*
X18211214Y-10674062D01*
%TO.C,C5*%
X2066471Y3692733D02*
X2090280Y3716542D01*
X2090280Y3716542D02*
X2114090Y3787971D01*
X2114090Y3787971D02*
X2114090Y3835590D01*
X2114090Y3835590D02*
X2090280Y3907018D01*
X2090280Y3907018D02*
X2042661Y3954637D01*
X2042661Y3954637D02*
X1995042Y3978447D01*
X1995042Y3978447D02*
X1899804Y4002256D01*
X1899804Y4002256D02*
X1828376Y4002256D01*
X1828376Y4002256D02*
X1733138Y3978447D01*
X1733138Y3978447D02*
X1685519Y3954637D01*
X1685519Y3954637D02*
X1637900Y3907018D01*
X1637900Y3907018D02*
X1614090Y3835590D01*
X1614090Y3835590D02*
X1614090Y3787971D01*
X1614090Y3787971D02*
X1637900Y3716542D01*
X1637900Y3716542D02*
X1661709Y3692733D01*
X1614090Y3240352D02*
X1614090Y3478447D01*
X1614090Y3478447D02*
X1852185Y3502256D01*
X1852185Y3502256D02*
X1828376Y3478447D01*
X1828376Y3478447D02*
X1804566Y3430828D01*
X1804566Y3430828D02*
X1804566Y3311780D01*
X1804566Y3311780D02*
X1828376Y3264161D01*
X1828376Y3264161D02*
X1852185Y3240352D01*
X1852185Y3240352D02*
X1899804Y3216542D01*
X1899804Y3216542D02*
X2018852Y3216542D01*
X2018852Y3216542D02*
X2066471Y3240352D01*
X2066471Y3240352D02*
X2090280Y3264161D01*
X2090280Y3264161D02*
X2114090Y3311780D01*
X2114090Y3311780D02*
X2114090Y3430828D01*
X2114090Y3430828D02*
X2090280Y3478447D01*
X2090280Y3478447D02*
X2066471Y3502256D01*
%TO.C,C11*%
X-7119928Y8929428D02*
X-7096119Y8953237D01*
X-7096119Y8953237D02*
X-7072309Y9024666D01*
X-7072309Y9024666D02*
X-7072309Y9072285D01*
X-7072309Y9072285D02*
X-7096119Y9143713D01*
X-7096119Y9143713D02*
X-7143738Y9191332D01*
X-7143738Y9191332D02*
X-7191357Y9215142D01*
X-7191357Y9215142D02*
X-7286595Y9238951D01*
X-7286595Y9238951D02*
X-7358023Y9238951D01*
X-7358023Y9238951D02*
X-7453261Y9215142D01*
X-7453261Y9215142D02*
X-7500880Y9191332D01*
X-7500880Y9191332D02*
X-7548500Y9143713D01*
X-7548500Y9143713D02*
X-7572309Y9072285D01*
X-7572309Y9072285D02*
X-7572309Y9024666D01*
X-7572309Y9024666D02*
X-7548500Y8953237D01*
X-7548500Y8953237D02*
X-7524690Y8929428D01*
X-7072309Y8453237D02*
X-7072309Y8738951D01*
X-7072309Y8596094D02*
X-7572309Y8596094D01*
X-7572309Y8596094D02*
X-7500880Y8643713D01*
X-7500880Y8643713D02*
X-7453261Y8691332D01*
X-7453261Y8691332D02*
X-7429452Y8738951D01*
X-7072309Y7977047D02*
X-7072309Y8262761D01*
X-7072309Y8119904D02*
X-7572309Y8119904D01*
X-7572309Y8119904D02*
X-7500880Y8167523D01*
X-7500880Y8167523D02*
X-7453261Y8215142D01*
X-7453261Y8215142D02*
X-7429452Y8262761D01*
%TO.C,U6*%
X3677909Y-9387561D02*
X3964119Y-9673771D01*
X3964119Y-9673771D02*
X3980955Y-9724278D01*
X3980955Y-9724278D02*
X3980955Y-9757950D01*
X3980955Y-9757950D02*
X3964119Y-9808458D01*
X3964119Y-9808458D02*
X3896775Y-9875801D01*
X3896775Y-9875801D02*
X3846268Y-9892637D01*
X3846268Y-9892637D02*
X3812596Y-9892637D01*
X3812596Y-9892637D02*
X3762088Y-9875801D01*
X3762088Y-9875801D02*
X3475878Y-9589591D01*
X3155996Y-9909473D02*
X3223340Y-9842130D01*
X3223340Y-9842130D02*
X3273848Y-9825294D01*
X3273848Y-9825294D02*
X3307519Y-9825294D01*
X3307519Y-9825294D02*
X3391699Y-9842130D01*
X3391699Y-9842130D02*
X3475878Y-9892637D01*
X3475878Y-9892637D02*
X3610565Y-10027324D01*
X3610565Y-10027324D02*
X3627401Y-10077832D01*
X3627401Y-10077832D02*
X3627401Y-10111504D01*
X3627401Y-10111504D02*
X3610565Y-10162011D01*
X3610565Y-10162011D02*
X3543222Y-10229355D01*
X3543222Y-10229355D02*
X3492714Y-10246191D01*
X3492714Y-10246191D02*
X3459042Y-10246191D01*
X3459042Y-10246191D02*
X3408535Y-10229355D01*
X3408535Y-10229355D02*
X3324355Y-10145176D01*
X3324355Y-10145176D02*
X3307519Y-10094668D01*
X3307519Y-10094668D02*
X3307519Y-10060996D01*
X3307519Y-10060996D02*
X3324355Y-10010489D01*
X3324355Y-10010489D02*
X3391699Y-9943145D01*
X3391699Y-9943145D02*
X3442206Y-9926309D01*
X3442206Y-9926309D02*
X3475878Y-9926309D01*
X3475878Y-9926309D02*
X3526386Y-9943145D01*
%TO.C,C21*%
X1939471Y1337428D02*
X1963280Y1361237D01*
X1963280Y1361237D02*
X1987090Y1432666D01*
X1987090Y1432666D02*
X1987090Y1480285D01*
X1987090Y1480285D02*
X1963280Y1551713D01*
X1963280Y1551713D02*
X1915661Y1599332D01*
X1915661Y1599332D02*
X1868042Y1623142D01*
X1868042Y1623142D02*
X1772804Y1646951D01*
X1772804Y1646951D02*
X1701376Y1646951D01*
X1701376Y1646951D02*
X1606138Y1623142D01*
X1606138Y1623142D02*
X1558519Y1599332D01*
X1558519Y1599332D02*
X1510900Y1551713D01*
X1510900Y1551713D02*
X1487090Y1480285D01*
X1487090Y1480285D02*
X1487090Y1432666D01*
X1487090Y1432666D02*
X1510900Y1361237D01*
X1510900Y1361237D02*
X1534709Y1337428D01*
X1534709Y1146951D02*
X1510900Y1123142D01*
X1510900Y1123142D02*
X1487090Y1075523D01*
X1487090Y1075523D02*
X1487090Y956475D01*
X1487090Y956475D02*
X1510900Y908856D01*
X1510900Y908856D02*
X1534709Y885047D01*
X1534709Y885047D02*
X1582328Y861237D01*
X1582328Y861237D02*
X1629947Y861237D01*
X1629947Y861237D02*
X1701376Y885047D01*
X1701376Y885047D02*
X1987090Y1170761D01*
X1987090Y1170761D02*
X1987090Y861237D01*
X1987090Y385047D02*
X1987090Y670761D01*
X1987090Y527904D02*
X1487090Y527904D01*
X1487090Y527904D02*
X1558519Y575523D01*
X1558519Y575523D02*
X1606138Y623142D01*
X1606138Y623142D02*
X1629947Y670761D01*
%TO.C,U4*%
X-13163240Y-10330591D02*
X-12960859Y-10681125D01*
X-12960859Y-10681125D02*
X-12957669Y-10734269D01*
X-12957669Y-10734269D02*
X-12966384Y-10766794D01*
X-12966384Y-10766794D02*
X-12995718Y-10811223D01*
X-12995718Y-10811223D02*
X-13078197Y-10858842D01*
X-13078197Y-10858842D02*
X-13131341Y-10862032D01*
X-13131341Y-10862032D02*
X-13163866Y-10853317D01*
X-13163866Y-10853317D02*
X-13208295Y-10823982D01*
X-13208295Y-10823982D02*
X-13410676Y-10473448D01*
X-13719116Y-10843977D02*
X-13552449Y-11132652D01*
X-13711256Y-10619496D02*
X-13429586Y-10869267D01*
X-13429586Y-10869267D02*
X-13697642Y-11024029D01*
%TO.C,J32*%
X-4444311Y11501551D02*
X-4622883Y11192256D01*
X-4622883Y11192256D02*
X-4637977Y11118492D01*
X-4637977Y11118492D02*
X-4620548Y11053444D01*
X-4620548Y11053444D02*
X-4570593Y10997110D01*
X-4570593Y10997110D02*
X-4529354Y10973300D01*
X-4609268Y11596789D02*
X-4877324Y11751551D01*
X-4877324Y11751551D02*
X-4828224Y11503260D01*
X-4828224Y11503260D02*
X-4890083Y11538975D01*
X-4890083Y11538975D02*
X-4943227Y11542164D01*
X-4943227Y11542164D02*
X-4975752Y11533449D01*
X-4975752Y11533449D02*
X-5020181Y11504115D01*
X-5020181Y11504115D02*
X-5079705Y11401017D01*
X-5079705Y11401017D02*
X-5082894Y11347873D01*
X-5082894Y11347873D02*
X-5074180Y11315348D01*
X-5074180Y11315348D02*
X-5044845Y11270919D01*
X-5044845Y11270919D02*
X-4921127Y11199490D01*
X-4921127Y11199490D02*
X-4867983Y11196301D01*
X-4867983Y11196301D02*
X-4835459Y11205015D01*
X-5066090Y11805549D02*
X-5074805Y11838074D01*
X-5074805Y11838074D02*
X-5104139Y11882503D01*
X-5104139Y11882503D02*
X-5207238Y11942027D01*
X-5207238Y11942027D02*
X-5260382Y11945217D01*
X-5260382Y11945217D02*
X-5292906Y11936502D01*
X-5292906Y11936502D02*
X-5337335Y11907167D01*
X-5337335Y11907167D02*
X-5361145Y11865928D01*
X-5361145Y11865928D02*
X-5376239Y11792164D01*
X-5376239Y11792164D02*
X-5271661Y11401871D01*
X-5271661Y11401871D02*
X-5539716Y11556633D01*
%TO.C,U10*%
X619047Y4837509D02*
X619047Y4432747D01*
X619047Y4432747D02*
X595237Y4385128D01*
X595237Y4385128D02*
X571428Y4361319D01*
X571428Y4361319D02*
X523809Y4337509D01*
X523809Y4337509D02*
X428571Y4337509D01*
X428571Y4337509D02*
X380952Y4361319D01*
X380952Y4361319D02*
X357142Y4385128D01*
X357142Y4385128D02*
X333333Y4432747D01*
X333333Y4432747D02*
X333333Y4837509D01*
X-166667Y4337509D02*
X119046Y4337509D01*
X-23810Y4337509D02*
X-23810Y4837509D01*
X-23810Y4837509D02*
X23808Y4766080D01*
X23808Y4766080D02*
X71427Y4718461D01*
X71427Y4718461D02*
X119046Y4694652D01*
X-476190Y4837509D02*
X-523809Y4837509D01*
X-523809Y4837509D02*
X-571428Y4813700D01*
X-571428Y4813700D02*
X-595238Y4789890D01*
X-595238Y4789890D02*
X-619047Y4742271D01*
X-619047Y4742271D02*
X-642857Y4647033D01*
X-642857Y4647033D02*
X-642857Y4527985D01*
X-642857Y4527985D02*
X-619047Y4432747D01*
X-619047Y4432747D02*
X-595238Y4385128D01*
X-595238Y4385128D02*
X-571428Y4361319D01*
X-571428Y4361319D02*
X-523809Y4337509D01*
X-523809Y4337509D02*
X-476190Y4337509D01*
X-476190Y4337509D02*
X-428571Y4361319D01*
X-428571Y4361319D02*
X-404762Y4385128D01*
X-404762Y4385128D02*
X-380952Y4432747D01*
X-380952Y4432747D02*
X-357143Y4527985D01*
X-357143Y4527985D02*
X-357143Y4647033D01*
X-357143Y4647033D02*
X-380952Y4742271D01*
X-380952Y4742271D02*
X-404762Y4789890D01*
X-404762Y4789890D02*
X-428571Y4813700D01*
X-428571Y4813700D02*
X-476190Y4837509D01*
%TO.C,C12*%
X-1362528Y3699628D02*
X-1338719Y3723437D01*
X-1338719Y3723437D02*
X-1314909Y3794866D01*
X-1314909Y3794866D02*
X-1314909Y3842485D01*
X-1314909Y3842485D02*
X-1338719Y3913913D01*
X-1338719Y3913913D02*
X-1386338Y3961532D01*
X-1386338Y3961532D02*
X-1433957Y3985342D01*
X-1433957Y3985342D02*
X-1529195Y4009151D01*
X-1529195Y4009151D02*
X-1600623Y4009151D01*
X-1600623Y4009151D02*
X-1695861Y3985342D01*
X-1695861Y3985342D02*
X-1743480Y3961532D01*
X-1743480Y3961532D02*
X-1791100Y3913913D01*
X-1791100Y3913913D02*
X-1814909Y3842485D01*
X-1814909Y3842485D02*
X-1814909Y3794866D01*
X-1814909Y3794866D02*
X-1791100Y3723437D01*
X-1791100Y3723437D02*
X-1767290Y3699628D01*
X-1314909Y3223437D02*
X-1314909Y3509151D01*
X-1314909Y3366294D02*
X-1814909Y3366294D01*
X-1814909Y3366294D02*
X-1743480Y3413913D01*
X-1743480Y3413913D02*
X-1695861Y3461532D01*
X-1695861Y3461532D02*
X-1672052Y3509151D01*
X-1767290Y3032961D02*
X-1791100Y3009152D01*
X-1791100Y3009152D02*
X-1814909Y2961533D01*
X-1814909Y2961533D02*
X-1814909Y2842485D01*
X-1814909Y2842485D02*
X-1791100Y2794866D01*
X-1791100Y2794866D02*
X-1767290Y2771057D01*
X-1767290Y2771057D02*
X-1719671Y2747247D01*
X-1719671Y2747247D02*
X-1672052Y2747247D01*
X-1672052Y2747247D02*
X-1600623Y2771057D01*
X-1600623Y2771057D02*
X-1314909Y3056771D01*
X-1314909Y3056771D02*
X-1314909Y2747247D01*
%TO.C,R8*%
X-9654452Y-1950076D02*
X-9777316Y-1686691D01*
X-9511595Y-1702640D02*
X-9944608Y-1452640D01*
X-9944608Y-1452640D02*
X-10039846Y-1617598D01*
X-10039846Y-1617598D02*
X-10043036Y-1670742D01*
X-10043036Y-1670742D02*
X-10034321Y-1703266D01*
X-10034321Y-1703266D02*
X-10004986Y-1747695D01*
X-10004986Y-1747695D02*
X-9943127Y-1783409D01*
X-9943127Y-1783409D02*
X-9889983Y-1786599D01*
X-9889983Y-1786599D02*
X-9857459Y-1777884D01*
X-9857459Y-1777884D02*
X-9813030Y-1748550D01*
X-9813030Y-1748550D02*
X-9717792Y-1583593D01*
X-10044745Y-2054655D02*
X-10041555Y-2001511D01*
X-10041555Y-2001511D02*
X-10050270Y-1968986D01*
X-10050270Y-1968986D02*
X-10079605Y-1924557D01*
X-10079605Y-1924557D02*
X-10100225Y-1912652D01*
X-10100225Y-1912652D02*
X-10153369Y-1909463D01*
X-10153369Y-1909463D02*
X-10185893Y-1918177D01*
X-10185893Y-1918177D02*
X-10230322Y-1947512D01*
X-10230322Y-1947512D02*
X-10277941Y-2029991D01*
X-10277941Y-2029991D02*
X-10281131Y-2083135D01*
X-10281131Y-2083135D02*
X-10272416Y-2115659D01*
X-10272416Y-2115659D02*
X-10243082Y-2160088D01*
X-10243082Y-2160088D02*
X-10222462Y-2171993D01*
X-10222462Y-2171993D02*
X-10169318Y-2175183D01*
X-10169318Y-2175183D02*
X-10136794Y-2166468D01*
X-10136794Y-2166468D02*
X-10092364Y-2137133D01*
X-10092364Y-2137133D02*
X-10044745Y-2054655D01*
X-10044745Y-2054655D02*
X-10000316Y-2025320D01*
X-10000316Y-2025320D02*
X-9967792Y-2016605D01*
X-9967792Y-2016605D02*
X-9914648Y-2019795D01*
X-9914648Y-2019795D02*
X-9832169Y-2067414D01*
X-9832169Y-2067414D02*
X-9802834Y-2111844D01*
X-9802834Y-2111844D02*
X-9794120Y-2144368D01*
X-9794120Y-2144368D02*
X-9797309Y-2197512D01*
X-9797309Y-2197512D02*
X-9844929Y-2279991D01*
X-9844929Y-2279991D02*
X-9889358Y-2309325D01*
X-9889358Y-2309325D02*
X-9921882Y-2318040D01*
X-9921882Y-2318040D02*
X-9975026Y-2314850D01*
X-9975026Y-2314850D02*
X-10057505Y-2267231D01*
X-10057505Y-2267231D02*
X-10086839Y-2222802D01*
X-10086839Y-2222802D02*
X-10095554Y-2190278D01*
X-10095554Y-2190278D02*
X-10092364Y-2137133D01*
%TO.C,U3*%
X9891038Y5415290D02*
X9604828Y5129080D01*
X9604828Y5129080D02*
X9554321Y5112244D01*
X9554321Y5112244D02*
X9520649Y5112244D01*
X9520649Y5112244D02*
X9470141Y5129080D01*
X9470141Y5129080D02*
X9402798Y5196424D01*
X9402798Y5196424D02*
X9385962Y5246931D01*
X9385962Y5246931D02*
X9385962Y5280603D01*
X9385962Y5280603D02*
X9402798Y5331111D01*
X9402798Y5331111D02*
X9689008Y5617321D01*
X9554320Y5752008D02*
X9335454Y5970874D01*
X9335454Y5970874D02*
X9318618Y5718336D01*
X9318618Y5718336D02*
X9268110Y5768844D01*
X9268110Y5768844D02*
X9217603Y5785680D01*
X9217603Y5785680D02*
X9183931Y5785680D01*
X9183931Y5785680D02*
X9133423Y5768844D01*
X9133423Y5768844D02*
X9049244Y5684664D01*
X9049244Y5684664D02*
X9032408Y5634157D01*
X9032408Y5634157D02*
X9032408Y5600485D01*
X9032408Y5600485D02*
X9049244Y5549977D01*
X9049244Y5549977D02*
X9150259Y5448962D01*
X9150259Y5448962D02*
X9200767Y5432126D01*
X9200767Y5432126D02*
X9234439Y5432126D01*
%TO.C,C33*%
X-3613498Y-1392933D02*
X-3579827Y-1392933D01*
X-3579827Y-1392933D02*
X-3512483Y-1359261D01*
X-3512483Y-1359261D02*
X-3478811Y-1325589D01*
X-3478811Y-1325589D02*
X-3445140Y-1258246D01*
X-3445140Y-1258246D02*
X-3445140Y-1190902D01*
X-3445140Y-1190902D02*
X-3461976Y-1140394D01*
X-3461976Y-1140394D02*
X-3512483Y-1056215D01*
X-3512483Y-1056215D02*
X-3562991Y-1005707D01*
X-3562991Y-1005707D02*
X-3647170Y-955200D01*
X-3647170Y-955200D02*
X-3697678Y-938364D01*
X-3697678Y-938364D02*
X-3765021Y-938364D01*
X-3765021Y-938364D02*
X-3832365Y-972036D01*
X-3832365Y-972036D02*
X-3866037Y-1005707D01*
X-3866037Y-1005707D02*
X-3899708Y-1073051D01*
X-3899708Y-1073051D02*
X-3899708Y-1106723D01*
X-4051231Y-1190902D02*
X-4270098Y-1409768D01*
X-4270098Y-1409768D02*
X-4017560Y-1426604D01*
X-4017560Y-1426604D02*
X-4068067Y-1477112D01*
X-4068067Y-1477112D02*
X-4084903Y-1527620D01*
X-4084903Y-1527620D02*
X-4084903Y-1561291D01*
X-4084903Y-1561291D02*
X-4068067Y-1611799D01*
X-4068067Y-1611799D02*
X-3983888Y-1695978D01*
X-3983888Y-1695978D02*
X-3933380Y-1712814D01*
X-3933380Y-1712814D02*
X-3899708Y-1712814D01*
X-3899708Y-1712814D02*
X-3849201Y-1695978D01*
X-3849201Y-1695978D02*
X-3748185Y-1594963D01*
X-3748185Y-1594963D02*
X-3731350Y-1544455D01*
X-3731350Y-1544455D02*
X-3731350Y-1510784D01*
X-4387948Y-1527619D02*
X-4606815Y-1746486D01*
X-4606815Y-1746486D02*
X-4354277Y-1763321D01*
X-4354277Y-1763321D02*
X-4404784Y-1813829D01*
X-4404784Y-1813829D02*
X-4421620Y-1864337D01*
X-4421620Y-1864337D02*
X-4421620Y-1898008D01*
X-4421620Y-1898008D02*
X-4404784Y-1948516D01*
X-4404784Y-1948516D02*
X-4320605Y-2032695D01*
X-4320605Y-2032695D02*
X-4270097Y-2049531D01*
X-4270097Y-2049531D02*
X-4236426Y-2049531D01*
X-4236426Y-2049531D02*
X-4185918Y-2032695D01*
X-4185918Y-2032695D02*
X-4084903Y-1931680D01*
X-4084903Y-1931680D02*
X-4068067Y-1881173D01*
X-4068067Y-1881173D02*
X-4068067Y-1847501D01*
%TO.C,C4*%
X-12547574Y-7353804D02*
X-12556289Y-7386328D01*
X-12556289Y-7386328D02*
X-12541195Y-7460092D01*
X-12541195Y-7460092D02*
X-12517385Y-7501331D01*
X-12517385Y-7501331D02*
X-12461051Y-7551285D01*
X-12461051Y-7551285D02*
X-12396002Y-7568715D01*
X-12396002Y-7568715D02*
X-12342858Y-7565525D01*
X-12342858Y-7565525D02*
X-12248475Y-7538526D01*
X-12248475Y-7538526D02*
X-12186616Y-7502812D01*
X-12186616Y-7502812D02*
X-12116042Y-7434573D01*
X-12116042Y-7434573D02*
X-12086707Y-7390144D01*
X-12086707Y-7390144D02*
X-12069278Y-7325095D01*
X-12069278Y-7325095D02*
X-12084372Y-7251331D01*
X-12084372Y-7251331D02*
X-12108182Y-7210092D01*
X-12108182Y-7210092D02*
X-12164516Y-7160138D01*
X-12164516Y-7160138D02*
X-12197040Y-7151423D01*
X-12514424Y-6839793D02*
X-12803099Y-7006460D01*
X-12289943Y-6847653D02*
X-12539714Y-7129323D01*
X-12539714Y-7129323D02*
X-12694476Y-6861267D01*
%TO.C,J33*%
X2224378Y15843312D02*
X2402950Y15534017D01*
X2402950Y15534017D02*
X2459284Y15484063D01*
X2459284Y15484063D02*
X2524332Y15466633D01*
X2524332Y15466633D02*
X2598096Y15481728D01*
X2598096Y15481728D02*
X2639335Y15505538D01*
X2059421Y15748074D02*
X1791366Y15593312D01*
X1791366Y15593312D02*
X2030942Y15511689D01*
X2030942Y15511689D02*
X1969083Y15475974D01*
X1969083Y15475974D02*
X1939748Y15431545D01*
X1939748Y15431545D02*
X1931033Y15399021D01*
X1931033Y15399021D02*
X1934223Y15345877D01*
X1934223Y15345877D02*
X1993747Y15242778D01*
X1993747Y15242778D02*
X2038176Y15213444D01*
X2038176Y15213444D02*
X2070700Y15204729D01*
X2070700Y15204729D02*
X2123844Y15207919D01*
X2123844Y15207919D02*
X2247562Y15279347D01*
X2247562Y15279347D02*
X2276897Y15323776D01*
X2276897Y15323776D02*
X2285612Y15356301D01*
X1647029Y15509979D02*
X1378973Y15355217D01*
X1378973Y15355217D02*
X1618549Y15273594D01*
X1618549Y15273594D02*
X1556690Y15237879D01*
X1556690Y15237879D02*
X1527355Y15193450D01*
X1527355Y15193450D02*
X1518641Y15160926D01*
X1518641Y15160926D02*
X1521830Y15107782D01*
X1521830Y15107782D02*
X1581354Y15004683D01*
X1581354Y15004683D02*
X1625783Y14975349D01*
X1625783Y14975349D02*
X1658308Y14966634D01*
X1658308Y14966634D02*
X1711452Y14969824D01*
X1711452Y14969824D02*
X1835170Y15041252D01*
X1835170Y15041252D02*
X1864504Y15085681D01*
X1864504Y15085681D02*
X1873219Y15118206D01*
%TO.C,R4*%
X-1313666Y15183309D02*
X-1147000Y15421404D01*
X-1027952Y15183309D02*
X-1027952Y15683309D01*
X-1027952Y15683309D02*
X-1218428Y15683309D01*
X-1218428Y15683309D02*
X-1266047Y15659500D01*
X-1266047Y15659500D02*
X-1289857Y15635690D01*
X-1289857Y15635690D02*
X-1313666Y15588071D01*
X-1313666Y15588071D02*
X-1313666Y15516642D01*
X-1313666Y15516642D02*
X-1289857Y15469023D01*
X-1289857Y15469023D02*
X-1266047Y15445214D01*
X-1266047Y15445214D02*
X-1218428Y15421404D01*
X-1218428Y15421404D02*
X-1027952Y15421404D01*
X-1742238Y15516642D02*
X-1742238Y15183309D01*
X-1623190Y15707119D02*
X-1504143Y15349976D01*
X-1504143Y15349976D02*
X-1813666Y15349976D01*
%TO.C,C41*%
X-5742715Y-8635683D02*
X-5742715Y-8669354D01*
X-5742715Y-8669354D02*
X-5709043Y-8736698D01*
X-5709043Y-8736698D02*
X-5675371Y-8770370D01*
X-5675371Y-8770370D02*
X-5608028Y-8804041D01*
X-5608028Y-8804041D02*
X-5540684Y-8804041D01*
X-5540684Y-8804041D02*
X-5490176Y-8787205D01*
X-5490176Y-8787205D02*
X-5405997Y-8736698D01*
X-5405997Y-8736698D02*
X-5355489Y-8686190D01*
X-5355489Y-8686190D02*
X-5304982Y-8602011D01*
X-5304982Y-8602011D02*
X-5288146Y-8551503D01*
X-5288146Y-8551503D02*
X-5288146Y-8484160D01*
X-5288146Y-8484160D02*
X-5321818Y-8416816D01*
X-5321818Y-8416816D02*
X-5355489Y-8383144D01*
X-5355489Y-8383144D02*
X-5422833Y-8349473D01*
X-5422833Y-8349473D02*
X-5456505Y-8349473D01*
X-5843730Y-8130606D02*
X-6079432Y-8366309D01*
X-5624863Y-8080099D02*
X-5793222Y-8416816D01*
X-5793222Y-8416816D02*
X-6012089Y-8197950D01*
X-6449821Y-7995920D02*
X-6247790Y-8197950D01*
X-6348806Y-8096935D02*
X-5995252Y-7743381D01*
X-5995252Y-7743381D02*
X-6012088Y-7827561D01*
X-6012088Y-7827561D02*
X-6012088Y-7894904D01*
X-6012088Y-7894904D02*
X-5995252Y-7945412D01*
%TO.C,U7*%
X16420069Y-6347083D02*
X16217688Y-6697617D01*
X16217688Y-6697617D02*
X16173259Y-6726951D01*
X16173259Y-6726951D02*
X16140734Y-6735666D01*
X16140734Y-6735666D02*
X16087590Y-6732476D01*
X16087590Y-6732476D02*
X16005111Y-6684857D01*
X16005111Y-6684857D02*
X15975777Y-6640428D01*
X15975777Y-6640428D02*
X15967062Y-6607904D01*
X15967062Y-6607904D02*
X15970252Y-6554760D01*
X15970252Y-6554760D02*
X16172633Y-6204225D01*
X16007675Y-6108987D02*
X15719000Y-5942320D01*
X15719000Y-5942320D02*
X15654577Y-6482476D01*
%TO.C,J30*%
X-15036111Y-5872048D02*
X-15214683Y-6181343D01*
X-15214683Y-6181343D02*
X-15229777Y-6255107D01*
X-15229777Y-6255107D02*
X-15212348Y-6320155D01*
X-15212348Y-6320155D02*
X-15162393Y-6376489D01*
X-15162393Y-6376489D02*
X-15121154Y-6400299D01*
X-15201068Y-5776810D02*
X-15469124Y-5622048D01*
X-15469124Y-5622048D02*
X-15420024Y-5870339D01*
X-15420024Y-5870339D02*
X-15481883Y-5834624D01*
X-15481883Y-5834624D02*
X-15535027Y-5831435D01*
X-15535027Y-5831435D02*
X-15567552Y-5840150D01*
X-15567552Y-5840150D02*
X-15611981Y-5869484D01*
X-15611981Y-5869484D02*
X-15671505Y-5972582D01*
X-15671505Y-5972582D02*
X-15674694Y-6025726D01*
X-15674694Y-6025726D02*
X-15665980Y-6058251D01*
X-15665980Y-6058251D02*
X-15636645Y-6102680D01*
X-15636645Y-6102680D02*
X-15512927Y-6174109D01*
X-15512927Y-6174109D02*
X-15459783Y-6177298D01*
X-15459783Y-6177298D02*
X-15427259Y-6168584D01*
X-15737179Y-5467287D02*
X-15778418Y-5443477D01*
X-15778418Y-5443477D02*
X-15831562Y-5440287D01*
X-15831562Y-5440287D02*
X-15864086Y-5449002D01*
X-15864086Y-5449002D02*
X-15908516Y-5478337D01*
X-15908516Y-5478337D02*
X-15976754Y-5548910D01*
X-15976754Y-5548910D02*
X-16036278Y-5652009D01*
X-16036278Y-5652009D02*
X-16063278Y-5746392D01*
X-16063278Y-5746392D02*
X-16066467Y-5799536D01*
X-16066467Y-5799536D02*
X-16057753Y-5832061D01*
X-16057753Y-5832061D02*
X-16028418Y-5876490D01*
X-16028418Y-5876490D02*
X-15987179Y-5900299D01*
X-15987179Y-5900299D02*
X-15934035Y-5903489D01*
X-15934035Y-5903489D02*
X-15901510Y-5894774D01*
X-15901510Y-5894774D02*
X-15857081Y-5865440D01*
X-15857081Y-5865440D02*
X-15788842Y-5794866D01*
X-15788842Y-5794866D02*
X-15729318Y-5691768D01*
X-15729318Y-5691768D02*
X-15702319Y-5597384D01*
X-15702319Y-5597384D02*
X-15699129Y-5544240D01*
X-15699129Y-5544240D02*
X-15707844Y-5511716D01*
X-15707844Y-5511716D02*
X-15737179Y-5467287D01*
%TO.C,C6*%
X5925333Y7864928D02*
X5949142Y7841119D01*
X5949142Y7841119D02*
X6020571Y7817309D01*
X6020571Y7817309D02*
X6068190Y7817309D01*
X6068190Y7817309D02*
X6139618Y7841119D01*
X6139618Y7841119D02*
X6187237Y7888738D01*
X6187237Y7888738D02*
X6211047Y7936357D01*
X6211047Y7936357D02*
X6234856Y8031595D01*
X6234856Y8031595D02*
X6234856Y8103023D01*
X6234856Y8103023D02*
X6211047Y8198261D01*
X6211047Y8198261D02*
X6187237Y8245880D01*
X6187237Y8245880D02*
X6139618Y8293500D01*
X6139618Y8293500D02*
X6068190Y8317309D01*
X6068190Y8317309D02*
X6020571Y8317309D01*
X6020571Y8317309D02*
X5949142Y8293500D01*
X5949142Y8293500D02*
X5925333Y8269690D01*
X5496761Y8317309D02*
X5591999Y8317309D01*
X5591999Y8317309D02*
X5639618Y8293500D01*
X5639618Y8293500D02*
X5663428Y8269690D01*
X5663428Y8269690D02*
X5711047Y8198261D01*
X5711047Y8198261D02*
X5734856Y8103023D01*
X5734856Y8103023D02*
X5734856Y7912547D01*
X5734856Y7912547D02*
X5711047Y7864928D01*
X5711047Y7864928D02*
X5687237Y7841119D01*
X5687237Y7841119D02*
X5639618Y7817309D01*
X5639618Y7817309D02*
X5544380Y7817309D01*
X5544380Y7817309D02*
X5496761Y7841119D01*
X5496761Y7841119D02*
X5472952Y7864928D01*
X5472952Y7864928D02*
X5449142Y7912547D01*
X5449142Y7912547D02*
X5449142Y8031595D01*
X5449142Y8031595D02*
X5472952Y8079214D01*
X5472952Y8079214D02*
X5496761Y8103023D01*
X5496761Y8103023D02*
X5544380Y8126833D01*
X5544380Y8126833D02*
X5639618Y8126833D01*
X5639618Y8126833D02*
X5687237Y8103023D01*
X5687237Y8103023D02*
X5711047Y8079214D01*
X5711047Y8079214D02*
X5734856Y8031595D01*
%TO.C,C16*%
X-5705928Y10608428D02*
X-5682119Y10632237D01*
X-5682119Y10632237D02*
X-5658309Y10703666D01*
X-5658309Y10703666D02*
X-5658309Y10751285D01*
X-5658309Y10751285D02*
X-5682119Y10822713D01*
X-5682119Y10822713D02*
X-5729738Y10870332D01*
X-5729738Y10870332D02*
X-5777357Y10894142D01*
X-5777357Y10894142D02*
X-5872595Y10917951D01*
X-5872595Y10917951D02*
X-5944023Y10917951D01*
X-5944023Y10917951D02*
X-6039261Y10894142D01*
X-6039261Y10894142D02*
X-6086880Y10870332D01*
X-6086880Y10870332D02*
X-6134500Y10822713D01*
X-6134500Y10822713D02*
X-6158309Y10751285D01*
X-6158309Y10751285D02*
X-6158309Y10703666D01*
X-6158309Y10703666D02*
X-6134500Y10632237D01*
X-6134500Y10632237D02*
X-6110690Y10608428D01*
X-5658309Y10132237D02*
X-5658309Y10417951D01*
X-5658309Y10275094D02*
X-6158309Y10275094D01*
X-6158309Y10275094D02*
X-6086880Y10322713D01*
X-6086880Y10322713D02*
X-6039261Y10370332D01*
X-6039261Y10370332D02*
X-6015452Y10417951D01*
X-6158309Y9703666D02*
X-6158309Y9798904D01*
X-6158309Y9798904D02*
X-6134500Y9846523D01*
X-6134500Y9846523D02*
X-6110690Y9870333D01*
X-6110690Y9870333D02*
X-6039261Y9917952D01*
X-6039261Y9917952D02*
X-5944023Y9941761D01*
X-5944023Y9941761D02*
X-5753547Y9941761D01*
X-5753547Y9941761D02*
X-5705928Y9917952D01*
X-5705928Y9917952D02*
X-5682119Y9894142D01*
X-5682119Y9894142D02*
X-5658309Y9846523D01*
X-5658309Y9846523D02*
X-5658309Y9751285D01*
X-5658309Y9751285D02*
X-5682119Y9703666D01*
X-5682119Y9703666D02*
X-5705928Y9679857D01*
X-5705928Y9679857D02*
X-5753547Y9656047D01*
X-5753547Y9656047D02*
X-5872595Y9656047D01*
X-5872595Y9656047D02*
X-5920214Y9679857D01*
X-5920214Y9679857D02*
X-5944023Y9703666D01*
X-5944023Y9703666D02*
X-5967833Y9751285D01*
X-5967833Y9751285D02*
X-5967833Y9846523D01*
X-5967833Y9846523D02*
X-5944023Y9894142D01*
X-5944023Y9894142D02*
X-5920214Y9917952D01*
X-5920214Y9917952D02*
X-5872595Y9941761D01*
%TO.C,C13*%
X-1616528Y1540628D02*
X-1592719Y1564437D01*
X-1592719Y1564437D02*
X-1568909Y1635866D01*
X-1568909Y1635866D02*
X-1568909Y1683485D01*
X-1568909Y1683485D02*
X-1592719Y1754913D01*
X-1592719Y1754913D02*
X-1640338Y1802532D01*
X-1640338Y1802532D02*
X-1687957Y1826342D01*
X-1687957Y1826342D02*
X-1783195Y1850151D01*
X-1783195Y1850151D02*
X-1854623Y1850151D01*
X-1854623Y1850151D02*
X-1949861Y1826342D01*
X-1949861Y1826342D02*
X-1997480Y1802532D01*
X-1997480Y1802532D02*
X-2045100Y1754913D01*
X-2045100Y1754913D02*
X-2068909Y1683485D01*
X-2068909Y1683485D02*
X-2068909Y1635866D01*
X-2068909Y1635866D02*
X-2045100Y1564437D01*
X-2045100Y1564437D02*
X-2021290Y1540628D01*
X-1568909Y1064437D02*
X-1568909Y1350151D01*
X-1568909Y1207294D02*
X-2068909Y1207294D01*
X-2068909Y1207294D02*
X-1997480Y1254913D01*
X-1997480Y1254913D02*
X-1949861Y1302532D01*
X-1949861Y1302532D02*
X-1926052Y1350151D01*
X-2068909Y897771D02*
X-2068909Y588247D01*
X-2068909Y588247D02*
X-1878433Y754914D01*
X-1878433Y754914D02*
X-1878433Y683485D01*
X-1878433Y683485D02*
X-1854623Y635866D01*
X-1854623Y635866D02*
X-1830814Y612057D01*
X-1830814Y612057D02*
X-1783195Y588247D01*
X-1783195Y588247D02*
X-1664147Y588247D01*
X-1664147Y588247D02*
X-1616528Y612057D01*
X-1616528Y612057D02*
X-1592719Y635866D01*
X-1592719Y635866D02*
X-1568909Y683485D01*
X-1568909Y683485D02*
X-1568909Y826342D01*
X-1568909Y826342D02*
X-1592719Y873961D01*
X-1592719Y873961D02*
X-1616528Y897771D01*
%TO.C,C32*%
X8137071Y-5266571D02*
X8160880Y-5242762D01*
X8160880Y-5242762D02*
X8184690Y-5171333D01*
X8184690Y-5171333D02*
X8184690Y-5123714D01*
X8184690Y-5123714D02*
X8160880Y-5052286D01*
X8160880Y-5052286D02*
X8113261Y-5004667D01*
X8113261Y-5004667D02*
X8065642Y-4980857D01*
X8065642Y-4980857D02*
X7970404Y-4957048D01*
X7970404Y-4957048D02*
X7898976Y-4957048D01*
X7898976Y-4957048D02*
X7803738Y-4980857D01*
X7803738Y-4980857D02*
X7756119Y-5004667D01*
X7756119Y-5004667D02*
X7708500Y-5052286D01*
X7708500Y-5052286D02*
X7684690Y-5123714D01*
X7684690Y-5123714D02*
X7684690Y-5171333D01*
X7684690Y-5171333D02*
X7708500Y-5242762D01*
X7708500Y-5242762D02*
X7732309Y-5266571D01*
X7684690Y-5433238D02*
X7684690Y-5742762D01*
X7684690Y-5742762D02*
X7875166Y-5576095D01*
X7875166Y-5576095D02*
X7875166Y-5647524D01*
X7875166Y-5647524D02*
X7898976Y-5695143D01*
X7898976Y-5695143D02*
X7922785Y-5718952D01*
X7922785Y-5718952D02*
X7970404Y-5742762D01*
X7970404Y-5742762D02*
X8089452Y-5742762D01*
X8089452Y-5742762D02*
X8137071Y-5718952D01*
X8137071Y-5718952D02*
X8160880Y-5695143D01*
X8160880Y-5695143D02*
X8184690Y-5647524D01*
X8184690Y-5647524D02*
X8184690Y-5504667D01*
X8184690Y-5504667D02*
X8160880Y-5457048D01*
X8160880Y-5457048D02*
X8137071Y-5433238D01*
X7732309Y-5933238D02*
X7708500Y-5957047D01*
X7708500Y-5957047D02*
X7684690Y-6004666D01*
X7684690Y-6004666D02*
X7684690Y-6123714D01*
X7684690Y-6123714D02*
X7708500Y-6171333D01*
X7708500Y-6171333D02*
X7732309Y-6195142D01*
X7732309Y-6195142D02*
X7779928Y-6218952D01*
X7779928Y-6218952D02*
X7827547Y-6218952D01*
X7827547Y-6218952D02*
X7898976Y-6195142D01*
X7898976Y-6195142D02*
X8184690Y-5909428D01*
X8184690Y-5909428D02*
X8184690Y-6218952D01*
%TO.C,C34*%
X6666310Y-2973846D02*
X6666310Y-3007517D01*
X6666310Y-3007517D02*
X6699982Y-3074861D01*
X6699982Y-3074861D02*
X6733654Y-3108533D01*
X6733654Y-3108533D02*
X6800997Y-3142204D01*
X6800997Y-3142204D02*
X6868341Y-3142204D01*
X6868341Y-3142204D02*
X6918849Y-3125368D01*
X6918849Y-3125368D02*
X7003028Y-3074861D01*
X7003028Y-3074861D02*
X7053536Y-3024353D01*
X7053536Y-3024353D02*
X7104043Y-2940174D01*
X7104043Y-2940174D02*
X7120879Y-2889666D01*
X7120879Y-2889666D02*
X7120879Y-2822323D01*
X7120879Y-2822323D02*
X7087207Y-2754979D01*
X7087207Y-2754979D02*
X7053536Y-2721307D01*
X7053536Y-2721307D02*
X6986192Y-2687636D01*
X6986192Y-2687636D02*
X6952520Y-2687636D01*
X6868341Y-2536113D02*
X6649475Y-2317246D01*
X6649475Y-2317246D02*
X6632639Y-2569784D01*
X6632639Y-2569784D02*
X6582131Y-2519277D01*
X6582131Y-2519277D02*
X6531623Y-2502441D01*
X6531623Y-2502441D02*
X6497952Y-2502441D01*
X6497952Y-2502441D02*
X6447444Y-2519277D01*
X6447444Y-2519277D02*
X6363265Y-2603456D01*
X6363265Y-2603456D02*
X6346429Y-2653964D01*
X6346429Y-2653964D02*
X6346429Y-2687636D01*
X6346429Y-2687636D02*
X6363265Y-2738143D01*
X6363265Y-2738143D02*
X6464280Y-2839159D01*
X6464280Y-2839159D02*
X6514788Y-2855994D01*
X6514788Y-2855994D02*
X6548459Y-2855994D01*
X6228578Y-2132052D02*
X5992876Y-2367754D01*
X6447444Y-2081544D02*
X6279086Y-2418262D01*
X6279086Y-2418262D02*
X6060219Y-2199396D01*
%TO.C,U8*%
X-2726609Y-671642D02*
X-2440399Y-957852D01*
X-2440399Y-957852D02*
X-2423563Y-1008359D01*
X-2423563Y-1008359D02*
X-2423563Y-1042031D01*
X-2423563Y-1042031D02*
X-2440399Y-1092539D01*
X-2440399Y-1092539D02*
X-2507743Y-1159882D01*
X-2507743Y-1159882D02*
X-2558250Y-1176718D01*
X-2558250Y-1176718D02*
X-2591922Y-1176718D01*
X-2591922Y-1176718D02*
X-2642430Y-1159882D01*
X-2642430Y-1159882D02*
X-2928640Y-873672D01*
X-2995983Y-1244062D02*
X-2979148Y-1193554D01*
X-2979148Y-1193554D02*
X-2979148Y-1159883D01*
X-2979148Y-1159883D02*
X-2995983Y-1109375D01*
X-2995983Y-1109375D02*
X-3012819Y-1092539D01*
X-3012819Y-1092539D02*
X-3063327Y-1075703D01*
X-3063327Y-1075703D02*
X-3096999Y-1075703D01*
X-3096999Y-1075703D02*
X-3147506Y-1092539D01*
X-3147506Y-1092539D02*
X-3214850Y-1159883D01*
X-3214850Y-1159883D02*
X-3231686Y-1210390D01*
X-3231686Y-1210390D02*
X-3231686Y-1244062D01*
X-3231686Y-1244062D02*
X-3214850Y-1294570D01*
X-3214850Y-1294570D02*
X-3198014Y-1311405D01*
X-3198014Y-1311405D02*
X-3147506Y-1328241D01*
X-3147506Y-1328241D02*
X-3113835Y-1328241D01*
X-3113835Y-1328241D02*
X-3063327Y-1311405D01*
X-3063327Y-1311405D02*
X-2995983Y-1244062D01*
X-2995983Y-1244062D02*
X-2945476Y-1227226D01*
X-2945476Y-1227226D02*
X-2911804Y-1227226D01*
X-2911804Y-1227226D02*
X-2861296Y-1244062D01*
X-2861296Y-1244062D02*
X-2793953Y-1311405D01*
X-2793953Y-1311405D02*
X-2777117Y-1361913D01*
X-2777117Y-1361913D02*
X-2777117Y-1395585D01*
X-2777117Y-1395585D02*
X-2793953Y-1446092D01*
X-2793953Y-1446092D02*
X-2861296Y-1513436D01*
X-2861296Y-1513436D02*
X-2911804Y-1530272D01*
X-2911804Y-1530272D02*
X-2945476Y-1530272D01*
X-2945476Y-1530272D02*
X-2995983Y-1513436D01*
X-2995983Y-1513436D02*
X-3063327Y-1446092D01*
X-3063327Y-1446092D02*
X-3080163Y-1395585D01*
X-3080163Y-1395585D02*
X-3080163Y-1361913D01*
X-3080163Y-1361913D02*
X-3063327Y-1311405D01*
%TO.C,C7*%
X7322333Y7864928D02*
X7346142Y7841119D01*
X7346142Y7841119D02*
X7417571Y7817309D01*
X7417571Y7817309D02*
X7465190Y7817309D01*
X7465190Y7817309D02*
X7536618Y7841119D01*
X7536618Y7841119D02*
X7584237Y7888738D01*
X7584237Y7888738D02*
X7608047Y7936357D01*
X7608047Y7936357D02*
X7631856Y8031595D01*
X7631856Y8031595D02*
X7631856Y8103023D01*
X7631856Y8103023D02*
X7608047Y8198261D01*
X7608047Y8198261D02*
X7584237Y8245880D01*
X7584237Y8245880D02*
X7536618Y8293500D01*
X7536618Y8293500D02*
X7465190Y8317309D01*
X7465190Y8317309D02*
X7417571Y8317309D01*
X7417571Y8317309D02*
X7346142Y8293500D01*
X7346142Y8293500D02*
X7322333Y8269690D01*
X7155666Y8317309D02*
X6822333Y8317309D01*
X6822333Y8317309D02*
X7036618Y7817309D01*
%TO.C,R5*%
X5421214Y-8833963D02*
X5370706Y-8547753D01*
X5623244Y-8631932D02*
X5269691Y-8278379D01*
X5269691Y-8278379D02*
X5135004Y-8413066D01*
X5135004Y-8413066D02*
X5118168Y-8463574D01*
X5118168Y-8463574D02*
X5118168Y-8497245D01*
X5118168Y-8497245D02*
X5135004Y-8547753D01*
X5135004Y-8547753D02*
X5185511Y-8598261D01*
X5185511Y-8598261D02*
X5236019Y-8615096D01*
X5236019Y-8615096D02*
X5269691Y-8615096D01*
X5269691Y-8615096D02*
X5320198Y-8598261D01*
X5320198Y-8598261D02*
X5454885Y-8463574D01*
X4747779Y-8800291D02*
X4916137Y-8631932D01*
X4916137Y-8631932D02*
X5101332Y-8783455D01*
X5101332Y-8783455D02*
X5067660Y-8783455D01*
X5067660Y-8783455D02*
X5017153Y-8800291D01*
X5017153Y-8800291D02*
X4932973Y-8884471D01*
X4932973Y-8884471D02*
X4916137Y-8934978D01*
X4916137Y-8934978D02*
X4916137Y-8968650D01*
X4916137Y-8968650D02*
X4932973Y-9019158D01*
X4932973Y-9019158D02*
X5017153Y-9103337D01*
X5017153Y-9103337D02*
X5067660Y-9120173D01*
X5067660Y-9120173D02*
X5101332Y-9120173D01*
X5101332Y-9120173D02*
X5151840Y-9103337D01*
X5151840Y-9103337D02*
X5236019Y-9019158D01*
X5236019Y-9019158D02*
X5252855Y-8968650D01*
X5252855Y-8968650D02*
X5252855Y-8934978D01*
%TO.C,R2*%
X83333Y21279309D02*
X249999Y21517404D01*
X369047Y21279309D02*
X369047Y21779309D01*
X369047Y21779309D02*
X178571Y21779309D01*
X178571Y21779309D02*
X130952Y21755500D01*
X130952Y21755500D02*
X107142Y21731690D01*
X107142Y21731690D02*
X83333Y21684071D01*
X83333Y21684071D02*
X83333Y21612642D01*
X83333Y21612642D02*
X107142Y21565023D01*
X107142Y21565023D02*
X130952Y21541214D01*
X130952Y21541214D02*
X178571Y21517404D01*
X178571Y21517404D02*
X369047Y21517404D01*
X-107143Y21731690D02*
X-130952Y21755500D01*
X-130952Y21755500D02*
X-178571Y21779309D01*
X-178571Y21779309D02*
X-297619Y21779309D01*
X-297619Y21779309D02*
X-345238Y21755500D01*
X-345238Y21755500D02*
X-369047Y21731690D01*
X-369047Y21731690D02*
X-392857Y21684071D01*
X-392857Y21684071D02*
X-392857Y21636452D01*
X-392857Y21636452D02*
X-369047Y21565023D01*
X-369047Y21565023D02*
X-83333Y21279309D01*
X-83333Y21279309D02*
X-392857Y21279309D01*
%TO.C,R10*%
X9707183Y-2352210D02*
X9996713Y-2377500D01*
X9850040Y-2599645D02*
X10283053Y-2349645D01*
X10283053Y-2349645D02*
X10187815Y-2184688D01*
X10187815Y-2184688D02*
X10143386Y-2155354D01*
X10143386Y-2155354D02*
X10110861Y-2146639D01*
X10110861Y-2146639D02*
X10057717Y-2149829D01*
X10057717Y-2149829D02*
X9995858Y-2185543D01*
X9995858Y-2185543D02*
X9966524Y-2229972D01*
X9966524Y-2229972D02*
X9957809Y-2262497D01*
X9957809Y-2262497D02*
X9960999Y-2315641D01*
X9960999Y-2315641D02*
X10056237Y-2480598D01*
X9469088Y-1939817D02*
X9611945Y-2187252D01*
X9540516Y-2063534D02*
X9973529Y-1813534D01*
X9973529Y-1813534D02*
X9935480Y-1890488D01*
X9935480Y-1890488D02*
X9918050Y-1955537D01*
X9918050Y-1955537D02*
X9921240Y-2008681D01*
X9747339Y-1421762D02*
X9723529Y-1380522D01*
X9723529Y-1380522D02*
X9679100Y-1351188D01*
X9679100Y-1351188D02*
X9646576Y-1342473D01*
X9646576Y-1342473D02*
X9593432Y-1345663D01*
X9593432Y-1345663D02*
X9499048Y-1372662D01*
X9499048Y-1372662D02*
X9395950Y-1432186D01*
X9395950Y-1432186D02*
X9325376Y-1500425D01*
X9325376Y-1500425D02*
X9296042Y-1544854D01*
X9296042Y-1544854D02*
X9287327Y-1577378D01*
X9287327Y-1577378D02*
X9290517Y-1630522D01*
X9290517Y-1630522D02*
X9314326Y-1671762D01*
X9314326Y-1671762D02*
X9358755Y-1701096D01*
X9358755Y-1701096D02*
X9391280Y-1709811D01*
X9391280Y-1709811D02*
X9444424Y-1706621D01*
X9444424Y-1706621D02*
X9538807Y-1679622D01*
X9538807Y-1679622D02*
X9641905Y-1620098D01*
X9641905Y-1620098D02*
X9712479Y-1551859D01*
X9712479Y-1551859D02*
X9741814Y-1507430D01*
X9741814Y-1507430D02*
X9750529Y-1474906D01*
X9750529Y-1474906D02*
X9747339Y-1421762D01*
%TO.C,C17*%
X6388071Y9719428D02*
X6411880Y9743237D01*
X6411880Y9743237D02*
X6435690Y9814666D01*
X6435690Y9814666D02*
X6435690Y9862285D01*
X6435690Y9862285D02*
X6411880Y9933713D01*
X6411880Y9933713D02*
X6364261Y9981332D01*
X6364261Y9981332D02*
X6316642Y10005142D01*
X6316642Y10005142D02*
X6221404Y10028951D01*
X6221404Y10028951D02*
X6149976Y10028951D01*
X6149976Y10028951D02*
X6054738Y10005142D01*
X6054738Y10005142D02*
X6007119Y9981332D01*
X6007119Y9981332D02*
X5959500Y9933713D01*
X5959500Y9933713D02*
X5935690Y9862285D01*
X5935690Y9862285D02*
X5935690Y9814666D01*
X5935690Y9814666D02*
X5959500Y9743237D01*
X5959500Y9743237D02*
X5983309Y9719428D01*
X6435690Y9243237D02*
X6435690Y9528951D01*
X6435690Y9386094D02*
X5935690Y9386094D01*
X5935690Y9386094D02*
X6007119Y9433713D01*
X6007119Y9433713D02*
X6054738Y9481332D01*
X6054738Y9481332D02*
X6078547Y9528951D01*
X5935690Y9076571D02*
X5935690Y8743238D01*
X5935690Y8743238D02*
X6435690Y8957523D01*
D13*
%TO.C,R12*%
X13090727Y-10219035D02*
X12937086Y-10485149D01*
X13748906Y-10599035D02*
X13595265Y-10865149D01*
%TO.C,C40*%
X12964087Y-10221211D02*
X12856251Y-10407989D01*
X12340549Y-9861211D02*
X12232713Y-10047989D01*
%TO.C,C36*%
X-7345000Y-6203836D02*
X-7345000Y-5988164D01*
X-6625000Y-6203836D02*
X-6625000Y-5988164D01*
%TO.C,J29*%
X7932948Y-11247000D02*
X7932948Y-10604530D01*
X11862948Y-11247000D02*
X7932948Y-11247000D01*
X11862948Y-11247000D02*
X11862948Y-10604530D01*
X7932948Y-9989470D02*
X7932948Y-9334530D01*
X11862948Y-9989470D02*
X11862948Y-9787000D01*
X11927948Y-9027000D02*
X11927948Y-8077000D01*
X7932948Y-8719470D02*
X7932948Y-8077000D01*
X10532948Y-8267000D02*
X10532948Y-8077000D01*
X10532948Y-8077000D02*
X7932948Y-8077000D01*
X11927948Y-8077000D02*
X11167948Y-8077000D01*
%TO.C,J28*%
X-11866000Y-11247000D02*
X-11866000Y-10604530D01*
X-7936000Y-11247000D02*
X-11866000Y-11247000D01*
X-7936000Y-11247000D02*
X-7936000Y-10604530D01*
X-11866000Y-9989470D02*
X-11866000Y-9334530D01*
X-7936000Y-9989470D02*
X-7936000Y-9787000D01*
X-7871000Y-9027000D02*
X-7871000Y-8077000D01*
X-11866000Y-8719470D02*
X-11866000Y-8077000D01*
X-9266000Y-8267000D02*
X-9266000Y-8077000D01*
X-9266000Y-8077000D02*
X-11866000Y-8077000D01*
X-7871000Y-8077000D02*
X-8631000Y-8077000D01*
%TO.C,R6*%
X-6605000Y-4164359D02*
X-6605000Y-4471641D01*
X-7365000Y-4164359D02*
X-7365000Y-4471641D01*
%TO.C,C22*%
X-5480164Y6879000D02*
X-5695836Y6879000D01*
X-5480164Y7599000D02*
X-5695836Y7599000D01*
%TO.C,J31*%
X15673187Y-4652757D02*
X15116792Y-4973992D01*
X13708187Y-1249277D02*
X15673187Y-4652757D01*
X13708187Y-1249277D02*
X13151792Y-1570512D01*
X14584134Y-5281522D02*
X14016940Y-5608992D01*
X12619134Y-1878042D02*
X12443790Y-1979277D01*
X11753111Y-2302986D02*
X10930387Y-2777986D01*
X13484282Y-5916522D02*
X12927887Y-6237757D01*
X11792432Y-3891091D02*
X11627887Y-3986091D01*
X11627887Y-3986091D02*
X12927887Y-6237757D01*
X10930387Y-2777986D02*
X11310387Y-3436165D01*
%TO.C,C3*%
X-17770383Y-10409746D02*
X-17910963Y-10166254D01*
X-16887037Y-9899746D02*
X-17027617Y-9656254D01*
%TO.C,C20*%
X-4901693Y-10006990D02*
X-4749190Y-10159493D01*
X-5410810Y-10516107D02*
X-5258307Y-10668610D01*
%TO.C,C35*%
X107836Y-11409000D02*
X-107836Y-11409000D01*
X107836Y-10689000D02*
X-107836Y-10689000D01*
%TO.C,C2*%
X11941963Y-6737254D02*
X11801383Y-6980746D01*
X11058617Y-6227254D02*
X10918037Y-6470746D01*
%TO.C,C1*%
X17910963Y-10166254D02*
X17770383Y-10409746D01*
X17027617Y-9656254D02*
X16887037Y-9899746D01*
%TO.C,C5*%
X1401400Y3689236D02*
X1401400Y3473564D01*
X681400Y3689236D02*
X681400Y3473564D01*
%TO.C,C11*%
X-5736000Y8715836D02*
X-5736000Y8500164D01*
X-6456000Y8715836D02*
X-6456000Y8500164D01*
%TO.C,U6*%
X-5105311Y-5588000D02*
X-4787113Y-5906198D01*
X-318198Y-10375113D02*
X-1230366Y-11287281D01*
X0Y-10693311D02*
X-318198Y-10375113D01*
X-4787113Y-5269802D02*
X-5105311Y-5588000D01*
X318198Y-10375113D02*
X0Y-10693311D01*
X-318198Y-800887D02*
X0Y-482689D01*
X4787113Y-5906198D02*
X5105311Y-5588000D01*
X0Y-482689D02*
X318198Y-800887D01*
X5105311Y-5588000D02*
X4787113Y-5269802D01*
%TO.C,C21*%
X529000Y1162164D02*
X529000Y1377836D01*
X1249000Y1162164D02*
X1249000Y1377836D01*
%TO.C,U4*%
X-15512000Y-7158000D02*
X-16204820Y-7558000D01*
X-15512000Y-7158000D02*
X-14819180Y-6758000D01*
X-13952000Y-9860000D02*
X-15510846Y-10760000D01*
X-13952000Y-9860000D02*
X-13259180Y-9460000D01*
%TO.C,J32*%
X-3807188Y15899759D02*
X-3250793Y15578524D01*
X-5772188Y12496279D02*
X-3807188Y15899759D01*
X-5772188Y12496279D02*
X-5215793Y12175044D01*
X-2718135Y15270994D02*
X-2150941Y14943524D01*
X-4683135Y11867514D02*
X-4507791Y11766279D01*
X-3882112Y11329988D02*
X-3059388Y10854988D01*
X-1618283Y14635994D02*
X-1061888Y14314759D01*
X-2526433Y12158093D02*
X-2361888Y12063093D01*
X-2361888Y12063093D02*
X-1061888Y14314759D01*
X-3059388Y10854988D02*
X-2679388Y11513167D01*
%TO.C,U10*%
X3410000Y5044000D02*
X3410000Y11054000D01*
X-3410000Y7294000D02*
X-3410000Y11054000D01*
X-3410000Y11054000D02*
X-2150000Y11054000D01*
X3410000Y11054000D02*
X2150000Y11054000D01*
%TO.C,C12*%
X-529000Y3663836D02*
X-529000Y3448164D01*
X-1249000Y3663836D02*
X-1249000Y3448164D01*
%TO.C,R8*%
X-10236690Y-1504743D02*
X-10390331Y-1770857D01*
X-10894869Y-1124743D02*
X-11048510Y-1390857D01*
%TO.C,U3*%
X6223000Y-1405097D02*
X6541198Y-1086899D01*
X9595899Y1967802D02*
X10525745Y1037957D01*
X9914097Y2286000D02*
X9595899Y1967802D01*
X5904802Y-1086899D02*
X6223000Y-1405097D01*
X9595899Y2604198D02*
X9914097Y2286000D01*
X2850101Y1967802D02*
X2531903Y2286000D01*
X6541198Y5658899D02*
X6223000Y5977097D01*
X2531903Y2286000D02*
X2850101Y2604198D01*
X6223000Y5977097D02*
X5904802Y5658899D01*
%TO.C,C33*%
X-1913601Y-263718D02*
X-2066104Y-416221D01*
X-2422718Y245399D02*
X-2575221Y92896D01*
%TO.C,C4*%
X-11801383Y-6980746D02*
X-11941963Y-6737254D01*
X-10918037Y-6470746D02*
X-11058617Y-6227254D01*
%TO.C,J33*%
X5773713Y12493635D02*
X5217318Y12172400D01*
X3808713Y15897115D02*
X5773713Y12493635D01*
X3808713Y15897115D02*
X3252318Y15575880D01*
X4684660Y11864870D02*
X4117466Y11537400D01*
X2719660Y15268350D02*
X2544316Y15167115D01*
X1853637Y14843406D02*
X1030913Y14368406D01*
X3584808Y11229870D02*
X3028413Y10908635D01*
X1892958Y13255301D02*
X1728413Y13160301D01*
X1728413Y13160301D02*
X3028413Y10908635D01*
X1030913Y14368406D02*
X1410913Y13710227D01*
%TO.C,R4*%
X-153641Y15747000D02*
X153641Y15747000D01*
X-153641Y14987000D02*
X153641Y14987000D01*
%TO.C,C41*%
X-6680707Y-9271610D02*
X-6833210Y-9119107D01*
X-6171590Y-8762493D02*
X-6324093Y-8609990D01*
%TO.C,U7*%
X13952000Y-9860000D02*
X14644820Y-10260000D01*
X13952000Y-9860000D02*
X13259180Y-9460000D01*
X15512000Y-7158000D02*
X17070846Y-8058000D01*
X15512000Y-7158000D02*
X14819180Y-6758000D01*
%TO.C,J30*%
X-13706662Y-1246633D02*
X-13150267Y-1567868D01*
X-15671662Y-4650113D02*
X-13706662Y-1246633D01*
X-15671662Y-4650113D02*
X-15115267Y-4971348D01*
X-12617609Y-1875398D02*
X-12050415Y-2202868D01*
X-14582609Y-5278878D02*
X-14407265Y-5380113D01*
X-13781586Y-5816404D02*
X-12958862Y-6291404D01*
X-11517757Y-2510398D02*
X-10961362Y-2831633D01*
X-12425907Y-4988299D02*
X-12261362Y-5083299D01*
X-12261362Y-5083299D02*
X-10961362Y-2831633D01*
X-12958862Y-6291404D02*
X-12578862Y-5633225D01*
%TO.C,C6*%
X4591164Y7472000D02*
X4806836Y7472000D01*
X4591164Y6752000D02*
X4806836Y6752000D01*
%TO.C,C16*%
X-5307000Y9136748D02*
X-5307000Y9659252D01*
X-3837000Y9136748D02*
X-3837000Y9659252D01*
%TO.C,C13*%
X-529000Y1377836D02*
X-529000Y1162164D01*
X-1249000Y1377836D02*
X-1249000Y1162164D01*
%TO.C,C32*%
X7241000Y-5447420D02*
X7241000Y-5728580D01*
X6221000Y-5447420D02*
X6221000Y-5728580D01*
%TO.C,C34*%
X5536693Y-3801399D02*
X5384190Y-3648896D01*
X6045810Y-3292282D02*
X5893307Y-3139779D01*
%TO.C,U8*%
X-9914097Y2286000D02*
X-9595899Y1967802D01*
X-6541198Y-1086899D02*
X-7471043Y-2016745D01*
X-6223000Y-1405097D02*
X-6541198Y-1086899D01*
X-9595899Y2604198D02*
X-9914097Y2286000D01*
X-5904802Y-1086899D02*
X-6223000Y-1405097D01*
X-6541198Y5658899D02*
X-6223000Y5977097D01*
X-2850101Y1967802D02*
X-2531903Y2286000D01*
X-6223000Y5977097D02*
X-5904802Y5658899D01*
X-2531903Y2286000D02*
X-2850101Y2604198D01*
%TO.C,C7*%
X6584836Y6752000D02*
X6369164Y6752000D01*
X6584836Y7472000D02*
X6369164Y7472000D01*
%TO.C,R5*%
X5337659Y-9314140D02*
X5554940Y-9096859D01*
X5875060Y-9851541D02*
X6092341Y-9634260D01*
%TO.C,R2*%
X-135641Y20954000D02*
X171641Y20954000D01*
X-135641Y20194000D02*
X171641Y20194000D01*
%TO.C,R10*%
X10971069Y-1073943D02*
X11124710Y-1340057D01*
X10312890Y-1453943D02*
X10466531Y-1720057D01*
%TO.C,C17*%
X3837000Y9136748D02*
X3837000Y9659252D01*
X5307000Y9136748D02*
X5307000Y9659252D01*
%TD*%
M02*
