M48
; DRILL file {KiCad 7.0.0-da2b9df05c~163~ubuntu22.04.1} date Mon 03 Apr 2023 02:04:15 AM MSK
; FORMAT={-:-/ absolute / inch / decimal}
; #@! TF.CreationDate,2023-04-03T02:04:15+03:00
; #@! TF.GenerationSoftware,Kicad,Pcbnew,7.0.0-da2b9df05c~163~ubuntu22.04.1
; #@! TF.FileFunction,Plated,1,4,PTH
FMAT,2
INCH
; #@! TA.AperFunction,Plated,PTH,ViaDrill
T1C0.0157
; #@! TA.AperFunction,Plated,PTH,ComponentDrill
T2C0.0256
; #@! TA.AperFunction,Plated,PTH,ComponentDrill
T3C0.0276
%
G90
G05
T1
X-0.67Y-0.2935
X-0.6285Y-0.264
X-0.595Y-0.4343
X-0.5692Y-0.2327
X-0.5507Y-0.4056
X-0.4869Y-0.3801
X-0.4182Y0.1045
X-0.4175Y-0.2248
X-0.338Y-0.1903
X-0.3095Y-0.2428
X-0.2914Y0.1475
X-0.2812Y0.2598
X-0.271Y-0.402
X-0.2559Y0.07
X-0.2548Y0.0006
X-0.2518Y0.2918
X-0.248Y-0.263
X-0.2391Y-0.1637
X-0.238Y-0.203
X-0.2316Y0.1016
X-0.2133Y0.0666
X-0.1852Y-0.3695
X-0.1742Y0.0621
X-0.1569Y-0.2203
X-0.1569Y0.1015
X-0.1553Y0.3941
X-0.1513Y0.2513
X-0.148Y-0.415
X-0.1258Y-0.2443
X-0.1247Y0.2838
X-0.119Y0.423
X-0.0998Y-0.2148
X-0.0923Y-0.171
X-0.0916Y0.3539
X-0.0845Y0.1105
X-0.072Y0.4597
X-0.0706Y0.1708
X-0.0597Y-0.1227
X-0.054Y-0.1616
X-0.0521Y0.421
X-0.0493Y-0.0032
X-0.032Y-0.0947
X-0.0317Y-0.345
X-0.0246Y-0.2941
X-0.0231Y0.2992
X-0.0132Y0.0238
X-0.0112Y-0.0133
X0.002Y0.125
X0.0023Y0.3611
X0.0028Y-0.1232
X0.0099Y-0.3651
X0.0128Y-0.1613
X0.0135Y-0.2006
X0.0342Y-0.2851
X0.0375Y0.1945
X0.062Y0.407
X0.0641Y-0.1904
X0.0738Y0.299
X0.079Y0.1792
X0.082Y-0.2917
X0.097Y0.624
X0.103Y-0.426
X0.104Y0.114
X0.105Y0.063
X0.1074Y-0.1689
X0.1108Y0.3968
X0.1131Y0.4362
X0.1437Y0.2405
X0.146Y-0.2368
X0.1605Y0.0958
X0.1724Y-0.3584
X0.1927Y0.1187
X0.2025Y-0.2555
X0.2059Y-0.4243
X0.2073Y0.1553
X0.21Y0.002
X0.2424Y-0.2296
X0.2611Y0.0187
X0.2644Y0.1529
X0.272Y-0.402
X0.2765Y-0.2091
X0.2891Y0.0577
X0.3977Y-0.1955
X0.4075Y0.0974
X0.4778Y-0.4306
X0.4832Y-0.2839
X0.5527Y-0.276
X0.5748Y-0.2424
X0.598Y-0.431
X0.672Y-0.299
X0.736Y-0.426
T2
X-0.4861Y-0.0435
X-0.4611Y-0.0002
X-0.4361Y0.0431
X-0.0246Y0.7502
X-0.0246Y0.7002
X-0.0246Y0.6502
X0.0254Y0.7502
X0.0254Y0.7002
X0.0254Y0.6502
X0.436Y0.0433
X0.461Y0.0
X0.486Y-0.0433
T3
X-0.5709Y-0.1781
X-0.5459Y-0.1348
X-0.5276Y-0.2031
X-0.5209Y-0.0915
X-0.5026Y-0.1598
X-0.4776Y-0.1165
X-0.4398Y-0.3554
X-0.4398Y-0.4054
X-0.3898Y-0.3554
X-0.3898Y-0.4054
X-0.3398Y-0.3554
X-0.3398Y-0.4054
X-0.1812Y0.497
X-0.1562Y0.5403
X-0.1379Y0.472
X-0.1312Y0.5836
X-0.1129Y0.5153
X-0.0879Y0.5586
X0.0879Y0.5585
X0.1129Y0.5152
X0.1312Y0.5835
X0.1379Y0.4719
X0.1562Y0.5402
X0.1812Y0.4969
X0.3397Y-0.3554
X0.3397Y-0.4054
X0.3897Y-0.3554
X0.3897Y-0.4054
X0.4397Y-0.3554
X0.4397Y-0.4054
X0.4777Y-0.1166
X0.5027Y-0.1599
X0.521Y-0.0916
X0.5277Y-0.2032
X0.546Y-0.1349
X0.571Y-0.1782
T0
M30
