%TF.GenerationSoftware,KiCad,Pcbnew,7.0.0-da2b9df05c~163~ubuntu22.04.1*%
%TF.CreationDate,2023-02-19T04:44:01+03:00*%
%TF.ProjectId,freeeeg16-alpha,66726565-6565-4673-9136-2d616c706861,rev?*%
%TF.SameCoordinates,Original*%
%TF.FileFunction,Copper,L3,Inr*%
%TF.FilePolarity,Positive*%
%FSLAX46Y46*%
G04 Gerber Fmt 4.6, Leading zero omitted, Abs format (unit mm)*
G04 Created by KiCad (PCBNEW 7.0.0-da2b9df05c~163~ubuntu22.04.1) date 2023-02-19 04:44:01*
%MOMM*%
%LPD*%
G01*
G04 APERTURE LIST*
G04 Aperture macros list*
%AMHorizOval*
0 Thick line with rounded ends*
0 $1 width*
0 $2 $3 position (X,Y) of the first rounded end (center of the circle)*
0 $4 $5 position (X,Y) of the second rounded end (center of the circle)*
0 Add line between two ends*
20,1,$1,$2,$3,$4,$5,0*
0 Add two circle primitives to create the rounded ends*
1,1,$1,$2,$3*
1,1,$1,$4,$5*%
%AMRotRect*
0 Rectangle, with rotation*
0 The origin of the aperture is its center*
0 $1 length*
0 $2 width*
0 $3 Rotation angle, in degrees counterclockwise*
0 Add horizontal line*
21,1,$1,$2,0,0,$3*%
G04 Aperture macros list end*
%TA.AperFunction,ComponentPad*%
%ADD10O,1.000000X1.000000*%
%TD*%
%TA.AperFunction,ComponentPad*%
%ADD11R,1.000000X1.000000*%
%TD*%
%TA.AperFunction,ComponentPad*%
%ADD12RotRect,1.000000X1.000000X210.000000*%
%TD*%
%TA.AperFunction,ComponentPad*%
%ADD13HorizOval,1.000000X0.000000X0.000000X0.000000X0.000000X0*%
%TD*%
%TA.AperFunction,ComponentPad*%
%ADD14RotRect,1.000000X1.000000X330.000000*%
%TD*%
%TA.AperFunction,ComponentPad*%
%ADD15HorizOval,1.000000X0.000000X0.000000X0.000000X0.000000X0*%
%TD*%
%TA.AperFunction,ViaPad*%
%ADD16C,0.800000*%
%TD*%
G04 APERTURE END LIST*
D10*
%TO.N,MCU_5_PDO0_RCC_OSC_IN*%
%TO.C,J1*%
X644999Y16514999D03*
%TO.N,CRYSTAL_3_OUT*%
X-624999Y16514999D03*
%TO.N,ADC1_16_SYNC{slash}RESET*%
X644999Y17784999D03*
%TO.N,MCU_18_PB0_ADC1_SYNC{slash}RESET*%
X-624999Y17784999D03*
%TO.N,CRYSTAL_4_Vin*%
X644999Y19054999D03*
D11*
%TO.N,ACC_5_VDDIO*%
X-624999Y19054999D03*
%TD*%
%TO.N,ADC2_08_AIN5P*%
%TO.C,J29*%
X11167947Y-9026999D03*
D10*
X11167947Y-10296999D03*
%TO.N,ADC2_09_AIN6P*%
X9897947Y-9026999D03*
X9897947Y-10296999D03*
%TO.N,ADC2_12_AIN7P*%
X8627947Y-9026999D03*
X8627947Y-10296999D03*
%TD*%
D11*
%TO.N,ADC1_29_AIN0P*%
%TO.C,J28*%
X-8630999Y-9026999D03*
D10*
X-8630999Y-10296999D03*
%TO.N,ADC1_32_AIN1P*%
X-9900999Y-9026999D03*
X-9900999Y-10296999D03*
%TO.N,ADC1_01_AIN2P*%
X-11170999Y-9026999D03*
X-11170999Y-10296999D03*
%TD*%
D12*
%TO.N,ADC2_01_AIN2P*%
%TO.C,J31*%
X12133110Y-2961164D03*
D13*
X13232962Y-2326164D03*
%TO.N,ADC2_04_AIN3P*%
X12768110Y-4061016D03*
X13867962Y-3426016D03*
%TO.N,ADC2_05_AIN4P*%
X13403110Y-5160869D03*
X14502962Y-4525869D03*
%TD*%
D14*
%TO.N,ADC1_09_AIN6P*%
%TO.C,J32*%
X-3502111Y11988166D03*
D15*
X-4601963Y12623166D03*
%TO.N,ADC1_12_AIN7P*%
X-2867111Y13088018D03*
X-3966963Y13723018D03*
%TO.N,3V3_2_GND*%
X-2232111Y14187871D03*
X-3331963Y14822871D03*
%TD*%
D12*
%TO.N,ADC1_02_AIN2N*%
%TO.C,J33*%
X2233636Y14185226D03*
D13*
X3333488Y14820226D03*
%TO.N,ADC2_29_AIN0P*%
X2868636Y13085374D03*
X3968488Y13720374D03*
%TO.N,ADC2_32_AIN1P*%
X3503636Y11985521D03*
X4603488Y12620521D03*
%TD*%
D14*
%TO.N,ADC1_04_AIN3P*%
%TO.C,J30*%
X-13401585Y-5158224D03*
D15*
X-14501437Y-4523224D03*
%TO.N,ADC1_05_AIN4P*%
X-12766585Y-4058372D03*
X-13866437Y-3423372D03*
%TO.N,ADC1_08_AIN5P*%
X-12131585Y-2958519D03*
X-13231437Y-2323519D03*
%TD*%
D16*
%TO.N,ACC_14_SDA*%
X2726877Y-4290223D03*
%TO.N,ADC2_21_DIN*%
X337744Y-4935144D03*
%TO.N,ACC_5_VDDIO*%
X-6298133Y-6679133D03*
%TO.N,MCU_39_PB3_SYS_JTDO-TRACESWO*%
X2083941Y-7409134D03*
%TO.N,MCU_38_PA15_SYS_JTDI*%
X3709418Y-6013573D03*
%TO.N,MCU_37_PA14_SYS_JTCK-SWCLK*%
X5143567Y-6489633D03*
%TO.N,MCU_34_PA13_SYS_JTMS-SWDIO*%
X867897Y-7242595D03*
%TO.N,ACC_13_SCL*%
X4521200Y-9245600D03*
%TO.N,RADIO_8_GPIO9*%
X12966920Y-10424462D03*
%TO.N,3V3_1_IN*%
X-3167720Y7207999D03*
X-13843000Y-10287000D03*
X14823166Y-5607300D03*
%TO.N,ADC1_15_AVDD*%
X7340600Y1498600D03*
X17224809Y-7774246D03*
X-291500Y9054851D03*
X14493630Y-6550916D03*
%TO.N,ADC1_26_DVDD*%
X-1931445Y2902448D03*
X-12368202Y-9654691D03*
X6810000Y3968325D03*
%TO.N,ADC1_14_REFIN*%
X-3844068Y6384068D03*
X6623238Y470478D03*
X10099502Y-4953000D03*
X-380655Y7605455D03*
%TO.N,ACC_5_VDDIO*%
X-808039Y-8722850D03*
X-1113615Y-121403D03*
X7023056Y-5311845D03*
X-14872119Y-6454277D03*
X2851899Y-10509451D03*
%TO.N,ADC2_17_CS*%
X3225218Y2481351D03*
X-812967Y-2405237D03*
%TO.N,ADC1_02_AIN2N*%
X10796725Y3303725D03*
X-10581021Y2633053D03*
%TO.N,ADC1_16_SYNC{slash}RESET*%
X2248115Y2691765D03*
X768088Y10681980D03*
X-7142067Y6581825D03*
%TO.N,ADC1_17_CS*%
X-3986395Y-5595707D03*
X-6477000Y1016000D03*
%TO.N,ADC1_18_DRDY*%
X-6063279Y2115660D03*
X-1515793Y-3115899D03*
%TO.N,ADC1_19_SCLK*%
X-3196554Y-6204685D03*
X-5439178Y1270000D03*
%TO.N,ADC1_23_XTAL1{slash}CLKIN*%
X1532753Y-4758553D03*
X3649502Y6107631D03*
X-1867500Y4357250D03*
%TO.N,3V3_2_GND*%
X-4025500Y10414000D03*
X14351000Y-10795000D03*
X-11811000Y-1115000D03*
X-7884806Y-6174332D03*
X-16891000Y-7493000D03*
X254000Y-9271000D03*
X-15113000Y-11030000D03*
X12383734Y-6967042D03*
X-140000Y600500D03*
X-7370644Y3687644D03*
X2859120Y9327522D03*
X2286000Y4826000D03*
X6156471Y-5830636D03*
X-140000Y-347408D03*
X-6409554Y7425554D03*
X-12207157Y-7342951D03*
%TO.N,3V3_5_OUT*%
X928231Y5591946D03*
X-1842809Y11647129D03*
%TO.N,MCU_7_NRST*%
X-4088500Y-9475223D03*
%TO.N,ADC1_20_DOUT*%
X-4441518Y1526035D03*
X-2533936Y-5456391D03*
%TO.N,ADC1_21_DIN*%
X-4104371Y2467523D03*
X-2343219Y-4343400D03*
%TO.N,ADC2_19_SCLK*%
X24571Y-2972145D03*
X4211927Y2321948D03*
%TO.N,ADC2_20_DOUT*%
X4964385Y2979833D03*
X285411Y-3937012D03*
%TO.N,ADC2_21_DIN*%
X5264939Y3933623D03*
%TO.N,MCU_5_PDO0_RCC_OSC_IN*%
X-2803543Y-10720500D03*
X-2032000Y10643086D03*
%TO.N,RADIO_8_GPIO9*%
X-8255000Y-5080000D03*
%TO.N,MCU_12_PA2_USART2_TX*%
X-6045200Y-5156200D03*
%TO.N,MCU_13_PA3_USART2_RX*%
X-6072303Y-4157065D03*
%TO.N,MCU_18_PB0_ADC1_SYNC{slash}RESET*%
X0Y4394498D03*
X-2794000Y9398000D03*
X-1372544Y-4105083D03*
%TD*%
%TA.AperFunction,Conductor*%
%TO.N,3V3_2_GND*%
G36*
X63000Y22716118D02*
G01*
X109119Y22669999D01*
X1064475Y21015273D01*
X1064490Y21015247D01*
X4047027Y15846536D01*
X4063890Y15784363D01*
X4047819Y15721980D01*
X4003013Y15675694D01*
X3941185Y15657605D01*
X3878500Y15672439D01*
X3721293Y15756468D01*
X3531190Y15814135D01*
X3333489Y15833607D01*
X3327326Y15833000D01*
X3141950Y15814742D01*
X3141949Y15814741D01*
X3135788Y15814135D01*
X2945685Y15756468D01*
X2770485Y15662822D01*
X2616921Y15536795D01*
X2612998Y15532015D01*
X2525916Y15425905D01*
X2475514Y15388932D01*
X2422361Y15381898D01*
X2422384Y15380968D01*
X2413779Y15380763D01*
X2413546Y15380732D01*
X2404424Y15381823D01*
X2260226Y15357575D01*
X2204521Y15332933D01*
X1254253Y14784295D01*
X1205059Y14748374D01*
X1200042Y14742298D01*
X1200040Y14742296D01*
X1117700Y14642570D01*
X1111961Y14635619D01*
X1054401Y14501202D01*
X1053331Y14492260D01*
X1053331Y14492257D01*
X1038110Y14364960D01*
X1038110Y14364955D01*
X1037041Y14356014D01*
X1038534Y14347130D01*
X1038535Y14347126D01*
X1049255Y14283379D01*
X1061289Y14211816D01*
X1064473Y14204616D01*
X1064476Y14204609D01*
X1084563Y14159201D01*
X1084571Y14159184D01*
X1085931Y14156111D01*
X1087613Y14153197D01*
X1087620Y14153184D01*
X1632879Y13208769D01*
X1632884Y13208759D01*
X1634569Y13205843D01*
X1636555Y13203122D01*
X1636561Y13203114D01*
X1665841Y13163014D01*
X1665846Y13163007D01*
X1670490Y13156649D01*
X1676560Y13151636D01*
X1676567Y13151630D01*
X1776293Y13069290D01*
X1776297Y13069287D01*
X1783245Y13063551D01*
X1791529Y13060003D01*
X1791540Y13059997D01*
X1792192Y13059718D01*
X1792828Y13059211D01*
X1799225Y13055313D01*
X1798738Y13054514D01*
X1844234Y13018346D01*
X1867975Y12956247D01*
X1874729Y12887674D01*
X1876523Y12881757D01*
X1876525Y12881751D01*
X1926884Y12715741D01*
X1932396Y12697571D01*
X1935313Y12692113D01*
X1935315Y12692109D01*
X2023124Y12527829D01*
X2023127Y12527824D01*
X2026042Y12522371D01*
X2029963Y12517592D01*
X2029968Y12517586D01*
X2148146Y12373586D01*
X2148151Y12373580D01*
X2152069Y12368807D01*
X2156842Y12364889D01*
X2156848Y12364884D01*
X2300848Y12246706D01*
X2300854Y12246701D01*
X2305633Y12242780D01*
X2311091Y12239862D01*
X2311092Y12239862D01*
X2430844Y12175853D01*
X2468847Y12144665D01*
X2492022Y12101308D01*
X2496841Y12052383D01*
X2493523Y12018685D01*
X2490257Y11985522D01*
X2490864Y11979359D01*
X2509121Y11793983D01*
X2509123Y11793972D01*
X2509729Y11787821D01*
X2511523Y11781904D01*
X2511525Y11781898D01*
X2558815Y11626006D01*
X2567396Y11597718D01*
X2570313Y11592260D01*
X2570315Y11592256D01*
X2658124Y11427976D01*
X2658127Y11427971D01*
X2661042Y11422518D01*
X2664963Y11417739D01*
X2664968Y11417733D01*
X2783146Y11273733D01*
X2783151Y11273727D01*
X2787069Y11268954D01*
X2791842Y11265036D01*
X2791848Y11265031D01*
X2935848Y11146853D01*
X2935854Y11146848D01*
X2940633Y11142927D01*
X2946086Y11140012D01*
X2946091Y11140009D01*
X3110371Y11052200D01*
X3110375Y11052198D01*
X3115833Y11049281D01*
X3121753Y11047485D01*
X3121756Y11047484D01*
X3300013Y10993410D01*
X3300019Y10993408D01*
X3305936Y10991614D01*
X3312087Y10991008D01*
X3312098Y10991006D01*
X3497474Y10972749D01*
X3503637Y10972142D01*
X3509800Y10972749D01*
X3695175Y10991006D01*
X3695184Y10991007D01*
X3701338Y10991614D01*
X3707256Y10993409D01*
X3707260Y10993410D01*
X3885517Y11047484D01*
X3891441Y11049281D01*
X4066641Y11142927D01*
X4152275Y11213205D01*
X4215425Y11265031D01*
X4220205Y11268954D01*
X4346232Y11422518D01*
X4413159Y11547730D01*
X4444346Y11585732D01*
X4487703Y11608907D01*
X4536628Y11613726D01*
X4597323Y11607749D01*
X4597326Y11607749D01*
X4603489Y11607142D01*
X4609652Y11607749D01*
X4795027Y11626006D01*
X4795036Y11626007D01*
X4801190Y11626614D01*
X4807108Y11628409D01*
X4807112Y11628410D01*
X4985369Y11682484D01*
X4991293Y11684281D01*
X5166493Y11777927D01*
X5238543Y11837057D01*
X5315277Y11900031D01*
X5320057Y11903954D01*
X5446084Y12057518D01*
X5539730Y12232718D01*
X5597397Y12422821D01*
X5598265Y12431628D01*
X5616262Y12614359D01*
X5616869Y12620522D01*
X5614049Y12649144D01*
X5625717Y12715741D01*
X5670135Y12766720D01*
X5734511Y12787397D01*
X5800307Y12771818D01*
X5848576Y12724468D01*
X10667331Y4373610D01*
X10684025Y4317208D01*
X10673298Y4259374D01*
X10637486Y4212711D01*
X10584394Y4187389D01*
X10514437Y4172519D01*
X10339973Y4094843D01*
X10185472Y3982591D01*
X10057685Y3840669D01*
X9962198Y3675281D01*
X9960158Y3669003D01*
X9960155Y3668996D01*
X9905222Y3499930D01*
X9905220Y3499925D01*
X9903183Y3493653D01*
X9902493Y3487089D01*
X9900911Y3472037D01*
X9883221Y3303725D01*
X9883911Y3297160D01*
X9900273Y3141478D01*
X9903183Y3113797D01*
X9905220Y3107526D01*
X9905222Y3107519D01*
X9960155Y2938453D01*
X9960159Y2938443D01*
X9962198Y2932169D01*
X9965501Y2926447D01*
X9965502Y2926446D01*
X10054383Y2772499D01*
X10054386Y2772494D01*
X10057685Y2766781D01*
X10062103Y2761874D01*
X10062104Y2761873D01*
X10181050Y2629769D01*
X10181055Y2629764D01*
X10185472Y2624859D01*
X10190808Y2620981D01*
X10190816Y2620975D01*
X10322683Y2525169D01*
X10339973Y2512607D01*
X10346000Y2509923D01*
X10346003Y2509922D01*
X10508406Y2437616D01*
X10514437Y2434931D01*
X10520886Y2433560D01*
X10520893Y2433558D01*
X10694781Y2396597D01*
X10694785Y2396596D01*
X10701238Y2395225D01*
X10885609Y2395225D01*
X10892212Y2395225D01*
X10898665Y2396596D01*
X10898668Y2396597D01*
X11072556Y2433558D01*
X11072560Y2433559D01*
X11079013Y2434931D01*
X11253477Y2512607D01*
X11382927Y2606658D01*
X11402633Y2620975D01*
X11402636Y2620978D01*
X11407978Y2624859D01*
X11455508Y2677647D01*
X11503996Y2710969D01*
X11562328Y2718643D01*
X11617786Y2698995D01*
X11658277Y2656309D01*
X13938735Y-1295704D01*
X13955598Y-1357877D01*
X13939527Y-1420260D01*
X13894721Y-1466545D01*
X13832894Y-1484635D01*
X13770205Y-1469800D01*
X13677522Y-1420260D01*
X13620767Y-1389924D01*
X13605808Y-1385386D01*
X13436586Y-1334053D01*
X13436582Y-1334052D01*
X13430664Y-1332257D01*
X13424510Y-1331650D01*
X13424501Y-1331649D01*
X13239126Y-1313392D01*
X13232963Y-1312785D01*
X13226800Y-1313392D01*
X13041424Y-1331649D01*
X13041413Y-1331651D01*
X13035262Y-1332257D01*
X13029345Y-1334051D01*
X13029339Y-1334053D01*
X12851082Y-1388127D01*
X12851079Y-1388128D01*
X12845159Y-1389924D01*
X12839701Y-1392841D01*
X12839697Y-1392843D01*
X12675417Y-1480652D01*
X12675412Y-1480655D01*
X12669959Y-1483570D01*
X12665180Y-1487491D01*
X12665174Y-1487496D01*
X12521174Y-1605674D01*
X12521168Y-1605679D01*
X12516395Y-1609597D01*
X12512477Y-1614370D01*
X12512472Y-1614376D01*
X12425390Y-1720486D01*
X12374996Y-1757456D01*
X12321833Y-1764495D01*
X12321856Y-1765424D01*
X12313282Y-1765628D01*
X12313035Y-1765661D01*
X12312847Y-1765638D01*
X12312840Y-1765638D01*
X12303898Y-1764569D01*
X12295014Y-1766062D01*
X12295010Y-1766063D01*
X12167471Y-1787510D01*
X12167469Y-1787510D01*
X12159700Y-1788817D01*
X12152500Y-1792001D01*
X12152493Y-1792004D01*
X12107085Y-1812091D01*
X12107068Y-1812099D01*
X12103995Y-1813459D01*
X12101081Y-1815141D01*
X12101068Y-1815148D01*
X11156653Y-2360407D01*
X11156643Y-2360412D01*
X11153727Y-2362097D01*
X11151006Y-2364083D01*
X11150998Y-2364089D01*
X11110898Y-2393369D01*
X11110891Y-2393374D01*
X11104533Y-2398018D01*
X11099520Y-2404088D01*
X11099514Y-2404095D01*
X11017174Y-2503821D01*
X11017171Y-2503825D01*
X11011435Y-2510773D01*
X11007887Y-2519058D01*
X11007886Y-2519060D01*
X10957421Y-2636908D01*
X10957420Y-2636911D01*
X10953875Y-2645190D01*
X10952806Y-2654130D01*
X10952805Y-2654134D01*
X10937584Y-2781431D01*
X10937584Y-2781436D01*
X10936515Y-2790378D01*
X10938008Y-2799262D01*
X10938009Y-2799265D01*
X10948729Y-2863013D01*
X10960763Y-2934576D01*
X10963948Y-2941777D01*
X10963950Y-2941782D01*
X10984037Y-2987190D01*
X10984042Y-2987199D01*
X10985405Y-2990281D01*
X10987091Y-2993202D01*
X10987094Y-2993207D01*
X11468335Y-3826740D01*
X11534043Y-3940549D01*
X11536035Y-3943277D01*
X11565315Y-3983377D01*
X11565317Y-3983379D01*
X11569964Y-3989743D01*
X11576039Y-3994759D01*
X11576041Y-3994761D01*
X11660549Y-4064536D01*
X11682719Y-4082841D01*
X11691656Y-4086668D01*
X11692294Y-4087174D01*
X11698698Y-4091078D01*
X11698210Y-4091877D01*
X11743704Y-4128038D01*
X11767449Y-4190144D01*
X11773595Y-4252555D01*
X11773596Y-4252564D01*
X11774203Y-4258718D01*
X11775998Y-4264636D01*
X11775999Y-4264640D01*
X11799891Y-4343400D01*
X11831870Y-4448821D01*
X11925516Y-4624021D01*
X11929441Y-4628804D01*
X11929442Y-4628805D01*
X12045018Y-4769635D01*
X12051543Y-4777585D01*
X12205107Y-4903612D01*
X12330319Y-4970539D01*
X12368321Y-5001726D01*
X12391496Y-5045083D01*
X12396315Y-5094008D01*
X12390338Y-5154704D01*
X12389731Y-5160870D01*
X12390338Y-5167033D01*
X12408595Y-5352408D01*
X12408596Y-5352417D01*
X12409203Y-5358571D01*
X12410998Y-5364489D01*
X12410999Y-5364493D01*
X12443528Y-5471726D01*
X12466870Y-5548674D01*
X12469789Y-5554135D01*
X12544090Y-5693144D01*
X12560516Y-5723874D01*
X12564441Y-5728657D01*
X12564442Y-5728658D01*
X12650622Y-5833669D01*
X12686543Y-5877438D01*
X12840107Y-6003465D01*
X13015307Y-6097111D01*
X13205410Y-6154778D01*
X13211571Y-6155384D01*
X13211572Y-6155385D01*
X13396948Y-6173643D01*
X13403111Y-6174250D01*
X13477570Y-6166916D01*
X13538707Y-6176138D01*
X13588098Y-6213335D01*
X13613846Y-6269550D01*
X13609752Y-6331245D01*
X13602127Y-6354710D01*
X13602125Y-6354717D01*
X13600088Y-6360988D01*
X13599398Y-6367549D01*
X13599398Y-6367551D01*
X13590577Y-6451477D01*
X13580126Y-6550916D01*
X13580816Y-6557481D01*
X13583388Y-6581957D01*
X13600088Y-6740844D01*
X13602125Y-6747116D01*
X13602127Y-6747121D01*
X13657060Y-6916187D01*
X13657063Y-6916194D01*
X13659103Y-6922472D01*
X13754590Y-7087860D01*
X13882377Y-7229782D01*
X13887719Y-7233663D01*
X13887721Y-7233665D01*
X13909048Y-7249160D01*
X14036878Y-7342034D01*
X14211342Y-7419710D01*
X14398143Y-7459416D01*
X14582514Y-7459416D01*
X14589117Y-7459416D01*
X14775918Y-7419710D01*
X14950382Y-7342034D01*
X15104883Y-7229782D01*
X15232670Y-7087860D01*
X15328157Y-6922472D01*
X15387172Y-6740844D01*
X15407134Y-6550916D01*
X15390693Y-6394493D01*
X15398372Y-6336171D01*
X15431067Y-6288601D01*
X15434419Y-6286166D01*
X15562206Y-6144244D01*
X15657693Y-5978856D01*
X15716708Y-5797228D01*
X15736670Y-5607300D01*
X15716708Y-5417372D01*
X15678706Y-5300415D01*
X15659735Y-5242028D01*
X15659734Y-5242026D01*
X15657693Y-5235744D01*
X15562206Y-5070356D01*
X15482225Y-4981529D01*
X15452880Y-4924627D01*
X15455290Y-4860646D01*
X15495072Y-4729502D01*
X15495072Y-4729500D01*
X15496871Y-4723571D01*
X15516343Y-4525870D01*
X15514629Y-4508471D01*
X15526298Y-4441873D01*
X15570716Y-4390894D01*
X15635092Y-4370217D01*
X15700888Y-4385797D01*
X15749156Y-4433147D01*
X17063629Y-6711117D01*
X17080323Y-6767518D01*
X17069596Y-6825353D01*
X17033785Y-6872015D01*
X16980693Y-6897337D01*
X16948985Y-6904077D01*
X16948975Y-6904079D01*
X16942521Y-6905452D01*
X16936491Y-6908136D01*
X16936490Y-6908137D01*
X16774087Y-6980443D01*
X16774084Y-6980444D01*
X16768057Y-6983128D01*
X16762716Y-6987008D01*
X16762715Y-6987009D01*
X16618900Y-7091496D01*
X16618892Y-7091502D01*
X16613556Y-7095380D01*
X16609139Y-7100285D01*
X16609134Y-7100290D01*
X16500462Y-7220984D01*
X16485769Y-7237302D01*
X16482470Y-7243015D01*
X16482467Y-7243020D01*
X16413326Y-7362777D01*
X16390282Y-7402690D01*
X16388243Y-7408964D01*
X16388239Y-7408974D01*
X16333306Y-7578040D01*
X16333304Y-7578047D01*
X16331267Y-7584318D01*
X16330577Y-7590879D01*
X16330577Y-7590881D01*
X16328792Y-7607866D01*
X16311305Y-7774246D01*
X16311995Y-7780811D01*
X16326261Y-7916550D01*
X16331267Y-7964174D01*
X16333304Y-7970446D01*
X16333306Y-7970451D01*
X16388239Y-8139517D01*
X16388242Y-8139524D01*
X16390282Y-8145802D01*
X16485769Y-8311190D01*
X16613556Y-8453112D01*
X16618898Y-8456993D01*
X16618900Y-8456995D01*
X16662107Y-8488387D01*
X16768057Y-8565364D01*
X16942521Y-8643040D01*
X17129322Y-8682746D01*
X17313693Y-8682746D01*
X17320296Y-8682746D01*
X17507097Y-8643040D01*
X17681561Y-8565364D01*
X17836062Y-8453112D01*
X17861844Y-8424477D01*
X17910330Y-8391155D01*
X17968663Y-8383480D01*
X18024122Y-8403127D01*
X18064613Y-8445814D01*
X19677266Y-11240526D01*
X19694132Y-11303522D01*
X19677244Y-11366513D01*
X19631126Y-11412623D01*
X19568132Y-11429500D01*
X13517024Y-11429500D01*
X13456323Y-11413915D01*
X13410639Y-11371014D01*
X13391273Y-11311412D01*
X13403016Y-11249852D01*
X13442963Y-11201564D01*
X13578173Y-11103328D01*
X13705960Y-10961406D01*
X13801447Y-10796018D01*
X13860462Y-10614390D01*
X13880424Y-10424462D01*
X13860462Y-10234534D01*
X13801447Y-10052906D01*
X13705960Y-9887518D01*
X13578173Y-9745596D01*
X13572831Y-9741715D01*
X13572828Y-9741712D01*
X13463113Y-9662000D01*
X13423672Y-9633344D01*
X13249208Y-9555668D01*
X13242755Y-9554296D01*
X13242751Y-9554295D01*
X13068863Y-9517334D01*
X13068860Y-9517333D01*
X13062407Y-9515962D01*
X12871433Y-9515962D01*
X12864980Y-9517333D01*
X12864976Y-9517334D01*
X12691088Y-9554295D01*
X12691081Y-9554297D01*
X12684632Y-9555668D01*
X12678602Y-9558352D01*
X12678601Y-9558353D01*
X12516198Y-9630659D01*
X12516195Y-9630660D01*
X12510168Y-9633344D01*
X12504831Y-9637221D01*
X12504825Y-9637225D01*
X12371129Y-9734361D01*
X12318021Y-9756671D01*
X12260534Y-9753012D01*
X12210683Y-9724151D01*
X12178886Y-9676118D01*
X12171790Y-9618959D01*
X12176448Y-9575638D01*
X12176448Y-8478362D01*
X12169937Y-8417799D01*
X12118837Y-8280796D01*
X12031209Y-8163739D01*
X12007248Y-8145802D01*
X11921365Y-8081510D01*
X11921362Y-8081508D01*
X11914152Y-8076111D01*
X11905714Y-8072964D01*
X11905711Y-8072962D01*
X11784528Y-8027763D01*
X11784526Y-8027762D01*
X11777149Y-8025011D01*
X11769321Y-8024169D01*
X11769315Y-8024168D01*
X11719936Y-8018860D01*
X11719933Y-8018859D01*
X11716586Y-8018500D01*
X10619310Y-8018500D01*
X10615963Y-8018859D01*
X10615959Y-8018860D01*
X10566580Y-8024168D01*
X10566573Y-8024169D01*
X10558747Y-8025011D01*
X10551371Y-8027761D01*
X10551367Y-8027763D01*
X10430183Y-8072963D01*
X10430180Y-8072964D01*
X10421744Y-8076111D01*
X10414532Y-8081509D01*
X10406622Y-8085829D01*
X10405650Y-8084049D01*
X10357759Y-8103380D01*
X10293848Y-8094769D01*
X10291209Y-8093675D01*
X10285752Y-8090759D01*
X10279833Y-8088963D01*
X10279832Y-8088963D01*
X10101571Y-8034888D01*
X10101567Y-8034887D01*
X10095649Y-8033092D01*
X10089495Y-8032485D01*
X10089486Y-8032484D01*
X9904111Y-8014227D01*
X9897948Y-8013620D01*
X9891785Y-8014227D01*
X9706409Y-8032484D01*
X9706398Y-8032486D01*
X9700247Y-8033092D01*
X9694330Y-8034886D01*
X9694324Y-8034888D01*
X9516067Y-8088962D01*
X9516064Y-8088963D01*
X9510144Y-8090759D01*
X9504686Y-8093676D01*
X9504682Y-8093678D01*
X9340402Y-8181487D01*
X9340401Y-8181488D01*
X9334944Y-8184405D01*
X9331902Y-8186900D01*
X9287529Y-8205281D01*
X9238367Y-8205281D01*
X9193992Y-8186900D01*
X9190952Y-8184405D01*
X9165779Y-8170950D01*
X9021213Y-8093678D01*
X9015752Y-8090759D01*
X8967464Y-8076111D01*
X8831571Y-8034888D01*
X8831567Y-8034887D01*
X8825649Y-8033092D01*
X8819495Y-8032485D01*
X8819486Y-8032484D01*
X8634111Y-8014227D01*
X8627948Y-8013620D01*
X8621785Y-8014227D01*
X8436409Y-8032484D01*
X8436398Y-8032486D01*
X8430247Y-8033092D01*
X8424330Y-8034886D01*
X8424324Y-8034888D01*
X8246067Y-8088962D01*
X8246064Y-8088963D01*
X8240144Y-8090759D01*
X8234686Y-8093676D01*
X8234682Y-8093678D01*
X8070402Y-8181487D01*
X8070401Y-8181488D01*
X8064944Y-8184405D01*
X8060165Y-8188326D01*
X8060159Y-8188331D01*
X7916159Y-8306509D01*
X7916153Y-8306514D01*
X7911380Y-8310432D01*
X7907462Y-8315205D01*
X7907457Y-8315211D01*
X7789279Y-8459211D01*
X7789274Y-8459217D01*
X7785353Y-8463996D01*
X7782438Y-8469449D01*
X7782435Y-8469454D01*
X7729736Y-8568048D01*
X7691707Y-8639196D01*
X7689912Y-8645114D01*
X7689910Y-8645119D01*
X7635836Y-8823376D01*
X7635834Y-8823382D01*
X7634040Y-8829299D01*
X7633434Y-8835450D01*
X7633432Y-8835461D01*
X7618532Y-8986753D01*
X7614568Y-9027000D01*
X7615175Y-9033163D01*
X7633432Y-9218538D01*
X7633433Y-9218547D01*
X7634040Y-9224701D01*
X7635835Y-9230619D01*
X7635836Y-9230623D01*
X7686247Y-9396805D01*
X7691707Y-9414804D01*
X7694626Y-9420265D01*
X7782436Y-9584548D01*
X7782439Y-9584553D01*
X7785353Y-9590004D01*
X7787849Y-9593046D01*
X7806228Y-9637421D01*
X7806228Y-9686579D01*
X7787849Y-9730953D01*
X7785353Y-9733996D01*
X7782442Y-9739441D01*
X7782436Y-9739451D01*
X7694626Y-9903734D01*
X7691707Y-9909196D01*
X7689911Y-9915116D01*
X7689910Y-9915119D01*
X7635836Y-10093376D01*
X7635834Y-10093382D01*
X7634040Y-10099299D01*
X7633434Y-10105450D01*
X7633432Y-10105461D01*
X7615553Y-10287000D01*
X7614568Y-10297000D01*
X7615175Y-10303163D01*
X7633432Y-10488538D01*
X7633433Y-10488547D01*
X7634040Y-10494701D01*
X7635835Y-10500619D01*
X7635836Y-10500623D01*
X7664567Y-10595335D01*
X7691707Y-10684804D01*
X7702853Y-10705656D01*
X7747792Y-10789733D01*
X7785353Y-10860004D01*
X7789278Y-10864787D01*
X7789279Y-10864788D01*
X7875418Y-10969749D01*
X7911380Y-11013568D01*
X8064944Y-11139595D01*
X8097817Y-11157166D01*
X8163694Y-11192378D01*
X8211731Y-11237665D01*
X8230274Y-11301026D01*
X8214232Y-11365066D01*
X8168011Y-11412205D01*
X8104298Y-11429500D01*
X3518980Y-11429500D01*
X3458279Y-11413915D01*
X3412595Y-11371014D01*
X3393229Y-11311411D01*
X3404972Y-11249852D01*
X3444919Y-11201564D01*
X3463152Y-11188317D01*
X3590939Y-11046395D01*
X3686426Y-10881007D01*
X3745441Y-10699379D01*
X3765403Y-10509451D01*
X3745441Y-10319523D01*
X3699668Y-10178648D01*
X3688468Y-10144179D01*
X3688467Y-10144177D01*
X3686426Y-10137895D01*
X3590939Y-9972507D01*
X3463152Y-9830585D01*
X3457810Y-9826704D01*
X3457807Y-9826701D01*
X3372556Y-9764763D01*
X3308651Y-9718333D01*
X3134187Y-9640657D01*
X3127734Y-9639285D01*
X3127730Y-9639284D01*
X2953842Y-9602323D01*
X2953839Y-9602322D01*
X2947386Y-9600951D01*
X2756412Y-9600951D01*
X2749959Y-9602322D01*
X2749955Y-9602323D01*
X2576067Y-9639284D01*
X2576060Y-9639286D01*
X2569611Y-9640657D01*
X2563581Y-9643341D01*
X2563580Y-9643342D01*
X2401177Y-9715648D01*
X2401174Y-9715649D01*
X2395147Y-9718333D01*
X2389806Y-9722213D01*
X2389805Y-9722214D01*
X2245990Y-9826701D01*
X2245982Y-9826707D01*
X2240646Y-9830585D01*
X2236229Y-9835490D01*
X2236224Y-9835495D01*
X2149092Y-9932266D01*
X2112859Y-9972507D01*
X2109560Y-9978220D01*
X2109557Y-9978225D01*
X2062812Y-10059190D01*
X2017372Y-10137895D01*
X2015333Y-10144169D01*
X2015329Y-10144179D01*
X1960396Y-10313245D01*
X1960394Y-10313252D01*
X1958357Y-10319523D01*
X1957667Y-10326084D01*
X1957667Y-10326086D01*
X1947328Y-10424462D01*
X1938395Y-10509451D01*
X1939085Y-10516016D01*
X1948734Y-10607826D01*
X1958357Y-10699379D01*
X1960394Y-10705651D01*
X1960396Y-10705656D01*
X2015329Y-10874722D01*
X2015332Y-10874729D01*
X2017372Y-10881007D01*
X2112859Y-11046395D01*
X2240646Y-11188317D01*
X2250533Y-11195500D01*
X2258879Y-11201564D01*
X2298826Y-11249852D01*
X2310569Y-11311411D01*
X2291203Y-11371014D01*
X2245519Y-11413915D01*
X2184818Y-11429500D01*
X-1945601Y-11429500D01*
X-2008601Y-11412619D01*
X-2054720Y-11366500D01*
X-2071601Y-11303500D01*
X-2054720Y-11240500D01*
X-2005815Y-11155794D01*
X-1969016Y-11092056D01*
X-1966976Y-11085778D01*
X-1966973Y-11085771D01*
X-1912040Y-10916705D01*
X-1912038Y-10916700D01*
X-1910001Y-10910428D01*
X-1904127Y-10854545D01*
X-1890729Y-10727065D01*
X-1890039Y-10720500D01*
X-1906495Y-10563928D01*
X-1909311Y-10537135D01*
X-1909311Y-10537133D01*
X-1910001Y-10530572D01*
X-1912038Y-10524301D01*
X-1912040Y-10524294D01*
X-1966973Y-10355228D01*
X-1966977Y-10355218D01*
X-1969016Y-10348944D01*
X-1989627Y-10313245D01*
X-2061201Y-10189274D01*
X-2061204Y-10189269D01*
X-2064503Y-10183556D01*
X-2091035Y-10154089D01*
X-2187868Y-10046544D01*
X-2187873Y-10046539D01*
X-2192290Y-10041634D01*
X-2197626Y-10037756D01*
X-2197634Y-10037750D01*
X-2341449Y-9933263D01*
X-2341450Y-9933262D01*
X-2346791Y-9929382D01*
X-2352818Y-9926698D01*
X-2352821Y-9926697D01*
X-2515224Y-9854391D01*
X-2515225Y-9854390D01*
X-2521255Y-9851706D01*
X-2527704Y-9850335D01*
X-2527711Y-9850333D01*
X-2701599Y-9813372D01*
X-2701603Y-9813371D01*
X-2708056Y-9812000D01*
X-2899030Y-9812000D01*
X-2905483Y-9813371D01*
X-2905486Y-9813372D01*
X-3054696Y-9845088D01*
X-3119828Y-9841674D01*
X-3174528Y-9806153D01*
X-3204139Y-9748041D01*
X-3200727Y-9682909D01*
X-3196998Y-9671433D01*
X-3196995Y-9671422D01*
X-3194958Y-9665151D01*
X-3190102Y-9618954D01*
X-3175686Y-9481788D01*
X-3174996Y-9475223D01*
X-3194958Y-9285295D01*
X-3196995Y-9279024D01*
X-3196997Y-9279017D01*
X-3251930Y-9109951D01*
X-3251934Y-9109941D01*
X-3253973Y-9103667D01*
X-3259320Y-9094406D01*
X-3346158Y-8943997D01*
X-3346161Y-8943992D01*
X-3349460Y-8938279D01*
X-3407297Y-8874044D01*
X-3472825Y-8801267D01*
X-3472830Y-8801262D01*
X-3477247Y-8796357D01*
X-3482583Y-8792479D01*
X-3482591Y-8792473D01*
X-3578419Y-8722850D01*
X-1721543Y-8722850D01*
X-1701581Y-8912778D01*
X-1642566Y-9094406D01*
X-1547079Y-9259794D01*
X-1419292Y-9401716D01*
X-1264791Y-9513968D01*
X-1090327Y-9591644D01*
X-903526Y-9631350D01*
X-719155Y-9631350D01*
X-712552Y-9631350D01*
X-525751Y-9591644D01*
X-351287Y-9513968D01*
X-237447Y-9431258D01*
X-202130Y-9405599D01*
X-202128Y-9405597D01*
X-196786Y-9401716D01*
X-68999Y-9259794D01*
X-60804Y-9245600D01*
X3607696Y-9245600D01*
X3627658Y-9435528D01*
X3629695Y-9441800D01*
X3629697Y-9441805D01*
X3684630Y-9610871D01*
X3684633Y-9610878D01*
X3686673Y-9617156D01*
X3745088Y-9718333D01*
X3776767Y-9773204D01*
X3782160Y-9782544D01*
X3860774Y-9869854D01*
X3901823Y-9915444D01*
X3909947Y-9924466D01*
X3915289Y-9928347D01*
X3915291Y-9928349D01*
X3958498Y-9959741D01*
X4064448Y-10036718D01*
X4238912Y-10114394D01*
X4425713Y-10154100D01*
X4610084Y-10154100D01*
X4616687Y-10154100D01*
X4803488Y-10114394D01*
X4977952Y-10036718D01*
X5094861Y-9951777D01*
X5161010Y-9927963D01*
X5229621Y-9943299D01*
X5346632Y-10007627D01*
X5505823Y-10048500D01*
X5624966Y-10048500D01*
X5628925Y-10048500D01*
X5751058Y-10033071D01*
X5903871Y-9972568D01*
X6036837Y-9875963D01*
X6141600Y-9749326D01*
X6211579Y-9600613D01*
X6242376Y-9439170D01*
X6232056Y-9275140D01*
X6181268Y-9118829D01*
X6135477Y-9046674D01*
X6097451Y-8986755D01*
X6097450Y-8986753D01*
X6093202Y-8980060D01*
X5973393Y-8867552D01*
X5829368Y-8788373D01*
X5821693Y-8786402D01*
X5821692Y-8786402D01*
X5677854Y-8749471D01*
X5677853Y-8749470D01*
X5670177Y-8747500D01*
X5547075Y-8747500D01*
X5543154Y-8747995D01*
X5543143Y-8747996D01*
X5432809Y-8761935D01*
X5432807Y-8761935D01*
X5424942Y-8762929D01*
X5417571Y-8765847D01*
X5417568Y-8765848D01*
X5417503Y-8765874D01*
X5417425Y-8765884D01*
X5409892Y-8767819D01*
X5409674Y-8766973D01*
X5358822Y-8774117D01*
X5302862Y-8754624D01*
X5268726Y-8718771D01*
X5267424Y-8719718D01*
X5263541Y-8714374D01*
X5260240Y-8708656D01*
X5132453Y-8566734D01*
X5127111Y-8562853D01*
X5127108Y-8562850D01*
X5015457Y-8481731D01*
X4977952Y-8454482D01*
X4803488Y-8376806D01*
X4797035Y-8375434D01*
X4797031Y-8375433D01*
X4623143Y-8338472D01*
X4623140Y-8338471D01*
X4616687Y-8337100D01*
X4425713Y-8337100D01*
X4419260Y-8338471D01*
X4419256Y-8338472D01*
X4245368Y-8375433D01*
X4245361Y-8375435D01*
X4238912Y-8376806D01*
X4232882Y-8379490D01*
X4232881Y-8379491D01*
X4070478Y-8451797D01*
X4070475Y-8451798D01*
X4064448Y-8454482D01*
X4059107Y-8458362D01*
X4059106Y-8458363D01*
X3915291Y-8562850D01*
X3915283Y-8562856D01*
X3909947Y-8566734D01*
X3905530Y-8571639D01*
X3905525Y-8571644D01*
X3800771Y-8687986D01*
X3782160Y-8708656D01*
X3778861Y-8714369D01*
X3778858Y-8714374D01*
X3692718Y-8863573D01*
X3686673Y-8874044D01*
X3684634Y-8880318D01*
X3684630Y-8880328D01*
X3629697Y-9049394D01*
X3629695Y-9049401D01*
X3627658Y-9055672D01*
X3626968Y-9062233D01*
X3626968Y-9062235D01*
X3612155Y-9203174D01*
X3607696Y-9245600D01*
X-60804Y-9245600D01*
X26488Y-9094406D01*
X85503Y-8912778D01*
X105465Y-8722850D01*
X85503Y-8532922D01*
X35650Y-8379491D01*
X28530Y-8357578D01*
X28529Y-8357576D01*
X26488Y-8351294D01*
X-35753Y-8243490D01*
X-65697Y-8191624D01*
X-65700Y-8191619D01*
X-68999Y-8185906D01*
X-88958Y-8163739D01*
X-192364Y-8048894D01*
X-192369Y-8048889D01*
X-196786Y-8043984D01*
X-202122Y-8040106D01*
X-202130Y-8040100D01*
X-345945Y-7935613D01*
X-345946Y-7935612D01*
X-351287Y-7931732D01*
X-357314Y-7929048D01*
X-357317Y-7929047D01*
X-519720Y-7856741D01*
X-519721Y-7856740D01*
X-525751Y-7854056D01*
X-532200Y-7852685D01*
X-532207Y-7852683D01*
X-706095Y-7815722D01*
X-706099Y-7815721D01*
X-712552Y-7814350D01*
X-903526Y-7814350D01*
X-909979Y-7815721D01*
X-909982Y-7815722D01*
X-1083870Y-7852683D01*
X-1083874Y-7852684D01*
X-1090327Y-7854056D01*
X-1264791Y-7931732D01*
X-1309443Y-7964174D01*
X-1413947Y-8040100D01*
X-1413950Y-8040103D01*
X-1419292Y-8043984D01*
X-1547079Y-8185906D01*
X-1642566Y-8351294D01*
X-1644607Y-8357576D01*
X-1644608Y-8357578D01*
X-1651728Y-8379491D01*
X-1701581Y-8532922D01*
X-1721543Y-8722850D01*
X-3578419Y-8722850D01*
X-3626406Y-8687986D01*
X-3626407Y-8687985D01*
X-3631748Y-8684105D01*
X-3637775Y-8681421D01*
X-3637778Y-8681420D01*
X-3800181Y-8609114D01*
X-3800182Y-8609113D01*
X-3806212Y-8606429D01*
X-3812661Y-8605058D01*
X-3812668Y-8605056D01*
X-3986556Y-8568095D01*
X-3986560Y-8568094D01*
X-3993013Y-8566723D01*
X-4183987Y-8566723D01*
X-4190440Y-8568094D01*
X-4190443Y-8568095D01*
X-4364331Y-8605056D01*
X-4364335Y-8605057D01*
X-4370788Y-8606429D01*
X-4545252Y-8684105D01*
X-4592965Y-8718771D01*
X-4694408Y-8792473D01*
X-4694411Y-8792476D01*
X-4699753Y-8796357D01*
X-4827540Y-8938279D01*
X-4855528Y-8986755D01*
X-4857744Y-8990594D01*
X-4902723Y-9036047D01*
X-4964223Y-9053566D01*
X-5026403Y-9038639D01*
X-5073248Y-8995109D01*
X-5078550Y-8986753D01*
X-5078552Y-8986750D01*
X-5082798Y-8980060D01*
X-5088572Y-8974637D01*
X-5088577Y-8974632D01*
X-5196830Y-8872976D01*
X-5196834Y-8872972D01*
X-5202607Y-8867552D01*
X-5209550Y-8863734D01*
X-5209553Y-8863733D01*
X-5339684Y-8792192D01*
X-5339688Y-8792190D01*
X-5346632Y-8788373D01*
X-5354304Y-8786403D01*
X-5354307Y-8786402D01*
X-5498145Y-8749471D01*
X-5498147Y-8749470D01*
X-5505823Y-8747500D01*
X-5628925Y-8747500D01*
X-5632846Y-8747995D01*
X-5632856Y-8747996D01*
X-5743192Y-8761935D01*
X-5743194Y-8761935D01*
X-5751058Y-8762929D01*
X-5758424Y-8765845D01*
X-5758426Y-8765846D01*
X-5896502Y-8820514D01*
X-5896504Y-8820515D01*
X-5903871Y-8823432D01*
X-6036837Y-8920037D01*
X-6141600Y-9046674D01*
X-6211579Y-9195387D01*
X-6242376Y-9356830D01*
X-6232056Y-9520860D01*
X-6181268Y-9677171D01*
X-6093202Y-9815940D01*
X-5973393Y-9928448D01*
X-5829368Y-10007627D01*
X-5670177Y-10048500D01*
X-5551034Y-10048500D01*
X-5547075Y-10048500D01*
X-5424942Y-10033071D01*
X-5272129Y-9972568D01*
X-5139163Y-9875963D01*
X-5134109Y-9869854D01*
X-5134107Y-9869852D01*
X-5117499Y-9849777D01*
X-5069241Y-9813939D01*
X-5009871Y-9804536D01*
X-4952901Y-9823709D01*
X-4911299Y-9867090D01*
X-4827540Y-10012167D01*
X-4699753Y-10154089D01*
X-4545252Y-10266341D01*
X-4370788Y-10344017D01*
X-4183987Y-10383723D01*
X-3999616Y-10383723D01*
X-3993013Y-10383723D01*
X-3837347Y-10350635D01*
X-3772213Y-10354048D01*
X-3717513Y-10389570D01*
X-3687902Y-10447684D01*
X-3691315Y-10512816D01*
X-3697085Y-10530572D01*
X-3717047Y-10720500D01*
X-3697085Y-10910428D01*
X-3638070Y-11092056D01*
X-3580252Y-11192199D01*
X-3552366Y-11240500D01*
X-3535485Y-11303500D01*
X-3552366Y-11366500D01*
X-3598485Y-11412619D01*
X-3661485Y-11429500D01*
X-8107350Y-11429500D01*
X-8171063Y-11412205D01*
X-8217284Y-11365066D01*
X-8233326Y-11301026D01*
X-8214783Y-11237665D01*
X-8166746Y-11192378D01*
X-8100869Y-11157166D01*
X-8067996Y-11139595D01*
X-7914432Y-11013568D01*
X-7878470Y-10969749D01*
X-7792331Y-10864788D01*
X-7792330Y-10864787D01*
X-7788405Y-10860004D01*
X-7750844Y-10789733D01*
X-7705905Y-10705656D01*
X-7694759Y-10684804D01*
X-7667619Y-10595335D01*
X-7638888Y-10500623D01*
X-7638887Y-10500619D01*
X-7637092Y-10494701D01*
X-7636485Y-10488547D01*
X-7636484Y-10488538D01*
X-7618227Y-10303163D01*
X-7617620Y-10297000D01*
X-7618605Y-10287000D01*
X-7636484Y-10105461D01*
X-7636486Y-10105450D01*
X-7637092Y-10099299D01*
X-7638886Y-10093382D01*
X-7638888Y-10093376D01*
X-7692963Y-9915115D01*
X-7692964Y-9915110D01*
X-7694759Y-9909196D01*
X-7697673Y-9903742D01*
X-7698771Y-9901094D01*
X-7707378Y-9837173D01*
X-7688046Y-9789298D01*
X-7689829Y-9788325D01*
X-7685510Y-9780416D01*
X-7680111Y-9773204D01*
X-7676964Y-9764766D01*
X-7676962Y-9764763D01*
X-7631763Y-9643580D01*
X-7631762Y-9643578D01*
X-7629011Y-9636201D01*
X-7628169Y-9628373D01*
X-7628168Y-9628367D01*
X-7622860Y-9578988D01*
X-7622859Y-9578985D01*
X-7622500Y-9575638D01*
X-7622500Y-8478362D01*
X-7622860Y-8475011D01*
X-7628168Y-8425632D01*
X-7628169Y-8425625D01*
X-7629011Y-8417799D01*
X-7631761Y-8410423D01*
X-7631763Y-8410419D01*
X-7676962Y-8289236D01*
X-7676965Y-8289230D01*
X-7680111Y-8280796D01*
X-7685506Y-8273588D01*
X-7685510Y-8273582D01*
X-7762340Y-8170950D01*
X-7762343Y-8170946D01*
X-7767739Y-8163739D01*
X-7774946Y-8158343D01*
X-7774950Y-8158340D01*
X-7877582Y-8081510D01*
X-7877588Y-8081506D01*
X-7884796Y-8076111D01*
X-7893230Y-8072965D01*
X-7893236Y-8072962D01*
X-8014419Y-8027763D01*
X-8014423Y-8027761D01*
X-8021799Y-8025011D01*
X-8029625Y-8024169D01*
X-8029632Y-8024168D01*
X-8079011Y-8018860D01*
X-8079015Y-8018859D01*
X-8082362Y-8018500D01*
X-9179638Y-8018500D01*
X-9182985Y-8018859D01*
X-9182988Y-8018860D01*
X-9232367Y-8024168D01*
X-9232373Y-8024169D01*
X-9240201Y-8025011D01*
X-9247578Y-8027762D01*
X-9247580Y-8027763D01*
X-9368763Y-8072962D01*
X-9368766Y-8072964D01*
X-9377204Y-8076111D01*
X-9384416Y-8081510D01*
X-9392325Y-8085829D01*
X-9393298Y-8084046D01*
X-9441173Y-8103378D01*
X-9505094Y-8094771D01*
X-9507742Y-8093673D01*
X-9513196Y-8090759D01*
X-9519110Y-8088964D01*
X-9519115Y-8088963D01*
X-9697376Y-8034888D01*
X-9697382Y-8034886D01*
X-9703299Y-8033092D01*
X-9709450Y-8032486D01*
X-9709461Y-8032484D01*
X-9894837Y-8014227D01*
X-9901000Y-8013620D01*
X-9907163Y-8014227D01*
X-10092538Y-8032484D01*
X-10092547Y-8032485D01*
X-10098701Y-8033092D01*
X-10104619Y-8034887D01*
X-10104623Y-8034888D01*
X-10240516Y-8076111D01*
X-10288804Y-8090759D01*
X-10294265Y-8093678D01*
X-10458548Y-8181488D01*
X-10458553Y-8181491D01*
X-10464004Y-8184405D01*
X-10467046Y-8186901D01*
X-10511421Y-8205280D01*
X-10560579Y-8205280D01*
X-10604953Y-8186901D01*
X-10607996Y-8184405D01*
X-10613441Y-8181494D01*
X-10613451Y-8181488D01*
X-10777734Y-8093678D01*
X-10777738Y-8093676D01*
X-10783196Y-8090759D01*
X-10789116Y-8088963D01*
X-10789119Y-8088962D01*
X-10967376Y-8034888D01*
X-10967382Y-8034886D01*
X-10973299Y-8033092D01*
X-10979450Y-8032486D01*
X-10979461Y-8032484D01*
X-11164837Y-8014227D01*
X-11171000Y-8013620D01*
X-11177163Y-8014227D01*
X-11362538Y-8032484D01*
X-11362547Y-8032485D01*
X-11368701Y-8033092D01*
X-11374619Y-8034887D01*
X-11374623Y-8034888D01*
X-11510516Y-8076111D01*
X-11558804Y-8090759D01*
X-11564265Y-8093678D01*
X-11708831Y-8170950D01*
X-11734004Y-8184405D01*
X-11738787Y-8188330D01*
X-11738788Y-8188331D01*
X-11854439Y-8283244D01*
X-11887568Y-8310432D01*
X-12013595Y-8463996D01*
X-12107241Y-8639196D01*
X-12109036Y-8645114D01*
X-12114165Y-8662022D01*
X-12146032Y-8714929D01*
X-12199214Y-8746335D01*
X-12260932Y-8748695D01*
X-12266255Y-8747563D01*
X-12266265Y-8747561D01*
X-12272715Y-8746191D01*
X-12463689Y-8746191D01*
X-12470142Y-8747562D01*
X-12470145Y-8747563D01*
X-12644033Y-8784524D01*
X-12644037Y-8784525D01*
X-12650490Y-8785897D01*
X-12824954Y-8863573D01*
X-12848015Y-8880328D01*
X-12974110Y-8971941D01*
X-12974113Y-8971944D01*
X-12979455Y-8975825D01*
X-13107242Y-9117747D01*
X-13202729Y-9283135D01*
X-13242520Y-9405599D01*
X-13243069Y-9407288D01*
X-13281911Y-9464873D01*
X-13345366Y-9493125D01*
X-13414150Y-9483458D01*
X-13554677Y-9420892D01*
X-13554684Y-9420889D01*
X-13560712Y-9418206D01*
X-13567161Y-9416835D01*
X-13567168Y-9416833D01*
X-13741056Y-9379872D01*
X-13741060Y-9379871D01*
X-13747513Y-9378500D01*
X-13938487Y-9378500D01*
X-13944940Y-9379871D01*
X-13944943Y-9379872D01*
X-14118831Y-9416833D01*
X-14118835Y-9416834D01*
X-14125288Y-9418206D01*
X-14299752Y-9495882D01*
X-14328339Y-9516652D01*
X-14448908Y-9604250D01*
X-14448911Y-9604253D01*
X-14454253Y-9608134D01*
X-14582040Y-9750056D01*
X-14677527Y-9915444D01*
X-14679568Y-9921726D01*
X-14679569Y-9921728D01*
X-14681595Y-9927963D01*
X-14736542Y-10097072D01*
X-14756504Y-10287000D01*
X-14736542Y-10476928D01*
X-14677527Y-10658556D01*
X-14582040Y-10823944D01*
X-14454253Y-10965866D01*
X-14299752Y-11078118D01*
X-14125288Y-11155794D01*
X-14010218Y-11180253D01*
X-13955424Y-11206978D01*
X-13919590Y-11256300D01*
X-13911105Y-11316671D01*
X-13931956Y-11373958D01*
X-13977262Y-11414751D01*
X-14036415Y-11429500D01*
X-19568132Y-11429500D01*
X-19631126Y-11412623D01*
X-19677244Y-11366513D01*
X-19694132Y-11303522D01*
X-19677266Y-11240526D01*
X-15747631Y-4430504D01*
X-15699362Y-4383154D01*
X-15633566Y-4367575D01*
X-15569190Y-4388252D01*
X-15524772Y-4439231D01*
X-15513104Y-4505828D01*
X-15514818Y-4523225D01*
X-15495346Y-4720926D01*
X-15437679Y-4911029D01*
X-15344033Y-5086229D01*
X-15218006Y-5239793D01*
X-15072845Y-5358923D01*
X-15033270Y-5416405D01*
X-15030358Y-5486134D01*
X-15065004Y-5546717D01*
X-15126580Y-5579567D01*
X-15147945Y-5584108D01*
X-15147957Y-5584112D01*
X-15154407Y-5585483D01*
X-15328871Y-5663159D01*
X-15377534Y-5698515D01*
X-15478027Y-5771527D01*
X-15478030Y-5771530D01*
X-15483372Y-5775411D01*
X-15611159Y-5917333D01*
X-15706646Y-6082721D01*
X-15708687Y-6089003D01*
X-15708688Y-6089005D01*
X-15726636Y-6144244D01*
X-15765661Y-6264349D01*
X-15785623Y-6454277D01*
X-15765661Y-6644205D01*
X-15706646Y-6825833D01*
X-15611159Y-6991221D01*
X-15483372Y-7133143D01*
X-15328871Y-7245395D01*
X-15154407Y-7323071D01*
X-14967606Y-7362777D01*
X-14783235Y-7362777D01*
X-14776632Y-7362777D01*
X-14589831Y-7323071D01*
X-14415367Y-7245395D01*
X-14260866Y-7133143D01*
X-14241659Y-7111812D01*
X-14208380Y-7074851D01*
X-14133079Y-6991221D01*
X-14037592Y-6825833D01*
X-14035552Y-6819555D01*
X-14035549Y-6819548D01*
X-13989925Y-6679133D01*
X-7211637Y-6679133D01*
X-7191675Y-6869061D01*
X-7132660Y-7050689D01*
X-7037173Y-7216077D01*
X-6909386Y-7357999D01*
X-6754885Y-7470251D01*
X-6580421Y-7547927D01*
X-6393620Y-7587633D01*
X-6209249Y-7587633D01*
X-6202646Y-7587633D01*
X-6015845Y-7547927D01*
X-5841381Y-7470251D01*
X-5686880Y-7357999D01*
X-5582970Y-7242595D01*
X-45607Y-7242595D01*
X-25645Y-7432523D01*
X-13386Y-7470251D01*
X31327Y-7607866D01*
X31330Y-7607873D01*
X33370Y-7614151D01*
X128857Y-7779539D01*
X256644Y-7921461D01*
X261986Y-7925342D01*
X261988Y-7925344D01*
X276122Y-7935613D01*
X411145Y-8033713D01*
X585609Y-8111389D01*
X772410Y-8151095D01*
X956781Y-8151095D01*
X963384Y-8151095D01*
X1150185Y-8111389D01*
X1156220Y-8108701D01*
X1156223Y-8108701D01*
X1242632Y-8070229D01*
X1311802Y-8039432D01*
X1363050Y-8028539D01*
X1414299Y-8039432D01*
X1456686Y-8070229D01*
X1468263Y-8083087D01*
X1468270Y-8083093D01*
X1472688Y-8088000D01*
X1627189Y-8200252D01*
X1801653Y-8277928D01*
X1988454Y-8317634D01*
X2172825Y-8317634D01*
X2179428Y-8317634D01*
X2366229Y-8277928D01*
X2540693Y-8200252D01*
X2695194Y-8088000D01*
X2822981Y-7946078D01*
X2918468Y-7780690D01*
X2977483Y-7599062D01*
X2997445Y-7409134D01*
X2977483Y-7219206D01*
X2918468Y-7037578D01*
X2822981Y-6872190D01*
X2695194Y-6730268D01*
X2689852Y-6726387D01*
X2689849Y-6726384D01*
X2567704Y-6637641D01*
X2540693Y-6618016D01*
X2366229Y-6540340D01*
X2359776Y-6538968D01*
X2359772Y-6538967D01*
X2185884Y-6502006D01*
X2185881Y-6502005D01*
X2179428Y-6500634D01*
X1988454Y-6500634D01*
X1982001Y-6502005D01*
X1981997Y-6502006D01*
X1808109Y-6538967D01*
X1808102Y-6538969D01*
X1801653Y-6540340D01*
X1795623Y-6543024D01*
X1795622Y-6543025D01*
X1640036Y-6612296D01*
X1588787Y-6623189D01*
X1537538Y-6612295D01*
X1495150Y-6581499D01*
X1483569Y-6568637D01*
X1479150Y-6563729D01*
X1324649Y-6451477D01*
X1150185Y-6373801D01*
X1143732Y-6372429D01*
X1143728Y-6372428D01*
X969840Y-6335467D01*
X969837Y-6335466D01*
X963384Y-6334095D01*
X772410Y-6334095D01*
X765957Y-6335466D01*
X765953Y-6335467D01*
X592065Y-6372428D01*
X592058Y-6372430D01*
X585609Y-6373801D01*
X579579Y-6376485D01*
X579578Y-6376486D01*
X417175Y-6448792D01*
X417172Y-6448793D01*
X411145Y-6451477D01*
X405804Y-6455357D01*
X405803Y-6455358D01*
X261988Y-6559845D01*
X261980Y-6559851D01*
X256644Y-6563729D01*
X252227Y-6568634D01*
X252222Y-6568639D01*
X145175Y-6687528D01*
X128857Y-6705651D01*
X125558Y-6711364D01*
X125555Y-6711369D01*
X39057Y-6861189D01*
X33370Y-6871039D01*
X31331Y-6877313D01*
X31327Y-6877323D01*
X-7169Y-6995803D01*
X-25645Y-7052667D01*
X-45607Y-7242595D01*
X-5582970Y-7242595D01*
X-5559093Y-7216077D01*
X-5463606Y-7050689D01*
X-5461566Y-7044411D01*
X-5461563Y-7044404D01*
X-5406630Y-6875338D01*
X-5406628Y-6875333D01*
X-5404591Y-6869061D01*
X-5397825Y-6804691D01*
X-5385319Y-6685698D01*
X-5384629Y-6679133D01*
X-5397166Y-6559846D01*
X-5403901Y-6495768D01*
X-5403901Y-6495766D01*
X-5404591Y-6489205D01*
X-5406628Y-6482934D01*
X-5406630Y-6482927D01*
X-5461563Y-6313861D01*
X-5461567Y-6313851D01*
X-5463606Y-6307577D01*
X-5468151Y-6299705D01*
X-5555791Y-6147907D01*
X-5555794Y-6147902D01*
X-5559093Y-6142189D01*
X-5583139Y-6115482D01*
X-5613588Y-6053053D01*
X-5606327Y-5983974D01*
X-5563563Y-5929238D01*
X-5439291Y-5838949D01*
X-5439289Y-5838947D01*
X-5433947Y-5835066D01*
X-5306160Y-5693144D01*
X-5249905Y-5595707D01*
X-4899899Y-5595707D01*
X-4879937Y-5785635D01*
X-4820922Y-5967263D01*
X-4725435Y-6132651D01*
X-4597648Y-6274573D01*
X-4443147Y-6386825D01*
X-4268683Y-6464501D01*
X-4123156Y-6495433D01*
X-4070059Y-6520760D01*
X-4034247Y-6567433D01*
X-4033121Y-6569960D01*
X-4031081Y-6576241D01*
X-3935594Y-6741629D01*
X-3807807Y-6883551D01*
X-3653306Y-6995803D01*
X-3478842Y-7073479D01*
X-3292041Y-7113185D01*
X-3107670Y-7113185D01*
X-3101067Y-7113185D01*
X-2914266Y-7073479D01*
X-2739802Y-6995803D01*
X-2630220Y-6916187D01*
X-2590645Y-6887434D01*
X-2590643Y-6887432D01*
X-2585301Y-6883551D01*
X-2575071Y-6872190D01*
X-2533332Y-6825833D01*
X-2457514Y-6741629D01*
X-2453789Y-6735178D01*
X-2401266Y-6644205D01*
X-2362027Y-6576241D01*
X-2359987Y-6569963D01*
X-2359984Y-6569956D01*
X-2303012Y-6394613D01*
X-2300940Y-6395286D01*
X-2280883Y-6353234D01*
X-2234210Y-6317421D01*
X-2199245Y-6301854D01*
X-2077184Y-6247509D01*
X-1966258Y-6166916D01*
X-1928027Y-6139140D01*
X-1928025Y-6139138D01*
X-1922683Y-6135257D01*
X-1794896Y-5993335D01*
X-1786536Y-5978856D01*
X-1757890Y-5929238D01*
X-1699409Y-5827947D01*
X-1697369Y-5821669D01*
X-1697366Y-5821662D01*
X-1642433Y-5652596D01*
X-1642431Y-5652591D01*
X-1640394Y-5646319D01*
X-1639657Y-5639312D01*
X-1621122Y-5462956D01*
X-1620432Y-5456391D01*
X-1633221Y-5334707D01*
X-1639704Y-5273026D01*
X-1639704Y-5273024D01*
X-1640394Y-5266463D01*
X-1642431Y-5260192D01*
X-1642433Y-5260185D01*
X-1674003Y-5163024D01*
X-1677416Y-5097890D01*
X-1647805Y-5039777D01*
X-1593105Y-5004254D01*
X-1527972Y-5000842D01*
X-1503247Y-5006097D01*
X-1474492Y-5012210D01*
X-1474488Y-5012210D01*
X-1468031Y-5013583D01*
X-1283660Y-5013583D01*
X-1277057Y-5013583D01*
X-1090256Y-4973877D01*
X-915792Y-4896201D01*
X-786052Y-4801939D01*
X-772168Y-4791852D01*
X-719119Y-4769552D01*
X-661688Y-4773166D01*
X-611853Y-4801939D01*
X-580009Y-4849870D01*
X-572797Y-4906957D01*
X-575760Y-4935144D01*
X-555798Y-5125072D01*
X-496783Y-5306700D01*
X-401296Y-5472088D01*
X-273509Y-5614010D01*
X-119008Y-5726262D01*
X55456Y-5803938D01*
X242257Y-5843644D01*
X426628Y-5843644D01*
X433231Y-5843644D01*
X620032Y-5803938D01*
X794496Y-5726262D01*
X948997Y-5614010D01*
X965438Y-5595749D01*
X1007823Y-5564954D01*
X1059073Y-5554059D01*
X1110321Y-5564951D01*
X1250465Y-5627347D01*
X1437266Y-5667053D01*
X1621637Y-5667053D01*
X1628240Y-5667053D01*
X1815041Y-5627347D01*
X1989505Y-5549671D01*
X2144006Y-5437419D01*
X2271793Y-5295497D01*
X2315093Y-5220497D01*
X2350150Y-5181564D01*
X2398014Y-5160253D01*
X2450408Y-5160253D01*
X2631390Y-5198723D01*
X2815761Y-5198723D01*
X2822364Y-5198723D01*
X2903090Y-5181564D01*
X2935548Y-5174665D01*
X2998163Y-5177288D01*
X3051769Y-5209753D01*
X3083104Y-5264026D01*
X3084417Y-5326682D01*
X3055383Y-5382221D01*
X3029386Y-5411094D01*
X2970378Y-5476629D01*
X2967079Y-5482342D01*
X2967076Y-5482347D01*
X2878510Y-5635749D01*
X2874891Y-5642017D01*
X2872852Y-5648291D01*
X2872848Y-5648301D01*
X2817915Y-5817367D01*
X2817913Y-5817374D01*
X2815876Y-5823645D01*
X2815186Y-5830206D01*
X2815186Y-5830208D01*
X2796976Y-6003465D01*
X2795914Y-6013573D01*
X2796604Y-6020138D01*
X2808950Y-6137609D01*
X2815876Y-6203501D01*
X2817913Y-6209773D01*
X2817915Y-6209778D01*
X2872848Y-6378844D01*
X2872851Y-6378851D01*
X2874891Y-6385129D01*
X2911647Y-6448792D01*
X2963709Y-6538967D01*
X2970378Y-6550517D01*
X3098165Y-6692439D01*
X3103507Y-6696320D01*
X3103509Y-6696322D01*
X3123873Y-6711117D01*
X3252666Y-6804691D01*
X3427130Y-6882367D01*
X3613931Y-6922073D01*
X3798302Y-6922073D01*
X3804905Y-6922073D01*
X3991706Y-6882367D01*
X4150235Y-6811785D01*
X4210271Y-6801200D01*
X4268252Y-6820039D01*
X4310601Y-6863893D01*
X4386947Y-6996128D01*
X4404527Y-7026577D01*
X4532314Y-7168499D01*
X4686815Y-7280751D01*
X4861279Y-7358427D01*
X5048080Y-7398133D01*
X5232451Y-7398133D01*
X5239054Y-7398133D01*
X5425855Y-7358427D01*
X5600319Y-7280751D01*
X5754820Y-7168499D01*
X5882607Y-7026577D01*
X5978094Y-6861189D01*
X6037109Y-6679561D01*
X6057071Y-6489633D01*
X6037109Y-6299705D01*
X5988191Y-6149151D01*
X5980136Y-6124361D01*
X5980135Y-6124359D01*
X5978094Y-6118077D01*
X5882607Y-5952689D01*
X5754820Y-5810767D01*
X5749478Y-5806886D01*
X5749475Y-5806883D01*
X5657743Y-5740236D01*
X5600319Y-5698515D01*
X5425855Y-5620839D01*
X5419402Y-5619467D01*
X5419398Y-5619466D01*
X5245510Y-5582505D01*
X5245507Y-5582504D01*
X5239054Y-5581133D01*
X5048080Y-5581133D01*
X5041627Y-5582504D01*
X5041623Y-5582505D01*
X4867735Y-5619466D01*
X4867728Y-5619468D01*
X4861279Y-5620839D01*
X4855251Y-5623522D01*
X4855244Y-5623525D01*
X4702750Y-5691419D01*
X4642712Y-5702005D01*
X4584732Y-5683166D01*
X4542383Y-5639312D01*
X4533924Y-5624661D01*
X4448458Y-5476629D01*
X4320671Y-5334707D01*
X4315329Y-5330826D01*
X4315326Y-5330823D01*
X4289205Y-5311845D01*
X6109552Y-5311845D01*
X6110242Y-5318410D01*
X6120114Y-5412342D01*
X6129514Y-5501773D01*
X6131551Y-5508045D01*
X6131553Y-5508050D01*
X6186486Y-5677116D01*
X6186489Y-5677123D01*
X6188529Y-5683401D01*
X6232099Y-5758866D01*
X6269222Y-5823166D01*
X6284016Y-5848789D01*
X6411803Y-5990711D01*
X6417145Y-5994592D01*
X6417147Y-5994594D01*
X6433372Y-6006382D01*
X6566304Y-6102963D01*
X6740768Y-6180639D01*
X6927569Y-6220345D01*
X7111940Y-6220345D01*
X7118543Y-6220345D01*
X7305344Y-6180639D01*
X7479808Y-6102963D01*
X7634309Y-5990711D01*
X7762096Y-5848789D01*
X7857583Y-5683401D01*
X7916598Y-5501773D01*
X7936560Y-5311845D01*
X7916598Y-5121917D01*
X7868942Y-4975249D01*
X7861713Y-4953000D01*
X9185998Y-4953000D01*
X9186688Y-4959565D01*
X9204106Y-5125293D01*
X9205960Y-5142928D01*
X9207997Y-5149200D01*
X9207999Y-5149205D01*
X9262932Y-5318271D01*
X9262935Y-5318278D01*
X9264975Y-5324556D01*
X9322352Y-5423935D01*
X9352774Y-5476629D01*
X9360462Y-5489944D01*
X9466130Y-5607300D01*
X9481761Y-5624661D01*
X9488249Y-5631866D01*
X9493591Y-5635747D01*
X9493593Y-5635749D01*
X9516781Y-5652596D01*
X9642750Y-5744118D01*
X9817214Y-5821794D01*
X10004015Y-5861500D01*
X10188386Y-5861500D01*
X10194989Y-5861500D01*
X10381790Y-5821794D01*
X10556254Y-5744118D01*
X10710755Y-5631866D01*
X10838542Y-5489944D01*
X10934029Y-5324556D01*
X10993044Y-5142928D01*
X11013006Y-4953000D01*
X10993044Y-4763072D01*
X10947004Y-4621377D01*
X10936071Y-4587728D01*
X10936070Y-4587726D01*
X10934029Y-4581444D01*
X10838542Y-4416056D01*
X10710755Y-4274134D01*
X10705413Y-4270253D01*
X10705410Y-4270250D01*
X10571380Y-4172872D01*
X10556254Y-4161882D01*
X10381790Y-4084206D01*
X10375337Y-4082834D01*
X10375333Y-4082833D01*
X10201445Y-4045872D01*
X10201442Y-4045871D01*
X10194989Y-4044500D01*
X10004015Y-4044500D01*
X9997562Y-4045871D01*
X9997558Y-4045872D01*
X9823670Y-4082833D01*
X9823663Y-4082835D01*
X9817214Y-4084206D01*
X9811184Y-4086890D01*
X9811183Y-4086891D01*
X9648780Y-4159197D01*
X9648777Y-4159198D01*
X9642750Y-4161882D01*
X9637409Y-4165762D01*
X9637408Y-4165763D01*
X9493593Y-4270250D01*
X9493585Y-4270256D01*
X9488249Y-4274134D01*
X9483832Y-4279039D01*
X9483827Y-4279044D01*
X9369477Y-4406044D01*
X9360462Y-4416056D01*
X9357163Y-4421769D01*
X9357160Y-4421774D01*
X9292755Y-4533328D01*
X9264975Y-4581444D01*
X9262936Y-4587718D01*
X9262932Y-4587728D01*
X9207999Y-4756794D01*
X9207997Y-4756801D01*
X9205960Y-4763072D01*
X9205270Y-4769633D01*
X9205270Y-4769635D01*
X9189301Y-4921573D01*
X9185998Y-4953000D01*
X7861713Y-4953000D01*
X7859625Y-4946573D01*
X7859624Y-4946571D01*
X7857583Y-4940289D01*
X7762096Y-4774901D01*
X7634309Y-4632979D01*
X7628967Y-4629098D01*
X7628964Y-4629095D01*
X7505791Y-4539605D01*
X7479808Y-4520727D01*
X7305344Y-4443051D01*
X7298891Y-4441679D01*
X7298887Y-4441678D01*
X7124999Y-4404717D01*
X7124996Y-4404716D01*
X7118543Y-4403345D01*
X6927569Y-4403345D01*
X6921116Y-4404716D01*
X6921112Y-4404717D01*
X6747224Y-4441678D01*
X6747217Y-4441680D01*
X6740768Y-4443051D01*
X6734738Y-4445735D01*
X6734737Y-4445736D01*
X6572334Y-4518042D01*
X6572331Y-4518043D01*
X6566304Y-4520727D01*
X6560963Y-4524607D01*
X6560962Y-4524608D01*
X6417147Y-4629095D01*
X6417139Y-4629101D01*
X6411803Y-4632979D01*
X6407386Y-4637884D01*
X6407381Y-4637889D01*
X6288435Y-4769993D01*
X6284016Y-4774901D01*
X6280717Y-4780614D01*
X6280714Y-4780619D01*
X6195287Y-4928583D01*
X6188529Y-4940289D01*
X6186490Y-4946563D01*
X6186486Y-4946573D01*
X6131553Y-5115639D01*
X6131551Y-5115646D01*
X6129514Y-5121917D01*
X6128824Y-5128478D01*
X6128824Y-5128480D01*
X6118947Y-5222455D01*
X6109552Y-5311845D01*
X4289205Y-5311845D01*
X4231511Y-5269928D01*
X4166170Y-5222455D01*
X3991706Y-5144779D01*
X3985253Y-5143407D01*
X3985249Y-5143406D01*
X3811361Y-5106445D01*
X3811358Y-5106444D01*
X3804905Y-5105073D01*
X3613931Y-5105073D01*
X3607481Y-5106443D01*
X3607471Y-5106445D01*
X3500744Y-5129131D01*
X3438130Y-5126506D01*
X3384524Y-5094041D01*
X3353189Y-5039767D01*
X3351877Y-4977111D01*
X3380909Y-4921577D01*
X3465917Y-4827167D01*
X3561404Y-4661779D01*
X3620419Y-4480151D01*
X3640381Y-4290223D01*
X3620419Y-4100295D01*
X3580724Y-3978128D01*
X3563446Y-3924951D01*
X3563445Y-3924949D01*
X3561404Y-3918667D01*
X3465917Y-3753279D01*
X3338130Y-3611357D01*
X3332788Y-3607476D01*
X3332785Y-3607473D01*
X3238751Y-3539154D01*
X3183629Y-3499105D01*
X3009165Y-3421429D01*
X3002712Y-3420057D01*
X3002708Y-3420056D01*
X2828820Y-3383095D01*
X2828817Y-3383094D01*
X2822364Y-3381723D01*
X2631390Y-3381723D01*
X2624937Y-3383094D01*
X2624933Y-3383095D01*
X2451045Y-3420056D01*
X2451038Y-3420058D01*
X2444589Y-3421429D01*
X2438559Y-3424113D01*
X2438558Y-3424114D01*
X2276155Y-3496420D01*
X2276152Y-3496421D01*
X2270125Y-3499105D01*
X2264784Y-3502985D01*
X2264783Y-3502986D01*
X2120968Y-3607473D01*
X2120960Y-3607479D01*
X2115624Y-3611357D01*
X2111207Y-3616262D01*
X2111202Y-3616267D01*
X1999068Y-3740806D01*
X1987837Y-3753279D01*
X1984538Y-3758992D01*
X1984538Y-3758993D01*
X1944537Y-3828276D01*
X1909478Y-3867212D01*
X1861614Y-3888522D01*
X1809221Y-3888522D01*
X1634696Y-3851425D01*
X1634693Y-3851424D01*
X1628240Y-3850053D01*
X1437266Y-3850053D01*
X1430816Y-3851423D01*
X1430806Y-3851425D01*
X1332062Y-3872414D01*
X1262771Y-3867568D01*
X1206576Y-3826740D01*
X1180556Y-3762336D01*
X1180205Y-3758997D01*
X1178953Y-3747084D01*
X1133590Y-3607473D01*
X1121980Y-3571740D01*
X1121979Y-3571738D01*
X1119938Y-3565456D01*
X1024451Y-3400068D01*
X938161Y-3304233D01*
X908552Y-3246121D01*
X911966Y-3180988D01*
X918113Y-3162073D01*
X938075Y-2972145D01*
X918113Y-2782217D01*
X859098Y-2600589D01*
X763611Y-2435201D01*
X635824Y-2293279D01*
X630482Y-2289398D01*
X630479Y-2289395D01*
X528508Y-2215309D01*
X481323Y-2181027D01*
X306859Y-2103351D01*
X300406Y-2101979D01*
X300402Y-2101978D01*
X126514Y-2065017D01*
X126511Y-2065016D01*
X120058Y-2063645D01*
X113455Y-2063645D01*
X111606Y-2063645D01*
X110412Y-2063325D01*
X106889Y-2062955D01*
X106947Y-2062396D01*
X48606Y-2046764D01*
X2487Y-2000645D01*
X-70625Y-1874011D01*
X-70628Y-1874006D01*
X-73927Y-1868293D01*
X-78346Y-1863385D01*
X-197292Y-1731281D01*
X-197297Y-1731276D01*
X-201714Y-1726371D01*
X-207050Y-1722493D01*
X-207058Y-1722487D01*
X-350873Y-1618000D01*
X-350874Y-1617999D01*
X-356215Y-1614119D01*
X-362242Y-1611435D01*
X-362245Y-1611434D01*
X-524648Y-1539128D01*
X-524649Y-1539127D01*
X-530679Y-1536443D01*
X-537128Y-1535072D01*
X-537135Y-1535070D01*
X-711023Y-1498109D01*
X-711027Y-1498108D01*
X-717480Y-1496737D01*
X-908454Y-1496737D01*
X-914907Y-1498108D01*
X-914910Y-1498109D01*
X-1088798Y-1535070D01*
X-1088802Y-1535071D01*
X-1095255Y-1536443D01*
X-1269719Y-1614119D01*
X-1341024Y-1665925D01*
X-1418875Y-1722487D01*
X-1418878Y-1722490D01*
X-1424220Y-1726371D01*
X-1552007Y-1868293D01*
X-1647494Y-2033681D01*
X-1649535Y-2039963D01*
X-1649536Y-2039965D01*
X-1688333Y-2159370D01*
X-1723855Y-2214070D01*
X-1781966Y-2243679D01*
X-1798081Y-2247105D01*
X-1804104Y-2249786D01*
X-1804108Y-2249788D01*
X-1901790Y-2293279D01*
X-1972545Y-2324781D01*
X-2043850Y-2376587D01*
X-2121701Y-2433149D01*
X-2121704Y-2433152D01*
X-2127046Y-2437033D01*
X-2254833Y-2578955D01*
X-2350320Y-2744343D01*
X-2352361Y-2750625D01*
X-2352362Y-2750627D01*
X-2357676Y-2766981D01*
X-2409335Y-2925971D01*
X-2429297Y-3115899D01*
X-2409502Y-3304237D01*
X-2409335Y-3305827D01*
X-2410192Y-3305917D01*
X-2413287Y-3365079D01*
X-2448808Y-3419785D01*
X-2506925Y-3449399D01*
X-2619042Y-3473231D01*
X-2619049Y-3473233D01*
X-2625507Y-3474606D01*
X-2799971Y-3552282D01*
X-2871276Y-3604088D01*
X-2949127Y-3660650D01*
X-2949130Y-3660653D01*
X-2954472Y-3664534D01*
X-3082259Y-3806456D01*
X-3177746Y-3971844D01*
X-3179787Y-3978126D01*
X-3179788Y-3978128D01*
X-3183562Y-3989743D01*
X-3236761Y-4153472D01*
X-3256723Y-4343400D01*
X-3236761Y-4533328D01*
X-3195024Y-4661779D01*
X-3177746Y-4714956D01*
X-3178891Y-4715328D01*
X-3170293Y-4752529D01*
X-3177809Y-4800035D01*
X-3202579Y-4841263D01*
X-3236047Y-4878433D01*
X-3286588Y-4912524D01*
X-3347218Y-4918897D01*
X-3403743Y-4896060D01*
X-3524302Y-4808469D01*
X-3524305Y-4808467D01*
X-3529643Y-4804589D01*
X-3535670Y-4801905D01*
X-3535673Y-4801904D01*
X-3698076Y-4729598D01*
X-3698077Y-4729597D01*
X-3704107Y-4726913D01*
X-3710556Y-4725542D01*
X-3710563Y-4725540D01*
X-3884451Y-4688579D01*
X-3884455Y-4688578D01*
X-3890908Y-4687207D01*
X-4081882Y-4687207D01*
X-4088335Y-4688578D01*
X-4088338Y-4688579D01*
X-4262226Y-4725540D01*
X-4262230Y-4725541D01*
X-4268683Y-4726913D01*
X-4443147Y-4804589D01*
X-4493624Y-4841263D01*
X-4592303Y-4912957D01*
X-4592306Y-4912960D01*
X-4597648Y-4916841D01*
X-4725435Y-5058763D01*
X-4820922Y-5224151D01*
X-4822963Y-5230433D01*
X-4822964Y-5230435D01*
X-4826731Y-5242028D01*
X-4879937Y-5405779D01*
X-4899899Y-5595707D01*
X-5249905Y-5595707D01*
X-5210673Y-5527756D01*
X-5208633Y-5521478D01*
X-5208630Y-5521471D01*
X-5153697Y-5352405D01*
X-5153695Y-5352400D01*
X-5151658Y-5346128D01*
X-5146336Y-5295497D01*
X-5132386Y-5162765D01*
X-5131696Y-5156200D01*
X-5137070Y-5105073D01*
X-5150968Y-4972835D01*
X-5150968Y-4972833D01*
X-5151658Y-4966272D01*
X-5153695Y-4960001D01*
X-5153697Y-4959994D01*
X-5208630Y-4790928D01*
X-5208634Y-4790918D01*
X-5210673Y-4784644D01*
X-5213971Y-4778930D01*
X-5213975Y-4778923D01*
X-5261759Y-4696159D01*
X-5278639Y-4633160D01*
X-5261759Y-4570161D01*
X-5241078Y-4534341D01*
X-5241076Y-4534337D01*
X-5237776Y-4528621D01*
X-5235736Y-4522343D01*
X-5235733Y-4522336D01*
X-5180800Y-4353270D01*
X-5180798Y-4353265D01*
X-5178761Y-4346993D01*
X-5176782Y-4328169D01*
X-5159489Y-4163630D01*
X-5158799Y-4157065D01*
X-5164766Y-4100295D01*
X-5178071Y-3973700D01*
X-5178071Y-3973698D01*
X-5178761Y-3967137D01*
X-5180798Y-3960866D01*
X-5180800Y-3960859D01*
X-5235733Y-3791793D01*
X-5235737Y-3791783D01*
X-5237776Y-3785509D01*
X-5251155Y-3762336D01*
X-5329961Y-3625839D01*
X-5329964Y-3625834D01*
X-5333263Y-3620121D01*
X-5337682Y-3615213D01*
X-5456628Y-3483109D01*
X-5456633Y-3483104D01*
X-5461050Y-3478199D01*
X-5466386Y-3474321D01*
X-5466394Y-3474315D01*
X-5610209Y-3369828D01*
X-5610210Y-3369827D01*
X-5615551Y-3365947D01*
X-5621578Y-3363263D01*
X-5621581Y-3363262D01*
X-5783984Y-3290956D01*
X-5783985Y-3290955D01*
X-5790015Y-3288271D01*
X-5796464Y-3286900D01*
X-5796471Y-3286898D01*
X-5970359Y-3249937D01*
X-5970363Y-3249936D01*
X-5976816Y-3248565D01*
X-6167790Y-3248565D01*
X-6174243Y-3249936D01*
X-6174246Y-3249937D01*
X-6348134Y-3286898D01*
X-6348138Y-3286899D01*
X-6354591Y-3288271D01*
X-6529055Y-3365947D01*
X-6552657Y-3383095D01*
X-6678211Y-3474315D01*
X-6678214Y-3474318D01*
X-6683556Y-3478199D01*
X-6811343Y-3620121D01*
X-6906830Y-3785509D01*
X-6908871Y-3791791D01*
X-6908872Y-3791793D01*
X-6935067Y-3872414D01*
X-6965845Y-3967137D01*
X-6985807Y-4157065D01*
X-6965845Y-4346993D01*
X-6906830Y-4528621D01*
X-6879636Y-4575721D01*
X-6855744Y-4617103D01*
X-6838863Y-4680104D01*
X-6855743Y-4743104D01*
X-6879727Y-4784644D01*
X-6938742Y-4966272D01*
X-6958704Y-5156200D01*
X-6938742Y-5346128D01*
X-6879727Y-5527756D01*
X-6784240Y-5693144D01*
X-6760194Y-5719849D01*
X-6729745Y-5782275D01*
X-6737004Y-5851357D01*
X-6779769Y-5906094D01*
X-6904041Y-5996383D01*
X-6904044Y-5996386D01*
X-6909386Y-6000267D01*
X-7037173Y-6142189D01*
X-7132660Y-6307577D01*
X-7134701Y-6313859D01*
X-7134702Y-6313861D01*
X-7152147Y-6367551D01*
X-7191675Y-6489205D01*
X-7211637Y-6679133D01*
X-13989925Y-6679133D01*
X-13980616Y-6650482D01*
X-13980614Y-6650477D01*
X-13978577Y-6644205D01*
X-13972034Y-6581957D01*
X-13959305Y-6460842D01*
X-13958615Y-6454277D01*
X-13967073Y-6373801D01*
X-13977887Y-6270912D01*
X-13977887Y-6270910D01*
X-13978577Y-6264349D01*
X-13980614Y-6258077D01*
X-13980617Y-6258067D01*
X-13987024Y-6238350D01*
X-13991426Y-6178401D01*
X-13967553Y-6123235D01*
X-13920839Y-6085407D01*
X-13861914Y-6073526D01*
X-13804193Y-6090295D01*
X-13430702Y-6305931D01*
X-13374997Y-6330573D01*
X-13230799Y-6354821D01*
X-13085611Y-6337461D01*
X-12951194Y-6279901D01*
X-12915216Y-6250195D01*
X-12844516Y-6191821D01*
X-12844514Y-6191819D01*
X-12838439Y-6186803D01*
X-12833792Y-6180439D01*
X-12833790Y-6180437D01*
X-12804510Y-6140337D01*
X-12802518Y-6137609D01*
X-12779136Y-6097111D01*
X-12255569Y-5190267D01*
X-12255566Y-5190262D01*
X-12253880Y-5187341D01*
X-12252517Y-5184259D01*
X-12252512Y-5184250D01*
X-12232425Y-5138842D01*
X-12232423Y-5138837D01*
X-12229238Y-5131636D01*
X-12222916Y-5094041D01*
X-12220555Y-5080000D01*
X-9168504Y-5080000D01*
X-9148542Y-5269928D01*
X-9089527Y-5451556D01*
X-8994040Y-5616944D01*
X-8866253Y-5758866D01*
X-8711752Y-5871118D01*
X-8537288Y-5948794D01*
X-8350487Y-5988500D01*
X-8166116Y-5988500D01*
X-8159513Y-5988500D01*
X-7972712Y-5948794D01*
X-7798248Y-5871118D01*
X-7680591Y-5785635D01*
X-7649091Y-5762749D01*
X-7649089Y-5762747D01*
X-7643747Y-5758866D01*
X-7632884Y-5746802D01*
X-7610895Y-5722380D01*
X-7515960Y-5616944D01*
X-7511433Y-5609104D01*
X-7491021Y-5573749D01*
X-7420473Y-5451556D01*
X-7418433Y-5445278D01*
X-7418430Y-5445271D01*
X-7363497Y-5276205D01*
X-7363495Y-5276200D01*
X-7361458Y-5269928D01*
X-7341496Y-5080000D01*
X-7350290Y-4996325D01*
X-7360768Y-4896635D01*
X-7360768Y-4896633D01*
X-7361458Y-4890072D01*
X-7363495Y-4883801D01*
X-7363497Y-4883794D01*
X-7418430Y-4714728D01*
X-7418434Y-4714718D01*
X-7420473Y-4708444D01*
X-7436835Y-4680104D01*
X-7512658Y-4548774D01*
X-7512661Y-4548769D01*
X-7515960Y-4543056D01*
X-7525885Y-4532033D01*
X-7639325Y-4406044D01*
X-7639330Y-4406039D01*
X-7643747Y-4401134D01*
X-7649083Y-4397256D01*
X-7649091Y-4397250D01*
X-7792906Y-4292763D01*
X-7792907Y-4292762D01*
X-7798248Y-4288882D01*
X-7804275Y-4286198D01*
X-7804278Y-4286197D01*
X-7966681Y-4213891D01*
X-7966682Y-4213890D01*
X-7972712Y-4211206D01*
X-7979161Y-4209835D01*
X-7979168Y-4209833D01*
X-8153056Y-4172872D01*
X-8153060Y-4172871D01*
X-8159513Y-4171500D01*
X-8350487Y-4171500D01*
X-8356940Y-4172871D01*
X-8356943Y-4172872D01*
X-8530831Y-4209833D01*
X-8530835Y-4209834D01*
X-8537288Y-4211206D01*
X-8711752Y-4288882D01*
X-8762185Y-4325524D01*
X-8860908Y-4397250D01*
X-8860911Y-4397253D01*
X-8866253Y-4401134D01*
X-8994040Y-4543056D01*
X-9089527Y-4708444D01*
X-9091568Y-4714726D01*
X-9091569Y-4714728D01*
X-9112978Y-4780619D01*
X-9148542Y-4890072D01*
X-9168504Y-5080000D01*
X-12220555Y-5080000D01*
X-12206484Y-4996325D01*
X-12206483Y-4996322D01*
X-12204990Y-4987438D01*
X-12206059Y-4978495D01*
X-12206059Y-4978486D01*
X-12206082Y-4978298D01*
X-12206049Y-4978049D01*
X-12205845Y-4969480D01*
X-12204917Y-4969502D01*
X-12197877Y-4916338D01*
X-12160906Y-4865945D01*
X-12054801Y-4778867D01*
X-12054797Y-4778863D01*
X-12050018Y-4774941D01*
X-12009475Y-4725540D01*
X-11927917Y-4626161D01*
X-11927916Y-4626160D01*
X-11923991Y-4621377D01*
X-11830345Y-4446177D01*
X-11798267Y-4340429D01*
X-11774474Y-4261996D01*
X-11774473Y-4261992D01*
X-11772678Y-4256074D01*
X-11772071Y-4249920D01*
X-11772070Y-4249911D01*
X-11753813Y-4064536D01*
X-11753206Y-4058373D01*
X-11754572Y-4044500D01*
X-11759790Y-3991511D01*
X-11754971Y-3942586D01*
X-11731796Y-3899229D01*
X-11693794Y-3868042D01*
X-11568582Y-3801115D01*
X-11415018Y-3675088D01*
X-11409999Y-3668973D01*
X-11292917Y-3526308D01*
X-11292916Y-3526307D01*
X-11288991Y-3521524D01*
X-11250439Y-3449399D01*
X-11198264Y-3351785D01*
X-11195345Y-3346324D01*
X-11182578Y-3304237D01*
X-11139474Y-3162143D01*
X-11139473Y-3162139D01*
X-11137678Y-3156221D01*
X-11137071Y-3150067D01*
X-11137070Y-3150058D01*
X-11118813Y-2964683D01*
X-11118206Y-2958520D01*
X-11118813Y-2952357D01*
X-11137070Y-2766981D01*
X-11137072Y-2766970D01*
X-11137678Y-2760819D01*
X-11139472Y-2754902D01*
X-11139474Y-2754896D01*
X-11193548Y-2576639D01*
X-11193549Y-2576636D01*
X-11195345Y-2570716D01*
X-11198264Y-2565254D01*
X-11286073Y-2400974D01*
X-11286076Y-2400969D01*
X-11288991Y-2395516D01*
X-11292912Y-2390737D01*
X-11292917Y-2390731D01*
X-11411095Y-2246731D01*
X-11411100Y-2246725D01*
X-11415018Y-2241952D01*
X-11419791Y-2238034D01*
X-11419797Y-2238029D01*
X-11563797Y-2119851D01*
X-11563803Y-2119846D01*
X-11568582Y-2115925D01*
X-11574035Y-2113010D01*
X-11574040Y-2113007D01*
X-11738320Y-2025198D01*
X-11738324Y-2025196D01*
X-11743782Y-2022279D01*
X-11749702Y-2020483D01*
X-11749705Y-2020482D01*
X-11927962Y-1966408D01*
X-11927968Y-1966406D01*
X-11933885Y-1964612D01*
X-11940036Y-1964006D01*
X-11940047Y-1964004D01*
X-12125423Y-1945747D01*
X-12131586Y-1945140D01*
X-12137749Y-1945747D01*
X-12137752Y-1945747D01*
X-12198446Y-1951724D01*
X-12247371Y-1946905D01*
X-12290728Y-1923730D01*
X-12321916Y-1885727D01*
X-12385925Y-1765975D01*
X-12385925Y-1765974D01*
X-12388843Y-1760516D01*
X-12392764Y-1755737D01*
X-12392769Y-1755731D01*
X-12510947Y-1611731D01*
X-12510952Y-1611725D01*
X-12514870Y-1606952D01*
X-12519643Y-1603034D01*
X-12519649Y-1603029D01*
X-12663649Y-1484851D01*
X-12663655Y-1484846D01*
X-12668434Y-1480925D01*
X-12673887Y-1478010D01*
X-12673892Y-1478007D01*
X-12838172Y-1390198D01*
X-12838176Y-1390196D01*
X-12843634Y-1387279D01*
X-12849554Y-1385483D01*
X-12849557Y-1385482D01*
X-13027814Y-1331408D01*
X-13027820Y-1331406D01*
X-13033737Y-1329612D01*
X-13039888Y-1329006D01*
X-13039899Y-1329004D01*
X-13225275Y-1310747D01*
X-13231438Y-1310140D01*
X-13237601Y-1310747D01*
X-13422976Y-1329004D01*
X-13422985Y-1329005D01*
X-13429139Y-1329612D01*
X-13435057Y-1331407D01*
X-13435061Y-1331408D01*
X-13604283Y-1382741D01*
X-13619242Y-1387279D01*
X-13629651Y-1392843D01*
X-13768678Y-1467154D01*
X-13831366Y-1481989D01*
X-13893194Y-1463899D01*
X-13938000Y-1417614D01*
X-13954071Y-1355231D01*
X-13937208Y-1293058D01*
X-13268867Y-134830D01*
X-11576376Y-134830D01*
X-11566056Y-298860D01*
X-11515268Y-455171D01*
X-11427202Y-593940D01*
X-11307393Y-706448D01*
X-11163368Y-785627D01*
X-11004177Y-826500D01*
X-10885034Y-826500D01*
X-10881075Y-826500D01*
X-10758942Y-811071D01*
X-10606129Y-750568D01*
X-10473163Y-653963D01*
X-10382971Y-544940D01*
X-10373452Y-533433D01*
X-10373451Y-533432D01*
X-10368400Y-527326D01*
X-10365024Y-520152D01*
X-10301796Y-385786D01*
X-10301795Y-385783D01*
X-10298421Y-378613D01*
X-10289073Y-329613D01*
X-10269109Y-224955D01*
X-10269108Y-224954D01*
X-10267624Y-217170D01*
X-10268121Y-209264D01*
X-10268121Y-209258D01*
X-10273649Y-121403D01*
X-2027119Y-121403D01*
X-2007157Y-311331D01*
X-1948142Y-492959D01*
X-1852655Y-658347D01*
X-1724868Y-800269D01*
X-1570367Y-912521D01*
X-1395903Y-990197D01*
X-1209102Y-1029903D01*
X-1024731Y-1029903D01*
X-1018128Y-1029903D01*
X-831327Y-990197D01*
X-656863Y-912521D01*
X-537782Y-826003D01*
X-507706Y-804152D01*
X-507704Y-804150D01*
X-502362Y-800269D01*
X-374575Y-658347D01*
X-279088Y-492959D01*
X-277048Y-486681D01*
X-277045Y-486674D01*
X-222112Y-317608D01*
X-222110Y-317603D01*
X-220073Y-311331D01*
X-200111Y-121403D01*
X-220073Y68525D01*
X-222110Y74797D01*
X-222112Y74802D01*
X-277045Y243868D01*
X-277048Y243875D01*
X-279088Y250153D01*
X-367849Y403891D01*
X-371273Y409822D01*
X-374575Y415541D01*
X-424040Y470478D01*
X5709734Y470478D01*
X5710424Y463913D01*
X5728087Y295854D01*
X5729696Y280550D01*
X5731733Y274279D01*
X5731735Y274272D01*
X5786668Y105206D01*
X5786672Y105196D01*
X5788711Y98922D01*
X5884198Y-66466D01*
X6011985Y-208388D01*
X6166486Y-320640D01*
X6340950Y-398316D01*
X6527751Y-438022D01*
X6712122Y-438022D01*
X6718725Y-438022D01*
X6905526Y-398316D01*
X7079990Y-320640D01*
X7234491Y-208388D01*
X7344843Y-85830D01*
X10267624Y-85830D01*
X10268121Y-93735D01*
X10268121Y-93741D01*
X10275579Y-212271D01*
X10277944Y-249860D01*
X10280393Y-257397D01*
X10326179Y-398316D01*
X10328732Y-406171D01*
X10332979Y-412864D01*
X10332981Y-412867D01*
X10412548Y-538244D01*
X10412550Y-538246D01*
X10416798Y-544940D01*
X10536607Y-657448D01*
X10680632Y-736627D01*
X10839823Y-777500D01*
X10958966Y-777500D01*
X10962925Y-777500D01*
X11085058Y-762071D01*
X11237871Y-701568D01*
X11370837Y-604963D01*
X11475600Y-478326D01*
X11545579Y-329613D01*
X11576376Y-168170D01*
X11566056Y-4140D01*
X11515268Y152171D01*
X11427202Y290940D01*
X11307393Y403448D01*
X11163368Y482627D01*
X11004177Y523500D01*
X10881075Y523500D01*
X10758942Y508071D01*
X10606129Y447568D01*
X10473163Y350963D01*
X10468109Y344854D01*
X10377432Y235244D01*
X10368400Y224326D01*
X10365024Y217153D01*
X10365024Y217152D01*
X10307840Y95629D01*
X10298421Y75613D01*
X10296935Y67827D01*
X10296935Y67825D01*
X10287588Y18825D01*
X10267624Y-85830D01*
X7344843Y-85830D01*
X7362278Y-66466D01*
X7457765Y98922D01*
X7473008Y145833D01*
X7506903Y250153D01*
X7516780Y280550D01*
X7536742Y470478D01*
X7533985Y496706D01*
X7540894Y552972D01*
X7571769Y600515D01*
X7619223Y629027D01*
X7622888Y629806D01*
X7628912Y632488D01*
X7628918Y632490D01*
X7791321Y704797D01*
X7797352Y707482D01*
X7868657Y759288D01*
X7946508Y815850D01*
X7946511Y815853D01*
X7951853Y819734D01*
X8079640Y961656D01*
X8175127Y1127044D01*
X8183635Y1153227D01*
X8232102Y1302394D01*
X8234142Y1308672D01*
X8254104Y1498600D01*
X8234142Y1688528D01*
X8175127Y1870156D01*
X8079640Y2035544D01*
X7951853Y2177466D01*
X7797352Y2289718D01*
X7622888Y2367394D01*
X7436087Y2407100D01*
X7245113Y2407100D01*
X7058312Y2367394D01*
X6883848Y2289718D01*
X6799578Y2228492D01*
X6744830Y2188715D01*
X6729347Y2177466D01*
X6601560Y2035544D01*
X6506073Y1870156D01*
X6504033Y1863878D01*
X6504030Y1863871D01*
X6449097Y1694805D01*
X6449095Y1694800D01*
X6447058Y1688528D01*
X6446368Y1681964D01*
X6429289Y1519470D01*
X6427096Y1498600D01*
X6427786Y1492035D01*
X6427786Y1492030D01*
X6429852Y1472368D01*
X6422942Y1416104D01*
X6392068Y1368563D01*
X6344613Y1340050D01*
X6340950Y1339272D01*
X6166486Y1261596D01*
X6060536Y1184619D01*
X6019053Y1154479D01*
X6011985Y1149344D01*
X5884198Y1007422D01*
X5880896Y1001703D01*
X5870781Y984183D01*
X5788711Y842034D01*
X5786671Y835756D01*
X5786668Y835749D01*
X5731735Y666683D01*
X5731733Y666678D01*
X5729696Y660406D01*
X5729006Y653842D01*
X5713685Y508071D01*
X5709734Y470478D01*
X-424040Y470478D01*
X-502362Y557463D01*
X-656863Y669715D01*
X-831327Y747391D01*
X-1018128Y787097D01*
X-1209102Y787097D01*
X-1395903Y747391D01*
X-1570367Y669715D01*
X-1724868Y557463D01*
X-1852655Y415541D01*
X-1948142Y250153D01*
X-2007157Y68525D01*
X-2027119Y-121403D01*
X-10273649Y-121403D01*
X-10277446Y-61050D01*
X-10277446Y-61047D01*
X-10277944Y-53140D01*
X-10293865Y-4140D01*
X-10326281Y95629D01*
X-10326282Y95632D01*
X-10328732Y103171D01*
X-10355806Y145833D01*
X-10412548Y235244D01*
X-10412550Y235246D01*
X-10416798Y241940D01*
X-10457914Y280550D01*
X-10530830Y349023D01*
X-10536607Y354448D01*
X-10680632Y433627D01*
X-10839823Y474500D01*
X-10962925Y474500D01*
X-11085058Y459071D01*
X-11237871Y398568D01*
X-11370837Y301963D01*
X-11475600Y175326D01*
X-11545579Y26613D01*
X-11576376Y-134830D01*
X-13268867Y-134830D01*
X-12604796Y1016000D01*
X-7390504Y1016000D01*
X-7370542Y826072D01*
X-7368502Y819794D01*
X-7316558Y659926D01*
X-7311527Y644444D01*
X-7216040Y479056D01*
X-7088253Y337134D01*
X-7082911Y333253D01*
X-7082908Y333250D01*
X-7010372Y280550D01*
X-6933752Y224882D01*
X-6759288Y147206D01*
X-6752835Y145834D01*
X-6752831Y145833D01*
X-6578943Y108872D01*
X-6578940Y108871D01*
X-6572487Y107500D01*
X-6388116Y107500D01*
X-6381513Y107500D01*
X-6375060Y108871D01*
X-6375056Y108872D01*
X-6201168Y145833D01*
X-6201161Y145835D01*
X-6194712Y147206D01*
X-6183560Y152171D01*
X-6026278Y222197D01*
X-6026275Y222198D01*
X-6020248Y224882D01*
X-6014906Y228763D01*
X-5871086Y333254D01*
X-5871080Y333259D01*
X-5865747Y337134D01*
X-5861337Y342031D01*
X-5861330Y342038D01*
X-5842702Y362727D01*
X-5804305Y391662D01*
X-5757866Y404107D01*
X-5721790Y399681D01*
X-5721466Y401206D01*
X-5541121Y362872D01*
X-5541118Y362871D01*
X-5534665Y361500D01*
X-5350294Y361500D01*
X-5343691Y361500D01*
X-5337238Y362871D01*
X-5337234Y362872D01*
X-5163346Y399833D01*
X-5163339Y399835D01*
X-5156890Y401206D01*
X-5137538Y409822D01*
X-4988456Y476197D01*
X-4988453Y476198D01*
X-4982426Y478882D01*
X-4974316Y484774D01*
X-4833264Y587254D01*
X-4833258Y587259D01*
X-4827925Y591134D01*
X-4823514Y596031D01*
X-4823507Y596039D01*
X-4809912Y611138D01*
X-4755212Y646659D01*
X-4690081Y650072D01*
X-4543461Y618907D01*
X-4543458Y618906D01*
X-4537005Y617535D01*
X-4352634Y617535D01*
X-4346031Y617535D01*
X-4339578Y618906D01*
X-4339574Y618907D01*
X-4165686Y655868D01*
X-4165679Y655870D01*
X-4159230Y657241D01*
X-4139932Y665833D01*
X-3990796Y732232D01*
X-3990793Y732233D01*
X-3984766Y734917D01*
X-3967597Y747391D01*
X-3835609Y843285D01*
X-3835601Y843291D01*
X-3830265Y847169D01*
X-3825848Y852074D01*
X-3825843Y852079D01*
X-3706897Y984183D01*
X-3706896Y984184D01*
X-3702478Y989091D01*
X-3699179Y994804D01*
X-3699176Y994809D01*
X-3610295Y1148756D01*
X-3610294Y1148757D01*
X-3606991Y1154479D01*
X-3604952Y1160753D01*
X-3604948Y1160763D01*
X-3550015Y1329829D01*
X-3550013Y1329836D01*
X-3547976Y1336107D01*
X-3542568Y1387556D01*
X-3528704Y1519470D01*
X-3528014Y1526035D01*
X-3531358Y1557851D01*
X-3543591Y1674248D01*
X-3535914Y1732569D01*
X-3502598Y1781049D01*
X-3498458Y1784777D01*
X-3493118Y1788657D01*
X-3463458Y1821598D01*
X-3369750Y1925671D01*
X-3369749Y1925672D01*
X-3365331Y1930579D01*
X-3362032Y1936292D01*
X-3362029Y1936297D01*
X-3273148Y2090244D01*
X-3273147Y2090245D01*
X-3269844Y2095967D01*
X-3267805Y2102241D01*
X-3267801Y2102251D01*
X-3212868Y2271317D01*
X-3212866Y2271324D01*
X-3210829Y2277595D01*
X-3208372Y2300967D01*
X-3191557Y2460958D01*
X-3190867Y2467523D01*
X-3193814Y2495559D01*
X-3210139Y2650887D01*
X-3210829Y2657451D01*
X-3212866Y2663723D01*
X-3212868Y2663728D01*
X-3267801Y2832794D01*
X-3267804Y2832801D01*
X-3269844Y2839079D01*
X-3306430Y2902448D01*
X-2844949Y2902448D01*
X-2824987Y2712520D01*
X-2822947Y2706242D01*
X-2774380Y2556767D01*
X-2765972Y2530892D01*
X-2670485Y2365504D01*
X-2542698Y2223582D01*
X-2537356Y2219701D01*
X-2537353Y2219698D01*
X-2479225Y2177466D01*
X-2388197Y2111330D01*
X-2213733Y2033654D01*
X-2207280Y2032282D01*
X-2207276Y2032281D01*
X-2033388Y1995320D01*
X-2033385Y1995319D01*
X-2026932Y1993948D01*
X-1842561Y1993948D01*
X-1835958Y1993948D01*
X-1829505Y1995319D01*
X-1829501Y1995320D01*
X-1655613Y2032281D01*
X-1655606Y2032283D01*
X-1649157Y2033654D01*
X-1643126Y2036339D01*
X-1480723Y2108645D01*
X-1480720Y2108646D01*
X-1474693Y2111330D01*
X-1456401Y2124620D01*
X-1325536Y2219698D01*
X-1325528Y2219704D01*
X-1320192Y2223582D01*
X-1315775Y2228487D01*
X-1315770Y2228492D01*
X-1196824Y2360596D01*
X-1196823Y2360597D01*
X-1192405Y2365504D01*
X-1189106Y2371217D01*
X-1189103Y2371222D01*
X-1100222Y2525169D01*
X-1100221Y2525170D01*
X-1096918Y2530892D01*
X-1094879Y2537166D01*
X-1094875Y2537176D01*
X-1044646Y2691765D01*
X1334611Y2691765D01*
X1335301Y2685200D01*
X1338337Y2656309D01*
X1354573Y2501837D01*
X1356610Y2495566D01*
X1356612Y2495559D01*
X1411545Y2326493D01*
X1411549Y2326483D01*
X1413588Y2320209D01*
X1416891Y2314487D01*
X1416892Y2314486D01*
X1505773Y2160539D01*
X1505776Y2160534D01*
X1509075Y2154821D01*
X1513493Y2149914D01*
X1513494Y2149913D01*
X1632440Y2017809D01*
X1632445Y2017804D01*
X1636862Y2012899D01*
X1642198Y2009021D01*
X1642206Y2009015D01*
X1765487Y1919447D01*
X1791363Y1900647D01*
X1797390Y1897963D01*
X1797393Y1897962D01*
X1959796Y1825656D01*
X1965827Y1822971D01*
X1972276Y1821600D01*
X1972283Y1821598D01*
X2146171Y1784637D01*
X2146175Y1784636D01*
X2152628Y1783265D01*
X2336999Y1783265D01*
X2343602Y1783265D01*
X2350055Y1784636D01*
X2350058Y1784637D01*
X2518364Y1820412D01*
X2570758Y1820412D01*
X2618622Y1799101D01*
X2756746Y1698748D01*
X2768466Y1690233D01*
X2774493Y1687549D01*
X2774496Y1687548D01*
X2936899Y1615242D01*
X2942930Y1612557D01*
X2949379Y1611186D01*
X2949386Y1611184D01*
X3123274Y1574223D01*
X3123278Y1574222D01*
X3129731Y1572851D01*
X3314102Y1572851D01*
X3320705Y1572851D01*
X3327158Y1574222D01*
X3327161Y1574223D01*
X3501045Y1611183D01*
X3501050Y1611184D01*
X3507506Y1612557D01*
X3513537Y1615242D01*
X3513546Y1615245D01*
X3524870Y1620287D01*
X3589287Y1630489D01*
X3650175Y1607116D01*
X3749834Y1534710D01*
X3749837Y1534708D01*
X3755175Y1530830D01*
X3761202Y1528146D01*
X3761205Y1528145D01*
X3886483Y1472368D01*
X3929639Y1453154D01*
X3936088Y1451783D01*
X3936095Y1451781D01*
X4109983Y1414820D01*
X4109987Y1414819D01*
X4116440Y1413448D01*
X4300811Y1413448D01*
X4307414Y1413448D01*
X4313867Y1414819D01*
X4313870Y1414820D01*
X4487758Y1451781D01*
X4487762Y1451782D01*
X4494215Y1453154D01*
X4668679Y1530830D01*
X4739984Y1582636D01*
X4817835Y1639198D01*
X4817838Y1639201D01*
X4823180Y1643082D01*
X4950967Y1785004D01*
X5046454Y1950392D01*
X5049283Y1959097D01*
X5065190Y2008055D01*
X5100712Y2062755D01*
X5158824Y2092365D01*
X5240212Y2109665D01*
X5240217Y2109666D01*
X5246673Y2111039D01*
X5252699Y2113722D01*
X5252705Y2113724D01*
X5395871Y2177466D01*
X5421137Y2188715D01*
X5506905Y2251029D01*
X5570293Y2297083D01*
X5570296Y2297086D01*
X5575638Y2300967D01*
X5703425Y2442889D01*
X5798912Y2608277D01*
X5809096Y2639618D01*
X5855887Y2783627D01*
X5857927Y2789905D01*
X5877889Y2979833D01*
X5857927Y3169761D01*
X5859880Y3169966D01*
X5861108Y3217462D01*
X5889183Y3269185D01*
X5959457Y3347233D01*
X6018362Y3384040D01*
X6087822Y3384040D01*
X6146728Y3347232D01*
X6194329Y3294365D01*
X6194332Y3294362D01*
X6198747Y3289459D01*
X6204083Y3285581D01*
X6204091Y3285575D01*
X6338317Y3188055D01*
X6353248Y3177207D01*
X6359275Y3174523D01*
X6359278Y3174522D01*
X6521681Y3102216D01*
X6527712Y3099531D01*
X6534161Y3098160D01*
X6534168Y3098158D01*
X6708056Y3061197D01*
X6708060Y3061196D01*
X6714513Y3059825D01*
X6898884Y3059825D01*
X6905487Y3059825D01*
X6911940Y3061196D01*
X6911943Y3061197D01*
X7085831Y3098158D01*
X7085835Y3098159D01*
X7092288Y3099531D01*
X7266752Y3177207D01*
X7344392Y3233616D01*
X7415908Y3285575D01*
X7415911Y3285578D01*
X7421253Y3289459D01*
X7549040Y3431381D01*
X7644527Y3596769D01*
X7647728Y3606619D01*
X7692200Y3743490D01*
X7703542Y3778397D01*
X7723504Y3968325D01*
X7703542Y4158253D01*
X7644527Y4339881D01*
X7549040Y4505269D01*
X7421253Y4647191D01*
X7266752Y4759443D01*
X7092288Y4837119D01*
X6905487Y4876825D01*
X6714513Y4876825D01*
X6527712Y4837119D01*
X6353248Y4759443D01*
X6198747Y4647191D01*
X6115480Y4554714D01*
X6056576Y4517907D01*
X5987115Y4517907D01*
X5928213Y4554713D01*
X5876192Y4612489D01*
X5721691Y4724741D01*
X5547227Y4802417D01*
X5360426Y4842123D01*
X5169452Y4842123D01*
X4982651Y4802417D01*
X4808187Y4724741D01*
X4653686Y4612489D01*
X4525899Y4470567D01*
X4430412Y4305179D01*
X4428372Y4298901D01*
X4428369Y4298894D01*
X4373436Y4129828D01*
X4373434Y4129823D01*
X4371397Y4123551D01*
X4370707Y4116987D01*
X4355772Y3974890D01*
X4351435Y3933623D01*
X4352125Y3927058D01*
X4371397Y3743695D01*
X4369454Y3743490D01*
X4368205Y3695957D01*
X4340139Y3644268D01*
X4225345Y3516777D01*
X4222043Y3511058D01*
X4156006Y3396679D01*
X4129858Y3351389D01*
X4127818Y3345113D01*
X4127816Y3345107D01*
X4111121Y3293724D01*
X4075598Y3239024D01*
X4017485Y3209414D01*
X3929639Y3190742D01*
X3923604Y3188055D01*
X3912276Y3183012D01*
X3847857Y3172809D01*
X3786970Y3196181D01*
X3681970Y3272469D01*
X3507506Y3350145D01*
X3320705Y3389851D01*
X3129731Y3389851D01*
X3055224Y3374014D01*
X2954969Y3352704D01*
X2902574Y3352703D01*
X2854716Y3374010D01*
X2704867Y3482883D01*
X2530403Y3560559D01*
X2343602Y3600265D01*
X2152628Y3600265D01*
X1965827Y3560559D01*
X1791363Y3482883D01*
X1713722Y3426473D01*
X1642394Y3374650D01*
X1636862Y3370631D01*
X1509075Y3228709D01*
X1505773Y3222990D01*
X1497935Y3209414D01*
X1413588Y3063321D01*
X1411548Y3057043D01*
X1411545Y3057036D01*
X1356612Y2887970D01*
X1356610Y2887965D01*
X1354573Y2881693D01*
X1353883Y2875129D01*
X1349062Y2829258D01*
X1334611Y2691765D01*
X-1044646Y2691765D01*
X-1039942Y2706242D01*
X-1039940Y2706249D01*
X-1037903Y2712520D01*
X-1029769Y2789905D01*
X-1018631Y2895883D01*
X-1017941Y2902448D01*
X-1028062Y2998748D01*
X-1037213Y3085812D01*
X-1037903Y3092376D01*
X-1039940Y3098648D01*
X-1039942Y3098653D01*
X-1094875Y3267719D01*
X-1094878Y3267726D01*
X-1096918Y3274004D01*
X-1192405Y3439392D01*
X-1256008Y3510031D01*
X-1284628Y3563856D01*
X-1284628Y3624821D01*
X-1256008Y3678649D01*
X-1132875Y3815403D01*
X-1128460Y3820306D01*
X-1125161Y3826019D01*
X-1125158Y3826024D01*
X-1032973Y3985694D01*
X-1030855Y3984471D01*
X-994466Y4028215D01*
X-929695Y4050197D01*
X-862983Y4035098D01*
X-813989Y3987369D01*
X-792959Y3950944D01*
X-739040Y3857554D01*
X-611253Y3715632D01*
X-605911Y3711751D01*
X-605908Y3711748D01*
X-532892Y3658699D01*
X-456752Y3603380D01*
X-282288Y3525704D01*
X-275835Y3524332D01*
X-275831Y3524331D01*
X-101943Y3487370D01*
X-101940Y3487369D01*
X-95487Y3485998D01*
X88884Y3485998D01*
X95487Y3485998D01*
X101940Y3487369D01*
X101943Y3487370D01*
X275831Y3524331D01*
X275835Y3524332D01*
X282288Y3525704D01*
X456752Y3603380D01*
X532892Y3658699D01*
X605908Y3711748D01*
X605911Y3711751D01*
X611253Y3715632D01*
X739040Y3857554D01*
X834527Y4022942D01*
X893542Y4204570D01*
X913504Y4394498D01*
X897762Y4544276D01*
X909824Y4612681D01*
X956302Y4664300D01*
X1010844Y4679939D01*
X1010549Y4682756D01*
X1017116Y4683446D01*
X1023718Y4683446D01*
X1030171Y4684817D01*
X1030174Y4684818D01*
X1204062Y4721779D01*
X1204066Y4721780D01*
X1210519Y4723152D01*
X1384983Y4800828D01*
X1487694Y4875452D01*
X1534139Y4909196D01*
X1534142Y4909199D01*
X1539484Y4913080D01*
X1667271Y5055002D01*
X1762758Y5220390D01*
X1777497Y5265750D01*
X1819733Y5395740D01*
X1821773Y5402018D01*
X1841735Y5591946D01*
X1821773Y5781874D01*
X1762758Y5963502D01*
X1679545Y6107631D01*
X2735998Y6107631D01*
X2755960Y5917703D01*
X2757997Y5911432D01*
X2757999Y5911425D01*
X2812932Y5742359D01*
X2812936Y5742349D01*
X2814975Y5736075D01*
X2818278Y5730353D01*
X2818279Y5730352D01*
X2907160Y5576405D01*
X2907163Y5576400D01*
X2910462Y5570687D01*
X2914880Y5565780D01*
X2914881Y5565779D01*
X3033827Y5433675D01*
X3033832Y5433670D01*
X3038249Y5428765D01*
X3043585Y5424887D01*
X3043593Y5424881D01*
X3187408Y5320394D01*
X3192750Y5316513D01*
X3198777Y5313829D01*
X3198780Y5313828D01*
X3361183Y5241522D01*
X3367214Y5238837D01*
X3373663Y5237466D01*
X3373670Y5237464D01*
X3547558Y5200503D01*
X3547562Y5200502D01*
X3554015Y5199131D01*
X3738386Y5199131D01*
X3744989Y5199131D01*
X3751442Y5200502D01*
X3751445Y5200503D01*
X3925333Y5237464D01*
X3925337Y5237465D01*
X3931790Y5238837D01*
X4106254Y5316513D01*
X4185052Y5373763D01*
X4255410Y5424881D01*
X4255413Y5424884D01*
X4260755Y5428765D01*
X4388542Y5570687D01*
X4484029Y5736075D01*
X4543044Y5917703D01*
X4563006Y6107631D01*
X4543044Y6297559D01*
X4484029Y6479187D01*
X4388542Y6644575D01*
X4260755Y6786497D01*
X4106254Y6898749D01*
X3931790Y6976425D01*
X3744989Y7016131D01*
X3554015Y7016131D01*
X3367214Y6976425D01*
X3192750Y6898749D01*
X3038249Y6786497D01*
X2910462Y6644575D01*
X2814975Y6479187D01*
X2812935Y6472909D01*
X2812932Y6472902D01*
X2757999Y6303836D01*
X2757997Y6303831D01*
X2755960Y6297559D01*
X2755270Y6290995D01*
X2744430Y6187860D01*
X2735998Y6107631D01*
X1679545Y6107631D01*
X1667271Y6128890D01*
X1539484Y6270812D01*
X1384983Y6383064D01*
X1210519Y6460740D01*
X1023718Y6500446D01*
X832744Y6500446D01*
X645943Y6460740D01*
X471479Y6383064D01*
X316978Y6270812D01*
X189191Y6128890D01*
X93704Y5963502D01*
X91664Y5957224D01*
X91661Y5957217D01*
X36728Y5788151D01*
X36726Y5788146D01*
X34689Y5781874D01*
X33999Y5775310D01*
X26222Y5701318D01*
X14727Y5591946D01*
X15417Y5585381D01*
X30469Y5442168D01*
X18407Y5373763D01*
X-28071Y5322144D01*
X-82613Y5306504D01*
X-82318Y5303688D01*
X-88882Y5302998D01*
X-95487Y5302998D01*
X-282288Y5263292D01*
X-456752Y5185616D01*
X-611253Y5073364D01*
X-739040Y4931442D01*
X-834527Y4766054D01*
X-836658Y4767284D01*
X-872977Y4723570D01*
X-937759Y4701553D01*
X-1004496Y4716638D01*
X-1053510Y4764378D01*
X-1125158Y4888475D01*
X-1128460Y4894194D01*
X-1256247Y5036116D01*
X-1410748Y5148368D01*
X-1585212Y5226044D01*
X-1772013Y5265750D01*
X-1962987Y5265750D01*
X-2149788Y5226044D01*
X-2324252Y5148368D01*
X-2478753Y5036116D01*
X-2606540Y4894194D01*
X-2702027Y4728806D01*
X-2761042Y4547178D01*
X-2781004Y4357250D01*
X-2761042Y4167322D01*
X-2759002Y4161044D01*
X-2718080Y4035098D01*
X-2702027Y3985694D01*
X-2606540Y3820306D01*
X-2542935Y3749665D01*
X-2514316Y3695840D01*
X-2514316Y3634876D01*
X-2542934Y3581050D01*
X-2670485Y3439392D01*
X-2765972Y3274004D01*
X-2824987Y3092376D01*
X-2844949Y2902448D01*
X-3306430Y2902448D01*
X-3347318Y2973268D01*
X-3362029Y2998748D01*
X-3365331Y3004467D01*
X-3493118Y3146389D01*
X-3501386Y3152396D01*
X-3550466Y3188055D01*
X-3647619Y3258641D01*
X-3822083Y3336317D01*
X-4008884Y3376023D01*
X-4199858Y3376023D01*
X-4386659Y3336317D01*
X-4561123Y3258641D01*
X-4715624Y3146389D01*
X-4843411Y3004467D01*
X-4938898Y2839079D01*
X-4997913Y2657451D01*
X-5008066Y2560849D01*
X-5029911Y2502109D01*
X-5077352Y2461159D01*
X-5138652Y2448130D01*
X-5198647Y2466243D01*
X-5242495Y2511019D01*
X-5245653Y2516488D01*
X-5312951Y2633053D01*
X-5320937Y2646885D01*
X-5324239Y2652604D01*
X-5432193Y2772499D01*
X-5447604Y2789615D01*
X-5452026Y2794526D01*
X-5606527Y2906778D01*
X-5780991Y2984454D01*
X-5967792Y3024160D01*
X-6158766Y3024160D01*
X-6345567Y2984454D01*
X-6520031Y2906778D01*
X-6674532Y2794526D01*
X-6802319Y2652604D01*
X-6897806Y2487216D01*
X-6956821Y2305588D01*
X-6976783Y2115660D01*
X-6956821Y1925732D01*
X-6954779Y1919448D01*
X-6954779Y1919447D01*
X-6949525Y1903278D01*
X-6944047Y1851170D01*
X-6960237Y1801340D01*
X-6995294Y1762404D01*
X-7088253Y1694866D01*
X-7216040Y1552944D01*
X-7311527Y1387556D01*
X-7370542Y1205928D01*
X-7390504Y1016000D01*
X-12604796Y1016000D01*
X-11715716Y2556767D01*
X-11671873Y2601557D01*
X-11611876Y2619682D01*
X-11550568Y2606658D01*
X-11503120Y2565707D01*
X-11481272Y2506963D01*
X-11474563Y2443125D01*
X-11415548Y2261497D01*
X-11320061Y2096109D01*
X-11192274Y1954187D01*
X-11186932Y1950306D01*
X-11186929Y1950303D01*
X-11144459Y1919447D01*
X-11037773Y1841935D01*
X-10863309Y1764259D01*
X-10856856Y1762887D01*
X-10856852Y1762886D01*
X-10682964Y1725925D01*
X-10682961Y1725924D01*
X-10676508Y1724553D01*
X-10492137Y1724553D01*
X-10485534Y1724553D01*
X-10479081Y1725924D01*
X-10479077Y1725925D01*
X-10305189Y1762886D01*
X-10305182Y1762888D01*
X-10298733Y1764259D01*
X-10263162Y1780096D01*
X-10130299Y1839250D01*
X-10130296Y1839251D01*
X-10124269Y1841935D01*
X-10111558Y1851170D01*
X-9975112Y1950303D01*
X-9975104Y1950309D01*
X-9969768Y1954187D01*
X-9965351Y1959092D01*
X-9965346Y1959097D01*
X-9846400Y2091201D01*
X-9846399Y2091202D01*
X-9841981Y2096109D01*
X-9838682Y2101822D01*
X-9838679Y2101827D01*
X-9749798Y2255774D01*
X-9749797Y2255775D01*
X-9746494Y2261497D01*
X-9744455Y2267771D01*
X-9744451Y2267781D01*
X-9689518Y2436847D01*
X-9689516Y2436854D01*
X-9687479Y2443125D01*
X-9685583Y2461159D01*
X-9668207Y2626488D01*
X-9667517Y2633053D01*
X-9687479Y2822981D01*
X-9689516Y2829253D01*
X-9689518Y2829258D01*
X-9744451Y2998324D01*
X-9744454Y2998331D01*
X-9746494Y3004609D01*
X-9817042Y3126802D01*
X-9838679Y3164278D01*
X-9841981Y3169997D01*
X-9969768Y3311919D01*
X-10124269Y3424171D01*
X-10298733Y3501847D01*
X-10485534Y3541553D01*
X-10676508Y3541553D01*
X-10863309Y3501847D01*
X-10914615Y3479004D01*
X-10922411Y3475533D01*
X-10984198Y3465080D01*
X-11043378Y3485684D01*
X-11085314Y3532248D01*
X-11099634Y3593254D01*
X-11082795Y3653613D01*
X-9393108Y6581825D01*
X-8055571Y6581825D01*
X-8035609Y6391897D01*
X-8030932Y6377503D01*
X-7997528Y6274695D01*
X-7976594Y6210269D01*
X-7881107Y6044881D01*
X-7753320Y5902959D01*
X-7747978Y5899078D01*
X-7747975Y5899075D01*
X-7684340Y5852842D01*
X-7598819Y5790707D01*
X-7424355Y5713031D01*
X-7417902Y5711659D01*
X-7417898Y5711658D01*
X-7244010Y5674697D01*
X-7244007Y5674696D01*
X-7237554Y5673325D01*
X-7053183Y5673325D01*
X-7046580Y5673325D01*
X-7040127Y5674696D01*
X-7040123Y5674697D01*
X-6866235Y5711658D01*
X-6866228Y5711660D01*
X-6859779Y5713031D01*
X-6808021Y5736075D01*
X-6691345Y5788022D01*
X-6691342Y5788023D01*
X-6685315Y5790707D01*
X-6679973Y5794588D01*
X-6536158Y5899075D01*
X-6536150Y5899081D01*
X-6530814Y5902959D01*
X-6526397Y5907864D01*
X-6526392Y5907869D01*
X-6407446Y6039973D01*
X-6407445Y6039974D01*
X-6403027Y6044881D01*
X-6399728Y6050594D01*
X-6399725Y6050599D01*
X-6310844Y6204546D01*
X-6310843Y6204547D01*
X-6307540Y6210269D01*
X-6305501Y6216543D01*
X-6305497Y6216553D01*
X-6251068Y6384068D01*
X-4757572Y6384068D01*
X-4737610Y6194140D01*
X-4735570Y6187862D01*
X-4689113Y6044881D01*
X-4678595Y6012512D01*
X-4583108Y5847124D01*
X-4455321Y5705202D01*
X-4449979Y5701321D01*
X-4449976Y5701318D01*
X-4372125Y5644756D01*
X-4300820Y5592950D01*
X-4126356Y5515274D01*
X-4119903Y5513902D01*
X-4119899Y5513901D01*
X-3946011Y5476940D01*
X-3946008Y5476939D01*
X-3939555Y5475568D01*
X-3755184Y5475568D01*
X-3748581Y5475568D01*
X-3742128Y5476939D01*
X-3742124Y5476940D01*
X-3568236Y5513901D01*
X-3568229Y5513903D01*
X-3561780Y5515274D01*
X-3448343Y5565779D01*
X-3393346Y5590265D01*
X-3393343Y5590266D01*
X-3387316Y5592950D01*
X-3379662Y5598511D01*
X-3238159Y5701318D01*
X-3238151Y5701324D01*
X-3232815Y5705202D01*
X-3228398Y5710107D01*
X-3228393Y5710112D01*
X-3109447Y5842216D01*
X-3109446Y5842217D01*
X-3105028Y5847124D01*
X-3101729Y5852837D01*
X-3101726Y5852842D01*
X-3012845Y6006789D01*
X-3012844Y6006790D01*
X-3009541Y6012512D01*
X-3007502Y6018786D01*
X-3007498Y6018796D01*
X-2952566Y6187860D01*
X-2952565Y6187864D01*
X-2950526Y6194140D01*
X-2945330Y6243574D01*
X-2921956Y6304464D01*
X-2871269Y6345510D01*
X-2716998Y6414196D01*
X-2716995Y6414197D01*
X-2710968Y6416881D01*
X-2654298Y6458054D01*
X-2561811Y6525249D01*
X-2561803Y6525255D01*
X-2556467Y6529133D01*
X-2552050Y6534038D01*
X-2552045Y6534043D01*
X-2433099Y6666147D01*
X-2433098Y6666148D01*
X-2428680Y6671055D01*
X-2425381Y6676768D01*
X-2425378Y6676773D01*
X-2336497Y6830720D01*
X-2336496Y6830721D01*
X-2333193Y6836443D01*
X-2331154Y6842717D01*
X-2331150Y6842727D01*
X-2276217Y7011793D01*
X-2276215Y7011800D01*
X-2274178Y7018071D01*
X-2269054Y7066817D01*
X-2254906Y7201434D01*
X-2254216Y7207999D01*
X-2274178Y7397927D01*
X-2276215Y7404199D01*
X-2276217Y7404204D01*
X-2331150Y7573270D01*
X-2331153Y7573277D01*
X-2333193Y7579555D01*
X-2348146Y7605455D01*
X-1294159Y7605455D01*
X-1274197Y7415527D01*
X-1215182Y7233899D01*
X-1119695Y7068511D01*
X-991908Y6926589D01*
X-986566Y6922708D01*
X-986563Y6922705D01*
X-957284Y6901433D01*
X-837407Y6814337D01*
X-662943Y6736661D01*
X-656490Y6735289D01*
X-656486Y6735288D01*
X-482598Y6698327D01*
X-482595Y6698326D01*
X-476142Y6696955D01*
X-291771Y6696955D01*
X-285168Y6696955D01*
X-278715Y6698326D01*
X-278711Y6698327D01*
X-104823Y6735288D01*
X-104816Y6735290D01*
X-98367Y6736661D01*
X-69891Y6749339D01*
X70066Y6811652D01*
X76097Y6814337D01*
X195974Y6901433D01*
X225253Y6922705D01*
X225256Y6922708D01*
X230598Y6926589D01*
X358385Y7068511D01*
X453872Y7233899D01*
X512887Y7415527D01*
X532849Y7605455D01*
X512887Y7795383D01*
X453872Y7977011D01*
X358385Y8142399D01*
X308781Y8197489D01*
X279173Y8255599D01*
X282585Y8320731D01*
X317315Y8374214D01*
X319753Y8375985D01*
X447540Y8517907D01*
X543027Y8683295D01*
X602042Y8864923D01*
X622004Y9054851D01*
X602042Y9244779D01*
X543027Y9426407D01*
X447540Y9591795D01*
X443110Y9596714D01*
X442255Y9597892D01*
X419540Y9653546D01*
X425194Y9713391D01*
X457931Y9763806D01*
X510301Y9793317D01*
X570383Y9795206D01*
X666141Y9774852D01*
X666151Y9774850D01*
X672601Y9773480D01*
X856972Y9773480D01*
X863575Y9773480D01*
X870028Y9774851D01*
X870031Y9774852D01*
X1043919Y9811813D01*
X1043923Y9811814D01*
X1050376Y9813186D01*
X1224840Y9890862D01*
X1297308Y9943513D01*
X1373996Y9999230D01*
X1373999Y9999233D01*
X1379341Y10003114D01*
X1507128Y10145036D01*
X1602615Y10310424D01*
X1661630Y10492052D01*
X1681592Y10681980D01*
X1661630Y10871908D01*
X1602615Y11053536D01*
X1507128Y11218924D01*
X1379341Y11360846D01*
X1224840Y11473098D01*
X1050376Y11550774D01*
X863575Y11590480D01*
X672601Y11590480D01*
X485800Y11550774D01*
X311336Y11473098D01*
X245163Y11425020D01*
X198464Y11391091D01*
X156835Y11360846D01*
X29048Y11218924D01*
X-66439Y11053536D01*
X-125454Y10871908D01*
X-145416Y10681980D01*
X-125454Y10492052D01*
X-66439Y10310424D01*
X29048Y10145036D01*
X33472Y10140122D01*
X34335Y10138935D01*
X57049Y10083281D01*
X51393Y10023436D01*
X18655Y9973022D01*
X-33714Y9943513D01*
X-93796Y9941624D01*
X-196013Y9963351D01*
X-386987Y9963351D01*
X-573788Y9923645D01*
X-748252Y9845969D01*
X-902753Y9733717D01*
X-1030540Y9591795D01*
X-1126027Y9426407D01*
X-1185042Y9244779D01*
X-1205004Y9054851D01*
X-1185042Y8864923D01*
X-1126027Y8683295D01*
X-1030540Y8517907D01*
X-980936Y8462816D01*
X-951327Y8404704D01*
X-954741Y8339570D01*
X-989474Y8286089D01*
X-991908Y8284321D01*
X-1119695Y8142399D01*
X-1215182Y7977011D01*
X-1274197Y7795383D01*
X-1294159Y7605455D01*
X-2348146Y7605455D01*
X-2428680Y7744943D01*
X-2556467Y7886865D01*
X-2710968Y7999117D01*
X-2885432Y8076793D01*
X-3072233Y8116499D01*
X-3263207Y8116499D01*
X-3450008Y8076793D01*
X-3624472Y7999117D01*
X-3778973Y7886865D01*
X-3906760Y7744943D01*
X-4002247Y7579555D01*
X-4061262Y7397927D01*
X-4066457Y7348494D01*
X-4089831Y7287603D01*
X-4140518Y7246556D01*
X-4300820Y7175186D01*
X-4455321Y7062934D01*
X-4583108Y6921012D01*
X-4678595Y6755624D01*
X-4737610Y6573996D01*
X-4757572Y6384068D01*
X-6251068Y6384068D01*
X-6250564Y6385619D01*
X-6250562Y6385626D01*
X-6248525Y6391897D01*
X-6239350Y6479187D01*
X-6229253Y6575260D01*
X-6228563Y6581825D01*
X-6238542Y6676773D01*
X-6247835Y6765189D01*
X-6248525Y6771753D01*
X-6250562Y6778025D01*
X-6250564Y6778030D01*
X-6305497Y6947096D01*
X-6305500Y6947103D01*
X-6307540Y6953381D01*
X-6403027Y7118769D01*
X-6530814Y7260691D01*
X-6685315Y7372943D01*
X-6859779Y7450619D01*
X-7046580Y7490325D01*
X-7237554Y7490325D01*
X-7424355Y7450619D01*
X-7598819Y7372943D01*
X-7753320Y7260691D01*
X-7881107Y7118769D01*
X-7976594Y6953381D01*
X-8035609Y6771753D01*
X-8055571Y6581825D01*
X-9393108Y6581825D01*
X-5847052Y12727110D01*
X-5798784Y12774460D01*
X-5732989Y12790040D01*
X-5668613Y12769363D01*
X-5624194Y12718385D01*
X-5612525Y12651786D01*
X-5615344Y12623167D01*
X-5614737Y12617004D01*
X-5596749Y12434365D01*
X-5595872Y12425466D01*
X-5538205Y12235363D01*
X-5444559Y12060163D01*
X-5318532Y11906599D01*
X-5164968Y11780572D01*
X-5159509Y11777654D01*
X-5041997Y11714843D01*
X-4989768Y11686926D01*
X-4983844Y11685129D01*
X-4805587Y11631055D01*
X-4805583Y11631054D01*
X-4799665Y11629259D01*
X-4793511Y11628652D01*
X-4793502Y11628651D01*
X-4731091Y11622505D01*
X-4668985Y11598760D01*
X-4632824Y11553266D01*
X-4632025Y11553754D01*
X-4628121Y11547350D01*
X-4627615Y11546712D01*
X-4623788Y11537775D01*
X-4618051Y11530826D01*
X-4618050Y11530825D01*
X-4552078Y11450923D01*
X-4530690Y11425020D01*
X-4524326Y11420373D01*
X-4524324Y11420371D01*
X-4486697Y11392896D01*
X-4481496Y11389099D01*
X-4478570Y11387409D01*
X-4478569Y11387409D01*
X-3534154Y10842150D01*
X-3534149Y10842147D01*
X-3531228Y10840461D01*
X-3528146Y10839098D01*
X-3528137Y10839093D01*
X-3482729Y10819006D01*
X-3482724Y10819004D01*
X-3475523Y10815819D01*
X-3467751Y10814512D01*
X-3340212Y10793065D01*
X-3340209Y10793064D01*
X-3331325Y10791571D01*
X-3322383Y10792640D01*
X-3322378Y10792640D01*
X-3195081Y10807861D01*
X-3195077Y10807862D01*
X-3186137Y10808931D01*
X-3177858Y10812476D01*
X-3177855Y10812477D01*
X-3113260Y10840138D01*
X-3049148Y10849472D01*
X-2988874Y10825715D01*
X-2948372Y10775148D01*
X-2938351Y10711141D01*
X-2945504Y10643086D01*
X-2925542Y10453158D01*
X-2921882Y10441895D01*
X-2919458Y10372476D01*
X-2954188Y10312321D01*
X-3015517Y10279711D01*
X-3076288Y10266794D01*
X-3250752Y10189118D01*
X-3405253Y10076866D01*
X-3533040Y9934944D01*
X-3628527Y9769556D01*
X-3687542Y9587928D01*
X-3707504Y9398000D01*
X-3687542Y9208072D01*
X-3628527Y9026444D01*
X-3533040Y8861056D01*
X-3405253Y8719134D01*
X-3399911Y8715253D01*
X-3399908Y8715250D01*
X-3355925Y8683295D01*
X-3250752Y8606882D01*
X-3076288Y8529206D01*
X-3069835Y8527834D01*
X-3069831Y8527833D01*
X-2895943Y8490872D01*
X-2895940Y8490871D01*
X-2889487Y8489500D01*
X-2705116Y8489500D01*
X-2698513Y8489500D01*
X-2692060Y8490871D01*
X-2692056Y8490872D01*
X-2518168Y8527833D01*
X-2518161Y8527835D01*
X-2511712Y8529206D01*
X-2505681Y8531891D01*
X-2343278Y8604197D01*
X-2343275Y8604198D01*
X-2337248Y8606882D01*
X-2331906Y8610763D01*
X-2188091Y8715250D01*
X-2188083Y8715256D01*
X-2182747Y8719134D01*
X-2178330Y8724039D01*
X-2178325Y8724044D01*
X-2059379Y8856148D01*
X-2059378Y8856149D01*
X-2054960Y8861056D01*
X-2051661Y8866769D01*
X-2051658Y8866774D01*
X-1962777Y9020721D01*
X-1962776Y9020722D01*
X-1959473Y9026444D01*
X-1957434Y9032718D01*
X-1957430Y9032728D01*
X-1902497Y9201794D01*
X-1902495Y9201801D01*
X-1900458Y9208072D01*
X-1880496Y9398000D01*
X-1900458Y9587928D01*
X-1902496Y9594200D01*
X-1902497Y9594205D01*
X-1904119Y9599196D01*
X-1906541Y9668612D01*
X-1871811Y9728764D01*
X-1810483Y9761373D01*
X-1756174Y9772917D01*
X-1756161Y9772921D01*
X-1749712Y9774292D01*
X-1662354Y9813186D01*
X-1581278Y9849283D01*
X-1581275Y9849284D01*
X-1575248Y9851968D01*
X-1569906Y9855849D01*
X-1426091Y9960336D01*
X-1426083Y9960342D01*
X-1420747Y9964220D01*
X-1416330Y9969125D01*
X-1416325Y9969130D01*
X-1297379Y10101234D01*
X-1297378Y10101235D01*
X-1292960Y10106142D01*
X-1289661Y10111855D01*
X-1289658Y10111860D01*
X-1200777Y10265807D01*
X-1200776Y10265808D01*
X-1197473Y10271530D01*
X-1195434Y10277804D01*
X-1195430Y10277814D01*
X-1140497Y10446880D01*
X-1140495Y10446887D01*
X-1138458Y10453158D01*
X-1118496Y10643086D01*
X-1134102Y10791571D01*
X-1137768Y10826450D01*
X-1138458Y10833014D01*
X-1140495Y10839286D01*
X-1140497Y10839291D01*
X-1172957Y10939190D01*
X-1176371Y11004322D01*
X-1146762Y11062435D01*
X-1108188Y11105276D01*
X-1108183Y11105281D01*
X-1103769Y11110185D01*
X-1082598Y11146853D01*
X-1011586Y11269850D01*
X-1011585Y11269851D01*
X-1008282Y11275573D01*
X-1006243Y11281847D01*
X-1006239Y11281857D01*
X-951306Y11450923D01*
X-951304Y11450930D01*
X-949267Y11457201D01*
X-939714Y11548088D01*
X-929995Y11640564D01*
X-929305Y11647129D01*
X-933795Y11689845D01*
X-948577Y11830493D01*
X-949267Y11837057D01*
X-951304Y11843329D01*
X-951306Y11843334D01*
X-1006239Y12012400D01*
X-1006242Y12012407D01*
X-1008282Y12018685D01*
X-1103769Y12184073D01*
X-1231556Y12325995D01*
X-1386057Y12438247D01*
X-1560521Y12515923D01*
X-1747322Y12555629D01*
X-1804839Y12555629D01*
X-1861490Y12569083D01*
X-1906043Y12606571D01*
X-1928984Y12660088D01*
X-1925413Y12718205D01*
X-1875002Y12884386D01*
X-1874999Y12884399D01*
X-1873204Y12890318D01*
X-1872598Y12896469D01*
X-1872596Y12896480D01*
X-1854339Y13081856D01*
X-1853732Y13088019D01*
X-1860370Y13155418D01*
X-1855551Y13204344D01*
X-1832376Y13247702D01*
X-1794373Y13278890D01*
X-1674850Y13342776D01*
X-1664597Y13349627D01*
X-1520684Y13467733D01*
X-1511973Y13476444D01*
X-1393867Y13620357D01*
X-1387016Y13630610D01*
X-1299253Y13794802D01*
X-1294538Y13806185D01*
X-1260089Y13919749D01*
X-1259384Y13931217D01*
X-1270560Y13933872D01*
X-2278642Y13933872D01*
X-2338037Y13948750D01*
X-2419507Y13992296D01*
X-2468186Y14038641D01*
X-2486112Y14103418D01*
X-2486112Y14458462D01*
X-1978112Y14458462D01*
X-1974605Y14445378D01*
X-1961522Y14441872D01*
X-1270560Y14441872D01*
X-1259384Y14444526D01*
X-1260089Y14455994D01*
X-1294538Y14569558D01*
X-1299253Y14580941D01*
X-1387016Y14745133D01*
X-1393867Y14755386D01*
X-1511973Y14899299D01*
X-1520684Y14908010D01*
X-1664597Y15026116D01*
X-1674850Y15032967D01*
X-1839042Y15120730D01*
X-1850425Y15125445D01*
X-1963989Y15159894D01*
X-1975457Y15160599D01*
X-1978112Y15149424D01*
X-1978112Y14458462D01*
X-2486112Y14458462D01*
X-2486112Y15122957D01*
X-2474235Y15176361D01*
X-2440842Y15219697D01*
X-2422688Y15229069D01*
X-2414351Y15237203D01*
X-2417454Y15250268D01*
X-2486868Y15380133D01*
X-2493719Y15390386D01*
X-2611825Y15534299D01*
X-2620536Y15543010D01*
X-2764449Y15661116D01*
X-2774702Y15667967D01*
X-2938894Y15755730D01*
X-2950277Y15760445D01*
X-3063841Y15794894D01*
X-3075309Y15795599D01*
X-3077964Y15784424D01*
X-3077964Y14694872D01*
X-3094845Y14631872D01*
X-3140964Y14585753D01*
X-3203964Y14568872D01*
X-3378494Y14568872D01*
X-3437890Y14583750D01*
X-3461059Y14596134D01*
X-3579160Y14659260D01*
X-3769263Y14716927D01*
X-3775424Y14717533D01*
X-3775425Y14717534D01*
X-3960801Y14735792D01*
X-3966964Y14736399D01*
X-4164665Y14716927D01*
X-4354768Y14659260D01*
X-4511475Y14575498D01*
X-4574161Y14560664D01*
X-4635989Y14578754D01*
X-4680795Y14625039D01*
X-4696866Y14687422D01*
X-4680003Y14749595D01*
X-4504820Y15053185D01*
X-4467940Y15093436D01*
X-4417496Y15114309D01*
X-4362959Y15111886D01*
X-4314564Y15086623D01*
X-4306694Y15080001D01*
X-4293516Y15076872D01*
X-3602554Y15076872D01*
X-3589470Y15080378D01*
X-3585964Y15093462D01*
X-3585964Y15784424D01*
X-3588618Y15795599D01*
X-3600086Y15794894D01*
X-3713650Y15760445D01*
X-3725032Y15755730D01*
X-3877445Y15674264D01*
X-3940133Y15659429D01*
X-4001961Y15677518D01*
X-4046767Y15723804D01*
X-4062838Y15786187D01*
X-4045975Y15848360D01*
X-1868634Y19621673D01*
X-1822521Y19667806D01*
X-1759518Y19684699D01*
X-1696510Y19667824D01*
X-1650384Y19621704D01*
X-1633500Y19558699D01*
X-1633500Y18506362D01*
X-1626989Y18445799D01*
X-1575889Y18308796D01*
X-1570489Y18301582D01*
X-1566171Y18293675D01*
X-1567952Y18292702D01*
X-1548619Y18244815D01*
X-1557232Y18180895D01*
X-1558319Y18178269D01*
X-1561241Y18172804D01*
X-1618908Y17982701D01*
X-1638380Y17785000D01*
X-1618908Y17587299D01*
X-1561241Y17397196D01*
X-1467595Y17221996D01*
X-1465099Y17218954D01*
X-1446718Y17174584D01*
X-1446718Y17125416D01*
X-1465099Y17081045D01*
X-1467595Y17078004D01*
X-1561241Y16902804D01*
X-1618908Y16712701D01*
X-1638380Y16515000D01*
X-1618908Y16317299D01*
X-1561241Y16127196D01*
X-1467595Y15951996D01*
X-1341568Y15798432D01*
X-1336788Y15794509D01*
X-1324499Y15784424D01*
X-1188004Y15672405D01*
X-1182545Y15669487D01*
X-1160315Y15657605D01*
X-1012804Y15578759D01*
X-1006880Y15576962D01*
X-828623Y15522888D01*
X-828619Y15522887D01*
X-822701Y15521092D01*
X-816547Y15520485D01*
X-816538Y15520484D01*
X-631163Y15502227D01*
X-625000Y15501620D01*
X-618837Y15502227D01*
X-433461Y15520484D01*
X-433450Y15520486D01*
X-427299Y15521092D01*
X-421382Y15522886D01*
X-421376Y15522888D01*
X-243119Y15576962D01*
X-243116Y15576963D01*
X-237196Y15578759D01*
X-231738Y15581676D01*
X-231734Y15581678D01*
X-67451Y15669488D01*
X-67441Y15669494D01*
X-61996Y15672405D01*
X-58953Y15674901D01*
X-14579Y15693280D01*
X34579Y15693280D01*
X78953Y15674901D01*
X81996Y15672405D01*
X87441Y15669494D01*
X87451Y15669488D01*
X251734Y15581678D01*
X251738Y15581676D01*
X257196Y15578759D01*
X263116Y15576963D01*
X263119Y15576962D01*
X441376Y15522888D01*
X441382Y15522886D01*
X447299Y15521092D01*
X453450Y15520486D01*
X453461Y15520484D01*
X638837Y15502227D01*
X645000Y15501620D01*
X651163Y15502227D01*
X836538Y15520484D01*
X836547Y15520485D01*
X842701Y15521092D01*
X848619Y15522887D01*
X848623Y15522888D01*
X1026880Y15576962D01*
X1032804Y15578759D01*
X1180315Y15657605D01*
X1202545Y15669487D01*
X1208004Y15672405D01*
X1344499Y15784424D01*
X1356788Y15794509D01*
X1361568Y15798432D01*
X1487595Y15951996D01*
X1581241Y16127196D01*
X1638908Y16317299D01*
X1658380Y16515000D01*
X1638908Y16712701D01*
X1581241Y16902804D01*
X1487595Y17078004D01*
X1485099Y17081045D01*
X1466718Y17125416D01*
X1466718Y17174584D01*
X1485099Y17218954D01*
X1487595Y17221996D01*
X1581241Y17397196D01*
X1638908Y17587299D01*
X1658380Y17785000D01*
X1638908Y17982701D01*
X1581241Y18172804D01*
X1487595Y18348004D01*
X1485099Y18351045D01*
X1466718Y18395416D01*
X1466718Y18444584D01*
X1485099Y18488954D01*
X1487595Y18491996D01*
X1581241Y18667196D01*
X1638908Y18857299D01*
X1658380Y19055000D01*
X1638908Y19252701D01*
X1581241Y19442804D01*
X1487595Y19618004D01*
X1361568Y19771568D01*
X1208004Y19897595D01*
X1032804Y19991241D01*
X842701Y20048908D01*
X645000Y20068380D01*
X638837Y20067773D01*
X453461Y20049515D01*
X453460Y20049514D01*
X447299Y20048908D01*
X257196Y19991241D01*
X251733Y19988321D01*
X249102Y19987231D01*
X185168Y19978621D01*
X137303Y19997955D01*
X136328Y19996170D01*
X128416Y20000489D01*
X121204Y20005889D01*
X-15799Y20056989D01*
X-76362Y20063500D01*
X-1173638Y20063500D01*
X-1234201Y20056989D01*
X-1371204Y20005889D01*
X-1378422Y20000485D01*
X-1381267Y19998932D01*
X-1444045Y19983540D01*
X-1506196Y20001301D01*
X-1551361Y20047541D01*
X-1567656Y20110092D01*
X-1550791Y20172491D01*
X-1064687Y21014906D01*
X-1064672Y21014932D01*
X-109119Y22669999D01*
X-63000Y22716118D01*
X0Y22732999D01*
X63000Y22716118D01*
G37*
%TD.AperFunction*%
%TD*%
M02*
