%TF.GenerationSoftware,KiCad,Pcbnew,7.0.0-da2b9df05c~163~ubuntu22.04.1*%
%TF.CreationDate,2023-02-23T13:52:18+03:00*%
%TF.ProjectId,freeeeg16-alpha,66726565-6565-4673-9136-2d616c706861,rev?*%
%TF.SameCoordinates,Original*%
%TF.FileFunction,Copper,L2,Inr*%
%TF.FilePolarity,Positive*%
%FSLAX46Y46*%
G04 Gerber Fmt 4.6, Leading zero omitted, Abs format (unit mm)*
G04 Created by KiCad (PCBNEW 7.0.0-da2b9df05c~163~ubuntu22.04.1) date 2023-02-23 13:52:18*
%MOMM*%
%LPD*%
G01*
G04 APERTURE LIST*
G04 Aperture macros list*
%AMHorizOval*
0 Thick line with rounded ends*
0 $1 width*
0 $2 $3 position (X,Y) of the first rounded end (center of the circle)*
0 $4 $5 position (X,Y) of the second rounded end (center of the circle)*
0 Add line between two ends*
20,1,$1,$2,$3,$4,$5,0*
0 Add two circle primitives to create the rounded ends*
1,1,$1,$2,$3*
1,1,$1,$4,$5*%
%AMRotRect*
0 Rectangle, with rotation*
0 The origin of the aperture is its center*
0 $1 length*
0 $2 width*
0 $3 Rotation angle, in degrees counterclockwise*
0 Add horizontal line*
21,1,$1,$2,0,0,$3*%
G04 Aperture macros list end*
%TA.AperFunction,ComponentPad*%
%ADD10R,1.000000X1.000000*%
%TD*%
%TA.AperFunction,ComponentPad*%
%ADD11O,1.000000X1.000000*%
%TD*%
%TA.AperFunction,ComponentPad*%
%ADD12RotRect,1.000000X1.000000X210.000000*%
%TD*%
%TA.AperFunction,ComponentPad*%
%ADD13HorizOval,1.000000X0.000000X0.000000X0.000000X0.000000X0*%
%TD*%
%TA.AperFunction,ComponentPad*%
%ADD14RotRect,1.000000X1.000000X150.000000*%
%TD*%
%TA.AperFunction,ComponentPad*%
%ADD15HorizOval,1.000000X0.000000X0.000000X0.000000X0.000000X0*%
%TD*%
%TA.AperFunction,ComponentPad*%
%ADD16RotRect,1.000000X1.000000X330.000000*%
%TD*%
%TA.AperFunction,ComponentPad*%
%ADD17HorizOval,1.000000X0.000000X0.000000X0.000000X0.000000X0*%
%TD*%
%TA.AperFunction,ViaPad*%
%ADD18C,0.800000*%
%TD*%
%TA.AperFunction,Conductor*%
%ADD19C,0.400000*%
%TD*%
%TA.AperFunction,Conductor*%
%ADD20C,0.500000*%
%TD*%
%TA.AperFunction,Conductor*%
%ADD21C,0.250000*%
%TD*%
%TA.AperFunction,Conductor*%
%ADD22C,0.750000*%
%TD*%
G04 APERTURE END LIST*
D10*
%TO.N,ACC_5_VDDIO*%
%TO.C,J1*%
X-624999Y19054999D03*
D11*
%TO.N,CRYSTAL_4_Vin*%
X644999Y19054999D03*
%TO.N,MCU_18_PB0_ADC1_SYNC{slash}RESET*%
X-624999Y17784999D03*
%TO.N,ADC1_16_SYNC{slash}RESET*%
X644999Y17784999D03*
%TO.N,CRYSTAL_3_OUT*%
X-624999Y16514999D03*
%TO.N,MCU_5_PDO0_RCC_OSC_IN*%
X644999Y16514999D03*
%TD*%
D12*
%TO.N,ADC1_02_AIN2N*%
%TO.C,J3*%
X12344399Y-1099851D03*
D13*
%TO.N,/J17*%
X11709399Y0D03*
%TO.N,ADC1_09_AIN6P*%
X11074399Y1099852D03*
%TD*%
D14*
%TO.N,3V3_2_GND*%
%TO.C,J2*%
X-12346899Y-1104182D03*
D15*
%TO.N,/J18*%
X-11711899Y-4330D03*
%TO.N,ADC1_09_AIN6P*%
X-11076899Y1095521D03*
%TD*%
D10*
%TO.N,ADC2_08_AIN5P*%
%TO.C,J29*%
X11167947Y-9026999D03*
D11*
X11167947Y-10296999D03*
%TO.N,ADC2_09_AIN6P*%
X9897947Y-9026999D03*
X9897947Y-10296999D03*
%TO.N,ADC2_12_AIN7P*%
X8627947Y-9026999D03*
X8627947Y-10296999D03*
%TD*%
D10*
%TO.N,ADC1_29_AIN0P*%
%TO.C,J28*%
X-8630999Y-9026999D03*
D11*
X-8630999Y-10296999D03*
%TO.N,/J18*%
X-9900999Y-9026999D03*
X-9900999Y-10296999D03*
%TO.N,ADC1_32_AIN1P*%
X-11170999Y-9026999D03*
X-11170999Y-10296999D03*
%TD*%
D12*
%TO.N,ADC2_04_AIN3P*%
%TO.C,J31*%
X12133110Y-2961164D03*
D13*
X13232962Y-2326164D03*
%TO.N,/J17*%
X12768110Y-4061016D03*
X13867962Y-3426016D03*
%TO.N,ADC2_05_AIN4P*%
X13403110Y-5160869D03*
X14502962Y-4525869D03*
%TD*%
D16*
%TO.N,ADC1_08_AIN5P*%
%TO.C,J32*%
X-3502111Y11988166D03*
D17*
X-4601963Y12623166D03*
%TO.N,ADC1_09_AIN6P*%
X-2867111Y13088018D03*
X-3966963Y13723018D03*
%TO.N,ADC1_12_AIN7P*%
X-2232111Y14187871D03*
X-3331963Y14822871D03*
%TD*%
D12*
%TO.N,ADC2_29_AIN0P*%
%TO.C,J33*%
X2233636Y14185226D03*
D13*
X3333488Y14820226D03*
%TO.N,ADC2_32_AIN1P*%
X2868636Y13085374D03*
X3968488Y13720374D03*
%TO.N,ADC2_01_AIN2P*%
X3503636Y11985521D03*
X4603488Y12620521D03*
%TD*%
D16*
%TO.N,ADC1_01_AIN2P*%
%TO.C,J30*%
X-13401585Y-5158224D03*
D17*
X-14501437Y-4523224D03*
%TO.N,ADC1_04_AIN3P*%
X-12766585Y-4058372D03*
X-13866437Y-3423372D03*
%TO.N,ADC1_05_AIN4P*%
X-12131585Y-2958519D03*
X-13231437Y-2323519D03*
%TD*%
D18*
%TO.N,3V3_5_OUT*%
X952855Y4940900D03*
%TO.N,3V3_2_GND*%
X-10577904Y-5682256D03*
%TO.N,3V3_1_IN*%
X-3167720Y7207999D03*
X-13987908Y-10303090D03*
X-15964500Y-6705600D03*
X14823166Y-5607300D03*
%TO.N,ADC1_15_AVDD*%
X7342072Y1466090D03*
X17224809Y-7774246D03*
X57669Y9170799D03*
X14479264Y-6658590D03*
%TO.N,ADC1_26_DVDD*%
X-1981200Y2641600D03*
X-12368202Y-9654691D03*
X6716707Y3884418D03*
%TO.N,ADC1_14_REFIN*%
X-3844068Y6384068D03*
X6631839Y474212D03*
X10102741Y-4966605D03*
X-587663Y7599508D03*
%TO.N,ACC_5_VDDIO*%
X-6298133Y-6679133D03*
X-806128Y-8764200D03*
X-1099694Y-121403D03*
X7023056Y-5311845D03*
X-14457301Y-5911133D03*
X2844046Y-10517304D03*
%TO.N,ADC2_01_AIN2P*%
X10349900Y2474505D03*
%TO.N,ADC2_17_CS*%
X-812967Y-2405237D03*
X2417436Y3146105D03*
%TO.N,ADC2_29_AIN0P*%
X2873887Y11080071D03*
%TO.N,ADC1_02_AIN2N*%
X-6426200Y-50800D03*
X5334000Y50800D03*
X1873598Y7594734D03*
%TO.N,ADC1_08_AIN5P*%
X-10622859Y2653900D03*
%TO.N,ADC1_09_AIN6P*%
X2463800Y15849600D03*
%TO.N,ADC1_12_AIN7P*%
X-3149600Y10617200D03*
%TO.N,ADC1_16_SYNC{slash}RESET*%
X2248115Y2159000D03*
X1575177Y10338177D03*
X-7142067Y6599500D03*
%TO.N,ADC1_17_CS*%
X-3986395Y-5595707D03*
X-6500993Y1778000D03*
%TO.N,ADC1_18_DRDY*%
X-5883425Y2581501D03*
X-1515793Y-3115899D03*
%TO.N,ADC1_19_SCLK*%
X-3196554Y-6204685D03*
X-5384777Y1687311D03*
%TO.N,ADC1_23_XTAL1{slash}CLKIN*%
X1532753Y-4758553D03*
X3649502Y6107631D03*
X-1792100Y4338298D03*
%TO.N,3V3_2_GND*%
X-3943752Y10010300D03*
X14351000Y-10795000D03*
X-7878847Y-6168372D03*
X-17017009Y-7454768D03*
X254000Y-9271000D03*
X-15113000Y-11030000D03*
X12274293Y-7212197D03*
X-140000Y600500D03*
X-7402127Y3747685D03*
X2815280Y10079859D03*
X2006600Y4551933D03*
X6156471Y-5830636D03*
X-126805Y-350515D03*
X-6396854Y7412854D03*
X-4703049Y-9386346D03*
%TO.N,3V3_5_OUT*%
X-1828339Y11676570D03*
%TO.N,MCU_7_NRST*%
X-624999Y-7471002D03*
%TO.N,MCU_34_PA13_SYS_JTMS-SWDIO*%
X867897Y-7242595D03*
%TO.N,MCU_37_PA14_SYS_JTCK-SWCLK*%
X5143567Y-6489633D03*
%TO.N,ADC1_20_DOUT*%
X-4395052Y1547848D03*
X-2533936Y-5456391D03*
%TO.N,ADC1_21_DIN*%
X-3984924Y2578666D03*
X-2343219Y-4343400D03*
%TO.N,ADC2_19_SCLK*%
X24571Y-2972145D03*
X3976864Y2568386D03*
%TO.N,ADC2_20_DOUT*%
X4895219Y3013733D03*
X285411Y-3937012D03*
%TO.N,ADC2_21_DIN*%
X5265859Y3944378D03*
X337744Y-4935144D03*
%TO.N,MCU_38_PA15_SYS_JTDI*%
X3709418Y-6013573D03*
%TO.N,MCU_39_PB3_SYS_JTDO-TRACESWO*%
X2083941Y-7409134D03*
%TO.N,MCU_5_PDO0_RCC_OSC_IN*%
X-3098800Y-10608059D03*
X-1345449Y10692649D03*
%TO.N,ACC_13_SCL*%
X4378065Y-9102465D03*
%TO.N,ACC_14_SDA*%
X2726877Y-4290223D03*
%TO.N,RADIO_8_GPIO9*%
X-8672118Y-4817203D03*
%TO.N,MCU_12_PA2_USART2_TX*%
X-6045200Y-5156200D03*
%TO.N,MCU_13_PA3_USART2_RX*%
X-6072303Y-4157065D03*
%TO.N,MCU_18_PB0_ADC1_SYNC{slash}RESET*%
X-2325545Y8989485D03*
X-1372544Y-4105083D03*
X50800Y2895600D03*
%TD*%
D19*
%TO.N,3V3_1_IN*%
X2309060Y9444147D02*
X2057400Y9444147D01*
D20*
X584200Y9895299D02*
X991322Y9488177D01*
X991322Y9488177D02*
X2013370Y9488177D01*
X2013370Y9488177D02*
X2057400Y9444147D01*
D19*
X3098800Y9279067D02*
X2474140Y9279067D01*
D21*
%TO.N,ADC1_15_AVDD*%
X8354297Y4625460D02*
X8103056Y4876703D01*
X2146851Y8864600D02*
X363868Y8864600D01*
X4479081Y8704566D02*
X2886234Y8704566D01*
X8354297Y2478315D02*
X8354297Y4625460D01*
X8103056Y4876703D02*
X8103055Y5080592D01*
X8103055Y5080592D02*
X4479081Y8704566D01*
X2836234Y8754566D02*
X2256884Y8754567D01*
X7342072Y1466090D02*
X8354297Y2478315D01*
X2886234Y8704566D02*
X2836234Y8754566D01*
X2256884Y8754567D02*
X2146851Y8864600D01*
D20*
%TO.N,3V3_1_IN*%
X4717050Y9279067D02*
X3098800Y9279067D01*
D21*
%TO.N,ADC1_15_AVDD*%
X363868Y8864600D02*
X57669Y9170799D01*
D20*
%TO.N,3V3_1_IN*%
X4759913Y9236204D02*
X4717050Y9279067D01*
X-791831Y9347793D02*
X-777212Y9362412D01*
D21*
%TO.N,ADC1_16_SYNC{slash}RESET*%
X1470000Y14804310D02*
X1094501Y14428811D01*
X645000Y17785000D02*
X1470000Y16960000D01*
X-447100Y10566400D02*
X1346954Y10566400D01*
%TO.N,ADC1_02_AIN2N*%
X-7225993Y2273607D02*
X-3870499Y5629101D01*
X5334000Y201678D02*
X6020652Y888330D01*
%TO.N,ADC1_16_SYNC{slash}RESET*%
X-6179005Y6599500D02*
X-4513520Y8264985D01*
X1094501Y14428811D02*
X1094501Y10818853D01*
%TO.N,ADC1_02_AIN2N*%
X-978471Y6183997D02*
X432266Y7594734D01*
%TO.N,ADC1_16_SYNC{slash}RESET*%
X-2022705Y8264985D02*
X-1590501Y8697189D01*
%TO.N,ADC1_02_AIN2N*%
X7204055Y4708212D02*
X4327366Y7584901D01*
%TO.N,ADC1_16_SYNC{slash}RESET*%
X1346954Y10566400D02*
X1575177Y10338177D01*
%TO.N,ADC1_02_AIN2N*%
X-1994469Y6183997D02*
X-978471Y6183997D01*
D20*
%TO.N,3V3_1_IN*%
X-3167720Y7207999D02*
X-2181254Y7207999D01*
D21*
%TO.N,ADC1_02_AIN2N*%
X1883431Y7584901D02*
X1873598Y7594734D01*
X-7225993Y748993D02*
X-7225993Y2273607D01*
X7291208Y4417169D02*
X7204055Y4504323D01*
X7291208Y4338542D02*
X7291208Y4417169D01*
X7204055Y4504323D02*
X7204055Y4708212D01*
%TO.N,ADC1_16_SYNC{slash}RESET*%
X-1590501Y8697189D02*
X-1590501Y9422999D01*
%TO.N,ADC1_02_AIN2N*%
X7441207Y4188543D02*
X7291208Y4338542D01*
D20*
%TO.N,3V3_1_IN*%
X-791831Y8597422D02*
X-791831Y9347793D01*
D21*
%TO.N,ADC1_02_AIN2N*%
X-6426200Y-50800D02*
X-7225993Y748993D01*
X6020652Y888330D02*
X6020652Y1804958D01*
X432266Y7594734D02*
X1873598Y7594734D01*
%TO.N,ADC1_16_SYNC{slash}RESET*%
X1094501Y10818853D02*
X1575177Y10338177D01*
X1470000Y16960000D02*
X1470000Y14804310D01*
%TO.N,ADC1_02_AIN2N*%
X4327366Y7584901D02*
X1883431Y7584901D01*
X5334000Y50800D02*
X5334000Y201678D01*
X-3870499Y5629101D02*
X-2549367Y5629101D01*
X-2549367Y5629101D02*
X-1994469Y6183997D01*
X6020652Y1804958D02*
X7441207Y3225513D01*
%TO.N,ADC1_16_SYNC{slash}RESET*%
X-1590501Y9422999D02*
X-447100Y10566400D01*
D20*
%TO.N,ADC1_26_DVDD*%
X-1756504Y5609496D02*
X-2642100Y4723900D01*
X-2642100Y4723900D02*
X-2642100Y3302500D01*
X-12002Y6311202D02*
X-713708Y5609496D01*
X3297420Y6957631D02*
X2650991Y6311202D01*
X2650991Y6311202D02*
X-12002Y6311202D01*
D21*
%TO.N,ADC1_14_REFIN*%
X-2430090Y6384068D02*
X-2180659Y6633498D01*
D20*
%TO.N,ADC1_26_DVDD*%
X4142169Y6957631D02*
X3297420Y6957631D01*
D21*
%TO.N,ADC1_14_REFIN*%
X-1270369Y6916802D02*
X-587663Y7599508D01*
%TO.N,ADC1_16_SYNC{slash}RESET*%
X-4513520Y8264985D02*
X-2022705Y8264985D01*
%TO.N,ADC1_14_REFIN*%
X-1659984Y6916802D02*
X-1270369Y6916802D01*
D20*
%TO.N,ADC1_26_DVDD*%
X6571233Y4029892D02*
X6571233Y4528567D01*
D21*
%TO.N,ADC1_14_REFIN*%
X-2180659Y6633498D02*
X-1943287Y6633498D01*
X-1943287Y6633498D02*
X-1659984Y6916802D01*
X-3844068Y6384068D02*
X-2430090Y6384068D01*
D20*
%TO.N,ADC1_26_DVDD*%
X-2642100Y3302500D02*
X-1981200Y2641600D01*
X6571233Y4528567D02*
X4142169Y6957631D01*
X-713708Y5609496D02*
X-1756504Y5609496D01*
D21*
%TO.N,ADC1_02_AIN2N*%
X7441207Y3225513D02*
X7441207Y4188543D01*
%TO.N,ADC1_16_SYNC{slash}RESET*%
X-7142067Y6599500D02*
X-6179005Y6599500D01*
D20*
%TO.N,ADC1_26_DVDD*%
X6716707Y3884418D02*
X6571233Y4029892D01*
%TO.N,3V3_1_IN*%
X-2181254Y7207999D02*
X-791831Y8597422D01*
D19*
X-777212Y9362412D02*
X-777212Y9469185D01*
X-777212Y9469185D02*
X-275598Y9970799D01*
X508700Y9970799D02*
X584200Y9895299D01*
X-275598Y9970799D02*
X508700Y9970799D01*
D21*
%TO.N,ADC1_14_REFIN*%
X6631839Y474212D02*
X6616100Y489951D01*
X7653555Y4894401D02*
X4478758Y8069198D01*
X2598444Y8069198D02*
X2362576Y8305066D01*
X7653556Y4690514D02*
X7653555Y4894401D01*
X4478758Y8069198D02*
X2598444Y8069198D01*
X7890708Y4453359D02*
X7653556Y4690514D01*
X7890708Y3039324D02*
X7890708Y4453359D01*
X6616100Y1764716D02*
X7890708Y3039324D01*
X169429Y8356600D02*
X-587663Y7599508D01*
X6616100Y489951D02*
X6616100Y1764716D01*
X2019161Y8356600D02*
X169429Y8356600D01*
X2070695Y8305066D02*
X2019161Y8356600D01*
X2362576Y8305066D02*
X2070695Y8305066D01*
D19*
%TO.N,3V3_1_IN*%
X2474140Y9279067D02*
X2309060Y9444147D01*
D21*
%TO.N,MCU_18_PB0_ADC1_SYNC{slash}RESET*%
X-2555996Y11376915D02*
X-2131801Y10952720D01*
X-2131801Y10952720D02*
X-2131801Y9679199D01*
X-2131594Y12402220D02*
X-2555996Y11977818D01*
X-2555996Y11977818D02*
X-2555996Y11376915D01*
X-2325545Y9485455D02*
X-2325545Y8989485D01*
X-1450000Y16960000D02*
X-1450000Y14658000D01*
X-1407112Y13108130D02*
X-2113023Y12402220D01*
X-2113023Y12402220D02*
X-2131594Y12402220D01*
X-1407112Y14615112D02*
X-1407112Y13108130D01*
X-1450000Y14658000D02*
X-1407112Y14615112D01*
X-625000Y17785000D02*
X-1450000Y16960000D01*
X-2131801Y9679199D02*
X-2325545Y9485455D01*
%TO.N,ADC1_23_XTAL1{slash}CLKIN*%
X1565433Y5369099D02*
X1197831Y5736701D01*
X637635Y5736701D02*
X-760768Y4338298D01*
X3006566Y5369099D02*
X1565433Y5369099D01*
X-760768Y4338298D02*
X-1792100Y4338298D01*
X1197831Y5736701D02*
X637635Y5736701D01*
X3649502Y6107631D02*
X3649502Y6012035D01*
X3649502Y6012035D02*
X3006566Y5369099D01*
D22*
%TO.N,3V3_1_IN*%
X-13843000Y-7620690D02*
X-13488740Y-7620690D01*
X-13488740Y-7620690D02*
X-11642001Y-5773951D01*
X-11642001Y-5368201D02*
X-8377127Y-2103327D01*
X-11642001Y-5773951D02*
X-11642001Y-5368201D01*
X-3318789Y7359068D02*
X-3167720Y7207999D01*
X-8377127Y-2103327D02*
X-8377127Y4151544D01*
X-8377127Y4151544D02*
X-7805986Y4722685D01*
X-7805986Y4722685D02*
X-6998268Y4722685D01*
X-6998268Y4722685D02*
X-4361885Y7359068D01*
X-4361885Y7359068D02*
X-3318789Y7359068D01*
D20*
%TO.N,ADC1_26_DVDD*%
X-10461181Y-6531756D02*
X-10226029Y-6531756D01*
X-12368202Y-8438777D02*
X-10461181Y-6531756D01*
X-12368202Y-9654691D02*
X-12368202Y-8438777D01*
X-5410200Y-787400D02*
X-1981200Y2641600D01*
X-9728404Y-6034131D02*
X-9728404Y-5798979D01*
X-5843690Y-787400D02*
X-5410200Y-787400D01*
X-9588821Y-4532531D02*
X-5843690Y-787400D01*
X-9728404Y-5798979D02*
X-9588821Y-5659396D01*
X-10226029Y-6531756D02*
X-9728404Y-6034131D01*
X-9588821Y-5659396D02*
X-9588821Y-4532531D01*
D22*
%TO.N,3V3_1_IN*%
X-13843000Y-7620690D02*
X-13843000Y-10158182D01*
X-13843000Y-10158182D02*
X-13987908Y-10303090D01*
X-13843000Y-7620690D02*
X-15049410Y-7620690D01*
X-15049410Y-7620690D02*
X-15964500Y-6705600D01*
D21*
%TO.N,ACC_5_VDDIO*%
X-13116444Y-6258444D02*
X-14109990Y-6258444D01*
X-8814153Y6883047D02*
X-8814153Y6477337D01*
X-5715000Y9982200D02*
X-8814153Y6883047D01*
X-8814153Y6477337D02*
X-9771301Y5520189D01*
X-625000Y19055000D02*
X-3556000Y16124000D01*
X-10223644Y-2700048D02*
X-12342001Y-4818405D01*
X-12548256Y-5513478D02*
X-12740756Y-5705978D01*
X-10735173Y1920522D02*
X-10223644Y1408993D01*
X-9771301Y5520189D02*
X-9771301Y4530763D01*
X-4475355Y14846208D02*
X-4475355Y14381355D01*
X-14109990Y-6258444D02*
X-14457301Y-5911133D01*
X-11347859Y2354019D02*
X-10914362Y1920522D01*
X-4475355Y14381355D02*
X-4943691Y13913019D01*
X-5715000Y12676858D02*
X-5715000Y9982200D01*
X-12342001Y-4818405D02*
X-12342001Y-5130447D01*
X-12548256Y-5336702D02*
X-12548256Y-5513478D01*
X-3556000Y16124000D02*
X-3556000Y15647872D01*
X-4943691Y13448167D02*
X-5715000Y12676858D01*
X-12740756Y-5705978D02*
X-12740756Y-5882756D01*
X-3673691Y15647872D02*
X-4475355Y14846208D01*
X-11347859Y2954205D02*
X-11347859Y2354019D01*
X-12342001Y-5130447D02*
X-12548256Y-5336702D01*
X-4943691Y13913019D02*
X-4943691Y13448167D01*
X-3556000Y15647872D02*
X-3673691Y15647872D01*
X-9771301Y4530763D02*
X-11347859Y2954205D01*
X-12740756Y-5882756D02*
X-13116444Y-6258444D01*
X-10914362Y1920522D02*
X-10735173Y1920522D01*
X-10223644Y1408993D02*
X-10223644Y-2700048D01*
D20*
%TO.N,ADC1_14_REFIN*%
X10102741Y-4966605D02*
X6631839Y-1495703D01*
X6631839Y-1495703D02*
X6631839Y474212D01*
%TO.N,3V3_1_IN*%
X11692837Y-4794099D02*
X11692837Y-4365375D01*
X14300184Y-5607300D02*
X13796614Y-6110870D01*
X13796614Y-6110870D02*
X13009608Y-6110870D01*
X13009608Y-6110870D02*
X11692837Y-4794099D01*
X6543804Y8036511D02*
X5344110Y9236204D01*
X5344110Y9236204D02*
X4759913Y9236204D01*
X11692837Y-4365375D02*
X10605501Y-3278039D01*
X14823166Y-5607300D02*
X14300184Y-5607300D01*
X8929297Y4862927D02*
X8677556Y5114669D01*
X8677555Y5318561D02*
X6543804Y7452312D01*
%TO.N,ADC1_15_AVDD*%
X9905501Y-1097339D02*
X9905501Y-3567283D01*
%TO.N,3V3_1_IN*%
X6543804Y7452312D02*
X6543804Y8036511D01*
%TO.N,ADC1_15_AVDD*%
X7342072Y1466090D02*
X9905501Y-1097339D01*
X9905501Y-3567283D02*
X10993336Y-4655118D01*
X10993336Y-4655118D02*
X10993336Y-4907064D01*
%TO.N,3V3_1_IN*%
X8677556Y5114669D02*
X8677555Y5318561D01*
X10605501Y-3278039D02*
X10605501Y-808095D01*
X8929297Y868109D02*
X8929297Y4862927D01*
X10605501Y-808095D02*
X8929297Y868109D01*
%TO.N,ADC1_15_AVDD*%
X11922211Y-8062197D02*
X10993336Y-7133322D01*
X14479264Y-6658590D02*
X13075657Y-8062197D01*
X13075657Y-8062197D02*
X11922211Y-8062197D01*
X10993336Y-7133322D02*
X10993336Y-4907064D01*
%TO.N,ACC_5_VDDIO*%
X-6298133Y-6679133D02*
X-2816965Y-3197965D01*
X-2816965Y-3197965D02*
X-2816965Y-1838674D01*
X-2816965Y-1838674D02*
X-1099694Y-121403D01*
D21*
%TO.N,ADC1_09_AIN6P*%
X10234200Y4193000D02*
X10234200Y4879299D01*
X11074400Y1099853D02*
X11074400Y3352800D01*
X4158489Y15161954D02*
X3470843Y15849600D01*
%TO.N,ADC2_01_AIN2P*%
X7118305Y7690279D02*
X9252056Y5556528D01*
X5582076Y9810705D02*
X7118305Y8274477D01*
%TO.N,ADC1_09_AIN6P*%
X9953298Y5363258D02*
X9701556Y5615002D01*
X10234200Y4879299D02*
X9964595Y5148904D01*
%TO.N,ADC2_01_AIN2P*%
X9503798Y5100869D02*
X9515094Y5089573D01*
X9515094Y4733973D02*
X9784699Y4464368D01*
X9784699Y4464368D02*
X9784699Y3039706D01*
X9515094Y5089573D02*
X9515094Y4733973D01*
%TO.N,ADC1_09_AIN6P*%
X4800600Y13792200D02*
X4800600Y14249400D01*
%TO.N,ADC2_01_AIN2P*%
X7118305Y8274477D02*
X7118305Y7690279D01*
X4978988Y9829597D02*
X4997880Y9810705D01*
%TO.N,ADC1_09_AIN6P*%
X7567806Y8460667D02*
X5428489Y10599984D01*
%TO.N,ADC2_01_AIN2P*%
X3503637Y11985522D02*
X4978988Y10510171D01*
X9503798Y5177069D02*
X9503798Y5100869D01*
%TO.N,ADC1_09_AIN6P*%
X9701557Y5742717D02*
X7567806Y7876469D01*
X4800600Y14249400D02*
X4158489Y14891511D01*
X5428489Y13164311D02*
X4800600Y13792200D01*
%TO.N,ADC2_01_AIN2P*%
X9252056Y5556528D02*
X9252056Y5428812D01*
%TO.N,ADC1_09_AIN6P*%
X9964595Y5148904D02*
X9964594Y5275762D01*
X4158489Y14891511D02*
X4158489Y15161954D01*
X3470843Y15849600D02*
X2463800Y15849600D01*
X9964594Y5275762D02*
X9953298Y5287058D01*
X9953298Y5287058D02*
X9953298Y5363258D01*
X7567806Y7876469D02*
X7567806Y8460667D01*
X11074400Y3352800D02*
X10234200Y4193000D01*
X5428489Y10599984D02*
X5428489Y13164311D01*
X9701556Y5615002D02*
X9701557Y5742717D01*
%TO.N,ADC2_01_AIN2P*%
X4997880Y9810705D02*
X5582076Y9810705D01*
X9784699Y3039706D02*
X10349900Y2474505D01*
X4978988Y10510171D02*
X4978988Y9829597D01*
X9252056Y5428812D02*
X9503798Y5177069D01*
%TO.N,ADC1_23_XTAL1{slash}CLKIN*%
X5992207Y3584320D02*
X6143641Y3432886D01*
X4884499Y1150683D02*
X4884499Y674384D01*
X5285182Y4949654D02*
X5996233Y4238603D01*
X5570652Y1836836D02*
X4884499Y1150683D01*
X6143641Y2563637D02*
X5570652Y1990648D01*
X3649502Y6107631D02*
X4807479Y4949654D01*
X5996233Y4188542D02*
X5992207Y4184516D01*
X4884499Y674384D02*
X2002377Y-2207738D01*
X5570652Y1990648D02*
X5570652Y1836836D01*
X6143641Y3432886D02*
X6143641Y2563637D01*
X2002377Y-2207738D02*
X2002377Y-4288929D01*
X5992207Y4184516D02*
X5992207Y3584320D01*
X4807479Y4949654D02*
X5285182Y4949654D01*
X5996233Y4238603D02*
X5996233Y4188542D01*
X2002377Y-4288929D02*
X1532753Y-4758553D01*
%TO.N,ADC2_21_DIN*%
X337744Y-4935144D02*
X337744Y-4928964D01*
X1552876Y-3713832D02*
X1552876Y-1950944D01*
X1552876Y-1950944D02*
X4434998Y931178D01*
X4434998Y931178D02*
X4434998Y1337578D01*
X5694140Y3246697D02*
X5542706Y3398131D01*
X5121151Y2176837D02*
X5694140Y2749826D01*
X5542706Y3398131D02*
X5542706Y3443232D01*
X4434998Y1337578D02*
X5121151Y2023731D01*
X5542706Y3443232D02*
X5265859Y3720079D01*
X5694140Y2749826D02*
X5694140Y3246697D01*
X5121151Y2023731D02*
X5121151Y2176837D01*
X337744Y-4928964D02*
X1552876Y-3713832D01*
X5265859Y3720079D02*
X5265859Y3944378D01*
D20*
%TO.N,ADC1_15_AVDD*%
X17224809Y-7774246D02*
X15594920Y-7774246D01*
X15594920Y-7774246D02*
X14479264Y-6658590D01*
%TO.N,ACC_5_VDDIO*%
X-6298133Y-6679133D02*
X-4656264Y-8321002D01*
X-4656264Y-8321002D02*
X-1249326Y-8321002D01*
X-1249326Y-8321002D02*
X-806128Y-8764200D01*
X2844046Y-10517304D02*
X747742Y-8421000D01*
X747742Y-8421000D02*
X-462928Y-8421000D01*
X-462928Y-8421000D02*
X-806128Y-8764200D01*
X7023056Y-5311845D02*
X7023056Y-7658850D01*
X7023056Y-7658850D02*
X4164602Y-10517304D01*
X4164602Y-10517304D02*
X2844046Y-10517304D01*
D21*
%TO.N,ADC1_14_REFIN*%
X-508000Y7519845D02*
X-587663Y7599508D01*
X-508000Y7307501D02*
X-508000Y7519845D01*
%TO.N,ADC1_08_AIN5P*%
X-10503300Y2653900D02*
X-10622859Y2653900D01*
X-8305800Y6528507D02*
X-8305800Y6350000D01*
X-9321800Y3835400D02*
X-10503300Y2653900D01*
X-5765800Y8382000D02*
X-6452307Y8382000D01*
X-4750500Y10739779D02*
X-4750500Y9397300D01*
X-4750500Y9397300D02*
X-5765800Y8382000D01*
X-8305800Y6350000D02*
X-9321800Y5334000D01*
X-6452307Y8382000D02*
X-8305800Y6528507D01*
X-9321800Y5334000D02*
X-9321800Y3835400D01*
X-3502112Y11988167D02*
X-4750500Y10739779D01*
%TO.N,ADC2_19_SCLK*%
X3535996Y1303556D02*
X3535996Y2127518D01*
X3535996Y2127518D02*
X3976864Y2568386D01*
X24571Y-2972145D02*
X24571Y-2207869D01*
X24571Y-2207869D02*
X3535996Y1303556D01*
%TO.N,ADC2_20_DOUT*%
X4671650Y2209920D02*
X4671650Y2363026D01*
X1103375Y-3119048D02*
X1103375Y-1764755D01*
X1103375Y-1764755D02*
X3985497Y1117367D01*
X3985497Y1523767D02*
X4671650Y2209920D01*
X285411Y-3937012D02*
X1103375Y-3119048D01*
X3985497Y1117367D02*
X3985497Y1523767D01*
X4895219Y2586595D02*
X4895219Y3013733D01*
X4671650Y2363026D02*
X4895219Y2586595D01*
%TO.N,MCU_5_PDO0_RCC_OSC_IN*%
X645000Y16515000D02*
X645000Y12683097D01*
X645000Y12683097D02*
X-1345449Y10692649D01*
%TO.N,MCU_18_PB0_ADC1_SYNC{slash}RESET*%
X-2241965Y-3414396D02*
X-2241965Y-2304769D01*
X-1012211Y-1075015D02*
X462898Y-1075015D01*
X890700Y2055700D02*
X50800Y2895600D01*
X462898Y-1075015D02*
X890700Y-647213D01*
X890700Y-647213D02*
X890700Y2055700D01*
X-1551278Y-4105083D02*
X-2241965Y-3414396D01*
X-1372544Y-4105083D02*
X-1551278Y-4105083D01*
X-2241965Y-2304769D02*
X-1012211Y-1075015D01*
%TD*%
M02*
