%TF.GenerationSoftware,KiCad,Pcbnew,7.0.0-da2b9df05c~163~ubuntu22.04.1*%
%TF.CreationDate,2023-02-18T04:30:46+03:00*%
%TF.ProjectId,freeeeg16-alpha,66726565-6565-4673-9136-2d616c706861,rev?*%
%TF.SameCoordinates,Original*%
%TF.FileFunction,Copper,L3,Inr*%
%TF.FilePolarity,Positive*%
%FSLAX46Y46*%
G04 Gerber Fmt 4.6, Leading zero omitted, Abs format (unit mm)*
G04 Created by KiCad (PCBNEW 7.0.0-da2b9df05c~163~ubuntu22.04.1) date 2023-02-18 04:30:46*
%MOMM*%
%LPD*%
G01*
G04 APERTURE LIST*
G04 Aperture macros list*
%AMHorizOval*
0 Thick line with rounded ends*
0 $1 width*
0 $2 $3 position (X,Y) of the first rounded end (center of the circle)*
0 $4 $5 position (X,Y) of the second rounded end (center of the circle)*
0 Add line between two ends*
20,1,$1,$2,$3,$4,$5,0*
0 Add two circle primitives to create the rounded ends*
1,1,$1,$2,$3*
1,1,$1,$4,$5*%
%AMRotRect*
0 Rectangle, with rotation*
0 The origin of the aperture is its center*
0 $1 length*
0 $2 width*
0 $3 Rotation angle, in degrees counterclockwise*
0 Add horizontal line*
21,1,$1,$2,0,0,$3*%
G04 Aperture macros list end*
%TA.AperFunction,ComponentPad*%
%ADD10R,1.000000X1.000000*%
%TD*%
%TA.AperFunction,ComponentPad*%
%ADD11O,1.000000X1.000000*%
%TD*%
%TA.AperFunction,ComponentPad*%
%ADD12RotRect,1.000000X1.000000X210.000000*%
%TD*%
%TA.AperFunction,ComponentPad*%
%ADD13HorizOval,1.000000X0.000000X0.000000X0.000000X0.000000X0*%
%TD*%
%TA.AperFunction,ComponentPad*%
%ADD14HorizOval,1.000000X0.000000X0.000000X0.000000X0.000000X0*%
%TD*%
%TA.AperFunction,ComponentPad*%
%ADD15RotRect,1.000000X1.000000X330.000000*%
%TD*%
%TA.AperFunction,ViaPad*%
%ADD16C,0.800000*%
%TD*%
G04 APERTURE END LIST*
D10*
%TO.N,ACC_5_VDDIO*%
%TO.C,J1*%
X-624999Y19054999D03*
D11*
%TO.N,CRYSTAL_4_Vin*%
X644999Y19054999D03*
%TO.N,MCU_18_PB0_ADC1_SYNC{slash}RESET*%
X-624999Y17784999D03*
%TO.N,ADC1_16_SYNC{slash}RESET*%
X644999Y17784999D03*
%TO.N,CRYSTAL_3_OUT*%
X-624999Y16514999D03*
%TO.N,MCU_5_PDO0_RCC_OSC_IN*%
X644999Y16514999D03*
%TD*%
D10*
%TO.N,ADC2_08_AIN5P*%
%TO.C,J29*%
X11167947Y-9026999D03*
D11*
X11167947Y-10296999D03*
%TO.N,ADC2_09_AIN6P*%
X9897947Y-9026999D03*
X9897947Y-10296999D03*
%TO.N,ADC2_12_AIN7P*%
X8627947Y-9026999D03*
X8627947Y-10296999D03*
%TD*%
D10*
%TO.N,ADC1_29_AIN0P*%
%TO.C,J28*%
X-8630999Y-9026999D03*
D11*
X-8630999Y-10296999D03*
%TO.N,ADC1_32_AIN1P*%
X-9900999Y-9026999D03*
X-9900999Y-10296999D03*
%TO.N,ADC1_01_AIN2P*%
X-11170999Y-9026999D03*
X-11170999Y-10296999D03*
%TD*%
D12*
%TO.N,ADC2_01_AIN2P*%
%TO.C,J31*%
X12133110Y-2961164D03*
D13*
X13232962Y-2326164D03*
%TO.N,ADC2_04_AIN3P*%
X12768110Y-4061016D03*
X13867962Y-3426016D03*
%TO.N,ADC2_05_AIN4P*%
X13403110Y-5160869D03*
X14502962Y-4525869D03*
%TD*%
D14*
%TO.N,3V3_2_GND*%
%TO.C,J32*%
X-3331963Y14822871D03*
X-2232111Y14187871D03*
%TO.N,ADC1_12_AIN7P*%
X-3966963Y13723018D03*
X-2867111Y13088018D03*
%TO.N,ADC1_09_AIN6P*%
X-4601963Y12623166D03*
D15*
X-3502111Y11988166D03*
%TD*%
D12*
%TO.N,ADC1_02_AIN2N*%
%TO.C,J33*%
X2233636Y14185226D03*
D13*
X3333488Y14820226D03*
%TO.N,ADC2_29_AIN0P*%
X2868636Y13085374D03*
X3968488Y13720374D03*
%TO.N,ADC2_32_AIN1P*%
X3503636Y11985521D03*
X4603488Y12620521D03*
%TD*%
D15*
%TO.N,ADC1_04_AIN3P*%
%TO.C,J30*%
X-13401585Y-5158224D03*
D14*
X-14501437Y-4523224D03*
%TO.N,ADC1_05_AIN4P*%
X-12766585Y-4058372D03*
X-13866437Y-3423372D03*
%TO.N,ADC1_08_AIN5P*%
X-12131585Y-2958519D03*
X-13231437Y-2323519D03*
%TD*%
D16*
%TO.N,ADC1_15_AVDD*%
X17224809Y-7774246D03*
%TO.N,MCU_38_PA15_SYS_JTDI*%
X3349611Y-6218133D03*
%TO.N,RADIO_8_GPIO9*%
X0Y-6221500D03*
X-8255000Y-5080000D03*
%TO.N,3V3_2_GND*%
X-140000Y650000D03*
%TO.N,3V3_5_OUT*%
X508000Y5334000D03*
%TO.N,3V3_2_GND*%
X-7918578Y-6174332D03*
X-11811000Y-1115000D03*
%TO.N,3V3_1_IN*%
X-3167720Y7207999D03*
X-13843000Y-10287000D03*
X14823166Y-5607300D03*
%TO.N,ADC1_15_AVDD*%
X7397001Y2361000D03*
X-291500Y9054851D03*
X14493630Y-6550916D03*
%TO.N,ADC1_26_DVDD*%
X-1931445Y2902448D03*
X-12368202Y-9654691D03*
X6962270Y4038067D03*
%TO.N,ADC1_14_REFIN*%
X-3844068Y6384068D03*
X6566000Y508000D03*
X10099502Y-4953000D03*
X-380655Y7605455D03*
%TO.N,ACC_5_VDDIO*%
X-736730Y-8674000D03*
X-1089502Y-127000D03*
X-7114593Y-6992383D03*
X7390800Y-5422552D03*
X-14872119Y-6454277D03*
X-10695286Y-5777693D03*
X2551948Y-10809404D03*
%TO.N,ADC2_17_CS*%
X3570269Y2424987D03*
X-865846Y-2460352D03*
%TO.N,ADC1_02_AIN2N*%
X10796725Y3303725D03*
X-10581021Y2633053D03*
%TO.N,ADC1_16_SYNC{slash}RESET*%
X2390436Y1628436D03*
X768088Y10681980D03*
X-7142067Y6581825D03*
%TO.N,ADC1_17_CS*%
X-3941885Y-5617067D03*
X-6473054Y1654946D03*
%TO.N,ADC1_18_DRDY*%
X-6001569Y3429000D03*
X-893925Y-4243637D03*
%TO.N,ADC1_19_SCLK*%
X-3212280Y-6300406D03*
X-5659543Y2290577D03*
%TO.N,ADC1_23_XTAL1{slash}CLKIN*%
X2297730Y-3948731D03*
X3649502Y6107631D03*
X-1778000Y4357250D03*
%TO.N,3V3_2_GND*%
X-4025500Y10414000D03*
X14351000Y-10795000D03*
X-16891000Y-7493000D03*
X254000Y-9271000D03*
X-15113000Y-11030000D03*
X12383734Y-6967042D03*
X-7454453Y3456498D03*
X2859120Y9327522D03*
X1778000Y5207000D03*
X6036799Y-5901201D03*
X-140000Y-450002D03*
X-6409554Y7425554D03*
X-12293353Y-7429147D03*
%TO.N,3V3_5_OUT*%
X-1842809Y11647129D03*
%TO.N,MCU_7_NRST*%
X-4088500Y-9475223D03*
%TO.N,MCU_34_PA13_SYS_JTMS-SWDIO*%
X1443397Y-6693910D03*
%TO.N,MCU_37_PA14_SYS_JTCK-SWCLK*%
X2451107Y-6693500D03*
%TO.N,ADC1_20_DOUT*%
X-4775698Y1725873D03*
X-2408975Y-5714718D03*
%TO.N,ADC1_21_DIN*%
X-4210543Y2550255D03*
X-2342925Y-4465864D03*
%TO.N,ADC2_19_SCLK*%
X221983Y-2636152D03*
X4568319Y2371116D03*
%TO.N,ADC2_20_DOUT*%
X5048999Y3247444D03*
X470700Y-3604214D03*
%TO.N,ADC2_21_DIN*%
X5498500Y4140314D03*
X1332531Y-4208340D03*
%TO.N,MCU_5_PDO0_RCC_OSC_IN*%
X-2803543Y-10720500D03*
X-2032000Y10643086D03*
%TO.N,MCU_12_PA2_USART2_TX*%
X-5988782Y-5369279D03*
%TO.N,MCU_13_PA3_USART2_RX*%
X-5987001Y-4318000D03*
%TO.N,MCU_18_PB0_ADC1_SYNC{slash}RESET*%
X0Y4394498D03*
X-2794000Y9398000D03*
X-1572062Y-5102135D03*
%TD*%
%TA.AperFunction,Conductor*%
%TO.N,3V3_2_GND*%
G36*
X63000Y22716118D02*
G01*
X109119Y22669999D01*
X1064475Y21015273D01*
X1064490Y21015247D01*
X4047027Y15846536D01*
X4063890Y15784363D01*
X4047819Y15721980D01*
X4003013Y15675694D01*
X3941185Y15657605D01*
X3878500Y15672439D01*
X3721293Y15756468D01*
X3531190Y15814135D01*
X3333489Y15833607D01*
X3327326Y15833000D01*
X3141950Y15814742D01*
X3141949Y15814741D01*
X3135788Y15814135D01*
X2945685Y15756468D01*
X2770485Y15662822D01*
X2616921Y15536795D01*
X2612998Y15532015D01*
X2525916Y15425905D01*
X2475514Y15388932D01*
X2422361Y15381898D01*
X2422384Y15380968D01*
X2413779Y15380763D01*
X2413546Y15380732D01*
X2404424Y15381823D01*
X2260226Y15357575D01*
X2204521Y15332933D01*
X1254253Y14784295D01*
X1205059Y14748374D01*
X1200042Y14742298D01*
X1200040Y14742296D01*
X1117700Y14642570D01*
X1111961Y14635619D01*
X1054401Y14501202D01*
X1053331Y14492260D01*
X1053331Y14492257D01*
X1038110Y14364960D01*
X1038110Y14364955D01*
X1037041Y14356014D01*
X1038534Y14347130D01*
X1038535Y14347126D01*
X1049255Y14283379D01*
X1061289Y14211816D01*
X1064473Y14204616D01*
X1064476Y14204609D01*
X1084563Y14159201D01*
X1084571Y14159184D01*
X1085931Y14156111D01*
X1087613Y14153197D01*
X1087620Y14153184D01*
X1632879Y13208769D01*
X1632884Y13208759D01*
X1634569Y13205843D01*
X1636555Y13203122D01*
X1636561Y13203114D01*
X1665841Y13163014D01*
X1665846Y13163007D01*
X1670490Y13156649D01*
X1676560Y13151636D01*
X1676567Y13151630D01*
X1776293Y13069290D01*
X1776297Y13069287D01*
X1783245Y13063551D01*
X1791529Y13060003D01*
X1791540Y13059997D01*
X1792192Y13059718D01*
X1792828Y13059211D01*
X1799225Y13055313D01*
X1798738Y13054514D01*
X1844234Y13018346D01*
X1867975Y12956247D01*
X1874729Y12887674D01*
X1876523Y12881757D01*
X1876525Y12881751D01*
X1926884Y12715741D01*
X1932396Y12697571D01*
X1935313Y12692113D01*
X1935315Y12692109D01*
X2023124Y12527829D01*
X2023127Y12527824D01*
X2026042Y12522371D01*
X2029963Y12517592D01*
X2029968Y12517586D01*
X2148146Y12373586D01*
X2148151Y12373580D01*
X2152069Y12368807D01*
X2156842Y12364889D01*
X2156848Y12364884D01*
X2300848Y12246706D01*
X2300854Y12246701D01*
X2305633Y12242780D01*
X2311091Y12239862D01*
X2311092Y12239862D01*
X2430844Y12175853D01*
X2468847Y12144665D01*
X2492022Y12101308D01*
X2496841Y12052383D01*
X2493523Y12018685D01*
X2490257Y11985522D01*
X2490864Y11979359D01*
X2509121Y11793983D01*
X2509123Y11793972D01*
X2509729Y11787821D01*
X2511523Y11781904D01*
X2511525Y11781898D01*
X2558815Y11626006D01*
X2567396Y11597718D01*
X2570313Y11592260D01*
X2570315Y11592256D01*
X2658124Y11427976D01*
X2658127Y11427971D01*
X2661042Y11422518D01*
X2664963Y11417739D01*
X2664968Y11417733D01*
X2783146Y11273733D01*
X2783151Y11273727D01*
X2787069Y11268954D01*
X2791842Y11265036D01*
X2791848Y11265031D01*
X2935848Y11146853D01*
X2935854Y11146848D01*
X2940633Y11142927D01*
X2946086Y11140012D01*
X2946091Y11140009D01*
X3110371Y11052200D01*
X3110375Y11052198D01*
X3115833Y11049281D01*
X3121753Y11047485D01*
X3121756Y11047484D01*
X3300013Y10993410D01*
X3300019Y10993408D01*
X3305936Y10991614D01*
X3312087Y10991008D01*
X3312098Y10991006D01*
X3497474Y10972749D01*
X3503637Y10972142D01*
X3509800Y10972749D01*
X3695175Y10991006D01*
X3695184Y10991007D01*
X3701338Y10991614D01*
X3707256Y10993409D01*
X3707260Y10993410D01*
X3885517Y11047484D01*
X3891441Y11049281D01*
X4066641Y11142927D01*
X4152275Y11213205D01*
X4215425Y11265031D01*
X4220205Y11268954D01*
X4346232Y11422518D01*
X4413159Y11547730D01*
X4444346Y11585732D01*
X4487703Y11608907D01*
X4536628Y11613726D01*
X4597323Y11607749D01*
X4597326Y11607749D01*
X4603489Y11607142D01*
X4609652Y11607749D01*
X4795027Y11626006D01*
X4795036Y11626007D01*
X4801190Y11626614D01*
X4807108Y11628409D01*
X4807112Y11628410D01*
X4985369Y11682484D01*
X4991293Y11684281D01*
X5166493Y11777927D01*
X5238543Y11837057D01*
X5315277Y11900031D01*
X5320057Y11903954D01*
X5446084Y12057518D01*
X5539730Y12232718D01*
X5597397Y12422821D01*
X5598265Y12431628D01*
X5616262Y12614359D01*
X5616869Y12620522D01*
X5614049Y12649144D01*
X5625717Y12715741D01*
X5670135Y12766720D01*
X5734511Y12787397D01*
X5800307Y12771818D01*
X5848576Y12724468D01*
X10667331Y4373610D01*
X10684025Y4317208D01*
X10673298Y4259374D01*
X10637486Y4212711D01*
X10584394Y4187389D01*
X10514437Y4172519D01*
X10339973Y4094843D01*
X10185472Y3982591D01*
X10057685Y3840669D01*
X9962198Y3675281D01*
X9960158Y3669003D01*
X9960155Y3668996D01*
X9905222Y3499930D01*
X9905220Y3499925D01*
X9903183Y3493653D01*
X9902493Y3487089D01*
X9900550Y3468606D01*
X9883221Y3303725D01*
X9883911Y3297160D01*
X9901525Y3129567D01*
X9903183Y3113797D01*
X9905220Y3107526D01*
X9905222Y3107519D01*
X9960155Y2938453D01*
X9960159Y2938443D01*
X9962198Y2932169D01*
X9965501Y2926447D01*
X9965502Y2926446D01*
X10054383Y2772499D01*
X10054386Y2772494D01*
X10057685Y2766781D01*
X10062103Y2761874D01*
X10062104Y2761873D01*
X10181050Y2629769D01*
X10181055Y2629764D01*
X10185472Y2624859D01*
X10190808Y2620981D01*
X10190816Y2620975D01*
X10334631Y2516488D01*
X10339973Y2512607D01*
X10346000Y2509923D01*
X10346003Y2509922D01*
X10496033Y2443125D01*
X10514437Y2434931D01*
X10520886Y2433560D01*
X10520893Y2433558D01*
X10694781Y2396597D01*
X10694785Y2396596D01*
X10701238Y2395225D01*
X10885609Y2395225D01*
X10892212Y2395225D01*
X10898665Y2396596D01*
X10898668Y2396597D01*
X11072556Y2433558D01*
X11072560Y2433559D01*
X11079013Y2434931D01*
X11253477Y2512607D01*
X11382927Y2606658D01*
X11402633Y2620975D01*
X11402636Y2620978D01*
X11407978Y2624859D01*
X11455508Y2677647D01*
X11503996Y2710969D01*
X11562328Y2718643D01*
X11617786Y2698995D01*
X11658277Y2656309D01*
X13938735Y-1295704D01*
X13955598Y-1357877D01*
X13939527Y-1420260D01*
X13894721Y-1466545D01*
X13832894Y-1484635D01*
X13770205Y-1469800D01*
X13677522Y-1420260D01*
X13620767Y-1389924D01*
X13605808Y-1385386D01*
X13436586Y-1334053D01*
X13436582Y-1334052D01*
X13430664Y-1332257D01*
X13424510Y-1331650D01*
X13424501Y-1331649D01*
X13239126Y-1313392D01*
X13232963Y-1312785D01*
X13226800Y-1313392D01*
X13041424Y-1331649D01*
X13041413Y-1331651D01*
X13035262Y-1332257D01*
X13029345Y-1334051D01*
X13029339Y-1334053D01*
X12851082Y-1388127D01*
X12851079Y-1388128D01*
X12845159Y-1389924D01*
X12839701Y-1392841D01*
X12839697Y-1392843D01*
X12675417Y-1480652D01*
X12675412Y-1480655D01*
X12669959Y-1483570D01*
X12665180Y-1487491D01*
X12665174Y-1487496D01*
X12521174Y-1605674D01*
X12521168Y-1605679D01*
X12516395Y-1609597D01*
X12512477Y-1614370D01*
X12512472Y-1614376D01*
X12425390Y-1720486D01*
X12374996Y-1757456D01*
X12321833Y-1764495D01*
X12321856Y-1765424D01*
X12313282Y-1765628D01*
X12313035Y-1765661D01*
X12312847Y-1765638D01*
X12312840Y-1765638D01*
X12303898Y-1764569D01*
X12295014Y-1766062D01*
X12295010Y-1766063D01*
X12167471Y-1787510D01*
X12167469Y-1787510D01*
X12159700Y-1788817D01*
X12152500Y-1792001D01*
X12152493Y-1792004D01*
X12107085Y-1812091D01*
X12107068Y-1812099D01*
X12103995Y-1813459D01*
X12101081Y-1815141D01*
X12101068Y-1815148D01*
X11156653Y-2360407D01*
X11156643Y-2360412D01*
X11153727Y-2362097D01*
X11151006Y-2364083D01*
X11150998Y-2364089D01*
X11110898Y-2393369D01*
X11110891Y-2393374D01*
X11104533Y-2398018D01*
X11099520Y-2404088D01*
X11099514Y-2404095D01*
X11017174Y-2503821D01*
X11017171Y-2503825D01*
X11011435Y-2510773D01*
X11007887Y-2519058D01*
X11007886Y-2519060D01*
X10957421Y-2636908D01*
X10957420Y-2636911D01*
X10953875Y-2645190D01*
X10952806Y-2654130D01*
X10952805Y-2654134D01*
X10937584Y-2781431D01*
X10937584Y-2781436D01*
X10936515Y-2790378D01*
X10938008Y-2799262D01*
X10938009Y-2799265D01*
X10948729Y-2863013D01*
X10960763Y-2934576D01*
X10963948Y-2941777D01*
X10963950Y-2941782D01*
X10984037Y-2987190D01*
X10984042Y-2987199D01*
X10985405Y-2990281D01*
X10987091Y-2993202D01*
X10987094Y-2993207D01*
X11443148Y-3783114D01*
X11534043Y-3940549D01*
X11536035Y-3943277D01*
X11565315Y-3983377D01*
X11565317Y-3983379D01*
X11569964Y-3989743D01*
X11576039Y-3994759D01*
X11576041Y-3994761D01*
X11660549Y-4064536D01*
X11682719Y-4082841D01*
X11691656Y-4086668D01*
X11692294Y-4087174D01*
X11698698Y-4091078D01*
X11698210Y-4091877D01*
X11743704Y-4128038D01*
X11767449Y-4190144D01*
X11773595Y-4252555D01*
X11773596Y-4252564D01*
X11774203Y-4258718D01*
X11775998Y-4264636D01*
X11775999Y-4264640D01*
X11807224Y-4367575D01*
X11831870Y-4448821D01*
X11834789Y-4454282D01*
X11870925Y-4521889D01*
X11925516Y-4624021D01*
X11929441Y-4628804D01*
X11929442Y-4628805D01*
X12045018Y-4769635D01*
X12051543Y-4777585D01*
X12205107Y-4903612D01*
X12330319Y-4970539D01*
X12368321Y-5001726D01*
X12391496Y-5045083D01*
X12396315Y-5094008D01*
X12391900Y-5138842D01*
X12389731Y-5160870D01*
X12390338Y-5167033D01*
X12408595Y-5352408D01*
X12408596Y-5352417D01*
X12409203Y-5358571D01*
X12410998Y-5364489D01*
X12410999Y-5364493D01*
X12443405Y-5471320D01*
X12466870Y-5548674D01*
X12487980Y-5588168D01*
X12504407Y-5618902D01*
X12560516Y-5723874D01*
X12564441Y-5728657D01*
X12564442Y-5728658D01*
X12662064Y-5847611D01*
X12686543Y-5877438D01*
X12840107Y-6003465D01*
X13015307Y-6097111D01*
X13205410Y-6154778D01*
X13211571Y-6155384D01*
X13211572Y-6155385D01*
X13396948Y-6173643D01*
X13403111Y-6174250D01*
X13477570Y-6166916D01*
X13538707Y-6176138D01*
X13588098Y-6213335D01*
X13613846Y-6269550D01*
X13609752Y-6331245D01*
X13602127Y-6354710D01*
X13602125Y-6354717D01*
X13600088Y-6360988D01*
X13599398Y-6367549D01*
X13599398Y-6367551D01*
X13586963Y-6485861D01*
X13580126Y-6550916D01*
X13580816Y-6557481D01*
X13592187Y-6665675D01*
X13600088Y-6740844D01*
X13602125Y-6747116D01*
X13602127Y-6747121D01*
X13657060Y-6916187D01*
X13657063Y-6916194D01*
X13659103Y-6922472D01*
X13754590Y-7087860D01*
X13827829Y-7169200D01*
X13877824Y-7224726D01*
X13882377Y-7229782D01*
X13887719Y-7233663D01*
X13887721Y-7233665D01*
X13930928Y-7265057D01*
X14036878Y-7342034D01*
X14211342Y-7419710D01*
X14398143Y-7459416D01*
X14582514Y-7459416D01*
X14589117Y-7459416D01*
X14775918Y-7419710D01*
X14950382Y-7342034D01*
X15104883Y-7229782D01*
X15232670Y-7087860D01*
X15328157Y-6922472D01*
X15387172Y-6740844D01*
X15407134Y-6550916D01*
X15390693Y-6394493D01*
X15398372Y-6336171D01*
X15431067Y-6288601D01*
X15434419Y-6286166D01*
X15562206Y-6144244D01*
X15657693Y-5978856D01*
X15716708Y-5797228D01*
X15736670Y-5607300D01*
X15716708Y-5417372D01*
X15681701Y-5309633D01*
X15659735Y-5242028D01*
X15659734Y-5242026D01*
X15657693Y-5235744D01*
X15562206Y-5070356D01*
X15482225Y-4981529D01*
X15452880Y-4924627D01*
X15455290Y-4860646D01*
X15495072Y-4729502D01*
X15495072Y-4729500D01*
X15496871Y-4723571D01*
X15516343Y-4525870D01*
X15514629Y-4508471D01*
X15526298Y-4441873D01*
X15570716Y-4390894D01*
X15635092Y-4370217D01*
X15700888Y-4385797D01*
X15749156Y-4433147D01*
X17063629Y-6711117D01*
X17080323Y-6767518D01*
X17069596Y-6825353D01*
X17033785Y-6872015D01*
X16980693Y-6897337D01*
X16948985Y-6904077D01*
X16948975Y-6904079D01*
X16942521Y-6905452D01*
X16936491Y-6908136D01*
X16936490Y-6908137D01*
X16774087Y-6980443D01*
X16774084Y-6980444D01*
X16768057Y-6983128D01*
X16762716Y-6987008D01*
X16762715Y-6987009D01*
X16618900Y-7091496D01*
X16618892Y-7091502D01*
X16613556Y-7095380D01*
X16609139Y-7100285D01*
X16609134Y-7100290D01*
X16541193Y-7175747D01*
X16485769Y-7237302D01*
X16482470Y-7243015D01*
X16482467Y-7243020D01*
X16405311Y-7376659D01*
X16390282Y-7402690D01*
X16388243Y-7408964D01*
X16388239Y-7408974D01*
X16333306Y-7578040D01*
X16333304Y-7578047D01*
X16331267Y-7584318D01*
X16330577Y-7590879D01*
X16330577Y-7590881D01*
X16329365Y-7602410D01*
X16311305Y-7774246D01*
X16331267Y-7964174D01*
X16333304Y-7970446D01*
X16333306Y-7970451D01*
X16388239Y-8139517D01*
X16388242Y-8139524D01*
X16390282Y-8145802D01*
X16485769Y-8311190D01*
X16613556Y-8453112D01*
X16618898Y-8456993D01*
X16618900Y-8456995D01*
X16656169Y-8484072D01*
X16768057Y-8565364D01*
X16942521Y-8643040D01*
X17129322Y-8682746D01*
X17313693Y-8682746D01*
X17320296Y-8682746D01*
X17507097Y-8643040D01*
X17681561Y-8565364D01*
X17836062Y-8453112D01*
X17861844Y-8424477D01*
X17910330Y-8391155D01*
X17968663Y-8383480D01*
X18024122Y-8403127D01*
X18064613Y-8445814D01*
X19677266Y-11240526D01*
X19694132Y-11303522D01*
X19677244Y-11366513D01*
X19631126Y-11412623D01*
X19568132Y-11429500D01*
X11691598Y-11429500D01*
X11627885Y-11412205D01*
X11581664Y-11365066D01*
X11565622Y-11301026D01*
X11584165Y-11237665D01*
X11632202Y-11192378D01*
X11654886Y-11180253D01*
X11730952Y-11139595D01*
X11884516Y-11013568D01*
X12010543Y-10860004D01*
X12104189Y-10684804D01*
X12161856Y-10494701D01*
X12181328Y-10297000D01*
X12161856Y-10099299D01*
X12104189Y-9909196D01*
X12101268Y-9903732D01*
X12100179Y-9901102D01*
X12091569Y-9837168D01*
X12110903Y-9789303D01*
X12109118Y-9788328D01*
X12113437Y-9780416D01*
X12118837Y-9773204D01*
X12169937Y-9636201D01*
X12176448Y-9575638D01*
X12176448Y-8478362D01*
X12169937Y-8417799D01*
X12118837Y-8280796D01*
X12031209Y-8163739D01*
X12003203Y-8142774D01*
X11921365Y-8081510D01*
X11921362Y-8081508D01*
X11914152Y-8076111D01*
X11905714Y-8072964D01*
X11905711Y-8072962D01*
X11784528Y-8027763D01*
X11784526Y-8027762D01*
X11777149Y-8025011D01*
X11769321Y-8024169D01*
X11769315Y-8024168D01*
X11719936Y-8018860D01*
X11719933Y-8018859D01*
X11716586Y-8018500D01*
X10619310Y-8018500D01*
X10615963Y-8018859D01*
X10615959Y-8018860D01*
X10566580Y-8024168D01*
X10566573Y-8024169D01*
X10558747Y-8025011D01*
X10551371Y-8027761D01*
X10551367Y-8027763D01*
X10430183Y-8072963D01*
X10430180Y-8072964D01*
X10421744Y-8076111D01*
X10414532Y-8081509D01*
X10406622Y-8085829D01*
X10405650Y-8084049D01*
X10357759Y-8103380D01*
X10293848Y-8094769D01*
X10291209Y-8093675D01*
X10285752Y-8090759D01*
X10279833Y-8088963D01*
X10279832Y-8088963D01*
X10101571Y-8034888D01*
X10101567Y-8034887D01*
X10095649Y-8033092D01*
X10089495Y-8032485D01*
X10089486Y-8032484D01*
X9904111Y-8014227D01*
X9897948Y-8013620D01*
X9891785Y-8014227D01*
X9706409Y-8032484D01*
X9706398Y-8032486D01*
X9700247Y-8033092D01*
X9694330Y-8034886D01*
X9694324Y-8034888D01*
X9516067Y-8088962D01*
X9516064Y-8088963D01*
X9510144Y-8090759D01*
X9504686Y-8093676D01*
X9504682Y-8093678D01*
X9340402Y-8181487D01*
X9340401Y-8181488D01*
X9334944Y-8184405D01*
X9331902Y-8186900D01*
X9287529Y-8205281D01*
X9238367Y-8205281D01*
X9193992Y-8186900D01*
X9190952Y-8184405D01*
X9165779Y-8170950D01*
X9021213Y-8093678D01*
X9015752Y-8090759D01*
X8967464Y-8076111D01*
X8831571Y-8034888D01*
X8831567Y-8034887D01*
X8825649Y-8033092D01*
X8819495Y-8032485D01*
X8819486Y-8032484D01*
X8634111Y-8014227D01*
X8627948Y-8013620D01*
X8621785Y-8014227D01*
X8436409Y-8032484D01*
X8436398Y-8032486D01*
X8430247Y-8033092D01*
X8424330Y-8034886D01*
X8424324Y-8034888D01*
X8246067Y-8088962D01*
X8246064Y-8088963D01*
X8240144Y-8090759D01*
X8234686Y-8093676D01*
X8234682Y-8093678D01*
X8070402Y-8181487D01*
X8070401Y-8181488D01*
X8064944Y-8184405D01*
X8060165Y-8188326D01*
X8060159Y-8188331D01*
X7916159Y-8306509D01*
X7916153Y-8306514D01*
X7911380Y-8310432D01*
X7907462Y-8315205D01*
X7907457Y-8315211D01*
X7789279Y-8459211D01*
X7789274Y-8459217D01*
X7785353Y-8463996D01*
X7782438Y-8469449D01*
X7782435Y-8469454D01*
X7730444Y-8566723D01*
X7691707Y-8639196D01*
X7689912Y-8645114D01*
X7689910Y-8645119D01*
X7635836Y-8823376D01*
X7635834Y-8823382D01*
X7634040Y-8829299D01*
X7633434Y-8835450D01*
X7633432Y-8835461D01*
X7618532Y-8986753D01*
X7614568Y-9027000D01*
X7615175Y-9033163D01*
X7633432Y-9218538D01*
X7633433Y-9218547D01*
X7634040Y-9224701D01*
X7635835Y-9230619D01*
X7635836Y-9230623D01*
X7687169Y-9399845D01*
X7691707Y-9414804D01*
X7694626Y-9420265D01*
X7782436Y-9584548D01*
X7782439Y-9584553D01*
X7785353Y-9590004D01*
X7787849Y-9593046D01*
X7806228Y-9637421D01*
X7806228Y-9686579D01*
X7787849Y-9730953D01*
X7785353Y-9733996D01*
X7782442Y-9739441D01*
X7782436Y-9739451D01*
X7694626Y-9903734D01*
X7691707Y-9909196D01*
X7689911Y-9915116D01*
X7689910Y-9915119D01*
X7635836Y-10093376D01*
X7635834Y-10093382D01*
X7634040Y-10099299D01*
X7633434Y-10105450D01*
X7633432Y-10105461D01*
X7615553Y-10287000D01*
X7614568Y-10297000D01*
X7615175Y-10303163D01*
X7633432Y-10488538D01*
X7633433Y-10488547D01*
X7634040Y-10494701D01*
X7635835Y-10500619D01*
X7635836Y-10500623D01*
X7671890Y-10619476D01*
X7691707Y-10684804D01*
X7785353Y-10860004D01*
X7789278Y-10864787D01*
X7789279Y-10864788D01*
X7875418Y-10969749D01*
X7911380Y-11013568D01*
X8064944Y-11139595D01*
X8097817Y-11157166D01*
X8163694Y-11192378D01*
X8211731Y-11237665D01*
X8230274Y-11301026D01*
X8214232Y-11365066D01*
X8168011Y-11412205D01*
X8104298Y-11429500D01*
X3461218Y-11429500D01*
X3398218Y-11412619D01*
X3352099Y-11366500D01*
X3335218Y-11303499D01*
X3352099Y-11240500D01*
X3386475Y-11180960D01*
X3445490Y-10999332D01*
X3465452Y-10809404D01*
X3445490Y-10619476D01*
X3386475Y-10437848D01*
X3290988Y-10272460D01*
X3163201Y-10130538D01*
X3157859Y-10126657D01*
X3157856Y-10126654D01*
X3050286Y-10048500D01*
X3008700Y-10018286D01*
X2834236Y-9940610D01*
X2827783Y-9939238D01*
X2827779Y-9939237D01*
X2653891Y-9902276D01*
X2653888Y-9902275D01*
X2647435Y-9900904D01*
X2456461Y-9900904D01*
X2450008Y-9902275D01*
X2450004Y-9902276D01*
X2276116Y-9939237D01*
X2276109Y-9939239D01*
X2269660Y-9940610D01*
X2263630Y-9943294D01*
X2263629Y-9943295D01*
X2101226Y-10015601D01*
X2101223Y-10015602D01*
X2095196Y-10018286D01*
X2089855Y-10022166D01*
X2089854Y-10022167D01*
X1946039Y-10126654D01*
X1946031Y-10126660D01*
X1940695Y-10130538D01*
X1936278Y-10135443D01*
X1936273Y-10135448D01*
X1817327Y-10267552D01*
X1812908Y-10272460D01*
X1809609Y-10278173D01*
X1809606Y-10278178D01*
X1748670Y-10383723D01*
X1717421Y-10437848D01*
X1715382Y-10444122D01*
X1715378Y-10444132D01*
X1660445Y-10613198D01*
X1660443Y-10613205D01*
X1658406Y-10619476D01*
X1657716Y-10626037D01*
X1657716Y-10626039D01*
X1651540Y-10684804D01*
X1638444Y-10809404D01*
X1658406Y-10999332D01*
X1660443Y-11005604D01*
X1660445Y-11005609D01*
X1715378Y-11174675D01*
X1715381Y-11174682D01*
X1717421Y-11180960D01*
X1751797Y-11240500D01*
X1768678Y-11303499D01*
X1751797Y-11366500D01*
X1705678Y-11412619D01*
X1642678Y-11429500D01*
X-1945601Y-11429500D01*
X-2008601Y-11412619D01*
X-2054720Y-11366500D01*
X-2071601Y-11303500D01*
X-2054720Y-11240500D01*
X-2005815Y-11155794D01*
X-1969016Y-11092056D01*
X-1966976Y-11085778D01*
X-1966973Y-11085771D01*
X-1912040Y-10916705D01*
X-1912038Y-10916700D01*
X-1910001Y-10910428D01*
X-1904127Y-10854545D01*
X-1890729Y-10727065D01*
X-1890039Y-10720500D01*
X-1906495Y-10563928D01*
X-1909311Y-10537135D01*
X-1909311Y-10537133D01*
X-1910001Y-10530572D01*
X-1912038Y-10524301D01*
X-1912040Y-10524294D01*
X-1966973Y-10355228D01*
X-1966977Y-10355218D01*
X-1969016Y-10348944D01*
X-1973411Y-10341331D01*
X-2061201Y-10189274D01*
X-2061204Y-10189269D01*
X-2064503Y-10183556D01*
X-2095457Y-10149178D01*
X-2187868Y-10046544D01*
X-2187873Y-10046539D01*
X-2192290Y-10041634D01*
X-2197626Y-10037756D01*
X-2197634Y-10037750D01*
X-2341449Y-9933263D01*
X-2341450Y-9933262D01*
X-2346791Y-9929382D01*
X-2352818Y-9926698D01*
X-2352821Y-9926697D01*
X-2515224Y-9854391D01*
X-2515225Y-9854390D01*
X-2521255Y-9851706D01*
X-2527704Y-9850335D01*
X-2527711Y-9850333D01*
X-2701599Y-9813372D01*
X-2701603Y-9813371D01*
X-2708056Y-9812000D01*
X-2899030Y-9812000D01*
X-2905483Y-9813371D01*
X-2905486Y-9813372D01*
X-3054696Y-9845088D01*
X-3119828Y-9841674D01*
X-3174528Y-9806153D01*
X-3204139Y-9748041D01*
X-3200727Y-9682909D01*
X-3196998Y-9671433D01*
X-3196995Y-9671422D01*
X-3194958Y-9665151D01*
X-3174996Y-9475223D01*
X-3194958Y-9285295D01*
X-3196995Y-9279024D01*
X-3196997Y-9279017D01*
X-3251930Y-9109951D01*
X-3251934Y-9109941D01*
X-3253973Y-9103667D01*
X-3257277Y-9097944D01*
X-3346158Y-8943997D01*
X-3346161Y-8943992D01*
X-3349460Y-8938279D01*
X-3370081Y-8915377D01*
X-3472825Y-8801267D01*
X-3472830Y-8801262D01*
X-3477247Y-8796357D01*
X-3482583Y-8792479D01*
X-3482591Y-8792473D01*
X-3626406Y-8687986D01*
X-3626407Y-8687985D01*
X-3631748Y-8684105D01*
X-3637775Y-8681421D01*
X-3637778Y-8681420D01*
X-3654444Y-8674000D01*
X-1650234Y-8674000D01*
X-1630272Y-8863928D01*
X-1571257Y-9045556D01*
X-1475770Y-9210944D01*
X-1347983Y-9352866D01*
X-1193482Y-9465118D01*
X-1019018Y-9542794D01*
X-832217Y-9582500D01*
X-647846Y-9582500D01*
X-641243Y-9582500D01*
X-454442Y-9542794D01*
X-279978Y-9465118D01*
X-141821Y-9364741D01*
X-130932Y-9356830D01*
X4933624Y-9356830D01*
X4934121Y-9364735D01*
X4934121Y-9364741D01*
X4943446Y-9512949D01*
X4943944Y-9520860D01*
X4946393Y-9528397D01*
X4990826Y-9665151D01*
X4994732Y-9677171D01*
X4998979Y-9683864D01*
X4998981Y-9683867D01*
X5078548Y-9809244D01*
X5078550Y-9809246D01*
X5082798Y-9815940D01*
X5088576Y-9821366D01*
X5088577Y-9821367D01*
X5140211Y-9869854D01*
X5202607Y-9928448D01*
X5346632Y-10007627D01*
X5505823Y-10048500D01*
X5624966Y-10048500D01*
X5628925Y-10048500D01*
X5751058Y-10033071D01*
X5903871Y-9972568D01*
X6036837Y-9875963D01*
X6141600Y-9749326D01*
X6211579Y-9600613D01*
X6242376Y-9439170D01*
X6232056Y-9275140D01*
X6181268Y-9118829D01*
X6134767Y-9045556D01*
X6097451Y-8986755D01*
X6097450Y-8986753D01*
X6093202Y-8980060D01*
X5973393Y-8867552D01*
X5829368Y-8788373D01*
X5821693Y-8786402D01*
X5821692Y-8786402D01*
X5677854Y-8749471D01*
X5677853Y-8749470D01*
X5670177Y-8747500D01*
X5547075Y-8747500D01*
X5543154Y-8747995D01*
X5543143Y-8747996D01*
X5432807Y-8761935D01*
X5432803Y-8761935D01*
X5424942Y-8762929D01*
X5417577Y-8765844D01*
X5417573Y-8765846D01*
X5279497Y-8820514D01*
X5279491Y-8820516D01*
X5272129Y-8823432D01*
X5265717Y-8828090D01*
X5265716Y-8828091D01*
X5145576Y-8915377D01*
X5145572Y-8915380D01*
X5139163Y-8920037D01*
X5134113Y-8926140D01*
X5134109Y-8926145D01*
X5039452Y-9040566D01*
X5039448Y-9040571D01*
X5034400Y-9046674D01*
X5031026Y-9053843D01*
X5031024Y-9053847D01*
X4967796Y-9188213D01*
X4967794Y-9188218D01*
X4964421Y-9195387D01*
X4962936Y-9203169D01*
X4962935Y-9203174D01*
X4946018Y-9291858D01*
X4933624Y-9356830D01*
X-130932Y-9356830D01*
X-130821Y-9356749D01*
X-130819Y-9356747D01*
X-125477Y-9352866D01*
X2310Y-9210944D01*
X97797Y-9045556D01*
X156812Y-8863928D01*
X176774Y-8674000D01*
X156812Y-8484072D01*
X100639Y-8311190D01*
X99839Y-8308728D01*
X99838Y-8308726D01*
X97797Y-8302444D01*
X2310Y-8137056D01*
X-28012Y-8103380D01*
X-121055Y-8000044D01*
X-121060Y-8000039D01*
X-125477Y-7995134D01*
X-130813Y-7991256D01*
X-130821Y-7991250D01*
X-274636Y-7886763D01*
X-274637Y-7886762D01*
X-279978Y-7882882D01*
X-286005Y-7880198D01*
X-286008Y-7880197D01*
X-448411Y-7807891D01*
X-448412Y-7807890D01*
X-454442Y-7805206D01*
X-460891Y-7803835D01*
X-460898Y-7803833D01*
X-634786Y-7766872D01*
X-634790Y-7766871D01*
X-641243Y-7765500D01*
X-832217Y-7765500D01*
X-838670Y-7766871D01*
X-838673Y-7766872D01*
X-1012561Y-7803833D01*
X-1012565Y-7803834D01*
X-1019018Y-7805206D01*
X-1193482Y-7882882D01*
X-1216368Y-7899510D01*
X-1342638Y-7991250D01*
X-1342641Y-7991253D01*
X-1347983Y-7995134D01*
X-1475770Y-8137056D01*
X-1571257Y-8302444D01*
X-1573298Y-8308726D01*
X-1573299Y-8308728D01*
X-1574099Y-8311190D01*
X-1630272Y-8484072D01*
X-1650234Y-8674000D01*
X-3654444Y-8674000D01*
X-3800181Y-8609114D01*
X-3800182Y-8609113D01*
X-3806212Y-8606429D01*
X-3812661Y-8605058D01*
X-3812668Y-8605056D01*
X-3986556Y-8568095D01*
X-3986560Y-8568094D01*
X-3993013Y-8566723D01*
X-4183987Y-8566723D01*
X-4190440Y-8568094D01*
X-4190443Y-8568095D01*
X-4364331Y-8605056D01*
X-4364335Y-8605057D01*
X-4370788Y-8606429D01*
X-4545252Y-8684105D01*
X-4587677Y-8714929D01*
X-4694408Y-8792473D01*
X-4694411Y-8792476D01*
X-4699753Y-8796357D01*
X-4827540Y-8938279D01*
X-4855528Y-8986755D01*
X-4857744Y-8990594D01*
X-4902723Y-9036047D01*
X-4964223Y-9053566D01*
X-5026403Y-9038639D01*
X-5073248Y-8995109D01*
X-5078550Y-8986753D01*
X-5078552Y-8986750D01*
X-5082798Y-8980060D01*
X-5088572Y-8974637D01*
X-5088577Y-8974632D01*
X-5196830Y-8872976D01*
X-5196834Y-8872972D01*
X-5202607Y-8867552D01*
X-5209550Y-8863734D01*
X-5209553Y-8863733D01*
X-5339684Y-8792192D01*
X-5339688Y-8792190D01*
X-5346632Y-8788373D01*
X-5354304Y-8786403D01*
X-5354307Y-8786402D01*
X-5498145Y-8749471D01*
X-5498147Y-8749470D01*
X-5505823Y-8747500D01*
X-5628925Y-8747500D01*
X-5632846Y-8747995D01*
X-5632856Y-8747996D01*
X-5743192Y-8761935D01*
X-5743194Y-8761935D01*
X-5751058Y-8762929D01*
X-5758424Y-8765845D01*
X-5758426Y-8765846D01*
X-5896502Y-8820514D01*
X-5896504Y-8820515D01*
X-5903871Y-8823432D01*
X-6036837Y-8920037D01*
X-6141600Y-9046674D01*
X-6211579Y-9195387D01*
X-6242376Y-9356830D01*
X-6232056Y-9520860D01*
X-6181268Y-9677171D01*
X-6093202Y-9815940D01*
X-5973393Y-9928448D01*
X-5829368Y-10007627D01*
X-5670177Y-10048500D01*
X-5551034Y-10048500D01*
X-5547075Y-10048500D01*
X-5424942Y-10033071D01*
X-5272129Y-9972568D01*
X-5139163Y-9875963D01*
X-5134109Y-9869854D01*
X-5134107Y-9869852D01*
X-5117499Y-9849777D01*
X-5069241Y-9813939D01*
X-5009871Y-9804536D01*
X-4952901Y-9823709D01*
X-4911299Y-9867090D01*
X-4827540Y-10012167D01*
X-4699753Y-10154089D01*
X-4545252Y-10266341D01*
X-4370788Y-10344017D01*
X-4183987Y-10383723D01*
X-3999616Y-10383723D01*
X-3993013Y-10383723D01*
X-3837347Y-10350635D01*
X-3772213Y-10354048D01*
X-3717513Y-10389570D01*
X-3687902Y-10447684D01*
X-3691315Y-10512816D01*
X-3697085Y-10530572D01*
X-3717047Y-10720500D01*
X-3697085Y-10910428D01*
X-3638070Y-11092056D01*
X-3587149Y-11180253D01*
X-3552366Y-11240500D01*
X-3535485Y-11303500D01*
X-3552366Y-11366500D01*
X-3598485Y-11412619D01*
X-3661485Y-11429500D01*
X-8107350Y-11429500D01*
X-8171063Y-11412205D01*
X-8217284Y-11365066D01*
X-8233326Y-11301026D01*
X-8214783Y-11237665D01*
X-8166746Y-11192378D01*
X-8100869Y-11157166D01*
X-8067996Y-11139595D01*
X-7914432Y-11013568D01*
X-7878470Y-10969749D01*
X-7792331Y-10864788D01*
X-7792330Y-10864787D01*
X-7788405Y-10860004D01*
X-7694759Y-10684804D01*
X-7674942Y-10619476D01*
X-7638888Y-10500623D01*
X-7638887Y-10500619D01*
X-7637092Y-10494701D01*
X-7636485Y-10488547D01*
X-7636484Y-10488538D01*
X-7618227Y-10303163D01*
X-7617620Y-10297000D01*
X-7618605Y-10287000D01*
X-7636484Y-10105461D01*
X-7636486Y-10105450D01*
X-7637092Y-10099299D01*
X-7638886Y-10093382D01*
X-7638888Y-10093376D01*
X-7692963Y-9915115D01*
X-7692964Y-9915110D01*
X-7694759Y-9909196D01*
X-7697673Y-9903742D01*
X-7698771Y-9901094D01*
X-7707378Y-9837173D01*
X-7688046Y-9789298D01*
X-7689829Y-9788325D01*
X-7685510Y-9780416D01*
X-7680111Y-9773204D01*
X-7676963Y-9764764D01*
X-7676962Y-9764763D01*
X-7631763Y-9643580D01*
X-7631762Y-9643578D01*
X-7629011Y-9636201D01*
X-7628169Y-9628373D01*
X-7628168Y-9628367D01*
X-7622860Y-9578988D01*
X-7622859Y-9578985D01*
X-7622500Y-9575638D01*
X-7622500Y-8478362D01*
X-7622860Y-8475011D01*
X-7628168Y-8425632D01*
X-7628169Y-8425625D01*
X-7629011Y-8417799D01*
X-7631761Y-8410423D01*
X-7631763Y-8410419D01*
X-7676962Y-8289236D01*
X-7676965Y-8289230D01*
X-7680111Y-8280796D01*
X-7685506Y-8273588D01*
X-7685510Y-8273582D01*
X-7762340Y-8170950D01*
X-7762343Y-8170946D01*
X-7767739Y-8163739D01*
X-7774946Y-8158343D01*
X-7774950Y-8158340D01*
X-7877582Y-8081510D01*
X-7877588Y-8081506D01*
X-7884796Y-8076111D01*
X-7893230Y-8072965D01*
X-7893236Y-8072962D01*
X-8014419Y-8027763D01*
X-8014423Y-8027761D01*
X-8021799Y-8025011D01*
X-8029625Y-8024169D01*
X-8029632Y-8024168D01*
X-8079011Y-8018860D01*
X-8079015Y-8018859D01*
X-8082362Y-8018500D01*
X-9179638Y-8018500D01*
X-9182985Y-8018859D01*
X-9182988Y-8018860D01*
X-9232367Y-8024168D01*
X-9232373Y-8024169D01*
X-9240201Y-8025011D01*
X-9247578Y-8027762D01*
X-9247580Y-8027763D01*
X-9368763Y-8072962D01*
X-9368766Y-8072964D01*
X-9377204Y-8076111D01*
X-9384416Y-8081510D01*
X-9392325Y-8085829D01*
X-9393298Y-8084046D01*
X-9441173Y-8103378D01*
X-9505094Y-8094771D01*
X-9507742Y-8093673D01*
X-9513196Y-8090759D01*
X-9519110Y-8088964D01*
X-9519115Y-8088963D01*
X-9697376Y-8034888D01*
X-9697382Y-8034886D01*
X-9703299Y-8033092D01*
X-9709450Y-8032486D01*
X-9709461Y-8032484D01*
X-9894837Y-8014227D01*
X-9901000Y-8013620D01*
X-9907163Y-8014227D01*
X-10092538Y-8032484D01*
X-10092547Y-8032485D01*
X-10098701Y-8033092D01*
X-10104619Y-8034887D01*
X-10104623Y-8034888D01*
X-10240516Y-8076111D01*
X-10288804Y-8090759D01*
X-10294265Y-8093678D01*
X-10458548Y-8181488D01*
X-10458553Y-8181491D01*
X-10464004Y-8184405D01*
X-10467046Y-8186901D01*
X-10511421Y-8205280D01*
X-10560579Y-8205280D01*
X-10604953Y-8186901D01*
X-10607996Y-8184405D01*
X-10613441Y-8181494D01*
X-10613451Y-8181488D01*
X-10777734Y-8093678D01*
X-10777738Y-8093676D01*
X-10783196Y-8090759D01*
X-10789116Y-8088963D01*
X-10789119Y-8088962D01*
X-10967376Y-8034888D01*
X-10967382Y-8034886D01*
X-10973299Y-8033092D01*
X-10979450Y-8032486D01*
X-10979461Y-8032484D01*
X-11164837Y-8014227D01*
X-11171000Y-8013620D01*
X-11177163Y-8014227D01*
X-11362538Y-8032484D01*
X-11362547Y-8032485D01*
X-11368701Y-8033092D01*
X-11374619Y-8034887D01*
X-11374623Y-8034888D01*
X-11510516Y-8076111D01*
X-11558804Y-8090759D01*
X-11564265Y-8093678D01*
X-11708831Y-8170950D01*
X-11734004Y-8184405D01*
X-11738787Y-8188330D01*
X-11738788Y-8188331D01*
X-11854439Y-8283244D01*
X-11887568Y-8310432D01*
X-12013595Y-8463996D01*
X-12107241Y-8639196D01*
X-12109036Y-8645114D01*
X-12114165Y-8662022D01*
X-12146032Y-8714929D01*
X-12199214Y-8746335D01*
X-12260932Y-8748695D01*
X-12266255Y-8747563D01*
X-12266265Y-8747561D01*
X-12272715Y-8746191D01*
X-12463689Y-8746191D01*
X-12470142Y-8747562D01*
X-12470145Y-8747563D01*
X-12644033Y-8784524D01*
X-12644037Y-8784525D01*
X-12650490Y-8785897D01*
X-12824954Y-8863573D01*
X-12896256Y-8915377D01*
X-12974110Y-8971941D01*
X-12974113Y-8971944D01*
X-12979455Y-8975825D01*
X-13107242Y-9117747D01*
X-13202729Y-9283135D01*
X-13233715Y-9378500D01*
X-13243069Y-9407288D01*
X-13281911Y-9464873D01*
X-13345366Y-9493125D01*
X-13414150Y-9483458D01*
X-13554677Y-9420892D01*
X-13554684Y-9420889D01*
X-13560712Y-9418206D01*
X-13567161Y-9416835D01*
X-13567168Y-9416833D01*
X-13741056Y-9379872D01*
X-13741060Y-9379871D01*
X-13747513Y-9378500D01*
X-13938487Y-9378500D01*
X-13944940Y-9379871D01*
X-13944943Y-9379872D01*
X-14118831Y-9416833D01*
X-14118835Y-9416834D01*
X-14125288Y-9418206D01*
X-14299752Y-9495882D01*
X-14366209Y-9544166D01*
X-14448908Y-9604250D01*
X-14448911Y-9604253D01*
X-14454253Y-9608134D01*
X-14582040Y-9750056D01*
X-14677527Y-9915444D01*
X-14679568Y-9921726D01*
X-14679569Y-9921728D01*
X-14694574Y-9967908D01*
X-14736542Y-10097072D01*
X-14756504Y-10287000D01*
X-14736542Y-10476928D01*
X-14677527Y-10658556D01*
X-14582040Y-10823944D01*
X-14454253Y-10965866D01*
X-14299752Y-11078118D01*
X-14125288Y-11155794D01*
X-14036460Y-11174675D01*
X-14010218Y-11180253D01*
X-13955424Y-11206978D01*
X-13919590Y-11256300D01*
X-13911105Y-11316671D01*
X-13931956Y-11373958D01*
X-13977262Y-11414751D01*
X-14036415Y-11429500D01*
X-19568132Y-11429500D01*
X-19631126Y-11412623D01*
X-19677244Y-11366513D01*
X-19694132Y-11303522D01*
X-19677266Y-11240526D01*
X-15747631Y-4430504D01*
X-15699362Y-4383154D01*
X-15633566Y-4367575D01*
X-15569190Y-4388252D01*
X-15524772Y-4439231D01*
X-15513104Y-4505828D01*
X-15514818Y-4523225D01*
X-15495346Y-4720926D01*
X-15437679Y-4911029D01*
X-15344033Y-5086229D01*
X-15218006Y-5239793D01*
X-15072845Y-5358923D01*
X-15033270Y-5416405D01*
X-15030358Y-5486134D01*
X-15065004Y-5546717D01*
X-15126580Y-5579567D01*
X-15147945Y-5584108D01*
X-15147957Y-5584112D01*
X-15154407Y-5585483D01*
X-15328871Y-5663159D01*
X-15351566Y-5679648D01*
X-15478027Y-5771527D01*
X-15478030Y-5771530D01*
X-15483372Y-5775411D01*
X-15611159Y-5917333D01*
X-15706646Y-6082721D01*
X-15708687Y-6089003D01*
X-15708688Y-6089005D01*
X-15729475Y-6152981D01*
X-15765661Y-6264349D01*
X-15785623Y-6454277D01*
X-15765661Y-6644205D01*
X-15706646Y-6825833D01*
X-15611159Y-6991221D01*
X-15483372Y-7133143D01*
X-15328871Y-7245395D01*
X-15154407Y-7323071D01*
X-14967606Y-7362777D01*
X-14783235Y-7362777D01*
X-14776632Y-7362777D01*
X-14589831Y-7323071D01*
X-14415367Y-7245395D01*
X-14260866Y-7133143D01*
X-14134125Y-6992383D01*
X-8028097Y-6992383D01*
X-8008135Y-7182311D01*
X-7949120Y-7363939D01*
X-7853633Y-7529327D01*
X-7725846Y-7671249D01*
X-7571345Y-7783501D01*
X-7396881Y-7861177D01*
X-7210080Y-7900883D01*
X-7025709Y-7900883D01*
X-7019106Y-7900883D01*
X-6832305Y-7861177D01*
X-6657841Y-7783501D01*
X-6503340Y-7671249D01*
X-6375553Y-7529327D01*
X-6280066Y-7363939D01*
X-6278026Y-7357661D01*
X-6278023Y-7357654D01*
X-6223090Y-7188588D01*
X-6223088Y-7188583D01*
X-6221051Y-7182311D01*
X-6215118Y-7125867D01*
X-6201779Y-6998948D01*
X-6201089Y-6992383D01*
X-6209097Y-6916187D01*
X-6220361Y-6809018D01*
X-6220361Y-6809016D01*
X-6221051Y-6802455D01*
X-6223088Y-6796184D01*
X-6223090Y-6796177D01*
X-6278023Y-6627111D01*
X-6278027Y-6627101D01*
X-6280066Y-6620827D01*
X-6294740Y-6595411D01*
X-6372251Y-6461157D01*
X-6372254Y-6461152D01*
X-6375553Y-6455439D01*
X-6382845Y-6447339D01*
X-6411878Y-6391801D01*
X-6410564Y-6329146D01*
X-6379228Y-6274874D01*
X-6325623Y-6242410D01*
X-6263010Y-6239786D01*
X-6084269Y-6277779D01*
X-5899898Y-6277779D01*
X-5893295Y-6277779D01*
X-5706494Y-6238073D01*
X-5532030Y-6160397D01*
X-5425119Y-6082721D01*
X-5382873Y-6052028D01*
X-5382871Y-6052026D01*
X-5377529Y-6048145D01*
X-5249742Y-5906223D01*
X-5154255Y-5740835D01*
X-5152215Y-5734557D01*
X-5152212Y-5734550D01*
X-5100532Y-5575494D01*
X-5061014Y-5517345D01*
X-4996491Y-5489424D01*
X-4927051Y-5500422D01*
X-4874314Y-5546916D01*
X-4855002Y-5613386D01*
X-4855389Y-5617067D01*
X-4835427Y-5806995D01*
X-4776412Y-5988623D01*
X-4680925Y-6154011D01*
X-4553138Y-6295933D01*
X-4398637Y-6408185D01*
X-4224173Y-6485861D01*
X-4169758Y-6497426D01*
X-4111645Y-6527036D01*
X-4076122Y-6581737D01*
X-4046807Y-6671962D01*
X-3951320Y-6837350D01*
X-3823533Y-6979272D01*
X-3669032Y-7091524D01*
X-3494568Y-7169200D01*
X-3307767Y-7208906D01*
X-3123396Y-7208906D01*
X-3116793Y-7208906D01*
X-2929992Y-7169200D01*
X-2755528Y-7091524D01*
X-2642289Y-7009251D01*
X-2606371Y-6983155D01*
X-2606369Y-6983153D01*
X-2601027Y-6979272D01*
X-2473240Y-6837350D01*
X-2466313Y-6825353D01*
X-2382713Y-6680553D01*
X-2347655Y-6641617D01*
X-2299793Y-6620307D01*
X-2126687Y-6583512D01*
X-1952223Y-6505836D01*
X-1846273Y-6428859D01*
X-1803066Y-6397467D01*
X-1803064Y-6397465D01*
X-1797722Y-6393584D01*
X-1669935Y-6251662D01*
X-1662089Y-6238073D01*
X-1577749Y-6091992D01*
X-1577748Y-6091989D01*
X-1574448Y-6086274D01*
X-1573269Y-6082648D01*
X-1532928Y-6032834D01*
X-1476462Y-6011163D01*
X-1476575Y-6010635D01*
X-1473234Y-6009925D01*
X-1473233Y-6009924D01*
X-1289774Y-5970929D01*
X-1115310Y-5893253D01*
X-1079906Y-5867530D01*
X-1021641Y-5844461D01*
X-959465Y-5852315D01*
X-908763Y-5889151D01*
X-882079Y-5945856D01*
X-886014Y-6008403D01*
X-886739Y-6010635D01*
X-893542Y-6031572D01*
X-913504Y-6221500D01*
X-893542Y-6411428D01*
X-834527Y-6593056D01*
X-739040Y-6758444D01*
X-611253Y-6900366D01*
X-456752Y-7012618D01*
X-282288Y-7090294D01*
X-95487Y-7130000D01*
X88884Y-7130000D01*
X95487Y-7130000D01*
X282288Y-7090294D01*
X449851Y-7015690D01*
X509886Y-7005105D01*
X567867Y-7023944D01*
X610216Y-7067798D01*
X691685Y-7208906D01*
X704357Y-7230854D01*
X832144Y-7372776D01*
X986645Y-7485028D01*
X1161109Y-7562704D01*
X1347910Y-7602410D01*
X1532281Y-7602410D01*
X1538884Y-7602410D01*
X1725685Y-7562704D01*
X1896467Y-7486666D01*
X1947712Y-7475775D01*
X1998957Y-7486667D01*
X2168819Y-7562294D01*
X2355620Y-7602000D01*
X2539991Y-7602000D01*
X2546594Y-7602000D01*
X2733395Y-7562294D01*
X2907859Y-7484618D01*
X3062360Y-7372366D01*
X3190147Y-7230444D01*
X3213709Y-7189632D01*
X3259828Y-7143514D01*
X3322828Y-7126633D01*
X3438495Y-7126633D01*
X3445098Y-7126633D01*
X3631899Y-7086927D01*
X3806363Y-7009251D01*
X3960864Y-6896999D01*
X4088651Y-6755077D01*
X4184138Y-6589689D01*
X4243153Y-6408061D01*
X4263115Y-6218133D01*
X4243153Y-6028205D01*
X4206146Y-5914310D01*
X4186180Y-5852861D01*
X4186179Y-5852859D01*
X4184138Y-5846577D01*
X4088651Y-5681189D01*
X3960864Y-5539267D01*
X3955522Y-5535386D01*
X3955519Y-5535383D01*
X3867343Y-5471320D01*
X3806363Y-5427015D01*
X3796339Y-5422552D01*
X6477296Y-5422552D01*
X6477986Y-5429117D01*
X6496023Y-5600735D01*
X6497258Y-5612480D01*
X6499295Y-5618752D01*
X6499297Y-5618757D01*
X6554230Y-5787823D01*
X6554233Y-5787830D01*
X6556273Y-5794108D01*
X6651760Y-5959496D01*
X6779547Y-6101418D01*
X6784889Y-6105299D01*
X6784891Y-6105301D01*
X6813758Y-6126274D01*
X6934048Y-6213670D01*
X7108512Y-6291346D01*
X7295313Y-6331052D01*
X7479684Y-6331052D01*
X7486287Y-6331052D01*
X7673088Y-6291346D01*
X7847552Y-6213670D01*
X8002053Y-6101418D01*
X8129840Y-5959496D01*
X8225327Y-5794108D01*
X8284342Y-5612480D01*
X8304304Y-5422552D01*
X8284342Y-5232624D01*
X8251529Y-5131636D01*
X8227369Y-5057280D01*
X8227368Y-5057278D01*
X8225327Y-5050996D01*
X8168749Y-4953000D01*
X9185998Y-4953000D01*
X9186688Y-4959565D01*
X9203851Y-5122867D01*
X9205960Y-5142928D01*
X9207997Y-5149200D01*
X9207999Y-5149205D01*
X9262932Y-5318271D01*
X9262935Y-5318278D01*
X9264975Y-5324556D01*
X9328443Y-5434485D01*
X9348370Y-5469001D01*
X9360462Y-5489944D01*
X9488249Y-5631866D01*
X9493591Y-5635747D01*
X9493593Y-5635749D01*
X9527624Y-5660474D01*
X9642750Y-5744118D01*
X9817214Y-5821794D01*
X10004015Y-5861500D01*
X10188386Y-5861500D01*
X10194989Y-5861500D01*
X10381790Y-5821794D01*
X10556254Y-5744118D01*
X10710755Y-5631866D01*
X10838542Y-5489944D01*
X10934029Y-5324556D01*
X10993044Y-5142928D01*
X11013006Y-4953000D01*
X10993044Y-4763072D01*
X10949418Y-4628805D01*
X10936071Y-4587728D01*
X10936070Y-4587726D01*
X10934029Y-4581444D01*
X10838542Y-4416056D01*
X10710755Y-4274134D01*
X10705413Y-4270253D01*
X10705410Y-4270250D01*
X10571380Y-4172872D01*
X10556254Y-4161882D01*
X10381790Y-4084206D01*
X10375337Y-4082834D01*
X10375333Y-4082833D01*
X10201445Y-4045872D01*
X10201442Y-4045871D01*
X10194989Y-4044500D01*
X10004015Y-4044500D01*
X9997562Y-4045871D01*
X9997558Y-4045872D01*
X9823670Y-4082833D01*
X9823663Y-4082835D01*
X9817214Y-4084206D01*
X9811184Y-4086890D01*
X9811183Y-4086891D01*
X9648780Y-4159197D01*
X9648777Y-4159198D01*
X9642750Y-4161882D01*
X9637409Y-4165762D01*
X9637408Y-4165763D01*
X9493593Y-4270250D01*
X9493585Y-4270256D01*
X9488249Y-4274134D01*
X9483832Y-4279039D01*
X9483827Y-4279044D01*
X9383118Y-4390894D01*
X9360462Y-4416056D01*
X9357163Y-4421769D01*
X9357160Y-4421774D01*
X9279409Y-4556443D01*
X9264975Y-4581444D01*
X9262936Y-4587718D01*
X9262932Y-4587728D01*
X9207999Y-4756794D01*
X9207997Y-4756801D01*
X9205960Y-4763072D01*
X9205270Y-4769633D01*
X9205270Y-4769635D01*
X9190409Y-4911029D01*
X9185998Y-4953000D01*
X8168749Y-4953000D01*
X8129840Y-4885608D01*
X8002053Y-4743686D01*
X7996711Y-4739805D01*
X7996708Y-4739802D01*
X7889713Y-4662066D01*
X7847552Y-4631434D01*
X7673088Y-4553758D01*
X7666635Y-4552386D01*
X7666631Y-4552385D01*
X7492743Y-4515424D01*
X7492740Y-4515423D01*
X7486287Y-4514052D01*
X7295313Y-4514052D01*
X7288860Y-4515423D01*
X7288856Y-4515424D01*
X7114968Y-4552385D01*
X7114961Y-4552387D01*
X7108512Y-4553758D01*
X7102482Y-4556442D01*
X7102481Y-4556443D01*
X6940078Y-4628749D01*
X6940075Y-4628750D01*
X6934048Y-4631434D01*
X6928707Y-4635314D01*
X6928706Y-4635315D01*
X6784891Y-4739802D01*
X6784883Y-4739808D01*
X6779547Y-4743686D01*
X6775130Y-4748591D01*
X6775125Y-4748596D01*
X6666540Y-4869193D01*
X6651760Y-4885608D01*
X6648461Y-4891321D01*
X6648458Y-4891326D01*
X6584719Y-5001726D01*
X6556273Y-5050996D01*
X6554234Y-5057270D01*
X6554230Y-5057280D01*
X6499297Y-5226346D01*
X6499295Y-5226353D01*
X6497258Y-5232624D01*
X6496568Y-5239185D01*
X6496568Y-5239187D01*
X6491700Y-5285501D01*
X6477296Y-5422552D01*
X3796339Y-5422552D01*
X3631899Y-5349339D01*
X3625446Y-5347967D01*
X3625442Y-5347966D01*
X3451554Y-5311005D01*
X3451551Y-5311004D01*
X3445098Y-5309633D01*
X3254124Y-5309633D01*
X3247671Y-5311004D01*
X3247667Y-5311005D01*
X3073779Y-5347966D01*
X3073772Y-5347968D01*
X3067323Y-5349339D01*
X3061293Y-5352023D01*
X3061292Y-5352024D01*
X2898889Y-5424330D01*
X2898886Y-5424331D01*
X2892859Y-5427015D01*
X2887518Y-5430895D01*
X2887517Y-5430896D01*
X2743702Y-5535383D01*
X2743694Y-5535389D01*
X2738358Y-5539267D01*
X2733941Y-5544172D01*
X2733936Y-5544177D01*
X2614991Y-5676279D01*
X2614990Y-5676281D01*
X2610571Y-5681189D01*
X2607271Y-5686903D01*
X2607267Y-5686910D01*
X2587008Y-5722000D01*
X2540889Y-5768119D01*
X2477889Y-5785000D01*
X2355620Y-5785000D01*
X2349167Y-5786371D01*
X2349163Y-5786372D01*
X2175275Y-5823333D01*
X2175268Y-5823335D01*
X2168819Y-5824706D01*
X2162791Y-5827389D01*
X2162784Y-5827392D01*
X1998039Y-5900741D01*
X1946791Y-5911634D01*
X1895542Y-5900741D01*
X1895010Y-5900504D01*
X1725685Y-5825116D01*
X1719232Y-5823744D01*
X1719228Y-5823743D01*
X1545340Y-5786782D01*
X1545337Y-5786781D01*
X1538884Y-5785410D01*
X1347910Y-5785410D01*
X1341457Y-5786781D01*
X1341453Y-5786782D01*
X1167565Y-5823743D01*
X1167558Y-5823745D01*
X1161109Y-5825116D01*
X1155081Y-5827799D01*
X1155074Y-5827802D01*
X993547Y-5899718D01*
X933509Y-5910304D01*
X875529Y-5891465D01*
X833180Y-5847611D01*
X821743Y-5827801D01*
X739040Y-5684556D01*
X611253Y-5542634D01*
X605911Y-5538753D01*
X605908Y-5538750D01*
X509906Y-5469001D01*
X456752Y-5430382D01*
X282288Y-5352706D01*
X275835Y-5351334D01*
X275831Y-5351333D01*
X101943Y-5314372D01*
X101940Y-5314371D01*
X95487Y-5313000D01*
X-95487Y-5313000D01*
X-101940Y-5314371D01*
X-101943Y-5314372D01*
X-275831Y-5351333D01*
X-275835Y-5351334D01*
X-282288Y-5352706D01*
X-456752Y-5430382D01*
X-462088Y-5434259D01*
X-462095Y-5434263D01*
X-492152Y-5456102D01*
X-550420Y-5479173D01*
X-612595Y-5471320D01*
X-663297Y-5434485D01*
X-689982Y-5377780D01*
X-686048Y-5315234D01*
X-680560Y-5298342D01*
X-680559Y-5298340D01*
X-678520Y-5292063D01*
X-676853Y-5276205D01*
X-669600Y-5207199D01*
X-646226Y-5146310D01*
X-595539Y-5105264D01*
X-539072Y-5080123D01*
X-437173Y-5034755D01*
X-304278Y-4938201D01*
X-288016Y-4926386D01*
X-288014Y-4926384D01*
X-282672Y-4922503D01*
X-154885Y-4780581D01*
X-150395Y-4772805D01*
X-113237Y-4708444D01*
X-59398Y-4615193D01*
X-57358Y-4608916D01*
X-57354Y-4608906D01*
X-35959Y-4543056D01*
X-30961Y-4527676D01*
X7879Y-4470092D01*
X71335Y-4441839D01*
X140119Y-4451506D01*
X188412Y-4473008D01*
X375213Y-4512714D01*
X387023Y-4512714D01*
X434223Y-4521889D01*
X474549Y-4548077D01*
X497167Y-4580378D01*
X498004Y-4579896D01*
X573084Y-4709939D01*
X593491Y-4745284D01*
X721278Y-4887206D01*
X726620Y-4891087D01*
X726622Y-4891089D01*
X769829Y-4922481D01*
X875779Y-4999458D01*
X1050243Y-5077134D01*
X1237044Y-5116840D01*
X1421415Y-5116840D01*
X1428018Y-5116840D01*
X1614819Y-5077134D01*
X1789283Y-4999458D01*
X1943784Y-4887206D01*
X1959277Y-4869998D01*
X2013977Y-4834473D01*
X2079114Y-4831059D01*
X2202243Y-4857231D01*
X2386614Y-4857231D01*
X2393217Y-4857231D01*
X2580018Y-4817525D01*
X2754482Y-4739849D01*
X2908983Y-4627597D01*
X3036770Y-4485675D01*
X3132257Y-4320287D01*
X3191272Y-4138659D01*
X3211234Y-3948731D01*
X3191272Y-3758803D01*
X3145988Y-3619433D01*
X3134299Y-3583459D01*
X3134298Y-3583457D01*
X3132257Y-3577175D01*
X3036770Y-3411787D01*
X2908983Y-3269865D01*
X2903641Y-3265984D01*
X2903638Y-3265981D01*
X2825787Y-3209419D01*
X2754482Y-3157613D01*
X2580018Y-3079937D01*
X2573565Y-3078565D01*
X2573561Y-3078564D01*
X2399673Y-3041603D01*
X2399670Y-3041602D01*
X2393217Y-3040231D01*
X2202243Y-3040231D01*
X2195790Y-3041602D01*
X2195786Y-3041603D01*
X2021898Y-3078564D01*
X2021891Y-3078566D01*
X2015442Y-3079937D01*
X2009412Y-3082621D01*
X2009411Y-3082622D01*
X1847008Y-3154928D01*
X1847005Y-3154929D01*
X1840978Y-3157613D01*
X1835637Y-3161493D01*
X1835636Y-3161494D01*
X1691816Y-3265985D01*
X1691810Y-3265990D01*
X1686477Y-3269865D01*
X1682062Y-3274767D01*
X1682061Y-3274769D01*
X1670974Y-3287081D01*
X1616276Y-3322598D01*
X1551147Y-3326011D01*
X1434477Y-3301212D01*
X1434468Y-3301211D01*
X1428018Y-3299840D01*
X1421415Y-3299840D01*
X1416208Y-3299840D01*
X1369008Y-3290665D01*
X1328682Y-3264477D01*
X1306063Y-3232175D01*
X1305227Y-3232658D01*
X1209740Y-3067270D01*
X1205320Y-3062361D01*
X1131598Y-2980484D01*
X1101987Y-2922370D01*
X1105400Y-2857238D01*
X1115525Y-2826080D01*
X1135487Y-2636152D01*
X1115525Y-2446224D01*
X1070395Y-2307330D01*
X1058552Y-2270880D01*
X1058551Y-2270878D01*
X1056510Y-2264596D01*
X961023Y-2099208D01*
X833236Y-1957286D01*
X827894Y-1953405D01*
X827891Y-1953402D01*
X734744Y-1885727D01*
X678735Y-1845034D01*
X504271Y-1767358D01*
X497818Y-1765986D01*
X497814Y-1765985D01*
X323926Y-1729024D01*
X323923Y-1729023D01*
X317470Y-1727652D01*
X126496Y-1727652D01*
X120043Y-1729023D01*
X120039Y-1729024D01*
X-53848Y-1765985D01*
X-53852Y-1765986D01*
X-60305Y-1767358D01*
X-66332Y-1770041D01*
X-66340Y-1770044D01*
X-126748Y-1796939D01*
X-173587Y-1807755D01*
X-221066Y-1800242D01*
X-253896Y-1780526D01*
X-254593Y-1781486D01*
X-403752Y-1673115D01*
X-403753Y-1673114D01*
X-409094Y-1669234D01*
X-415121Y-1666550D01*
X-415124Y-1666549D01*
X-577527Y-1594243D01*
X-577528Y-1594242D01*
X-583558Y-1591558D01*
X-590007Y-1590187D01*
X-590014Y-1590185D01*
X-763902Y-1553224D01*
X-763906Y-1553223D01*
X-770359Y-1551852D01*
X-961333Y-1551852D01*
X-967786Y-1553223D01*
X-967789Y-1553224D01*
X-1141677Y-1590185D01*
X-1141681Y-1590186D01*
X-1148134Y-1591558D01*
X-1322598Y-1669234D01*
X-1393140Y-1720486D01*
X-1471754Y-1777602D01*
X-1471757Y-1777605D01*
X-1477099Y-1781486D01*
X-1604886Y-1923408D01*
X-1700373Y-2088796D01*
X-1702414Y-2095078D01*
X-1702415Y-2095080D01*
X-1712403Y-2125819D01*
X-1759388Y-2270424D01*
X-1779350Y-2460352D01*
X-1759388Y-2650280D01*
X-1700373Y-2831908D01*
X-1604886Y-2997296D01*
X-1477099Y-3139218D01*
X-1337194Y-3240865D01*
X-1297532Y-3288553D01*
X-1285430Y-3349391D01*
X-1303822Y-3408630D01*
X-1347352Y-3451038D01*
X-1350677Y-3452519D01*
X-1356014Y-3456397D01*
X-1356018Y-3456399D01*
X-1499833Y-3560887D01*
X-1499836Y-3560890D01*
X-1505178Y-3564771D01*
X-1632480Y-3706154D01*
X-1632482Y-3706156D01*
X-1632965Y-3706693D01*
X-1633049Y-3706616D01*
X-1681322Y-3745707D01*
X-1745742Y-3755910D01*
X-1806632Y-3732536D01*
X-1880831Y-3678627D01*
X-1880832Y-3678626D01*
X-1886173Y-3674746D01*
X-1892200Y-3672062D01*
X-1892203Y-3672061D01*
X-2054606Y-3599755D01*
X-2054607Y-3599754D01*
X-2060637Y-3597070D01*
X-2067086Y-3595699D01*
X-2067093Y-3595697D01*
X-2240981Y-3558736D01*
X-2240985Y-3558735D01*
X-2247438Y-3557364D01*
X-2438412Y-3557364D01*
X-2444865Y-3558735D01*
X-2444868Y-3558736D01*
X-2618756Y-3595697D01*
X-2618760Y-3595698D01*
X-2625213Y-3597070D01*
X-2799677Y-3674746D01*
X-2840851Y-3704661D01*
X-2948833Y-3783114D01*
X-2948836Y-3783117D01*
X-2954178Y-3786998D01*
X-3081965Y-3928920D01*
X-3177452Y-4094308D01*
X-3236467Y-4275936D01*
X-3256429Y-4465864D01*
X-3236467Y-4655792D01*
X-3207084Y-4746220D01*
X-3203150Y-4808763D01*
X-3229833Y-4865469D01*
X-3280534Y-4902306D01*
X-3342709Y-4910161D01*
X-3400979Y-4887090D01*
X-3479790Y-4829830D01*
X-3479796Y-4829826D01*
X-3485133Y-4825949D01*
X-3491160Y-4823265D01*
X-3491163Y-4823264D01*
X-3653566Y-4750958D01*
X-3653567Y-4750957D01*
X-3659597Y-4748273D01*
X-3666046Y-4746902D01*
X-3666053Y-4746900D01*
X-3839941Y-4709939D01*
X-3839945Y-4709938D01*
X-3846398Y-4708567D01*
X-4037372Y-4708567D01*
X-4043825Y-4709938D01*
X-4043828Y-4709939D01*
X-4217716Y-4746900D01*
X-4217720Y-4746901D01*
X-4224173Y-4748273D01*
X-4398637Y-4825949D01*
X-4458157Y-4869193D01*
X-4547793Y-4934317D01*
X-4547796Y-4934320D01*
X-4553138Y-4938201D01*
X-4680925Y-5080123D01*
X-4776412Y-5245511D01*
X-4778453Y-5251793D01*
X-4778454Y-5251795D01*
X-4830135Y-5410852D01*
X-4869653Y-5469001D01*
X-4934176Y-5496922D01*
X-5003616Y-5485924D01*
X-5056353Y-5439430D01*
X-5075664Y-5372959D01*
X-5075278Y-5369279D01*
X-5079377Y-5330278D01*
X-5094550Y-5185914D01*
X-5094550Y-5185912D01*
X-5095240Y-5179351D01*
X-5097277Y-5173080D01*
X-5097279Y-5173073D01*
X-5152212Y-5004007D01*
X-5152216Y-5003997D01*
X-5154255Y-4997723D01*
X-5157559Y-4992000D01*
X-5157560Y-4991997D01*
X-5205951Y-4908179D01*
X-5222831Y-4845181D01*
X-5205951Y-4782182D01*
X-5155776Y-4695276D01*
X-5155774Y-4695272D01*
X-5152474Y-4689556D01*
X-5150434Y-4683278D01*
X-5150431Y-4683271D01*
X-5095498Y-4514205D01*
X-5095496Y-4514200D01*
X-5093459Y-4507928D01*
X-5085321Y-4430504D01*
X-5074187Y-4324565D01*
X-5073497Y-4318000D01*
X-5088750Y-4172872D01*
X-5092769Y-4134635D01*
X-5092769Y-4134633D01*
X-5093459Y-4128072D01*
X-5095496Y-4121801D01*
X-5095498Y-4121794D01*
X-5150431Y-3952728D01*
X-5150435Y-3952718D01*
X-5152474Y-3946444D01*
X-5159290Y-3934638D01*
X-5244659Y-3786774D01*
X-5244662Y-3786769D01*
X-5247961Y-3781056D01*
X-5262088Y-3765366D01*
X-5371326Y-3644044D01*
X-5371331Y-3644039D01*
X-5375748Y-3639134D01*
X-5381084Y-3635256D01*
X-5381092Y-3635250D01*
X-5524907Y-3530763D01*
X-5524908Y-3530762D01*
X-5530249Y-3526882D01*
X-5536276Y-3524198D01*
X-5536279Y-3524197D01*
X-5698682Y-3451891D01*
X-5698683Y-3451890D01*
X-5704713Y-3449206D01*
X-5711162Y-3447835D01*
X-5711169Y-3447833D01*
X-5885057Y-3410872D01*
X-5885061Y-3410871D01*
X-5891514Y-3409500D01*
X-6082488Y-3409500D01*
X-6088941Y-3410871D01*
X-6088944Y-3410872D01*
X-6262832Y-3447833D01*
X-6262836Y-3447834D01*
X-6269289Y-3449206D01*
X-6443753Y-3526882D01*
X-6505098Y-3571452D01*
X-6592909Y-3635250D01*
X-6592912Y-3635253D01*
X-6598254Y-3639134D01*
X-6726041Y-3781056D01*
X-6821528Y-3946444D01*
X-6823569Y-3952726D01*
X-6823570Y-3952728D01*
X-6826864Y-3962866D01*
X-6880543Y-4128072D01*
X-6900505Y-4318000D01*
X-6880543Y-4507928D01*
X-6821528Y-4689556D01*
X-6770704Y-4777585D01*
X-6769831Y-4779097D01*
X-6752950Y-4842097D01*
X-6769830Y-4905096D01*
X-6823309Y-4997723D01*
X-6882324Y-5179351D01*
X-6902286Y-5369279D01*
X-6882324Y-5559207D01*
X-6823309Y-5740835D01*
X-6727822Y-5906223D01*
X-6720537Y-5914313D01*
X-6691499Y-5969847D01*
X-6692808Y-6032506D01*
X-6724141Y-6086782D01*
X-6777748Y-6119250D01*
X-6840364Y-6121875D01*
X-7012646Y-6085255D01*
X-7012656Y-6085253D01*
X-7019106Y-6083883D01*
X-7210080Y-6083883D01*
X-7216533Y-6085254D01*
X-7216536Y-6085255D01*
X-7390424Y-6122216D01*
X-7390428Y-6122217D01*
X-7396881Y-6123589D01*
X-7571345Y-6201265D01*
X-7622388Y-6238350D01*
X-7720501Y-6309633D01*
X-7720504Y-6309636D01*
X-7725846Y-6313517D01*
X-7853633Y-6455439D01*
X-7949120Y-6620827D01*
X-8008135Y-6802455D01*
X-8028097Y-6992383D01*
X-14134125Y-6992383D01*
X-14133079Y-6991221D01*
X-14037592Y-6825833D01*
X-14035552Y-6819555D01*
X-14035549Y-6819548D01*
X-13980616Y-6650482D01*
X-13980614Y-6650477D01*
X-13978577Y-6644205D01*
X-13972540Y-6586771D01*
X-13959305Y-6460842D01*
X-13958615Y-6454277D01*
X-13969080Y-6354710D01*
X-13977887Y-6270912D01*
X-13977887Y-6270910D01*
X-13978577Y-6264349D01*
X-13980614Y-6258077D01*
X-13980617Y-6258067D01*
X-13987024Y-6238350D01*
X-13991426Y-6178401D01*
X-13967553Y-6123235D01*
X-13920839Y-6085407D01*
X-13861914Y-6073526D01*
X-13804193Y-6090295D01*
X-13430702Y-6305931D01*
X-13374997Y-6330573D01*
X-13230799Y-6354821D01*
X-13085611Y-6337461D01*
X-12951194Y-6279901D01*
X-12924750Y-6258067D01*
X-12844516Y-6191821D01*
X-12844514Y-6191819D01*
X-12838439Y-6186803D01*
X-12833792Y-6180439D01*
X-12833790Y-6180437D01*
X-12804510Y-6140337D01*
X-12802518Y-6137609D01*
X-12795974Y-6126274D01*
X-12594720Y-5777693D01*
X-11608790Y-5777693D01*
X-11588828Y-5967621D01*
X-11529813Y-6149249D01*
X-11434326Y-6314637D01*
X-11306539Y-6456559D01*
X-11152038Y-6568811D01*
X-10977574Y-6646487D01*
X-10790773Y-6686193D01*
X-10606402Y-6686193D01*
X-10599799Y-6686193D01*
X-10412998Y-6646487D01*
X-10238534Y-6568811D01*
X-10126251Y-6487232D01*
X-10089377Y-6460442D01*
X-10089375Y-6460440D01*
X-10084033Y-6456559D01*
X-9956246Y-6314637D01*
X-9951219Y-6305931D01*
X-9919887Y-6251662D01*
X-9860759Y-6149249D01*
X-9858719Y-6142971D01*
X-9858716Y-6142964D01*
X-9803783Y-5973898D01*
X-9803781Y-5973893D01*
X-9801744Y-5967621D01*
X-9798505Y-5936809D01*
X-9782472Y-5784258D01*
X-9781782Y-5777693D01*
X-9786936Y-5728658D01*
X-9801054Y-5594328D01*
X-9801054Y-5594326D01*
X-9801744Y-5587765D01*
X-9803781Y-5581494D01*
X-9803783Y-5581487D01*
X-9858716Y-5412421D01*
X-9858720Y-5412411D01*
X-9860759Y-5406137D01*
X-9877131Y-5377780D01*
X-9952944Y-5246467D01*
X-9952947Y-5246462D01*
X-9956246Y-5240749D01*
X-9960665Y-5235841D01*
X-10079611Y-5103737D01*
X-10079616Y-5103732D01*
X-10084033Y-5098827D01*
X-10089369Y-5094949D01*
X-10089377Y-5094943D01*
X-10109944Y-5080000D01*
X-9168504Y-5080000D01*
X-9148542Y-5269928D01*
X-9089527Y-5451556D01*
X-8994040Y-5616944D01*
X-8866253Y-5758866D01*
X-8711752Y-5871118D01*
X-8537288Y-5948794D01*
X-8350487Y-5988500D01*
X-8166116Y-5988500D01*
X-8159513Y-5988500D01*
X-7972712Y-5948794D01*
X-7798248Y-5871118D01*
X-7682170Y-5786782D01*
X-7649091Y-5762749D01*
X-7649089Y-5762747D01*
X-7643747Y-5758866D01*
X-7632884Y-5746802D01*
X-7576838Y-5684556D01*
X-7515960Y-5616944D01*
X-7420473Y-5451556D01*
X-7418433Y-5445278D01*
X-7418430Y-5445271D01*
X-7363497Y-5276205D01*
X-7363495Y-5276200D01*
X-7361458Y-5269928D01*
X-7341496Y-5080000D01*
X-7349961Y-4999458D01*
X-7360768Y-4896635D01*
X-7360768Y-4896633D01*
X-7361458Y-4890072D01*
X-7363495Y-4883801D01*
X-7363497Y-4883794D01*
X-7418430Y-4714728D01*
X-7418434Y-4714718D01*
X-7420473Y-4708444D01*
X-7428074Y-4695278D01*
X-7512658Y-4548774D01*
X-7512661Y-4548769D01*
X-7515960Y-4543056D01*
X-7525885Y-4532033D01*
X-7639325Y-4406044D01*
X-7639330Y-4406039D01*
X-7643747Y-4401134D01*
X-7649083Y-4397256D01*
X-7649091Y-4397250D01*
X-7792906Y-4292763D01*
X-7792907Y-4292762D01*
X-7798248Y-4288882D01*
X-7804275Y-4286198D01*
X-7804278Y-4286197D01*
X-7966681Y-4213891D01*
X-7966682Y-4213890D01*
X-7972712Y-4211206D01*
X-7979161Y-4209835D01*
X-7979168Y-4209833D01*
X-8153056Y-4172872D01*
X-8153060Y-4172871D01*
X-8159513Y-4171500D01*
X-8350487Y-4171500D01*
X-8356940Y-4172871D01*
X-8356943Y-4172872D01*
X-8530831Y-4209833D01*
X-8530835Y-4209834D01*
X-8537288Y-4211206D01*
X-8711752Y-4288882D01*
X-8751829Y-4318000D01*
X-8860908Y-4397250D01*
X-8860911Y-4397253D01*
X-8866253Y-4401134D01*
X-8994040Y-4543056D01*
X-9089527Y-4708444D01*
X-9091568Y-4714726D01*
X-9091569Y-4714728D01*
X-9112409Y-4778867D01*
X-9148542Y-4890072D01*
X-9168504Y-5080000D01*
X-10109944Y-5080000D01*
X-10233192Y-4990456D01*
X-10233193Y-4990455D01*
X-10238534Y-4986575D01*
X-10244561Y-4983891D01*
X-10244564Y-4983890D01*
X-10406967Y-4911584D01*
X-10406968Y-4911583D01*
X-10412998Y-4908899D01*
X-10419447Y-4907528D01*
X-10419454Y-4907526D01*
X-10593342Y-4870565D01*
X-10593346Y-4870564D01*
X-10599799Y-4869193D01*
X-10790773Y-4869193D01*
X-10797226Y-4870564D01*
X-10797229Y-4870565D01*
X-10971117Y-4907526D01*
X-10971121Y-4907527D01*
X-10977574Y-4908899D01*
X-11152038Y-4986575D01*
X-11213009Y-5030873D01*
X-11301194Y-5094943D01*
X-11301197Y-5094946D01*
X-11306539Y-5098827D01*
X-11434326Y-5240749D01*
X-11529813Y-5406137D01*
X-11531854Y-5412419D01*
X-11531855Y-5412421D01*
X-11533149Y-5416405D01*
X-11588828Y-5587765D01*
X-11608790Y-5777693D01*
X-12594720Y-5777693D01*
X-12255569Y-5190267D01*
X-12255566Y-5190262D01*
X-12253880Y-5187341D01*
X-12252517Y-5184259D01*
X-12252512Y-5184250D01*
X-12232425Y-5138842D01*
X-12232423Y-5138837D01*
X-12229238Y-5131636D01*
X-12226519Y-5115467D01*
X-12206484Y-4996325D01*
X-12206483Y-4996322D01*
X-12204990Y-4987438D01*
X-12206059Y-4978495D01*
X-12206059Y-4978486D01*
X-12206082Y-4978298D01*
X-12206049Y-4978049D01*
X-12205845Y-4969480D01*
X-12204917Y-4969502D01*
X-12197877Y-4916338D01*
X-12160906Y-4865945D01*
X-12054801Y-4778867D01*
X-12054797Y-4778863D01*
X-12050018Y-4774941D01*
X-12030335Y-4750958D01*
X-11927917Y-4626161D01*
X-11927916Y-4626160D01*
X-11923991Y-4621377D01*
X-11920685Y-4615193D01*
X-11833264Y-4451638D01*
X-11830345Y-4446177D01*
X-11806501Y-4367575D01*
X-11774474Y-4261996D01*
X-11774473Y-4261992D01*
X-11772678Y-4256074D01*
X-11772071Y-4249920D01*
X-11772070Y-4249911D01*
X-11753813Y-4064536D01*
X-11753206Y-4058373D01*
X-11754572Y-4044500D01*
X-11759790Y-3991511D01*
X-11754971Y-3942586D01*
X-11731796Y-3899229D01*
X-11693794Y-3868042D01*
X-11568582Y-3801115D01*
X-11415018Y-3675088D01*
X-11409999Y-3668973D01*
X-11292917Y-3526308D01*
X-11292916Y-3526307D01*
X-11288991Y-3521524D01*
X-11251771Y-3451891D01*
X-11198264Y-3351785D01*
X-11195345Y-3346324D01*
X-11177820Y-3288553D01*
X-11139474Y-3162143D01*
X-11139473Y-3162139D01*
X-11137678Y-3156221D01*
X-11137071Y-3150067D01*
X-11137070Y-3150058D01*
X-11118813Y-2964683D01*
X-11118206Y-2958520D01*
X-11118813Y-2952357D01*
X-11137070Y-2766981D01*
X-11137072Y-2766970D01*
X-11137678Y-2760819D01*
X-11139472Y-2754902D01*
X-11139474Y-2754896D01*
X-11193548Y-2576639D01*
X-11193549Y-2576636D01*
X-11195345Y-2570716D01*
X-11198264Y-2565254D01*
X-11286073Y-2400974D01*
X-11286076Y-2400969D01*
X-11288991Y-2395516D01*
X-11292912Y-2390737D01*
X-11292917Y-2390731D01*
X-11411095Y-2246731D01*
X-11411100Y-2246725D01*
X-11415018Y-2241952D01*
X-11419791Y-2238034D01*
X-11419797Y-2238029D01*
X-11563797Y-2119851D01*
X-11563803Y-2119846D01*
X-11568582Y-2115925D01*
X-11574035Y-2113010D01*
X-11574040Y-2113007D01*
X-11738320Y-2025198D01*
X-11738324Y-2025196D01*
X-11743782Y-2022279D01*
X-11749702Y-2020483D01*
X-11749705Y-2020482D01*
X-11927962Y-1966408D01*
X-11927968Y-1966406D01*
X-11933885Y-1964612D01*
X-11940036Y-1964006D01*
X-11940047Y-1964004D01*
X-12125423Y-1945747D01*
X-12131586Y-1945140D01*
X-12137749Y-1945747D01*
X-12137752Y-1945747D01*
X-12198446Y-1951724D01*
X-12247371Y-1946905D01*
X-12290728Y-1923730D01*
X-12321916Y-1885727D01*
X-12385925Y-1765975D01*
X-12385925Y-1765974D01*
X-12388843Y-1760516D01*
X-12392764Y-1755737D01*
X-12392769Y-1755731D01*
X-12510947Y-1611731D01*
X-12510952Y-1611725D01*
X-12514870Y-1606952D01*
X-12519643Y-1603034D01*
X-12519649Y-1603029D01*
X-12663649Y-1484851D01*
X-12663655Y-1484846D01*
X-12668434Y-1480925D01*
X-12673887Y-1478010D01*
X-12673892Y-1478007D01*
X-12838172Y-1390198D01*
X-12838176Y-1390196D01*
X-12843634Y-1387279D01*
X-12849554Y-1385483D01*
X-12849557Y-1385482D01*
X-13027814Y-1331408D01*
X-13027820Y-1331406D01*
X-13033737Y-1329612D01*
X-13039888Y-1329006D01*
X-13039899Y-1329004D01*
X-13225275Y-1310747D01*
X-13231438Y-1310140D01*
X-13237601Y-1310747D01*
X-13422976Y-1329004D01*
X-13422985Y-1329005D01*
X-13429139Y-1329612D01*
X-13435057Y-1331407D01*
X-13435061Y-1331408D01*
X-13604283Y-1382741D01*
X-13619242Y-1387279D01*
X-13629651Y-1392843D01*
X-13768678Y-1467154D01*
X-13831366Y-1481989D01*
X-13893194Y-1463899D01*
X-13938000Y-1417614D01*
X-13954071Y-1355231D01*
X-13937208Y-1293058D01*
X-13268867Y-134830D01*
X-11576376Y-134830D01*
X-11566056Y-298860D01*
X-11515268Y-455171D01*
X-11427202Y-593940D01*
X-11307393Y-706448D01*
X-11163368Y-785627D01*
X-11004177Y-826500D01*
X-10885034Y-826500D01*
X-10881075Y-826500D01*
X-10758942Y-811071D01*
X-10606129Y-750568D01*
X-10473163Y-653963D01*
X-10382971Y-544940D01*
X-10373452Y-533433D01*
X-10373451Y-533432D01*
X-10368400Y-527326D01*
X-10345342Y-478326D01*
X-10301796Y-385786D01*
X-10301795Y-385783D01*
X-10298421Y-378613D01*
X-10295283Y-362166D01*
X-10269109Y-224955D01*
X-10269108Y-224954D01*
X-10267624Y-217170D01*
X-10268121Y-209264D01*
X-10268121Y-209258D01*
X-10273297Y-127000D01*
X-2003006Y-127000D01*
X-1983044Y-316928D01*
X-1924029Y-498556D01*
X-1828542Y-663944D01*
X-1700755Y-805866D01*
X-1546254Y-918118D01*
X-1371790Y-995794D01*
X-1184989Y-1035500D01*
X-1000618Y-1035500D01*
X-994015Y-1035500D01*
X-807214Y-995794D01*
X-632750Y-918118D01*
X-503935Y-824528D01*
X-483593Y-809749D01*
X-483591Y-809747D01*
X-478249Y-805866D01*
X-350462Y-663944D01*
X-346711Y-657448D01*
X-277889Y-538244D01*
X-254975Y-498556D01*
X-252935Y-492278D01*
X-252932Y-492271D01*
X-197999Y-323205D01*
X-197997Y-323200D01*
X-195960Y-316928D01*
X-193229Y-290949D01*
X-176688Y-133565D01*
X-175998Y-127000D01*
X-195960Y62928D01*
X-197997Y69200D01*
X-197999Y69205D01*
X-252932Y238271D01*
X-252935Y238278D01*
X-254975Y244556D01*
X-345578Y401485D01*
X-347160Y404225D01*
X-350462Y409944D01*
X-478249Y551866D01*
X-632750Y664118D01*
X-807214Y741794D01*
X-994015Y781500D01*
X-1184989Y781500D01*
X-1371790Y741794D01*
X-1546254Y664118D01*
X-1700755Y551866D01*
X-1828542Y409944D01*
X-1924029Y244556D01*
X-1983044Y62928D01*
X-2003006Y-127000D01*
X-10273297Y-127000D01*
X-10277446Y-61050D01*
X-10277446Y-61047D01*
X-10277944Y-53140D01*
X-10284211Y-33851D01*
X-10326281Y95629D01*
X-10326282Y95632D01*
X-10328732Y103171D01*
X-10332981Y109867D01*
X-10412548Y235244D01*
X-10412550Y235246D01*
X-10416798Y241940D01*
X-10536607Y354448D01*
X-10680632Y433627D01*
X-10839823Y474500D01*
X-10962925Y474500D01*
X-11085058Y459071D01*
X-11237871Y398568D01*
X-11370837Y301963D01*
X-11475600Y175326D01*
X-11545579Y26613D01*
X-11576376Y-134830D01*
X-13268867Y-134830D01*
X-12236100Y1654946D01*
X-7386558Y1654946D01*
X-7366596Y1465018D01*
X-7360115Y1445071D01*
X-7312692Y1299118D01*
X-7307581Y1283390D01*
X-7212094Y1118002D01*
X-7084307Y976080D01*
X-7078965Y972199D01*
X-7078962Y972196D01*
X-7023733Y932070D01*
X-6929806Y863828D01*
X-6755342Y786152D01*
X-6748889Y784780D01*
X-6748885Y784779D01*
X-6574997Y747818D01*
X-6574994Y747817D01*
X-6568541Y746446D01*
X-6384170Y746446D01*
X-6377567Y746446D01*
X-6371114Y747817D01*
X-6371110Y747818D01*
X-6197222Y784779D01*
X-6197215Y784781D01*
X-6190766Y786152D01*
X-6120642Y817373D01*
X-6022332Y861143D01*
X-6022329Y861144D01*
X-6016302Y863828D01*
X-5994654Y879556D01*
X-5867145Y972196D01*
X-5867137Y972202D01*
X-5861801Y976080D01*
X-5857384Y980985D01*
X-5857379Y980990D01*
X-5738433Y1113094D01*
X-5738432Y1113095D01*
X-5734014Y1118002D01*
X-5730713Y1123720D01*
X-5710103Y1159416D01*
X-5669608Y1202087D01*
X-5614154Y1221723D01*
X-5555830Y1214044D01*
X-5507349Y1180723D01*
X-5386951Y1047007D01*
X-5381609Y1043126D01*
X-5381606Y1043123D01*
X-5303755Y986561D01*
X-5232450Y934755D01*
X-5057986Y857079D01*
X-5051533Y855707D01*
X-5051529Y855706D01*
X-4877641Y818745D01*
X-4877638Y818744D01*
X-4871185Y817373D01*
X-4686814Y817373D01*
X-4680211Y817373D01*
X-4673758Y818744D01*
X-4673754Y818745D01*
X-4499866Y855706D01*
X-4499859Y855708D01*
X-4493410Y857079D01*
X-4478251Y863828D01*
X-4324976Y932070D01*
X-4324973Y932071D01*
X-4318946Y934755D01*
X-4313604Y938636D01*
X-4169789Y1043123D01*
X-4169781Y1043129D01*
X-4164445Y1047007D01*
X-4160028Y1051912D01*
X-4160023Y1051917D01*
X-4041077Y1184021D01*
X-4041076Y1184022D01*
X-4036658Y1188929D01*
X-4033359Y1194642D01*
X-4033356Y1194647D01*
X-3944475Y1348594D01*
X-3944474Y1348595D01*
X-3941171Y1354317D01*
X-3939132Y1360591D01*
X-3939128Y1360601D01*
X-3884196Y1529665D01*
X-3884195Y1529669D01*
X-3882156Y1535945D01*
X-3881466Y1542508D01*
X-3872434Y1628436D01*
X1476932Y1628436D01*
X1477622Y1621871D01*
X1494767Y1458740D01*
X1496894Y1438508D01*
X1498931Y1432237D01*
X1498933Y1432230D01*
X1553866Y1263164D01*
X1553870Y1263154D01*
X1555909Y1256880D01*
X1559212Y1251158D01*
X1559213Y1251157D01*
X1648094Y1097210D01*
X1648097Y1097205D01*
X1651396Y1091492D01*
X1655814Y1086585D01*
X1655815Y1086584D01*
X1774761Y954480D01*
X1774766Y954475D01*
X1779183Y949570D01*
X1784519Y945692D01*
X1784527Y945686D01*
X1906485Y857079D01*
X1933684Y837318D01*
X1939711Y834634D01*
X1939714Y834633D01*
X2102117Y762327D01*
X2108148Y759642D01*
X2114597Y758271D01*
X2114604Y758269D01*
X2288492Y721308D01*
X2288496Y721307D01*
X2294949Y719936D01*
X2479320Y719936D01*
X2485923Y719936D01*
X2492376Y721307D01*
X2492379Y721308D01*
X2666267Y758269D01*
X2666271Y758270D01*
X2672724Y759642D01*
X2847188Y837318D01*
X2918493Y889124D01*
X2996344Y945686D01*
X2996347Y945689D01*
X3001689Y949570D01*
X3129476Y1091492D01*
X3224963Y1256880D01*
X3256623Y1354317D01*
X3283978Y1438508D01*
X3285846Y1437900D01*
X3310810Y1486916D01*
X3365513Y1522449D01*
X3430654Y1525866D01*
X3468322Y1517859D01*
X3468332Y1517857D01*
X3474782Y1516487D01*
X3659153Y1516487D01*
X3665756Y1516487D01*
X3672209Y1517858D01*
X3672212Y1517859D01*
X3846100Y1554820D01*
X3846104Y1554821D01*
X3852557Y1556193D01*
X3967011Y1607151D01*
X4031429Y1617354D01*
X4092318Y1593982D01*
X4106223Y1583879D01*
X4106233Y1583872D01*
X4111567Y1579998D01*
X4117593Y1577314D01*
X4117595Y1577314D01*
X4280000Y1505007D01*
X4286031Y1502322D01*
X4292480Y1500951D01*
X4292487Y1500949D01*
X4466375Y1463988D01*
X4466379Y1463987D01*
X4472832Y1462616D01*
X4657203Y1462616D01*
X4663806Y1462616D01*
X4670259Y1463987D01*
X4670262Y1463988D01*
X4844150Y1500949D01*
X4844154Y1500950D01*
X4850607Y1502322D01*
X5025071Y1579998D01*
X5137264Y1661511D01*
X5174227Y1688366D01*
X5174230Y1688369D01*
X5179572Y1692250D01*
X5307359Y1834172D01*
X5402846Y1999560D01*
X5461861Y2181188D01*
X5481823Y2371116D01*
X5481384Y2375287D01*
X5494866Y2431443D01*
X5533072Y2476176D01*
X5654907Y2564694D01*
X5654910Y2564697D01*
X5660252Y2568578D01*
X5788039Y2710500D01*
X5883526Y2875888D01*
X5888780Y2892056D01*
X5925350Y3004609D01*
X5942541Y3057516D01*
X5962503Y3247444D01*
X5959657Y3274519D01*
X5969858Y3338941D01*
X6010905Y3389630D01*
X6108165Y3460294D01*
X6164690Y3483132D01*
X6225320Y3476760D01*
X6275862Y3442669D01*
X6346599Y3364107D01*
X6346602Y3364104D01*
X6351017Y3359201D01*
X6356353Y3355323D01*
X6356361Y3355317D01*
X6496412Y3253565D01*
X6505518Y3246949D01*
X6511545Y3244265D01*
X6511548Y3244264D01*
X6679982Y3169273D01*
X6678958Y3166974D01*
X6720443Y3140761D01*
X6750716Y3086645D01*
X6751510Y3024643D01*
X6722634Y2969771D01*
X6657961Y2897944D01*
X6654659Y2892225D01*
X6651728Y2887148D01*
X6562474Y2732556D01*
X6560434Y2726278D01*
X6560431Y2726271D01*
X6505498Y2557205D01*
X6505496Y2557200D01*
X6503459Y2550928D01*
X6502769Y2544364D01*
X6500752Y2525169D01*
X6483497Y2361000D01*
X6484187Y2354435D01*
X6494556Y2255774D01*
X6503459Y2171072D01*
X6505496Y2164801D01*
X6505498Y2164794D01*
X6560431Y1995728D01*
X6560435Y1995718D01*
X6562474Y1989444D01*
X6565777Y1983722D01*
X6565778Y1983721D01*
X6654659Y1829774D01*
X6654662Y1829769D01*
X6657961Y1824056D01*
X6662379Y1819149D01*
X6662380Y1819148D01*
X6781326Y1687044D01*
X6781331Y1687039D01*
X6785748Y1682134D01*
X6791088Y1678253D01*
X6791094Y1678249D01*
X6874375Y1617741D01*
X6916468Y1564632D01*
X6924961Y1497398D01*
X6897397Y1435490D01*
X6841749Y1396814D01*
X6774115Y1392560D01*
X6661487Y1416500D01*
X6470513Y1416500D01*
X6283712Y1376794D01*
X6109248Y1299118D01*
X6043236Y1251157D01*
X5965457Y1194647D01*
X5954747Y1186866D01*
X5826960Y1044944D01*
X5731473Y879556D01*
X5729433Y873278D01*
X5729430Y873271D01*
X5674497Y704205D01*
X5674495Y704200D01*
X5672458Y697928D01*
X5671768Y691364D01*
X5668904Y664118D01*
X5652496Y508000D01*
X5672458Y318072D01*
X5674495Y311801D01*
X5674497Y311794D01*
X5729430Y142728D01*
X5729434Y142718D01*
X5731473Y136444D01*
X5734776Y130722D01*
X5734777Y130721D01*
X5777707Y56364D01*
X5826960Y-28944D01*
X5909339Y-120435D01*
X5945195Y-160258D01*
X5954747Y-170866D01*
X6109248Y-283118D01*
X6283712Y-360794D01*
X6470513Y-400500D01*
X6654884Y-400500D01*
X6661487Y-400500D01*
X6848288Y-360794D01*
X7022752Y-283118D01*
X7177253Y-170866D01*
X7253820Y-85830D01*
X10267624Y-85830D01*
X10268121Y-93735D01*
X10268121Y-93741D01*
X10275887Y-217170D01*
X10277944Y-249860D01*
X10280393Y-257397D01*
X10322108Y-385786D01*
X10328732Y-406171D01*
X10332979Y-412864D01*
X10332981Y-412867D01*
X10412548Y-538244D01*
X10412550Y-538246D01*
X10416798Y-544940D01*
X10536607Y-657448D01*
X10680632Y-736627D01*
X10839823Y-777500D01*
X10958966Y-777500D01*
X10962925Y-777500D01*
X11085058Y-762071D01*
X11237871Y-701568D01*
X11370837Y-604963D01*
X11475600Y-478326D01*
X11545579Y-329613D01*
X11576376Y-168170D01*
X11566056Y-4140D01*
X11515268Y152171D01*
X11427202Y290940D01*
X11307393Y403448D01*
X11163368Y482627D01*
X11004177Y523500D01*
X10881075Y523500D01*
X10758942Y508071D01*
X10606129Y447568D01*
X10473163Y350963D01*
X10468109Y344854D01*
X10379936Y238271D01*
X10368400Y224326D01*
X10365024Y217153D01*
X10365024Y217152D01*
X10307840Y95629D01*
X10298421Y75613D01*
X10296935Y67827D01*
X10296935Y67825D01*
X10275298Y-45602D01*
X10267624Y-85830D01*
X7253820Y-85830D01*
X7305040Y-28944D01*
X7400527Y136444D01*
X7403187Y144629D01*
X7437514Y250278D01*
X7459542Y318072D01*
X7479504Y508000D01*
X7459542Y697928D01*
X7400527Y879556D01*
X7305040Y1044944D01*
X7177253Y1186866D01*
X7088624Y1251258D01*
X7046532Y1304366D01*
X7038039Y1371599D01*
X7065602Y1433508D01*
X7121250Y1472184D01*
X7188884Y1476440D01*
X7295056Y1453872D01*
X7295062Y1453871D01*
X7301514Y1452500D01*
X7485885Y1452500D01*
X7492488Y1452500D01*
X7498941Y1453871D01*
X7498944Y1453872D01*
X7672832Y1490833D01*
X7672836Y1490834D01*
X7679289Y1492206D01*
X7853753Y1569882D01*
X7947220Y1637790D01*
X8002909Y1678250D01*
X8002912Y1678253D01*
X8008254Y1682134D01*
X8136041Y1824056D01*
X8231528Y1989444D01*
X8236815Y2005714D01*
X8271131Y2111330D01*
X8290543Y2171072D01*
X8310505Y2361000D01*
X8290543Y2550928D01*
X8231528Y2732556D01*
X8136041Y2897944D01*
X8008254Y3039866D01*
X7853753Y3152118D01*
X7679289Y3229794D01*
X7680348Y3232172D01*
X7639122Y3257995D01*
X7608628Y3312145D01*
X7607727Y3374284D01*
X7636637Y3429296D01*
X7696890Y3496214D01*
X7701310Y3501123D01*
X7796797Y3666511D01*
X7855812Y3848139D01*
X7875774Y4038067D01*
X7855812Y4227995D01*
X7796797Y4409623D01*
X7701310Y4575011D01*
X7573523Y4716933D01*
X7419022Y4829185D01*
X7244558Y4906861D01*
X7057757Y4946567D01*
X6866783Y4946567D01*
X6679982Y4906861D01*
X6505518Y4829185D01*
X6352604Y4718086D01*
X6296079Y4695248D01*
X6235448Y4701621D01*
X6184910Y4735708D01*
X6109753Y4819180D01*
X5955252Y4931432D01*
X5780788Y5009108D01*
X5593987Y5048814D01*
X5403013Y5048814D01*
X5216212Y5009108D01*
X5041748Y4931432D01*
X4935798Y4854455D01*
X4895675Y4825303D01*
X4887247Y4819180D01*
X4759460Y4677258D01*
X4663973Y4511870D01*
X4661933Y4505592D01*
X4661930Y4505585D01*
X4606997Y4336519D01*
X4606995Y4336514D01*
X4604958Y4330242D01*
X4604268Y4323678D01*
X4593666Y4222802D01*
X4584996Y4140314D01*
X4585686Y4133749D01*
X4585686Y4133747D01*
X4587842Y4113231D01*
X4577638Y4048812D01*
X4536594Y3998128D01*
X4437746Y3926310D01*
X4309959Y3784388D01*
X4214472Y3619000D01*
X4212432Y3612722D01*
X4212429Y3612715D01*
X4157496Y3443649D01*
X4157494Y3443644D01*
X4155457Y3437372D01*
X4154767Y3430812D01*
X4154767Y3430810D01*
X4145626Y3343842D01*
X4125988Y3288389D01*
X4083315Y3247894D01*
X4026910Y3231187D01*
X3969069Y3241906D01*
X3852557Y3293781D01*
X3665756Y3333487D01*
X3474782Y3333487D01*
X3287981Y3293781D01*
X3113517Y3216105D01*
X3030907Y3156085D01*
X2972703Y3113797D01*
X2959016Y3103853D01*
X2831229Y2961931D01*
X2827927Y2956212D01*
X2817674Y2938453D01*
X2735742Y2796543D01*
X2733702Y2790265D01*
X2733699Y2790258D01*
X2676727Y2614915D01*
X2674869Y2615518D01*
X2649865Y2566473D01*
X2595168Y2530965D01*
X2530050Y2527556D01*
X2485923Y2536936D01*
X2294949Y2536936D01*
X2108148Y2497230D01*
X1933684Y2419554D01*
X1779183Y2307302D01*
X1651396Y2165380D01*
X1555909Y1999992D01*
X1553869Y1993714D01*
X1553866Y1993707D01*
X1498933Y1824641D01*
X1498931Y1824636D01*
X1496894Y1818364D01*
X1476932Y1628436D01*
X-3872434Y1628436D01*
X-3871451Y1637790D01*
X-3848078Y1698678D01*
X-3797392Y1739724D01*
X-3759820Y1756452D01*
X-3759814Y1756454D01*
X-3753791Y1759137D01*
X-3748457Y1763012D01*
X-3748449Y1763017D01*
X-3604634Y1867505D01*
X-3604626Y1867511D01*
X-3599290Y1871389D01*
X-3594873Y1876294D01*
X-3594868Y1876299D01*
X-3475922Y2008403D01*
X-3475921Y2008404D01*
X-3471503Y2013311D01*
X-3468204Y2019024D01*
X-3468201Y2019029D01*
X-3379320Y2172976D01*
X-3379319Y2172977D01*
X-3376016Y2178699D01*
X-3373977Y2184973D01*
X-3373973Y2184983D01*
X-3319040Y2354049D01*
X-3319038Y2354056D01*
X-3317001Y2360327D01*
X-3308958Y2436847D01*
X-3297729Y2543690D01*
X-3297039Y2550255D01*
X-3305396Y2629769D01*
X-3316311Y2733619D01*
X-3317001Y2740183D01*
X-3319038Y2746455D01*
X-3319040Y2746460D01*
X-3369724Y2902448D01*
X-2844949Y2902448D01*
X-2824987Y2712520D01*
X-2822947Y2706242D01*
X-2770131Y2543690D01*
X-2765972Y2530892D01*
X-2670485Y2365504D01*
X-2542698Y2223582D01*
X-2537356Y2219701D01*
X-2537353Y2219698D01*
X-2469344Y2170287D01*
X-2388197Y2111330D01*
X-2213733Y2033654D01*
X-2207280Y2032282D01*
X-2207276Y2032281D01*
X-2033388Y1995320D01*
X-2033385Y1995319D01*
X-2026932Y1993948D01*
X-1842561Y1993948D01*
X-1835958Y1993948D01*
X-1829505Y1995319D01*
X-1829501Y1995320D01*
X-1655613Y2032281D01*
X-1655606Y2032283D01*
X-1649157Y2033654D01*
X-1643126Y2036339D01*
X-1480723Y2108645D01*
X-1480720Y2108646D01*
X-1474693Y2111330D01*
X-1469351Y2115211D01*
X-1325536Y2219698D01*
X-1325528Y2219704D01*
X-1320192Y2223582D01*
X-1315775Y2228487D01*
X-1315770Y2228492D01*
X-1196824Y2360596D01*
X-1196823Y2360597D01*
X-1192405Y2365504D01*
X-1189106Y2371217D01*
X-1189103Y2371222D01*
X-1100222Y2525169D01*
X-1100221Y2525170D01*
X-1096918Y2530892D01*
X-1094879Y2537166D01*
X-1094875Y2537176D01*
X-1039942Y2706242D01*
X-1039940Y2706249D01*
X-1037903Y2712520D01*
X-1034995Y2740183D01*
X-1018631Y2895883D01*
X-1017941Y2902448D01*
X-1020463Y2926446D01*
X-1037213Y3085812D01*
X-1037903Y3092376D01*
X-1039940Y3098648D01*
X-1039942Y3098653D01*
X-1094875Y3267719D01*
X-1094878Y3267726D01*
X-1096918Y3274004D01*
X-1192405Y3439392D01*
X-1218710Y3468607D01*
X-1249159Y3531036D01*
X-1241899Y3600116D01*
X-1199135Y3654851D01*
X-1172092Y3674498D01*
X-1172077Y3674511D01*
X-1166747Y3678384D01*
X-1162331Y3683288D01*
X-1162327Y3683292D01*
X-1043379Y3815398D01*
X-1043375Y3815403D01*
X-1038960Y3820306D01*
X-1017455Y3857554D01*
X-987366Y3909669D01*
X-941246Y3955788D01*
X-878247Y3972668D01*
X-815247Y3955787D01*
X-769129Y3909669D01*
X-739040Y3857554D01*
X-611253Y3715632D01*
X-605911Y3711751D01*
X-605908Y3711748D01*
X-543644Y3666511D01*
X-456752Y3603380D01*
X-282288Y3525704D01*
X-275835Y3524332D01*
X-275831Y3524331D01*
X-101943Y3487370D01*
X-101940Y3487369D01*
X-95487Y3485998D01*
X88884Y3485998D01*
X95487Y3485998D01*
X101940Y3487369D01*
X101943Y3487370D01*
X275831Y3524331D01*
X275835Y3524332D01*
X282288Y3525704D01*
X456752Y3603380D01*
X543644Y3666511D01*
X605908Y3711748D01*
X605911Y3711751D01*
X611253Y3715632D01*
X739040Y3857554D01*
X834527Y4022942D01*
X837309Y4031502D01*
X883720Y4174341D01*
X893542Y4204570D01*
X913504Y4394498D01*
X910206Y4425872D01*
X914395Y4473766D01*
X936221Y4516608D01*
X965405Y4541982D01*
X964752Y4542882D01*
X1113908Y4651250D01*
X1113911Y4651253D01*
X1119253Y4655134D01*
X1247040Y4797056D01*
X1342527Y4962444D01*
X1356817Y5006422D01*
X1399502Y5137794D01*
X1401542Y5144072D01*
X1421504Y5334000D01*
X1401542Y5523928D01*
X1342527Y5705556D01*
X1247040Y5870944D01*
X1119253Y6012866D01*
X988821Y6107631D01*
X2735998Y6107631D01*
X2755960Y5917703D01*
X2757997Y5911432D01*
X2757999Y5911425D01*
X2812932Y5742359D01*
X2812936Y5742349D01*
X2814975Y5736075D01*
X2818278Y5730353D01*
X2818279Y5730352D01*
X2907160Y5576405D01*
X2907163Y5576400D01*
X2910462Y5570687D01*
X2914880Y5565780D01*
X2914881Y5565779D01*
X3033827Y5433675D01*
X3033832Y5433670D01*
X3038249Y5428765D01*
X3043585Y5424887D01*
X3043593Y5424881D01*
X3159645Y5340565D01*
X3192750Y5316513D01*
X3198777Y5313829D01*
X3198780Y5313828D01*
X3361183Y5241522D01*
X3367214Y5238837D01*
X3373663Y5237466D01*
X3373670Y5237464D01*
X3547558Y5200503D01*
X3547562Y5200502D01*
X3554015Y5199131D01*
X3738386Y5199131D01*
X3744989Y5199131D01*
X3751442Y5200502D01*
X3751445Y5200503D01*
X3925333Y5237464D01*
X3925337Y5237465D01*
X3931790Y5238837D01*
X4106254Y5316513D01*
X4177559Y5368319D01*
X4255410Y5424881D01*
X4255413Y5424884D01*
X4260755Y5428765D01*
X4388542Y5570687D01*
X4484029Y5736075D01*
X4543044Y5917703D01*
X4563006Y6107631D01*
X4543044Y6297559D01*
X4484029Y6479187D01*
X4388542Y6644575D01*
X4260755Y6786497D01*
X4106254Y6898749D01*
X3931790Y6976425D01*
X3744989Y7016131D01*
X3554015Y7016131D01*
X3367214Y6976425D01*
X3192750Y6898749D01*
X3038249Y6786497D01*
X2910462Y6644575D01*
X2814975Y6479187D01*
X2812935Y6472909D01*
X2812932Y6472902D01*
X2757999Y6303836D01*
X2757997Y6303831D01*
X2755960Y6297559D01*
X2755270Y6290995D01*
X2744430Y6187860D01*
X2735998Y6107631D01*
X988821Y6107631D01*
X964752Y6125118D01*
X790288Y6202794D01*
X603487Y6242500D01*
X412513Y6242500D01*
X225712Y6202794D01*
X51248Y6125118D01*
X-103253Y6012866D01*
X-231040Y5870944D01*
X-326527Y5705556D01*
X-385542Y5523928D01*
X-405504Y5334000D01*
X-403384Y5313828D01*
X-402206Y5302627D01*
X-406398Y5254721D01*
X-428232Y5211874D01*
X-457407Y5186517D01*
X-456752Y5185616D01*
X-611253Y5073364D01*
X-739040Y4931442D01*
X-790634Y4842078D01*
X-836751Y4795960D01*
X-899751Y4779079D01*
X-962751Y4795959D01*
X-1008871Y4842078D01*
X-1008872Y4842080D01*
X-1038960Y4894194D01*
X-1166747Y5036116D01*
X-1321248Y5148368D01*
X-1495712Y5226044D01*
X-1682513Y5265750D01*
X-1873487Y5265750D01*
X-2060288Y5226044D01*
X-2234752Y5148368D01*
X-2389253Y5036116D01*
X-2517040Y4894194D01*
X-2612527Y4728806D01*
X-2671542Y4547178D01*
X-2691504Y4357250D01*
X-2671542Y4167322D01*
X-2669502Y4161044D01*
X-2616567Y3998126D01*
X-2612527Y3985694D01*
X-2517040Y3820306D01*
X-2490733Y3791089D01*
X-2460284Y3728661D01*
X-2467545Y3659580D01*
X-2510308Y3604846D01*
X-2542698Y3581314D01*
X-2670485Y3439392D01*
X-2765972Y3274004D01*
X-2824987Y3092376D01*
X-2844949Y2902448D01*
X-3369724Y2902448D01*
X-3373973Y2915526D01*
X-3373976Y2915533D01*
X-3376016Y2921811D01*
X-3471503Y3087199D01*
X-3599290Y3229121D01*
X-3625129Y3247894D01*
X-3684590Y3291095D01*
X-3753791Y3341373D01*
X-3928255Y3419049D01*
X-4115056Y3458755D01*
X-4306030Y3458755D01*
X-4492831Y3419049D01*
X-4667295Y3341373D01*
X-4821796Y3229121D01*
X-4887560Y3156081D01*
X-4939755Y3121404D01*
X-5002205Y3116159D01*
X-5059457Y3141649D01*
X-5097347Y3191567D01*
X-5106503Y3253565D01*
X-5088755Y3422435D01*
X-5088065Y3429000D01*
X-5104481Y3585193D01*
X-5107337Y3612364D01*
X-5108027Y3618928D01*
X-5110064Y3625200D01*
X-5110066Y3625205D01*
X-5164999Y3794271D01*
X-5165002Y3794278D01*
X-5167042Y3800556D01*
X-5262529Y3965944D01*
X-5390316Y4107866D01*
X-5544817Y4220118D01*
X-5719281Y4297794D01*
X-5906082Y4337500D01*
X-6097056Y4337500D01*
X-6283857Y4297794D01*
X-6458321Y4220118D01*
X-6612822Y4107866D01*
X-6740609Y3965944D01*
X-6836096Y3800556D01*
X-6895111Y3618928D01*
X-6915073Y3429000D01*
X-6895111Y3239072D01*
X-6886387Y3212223D01*
X-6845314Y3085812D01*
X-6836096Y3057444D01*
X-6740609Y2892056D01*
X-6627811Y2766781D01*
X-6612822Y2750134D01*
X-6614301Y2748801D01*
X-6583057Y2699270D01*
X-6582167Y2630876D01*
X-6617143Y2572095D01*
X-6677674Y2540248D01*
X-6755342Y2523740D01*
X-6929806Y2446064D01*
X-7084307Y2333812D01*
X-7212094Y2191890D01*
X-7307581Y2026502D01*
X-7366596Y1844874D01*
X-7386558Y1654946D01*
X-12236100Y1654946D01*
X-11715716Y2556767D01*
X-11671873Y2601557D01*
X-11611876Y2619682D01*
X-11550568Y2606658D01*
X-11503120Y2565707D01*
X-11481272Y2506963D01*
X-11474563Y2443125D01*
X-11415548Y2261497D01*
X-11320061Y2096109D01*
X-11192274Y1954187D01*
X-11186932Y1950306D01*
X-11186929Y1950303D01*
X-11109078Y1893741D01*
X-11037773Y1841935D01*
X-10863309Y1764259D01*
X-10856856Y1762887D01*
X-10856852Y1762886D01*
X-10682964Y1725925D01*
X-10682961Y1725924D01*
X-10676508Y1724553D01*
X-10492137Y1724553D01*
X-10485534Y1724553D01*
X-10479081Y1725924D01*
X-10479077Y1725925D01*
X-10305189Y1762886D01*
X-10305182Y1762888D01*
X-10298733Y1764259D01*
X-10292702Y1766944D01*
X-10130299Y1839250D01*
X-10130296Y1839251D01*
X-10124269Y1841935D01*
X-10111584Y1851151D01*
X-9975112Y1950303D01*
X-9975104Y1950309D01*
X-9969768Y1954187D01*
X-9965351Y1959092D01*
X-9965346Y1959097D01*
X-9846400Y2091201D01*
X-9846399Y2091202D01*
X-9841981Y2096109D01*
X-9838682Y2101822D01*
X-9838679Y2101827D01*
X-9749798Y2255774D01*
X-9749797Y2255775D01*
X-9746494Y2261497D01*
X-9744455Y2267771D01*
X-9744451Y2267781D01*
X-9689518Y2436847D01*
X-9689516Y2436854D01*
X-9687479Y2443125D01*
X-9686091Y2456326D01*
X-9668207Y2626488D01*
X-9667517Y2633053D01*
X-9679682Y2748801D01*
X-9686789Y2816417D01*
X-9687479Y2822981D01*
X-9689516Y2829253D01*
X-9689518Y2829258D01*
X-9744451Y2998324D01*
X-9744454Y2998331D01*
X-9746494Y3004609D01*
X-9829417Y3148236D01*
X-9838679Y3164278D01*
X-9841981Y3169997D01*
X-9969768Y3311919D01*
X-9999454Y3333487D01*
X-10034846Y3359201D01*
X-10124269Y3424171D01*
X-10298733Y3501847D01*
X-10485534Y3541553D01*
X-10676508Y3541553D01*
X-10863309Y3501847D01*
X-10922411Y3475533D01*
X-10984198Y3465080D01*
X-11043378Y3485684D01*
X-11085314Y3532248D01*
X-11099634Y3593254D01*
X-11082795Y3653613D01*
X-9393108Y6581825D01*
X-8055571Y6581825D01*
X-8035609Y6391897D01*
X-8033569Y6385619D01*
X-7986621Y6241127D01*
X-7976594Y6210269D01*
X-7881107Y6044881D01*
X-7753320Y5902959D01*
X-7747978Y5899078D01*
X-7747975Y5899075D01*
X-7701384Y5865225D01*
X-7598819Y5790707D01*
X-7424355Y5713031D01*
X-7417902Y5711659D01*
X-7417898Y5711658D01*
X-7244010Y5674697D01*
X-7244007Y5674696D01*
X-7237554Y5673325D01*
X-7053183Y5673325D01*
X-7046580Y5673325D01*
X-7040127Y5674696D01*
X-7040123Y5674697D01*
X-6866235Y5711658D01*
X-6866228Y5711660D01*
X-6859779Y5713031D01*
X-6808021Y5736075D01*
X-6691345Y5788022D01*
X-6691342Y5788023D01*
X-6685315Y5790707D01*
X-6679973Y5794588D01*
X-6536158Y5899075D01*
X-6536150Y5899081D01*
X-6530814Y5902959D01*
X-6526397Y5907864D01*
X-6526392Y5907869D01*
X-6407446Y6039973D01*
X-6407445Y6039974D01*
X-6403027Y6044881D01*
X-6399728Y6050594D01*
X-6399725Y6050599D01*
X-6310844Y6204546D01*
X-6310843Y6204547D01*
X-6307540Y6210269D01*
X-6305501Y6216543D01*
X-6305497Y6216553D01*
X-6251068Y6384068D01*
X-4757572Y6384068D01*
X-4737610Y6194140D01*
X-4735570Y6187862D01*
X-4689113Y6044881D01*
X-4678595Y6012512D01*
X-4583108Y5847124D01*
X-4455321Y5705202D01*
X-4449979Y5701321D01*
X-4449976Y5701318D01*
X-4372125Y5644756D01*
X-4300820Y5592950D01*
X-4126356Y5515274D01*
X-4119903Y5513902D01*
X-4119899Y5513901D01*
X-3946011Y5476940D01*
X-3946008Y5476939D01*
X-3939555Y5475568D01*
X-3755184Y5475568D01*
X-3748581Y5475568D01*
X-3742128Y5476939D01*
X-3742124Y5476940D01*
X-3568236Y5513901D01*
X-3568229Y5513903D01*
X-3561780Y5515274D01*
X-3555749Y5517959D01*
X-3393346Y5590265D01*
X-3393343Y5590266D01*
X-3387316Y5592950D01*
X-3381974Y5596831D01*
X-3238159Y5701318D01*
X-3238151Y5701324D01*
X-3232815Y5705202D01*
X-3228398Y5710107D01*
X-3228393Y5710112D01*
X-3109447Y5842216D01*
X-3109446Y5842217D01*
X-3105028Y5847124D01*
X-3101729Y5852837D01*
X-3101726Y5852842D01*
X-3012845Y6006789D01*
X-3012844Y6006790D01*
X-3009541Y6012512D01*
X-3007502Y6018786D01*
X-3007498Y6018796D01*
X-2952566Y6187860D01*
X-2952565Y6187864D01*
X-2950526Y6194140D01*
X-2945330Y6243574D01*
X-2921956Y6304464D01*
X-2871269Y6345510D01*
X-2716998Y6414196D01*
X-2716995Y6414197D01*
X-2710968Y6416881D01*
X-2705626Y6420762D01*
X-2561811Y6525249D01*
X-2561803Y6525255D01*
X-2556467Y6529133D01*
X-2552050Y6534038D01*
X-2552045Y6534043D01*
X-2433099Y6666147D01*
X-2433098Y6666148D01*
X-2428680Y6671055D01*
X-2425381Y6676768D01*
X-2425378Y6676773D01*
X-2336497Y6830720D01*
X-2336496Y6830721D01*
X-2333193Y6836443D01*
X-2331154Y6842717D01*
X-2331150Y6842727D01*
X-2276217Y7011793D01*
X-2276215Y7011800D01*
X-2274178Y7018071D01*
X-2269054Y7066817D01*
X-2254906Y7201434D01*
X-2254216Y7207999D01*
X-2274178Y7397927D01*
X-2276215Y7404199D01*
X-2276217Y7404204D01*
X-2331150Y7573270D01*
X-2331153Y7573277D01*
X-2333193Y7579555D01*
X-2348146Y7605455D01*
X-1294159Y7605455D01*
X-1274197Y7415527D01*
X-1215182Y7233899D01*
X-1119695Y7068511D01*
X-991908Y6926589D01*
X-986566Y6922708D01*
X-986563Y6922705D01*
X-957284Y6901433D01*
X-837407Y6814337D01*
X-662943Y6736661D01*
X-656490Y6735289D01*
X-656486Y6735288D01*
X-482598Y6698327D01*
X-482595Y6698326D01*
X-476142Y6696955D01*
X-291771Y6696955D01*
X-285168Y6696955D01*
X-278715Y6698326D01*
X-278711Y6698327D01*
X-104823Y6735288D01*
X-104816Y6735290D01*
X-98367Y6736661D01*
X-69891Y6749339D01*
X70066Y6811652D01*
X76097Y6814337D01*
X195974Y6901433D01*
X225253Y6922705D01*
X225256Y6922708D01*
X230598Y6926589D01*
X358385Y7068511D01*
X453872Y7233899D01*
X512887Y7415527D01*
X532849Y7605455D01*
X512887Y7795383D01*
X453872Y7977011D01*
X358385Y8142399D01*
X308781Y8197489D01*
X279173Y8255599D01*
X282585Y8320731D01*
X317315Y8374214D01*
X319753Y8375985D01*
X447540Y8517907D01*
X543027Y8683295D01*
X602042Y8864923D01*
X622004Y9054851D01*
X602042Y9244779D01*
X543027Y9426407D01*
X447540Y9591795D01*
X443110Y9596714D01*
X442255Y9597892D01*
X419540Y9653546D01*
X425194Y9713391D01*
X457931Y9763806D01*
X510301Y9793317D01*
X570383Y9795206D01*
X666141Y9774852D01*
X666151Y9774850D01*
X672601Y9773480D01*
X856972Y9773480D01*
X863575Y9773480D01*
X870028Y9774851D01*
X870031Y9774852D01*
X1043919Y9811813D01*
X1043923Y9811814D01*
X1050376Y9813186D01*
X1224840Y9890862D01*
X1297308Y9943513D01*
X1373996Y9999230D01*
X1373999Y9999233D01*
X1379341Y10003114D01*
X1507128Y10145036D01*
X1602615Y10310424D01*
X1661630Y10492052D01*
X1681592Y10681980D01*
X1661630Y10871908D01*
X1602615Y11053536D01*
X1507128Y11218924D01*
X1379341Y11360846D01*
X1224840Y11473098D01*
X1050376Y11550774D01*
X863575Y11590480D01*
X672601Y11590480D01*
X485800Y11550774D01*
X311336Y11473098D01*
X245163Y11425020D01*
X198464Y11391091D01*
X156835Y11360846D01*
X29048Y11218924D01*
X-66439Y11053536D01*
X-125454Y10871908D01*
X-145416Y10681980D01*
X-125454Y10492052D01*
X-66439Y10310424D01*
X29048Y10145036D01*
X33472Y10140122D01*
X34335Y10138935D01*
X57049Y10083281D01*
X51393Y10023436D01*
X18655Y9973022D01*
X-33714Y9943513D01*
X-93796Y9941624D01*
X-196013Y9963351D01*
X-386987Y9963351D01*
X-573788Y9923645D01*
X-748252Y9845969D01*
X-902753Y9733717D01*
X-1030540Y9591795D01*
X-1126027Y9426407D01*
X-1185042Y9244779D01*
X-1205004Y9054851D01*
X-1185042Y8864923D01*
X-1126027Y8683295D01*
X-1030540Y8517907D01*
X-980936Y8462816D01*
X-951327Y8404704D01*
X-954741Y8339570D01*
X-989474Y8286089D01*
X-991908Y8284321D01*
X-1119695Y8142399D01*
X-1215182Y7977011D01*
X-1274197Y7795383D01*
X-1294159Y7605455D01*
X-2348146Y7605455D01*
X-2428680Y7744943D01*
X-2556467Y7886865D01*
X-2710968Y7999117D01*
X-2885432Y8076793D01*
X-3072233Y8116499D01*
X-3263207Y8116499D01*
X-3450008Y8076793D01*
X-3624472Y7999117D01*
X-3778973Y7886865D01*
X-3906760Y7744943D01*
X-4002247Y7579555D01*
X-4061262Y7397927D01*
X-4066457Y7348494D01*
X-4089831Y7287603D01*
X-4140518Y7246556D01*
X-4300820Y7175186D01*
X-4455321Y7062934D01*
X-4583108Y6921012D01*
X-4678595Y6755624D01*
X-4737610Y6573996D01*
X-4757572Y6384068D01*
X-6251068Y6384068D01*
X-6250564Y6385619D01*
X-6250562Y6385626D01*
X-6248525Y6391897D01*
X-6239350Y6479187D01*
X-6229253Y6575260D01*
X-6228563Y6581825D01*
X-6238542Y6676773D01*
X-6247835Y6765189D01*
X-6248525Y6771753D01*
X-6250562Y6778025D01*
X-6250564Y6778030D01*
X-6305497Y6947096D01*
X-6305500Y6947103D01*
X-6307540Y6953381D01*
X-6403027Y7118769D01*
X-6530814Y7260691D01*
X-6685315Y7372943D01*
X-6859779Y7450619D01*
X-7046580Y7490325D01*
X-7237554Y7490325D01*
X-7424355Y7450619D01*
X-7598819Y7372943D01*
X-7753320Y7260691D01*
X-7881107Y7118769D01*
X-7976594Y6953381D01*
X-8035609Y6771753D01*
X-8055571Y6581825D01*
X-9393108Y6581825D01*
X-5847052Y12727110D01*
X-5798784Y12774460D01*
X-5732989Y12790040D01*
X-5668613Y12769363D01*
X-5624194Y12718385D01*
X-5612525Y12651786D01*
X-5615344Y12623167D01*
X-5614737Y12617004D01*
X-5596749Y12434365D01*
X-5595872Y12425466D01*
X-5538205Y12235363D01*
X-5444559Y12060163D01*
X-5318532Y11906599D01*
X-5164968Y11780572D01*
X-5159509Y11777654D01*
X-5041997Y11714843D01*
X-4989768Y11686926D01*
X-4983844Y11685129D01*
X-4805587Y11631055D01*
X-4805583Y11631054D01*
X-4799665Y11629259D01*
X-4793511Y11628652D01*
X-4793502Y11628651D01*
X-4731091Y11622505D01*
X-4668985Y11598760D01*
X-4632824Y11553266D01*
X-4632025Y11553754D01*
X-4628121Y11547350D01*
X-4627615Y11546712D01*
X-4623788Y11537775D01*
X-4618051Y11530826D01*
X-4618050Y11530825D01*
X-4552078Y11450923D01*
X-4530690Y11425020D01*
X-4524326Y11420373D01*
X-4524324Y11420371D01*
X-4486697Y11392896D01*
X-4481496Y11389099D01*
X-4478570Y11387409D01*
X-4478569Y11387409D01*
X-3534154Y10842150D01*
X-3534149Y10842147D01*
X-3531228Y10840461D01*
X-3528146Y10839098D01*
X-3528137Y10839093D01*
X-3482729Y10819006D01*
X-3482724Y10819004D01*
X-3475523Y10815819D01*
X-3467751Y10814512D01*
X-3340212Y10793065D01*
X-3340209Y10793064D01*
X-3331325Y10791571D01*
X-3322383Y10792640D01*
X-3322378Y10792640D01*
X-3195081Y10807861D01*
X-3195077Y10807862D01*
X-3186137Y10808931D01*
X-3177858Y10812476D01*
X-3177855Y10812477D01*
X-3113260Y10840138D01*
X-3049148Y10849472D01*
X-2988874Y10825715D01*
X-2948372Y10775148D01*
X-2938351Y10711141D01*
X-2945504Y10643086D01*
X-2925542Y10453158D01*
X-2921882Y10441895D01*
X-2919458Y10372476D01*
X-2954188Y10312321D01*
X-3015517Y10279711D01*
X-3076288Y10266794D01*
X-3250752Y10189118D01*
X-3405253Y10076866D01*
X-3533040Y9934944D01*
X-3628527Y9769556D01*
X-3687542Y9587928D01*
X-3707504Y9398000D01*
X-3687542Y9208072D01*
X-3628527Y9026444D01*
X-3533040Y8861056D01*
X-3405253Y8719134D01*
X-3399911Y8715253D01*
X-3399908Y8715250D01*
X-3355925Y8683295D01*
X-3250752Y8606882D01*
X-3076288Y8529206D01*
X-3069835Y8527834D01*
X-3069831Y8527833D01*
X-2895943Y8490872D01*
X-2895940Y8490871D01*
X-2889487Y8489500D01*
X-2705116Y8489500D01*
X-2698513Y8489500D01*
X-2692060Y8490871D01*
X-2692056Y8490872D01*
X-2518168Y8527833D01*
X-2518161Y8527835D01*
X-2511712Y8529206D01*
X-2505681Y8531891D01*
X-2343278Y8604197D01*
X-2343275Y8604198D01*
X-2337248Y8606882D01*
X-2331906Y8610763D01*
X-2188091Y8715250D01*
X-2188083Y8715256D01*
X-2182747Y8719134D01*
X-2178330Y8724039D01*
X-2178325Y8724044D01*
X-2059379Y8856148D01*
X-2059378Y8856149D01*
X-2054960Y8861056D01*
X-2051661Y8866769D01*
X-2051658Y8866774D01*
X-1962777Y9020721D01*
X-1962776Y9020722D01*
X-1959473Y9026444D01*
X-1957434Y9032718D01*
X-1957430Y9032728D01*
X-1902497Y9201794D01*
X-1902495Y9201801D01*
X-1900458Y9208072D01*
X-1880496Y9398000D01*
X-1900458Y9587928D01*
X-1902496Y9594200D01*
X-1902497Y9594205D01*
X-1904119Y9599196D01*
X-1906541Y9668612D01*
X-1871811Y9728764D01*
X-1810483Y9761373D01*
X-1756174Y9772917D01*
X-1756161Y9772921D01*
X-1749712Y9774292D01*
X-1662354Y9813186D01*
X-1581278Y9849283D01*
X-1581275Y9849284D01*
X-1575248Y9851968D01*
X-1569906Y9855849D01*
X-1426091Y9960336D01*
X-1426083Y9960342D01*
X-1420747Y9964220D01*
X-1416330Y9969125D01*
X-1416325Y9969130D01*
X-1297379Y10101234D01*
X-1297378Y10101235D01*
X-1292960Y10106142D01*
X-1289661Y10111855D01*
X-1289658Y10111860D01*
X-1200777Y10265807D01*
X-1200776Y10265808D01*
X-1197473Y10271530D01*
X-1195434Y10277804D01*
X-1195430Y10277814D01*
X-1140497Y10446880D01*
X-1140495Y10446887D01*
X-1138458Y10453158D01*
X-1118496Y10643086D01*
X-1134102Y10791571D01*
X-1137768Y10826450D01*
X-1138458Y10833014D01*
X-1140495Y10839286D01*
X-1140497Y10839291D01*
X-1172957Y10939190D01*
X-1176371Y11004322D01*
X-1146762Y11062435D01*
X-1108188Y11105276D01*
X-1108183Y11105281D01*
X-1103769Y11110185D01*
X-1082598Y11146853D01*
X-1011586Y11269850D01*
X-1011585Y11269851D01*
X-1008282Y11275573D01*
X-1006243Y11281847D01*
X-1006239Y11281857D01*
X-951306Y11450923D01*
X-951304Y11450930D01*
X-949267Y11457201D01*
X-939714Y11548088D01*
X-929995Y11640564D01*
X-929305Y11647129D01*
X-933795Y11689845D01*
X-948577Y11830493D01*
X-949267Y11837057D01*
X-951304Y11843329D01*
X-951306Y11843334D01*
X-1006239Y12012400D01*
X-1006242Y12012407D01*
X-1008282Y12018685D01*
X-1103769Y12184073D01*
X-1231556Y12325995D01*
X-1386057Y12438247D01*
X-1560521Y12515923D01*
X-1747322Y12555629D01*
X-1804839Y12555629D01*
X-1861490Y12569083D01*
X-1906043Y12606571D01*
X-1928984Y12660088D01*
X-1925413Y12718205D01*
X-1875002Y12884386D01*
X-1874999Y12884399D01*
X-1873204Y12890318D01*
X-1872598Y12896469D01*
X-1872596Y12896480D01*
X-1854339Y13081856D01*
X-1853732Y13088019D01*
X-1860370Y13155418D01*
X-1855551Y13204344D01*
X-1832376Y13247702D01*
X-1794373Y13278890D01*
X-1674850Y13342776D01*
X-1664597Y13349627D01*
X-1520684Y13467733D01*
X-1511973Y13476444D01*
X-1393867Y13620357D01*
X-1387016Y13630610D01*
X-1299253Y13794802D01*
X-1294538Y13806185D01*
X-1260089Y13919749D01*
X-1259384Y13931217D01*
X-1270560Y13933872D01*
X-2278642Y13933872D01*
X-2338037Y13948750D01*
X-2419507Y13992296D01*
X-2468186Y14038641D01*
X-2486112Y14103418D01*
X-2486112Y14458462D01*
X-1978112Y14458462D01*
X-1974605Y14445378D01*
X-1961522Y14441872D01*
X-1270560Y14441872D01*
X-1259384Y14444526D01*
X-1260089Y14455994D01*
X-1294538Y14569558D01*
X-1299253Y14580941D01*
X-1387016Y14745133D01*
X-1393867Y14755386D01*
X-1511973Y14899299D01*
X-1520684Y14908010D01*
X-1664597Y15026116D01*
X-1674850Y15032967D01*
X-1839042Y15120730D01*
X-1850425Y15125445D01*
X-1963989Y15159894D01*
X-1975457Y15160599D01*
X-1978112Y15149424D01*
X-1978112Y14458462D01*
X-2486112Y14458462D01*
X-2486112Y15122957D01*
X-2474235Y15176361D01*
X-2440842Y15219697D01*
X-2422688Y15229069D01*
X-2414351Y15237203D01*
X-2417454Y15250268D01*
X-2486868Y15380133D01*
X-2493719Y15390386D01*
X-2611825Y15534299D01*
X-2620536Y15543010D01*
X-2764449Y15661116D01*
X-2774702Y15667967D01*
X-2938894Y15755730D01*
X-2950277Y15760445D01*
X-3063841Y15794894D01*
X-3075309Y15795599D01*
X-3077964Y15784424D01*
X-3077964Y14694872D01*
X-3094845Y14631872D01*
X-3140964Y14585753D01*
X-3203964Y14568872D01*
X-3378494Y14568872D01*
X-3437890Y14583750D01*
X-3461059Y14596134D01*
X-3579160Y14659260D01*
X-3769263Y14716927D01*
X-3775424Y14717533D01*
X-3775425Y14717534D01*
X-3960801Y14735792D01*
X-3966964Y14736399D01*
X-4164665Y14716927D01*
X-4354768Y14659260D01*
X-4511475Y14575498D01*
X-4574161Y14560664D01*
X-4635989Y14578754D01*
X-4680795Y14625039D01*
X-4696866Y14687422D01*
X-4680003Y14749595D01*
X-4504820Y15053185D01*
X-4467940Y15093436D01*
X-4417496Y15114309D01*
X-4362959Y15111886D01*
X-4314564Y15086623D01*
X-4306694Y15080001D01*
X-4293516Y15076872D01*
X-3602554Y15076872D01*
X-3589470Y15080378D01*
X-3585964Y15093462D01*
X-3585964Y15784424D01*
X-3588618Y15795599D01*
X-3600086Y15794894D01*
X-3713650Y15760445D01*
X-3725032Y15755730D01*
X-3877445Y15674264D01*
X-3940133Y15659429D01*
X-4001961Y15677518D01*
X-4046767Y15723804D01*
X-4062838Y15786187D01*
X-4045975Y15848360D01*
X-1868634Y19621673D01*
X-1822521Y19667806D01*
X-1759518Y19684699D01*
X-1696510Y19667824D01*
X-1650384Y19621704D01*
X-1633500Y19558699D01*
X-1633500Y18506362D01*
X-1626989Y18445799D01*
X-1575889Y18308796D01*
X-1570489Y18301582D01*
X-1566171Y18293675D01*
X-1567952Y18292702D01*
X-1548619Y18244815D01*
X-1557232Y18180895D01*
X-1558319Y18178269D01*
X-1561241Y18172804D01*
X-1618908Y17982701D01*
X-1638380Y17785000D01*
X-1618908Y17587299D01*
X-1561241Y17397196D01*
X-1467595Y17221996D01*
X-1465099Y17218954D01*
X-1446718Y17174584D01*
X-1446718Y17125416D01*
X-1465099Y17081045D01*
X-1467595Y17078004D01*
X-1561241Y16902804D01*
X-1618908Y16712701D01*
X-1638380Y16515000D01*
X-1618908Y16317299D01*
X-1561241Y16127196D01*
X-1467595Y15951996D01*
X-1341568Y15798432D01*
X-1336788Y15794509D01*
X-1324499Y15784424D01*
X-1188004Y15672405D01*
X-1182545Y15669487D01*
X-1160315Y15657605D01*
X-1012804Y15578759D01*
X-1006880Y15576962D01*
X-828623Y15522888D01*
X-828619Y15522887D01*
X-822701Y15521092D01*
X-816547Y15520485D01*
X-816538Y15520484D01*
X-631163Y15502227D01*
X-625000Y15501620D01*
X-618837Y15502227D01*
X-433461Y15520484D01*
X-433450Y15520486D01*
X-427299Y15521092D01*
X-421382Y15522886D01*
X-421376Y15522888D01*
X-243119Y15576962D01*
X-243116Y15576963D01*
X-237196Y15578759D01*
X-231738Y15581676D01*
X-231734Y15581678D01*
X-67451Y15669488D01*
X-67441Y15669494D01*
X-61996Y15672405D01*
X-58953Y15674901D01*
X-14579Y15693280D01*
X34579Y15693280D01*
X78953Y15674901D01*
X81996Y15672405D01*
X87441Y15669494D01*
X87451Y15669488D01*
X251734Y15581678D01*
X251738Y15581676D01*
X257196Y15578759D01*
X263116Y15576963D01*
X263119Y15576962D01*
X441376Y15522888D01*
X441382Y15522886D01*
X447299Y15521092D01*
X453450Y15520486D01*
X453461Y15520484D01*
X638837Y15502227D01*
X645000Y15501620D01*
X651163Y15502227D01*
X836538Y15520484D01*
X836547Y15520485D01*
X842701Y15521092D01*
X848619Y15522887D01*
X848623Y15522888D01*
X1026880Y15576962D01*
X1032804Y15578759D01*
X1180315Y15657605D01*
X1202545Y15669487D01*
X1208004Y15672405D01*
X1344499Y15784424D01*
X1356788Y15794509D01*
X1361568Y15798432D01*
X1487595Y15951996D01*
X1581241Y16127196D01*
X1638908Y16317299D01*
X1658380Y16515000D01*
X1638908Y16712701D01*
X1581241Y16902804D01*
X1487595Y17078004D01*
X1485099Y17081045D01*
X1466718Y17125416D01*
X1466718Y17174584D01*
X1485099Y17218954D01*
X1487595Y17221996D01*
X1581241Y17397196D01*
X1638908Y17587299D01*
X1658380Y17785000D01*
X1638908Y17982701D01*
X1581241Y18172804D01*
X1487595Y18348004D01*
X1485099Y18351045D01*
X1466718Y18395416D01*
X1466718Y18444584D01*
X1485099Y18488954D01*
X1487595Y18491996D01*
X1581241Y18667196D01*
X1638908Y18857299D01*
X1658380Y19055000D01*
X1638908Y19252701D01*
X1581241Y19442804D01*
X1487595Y19618004D01*
X1361568Y19771568D01*
X1208004Y19897595D01*
X1032804Y19991241D01*
X842701Y20048908D01*
X645000Y20068380D01*
X638837Y20067773D01*
X453461Y20049515D01*
X453460Y20049514D01*
X447299Y20048908D01*
X257196Y19991241D01*
X251733Y19988321D01*
X249102Y19987231D01*
X185168Y19978621D01*
X137303Y19997955D01*
X136328Y19996170D01*
X128416Y20000489D01*
X121204Y20005889D01*
X-15799Y20056989D01*
X-76362Y20063500D01*
X-1173638Y20063500D01*
X-1234201Y20056989D01*
X-1371204Y20005889D01*
X-1378422Y20000485D01*
X-1381267Y19998932D01*
X-1444045Y19983540D01*
X-1506196Y20001301D01*
X-1551361Y20047541D01*
X-1567656Y20110092D01*
X-1550791Y20172491D01*
X-1064687Y21014906D01*
X-1064672Y21014932D01*
X-109119Y22669999D01*
X-63000Y22716118D01*
X0Y22732999D01*
X63000Y22716118D01*
G37*
%TD.AperFunction*%
%TD*%
M02*
