%TF.GenerationSoftware,KiCad,Pcbnew,7.0.0-da2b9df05c~163~ubuntu22.04.1*%
%TF.CreationDate,2023-03-01T01:28:45+03:00*%
%TF.ProjectId,freeeeg16-alpha,66726565-6565-4673-9136-2d616c706861,rev?*%
%TF.SameCoordinates,Original*%
%TF.FileFunction,Legend,Top*%
%TF.FilePolarity,Positive*%
%FSLAX46Y46*%
G04 Gerber Fmt 4.6, Leading zero omitted, Abs format (unit mm)*
G04 Created by KiCad (PCBNEW 7.0.0-da2b9df05c~163~ubuntu22.04.1) date 2023-03-01 01:28:45*
%MOMM*%
%LPD*%
G01*
G04 APERTURE LIST*
%ADD10C,0.112500*%
%ADD11C,0.100000*%
%ADD12C,0.125000*%
%ADD13C,0.120000*%
G04 APERTURE END LIST*
D10*
X-9763513Y-7625807D02*
X-9913513Y-7625807D01*
X-9913513Y-7861521D02*
X-9913513Y-7411521D01*
X-9913513Y-7411521D02*
X-9699227Y-7411521D01*
X-9527799Y-7861521D02*
X-9527799Y-7561521D01*
X-9527799Y-7647235D02*
X-9506370Y-7604378D01*
X-9506370Y-7604378D02*
X-9484942Y-7582950D01*
X-9484942Y-7582950D02*
X-9442084Y-7561521D01*
X-9442084Y-7561521D02*
X-9399227Y-7561521D01*
X-9077799Y-7840092D02*
X-9120656Y-7861521D01*
X-9120656Y-7861521D02*
X-9206371Y-7861521D01*
X-9206371Y-7861521D02*
X-9249228Y-7840092D01*
X-9249228Y-7840092D02*
X-9270656Y-7797235D01*
X-9270656Y-7797235D02*
X-9270656Y-7625807D01*
X-9270656Y-7625807D02*
X-9249228Y-7582950D01*
X-9249228Y-7582950D02*
X-9206371Y-7561521D01*
X-9206371Y-7561521D02*
X-9120656Y-7561521D01*
X-9120656Y-7561521D02*
X-9077799Y-7582950D01*
X-9077799Y-7582950D02*
X-9056371Y-7625807D01*
X-9056371Y-7625807D02*
X-9056371Y-7668664D01*
X-9056371Y-7668664D02*
X-9270656Y-7711521D01*
X-8692085Y-7840092D02*
X-8734942Y-7861521D01*
X-8734942Y-7861521D02*
X-8820657Y-7861521D01*
X-8820657Y-7861521D02*
X-8863514Y-7840092D01*
X-8863514Y-7840092D02*
X-8884942Y-7797235D01*
X-8884942Y-7797235D02*
X-8884942Y-7625807D01*
X-8884942Y-7625807D02*
X-8863514Y-7582950D01*
X-8863514Y-7582950D02*
X-8820657Y-7561521D01*
X-8820657Y-7561521D02*
X-8734942Y-7561521D01*
X-8734942Y-7561521D02*
X-8692085Y-7582950D01*
X-8692085Y-7582950D02*
X-8670657Y-7625807D01*
X-8670657Y-7625807D02*
X-8670657Y-7668664D01*
X-8670657Y-7668664D02*
X-8884942Y-7711521D01*
X-8477800Y-7625807D02*
X-8327800Y-7625807D01*
X-8263514Y-7861521D02*
X-8477800Y-7861521D01*
X-8477800Y-7861521D02*
X-8477800Y-7411521D01*
X-8477800Y-7411521D02*
X-8263514Y-7411521D01*
X-8070657Y-7625807D02*
X-7920657Y-7625807D01*
X-7856371Y-7861521D02*
X-8070657Y-7861521D01*
X-8070657Y-7861521D02*
X-8070657Y-7411521D01*
X-8070657Y-7411521D02*
X-7856371Y-7411521D01*
X-7427799Y-7432950D02*
X-7470657Y-7411521D01*
X-7470657Y-7411521D02*
X-7534942Y-7411521D01*
X-7534942Y-7411521D02*
X-7599228Y-7432950D01*
X-7599228Y-7432950D02*
X-7642085Y-7475807D01*
X-7642085Y-7475807D02*
X-7663514Y-7518664D01*
X-7663514Y-7518664D02*
X-7684942Y-7604378D01*
X-7684942Y-7604378D02*
X-7684942Y-7668664D01*
X-7684942Y-7668664D02*
X-7663514Y-7754378D01*
X-7663514Y-7754378D02*
X-7642085Y-7797235D01*
X-7642085Y-7797235D02*
X-7599228Y-7840092D01*
X-7599228Y-7840092D02*
X-7534942Y-7861521D01*
X-7534942Y-7861521D02*
X-7492085Y-7861521D01*
X-7492085Y-7861521D02*
X-7427799Y-7840092D01*
X-7427799Y-7840092D02*
X-7406371Y-7818664D01*
X-7406371Y-7818664D02*
X-7406371Y-7668664D01*
X-7406371Y-7668664D02*
X-7492085Y-7668664D01*
X-6977799Y-7861521D02*
X-7234942Y-7861521D01*
X-7106371Y-7861521D02*
X-7106371Y-7411521D01*
X-7106371Y-7411521D02*
X-7149228Y-7475807D01*
X-7149228Y-7475807D02*
X-7192085Y-7518664D01*
X-7192085Y-7518664D02*
X-7234942Y-7540092D01*
X-6592086Y-7411521D02*
X-6677800Y-7411521D01*
X-6677800Y-7411521D02*
X-6720657Y-7432950D01*
X-6720657Y-7432950D02*
X-6742086Y-7454378D01*
X-6742086Y-7454378D02*
X-6784943Y-7518664D01*
X-6784943Y-7518664D02*
X-6806371Y-7604378D01*
X-6806371Y-7604378D02*
X-6806371Y-7775807D01*
X-6806371Y-7775807D02*
X-6784943Y-7818664D01*
X-6784943Y-7818664D02*
X-6763514Y-7840092D01*
X-6763514Y-7840092D02*
X-6720657Y-7861521D01*
X-6720657Y-7861521D02*
X-6634943Y-7861521D01*
X-6634943Y-7861521D02*
X-6592086Y-7840092D01*
X-6592086Y-7840092D02*
X-6570657Y-7818664D01*
X-6570657Y-7818664D02*
X-6549228Y-7775807D01*
X-6549228Y-7775807D02*
X-6549228Y-7668664D01*
X-6549228Y-7668664D02*
X-6570657Y-7625807D01*
X-6570657Y-7625807D02*
X-6592086Y-7604378D01*
X-6592086Y-7604378D02*
X-6634943Y-7582950D01*
X-6634943Y-7582950D02*
X-6720657Y-7582950D01*
X-6720657Y-7582950D02*
X-6763514Y-7604378D01*
X-6763514Y-7604378D02*
X-6784943Y-7625807D01*
X-6784943Y-7625807D02*
X-6806371Y-7668664D01*
X-6356372Y-7690092D02*
X-6013515Y-7690092D01*
X6080770Y-7690092D02*
X6423628Y-7690092D01*
X6830771Y-7861521D02*
X6830771Y-7625807D01*
X6830771Y-7625807D02*
X6809342Y-7582950D01*
X6809342Y-7582950D02*
X6766485Y-7561521D01*
X6766485Y-7561521D02*
X6680771Y-7561521D01*
X6680771Y-7561521D02*
X6637913Y-7582950D01*
X6830771Y-7840092D02*
X6787913Y-7861521D01*
X6787913Y-7861521D02*
X6680771Y-7861521D01*
X6680771Y-7861521D02*
X6637913Y-7840092D01*
X6637913Y-7840092D02*
X6616485Y-7797235D01*
X6616485Y-7797235D02*
X6616485Y-7754378D01*
X6616485Y-7754378D02*
X6637913Y-7711521D01*
X6637913Y-7711521D02*
X6680771Y-7690092D01*
X6680771Y-7690092D02*
X6787913Y-7690092D01*
X6787913Y-7690092D02*
X6830771Y-7668664D01*
X7109342Y-7861521D02*
X7066485Y-7840092D01*
X7066485Y-7840092D02*
X7045056Y-7797235D01*
X7045056Y-7797235D02*
X7045056Y-7411521D01*
X7280770Y-7561521D02*
X7280770Y-8011521D01*
X7280770Y-7582950D02*
X7323628Y-7561521D01*
X7323628Y-7561521D02*
X7409342Y-7561521D01*
X7409342Y-7561521D02*
X7452199Y-7582950D01*
X7452199Y-7582950D02*
X7473628Y-7604378D01*
X7473628Y-7604378D02*
X7495056Y-7647235D01*
X7495056Y-7647235D02*
X7495056Y-7775807D01*
X7495056Y-7775807D02*
X7473628Y-7818664D01*
X7473628Y-7818664D02*
X7452199Y-7840092D01*
X7452199Y-7840092D02*
X7409342Y-7861521D01*
X7409342Y-7861521D02*
X7323628Y-7861521D01*
X7323628Y-7861521D02*
X7280770Y-7840092D01*
X7687913Y-7861521D02*
X7687913Y-7411521D01*
X7880771Y-7861521D02*
X7880771Y-7625807D01*
X7880771Y-7625807D02*
X7859342Y-7582950D01*
X7859342Y-7582950D02*
X7816485Y-7561521D01*
X7816485Y-7561521D02*
X7752199Y-7561521D01*
X7752199Y-7561521D02*
X7709342Y-7582950D01*
X7709342Y-7582950D02*
X7687913Y-7604378D01*
X8287914Y-7861521D02*
X8287914Y-7625807D01*
X8287914Y-7625807D02*
X8266485Y-7582950D01*
X8266485Y-7582950D02*
X8223628Y-7561521D01*
X8223628Y-7561521D02*
X8137914Y-7561521D01*
X8137914Y-7561521D02*
X8095056Y-7582950D01*
X8287914Y-7840092D02*
X8245056Y-7861521D01*
X8245056Y-7861521D02*
X8137914Y-7861521D01*
X8137914Y-7861521D02*
X8095056Y-7840092D01*
X8095056Y-7840092D02*
X8073628Y-7797235D01*
X8073628Y-7797235D02*
X8073628Y-7754378D01*
X8073628Y-7754378D02*
X8095056Y-7711521D01*
X8095056Y-7711521D02*
X8137914Y-7690092D01*
X8137914Y-7690092D02*
X8245056Y-7690092D01*
X8245056Y-7690092D02*
X8287914Y-7668664D01*
D11*
%TO.C,U13*%
X12411035Y-6677764D02*
X12691462Y-6839669D01*
X12691462Y-6839669D02*
X12733977Y-6842221D01*
X12733977Y-6842221D02*
X12759997Y-6835249D01*
X12759997Y-6835249D02*
X12795540Y-6811781D01*
X12795540Y-6811781D02*
X12833636Y-6745799D01*
X12833636Y-6745799D02*
X12836187Y-6703283D01*
X12836187Y-6703283D02*
X12829216Y-6677264D01*
X12829216Y-6677264D02*
X12805748Y-6641720D01*
X12805748Y-6641720D02*
X12525321Y-6479816D01*
X13071731Y-6333405D02*
X12957445Y-6531354D01*
X13014588Y-6432379D02*
X12668178Y-6232379D01*
X12668178Y-6232379D02*
X12698617Y-6293942D01*
X12698617Y-6293942D02*
X12712561Y-6345981D01*
X12712561Y-6345981D02*
X12710009Y-6388497D01*
X12791987Y-6017935D02*
X12915797Y-5803491D01*
X12915797Y-5803491D02*
X12981096Y-5995152D01*
X12981096Y-5995152D02*
X13009667Y-5945664D01*
X13009667Y-5945664D02*
X13045211Y-5922197D01*
X13045211Y-5922197D02*
X13071230Y-5915225D01*
X13071230Y-5915225D02*
X13113745Y-5917777D01*
X13113745Y-5917777D02*
X13196224Y-5965396D01*
X13196224Y-5965396D02*
X13219692Y-6000939D01*
X13219692Y-6000939D02*
X13226664Y-6026959D01*
X13226664Y-6026959D02*
X13224112Y-6069474D01*
X13224112Y-6069474D02*
X13166969Y-6168448D01*
X13166969Y-6168448D02*
X13131426Y-6191916D01*
X13131426Y-6191916D02*
X13105406Y-6198888D01*
%TO.C,R11*%
X15578831Y-5612093D02*
X15558599Y-5380469D01*
X15380883Y-5497807D02*
X15580883Y-5151397D01*
X15580883Y-5151397D02*
X15712849Y-5227587D01*
X15712849Y-5227587D02*
X15736316Y-5263131D01*
X15736316Y-5263131D02*
X15743288Y-5289150D01*
X15743288Y-5289150D02*
X15740736Y-5331665D01*
X15740736Y-5331665D02*
X15712165Y-5381153D01*
X15712165Y-5381153D02*
X15676621Y-5404620D01*
X15676621Y-5404620D02*
X15650602Y-5411592D01*
X15650602Y-5411592D02*
X15608087Y-5409040D01*
X15608087Y-5409040D02*
X15476121Y-5332850D01*
X15908746Y-5802569D02*
X15710797Y-5688283D01*
X15809772Y-5745426D02*
X16009772Y-5399016D01*
X16009772Y-5399016D02*
X15948209Y-5429455D01*
X15948209Y-5429455D02*
X15896170Y-5443399D01*
X15896170Y-5443399D02*
X15853654Y-5440847D01*
X16238660Y-5993045D02*
X16040711Y-5878759D01*
X16139686Y-5935902D02*
X16339686Y-5589492D01*
X16339686Y-5589492D02*
X16278123Y-5619931D01*
X16278123Y-5619931D02*
X16226084Y-5633875D01*
X16226084Y-5633875D02*
X16183568Y-5631323D01*
%TO.C,C43*%
X12250057Y-9502742D02*
X12269104Y-9521790D01*
X12269104Y-9521790D02*
X12288152Y-9578932D01*
X12288152Y-9578932D02*
X12288152Y-9617028D01*
X12288152Y-9617028D02*
X12269104Y-9674171D01*
X12269104Y-9674171D02*
X12231009Y-9712266D01*
X12231009Y-9712266D02*
X12192914Y-9731313D01*
X12192914Y-9731313D02*
X12116723Y-9750361D01*
X12116723Y-9750361D02*
X12059580Y-9750361D01*
X12059580Y-9750361D02*
X11983390Y-9731313D01*
X11983390Y-9731313D02*
X11945295Y-9712266D01*
X11945295Y-9712266D02*
X11907200Y-9674171D01*
X11907200Y-9674171D02*
X11888152Y-9617028D01*
X11888152Y-9617028D02*
X11888152Y-9578932D01*
X11888152Y-9578932D02*
X11907200Y-9521790D01*
X11907200Y-9521790D02*
X11926247Y-9502742D01*
X12021485Y-9159885D02*
X12288152Y-9159885D01*
X11869104Y-9255123D02*
X12154819Y-9350361D01*
X12154819Y-9350361D02*
X12154819Y-9102742D01*
X11888152Y-8988457D02*
X11888152Y-8740838D01*
X11888152Y-8740838D02*
X12040533Y-8874171D01*
X12040533Y-8874171D02*
X12040533Y-8817028D01*
X12040533Y-8817028D02*
X12059580Y-8778933D01*
X12059580Y-8778933D02*
X12078628Y-8759885D01*
X12078628Y-8759885D02*
X12116723Y-8740838D01*
X12116723Y-8740838D02*
X12211961Y-8740838D01*
X12211961Y-8740838D02*
X12250057Y-8759885D01*
X12250057Y-8759885D02*
X12269104Y-8778933D01*
X12269104Y-8778933D02*
X12288152Y-8817028D01*
X12288152Y-8817028D02*
X12288152Y-8931314D01*
X12288152Y-8931314D02*
X12269104Y-8969409D01*
X12269104Y-8969409D02*
X12250057Y-8988457D01*
%TO.C,C29*%
X11649701Y-4925320D02*
X11656673Y-4951340D01*
X11656673Y-4951340D02*
X11644598Y-5010350D01*
X11644598Y-5010350D02*
X11625550Y-5043342D01*
X11625550Y-5043342D02*
X11580483Y-5083305D01*
X11580483Y-5083305D02*
X11528444Y-5097249D01*
X11528444Y-5097249D02*
X11485928Y-5094697D01*
X11485928Y-5094697D02*
X11410422Y-5073098D01*
X11410422Y-5073098D02*
X11360935Y-5044526D01*
X11360935Y-5044526D02*
X11304475Y-4989935D01*
X11304475Y-4989935D02*
X11281008Y-4954392D01*
X11281008Y-4954392D02*
X11267064Y-4902353D01*
X11267064Y-4902353D02*
X11279140Y-4843342D01*
X11279140Y-4843342D02*
X11298187Y-4810350D01*
X11298187Y-4810350D02*
X11343255Y-4770387D01*
X11343255Y-4770387D02*
X11369274Y-4763415D01*
X11445465Y-4631449D02*
X11438493Y-4605430D01*
X11438493Y-4605430D02*
X11441045Y-4562915D01*
X11441045Y-4562915D02*
X11488664Y-4480436D01*
X11488664Y-4480436D02*
X11524207Y-4456968D01*
X11524207Y-4456968D02*
X11550226Y-4449997D01*
X11550226Y-4449997D02*
X11592742Y-4452548D01*
X11592742Y-4452548D02*
X11625733Y-4471596D01*
X11625733Y-4471596D02*
X11665696Y-4516663D01*
X11665696Y-4516663D02*
X11749359Y-4828898D01*
X11749359Y-4828898D02*
X11873169Y-4614453D01*
X11968407Y-4449496D02*
X12006502Y-4383513D01*
X12006502Y-4383513D02*
X12009054Y-4340998D01*
X12009054Y-4340998D02*
X12002082Y-4314979D01*
X12002082Y-4314979D02*
X11971643Y-4253416D01*
X11971643Y-4253416D02*
X11915183Y-4198825D01*
X11915183Y-4198825D02*
X11783218Y-4122634D01*
X11783218Y-4122634D02*
X11740702Y-4120082D01*
X11740702Y-4120082D02*
X11714683Y-4127054D01*
X11714683Y-4127054D02*
X11679140Y-4150522D01*
X11679140Y-4150522D02*
X11641044Y-4216505D01*
X11641044Y-4216505D02*
X11638492Y-4259020D01*
X11638492Y-4259020D02*
X11645464Y-4285040D01*
X11645464Y-4285040D02*
X11668932Y-4320583D01*
X11668932Y-4320583D02*
X11751411Y-4368202D01*
X11751411Y-4368202D02*
X11793926Y-4370754D01*
X11793926Y-4370754D02*
X11819945Y-4363782D01*
X11819945Y-4363782D02*
X11855489Y-4340314D01*
X11855489Y-4340314D02*
X11893584Y-4274331D01*
X11893584Y-4274331D02*
X11896136Y-4231816D01*
X11896136Y-4231816D02*
X11889164Y-4205797D01*
X11889164Y-4205797D02*
X11865696Y-4170253D01*
%TO.C,C28*%
X11090901Y-4595120D02*
X11097873Y-4621140D01*
X11097873Y-4621140D02*
X11085798Y-4680150D01*
X11085798Y-4680150D02*
X11066750Y-4713142D01*
X11066750Y-4713142D02*
X11021683Y-4753105D01*
X11021683Y-4753105D02*
X10969644Y-4767049D01*
X10969644Y-4767049D02*
X10927128Y-4764497D01*
X10927128Y-4764497D02*
X10851622Y-4742898D01*
X10851622Y-4742898D02*
X10802135Y-4714326D01*
X10802135Y-4714326D02*
X10745675Y-4659735D01*
X10745675Y-4659735D02*
X10722208Y-4624192D01*
X10722208Y-4624192D02*
X10708264Y-4572153D01*
X10708264Y-4572153D02*
X10720340Y-4513142D01*
X10720340Y-4513142D02*
X10739387Y-4480150D01*
X10739387Y-4480150D02*
X10784455Y-4440187D01*
X10784455Y-4440187D02*
X10810474Y-4433215D01*
X10886665Y-4301249D02*
X10879693Y-4275230D01*
X10879693Y-4275230D02*
X10882245Y-4232715D01*
X10882245Y-4232715D02*
X10929864Y-4150236D01*
X10929864Y-4150236D02*
X10965407Y-4126768D01*
X10965407Y-4126768D02*
X10991426Y-4119797D01*
X10991426Y-4119797D02*
X11033942Y-4122348D01*
X11033942Y-4122348D02*
X11066933Y-4141396D01*
X11066933Y-4141396D02*
X11106896Y-4186463D01*
X11106896Y-4186463D02*
X11190559Y-4498698D01*
X11190559Y-4498698D02*
X11314369Y-4284253D01*
X11230706Y-3972019D02*
X11195162Y-3995487D01*
X11195162Y-3995487D02*
X11169143Y-4002459D01*
X11169143Y-4002459D02*
X11126628Y-3999907D01*
X11126628Y-3999907D02*
X11110132Y-3990383D01*
X11110132Y-3990383D02*
X11086664Y-3954840D01*
X11086664Y-3954840D02*
X11079692Y-3928820D01*
X11079692Y-3928820D02*
X11082244Y-3886305D01*
X11082244Y-3886305D02*
X11120340Y-3820322D01*
X11120340Y-3820322D02*
X11155883Y-3796854D01*
X11155883Y-3796854D02*
X11181902Y-3789882D01*
X11181902Y-3789882D02*
X11224418Y-3792434D01*
X11224418Y-3792434D02*
X11240913Y-3801958D01*
X11240913Y-3801958D02*
X11264381Y-3837501D01*
X11264381Y-3837501D02*
X11271353Y-3863521D01*
X11271353Y-3863521D02*
X11268801Y-3906036D01*
X11268801Y-3906036D02*
X11230706Y-3972019D01*
X11230706Y-3972019D02*
X11228154Y-4014534D01*
X11228154Y-4014534D02*
X11235126Y-4040554D01*
X11235126Y-4040554D02*
X11258593Y-4076097D01*
X11258593Y-4076097D02*
X11324576Y-4114192D01*
X11324576Y-4114192D02*
X11367092Y-4116744D01*
X11367092Y-4116744D02*
X11393111Y-4109772D01*
X11393111Y-4109772D02*
X11428654Y-4086305D01*
X11428654Y-4086305D02*
X11466750Y-4020322D01*
X11466750Y-4020322D02*
X11469302Y-3977807D01*
X11469302Y-3977807D02*
X11462330Y-3951787D01*
X11462330Y-3951787D02*
X11438862Y-3916244D01*
X11438862Y-3916244D02*
X11372879Y-3878149D01*
X11372879Y-3878149D02*
X11330364Y-3875597D01*
X11330364Y-3875597D02*
X11304344Y-3882569D01*
X11304344Y-3882569D02*
X11268801Y-3906036D01*
%TO.C,C27*%
X16583057Y-11284857D02*
X16564009Y-11303904D01*
X16564009Y-11303904D02*
X16506867Y-11322952D01*
X16506867Y-11322952D02*
X16468771Y-11322952D01*
X16468771Y-11322952D02*
X16411628Y-11303904D01*
X16411628Y-11303904D02*
X16373533Y-11265809D01*
X16373533Y-11265809D02*
X16354486Y-11227714D01*
X16354486Y-11227714D02*
X16335438Y-11151523D01*
X16335438Y-11151523D02*
X16335438Y-11094380D01*
X16335438Y-11094380D02*
X16354486Y-11018190D01*
X16354486Y-11018190D02*
X16373533Y-10980095D01*
X16373533Y-10980095D02*
X16411628Y-10942000D01*
X16411628Y-10942000D02*
X16468771Y-10922952D01*
X16468771Y-10922952D02*
X16506867Y-10922952D01*
X16506867Y-10922952D02*
X16564009Y-10942000D01*
X16564009Y-10942000D02*
X16583057Y-10961047D01*
X16735438Y-10961047D02*
X16754486Y-10942000D01*
X16754486Y-10942000D02*
X16792581Y-10922952D01*
X16792581Y-10922952D02*
X16887819Y-10922952D01*
X16887819Y-10922952D02*
X16925914Y-10942000D01*
X16925914Y-10942000D02*
X16944962Y-10961047D01*
X16944962Y-10961047D02*
X16964009Y-10999142D01*
X16964009Y-10999142D02*
X16964009Y-11037238D01*
X16964009Y-11037238D02*
X16944962Y-11094380D01*
X16944962Y-11094380D02*
X16716390Y-11322952D01*
X16716390Y-11322952D02*
X16964009Y-11322952D01*
X17097342Y-10922952D02*
X17364009Y-10922952D01*
X17364009Y-10922952D02*
X17192580Y-11322952D01*
%TO.C,C26*%
X17395857Y-8948057D02*
X17376809Y-8967104D01*
X17376809Y-8967104D02*
X17319667Y-8986152D01*
X17319667Y-8986152D02*
X17281571Y-8986152D01*
X17281571Y-8986152D02*
X17224428Y-8967104D01*
X17224428Y-8967104D02*
X17186333Y-8929009D01*
X17186333Y-8929009D02*
X17167286Y-8890914D01*
X17167286Y-8890914D02*
X17148238Y-8814723D01*
X17148238Y-8814723D02*
X17148238Y-8757580D01*
X17148238Y-8757580D02*
X17167286Y-8681390D01*
X17167286Y-8681390D02*
X17186333Y-8643295D01*
X17186333Y-8643295D02*
X17224428Y-8605200D01*
X17224428Y-8605200D02*
X17281571Y-8586152D01*
X17281571Y-8586152D02*
X17319667Y-8586152D01*
X17319667Y-8586152D02*
X17376809Y-8605200D01*
X17376809Y-8605200D02*
X17395857Y-8624247D01*
X17548238Y-8624247D02*
X17567286Y-8605200D01*
X17567286Y-8605200D02*
X17605381Y-8586152D01*
X17605381Y-8586152D02*
X17700619Y-8586152D01*
X17700619Y-8586152D02*
X17738714Y-8605200D01*
X17738714Y-8605200D02*
X17757762Y-8624247D01*
X17757762Y-8624247D02*
X17776809Y-8662342D01*
X17776809Y-8662342D02*
X17776809Y-8700438D01*
X17776809Y-8700438D02*
X17757762Y-8757580D01*
X17757762Y-8757580D02*
X17529190Y-8986152D01*
X17529190Y-8986152D02*
X17776809Y-8986152D01*
X18119666Y-8586152D02*
X18043476Y-8586152D01*
X18043476Y-8586152D02*
X18005380Y-8605200D01*
X18005380Y-8605200D02*
X17986333Y-8624247D01*
X17986333Y-8624247D02*
X17948238Y-8681390D01*
X17948238Y-8681390D02*
X17929190Y-8757580D01*
X17929190Y-8757580D02*
X17929190Y-8909961D01*
X17929190Y-8909961D02*
X17948238Y-8948057D01*
X17948238Y-8948057D02*
X17967285Y-8967104D01*
X17967285Y-8967104D02*
X18005380Y-8986152D01*
X18005380Y-8986152D02*
X18081571Y-8986152D01*
X18081571Y-8986152D02*
X18119666Y-8967104D01*
X18119666Y-8967104D02*
X18138714Y-8948057D01*
X18138714Y-8948057D02*
X18157761Y-8909961D01*
X18157761Y-8909961D02*
X18157761Y-8814723D01*
X18157761Y-8814723D02*
X18138714Y-8776628D01*
X18138714Y-8776628D02*
X18119666Y-8757580D01*
X18119666Y-8757580D02*
X18081571Y-8738533D01*
X18081571Y-8738533D02*
X18005380Y-8738533D01*
X18005380Y-8738533D02*
X17967285Y-8757580D01*
X17967285Y-8757580D02*
X17948238Y-8776628D01*
X17948238Y-8776628D02*
X17929190Y-8814723D01*
D12*
%TO.C,C14*%
X-18566555Y-10305270D02*
X-18599079Y-10296555D01*
X-18599079Y-10296555D02*
X-18655413Y-10246601D01*
X-18655413Y-10246601D02*
X-18679223Y-10205362D01*
X-18679223Y-10205362D02*
X-18694317Y-10131598D01*
X-18694317Y-10131598D02*
X-18676888Y-10066549D01*
X-18676888Y-10066549D02*
X-18647553Y-10022120D01*
X-18647553Y-10022120D02*
X-18576979Y-9953882D01*
X-18576979Y-9953882D02*
X-18515120Y-9918167D01*
X-18515120Y-9918167D02*
X-18420737Y-9891168D01*
X-18420737Y-9891168D02*
X-18367593Y-9887978D01*
X-18367593Y-9887978D02*
X-18302544Y-9905408D01*
X-18302544Y-9905408D02*
X-18246210Y-9955362D01*
X-18246210Y-9955362D02*
X-18222401Y-9996601D01*
X-18222401Y-9996601D02*
X-18207306Y-10070365D01*
X-18207306Y-10070365D02*
X-18216021Y-10102889D01*
X-18369699Y-10741473D02*
X-18512556Y-10494037D01*
X-18441127Y-10617755D02*
X-18008115Y-10367755D01*
X-18008115Y-10367755D02*
X-18093783Y-10362230D01*
X-18093783Y-10362230D02*
X-18158832Y-10344800D01*
X-18158832Y-10344800D02*
X-18203261Y-10315466D01*
X-17866738Y-10945960D02*
X-18155413Y-11112626D01*
X-17761305Y-10747623D02*
X-18130124Y-10823096D01*
X-18130124Y-10823096D02*
X-17975362Y-11091152D01*
%TO.C,C15*%
X-12724555Y-6977870D02*
X-12757079Y-6969155D01*
X-12757079Y-6969155D02*
X-12813413Y-6919201D01*
X-12813413Y-6919201D02*
X-12837223Y-6877962D01*
X-12837223Y-6877962D02*
X-12852317Y-6804198D01*
X-12852317Y-6804198D02*
X-12834888Y-6739149D01*
X-12834888Y-6739149D02*
X-12805553Y-6694720D01*
X-12805553Y-6694720D02*
X-12734979Y-6626482D01*
X-12734979Y-6626482D02*
X-12673120Y-6590767D01*
X-12673120Y-6590767D02*
X-12578737Y-6563768D01*
X-12578737Y-6563768D02*
X-12525593Y-6560578D01*
X-12525593Y-6560578D02*
X-12460544Y-6578008D01*
X-12460544Y-6578008D02*
X-12404210Y-6627962D01*
X-12404210Y-6627962D02*
X-12380401Y-6669201D01*
X-12380401Y-6669201D02*
X-12365306Y-6742965D01*
X-12365306Y-6742965D02*
X-12374021Y-6775489D01*
X-12527699Y-7414073D02*
X-12670556Y-7166637D01*
X-12599127Y-7290355D02*
X-12166115Y-7040355D01*
X-12166115Y-7040355D02*
X-12251783Y-7034830D01*
X-12251783Y-7034830D02*
X-12316832Y-7017400D01*
X-12316832Y-7017400D02*
X-12361261Y-6988066D01*
X-11868496Y-7555846D02*
X-11987544Y-7349649D01*
X-11987544Y-7349649D02*
X-12205645Y-7448077D01*
X-12205645Y-7448077D02*
X-12173120Y-7456792D01*
X-12173120Y-7456792D02*
X-12128691Y-7486127D01*
X-12128691Y-7486127D02*
X-12069167Y-7589225D01*
X-12069167Y-7589225D02*
X-12065978Y-7642369D01*
X-12065978Y-7642369D02*
X-12074693Y-7674893D01*
X-12074693Y-7674893D02*
X-12104027Y-7719323D01*
X-12104027Y-7719323D02*
X-12207125Y-7778846D01*
X-12207125Y-7778846D02*
X-12260269Y-7782036D01*
X-12260269Y-7782036D02*
X-12292794Y-7773321D01*
X-12292794Y-7773321D02*
X-12337223Y-7743987D01*
X-12337223Y-7743987D02*
X-12396747Y-7640889D01*
X-12396747Y-7640889D02*
X-12399937Y-7587745D01*
X-12399937Y-7587745D02*
X-12391222Y-7555220D01*
%TO.C,C39*%
X-10785928Y-2353428D02*
X-10762119Y-2377237D01*
X-10762119Y-2377237D02*
X-10738309Y-2448666D01*
X-10738309Y-2448666D02*
X-10738309Y-2496285D01*
X-10738309Y-2496285D02*
X-10762119Y-2567713D01*
X-10762119Y-2567713D02*
X-10809738Y-2615332D01*
X-10809738Y-2615332D02*
X-10857357Y-2639142D01*
X-10857357Y-2639142D02*
X-10952595Y-2662951D01*
X-10952595Y-2662951D02*
X-11024023Y-2662951D01*
X-11024023Y-2662951D02*
X-11119261Y-2639142D01*
X-11119261Y-2639142D02*
X-11166880Y-2615332D01*
X-11166880Y-2615332D02*
X-11214500Y-2567713D01*
X-11214500Y-2567713D02*
X-11238309Y-2496285D01*
X-11238309Y-2496285D02*
X-11238309Y-2448666D01*
X-11238309Y-2448666D02*
X-11214500Y-2377237D01*
X-11214500Y-2377237D02*
X-11190690Y-2353428D01*
X-11238309Y-2186761D02*
X-11238309Y-1877237D01*
X-11238309Y-1877237D02*
X-11047833Y-2043904D01*
X-11047833Y-2043904D02*
X-11047833Y-1972475D01*
X-11047833Y-1972475D02*
X-11024023Y-1924856D01*
X-11024023Y-1924856D02*
X-11000214Y-1901047D01*
X-11000214Y-1901047D02*
X-10952595Y-1877237D01*
X-10952595Y-1877237D02*
X-10833547Y-1877237D01*
X-10833547Y-1877237D02*
X-10785928Y-1901047D01*
X-10785928Y-1901047D02*
X-10762119Y-1924856D01*
X-10762119Y-1924856D02*
X-10738309Y-1972475D01*
X-10738309Y-1972475D02*
X-10738309Y-2115332D01*
X-10738309Y-2115332D02*
X-10762119Y-2162951D01*
X-10762119Y-2162951D02*
X-10785928Y-2186761D01*
X-10738309Y-1639142D02*
X-10738309Y-1543904D01*
X-10738309Y-1543904D02*
X-10762119Y-1496285D01*
X-10762119Y-1496285D02*
X-10785928Y-1472476D01*
X-10785928Y-1472476D02*
X-10857357Y-1424857D01*
X-10857357Y-1424857D02*
X-10952595Y-1401047D01*
X-10952595Y-1401047D02*
X-11143071Y-1401047D01*
X-11143071Y-1401047D02*
X-11190690Y-1424857D01*
X-11190690Y-1424857D02*
X-11214500Y-1448666D01*
X-11214500Y-1448666D02*
X-11238309Y-1496285D01*
X-11238309Y-1496285D02*
X-11238309Y-1591523D01*
X-11238309Y-1591523D02*
X-11214500Y-1639142D01*
X-11214500Y-1639142D02*
X-11190690Y-1662952D01*
X-11190690Y-1662952D02*
X-11143071Y-1686761D01*
X-11143071Y-1686761D02*
X-11024023Y-1686761D01*
X-11024023Y-1686761D02*
X-10976404Y-1662952D01*
X-10976404Y-1662952D02*
X-10952595Y-1639142D01*
X-10952595Y-1639142D02*
X-10928785Y-1591523D01*
X-10928785Y-1591523D02*
X-10928785Y-1496285D01*
X-10928785Y-1496285D02*
X-10952595Y-1448666D01*
X-10952595Y-1448666D02*
X-10976404Y-1424857D01*
X-10976404Y-1424857D02*
X-11024023Y-1401047D01*
%TO.C,C38*%
X-9745672Y2803199D02*
X-9736957Y2770674D01*
X-9736957Y2770674D02*
X-9752052Y2696911D01*
X-9752052Y2696911D02*
X-9775862Y2655671D01*
X-9775862Y2655671D02*
X-9832195Y2605717D01*
X-9832195Y2605717D02*
X-9897244Y2588287D01*
X-9897244Y2588287D02*
X-9950388Y2591477D01*
X-9950388Y2591477D02*
X-10044772Y2618477D01*
X-10044772Y2618477D02*
X-10106631Y2654191D01*
X-10106631Y2654191D02*
X-10177205Y2722430D01*
X-10177205Y2722430D02*
X-10206539Y2766859D01*
X-10206539Y2766859D02*
X-10223969Y2831908D01*
X-10223969Y2831908D02*
X-10208874Y2905671D01*
X-10208874Y2905671D02*
X-10185065Y2946911D01*
X-10185065Y2946911D02*
X-10128731Y2996865D01*
X-10128731Y2996865D02*
X-10096206Y3005580D01*
X-10054112Y3173727D02*
X-9899350Y3441782D01*
X-9899350Y3441782D02*
X-9817727Y3202207D01*
X-9817727Y3202207D02*
X-9782012Y3264066D01*
X-9782012Y3264066D02*
X-9737583Y3293400D01*
X-9737583Y3293400D02*
X-9705059Y3302115D01*
X-9705059Y3302115D02*
X-9651915Y3298925D01*
X-9651915Y3298925D02*
X-9548816Y3239401D01*
X-9548816Y3239401D02*
X-9519482Y3194972D01*
X-9519482Y3194972D02*
X-9510767Y3162448D01*
X-9510767Y3162448D02*
X-9513957Y3109304D01*
X-9513957Y3109304D02*
X-9585385Y2985586D01*
X-9585385Y2985586D02*
X-9629814Y2956251D01*
X-9629814Y2956251D02*
X-9662339Y2947536D01*
X-9570917Y3582075D02*
X-9615346Y3552740D01*
X-9615346Y3552740D02*
X-9647870Y3544026D01*
X-9647870Y3544026D02*
X-9701014Y3547215D01*
X-9701014Y3547215D02*
X-9721634Y3559120D01*
X-9721634Y3559120D02*
X-9750968Y3603549D01*
X-9750968Y3603549D02*
X-9759683Y3636074D01*
X-9759683Y3636074D02*
X-9756493Y3689218D01*
X-9756493Y3689218D02*
X-9708874Y3771696D01*
X-9708874Y3771696D02*
X-9664445Y3801031D01*
X-9664445Y3801031D02*
X-9631921Y3809746D01*
X-9631921Y3809746D02*
X-9578777Y3806556D01*
X-9578777Y3806556D02*
X-9558157Y3794651D01*
X-9558157Y3794651D02*
X-9528823Y3750222D01*
X-9528823Y3750222D02*
X-9520108Y3717698D01*
X-9520108Y3717698D02*
X-9523298Y3664554D01*
X-9523298Y3664554D02*
X-9570917Y3582075D01*
X-9570917Y3582075D02*
X-9574106Y3528931D01*
X-9574106Y3528931D02*
X-9565392Y3496406D01*
X-9565392Y3496406D02*
X-9536057Y3451977D01*
X-9536057Y3451977D02*
X-9453578Y3404358D01*
X-9453578Y3404358D02*
X-9400434Y3401168D01*
X-9400434Y3401168D02*
X-9367910Y3409883D01*
X-9367910Y3409883D02*
X-9323481Y3439218D01*
X-9323481Y3439218D02*
X-9275862Y3521696D01*
X-9275862Y3521696D02*
X-9272672Y3574841D01*
X-9272672Y3574841D02*
X-9281387Y3607365D01*
X-9281387Y3607365D02*
X-9310721Y3651794D01*
X-9310721Y3651794D02*
X-9393200Y3699413D01*
X-9393200Y3699413D02*
X-9446344Y3702603D01*
X-9446344Y3702603D02*
X-9478868Y3693888D01*
X-9478868Y3693888D02*
X-9523298Y3664554D01*
%TO.C,J1*%
X-2452666Y17715309D02*
X-2452666Y17358166D01*
X-2452666Y17358166D02*
X-2476475Y17286738D01*
X-2476475Y17286738D02*
X-2524094Y17239119D01*
X-2524094Y17239119D02*
X-2595523Y17215309D01*
X-2595523Y17215309D02*
X-2643142Y17215309D01*
X-1952666Y17215309D02*
X-2238380Y17215309D01*
X-2095523Y17215309D02*
X-2095523Y17715309D01*
X-2095523Y17715309D02*
X-2143142Y17643880D01*
X-2143142Y17643880D02*
X-2190761Y17596261D01*
X-2190761Y17596261D02*
X-2238380Y17572452D01*
%TO.C,R9*%
X5885666Y7690309D02*
X5719000Y7928404D01*
X5599952Y7690309D02*
X5599952Y8190309D01*
X5599952Y8190309D02*
X5790428Y8190309D01*
X5790428Y8190309D02*
X5838047Y8166500D01*
X5838047Y8166500D02*
X5861857Y8142690D01*
X5861857Y8142690D02*
X5885666Y8095071D01*
X5885666Y8095071D02*
X5885666Y8023642D01*
X5885666Y8023642D02*
X5861857Y7976023D01*
X5861857Y7976023D02*
X5838047Y7952214D01*
X5838047Y7952214D02*
X5790428Y7928404D01*
X5790428Y7928404D02*
X5599952Y7928404D01*
X6123762Y7690309D02*
X6219000Y7690309D01*
X6219000Y7690309D02*
X6266619Y7714119D01*
X6266619Y7714119D02*
X6290428Y7737928D01*
X6290428Y7737928D02*
X6338047Y7809357D01*
X6338047Y7809357D02*
X6361857Y7904595D01*
X6361857Y7904595D02*
X6361857Y8095071D01*
X6361857Y8095071D02*
X6338047Y8142690D01*
X6338047Y8142690D02*
X6314238Y8166500D01*
X6314238Y8166500D02*
X6266619Y8190309D01*
X6266619Y8190309D02*
X6171381Y8190309D01*
X6171381Y8190309D02*
X6123762Y8166500D01*
X6123762Y8166500D02*
X6099952Y8142690D01*
X6099952Y8142690D02*
X6076143Y8095071D01*
X6076143Y8095071D02*
X6076143Y7976023D01*
X6076143Y7976023D02*
X6099952Y7928404D01*
X6099952Y7928404D02*
X6123762Y7904595D01*
X6123762Y7904595D02*
X6171381Y7880785D01*
X6171381Y7880785D02*
X6266619Y7880785D01*
X6266619Y7880785D02*
X6314238Y7904595D01*
X6314238Y7904595D02*
X6338047Y7928404D01*
X6338047Y7928404D02*
X6361857Y7976023D01*
%TO.C,U5*%
X-16540868Y-5910944D02*
X-16338487Y-6261478D01*
X-16338487Y-6261478D02*
X-16294058Y-6290812D01*
X-16294058Y-6290812D02*
X-16261533Y-6299527D01*
X-16261533Y-6299527D02*
X-16208389Y-6296337D01*
X-16208389Y-6296337D02*
X-16125910Y-6248718D01*
X-16125910Y-6248718D02*
X-16096576Y-6204289D01*
X-16096576Y-6204289D02*
X-16087861Y-6171765D01*
X-16087861Y-6171765D02*
X-16091051Y-6118621D01*
X-16091051Y-6118621D02*
X-16293432Y-5768086D01*
X-15881038Y-5529991D02*
X-16087235Y-5649039D01*
X-16087235Y-5649039D02*
X-15988807Y-5867140D01*
X-15988807Y-5867140D02*
X-15980092Y-5834615D01*
X-15980092Y-5834615D02*
X-15950758Y-5790186D01*
X-15950758Y-5790186D02*
X-15847659Y-5730662D01*
X-15847659Y-5730662D02*
X-15794515Y-5727473D01*
X-15794515Y-5727473D02*
X-15761991Y-5736188D01*
X-15761991Y-5736188D02*
X-15717562Y-5765522D01*
X-15717562Y-5765522D02*
X-15658038Y-5868620D01*
X-15658038Y-5868620D02*
X-15654848Y-5921764D01*
X-15654848Y-5921764D02*
X-15663563Y-5954289D01*
X-15663563Y-5954289D02*
X-15692897Y-5998718D01*
X-15692897Y-5998718D02*
X-15795996Y-6058242D01*
X-15795996Y-6058242D02*
X-15849140Y-6061432D01*
X-15849140Y-6061432D02*
X-15881664Y-6052717D01*
%TO.C,C37*%
X-7789028Y8728528D02*
X-7812837Y8704719D01*
X-7812837Y8704719D02*
X-7884266Y8680909D01*
X-7884266Y8680909D02*
X-7931885Y8680909D01*
X-7931885Y8680909D02*
X-8003313Y8704719D01*
X-8003313Y8704719D02*
X-8050932Y8752338D01*
X-8050932Y8752338D02*
X-8074742Y8799957D01*
X-8074742Y8799957D02*
X-8098551Y8895195D01*
X-8098551Y8895195D02*
X-8098551Y8966623D01*
X-8098551Y8966623D02*
X-8074742Y9061861D01*
X-8074742Y9061861D02*
X-8050932Y9109480D01*
X-8050932Y9109480D02*
X-8003313Y9157100D01*
X-8003313Y9157100D02*
X-7931885Y9180909D01*
X-7931885Y9180909D02*
X-7884266Y9180909D01*
X-7884266Y9180909D02*
X-7812837Y9157100D01*
X-7812837Y9157100D02*
X-7789028Y9133290D01*
X-7622361Y9180909D02*
X-7312837Y9180909D01*
X-7312837Y9180909D02*
X-7479504Y8990433D01*
X-7479504Y8990433D02*
X-7408075Y8990433D01*
X-7408075Y8990433D02*
X-7360456Y8966623D01*
X-7360456Y8966623D02*
X-7336647Y8942814D01*
X-7336647Y8942814D02*
X-7312837Y8895195D01*
X-7312837Y8895195D02*
X-7312837Y8776147D01*
X-7312837Y8776147D02*
X-7336647Y8728528D01*
X-7336647Y8728528D02*
X-7360456Y8704719D01*
X-7360456Y8704719D02*
X-7408075Y8680909D01*
X-7408075Y8680909D02*
X-7550932Y8680909D01*
X-7550932Y8680909D02*
X-7598551Y8704719D01*
X-7598551Y8704719D02*
X-7622361Y8728528D01*
X-7146171Y9180909D02*
X-6812838Y9180909D01*
X-6812838Y9180909D02*
X-7027123Y8680909D01*
%TO.C,R7*%
X-10626333Y-4528690D02*
X-10792999Y-4290595D01*
X-10912047Y-4528690D02*
X-10912047Y-4028690D01*
X-10912047Y-4028690D02*
X-10721571Y-4028690D01*
X-10721571Y-4028690D02*
X-10673952Y-4052500D01*
X-10673952Y-4052500D02*
X-10650142Y-4076309D01*
X-10650142Y-4076309D02*
X-10626333Y-4123928D01*
X-10626333Y-4123928D02*
X-10626333Y-4195357D01*
X-10626333Y-4195357D02*
X-10650142Y-4242976D01*
X-10650142Y-4242976D02*
X-10673952Y-4266785D01*
X-10673952Y-4266785D02*
X-10721571Y-4290595D01*
X-10721571Y-4290595D02*
X-10912047Y-4290595D01*
X-10459666Y-4028690D02*
X-10126333Y-4028690D01*
X-10126333Y-4028690D02*
X-10340618Y-4528690D01*
%TO.C,J5*%
X-8497866Y-10834290D02*
X-8497866Y-11191433D01*
X-8497866Y-11191433D02*
X-8521675Y-11262861D01*
X-8521675Y-11262861D02*
X-8569294Y-11310480D01*
X-8569294Y-11310480D02*
X-8640723Y-11334290D01*
X-8640723Y-11334290D02*
X-8688342Y-11334290D01*
X-8021676Y-10834290D02*
X-8259771Y-10834290D01*
X-8259771Y-10834290D02*
X-8283580Y-11072385D01*
X-8283580Y-11072385D02*
X-8259771Y-11048576D01*
X-8259771Y-11048576D02*
X-8212152Y-11024766D01*
X-8212152Y-11024766D02*
X-8093104Y-11024766D01*
X-8093104Y-11024766D02*
X-8045485Y-11048576D01*
X-8045485Y-11048576D02*
X-8021676Y-11072385D01*
X-8021676Y-11072385D02*
X-7997866Y-11120004D01*
X-7997866Y-11120004D02*
X-7997866Y-11239052D01*
X-7997866Y-11239052D02*
X-8021676Y-11286671D01*
X-8021676Y-11286671D02*
X-8045485Y-11310480D01*
X-8045485Y-11310480D02*
X-8093104Y-11334290D01*
X-8093104Y-11334290D02*
X-8212152Y-11334290D01*
X-8212152Y-11334290D02*
X-8259771Y-11310480D01*
X-8259771Y-11310480D02*
X-8283580Y-11286671D01*
%TO.C,J6*%
X-7278666Y9968309D02*
X-7278666Y9611166D01*
X-7278666Y9611166D02*
X-7302475Y9539738D01*
X-7302475Y9539738D02*
X-7350094Y9492119D01*
X-7350094Y9492119D02*
X-7421523Y9468309D01*
X-7421523Y9468309D02*
X-7469142Y9468309D01*
X-6826285Y9968309D02*
X-6921523Y9968309D01*
X-6921523Y9968309D02*
X-6969142Y9944500D01*
X-6969142Y9944500D02*
X-6992952Y9920690D01*
X-6992952Y9920690D02*
X-7040571Y9849261D01*
X-7040571Y9849261D02*
X-7064380Y9754023D01*
X-7064380Y9754023D02*
X-7064380Y9563547D01*
X-7064380Y9563547D02*
X-7040571Y9515928D01*
X-7040571Y9515928D02*
X-7016761Y9492119D01*
X-7016761Y9492119D02*
X-6969142Y9468309D01*
X-6969142Y9468309D02*
X-6873904Y9468309D01*
X-6873904Y9468309D02*
X-6826285Y9492119D01*
X-6826285Y9492119D02*
X-6802476Y9515928D01*
X-6802476Y9515928D02*
X-6778666Y9563547D01*
X-6778666Y9563547D02*
X-6778666Y9682595D01*
X-6778666Y9682595D02*
X-6802476Y9730214D01*
X-6802476Y9730214D02*
X-6826285Y9754023D01*
X-6826285Y9754023D02*
X-6873904Y9777833D01*
X-6873904Y9777833D02*
X-6969142Y9777833D01*
X-6969142Y9777833D02*
X-7016761Y9754023D01*
X-7016761Y9754023D02*
X-7040571Y9730214D01*
X-7040571Y9730214D02*
X-7064380Y9682595D01*
%TO.C,J3*%
X10848108Y2705198D02*
X11026679Y2395904D01*
X11026679Y2395904D02*
X11041774Y2322140D01*
X11041774Y2322140D02*
X11024344Y2257091D01*
X11024344Y2257091D02*
X10974390Y2200757D01*
X10974390Y2200757D02*
X10933150Y2176948D01*
X11013064Y2800436D02*
X11281120Y2955198D01*
X11281120Y2955198D02*
X11232020Y2706908D01*
X11232020Y2706908D02*
X11293879Y2742622D01*
X11293879Y2742622D02*
X11347023Y2745812D01*
X11347023Y2745812D02*
X11379548Y2737097D01*
X11379548Y2737097D02*
X11423977Y2707762D01*
X11423977Y2707762D02*
X11483501Y2604664D01*
X11483501Y2604664D02*
X11486691Y2551520D01*
X11486691Y2551520D02*
X11477976Y2518996D01*
X11477976Y2518996D02*
X11448641Y2474567D01*
X11448641Y2474567D02*
X11324923Y2403138D01*
X11324923Y2403138D02*
X11271779Y2399948D01*
X11271779Y2399948D02*
X11239255Y2408663D01*
%TO.C,R1*%
X-65333Y21560309D02*
X-231999Y21798404D01*
X-351047Y21560309D02*
X-351047Y22060309D01*
X-351047Y22060309D02*
X-160571Y22060309D01*
X-160571Y22060309D02*
X-112952Y22036500D01*
X-112952Y22036500D02*
X-89142Y22012690D01*
X-89142Y22012690D02*
X-65333Y21965071D01*
X-65333Y21965071D02*
X-65333Y21893642D01*
X-65333Y21893642D02*
X-89142Y21846023D01*
X-89142Y21846023D02*
X-112952Y21822214D01*
X-112952Y21822214D02*
X-160571Y21798404D01*
X-160571Y21798404D02*
X-351047Y21798404D01*
X410857Y21560309D02*
X125143Y21560309D01*
X268000Y21560309D02*
X268000Y22060309D01*
X268000Y22060309D02*
X220381Y21988880D01*
X220381Y21988880D02*
X172762Y21941261D01*
X172762Y21941261D02*
X125143Y21917452D01*
%TO.C,U2*%
X1741090Y11709447D02*
X2145852Y11709447D01*
X2145852Y11709447D02*
X2193471Y11733257D01*
X2193471Y11733257D02*
X2217280Y11757066D01*
X2217280Y11757066D02*
X2241090Y11804685D01*
X2241090Y11804685D02*
X2241090Y11899923D01*
X2241090Y11899923D02*
X2217280Y11947542D01*
X2217280Y11947542D02*
X2193471Y11971352D01*
X2193471Y11971352D02*
X2145852Y11995161D01*
X2145852Y11995161D02*
X1741090Y11995161D01*
X1788709Y12209448D02*
X1764900Y12233257D01*
X1764900Y12233257D02*
X1741090Y12280876D01*
X1741090Y12280876D02*
X1741090Y12399924D01*
X1741090Y12399924D02*
X1764900Y12447543D01*
X1764900Y12447543D02*
X1788709Y12471352D01*
X1788709Y12471352D02*
X1836328Y12495162D01*
X1836328Y12495162D02*
X1883947Y12495162D01*
X1883947Y12495162D02*
X1955376Y12471352D01*
X1955376Y12471352D02*
X2241090Y12185638D01*
X2241090Y12185638D02*
X2241090Y12495162D01*
%TO.C,U9*%
X9652047Y4507309D02*
X9652047Y4102547D01*
X9652047Y4102547D02*
X9675857Y4054928D01*
X9675857Y4054928D02*
X9699666Y4031119D01*
X9699666Y4031119D02*
X9747285Y4007309D01*
X9747285Y4007309D02*
X9842523Y4007309D01*
X9842523Y4007309D02*
X9890142Y4031119D01*
X9890142Y4031119D02*
X9913952Y4054928D01*
X9913952Y4054928D02*
X9937761Y4102547D01*
X9937761Y4102547D02*
X9937761Y4507309D01*
X10199667Y4007309D02*
X10294905Y4007309D01*
X10294905Y4007309D02*
X10342524Y4031119D01*
X10342524Y4031119D02*
X10366333Y4054928D01*
X10366333Y4054928D02*
X10413952Y4126357D01*
X10413952Y4126357D02*
X10437762Y4221595D01*
X10437762Y4221595D02*
X10437762Y4412071D01*
X10437762Y4412071D02*
X10413952Y4459690D01*
X10413952Y4459690D02*
X10390143Y4483500D01*
X10390143Y4483500D02*
X10342524Y4507309D01*
X10342524Y4507309D02*
X10247286Y4507309D01*
X10247286Y4507309D02*
X10199667Y4483500D01*
X10199667Y4483500D02*
X10175857Y4459690D01*
X10175857Y4459690D02*
X10152048Y4412071D01*
X10152048Y4412071D02*
X10152048Y4293023D01*
X10152048Y4293023D02*
X10175857Y4245404D01*
X10175857Y4245404D02*
X10199667Y4221595D01*
X10199667Y4221595D02*
X10247286Y4197785D01*
X10247286Y4197785D02*
X10342524Y4197785D01*
X10342524Y4197785D02*
X10390143Y4221595D01*
X10390143Y4221595D02*
X10413952Y4245404D01*
X10413952Y4245404D02*
X10437762Y4293023D01*
X-2340474Y10359166D02*
X-2102379Y10359166D01*
X-2388093Y10216309D02*
X-2221427Y10716309D01*
X-2221427Y10716309D02*
X-2054760Y10216309D01*
X-1888094Y10549642D02*
X-1888094Y10216309D01*
X-1888094Y10502023D02*
X-1864284Y10525833D01*
X-1864284Y10525833D02*
X-1816665Y10549642D01*
X-1816665Y10549642D02*
X-1745237Y10549642D01*
X-1745237Y10549642D02*
X-1697618Y10525833D01*
X-1697618Y10525833D02*
X-1673808Y10478214D01*
X-1673808Y10478214D02*
X-1673808Y10216309D01*
X-1507141Y10549642D02*
X-1316665Y10549642D01*
X-1435713Y10716309D02*
X-1435713Y10287738D01*
X-1435713Y10287738D02*
X-1411903Y10240119D01*
X-1411903Y10240119D02*
X-1364284Y10216309D01*
X-1364284Y10216309D02*
X-1316665Y10216309D01*
X-959523Y10240119D02*
X-1007142Y10216309D01*
X-1007142Y10216309D02*
X-1102380Y10216309D01*
X-1102380Y10216309D02*
X-1149999Y10240119D01*
X-1149999Y10240119D02*
X-1173808Y10287738D01*
X-1173808Y10287738D02*
X-1173808Y10478214D01*
X-1173808Y10478214D02*
X-1149999Y10525833D01*
X-1149999Y10525833D02*
X-1102380Y10549642D01*
X-1102380Y10549642D02*
X-1007142Y10549642D01*
X-1007142Y10549642D02*
X-959523Y10525833D01*
X-959523Y10525833D02*
X-935713Y10478214D01*
X-935713Y10478214D02*
X-935713Y10430595D01*
X-935713Y10430595D02*
X-1173808Y10382976D01*
X-721428Y10549642D02*
X-721428Y10216309D01*
X-721428Y10502023D02*
X-697618Y10525833D01*
X-697618Y10525833D02*
X-649999Y10549642D01*
X-649999Y10549642D02*
X-578571Y10549642D01*
X-578571Y10549642D02*
X-530952Y10525833D01*
X-530952Y10525833D02*
X-507142Y10478214D01*
X-507142Y10478214D02*
X-507142Y10216309D01*
X-269047Y10549642D02*
X-269047Y10216309D01*
X-269047Y10502023D02*
X-245237Y10525833D01*
X-245237Y10525833D02*
X-197618Y10549642D01*
X-197618Y10549642D02*
X-126190Y10549642D01*
X-126190Y10549642D02*
X-78571Y10525833D01*
X-78571Y10525833D02*
X-54761Y10478214D01*
X-54761Y10478214D02*
X-54761Y10216309D01*
X397619Y10216309D02*
X397619Y10478214D01*
X397619Y10478214D02*
X373809Y10525833D01*
X373809Y10525833D02*
X326190Y10549642D01*
X326190Y10549642D02*
X230952Y10549642D01*
X230952Y10549642D02*
X183333Y10525833D01*
X397619Y10240119D02*
X350000Y10216309D01*
X350000Y10216309D02*
X230952Y10216309D01*
X230952Y10216309D02*
X183333Y10240119D01*
X183333Y10240119D02*
X159524Y10287738D01*
X159524Y10287738D02*
X159524Y10335357D01*
X159524Y10335357D02*
X183333Y10382976D01*
X183333Y10382976D02*
X230952Y10406785D01*
X230952Y10406785D02*
X350000Y10406785D01*
X350000Y10406785D02*
X397619Y10430595D01*
X911905Y10359166D02*
X1150000Y10359166D01*
X864286Y10216309D02*
X1030952Y10716309D01*
X1030952Y10716309D02*
X1197619Y10216309D01*
X1364285Y10216309D02*
X1364285Y10549642D01*
X1364285Y10454404D02*
X1388095Y10502023D01*
X1388095Y10502023D02*
X1411904Y10525833D01*
X1411904Y10525833D02*
X1459523Y10549642D01*
X1459523Y10549642D02*
X1507142Y10549642D01*
X1864285Y10240119D02*
X1816666Y10216309D01*
X1816666Y10216309D02*
X1721428Y10216309D01*
X1721428Y10216309D02*
X1673809Y10240119D01*
X1673809Y10240119D02*
X1650000Y10287738D01*
X1650000Y10287738D02*
X1650000Y10478214D01*
X1650000Y10478214D02*
X1673809Y10525833D01*
X1673809Y10525833D02*
X1721428Y10549642D01*
X1721428Y10549642D02*
X1816666Y10549642D01*
X1816666Y10549642D02*
X1864285Y10525833D01*
X1864285Y10525833D02*
X1888095Y10478214D01*
X1888095Y10478214D02*
X1888095Y10430595D01*
X1888095Y10430595D02*
X1650000Y10382976D01*
X2316666Y10216309D02*
X2316666Y10478214D01*
X2316666Y10478214D02*
X2292856Y10525833D01*
X2292856Y10525833D02*
X2245237Y10549642D01*
X2245237Y10549642D02*
X2149999Y10549642D01*
X2149999Y10549642D02*
X2102380Y10525833D01*
X2316666Y10240119D02*
X2269047Y10216309D01*
X2269047Y10216309D02*
X2149999Y10216309D01*
X2149999Y10216309D02*
X2102380Y10240119D01*
X2102380Y10240119D02*
X2078571Y10287738D01*
X2078571Y10287738D02*
X2078571Y10335357D01*
X2078571Y10335357D02*
X2102380Y10382976D01*
X2102380Y10382976D02*
X2149999Y10406785D01*
X2149999Y10406785D02*
X2269047Y10406785D01*
X2269047Y10406785D02*
X2316666Y10430595D01*
%TO.C,J2*%
X-10425582Y2287665D02*
X-10604153Y1978370D01*
X-10604153Y1978370D02*
X-10660487Y1928416D01*
X-10660487Y1928416D02*
X-10725536Y1910986D01*
X-10725536Y1910986D02*
X-10799300Y1926081D01*
X-10799300Y1926081D02*
X-10840539Y1949890D01*
X-10263815Y2139283D02*
X-10231291Y2147998D01*
X-10231291Y2147998D02*
X-10178146Y2144808D01*
X-10178146Y2144808D02*
X-10075048Y2085284D01*
X-10075048Y2085284D02*
X-10045714Y2040855D01*
X-10045714Y2040855D02*
X-10036999Y2008330D01*
X-10036999Y2008330D02*
X-10040189Y1955186D01*
X-10040189Y1955186D02*
X-10063998Y1913947D01*
X-10063998Y1913947D02*
X-10120332Y1863993D01*
X-10120332Y1863993D02*
X-10510625Y1759414D01*
X-10510625Y1759414D02*
X-10242570Y1604652D01*
D13*
%TO.C,U13*%
X16316423Y-7564699D02*
X14757577Y-6664699D01*
X13147577Y-9453301D02*
X15702352Y-10928301D01*
%TO.C,R11*%
X15995857Y-6984510D02*
X15729743Y-6830869D01*
X16375857Y-6326331D02*
X16109743Y-6172690D01*
%TO.C,C43*%
X13711746Y-10017217D02*
X13468254Y-9876637D01*
X13201746Y-10900563D02*
X12958254Y-10759983D01*
%TO.C,C29*%
X10918037Y-6470746D02*
X11058617Y-6227254D01*
X11801383Y-6980746D02*
X11941963Y-6737254D01*
%TO.C,C28*%
X10200713Y-6009389D02*
X10308549Y-5822611D01*
X10824251Y-6369389D02*
X10932087Y-6182611D01*
%TO.C,C27*%
X17699949Y-10089811D02*
X17592113Y-10276589D01*
X18323487Y-10449811D02*
X18215651Y-10636589D01*
%TO.C,C26*%
X16912549Y-9632611D02*
X16804713Y-9819389D01*
X17536087Y-9992611D02*
X17428251Y-10179389D01*
%TO.C,C14*%
X-17027617Y-9656254D02*
X-16887037Y-9899746D01*
X-17910963Y-10166254D02*
X-17770383Y-10409746D01*
%TO.C,C15*%
X-11058617Y-6227254D02*
X-10918037Y-6470746D01*
X-11941963Y-6737254D02*
X-11801383Y-6980746D01*
%TO.C,C39*%
X-10570800Y-1530236D02*
X-10570800Y-1314564D01*
X-9850800Y-1530236D02*
X-9850800Y-1314564D01*
%TO.C,C38*%
X-9997513Y3926589D02*
X-10105349Y3739811D01*
X-10621051Y4286589D02*
X-10728887Y4099811D01*
%TO.C,J1*%
X-1755000Y19815000D02*
X-625000Y19815000D01*
X-1755000Y19055000D02*
X-1755000Y19815000D01*
X-1755000Y18295000D02*
X-1755000Y15820000D01*
X-1755000Y18295000D02*
X-1188471Y18295000D01*
X-1755000Y15820000D02*
X-932530Y15820000D01*
X-317470Y15820000D02*
X337470Y15820000D01*
X-61529Y18295000D02*
X81529Y18295000D01*
X135000Y19750000D02*
X337470Y19750000D01*
X135000Y19618471D02*
X135000Y19750000D01*
X135000Y18348471D02*
X135000Y18491529D01*
X952530Y19750000D02*
X1775000Y19750000D01*
X952530Y15820000D02*
X1775000Y15820000D01*
X1775000Y19750000D02*
X1775000Y15820000D01*
%TO.C,R9*%
X7646641Y7621000D02*
X7339359Y7621000D01*
X7646641Y8381000D02*
X7339359Y8381000D01*
%TO.C,U5*%
X-15512000Y-7158000D02*
X-17070846Y-8058000D01*
X-15512000Y-7158000D02*
X-14819180Y-6758000D01*
X-13952000Y-9860000D02*
X-14644820Y-10260000D01*
X-13952000Y-9860000D02*
X-13259180Y-9460000D01*
%TO.C,C37*%
X-7252580Y8511000D02*
X-6971420Y8511000D01*
X-7252580Y7491000D02*
X-6971420Y7491000D01*
%TO.C,R7*%
X-10389359Y-3555000D02*
X-10696641Y-3555000D01*
X-10389359Y-2795000D02*
X-10696641Y-2795000D01*
%TO.C,J5*%
X-5985000Y-7511000D02*
X-5035000Y-7511000D01*
X-5985000Y-8461000D02*
X-5985000Y-7511000D01*
X-5615000Y-11431000D02*
X5615000Y-11431000D01*
X-5035000Y-7511000D02*
X-5035000Y-6821000D01*
X5985000Y-7511000D02*
X5035000Y-7511000D01*
X5985000Y-8461000D02*
X5985000Y-7511000D01*
%TO.C,J6*%
X4735000Y7511000D02*
X3785000Y7511000D01*
X4735000Y8461000D02*
X4735000Y7511000D01*
X4365000Y11431000D02*
X-4365000Y11431000D01*
X3785000Y7511000D02*
X3785000Y6821000D01*
X-4735000Y7511000D02*
X-3785000Y7511000D01*
X-4735000Y8461000D02*
X-4735000Y7511000D01*
%TO.C,J3*%
X13685688Y-1203031D02*
X12724400Y-1758031D01*
X13305688Y-544852D02*
X13685688Y-1203031D01*
X12925688Y113327D02*
X11688188Y2256740D01*
X12925688Y113327D02*
X12452380Y-159937D01*
X11688188Y2256740D02*
X10993229Y1855505D01*
X10460571Y1547975D02*
X9765612Y1146740D01*
X11476420Y-723408D02*
X11003112Y-996673D01*
X11003112Y-996673D02*
X9765612Y1146740D01*
%TO.C,R1*%
X-135641Y20954000D02*
X171641Y20954000D01*
X-135641Y20194000D02*
X171641Y20194000D01*
%TO.C,U2*%
X-125000Y16114000D02*
X-125000Y15389000D01*
X-1425000Y16114000D02*
X-1425000Y15389000D01*
X1450000Y15389000D02*
X1450000Y11789000D01*
X1425000Y15389000D02*
X1450000Y15389000D01*
X-125000Y15389000D02*
X125000Y15389000D01*
X-1425000Y15389000D02*
X-1450000Y15389000D01*
X-1450000Y15389000D02*
X-1450000Y11789000D01*
X1450000Y11789000D02*
X1425000Y11789000D01*
X125000Y11789000D02*
X-125000Y11789000D01*
X-1450000Y11789000D02*
X-1425000Y11789000D01*
%TO.C,U9*%
X-9000000Y7150000D02*
X-9000000Y6650000D01*
X-9000000Y-7150000D02*
X-9000000Y-6900000D01*
X9000000Y7150000D02*
X-9000000Y7150000D01*
X9000000Y7150000D02*
X9000000Y6650000D01*
X9000000Y-6900000D02*
X9000000Y-7150000D01*
X9000000Y-7150000D02*
X-9000000Y-7150000D01*
%TO.C,J2*%
X-11765612Y-2317362D02*
X-12726900Y-1762362D01*
X-11385612Y-1659183D02*
X-11765612Y-2317362D01*
X-11005612Y-1001004D02*
X-9768112Y1142409D01*
X-11005612Y-1001004D02*
X-11478920Y-727739D01*
X-9768112Y1142409D02*
X-10463071Y1543644D01*
X-10995729Y1851174D02*
X-11690688Y2252409D01*
X-12454880Y-164268D02*
X-12928188Y108996D01*
X-12928188Y108996D02*
X-11690688Y2252409D01*
%TD*%
M02*
