%TF.GenerationSoftware,KiCad,Pcbnew,7.0.0-da2b9df05c~163~ubuntu22.04.1*%
%TF.CreationDate,2023-02-22T23:58:04+03:00*%
%TF.ProjectId,freeeeg16-alpha,66726565-6565-4673-9136-2d616c706861,rev?*%
%TF.SameCoordinates,Original*%
%TF.FileFunction,Copper,L3,Inr*%
%TF.FilePolarity,Positive*%
%FSLAX46Y46*%
G04 Gerber Fmt 4.6, Leading zero omitted, Abs format (unit mm)*
G04 Created by KiCad (PCBNEW 7.0.0-da2b9df05c~163~ubuntu22.04.1) date 2023-02-22 23:58:04*
%MOMM*%
%LPD*%
G01*
G04 APERTURE LIST*
G04 Aperture macros list*
%AMHorizOval*
0 Thick line with rounded ends*
0 $1 width*
0 $2 $3 position (X,Y) of the first rounded end (center of the circle)*
0 $4 $5 position (X,Y) of the second rounded end (center of the circle)*
0 Add line between two ends*
20,1,$1,$2,$3,$4,$5,0*
0 Add two circle primitives to create the rounded ends*
1,1,$1,$2,$3*
1,1,$1,$4,$5*%
%AMRotRect*
0 Rectangle, with rotation*
0 The origin of the aperture is its center*
0 $1 length*
0 $2 width*
0 $3 Rotation angle, in degrees counterclockwise*
0 Add horizontal line*
21,1,$1,$2,0,0,$3*%
G04 Aperture macros list end*
%TA.AperFunction,ComponentPad*%
%ADD10R,1.000000X1.000000*%
%TD*%
%TA.AperFunction,ComponentPad*%
%ADD11O,1.000000X1.000000*%
%TD*%
%TA.AperFunction,ComponentPad*%
%ADD12RotRect,1.000000X1.000000X210.000000*%
%TD*%
%TA.AperFunction,ComponentPad*%
%ADD13HorizOval,1.000000X0.000000X0.000000X0.000000X0.000000X0*%
%TD*%
%TA.AperFunction,ComponentPad*%
%ADD14RotRect,1.000000X1.000000X150.000000*%
%TD*%
%TA.AperFunction,ComponentPad*%
%ADD15HorizOval,1.000000X0.000000X0.000000X0.000000X0.000000X0*%
%TD*%
%TA.AperFunction,ComponentPad*%
%ADD16RotRect,1.000000X1.000000X330.000000*%
%TD*%
%TA.AperFunction,ComponentPad*%
%ADD17HorizOval,1.000000X0.000000X0.000000X0.000000X0.000000X0*%
%TD*%
%TA.AperFunction,ViaPad*%
%ADD18C,0.800000*%
%TD*%
G04 APERTURE END LIST*
D10*
%TO.N,ACC_5_VDDIO*%
%TO.C,J1*%
X-624999Y19054999D03*
D11*
%TO.N,CRYSTAL_4_Vin*%
X644999Y19054999D03*
%TO.N,MCU_18_PB0_ADC1_SYNC{slash}RESET*%
X-624999Y17784999D03*
%TO.N,ADC1_16_SYNC{slash}RESET*%
X644999Y17784999D03*
%TO.N,CRYSTAL_3_OUT*%
X-624999Y16514999D03*
%TO.N,MCU_5_PDO0_RCC_OSC_IN*%
X644999Y16514999D03*
%TD*%
D12*
%TO.N,ADC1_02_AIN2N*%
%TO.C,J3*%
X12344399Y-1099851D03*
D13*
%TO.N,/J17*%
X11709399Y0D03*
%TO.N,ADC1_09_AIN6P*%
X11074399Y1099852D03*
%TD*%
D14*
%TO.N,3V3_2_GND*%
%TO.C,J2*%
X-12346899Y-1104182D03*
D15*
%TO.N,/J18*%
X-11711899Y-4330D03*
%TO.N,ADC1_09_AIN6P*%
X-11076899Y1095521D03*
%TD*%
D10*
%TO.N,ADC2_08_AIN5P*%
%TO.C,J29*%
X11167947Y-9026999D03*
D11*
X11167947Y-10296999D03*
%TO.N,ADC2_09_AIN6P*%
X9897947Y-9026999D03*
X9897947Y-10296999D03*
%TO.N,ADC2_12_AIN7P*%
X8627947Y-9026999D03*
X8627947Y-10296999D03*
%TD*%
D10*
%TO.N,ADC1_29_AIN0P*%
%TO.C,J28*%
X-8630999Y-9026999D03*
D11*
X-8630999Y-10296999D03*
%TO.N,/J18*%
X-9900999Y-9026999D03*
X-9900999Y-10296999D03*
%TO.N,ADC1_32_AIN1P*%
X-11170999Y-9026999D03*
X-11170999Y-10296999D03*
%TD*%
D12*
%TO.N,ADC2_04_AIN3P*%
%TO.C,J31*%
X12133110Y-2961164D03*
D13*
X13232962Y-2326164D03*
%TO.N,/J17*%
X12768110Y-4061016D03*
X13867962Y-3426016D03*
%TO.N,ADC2_05_AIN4P*%
X13403110Y-5160869D03*
X14502962Y-4525869D03*
%TD*%
D16*
%TO.N,ADC1_08_AIN5P*%
%TO.C,J32*%
X-3502111Y11988166D03*
D17*
X-4601963Y12623166D03*
%TO.N,ADC1_09_AIN6P*%
X-2867111Y13088018D03*
X-3966963Y13723018D03*
%TO.N,ADC1_12_AIN7P*%
X-2232111Y14187871D03*
X-3331963Y14822871D03*
%TD*%
D12*
%TO.N,ADC2_29_AIN0P*%
%TO.C,J33*%
X2233636Y14185226D03*
D13*
X3333488Y14820226D03*
%TO.N,ADC2_32_AIN1P*%
X2868636Y13085374D03*
X3968488Y13720374D03*
%TO.N,ADC2_01_AIN2P*%
X3503636Y11985521D03*
X4603488Y12620521D03*
%TD*%
D16*
%TO.N,ADC1_01_AIN2P*%
%TO.C,J30*%
X-13401585Y-5158224D03*
D17*
X-14501437Y-4523224D03*
%TO.N,ADC1_04_AIN3P*%
X-12766585Y-4058372D03*
X-13866437Y-3423372D03*
%TO.N,ADC1_05_AIN4P*%
X-12131585Y-2958519D03*
X-13231437Y-2323519D03*
%TD*%
D18*
%TO.N,ADC1_12_AIN7P*%
X-2870200Y10617200D03*
%TO.N,ADC1_09_AIN6P*%
X2463800Y15849600D03*
%TO.N,ADC1_02_AIN2N*%
X1875000Y7593502D03*
%TO.N,ADC2_17_CS*%
X2417436Y3146105D03*
%TO.N,MCU_18_PB0_ADC1_SYNC{slash}RESET*%
X50800Y2895600D03*
%TO.N,ADC1_02_AIN2N*%
X5334000Y50800D03*
X-6426200Y-50800D03*
%TO.N,3V3_1_IN*%
X-15964500Y-6705600D03*
%TO.N,ADC1_08_AIN5P*%
X-10622859Y2653900D03*
%TO.N,ADC2_01_AIN2P*%
X10349900Y2474505D03*
%TO.N,ADC2_29_AIN0P*%
X2842381Y11056328D03*
%TO.N,3V3_1_IN*%
X-3167720Y7207999D03*
X-13987908Y-10303090D03*
X14823166Y-5607300D03*
%TO.N,ADC1_15_AVDD*%
X7342072Y1466090D03*
X17224809Y-7774246D03*
X-291500Y9054851D03*
X14493630Y-6550916D03*
%TO.N,ADC1_26_DVDD*%
X-1981200Y2641600D03*
X-12368202Y-9654691D03*
X6720733Y3884418D03*
%TO.N,ADC1_14_REFIN*%
X-3844068Y6384068D03*
X6631839Y474212D03*
X10099502Y-4953000D03*
X-380655Y7605455D03*
%TO.N,ACC_5_VDDIO*%
X-6298133Y-6679133D03*
X-806128Y-8764200D03*
X-1099694Y-121403D03*
X7023056Y-5311845D03*
X-14490100Y-6069357D03*
X2844046Y-10517304D03*
%TO.N,ADC2_17_CS*%
X-812967Y-2405237D03*
%TO.N,ADC1_16_SYNC{slash}RESET*%
X2248115Y2159000D03*
X1397000Y10312400D03*
X-7142067Y6581825D03*
%TO.N,ADC1_17_CS*%
X-3986395Y-5595707D03*
X-6500993Y1778000D03*
%TO.N,ADC1_18_DRDY*%
X-5883425Y2581501D03*
X-1515793Y-3115899D03*
%TO.N,ADC1_19_SCLK*%
X-3196554Y-6204685D03*
X-5384777Y1687311D03*
%TO.N,ADC1_23_XTAL1{slash}CLKIN*%
X1532753Y-4758553D03*
X3649502Y6107631D03*
X-1849626Y4338298D03*
%TO.N,3V3_2_GND*%
X-3882027Y10056115D03*
X14351000Y-10795000D03*
X-7878847Y-6168372D03*
X-16916604Y-7489510D03*
X254000Y-9271000D03*
X-15113000Y-11030000D03*
X12383734Y-6967042D03*
X-140000Y600500D03*
X-7402127Y3747685D03*
X2835509Y10038601D03*
X2006600Y4586593D03*
X6156471Y-5830636D03*
X-126805Y-350515D03*
X-6396854Y7412854D03*
X-12207157Y-7342951D03*
X-4703049Y-9386346D03*
%TO.N,3V3_5_OUT*%
X804287Y5311093D03*
X-1828339Y11676570D03*
%TO.N,MCU_7_NRST*%
X-624999Y-7471002D03*
%TO.N,MCU_34_PA13_SYS_JTMS-SWDIO*%
X867897Y-7242595D03*
%TO.N,MCU_37_PA14_SYS_JTCK-SWCLK*%
X5143567Y-6489633D03*
%TO.N,ADC1_20_DOUT*%
X-4395052Y1547848D03*
X-2533936Y-5456391D03*
%TO.N,ADC1_21_DIN*%
X-3984924Y2578666D03*
X-2343219Y-4343400D03*
%TO.N,ADC2_19_SCLK*%
X24571Y-2972145D03*
X3976864Y2568386D03*
%TO.N,ADC2_20_DOUT*%
X4895219Y3013733D03*
X285411Y-3937012D03*
%TO.N,ADC2_21_DIN*%
X5265859Y3944378D03*
X337744Y-4935144D03*
%TO.N,MCU_38_PA15_SYS_JTDI*%
X3709418Y-6013573D03*
%TO.N,MCU_39_PB3_SYS_JTDO-TRACESWO*%
X2083941Y-7409134D03*
%TO.N,MCU_5_PDO0_RCC_OSC_IN*%
X-3098800Y-10608059D03*
X-1345449Y10692649D03*
%TO.N,ACC_13_SCL*%
X4521200Y-9245600D03*
%TO.N,ACC_14_SDA*%
X2726877Y-4290223D03*
%TO.N,RADIO_8_GPIO9*%
X-8750000Y-4750000D03*
%TO.N,MCU_12_PA2_USART2_TX*%
X-6045200Y-5156200D03*
%TO.N,MCU_13_PA3_USART2_RX*%
X-6072303Y-4157065D03*
%TO.N,MCU_18_PB0_ADC1_SYNC{slash}RESET*%
X-2430359Y9038592D03*
X-1372544Y-4105083D03*
%TD*%
%TA.AperFunction,Conductor*%
%TO.N,3V3_2_GND*%
G36*
X-1696510Y19667824D02*
G01*
X-1650384Y19621704D01*
X-1633500Y19558699D01*
X-1633500Y18506362D01*
X-1626989Y18445799D01*
X-1575889Y18308796D01*
X-1570489Y18301582D01*
X-1566171Y18293675D01*
X-1567952Y18292702D01*
X-1548619Y18244815D01*
X-1557232Y18180895D01*
X-1558319Y18178269D01*
X-1561241Y18172804D01*
X-1618908Y17982701D01*
X-1638380Y17785000D01*
X-1618908Y17587299D01*
X-1561241Y17397196D01*
X-1467595Y17221996D01*
X-1465099Y17218954D01*
X-1446718Y17174584D01*
X-1446718Y17125416D01*
X-1465099Y17081045D01*
X-1467595Y17078004D01*
X-1561241Y16902804D01*
X-1618908Y16712701D01*
X-1638380Y16515000D01*
X-1618908Y16317299D01*
X-1561241Y16127196D01*
X-1467595Y15951996D01*
X-1341568Y15798432D01*
X-1336788Y15794509D01*
X-1248411Y15721980D01*
X-1188004Y15672405D01*
X-1182545Y15669487D01*
X-1164182Y15659672D01*
X-1012804Y15578759D01*
X-1006880Y15576962D01*
X-828623Y15522888D01*
X-828619Y15522887D01*
X-822701Y15521092D01*
X-816547Y15520485D01*
X-816538Y15520484D01*
X-631163Y15502227D01*
X-625000Y15501620D01*
X-618837Y15502227D01*
X-433461Y15520484D01*
X-433450Y15520486D01*
X-427299Y15521092D01*
X-421382Y15522886D01*
X-421376Y15522888D01*
X-243119Y15576962D01*
X-243116Y15576963D01*
X-237196Y15578759D01*
X-231738Y15581676D01*
X-231734Y15581678D01*
X-67451Y15669488D01*
X-67441Y15669494D01*
X-61996Y15672405D01*
X-58953Y15674901D01*
X-14579Y15693280D01*
X34579Y15693280D01*
X78953Y15674901D01*
X81996Y15672405D01*
X87441Y15669494D01*
X87451Y15669488D01*
X251734Y15581678D01*
X251738Y15581676D01*
X257196Y15578759D01*
X263116Y15576963D01*
X263119Y15576962D01*
X441376Y15522888D01*
X441382Y15522886D01*
X447299Y15521092D01*
X453450Y15520486D01*
X453461Y15520484D01*
X638837Y15502227D01*
X645000Y15501620D01*
X651163Y15502227D01*
X836538Y15520484D01*
X836547Y15520485D01*
X842701Y15521092D01*
X848619Y15522887D01*
X848623Y15522888D01*
X1026880Y15576962D01*
X1032804Y15578759D01*
X1184182Y15659672D01*
X1202545Y15669487D01*
X1208004Y15672405D01*
X1268411Y15721980D01*
X1359464Y15796705D01*
X1420706Y15823912D01*
X1487235Y15815872D01*
X1540232Y15774860D01*
X1564708Y15712477D01*
X1568919Y15672405D01*
X1570258Y15659672D01*
X1572295Y15653401D01*
X1572297Y15653394D01*
X1627230Y15484328D01*
X1627234Y15484318D01*
X1629273Y15478044D01*
X1632576Y15472322D01*
X1632577Y15472321D01*
X1721458Y15318374D01*
X1721461Y15318369D01*
X1724760Y15312656D01*
X1729175Y15307753D01*
X1772731Y15259379D01*
X1799906Y15210854D01*
X1803543Y15155358D01*
X1782934Y15103702D01*
X1742094Y15065950D01*
X1254253Y14784295D01*
X1205059Y14748374D01*
X1200042Y14742298D01*
X1200040Y14742296D01*
X1117700Y14642570D01*
X1111961Y14635619D01*
X1054401Y14501202D01*
X1053331Y14492260D01*
X1053331Y14492257D01*
X1038110Y14364960D01*
X1038110Y14364955D01*
X1037041Y14356014D01*
X1038534Y14347130D01*
X1038535Y14347126D01*
X1049255Y14283379D01*
X1061289Y14211816D01*
X1064473Y14204616D01*
X1064476Y14204609D01*
X1084563Y14159201D01*
X1084571Y14159184D01*
X1085931Y14156111D01*
X1087613Y14153197D01*
X1087620Y14153184D01*
X1632879Y13208769D01*
X1632884Y13208759D01*
X1634569Y13205843D01*
X1636555Y13203122D01*
X1636561Y13203114D01*
X1665841Y13163014D01*
X1665846Y13163007D01*
X1670490Y13156649D01*
X1676560Y13151636D01*
X1676567Y13151630D01*
X1776293Y13069290D01*
X1776297Y13069287D01*
X1783245Y13063551D01*
X1791529Y13060003D01*
X1791540Y13059997D01*
X1792192Y13059718D01*
X1792828Y13059211D01*
X1799225Y13055313D01*
X1798738Y13054514D01*
X1844234Y13018346D01*
X1867975Y12956247D01*
X1874729Y12887674D01*
X1876523Y12881757D01*
X1876525Y12881751D01*
X1924237Y12724467D01*
X1932396Y12697571D01*
X1935313Y12692113D01*
X1935315Y12692109D01*
X2023124Y12527829D01*
X2023127Y12527824D01*
X2026042Y12522371D01*
X2029963Y12517592D01*
X2029968Y12517586D01*
X2148146Y12373586D01*
X2148151Y12373580D01*
X2152069Y12368807D01*
X2156842Y12364889D01*
X2156848Y12364884D01*
X2300848Y12246706D01*
X2300854Y12246701D01*
X2305633Y12242780D01*
X2311091Y12239862D01*
X2311092Y12239862D01*
X2430844Y12175853D01*
X2468847Y12144665D01*
X2492022Y12101308D01*
X2496841Y12052383D01*
X2490864Y11991688D01*
X2490257Y11985522D01*
X2490864Y11979358D01*
X2490864Y11976125D01*
X2481689Y11928925D01*
X2455501Y11888598D01*
X2416113Y11861018D01*
X2385629Y11847446D01*
X2380288Y11843565D01*
X2380287Y11843565D01*
X2289945Y11777927D01*
X2231128Y11735194D01*
X2103341Y11593272D01*
X2007854Y11427884D01*
X2005814Y11421606D01*
X2005811Y11421599D01*
X1950878Y11252533D01*
X1950876Y11252528D01*
X1948839Y11246256D01*
X1948149Y11239694D01*
X1946775Y11233228D01*
X1945407Y11233518D01*
X1928743Y11186469D01*
X1886070Y11145978D01*
X1829665Y11129273D01*
X1771825Y11139993D01*
X1679288Y11181194D01*
X1492487Y11220900D01*
X1301513Y11220900D01*
X1114712Y11181194D01*
X940248Y11103518D01*
X864282Y11048325D01*
X796735Y10999249D01*
X785747Y10991266D01*
X657960Y10849344D01*
X562473Y10683956D01*
X560433Y10677678D01*
X560430Y10677671D01*
X505497Y10508605D01*
X505495Y10508600D01*
X503458Y10502328D01*
X502768Y10495764D01*
X490850Y10382372D01*
X483496Y10312400D01*
X484186Y10305835D01*
X496337Y10190219D01*
X503458Y10122472D01*
X505495Y10116201D01*
X505497Y10116194D01*
X560430Y9947128D01*
X560434Y9947118D01*
X562473Y9940844D01*
X565776Y9935122D01*
X565777Y9935121D01*
X654658Y9781174D01*
X654661Y9781169D01*
X657960Y9775456D01*
X662378Y9770549D01*
X662379Y9770548D01*
X781325Y9638444D01*
X781330Y9638439D01*
X785747Y9633534D01*
X791083Y9629656D01*
X791091Y9629650D01*
X934906Y9525163D01*
X940248Y9521282D01*
X946275Y9518598D01*
X946278Y9518597D01*
X1108681Y9446291D01*
X1114712Y9443606D01*
X1121161Y9442235D01*
X1121168Y9442233D01*
X1295056Y9405272D01*
X1295060Y9405271D01*
X1301513Y9403900D01*
X1485884Y9403900D01*
X1492487Y9403900D01*
X1498940Y9405271D01*
X1498943Y9405272D01*
X1672831Y9442233D01*
X1672835Y9442234D01*
X1679288Y9443606D01*
X1853752Y9521282D01*
X1935180Y9580443D01*
X2002908Y9629650D01*
X2002911Y9629653D01*
X2008253Y9633534D01*
X2136040Y9775456D01*
X2231527Y9940844D01*
X2290542Y10122472D01*
X2291231Y10129035D01*
X2292606Y10135500D01*
X2293978Y10135208D01*
X2310627Y10182241D01*
X2353299Y10222742D01*
X2409707Y10239454D01*
X2467554Y10228734D01*
X2554058Y10190220D01*
X2554065Y10190217D01*
X2560093Y10187534D01*
X2566542Y10186163D01*
X2566549Y10186161D01*
X2740437Y10149200D01*
X2740441Y10149199D01*
X2746894Y10147828D01*
X2931265Y10147828D01*
X2937868Y10147828D01*
X2944321Y10149199D01*
X2944324Y10149200D01*
X3118212Y10186161D01*
X3118216Y10186162D01*
X3124669Y10187534D01*
X3299133Y10265210D01*
X3384698Y10327377D01*
X3448289Y10373578D01*
X3448292Y10373581D01*
X3453634Y10377462D01*
X3581421Y10519384D01*
X3676908Y10684772D01*
X3679468Y10692649D01*
X3730981Y10851190D01*
X3735923Y10866400D01*
X3741917Y10923436D01*
X3756364Y10970145D01*
X3787505Y11007839D01*
X3830650Y11030840D01*
X3885519Y11047484D01*
X3885524Y11047486D01*
X3891441Y11049281D01*
X3896896Y11052196D01*
X3896899Y11052198D01*
X4061182Y11140009D01*
X4066641Y11142927D01*
X4109995Y11178507D01*
X4215425Y11265031D01*
X4220205Y11268954D01*
X4346232Y11422518D01*
X4413159Y11547730D01*
X4444346Y11585732D01*
X4487703Y11608907D01*
X4536628Y11613726D01*
X4597323Y11607749D01*
X4597326Y11607749D01*
X4603489Y11607142D01*
X4609652Y11607749D01*
X4795027Y11626006D01*
X4795036Y11626007D01*
X4801190Y11626614D01*
X4807108Y11628409D01*
X4807112Y11628410D01*
X4985369Y11682484D01*
X4991293Y11684281D01*
X5086545Y11735194D01*
X5161034Y11775009D01*
X5166493Y11777927D01*
X5266419Y11859934D01*
X5315277Y11900031D01*
X5320057Y11903954D01*
X5446084Y12057518D01*
X5539730Y12232718D01*
X5597397Y12422821D01*
X5598265Y12431628D01*
X5616262Y12614359D01*
X5616869Y12620522D01*
X5614050Y12649143D01*
X5625720Y12715742D01*
X5670138Y12766720D01*
X5734514Y12787397D01*
X5800309Y12771817D01*
X5848577Y12724467D01*
X13938735Y-1295704D01*
X13955598Y-1357877D01*
X13939527Y-1420260D01*
X13894721Y-1466545D01*
X13832894Y-1484635D01*
X13770205Y-1469800D01*
X13626231Y-1392844D01*
X13626226Y-1392842D01*
X13620767Y-1389924D01*
X13616735Y-1388700D01*
X13577415Y-1362652D01*
X13550172Y-1322912D01*
X13540183Y-1277430D01*
X13540996Y-1270639D01*
X13516748Y-1126441D01*
X13492106Y-1070736D01*
X12943468Y-120468D01*
X12907547Y-71274D01*
X12901471Y-66257D01*
X12901469Y-66255D01*
X12821224Y0D01*
X12794792Y21824D01*
X12785860Y25648D01*
X12785225Y26153D01*
X12778811Y30063D01*
X12779298Y30863D01*
X12733807Y67021D01*
X12710061Y129129D01*
X12709723Y132564D01*
X12703308Y197701D01*
X12645641Y387804D01*
X12551995Y563004D01*
X12425968Y716568D01*
X12272404Y842595D01*
X12172129Y896193D01*
X12147192Y909522D01*
X12109188Y940711D01*
X12086012Y984069D01*
X12081194Y1032991D01*
X12087780Y1099853D01*
X12068308Y1297554D01*
X12010641Y1487657D01*
X11916995Y1662857D01*
X11790968Y1816421D01*
X11637404Y1942448D01*
X11462204Y2036094D01*
X11312540Y2081493D01*
X11256592Y2116539D01*
X11226044Y2175065D01*
X11229284Y2241005D01*
X11243442Y2284577D01*
X11263404Y2474505D01*
X11243442Y2664433D01*
X11184427Y2846061D01*
X11088940Y3011449D01*
X10961153Y3153371D01*
X10806652Y3265623D01*
X10632188Y3343299D01*
X10445387Y3383005D01*
X10254413Y3383005D01*
X10067612Y3343299D01*
X9893148Y3265623D01*
X9796978Y3195751D01*
X9773295Y3178544D01*
X9738647Y3153371D01*
X9734225Y3148460D01*
X9717196Y3129548D01*
X9610860Y3011449D01*
X9515373Y2846061D01*
X9513333Y2839783D01*
X9513330Y2839776D01*
X9458397Y2670710D01*
X9458395Y2670705D01*
X9456358Y2664433D01*
X9455668Y2657869D01*
X9442287Y2530556D01*
X9436396Y2474505D01*
X9437086Y2467940D01*
X9452650Y2319851D01*
X9456358Y2284577D01*
X9458395Y2278306D01*
X9458397Y2278299D01*
X9513330Y2109233D01*
X9513334Y2109223D01*
X9515373Y2102949D01*
X9518676Y2097227D01*
X9518677Y2097226D01*
X9607558Y1943279D01*
X9607561Y1943274D01*
X9610860Y1937561D01*
X9615278Y1932654D01*
X9615279Y1932653D01*
X9734225Y1800549D01*
X9734230Y1800544D01*
X9738647Y1795639D01*
X9743983Y1791761D01*
X9743991Y1791755D01*
X9887806Y1687268D01*
X9893148Y1683387D01*
X9899175Y1680703D01*
X9899178Y1680702D01*
X10059700Y1609233D01*
X10107231Y1572347D01*
X10132240Y1517628D01*
X10129026Y1457550D01*
X10094280Y1343006D01*
X10080492Y1297554D01*
X10079885Y1291400D01*
X10079884Y1291391D01*
X10061627Y1106016D01*
X10061020Y1099853D01*
X10061627Y1093692D01*
X10061627Y1093690D01*
X10079884Y908314D01*
X10079886Y908303D01*
X10080492Y902152D01*
X10082286Y896235D01*
X10082288Y896229D01*
X10135598Y720490D01*
X10138159Y712049D01*
X10141076Y706591D01*
X10141078Y706587D01*
X10228887Y542307D01*
X10228890Y542302D01*
X10231805Y536849D01*
X10235726Y532070D01*
X10235731Y532064D01*
X10353909Y388064D01*
X10353914Y388058D01*
X10357832Y383285D01*
X10362605Y379367D01*
X10362611Y379362D01*
X10506611Y261184D01*
X10506617Y261179D01*
X10511396Y257258D01*
X10516854Y254340D01*
X10516855Y254340D01*
X10636607Y190331D01*
X10674610Y159143D01*
X10697785Y115786D01*
X10702604Y66861D01*
X10697604Y16086D01*
X10696020Y0D01*
X10696627Y-6163D01*
X10714884Y-191538D01*
X10714885Y-191547D01*
X10715492Y-197701D01*
X10717287Y-203619D01*
X10717288Y-203623D01*
X10752820Y-320756D01*
X10773159Y-387804D01*
X10866805Y-563004D01*
X10870730Y-567787D01*
X10870731Y-567788D01*
X10874285Y-572119D01*
X10992832Y-716568D01*
X10997611Y-720490D01*
X10997615Y-720494D01*
X11103720Y-807572D01*
X11140691Y-857965D01*
X11147731Y-911129D01*
X11148659Y-911107D01*
X11148863Y-919676D01*
X11148896Y-919925D01*
X11148873Y-920113D01*
X11148873Y-920122D01*
X11147804Y-929065D01*
X11149297Y-937949D01*
X11149298Y-937952D01*
X11164530Y-1028530D01*
X11172052Y-1073263D01*
X11175237Y-1080464D01*
X11175239Y-1080469D01*
X11195326Y-1125877D01*
X11195331Y-1125886D01*
X11196694Y-1128968D01*
X11198380Y-1131889D01*
X11198383Y-1131894D01*
X11327838Y-1356116D01*
X11656913Y-1926090D01*
X11673794Y-1989089D01*
X11656913Y-2052089D01*
X11610794Y-2098208D01*
X11156653Y-2360407D01*
X11156643Y-2360412D01*
X11153727Y-2362097D01*
X11151006Y-2364083D01*
X11150998Y-2364089D01*
X11110898Y-2393369D01*
X11110891Y-2393374D01*
X11104533Y-2398018D01*
X11099520Y-2404088D01*
X11099514Y-2404095D01*
X11017174Y-2503821D01*
X11017171Y-2503825D01*
X11011435Y-2510773D01*
X11007887Y-2519058D01*
X11007886Y-2519060D01*
X10957421Y-2636908D01*
X10957420Y-2636911D01*
X10953875Y-2645190D01*
X10952806Y-2654130D01*
X10952805Y-2654134D01*
X10937584Y-2781431D01*
X10937584Y-2781436D01*
X10936515Y-2790378D01*
X10938008Y-2799262D01*
X10938009Y-2799265D01*
X10948729Y-2863013D01*
X10960763Y-2934576D01*
X10963948Y-2941777D01*
X10963950Y-2941782D01*
X10984037Y-2987190D01*
X10984042Y-2987199D01*
X10985405Y-2990281D01*
X10987091Y-2993202D01*
X10987094Y-2993207D01*
X11499781Y-3881206D01*
X11534043Y-3940549D01*
X11536035Y-3943277D01*
X11565315Y-3983377D01*
X11565317Y-3983379D01*
X11569964Y-3989743D01*
X11576039Y-3994759D01*
X11576041Y-3994761D01*
X11675769Y-4077103D01*
X11682719Y-4082841D01*
X11691656Y-4086668D01*
X11692294Y-4087174D01*
X11698698Y-4091078D01*
X11698210Y-4091877D01*
X11743704Y-4128038D01*
X11767449Y-4190144D01*
X11773595Y-4252555D01*
X11773596Y-4252564D01*
X11774203Y-4258718D01*
X11775998Y-4264636D01*
X11775999Y-4264640D01*
X11808026Y-4370217D01*
X11831870Y-4448821D01*
X11925516Y-4624021D01*
X11929441Y-4628804D01*
X11929442Y-4628805D01*
X12045018Y-4769635D01*
X12051543Y-4777585D01*
X12205107Y-4903612D01*
X12330319Y-4970539D01*
X12368321Y-5001726D01*
X12391496Y-5045083D01*
X12396315Y-5094008D01*
X12390338Y-5154704D01*
X12389731Y-5160870D01*
X12390338Y-5167033D01*
X12408595Y-5352408D01*
X12408596Y-5352417D01*
X12409203Y-5358571D01*
X12410998Y-5364489D01*
X12410999Y-5364493D01*
X12443528Y-5471726D01*
X12466870Y-5548674D01*
X12469789Y-5554135D01*
X12549938Y-5704085D01*
X12560516Y-5723874D01*
X12564441Y-5728657D01*
X12564442Y-5728658D01*
X12650622Y-5833669D01*
X12686543Y-5877438D01*
X12840107Y-6003465D01*
X13015307Y-6097111D01*
X13205410Y-6154778D01*
X13211571Y-6155384D01*
X13211572Y-6155385D01*
X13396948Y-6173643D01*
X13403111Y-6174250D01*
X13477570Y-6166916D01*
X13538707Y-6176138D01*
X13588098Y-6213335D01*
X13613846Y-6269550D01*
X13609752Y-6331245D01*
X13602127Y-6354710D01*
X13602125Y-6354717D01*
X13600088Y-6360988D01*
X13599398Y-6367549D01*
X13599398Y-6367551D01*
X13590577Y-6451477D01*
X13580126Y-6550916D01*
X13580816Y-6557481D01*
X13583388Y-6581957D01*
X13600088Y-6740844D01*
X13602125Y-6747116D01*
X13602127Y-6747121D01*
X13657060Y-6916187D01*
X13657063Y-6916194D01*
X13659103Y-6922472D01*
X13715906Y-7020858D01*
X13744782Y-7070873D01*
X13754590Y-7087860D01*
X13882377Y-7229782D01*
X13887719Y-7233663D01*
X13887721Y-7233665D01*
X13892727Y-7237302D01*
X14036878Y-7342034D01*
X14211342Y-7419710D01*
X14398143Y-7459416D01*
X14582514Y-7459416D01*
X14589117Y-7459416D01*
X14775918Y-7419710D01*
X14950382Y-7342034D01*
X15104883Y-7229782D01*
X15232670Y-7087860D01*
X15328157Y-6922472D01*
X15387172Y-6740844D01*
X15407134Y-6550916D01*
X15390693Y-6394493D01*
X15398372Y-6336171D01*
X15431067Y-6288601D01*
X15434419Y-6286166D01*
X15562206Y-6144244D01*
X15657693Y-5978856D01*
X15716708Y-5797228D01*
X15736670Y-5607300D01*
X15716708Y-5417372D01*
X15678706Y-5300415D01*
X15659735Y-5242028D01*
X15659734Y-5242026D01*
X15657693Y-5235744D01*
X15562206Y-5070356D01*
X15482225Y-4981529D01*
X15452880Y-4924627D01*
X15455290Y-4860646D01*
X15495072Y-4729502D01*
X15495072Y-4729500D01*
X15496871Y-4723571D01*
X15516343Y-4525870D01*
X15514629Y-4508471D01*
X15526298Y-4441873D01*
X15570716Y-4390894D01*
X15635092Y-4370217D01*
X15700888Y-4385797D01*
X15749156Y-4433147D01*
X17063629Y-6711117D01*
X17080323Y-6767518D01*
X17069596Y-6825353D01*
X17033785Y-6872015D01*
X16980693Y-6897337D01*
X16948985Y-6904077D01*
X16948975Y-6904079D01*
X16942521Y-6905452D01*
X16936491Y-6908136D01*
X16936490Y-6908137D01*
X16774087Y-6980443D01*
X16774084Y-6980444D01*
X16768057Y-6983128D01*
X16762716Y-6987008D01*
X16762715Y-6987009D01*
X16618900Y-7091496D01*
X16618892Y-7091502D01*
X16613556Y-7095380D01*
X16609139Y-7100285D01*
X16609134Y-7100290D01*
X16500462Y-7220984D01*
X16485769Y-7237302D01*
X16482470Y-7243015D01*
X16482467Y-7243020D01*
X16398562Y-7388349D01*
X16390282Y-7402690D01*
X16388243Y-7408964D01*
X16388239Y-7408974D01*
X16333306Y-7578040D01*
X16333304Y-7578047D01*
X16331267Y-7584318D01*
X16330577Y-7590879D01*
X16330577Y-7590881D01*
X16328281Y-7612727D01*
X16311305Y-7774246D01*
X16331267Y-7964174D01*
X16333304Y-7970446D01*
X16333306Y-7970451D01*
X16388239Y-8139517D01*
X16388242Y-8139524D01*
X16390282Y-8145802D01*
X16485769Y-8311190D01*
X16613556Y-8453112D01*
X16618898Y-8456993D01*
X16618900Y-8456995D01*
X16662107Y-8488387D01*
X16768057Y-8565364D01*
X16942521Y-8643040D01*
X17129322Y-8682746D01*
X17313693Y-8682746D01*
X17320296Y-8682746D01*
X17507097Y-8643040D01*
X17681561Y-8565364D01*
X17836062Y-8453112D01*
X17861844Y-8424477D01*
X17910330Y-8391155D01*
X17968663Y-8383480D01*
X18024122Y-8403127D01*
X18064613Y-8445814D01*
X19677266Y-11240526D01*
X19694132Y-11303522D01*
X19677244Y-11366513D01*
X19631126Y-11412623D01*
X19568132Y-11429500D01*
X11691598Y-11429500D01*
X11627885Y-11412205D01*
X11581664Y-11365066D01*
X11565622Y-11301026D01*
X11584165Y-11237665D01*
X11632202Y-11192378D01*
X11675568Y-11169198D01*
X11730952Y-11139595D01*
X11884516Y-11013568D01*
X12010543Y-10860004D01*
X12104189Y-10684804D01*
X12161856Y-10494701D01*
X12181328Y-10297000D01*
X12173566Y-10218195D01*
X12162463Y-10105461D01*
X12162462Y-10105460D01*
X12161856Y-10099299D01*
X12104189Y-9909196D01*
X12101268Y-9903732D01*
X12100179Y-9901102D01*
X12091569Y-9837168D01*
X12110903Y-9789303D01*
X12109118Y-9788328D01*
X12113437Y-9780416D01*
X12118837Y-9773204D01*
X12169937Y-9636201D01*
X12176448Y-9575638D01*
X12176448Y-8478362D01*
X12169937Y-8417799D01*
X12118837Y-8280796D01*
X12031209Y-8163739D01*
X12007248Y-8145802D01*
X11921365Y-8081510D01*
X11921362Y-8081508D01*
X11914152Y-8076111D01*
X11905714Y-8072964D01*
X11905711Y-8072962D01*
X11784528Y-8027763D01*
X11784526Y-8027762D01*
X11777149Y-8025011D01*
X11769321Y-8024169D01*
X11769315Y-8024168D01*
X11719936Y-8018860D01*
X11719933Y-8018859D01*
X11716586Y-8018500D01*
X10619310Y-8018500D01*
X10615963Y-8018859D01*
X10615959Y-8018860D01*
X10566580Y-8024168D01*
X10566573Y-8024169D01*
X10558747Y-8025011D01*
X10551371Y-8027761D01*
X10551367Y-8027763D01*
X10430183Y-8072963D01*
X10430180Y-8072964D01*
X10421744Y-8076111D01*
X10414532Y-8081509D01*
X10406622Y-8085829D01*
X10405650Y-8084049D01*
X10357759Y-8103380D01*
X10293848Y-8094769D01*
X10291209Y-8093675D01*
X10285752Y-8090759D01*
X10279833Y-8088963D01*
X10279832Y-8088963D01*
X10101571Y-8034888D01*
X10101567Y-8034887D01*
X10095649Y-8033092D01*
X10089495Y-8032485D01*
X10089486Y-8032484D01*
X9904111Y-8014227D01*
X9897948Y-8013620D01*
X9891785Y-8014227D01*
X9706409Y-8032484D01*
X9706398Y-8032486D01*
X9700247Y-8033092D01*
X9694330Y-8034886D01*
X9694324Y-8034888D01*
X9516067Y-8088962D01*
X9516064Y-8088963D01*
X9510144Y-8090759D01*
X9504686Y-8093676D01*
X9504682Y-8093678D01*
X9340402Y-8181487D01*
X9340401Y-8181488D01*
X9334944Y-8184405D01*
X9331902Y-8186900D01*
X9287529Y-8205281D01*
X9238367Y-8205281D01*
X9193992Y-8186900D01*
X9190952Y-8184405D01*
X9165779Y-8170950D01*
X9021213Y-8093678D01*
X9015752Y-8090759D01*
X8967464Y-8076111D01*
X8831571Y-8034888D01*
X8831567Y-8034887D01*
X8825649Y-8033092D01*
X8819495Y-8032485D01*
X8819486Y-8032484D01*
X8634111Y-8014227D01*
X8627948Y-8013620D01*
X8621785Y-8014227D01*
X8436409Y-8032484D01*
X8436398Y-8032486D01*
X8430247Y-8033092D01*
X8424330Y-8034886D01*
X8424324Y-8034888D01*
X8246067Y-8088962D01*
X8246064Y-8088963D01*
X8240144Y-8090759D01*
X8234686Y-8093676D01*
X8234682Y-8093678D01*
X8070402Y-8181487D01*
X8070401Y-8181488D01*
X8064944Y-8184405D01*
X8060165Y-8188326D01*
X8060159Y-8188331D01*
X7916159Y-8306509D01*
X7916153Y-8306514D01*
X7911380Y-8310432D01*
X7907462Y-8315205D01*
X7907457Y-8315211D01*
X7789279Y-8459211D01*
X7789274Y-8459217D01*
X7785353Y-8463996D01*
X7782438Y-8469449D01*
X7782435Y-8469454D01*
X7729765Y-8567994D01*
X7691707Y-8639196D01*
X7689912Y-8645114D01*
X7689910Y-8645119D01*
X7635836Y-8823376D01*
X7635834Y-8823382D01*
X7634040Y-8829299D01*
X7633434Y-8835450D01*
X7633432Y-8835461D01*
X7615175Y-9020837D01*
X7614568Y-9027000D01*
X7615175Y-9033163D01*
X7633432Y-9218538D01*
X7633433Y-9218547D01*
X7634040Y-9224701D01*
X7635835Y-9230619D01*
X7635836Y-9230623D01*
X7658717Y-9306051D01*
X7691707Y-9414804D01*
X7694626Y-9420265D01*
X7782436Y-9584548D01*
X7782439Y-9584553D01*
X7785353Y-9590004D01*
X7787849Y-9593046D01*
X7806228Y-9637421D01*
X7806228Y-9686579D01*
X7787849Y-9730953D01*
X7785353Y-9733996D01*
X7782442Y-9739441D01*
X7782436Y-9739451D01*
X7696033Y-9901102D01*
X7691707Y-9909196D01*
X7689911Y-9915116D01*
X7689910Y-9915119D01*
X7635836Y-10093376D01*
X7635834Y-10093382D01*
X7634040Y-10099299D01*
X7633434Y-10105450D01*
X7633432Y-10105461D01*
X7615175Y-10290837D01*
X7614568Y-10297000D01*
X7615175Y-10303163D01*
X7633432Y-10488538D01*
X7633433Y-10488547D01*
X7634040Y-10494701D01*
X7635835Y-10500619D01*
X7635836Y-10500623D01*
X7664567Y-10595335D01*
X7691707Y-10684804D01*
X7785353Y-10860004D01*
X7789278Y-10864787D01*
X7789279Y-10864788D01*
X7885436Y-10981956D01*
X7911380Y-11013568D01*
X8064944Y-11139595D01*
X8075062Y-11145003D01*
X8163694Y-11192378D01*
X8211731Y-11237665D01*
X8230274Y-11301026D01*
X8214232Y-11365066D01*
X8168011Y-11412205D01*
X8104298Y-11429500D01*
X3521936Y-11429500D01*
X3461235Y-11413915D01*
X3415551Y-11371015D01*
X3396185Y-11311413D01*
X3407927Y-11249853D01*
X3445267Y-11204715D01*
X3445048Y-11204471D01*
X3446702Y-11202981D01*
X3447874Y-11201565D01*
X3448545Y-11201077D01*
X3455299Y-11196170D01*
X3583086Y-11054248D01*
X3678573Y-10888860D01*
X3737588Y-10707232D01*
X3757550Y-10517304D01*
X3737588Y-10327376D01*
X3678573Y-10145748D01*
X3583086Y-9980360D01*
X3455299Y-9838438D01*
X3449957Y-9834557D01*
X3449954Y-9834554D01*
X3353894Y-9764763D01*
X3300798Y-9726186D01*
X3126334Y-9648510D01*
X3119881Y-9647138D01*
X3119877Y-9647137D01*
X2945989Y-9610176D01*
X2945986Y-9610175D01*
X2939533Y-9608804D01*
X2748559Y-9608804D01*
X2742106Y-9610175D01*
X2742102Y-9610176D01*
X2568214Y-9647137D01*
X2568207Y-9647139D01*
X2561758Y-9648510D01*
X2555728Y-9651194D01*
X2555727Y-9651195D01*
X2393324Y-9723501D01*
X2393321Y-9723502D01*
X2387294Y-9726186D01*
X2381953Y-9730066D01*
X2381952Y-9730067D01*
X2238137Y-9834554D01*
X2238129Y-9834560D01*
X2232793Y-9838438D01*
X2228376Y-9843343D01*
X2228371Y-9843348D01*
X2148969Y-9931534D01*
X2105006Y-9980360D01*
X2101707Y-9986073D01*
X2101704Y-9986078D01*
X2027621Y-10114394D01*
X2009519Y-10145748D01*
X2007480Y-10152022D01*
X2007476Y-10152032D01*
X1952543Y-10321098D01*
X1952541Y-10321105D01*
X1950504Y-10327376D01*
X1949814Y-10333937D01*
X1949814Y-10333939D01*
X1938464Y-10441930D01*
X1930542Y-10517304D01*
X1931232Y-10523869D01*
X1947680Y-10680368D01*
X1950504Y-10707232D01*
X1952541Y-10713504D01*
X1952543Y-10713509D01*
X2007476Y-10882575D01*
X2007479Y-10882582D01*
X2009519Y-10888860D01*
X2105006Y-11054248D01*
X2232793Y-11196170D01*
X2238139Y-11200054D01*
X2240218Y-11201565D01*
X2241389Y-11202981D01*
X2243044Y-11204471D01*
X2242824Y-11204715D01*
X2280165Y-11249853D01*
X2291907Y-11311413D01*
X2272541Y-11371015D01*
X2226857Y-11413915D01*
X2166156Y-11429500D01*
X-2332922Y-11429500D01*
X-2388946Y-11416360D01*
X-2433285Y-11379680D01*
X-2456690Y-11327110D01*
X-2454281Y-11269616D01*
X-2426558Y-11219190D01*
X-2364179Y-11149911D01*
X-2364178Y-11149909D01*
X-2359760Y-11145003D01*
X-2264273Y-10979615D01*
X-2262233Y-10973337D01*
X-2262230Y-10973330D01*
X-2207297Y-10804264D01*
X-2207295Y-10804259D01*
X-2205258Y-10797987D01*
X-2185296Y-10608059D01*
X-2202349Y-10445809D01*
X-2204568Y-10424694D01*
X-2204568Y-10424692D01*
X-2205258Y-10418131D01*
X-2207295Y-10411860D01*
X-2207297Y-10411853D01*
X-2262230Y-10242787D01*
X-2262234Y-10242777D01*
X-2264273Y-10236503D01*
X-2313042Y-10152032D01*
X-2356458Y-10076833D01*
X-2356461Y-10076828D01*
X-2359760Y-10071115D01*
X-2390731Y-10036718D01*
X-2483125Y-9934103D01*
X-2483130Y-9934098D01*
X-2487547Y-9929193D01*
X-2492883Y-9925315D01*
X-2492891Y-9925309D01*
X-2636706Y-9820822D01*
X-2636707Y-9820821D01*
X-2642048Y-9816941D01*
X-2648075Y-9814257D01*
X-2648078Y-9814256D01*
X-2810481Y-9741950D01*
X-2810482Y-9741949D01*
X-2816512Y-9739265D01*
X-2822961Y-9737894D01*
X-2822968Y-9737892D01*
X-2996856Y-9700931D01*
X-2996860Y-9700930D01*
X-3003313Y-9699559D01*
X-3194287Y-9699559D01*
X-3200740Y-9700930D01*
X-3200743Y-9700931D01*
X-3374631Y-9737892D01*
X-3374635Y-9737893D01*
X-3381088Y-9739265D01*
X-3555552Y-9816941D01*
X-3585140Y-9838438D01*
X-3704708Y-9925309D01*
X-3704711Y-9925312D01*
X-3710053Y-9929193D01*
X-3837840Y-10071115D01*
X-3933327Y-10236503D01*
X-3935368Y-10242785D01*
X-3935369Y-10242787D01*
X-3952984Y-10297000D01*
X-3992342Y-10418131D01*
X-4012304Y-10608059D01*
X-3992342Y-10797987D01*
X-3933327Y-10979615D01*
X-3837840Y-11145003D01*
X-3796191Y-11191259D01*
X-3771042Y-11219190D01*
X-3743319Y-11269616D01*
X-3740910Y-11327110D01*
X-3764315Y-11379680D01*
X-3808654Y-11416360D01*
X-3864678Y-11429500D01*
X-8107350Y-11429500D01*
X-8171063Y-11412205D01*
X-8217284Y-11365066D01*
X-8233326Y-11301026D01*
X-8214783Y-11237665D01*
X-8166746Y-11192378D01*
X-8078114Y-11145003D01*
X-8067996Y-11139595D01*
X-7914432Y-11013568D01*
X-7888488Y-10981956D01*
X-7792331Y-10864788D01*
X-7792330Y-10864787D01*
X-7788405Y-10860004D01*
X-7694759Y-10684804D01*
X-7667619Y-10595335D01*
X-7638888Y-10500623D01*
X-7638887Y-10500619D01*
X-7637092Y-10494701D01*
X-7636485Y-10488547D01*
X-7636484Y-10488538D01*
X-7618227Y-10303163D01*
X-7617620Y-10297000D01*
X-7618227Y-10290837D01*
X-7636484Y-10105461D01*
X-7636486Y-10105450D01*
X-7637092Y-10099299D01*
X-7638886Y-10093382D01*
X-7638888Y-10093376D01*
X-7692963Y-9915115D01*
X-7692964Y-9915110D01*
X-7694759Y-9909196D01*
X-7697673Y-9903742D01*
X-7698771Y-9901094D01*
X-7707378Y-9837173D01*
X-7688046Y-9789298D01*
X-7689829Y-9788325D01*
X-7685510Y-9780416D01*
X-7680111Y-9773204D01*
X-7676963Y-9764764D01*
X-7676962Y-9764763D01*
X-7631763Y-9643580D01*
X-7631762Y-9643578D01*
X-7629011Y-9636201D01*
X-7628169Y-9628373D01*
X-7628168Y-9628367D01*
X-7622860Y-9578988D01*
X-7622859Y-9578985D01*
X-7622500Y-9575638D01*
X-7622500Y-8764200D01*
X-1719632Y-8764200D01*
X-1699670Y-8954128D01*
X-1640655Y-9135756D01*
X-1545168Y-9301144D01*
X-1417381Y-9443066D01*
X-1262880Y-9555318D01*
X-1088416Y-9632994D01*
X-901615Y-9672700D01*
X-717244Y-9672700D01*
X-710641Y-9672700D01*
X-523840Y-9632994D01*
X-349376Y-9555318D01*
X-194875Y-9443066D01*
X-182177Y-9428964D01*
X-164094Y-9408880D01*
X-67088Y-9301144D01*
X-60318Y-9289419D01*
X-35020Y-9245600D01*
X3607696Y-9245600D01*
X3608386Y-9252165D01*
X3612301Y-9289419D01*
X3627658Y-9435528D01*
X3629695Y-9441800D01*
X3629697Y-9441805D01*
X3684630Y-9610871D01*
X3684633Y-9610878D01*
X3686673Y-9617156D01*
X3735041Y-9700931D01*
X3776767Y-9773204D01*
X3782160Y-9782544D01*
X3909947Y-9924466D01*
X4064448Y-10036718D01*
X4238912Y-10114394D01*
X4425713Y-10154100D01*
X4610084Y-10154100D01*
X4616687Y-10154100D01*
X4803488Y-10114394D01*
X4977952Y-10036718D01*
X5132453Y-9924466D01*
X5260240Y-9782544D01*
X5355727Y-9617156D01*
X5414742Y-9435528D01*
X5434704Y-9245600D01*
X5414742Y-9055672D01*
X5355727Y-8874044D01*
X5260240Y-8708656D01*
X5132453Y-8566734D01*
X5127111Y-8562853D01*
X5127108Y-8562850D01*
X5015457Y-8481731D01*
X4977952Y-8454482D01*
X4803488Y-8376806D01*
X4797035Y-8375434D01*
X4797031Y-8375433D01*
X4623143Y-8338472D01*
X4623140Y-8338471D01*
X4616687Y-8337100D01*
X4425713Y-8337100D01*
X4419260Y-8338471D01*
X4419256Y-8338472D01*
X4245368Y-8375433D01*
X4245361Y-8375435D01*
X4238912Y-8376806D01*
X4232882Y-8379490D01*
X4232881Y-8379491D01*
X4070478Y-8451797D01*
X4070475Y-8451798D01*
X4064448Y-8454482D01*
X4059107Y-8458362D01*
X4059106Y-8458363D01*
X3915291Y-8562850D01*
X3915283Y-8562856D01*
X3909947Y-8566734D01*
X3905530Y-8571639D01*
X3905525Y-8571644D01*
X3805489Y-8682746D01*
X3782160Y-8708656D01*
X3778861Y-8714369D01*
X3778858Y-8714374D01*
X3692718Y-8863573D01*
X3686673Y-8874044D01*
X3684634Y-8880318D01*
X3684630Y-8880328D01*
X3629697Y-9049394D01*
X3629695Y-9049401D01*
X3627658Y-9055672D01*
X3626968Y-9062233D01*
X3626968Y-9062235D01*
X3610540Y-9218538D01*
X3607696Y-9245600D01*
X-35020Y-9245600D01*
X28399Y-9135756D01*
X87414Y-8954128D01*
X107376Y-8764200D01*
X87414Y-8574272D01*
X38743Y-8424480D01*
X30441Y-8398928D01*
X30440Y-8398926D01*
X28399Y-8392644D01*
X-27701Y-8295475D01*
X-43891Y-8245650D01*
X-38414Y-8193543D01*
X-12220Y-8148173D01*
X114041Y-8007946D01*
X121387Y-7995221D01*
X171350Y-7946968D01*
X239295Y-7932524D01*
X304569Y-7956281D01*
X315433Y-7964174D01*
X411145Y-8033713D01*
X585609Y-8111389D01*
X772410Y-8151095D01*
X956781Y-8151095D01*
X963384Y-8151095D01*
X1150185Y-8111389D01*
X1156220Y-8108701D01*
X1156223Y-8108701D01*
X1306804Y-8041658D01*
X1311802Y-8039432D01*
X1363050Y-8028539D01*
X1414299Y-8039432D01*
X1456686Y-8070229D01*
X1468263Y-8083087D01*
X1468270Y-8083093D01*
X1472688Y-8088000D01*
X1627189Y-8200252D01*
X1801653Y-8277928D01*
X1988454Y-8317634D01*
X2172825Y-8317634D01*
X2179428Y-8317634D01*
X2366229Y-8277928D01*
X2540693Y-8200252D01*
X2695194Y-8088000D01*
X2822981Y-7946078D01*
X2918468Y-7780690D01*
X2977483Y-7599062D01*
X2997445Y-7409134D01*
X2977483Y-7219206D01*
X2918468Y-7037578D01*
X2822981Y-6872190D01*
X2695194Y-6730268D01*
X2689852Y-6726387D01*
X2689849Y-6726384D01*
X2600637Y-6661568D01*
X2540693Y-6618016D01*
X2366229Y-6540340D01*
X2359776Y-6538968D01*
X2359772Y-6538967D01*
X2185884Y-6502006D01*
X2185881Y-6502005D01*
X2179428Y-6500634D01*
X1988454Y-6500634D01*
X1982001Y-6502005D01*
X1981997Y-6502006D01*
X1808109Y-6538967D01*
X1808102Y-6538969D01*
X1801653Y-6540340D01*
X1795623Y-6543024D01*
X1795622Y-6543025D01*
X1640036Y-6612296D01*
X1588787Y-6623189D01*
X1537538Y-6612295D01*
X1495150Y-6581499D01*
X1483569Y-6568637D01*
X1479150Y-6563729D01*
X1324649Y-6451477D01*
X1150185Y-6373801D01*
X1143732Y-6372429D01*
X1143728Y-6372428D01*
X969840Y-6335467D01*
X969837Y-6335466D01*
X963384Y-6334095D01*
X772410Y-6334095D01*
X765957Y-6335466D01*
X765953Y-6335467D01*
X592065Y-6372428D01*
X592058Y-6372430D01*
X585609Y-6373801D01*
X579579Y-6376485D01*
X579578Y-6376486D01*
X417175Y-6448792D01*
X417172Y-6448793D01*
X411145Y-6451477D01*
X405804Y-6455357D01*
X405803Y-6455358D01*
X261988Y-6559845D01*
X261980Y-6559851D01*
X256644Y-6563729D01*
X252227Y-6568634D01*
X252222Y-6568639D01*
X152058Y-6679884D01*
X128857Y-6705651D01*
X125557Y-6711365D01*
X125553Y-6711372D01*
X121504Y-6718385D01*
X71537Y-6766633D01*
X3596Y-6781072D01*
X-61673Y-6757315D01*
X-162905Y-6683764D01*
X-162913Y-6683759D01*
X-168247Y-6679884D01*
X-174274Y-6677200D01*
X-174277Y-6677199D01*
X-336680Y-6604893D01*
X-336681Y-6604892D01*
X-342711Y-6602208D01*
X-349160Y-6600837D01*
X-349167Y-6600835D01*
X-523055Y-6563874D01*
X-523059Y-6563873D01*
X-529512Y-6562502D01*
X-720486Y-6562502D01*
X-726939Y-6563873D01*
X-726942Y-6563874D01*
X-900830Y-6600835D01*
X-900834Y-6600836D01*
X-907287Y-6602208D01*
X-1081751Y-6679884D01*
X-1149862Y-6729370D01*
X-1230907Y-6788252D01*
X-1230910Y-6788255D01*
X-1236252Y-6792136D01*
X-1364039Y-6934058D01*
X-1459526Y-7099446D01*
X-1518541Y-7281074D01*
X-1538503Y-7471002D01*
X-1518541Y-7660930D01*
X-1459526Y-7842558D01*
X-1403424Y-7939728D01*
X-1387236Y-7989551D01*
X-1392713Y-8041658D01*
X-1418910Y-8087032D01*
X-1420648Y-8088962D01*
X-1545168Y-8227256D01*
X-1640655Y-8392644D01*
X-1642696Y-8398926D01*
X-1642697Y-8398928D01*
X-1650999Y-8424480D01*
X-1699670Y-8574272D01*
X-1719632Y-8764200D01*
X-7622500Y-8764200D01*
X-7622500Y-8478362D01*
X-7622860Y-8475011D01*
X-7628168Y-8425632D01*
X-7628169Y-8425625D01*
X-7629011Y-8417799D01*
X-7631761Y-8410423D01*
X-7631763Y-8410419D01*
X-7676962Y-8289236D01*
X-7676965Y-8289230D01*
X-7680111Y-8280796D01*
X-7685506Y-8273588D01*
X-7685510Y-8273582D01*
X-7762340Y-8170950D01*
X-7762343Y-8170946D01*
X-7767739Y-8163739D01*
X-7774946Y-8158343D01*
X-7774950Y-8158340D01*
X-7877582Y-8081510D01*
X-7877588Y-8081506D01*
X-7884796Y-8076111D01*
X-7893230Y-8072965D01*
X-7893236Y-8072962D01*
X-8014419Y-8027763D01*
X-8014423Y-8027761D01*
X-8021799Y-8025011D01*
X-8029625Y-8024169D01*
X-8029632Y-8024168D01*
X-8079011Y-8018860D01*
X-8079015Y-8018859D01*
X-8082362Y-8018500D01*
X-9179638Y-8018500D01*
X-9182985Y-8018859D01*
X-9182988Y-8018860D01*
X-9232367Y-8024168D01*
X-9232373Y-8024169D01*
X-9240201Y-8025011D01*
X-9247578Y-8027762D01*
X-9247580Y-8027763D01*
X-9368763Y-8072962D01*
X-9368766Y-8072964D01*
X-9377204Y-8076111D01*
X-9384416Y-8081510D01*
X-9392325Y-8085829D01*
X-9393298Y-8084046D01*
X-9441173Y-8103378D01*
X-9505094Y-8094771D01*
X-9507742Y-8093673D01*
X-9513196Y-8090759D01*
X-9519110Y-8088964D01*
X-9519115Y-8088963D01*
X-9697376Y-8034888D01*
X-9697382Y-8034886D01*
X-9703299Y-8033092D01*
X-9709450Y-8032486D01*
X-9709461Y-8032484D01*
X-9894837Y-8014227D01*
X-9901000Y-8013620D01*
X-9907163Y-8014227D01*
X-10092538Y-8032484D01*
X-10092547Y-8032485D01*
X-10098701Y-8033092D01*
X-10104619Y-8034887D01*
X-10104623Y-8034888D01*
X-10240516Y-8076111D01*
X-10288804Y-8090759D01*
X-10294265Y-8093678D01*
X-10458548Y-8181488D01*
X-10458553Y-8181491D01*
X-10464004Y-8184405D01*
X-10467046Y-8186901D01*
X-10511421Y-8205280D01*
X-10560579Y-8205280D01*
X-10604953Y-8186901D01*
X-10607996Y-8184405D01*
X-10613441Y-8181494D01*
X-10613451Y-8181488D01*
X-10777734Y-8093678D01*
X-10777738Y-8093676D01*
X-10783196Y-8090759D01*
X-10789116Y-8088963D01*
X-10789119Y-8088962D01*
X-10967376Y-8034888D01*
X-10967382Y-8034886D01*
X-10973299Y-8033092D01*
X-10979450Y-8032486D01*
X-10979461Y-8032484D01*
X-11164837Y-8014227D01*
X-11171000Y-8013620D01*
X-11177163Y-8014227D01*
X-11362538Y-8032484D01*
X-11362547Y-8032485D01*
X-11368701Y-8033092D01*
X-11374619Y-8034887D01*
X-11374623Y-8034888D01*
X-11510516Y-8076111D01*
X-11558804Y-8090759D01*
X-11564265Y-8093678D01*
X-11708831Y-8170950D01*
X-11734004Y-8184405D01*
X-11738787Y-8188330D01*
X-11738788Y-8188331D01*
X-11854439Y-8283244D01*
X-11887568Y-8310432D01*
X-12013595Y-8463996D01*
X-12107241Y-8639196D01*
X-12109036Y-8645114D01*
X-12114165Y-8662022D01*
X-12146032Y-8714929D01*
X-12199214Y-8746335D01*
X-12260932Y-8748695D01*
X-12266255Y-8747563D01*
X-12266265Y-8747561D01*
X-12272715Y-8746191D01*
X-12463689Y-8746191D01*
X-12470142Y-8747562D01*
X-12470145Y-8747563D01*
X-12644033Y-8784524D01*
X-12644037Y-8784525D01*
X-12650490Y-8785897D01*
X-12824954Y-8863573D01*
X-12848015Y-8880328D01*
X-12974110Y-8971941D01*
X-12974113Y-8971944D01*
X-12979455Y-8975825D01*
X-13107242Y-9117747D01*
X-13202729Y-9283135D01*
X-13261744Y-9464763D01*
X-13262655Y-9473431D01*
X-13263161Y-9474751D01*
X-13263808Y-9477791D01*
X-13264289Y-9477688D01*
X-13286028Y-9534321D01*
X-13336715Y-9575367D01*
X-13401135Y-9585571D01*
X-13462025Y-9562198D01*
X-13525815Y-9515852D01*
X-13525818Y-9515850D01*
X-13531156Y-9511972D01*
X-13537183Y-9509288D01*
X-13537186Y-9509287D01*
X-13699589Y-9436981D01*
X-13699590Y-9436980D01*
X-13705620Y-9434296D01*
X-13712069Y-9432925D01*
X-13712076Y-9432923D01*
X-13885964Y-9395962D01*
X-13885968Y-9395961D01*
X-13892421Y-9394590D01*
X-14083395Y-9394590D01*
X-14089848Y-9395961D01*
X-14089851Y-9395962D01*
X-14263739Y-9432923D01*
X-14263743Y-9432924D01*
X-14270196Y-9434296D01*
X-14444660Y-9511972D01*
X-14498977Y-9551436D01*
X-14593816Y-9620340D01*
X-14593819Y-9620343D01*
X-14599161Y-9624224D01*
X-14726948Y-9766146D01*
X-14822435Y-9931534D01*
X-14881450Y-10113162D01*
X-14901412Y-10303090D01*
X-14881450Y-10493018D01*
X-14822435Y-10674646D01*
X-14726948Y-10840034D01*
X-14599161Y-10981956D01*
X-14444660Y-11094208D01*
X-14270196Y-11171884D01*
X-14230823Y-11180253D01*
X-14176029Y-11206978D01*
X-14140195Y-11256300D01*
X-14131710Y-11316671D01*
X-14152561Y-11373958D01*
X-14197867Y-11414751D01*
X-14257020Y-11429500D01*
X-19568132Y-11429500D01*
X-19631126Y-11412623D01*
X-19677244Y-11366513D01*
X-19694132Y-11303522D01*
X-19677266Y-11240526D01*
X-17100007Y-6774160D01*
X-17056164Y-6729370D01*
X-16996167Y-6711245D01*
X-16934859Y-6724269D01*
X-16887411Y-6765220D01*
X-16865563Y-6823963D01*
X-16858042Y-6895528D01*
X-16799027Y-7077156D01*
X-16703540Y-7242544D01*
X-16575753Y-7384466D01*
X-16421252Y-7496718D01*
X-16246788Y-7574394D01*
X-16059987Y-7614100D01*
X-15875616Y-7614100D01*
X-15869013Y-7614100D01*
X-15682212Y-7574394D01*
X-15507748Y-7496718D01*
X-15378330Y-7402690D01*
X-15358591Y-7388349D01*
X-15358589Y-7388347D01*
X-15353247Y-7384466D01*
X-15225460Y-7242544D01*
X-15129973Y-7077156D01*
X-15098549Y-6980443D01*
X-15088566Y-6949720D01*
X-15049724Y-6892135D01*
X-14986269Y-6863883D01*
X-14917485Y-6873549D01*
X-14772388Y-6938151D01*
X-14585587Y-6977857D01*
X-14401216Y-6977857D01*
X-14394613Y-6977857D01*
X-14207812Y-6938151D01*
X-14033348Y-6860475D01*
X-13878847Y-6748223D01*
X-13816638Y-6679133D01*
X-7211637Y-6679133D01*
X-7191675Y-6869061D01*
X-7132660Y-7050689D01*
X-7037173Y-7216077D01*
X-6909386Y-7357999D01*
X-6754885Y-7470251D01*
X-6580421Y-7547927D01*
X-6393620Y-7587633D01*
X-6209249Y-7587633D01*
X-6202646Y-7587633D01*
X-6015845Y-7547927D01*
X-5841381Y-7470251D01*
X-5728653Y-7388349D01*
X-5692224Y-7361882D01*
X-5692222Y-7361880D01*
X-5686880Y-7357999D01*
X-5559093Y-7216077D01*
X-5463606Y-7050689D01*
X-5461566Y-7044411D01*
X-5461563Y-7044404D01*
X-5406630Y-6875338D01*
X-5406628Y-6875333D01*
X-5404591Y-6869061D01*
X-5403688Y-6860475D01*
X-5385319Y-6685698D01*
X-5384629Y-6679133D01*
X-5397166Y-6559846D01*
X-5403901Y-6495768D01*
X-5403901Y-6495766D01*
X-5404591Y-6489205D01*
X-5406628Y-6482934D01*
X-5406630Y-6482927D01*
X-5461563Y-6313861D01*
X-5461567Y-6313851D01*
X-5463606Y-6307577D01*
X-5470445Y-6295732D01*
X-5555791Y-6147907D01*
X-5555794Y-6147902D01*
X-5559093Y-6142189D01*
X-5583139Y-6115482D01*
X-5613588Y-6053053D01*
X-5606327Y-5983974D01*
X-5563563Y-5929238D01*
X-5439291Y-5838949D01*
X-5439289Y-5838947D01*
X-5433947Y-5835066D01*
X-5306160Y-5693144D01*
X-5249905Y-5595707D01*
X-4899899Y-5595707D01*
X-4879937Y-5785635D01*
X-4820922Y-5967263D01*
X-4725435Y-6132651D01*
X-4597648Y-6274573D01*
X-4443147Y-6386825D01*
X-4268683Y-6464501D01*
X-4123156Y-6495433D01*
X-4070059Y-6520760D01*
X-4034247Y-6567433D01*
X-4033121Y-6569960D01*
X-4031081Y-6576241D01*
X-3935594Y-6741629D01*
X-3807807Y-6883551D01*
X-3653306Y-6995803D01*
X-3478842Y-7073479D01*
X-3292041Y-7113185D01*
X-3107670Y-7113185D01*
X-3101067Y-7113185D01*
X-2914266Y-7073479D01*
X-2739802Y-6995803D01*
X-2630220Y-6916187D01*
X-2590645Y-6887434D01*
X-2590643Y-6887432D01*
X-2585301Y-6883551D01*
X-2575071Y-6872190D01*
X-2559455Y-6854846D01*
X-2457514Y-6741629D01*
X-2453789Y-6735178D01*
X-2411291Y-6661568D01*
X-2362027Y-6576241D01*
X-2359987Y-6569963D01*
X-2359984Y-6569956D01*
X-2303012Y-6394613D01*
X-2300940Y-6395286D01*
X-2280883Y-6353234D01*
X-2234210Y-6317421D01*
X-2199245Y-6301854D01*
X-2077184Y-6247509D01*
X-1966258Y-6166916D01*
X-1928027Y-6139140D01*
X-1928025Y-6139138D01*
X-1922683Y-6135257D01*
X-1794896Y-5993335D01*
X-1786536Y-5978856D01*
X-1741821Y-5901406D01*
X-1699409Y-5827947D01*
X-1697369Y-5821669D01*
X-1697366Y-5821662D01*
X-1642433Y-5652596D01*
X-1642431Y-5652591D01*
X-1640394Y-5646319D01*
X-1639657Y-5639312D01*
X-1621122Y-5462956D01*
X-1620432Y-5456391D01*
X-1626411Y-5399501D01*
X-1639704Y-5273026D01*
X-1639704Y-5273024D01*
X-1640394Y-5266463D01*
X-1642431Y-5260192D01*
X-1642433Y-5260185D01*
X-1674003Y-5163024D01*
X-1677416Y-5097890D01*
X-1647805Y-5039777D01*
X-1593105Y-5004254D01*
X-1527972Y-5000842D01*
X-1503247Y-5006097D01*
X-1474492Y-5012210D01*
X-1474488Y-5012210D01*
X-1468031Y-5013583D01*
X-1283660Y-5013583D01*
X-1277057Y-5013583D01*
X-1090256Y-4973877D01*
X-915792Y-4896201D01*
X-786052Y-4801939D01*
X-772168Y-4791852D01*
X-719119Y-4769552D01*
X-661688Y-4773166D01*
X-611853Y-4801939D01*
X-580009Y-4849870D01*
X-572797Y-4906957D01*
X-575760Y-4935144D01*
X-555798Y-5125072D01*
X-496783Y-5306700D01*
X-401296Y-5472088D01*
X-273509Y-5614010D01*
X-119008Y-5726262D01*
X55456Y-5803938D01*
X242257Y-5843644D01*
X426628Y-5843644D01*
X433231Y-5843644D01*
X620032Y-5803938D01*
X794496Y-5726262D01*
X948997Y-5614010D01*
X965438Y-5595749D01*
X1007823Y-5564954D01*
X1059073Y-5554059D01*
X1110321Y-5564951D01*
X1250465Y-5627347D01*
X1437266Y-5667053D01*
X1621637Y-5667053D01*
X1628240Y-5667053D01*
X1815041Y-5627347D01*
X1989505Y-5549671D01*
X2144006Y-5437419D01*
X2271793Y-5295497D01*
X2315093Y-5220497D01*
X2350150Y-5181564D01*
X2398014Y-5160253D01*
X2450408Y-5160253D01*
X2631390Y-5198723D01*
X2815761Y-5198723D01*
X2822364Y-5198723D01*
X2903090Y-5181564D01*
X2935548Y-5174665D01*
X2998163Y-5177288D01*
X3051769Y-5209753D01*
X3083104Y-5264026D01*
X3084417Y-5326682D01*
X3055383Y-5382221D01*
X3029386Y-5411094D01*
X2970378Y-5476629D01*
X2967079Y-5482342D01*
X2967076Y-5482347D01*
X2878510Y-5635749D01*
X2874891Y-5642017D01*
X2872852Y-5648291D01*
X2872848Y-5648301D01*
X2817915Y-5817367D01*
X2817913Y-5817374D01*
X2815876Y-5823645D01*
X2815186Y-5830206D01*
X2815186Y-5830208D01*
X2796976Y-6003465D01*
X2795914Y-6013573D01*
X2796604Y-6020138D01*
X2808950Y-6137609D01*
X2815876Y-6203501D01*
X2817913Y-6209773D01*
X2817915Y-6209778D01*
X2872848Y-6378844D01*
X2872851Y-6378851D01*
X2874891Y-6385129D01*
X2907098Y-6440913D01*
X2963709Y-6538967D01*
X2970378Y-6550517D01*
X3098165Y-6692439D01*
X3103507Y-6696320D01*
X3103509Y-6696322D01*
X3123873Y-6711117D01*
X3252666Y-6804691D01*
X3427130Y-6882367D01*
X3613931Y-6922073D01*
X3798302Y-6922073D01*
X3804905Y-6922073D01*
X3991706Y-6882367D01*
X4150235Y-6811785D01*
X4210271Y-6801200D01*
X4268252Y-6820039D01*
X4310601Y-6863893D01*
X4388309Y-6998487D01*
X4404527Y-7026577D01*
X4532314Y-7168499D01*
X4686815Y-7280751D01*
X4861279Y-7358427D01*
X5048080Y-7398133D01*
X5232451Y-7398133D01*
X5239054Y-7398133D01*
X5425855Y-7358427D01*
X5600319Y-7280751D01*
X5754820Y-7168499D01*
X5882607Y-7026577D01*
X5978094Y-6861189D01*
X6037109Y-6679561D01*
X6057071Y-6489633D01*
X6037109Y-6299705D01*
X5988191Y-6149151D01*
X5980136Y-6124361D01*
X5980135Y-6124359D01*
X5978094Y-6118077D01*
X5882607Y-5952689D01*
X5754820Y-5810767D01*
X5749478Y-5806886D01*
X5749475Y-5806883D01*
X5657743Y-5740236D01*
X5600319Y-5698515D01*
X5425855Y-5620839D01*
X5419402Y-5619467D01*
X5419398Y-5619466D01*
X5245510Y-5582505D01*
X5245507Y-5582504D01*
X5239054Y-5581133D01*
X5048080Y-5581133D01*
X5041627Y-5582504D01*
X5041623Y-5582505D01*
X4867735Y-5619466D01*
X4867728Y-5619468D01*
X4861279Y-5620839D01*
X4855251Y-5623522D01*
X4855244Y-5623525D01*
X4702750Y-5691419D01*
X4642712Y-5702005D01*
X4584732Y-5683166D01*
X4542383Y-5639312D01*
X4533924Y-5624661D01*
X4448458Y-5476629D01*
X4320671Y-5334707D01*
X4315329Y-5330826D01*
X4315326Y-5330823D01*
X4289205Y-5311845D01*
X6109552Y-5311845D01*
X6110242Y-5318410D01*
X6120114Y-5412342D01*
X6129514Y-5501773D01*
X6131551Y-5508045D01*
X6131553Y-5508050D01*
X6186486Y-5677116D01*
X6186489Y-5677123D01*
X6188529Y-5683401D01*
X6221343Y-5740236D01*
X6277097Y-5836806D01*
X6284016Y-5848789D01*
X6411803Y-5990711D01*
X6417145Y-5994592D01*
X6417147Y-5994594D01*
X6433372Y-6006382D01*
X6566304Y-6102963D01*
X6740768Y-6180639D01*
X6927569Y-6220345D01*
X7111940Y-6220345D01*
X7118543Y-6220345D01*
X7305344Y-6180639D01*
X7479808Y-6102963D01*
X7634309Y-5990711D01*
X7762096Y-5848789D01*
X7857583Y-5683401D01*
X7916598Y-5501773D01*
X7936560Y-5311845D01*
X7916598Y-5121917D01*
X7868942Y-4975249D01*
X7861713Y-4953000D01*
X9185998Y-4953000D01*
X9186688Y-4959565D01*
X9204106Y-5125293D01*
X9205960Y-5142928D01*
X9207997Y-5149200D01*
X9207999Y-5149205D01*
X9262932Y-5318271D01*
X9262935Y-5318278D01*
X9264975Y-5324556D01*
X9322352Y-5423935D01*
X9352774Y-5476629D01*
X9360462Y-5489944D01*
X9466130Y-5607300D01*
X9481761Y-5624661D01*
X9488249Y-5631866D01*
X9493591Y-5635747D01*
X9493593Y-5635749D01*
X9524907Y-5658500D01*
X9642750Y-5744118D01*
X9817214Y-5821794D01*
X10004015Y-5861500D01*
X10188386Y-5861500D01*
X10194989Y-5861500D01*
X10381790Y-5821794D01*
X10556254Y-5744118D01*
X10710755Y-5631866D01*
X10838542Y-5489944D01*
X10934029Y-5324556D01*
X10993044Y-5142928D01*
X11013006Y-4953000D01*
X10993044Y-4763072D01*
X10947004Y-4621377D01*
X10936071Y-4587728D01*
X10936070Y-4587726D01*
X10934029Y-4581444D01*
X10838542Y-4416056D01*
X10710755Y-4274134D01*
X10705413Y-4270253D01*
X10705410Y-4270250D01*
X10595153Y-4190144D01*
X10556254Y-4161882D01*
X10381790Y-4084206D01*
X10375337Y-4082834D01*
X10375333Y-4082833D01*
X10201445Y-4045872D01*
X10201442Y-4045871D01*
X10194989Y-4044500D01*
X10004015Y-4044500D01*
X9997562Y-4045871D01*
X9997558Y-4045872D01*
X9823670Y-4082833D01*
X9823663Y-4082835D01*
X9817214Y-4084206D01*
X9811184Y-4086890D01*
X9811183Y-4086891D01*
X9648780Y-4159197D01*
X9648777Y-4159198D01*
X9642750Y-4161882D01*
X9637409Y-4165762D01*
X9637408Y-4165763D01*
X9493593Y-4270250D01*
X9493585Y-4270256D01*
X9488249Y-4274134D01*
X9483832Y-4279039D01*
X9483827Y-4279044D01*
X9364881Y-4411148D01*
X9360462Y-4416056D01*
X9357163Y-4421769D01*
X9357160Y-4421774D01*
X9292755Y-4533328D01*
X9264975Y-4581444D01*
X9262936Y-4587718D01*
X9262932Y-4587728D01*
X9207999Y-4756794D01*
X9207997Y-4756801D01*
X9205960Y-4763072D01*
X9205270Y-4769633D01*
X9205270Y-4769635D01*
X9189301Y-4921573D01*
X9185998Y-4953000D01*
X7861713Y-4953000D01*
X7859625Y-4946573D01*
X7859624Y-4946571D01*
X7857583Y-4940289D01*
X7762096Y-4774901D01*
X7634309Y-4632979D01*
X7628967Y-4629098D01*
X7628964Y-4629095D01*
X7538801Y-4563588D01*
X7479808Y-4520727D01*
X7305344Y-4443051D01*
X7298891Y-4441679D01*
X7298887Y-4441678D01*
X7124999Y-4404717D01*
X7124996Y-4404716D01*
X7118543Y-4403345D01*
X6927569Y-4403345D01*
X6921116Y-4404716D01*
X6921112Y-4404717D01*
X6747224Y-4441678D01*
X6747217Y-4441680D01*
X6740768Y-4443051D01*
X6734738Y-4445735D01*
X6734737Y-4445736D01*
X6572334Y-4518042D01*
X6572331Y-4518043D01*
X6566304Y-4520727D01*
X6560963Y-4524607D01*
X6560962Y-4524608D01*
X6417147Y-4629095D01*
X6417139Y-4629101D01*
X6411803Y-4632979D01*
X6407386Y-4637884D01*
X6407381Y-4637889D01*
X6288435Y-4769993D01*
X6284016Y-4774901D01*
X6280717Y-4780614D01*
X6280714Y-4780619D01*
X6195287Y-4928583D01*
X6188529Y-4940289D01*
X6186490Y-4946563D01*
X6186486Y-4946573D01*
X6131553Y-5115639D01*
X6131551Y-5115646D01*
X6129514Y-5121917D01*
X6128824Y-5128478D01*
X6128824Y-5128480D01*
X6118947Y-5222455D01*
X6109552Y-5311845D01*
X4289205Y-5311845D01*
X4235775Y-5273026D01*
X4166170Y-5222455D01*
X3991706Y-5144779D01*
X3985253Y-5143407D01*
X3985249Y-5143406D01*
X3811361Y-5106445D01*
X3811358Y-5106444D01*
X3804905Y-5105073D01*
X3613931Y-5105073D01*
X3607481Y-5106443D01*
X3607471Y-5106445D01*
X3500744Y-5129131D01*
X3438130Y-5126506D01*
X3384524Y-5094041D01*
X3353189Y-5039767D01*
X3351877Y-4977111D01*
X3380909Y-4921577D01*
X3465917Y-4827167D01*
X3561404Y-4661779D01*
X3620419Y-4480151D01*
X3640381Y-4290223D01*
X3620419Y-4100295D01*
X3580724Y-3978128D01*
X3563446Y-3924951D01*
X3563445Y-3924949D01*
X3561404Y-3918667D01*
X3465917Y-3753279D01*
X3338130Y-3611357D01*
X3332788Y-3607476D01*
X3332785Y-3607473D01*
X3238751Y-3539154D01*
X3183629Y-3499105D01*
X3009165Y-3421429D01*
X3002712Y-3420057D01*
X3002708Y-3420056D01*
X2828820Y-3383095D01*
X2828817Y-3383094D01*
X2822364Y-3381723D01*
X2631390Y-3381723D01*
X2624937Y-3383094D01*
X2624933Y-3383095D01*
X2451045Y-3420056D01*
X2451038Y-3420058D01*
X2444589Y-3421429D01*
X2438559Y-3424113D01*
X2438558Y-3424114D01*
X2276155Y-3496420D01*
X2276152Y-3496421D01*
X2270125Y-3499105D01*
X2264784Y-3502985D01*
X2264783Y-3502986D01*
X2120968Y-3607473D01*
X2120960Y-3607479D01*
X2115624Y-3611357D01*
X2111207Y-3616262D01*
X2111202Y-3616267D01*
X1999068Y-3740806D01*
X1987837Y-3753279D01*
X1984538Y-3758992D01*
X1984538Y-3758993D01*
X1944537Y-3828276D01*
X1909478Y-3867212D01*
X1861614Y-3888522D01*
X1809221Y-3888522D01*
X1774802Y-3881206D01*
X1733440Y-3872414D01*
X1634696Y-3851425D01*
X1634693Y-3851424D01*
X1628240Y-3850053D01*
X1437266Y-3850053D01*
X1430816Y-3851423D01*
X1430806Y-3851425D01*
X1332062Y-3872414D01*
X1262771Y-3867568D01*
X1206576Y-3826740D01*
X1180556Y-3762336D01*
X1180205Y-3758997D01*
X1178953Y-3747084D01*
X1133590Y-3607473D01*
X1121980Y-3571740D01*
X1121979Y-3571738D01*
X1119938Y-3565456D01*
X1024451Y-3400068D01*
X938161Y-3304233D01*
X908552Y-3246121D01*
X911966Y-3180988D01*
X918113Y-3162073D01*
X938075Y-2972145D01*
X918113Y-2782217D01*
X859098Y-2600589D01*
X763611Y-2435201D01*
X635824Y-2293279D01*
X630482Y-2289398D01*
X630479Y-2289395D01*
X528508Y-2215309D01*
X481323Y-2181027D01*
X306859Y-2103351D01*
X300406Y-2101979D01*
X300402Y-2101978D01*
X126514Y-2065017D01*
X126511Y-2065016D01*
X120058Y-2063645D01*
X113455Y-2063645D01*
X111606Y-2063645D01*
X110412Y-2063325D01*
X106889Y-2062955D01*
X106947Y-2062396D01*
X48606Y-2046764D01*
X2487Y-2000645D01*
X-70625Y-1874011D01*
X-70628Y-1874006D01*
X-73927Y-1868293D01*
X-78346Y-1863385D01*
X-197292Y-1731281D01*
X-197297Y-1731276D01*
X-201714Y-1726371D01*
X-207050Y-1722493D01*
X-207058Y-1722487D01*
X-350873Y-1618000D01*
X-350874Y-1617999D01*
X-356215Y-1614119D01*
X-362242Y-1611435D01*
X-362245Y-1611434D01*
X-524648Y-1539128D01*
X-524649Y-1539127D01*
X-530679Y-1536443D01*
X-537128Y-1535072D01*
X-537135Y-1535070D01*
X-711023Y-1498109D01*
X-711027Y-1498108D01*
X-717480Y-1496737D01*
X-908454Y-1496737D01*
X-914907Y-1498108D01*
X-914910Y-1498109D01*
X-1088798Y-1535070D01*
X-1088802Y-1535071D01*
X-1095255Y-1536443D01*
X-1269719Y-1614119D01*
X-1341024Y-1665925D01*
X-1418875Y-1722487D01*
X-1418878Y-1722490D01*
X-1424220Y-1726371D01*
X-1552007Y-1868293D01*
X-1647494Y-2033681D01*
X-1649535Y-2039963D01*
X-1649536Y-2039965D01*
X-1688333Y-2159370D01*
X-1723855Y-2214070D01*
X-1781966Y-2243679D01*
X-1798081Y-2247105D01*
X-1804104Y-2249786D01*
X-1804108Y-2249788D01*
X-1901790Y-2293279D01*
X-1972545Y-2324781D01*
X-2043850Y-2376587D01*
X-2121701Y-2433149D01*
X-2121704Y-2433152D01*
X-2127046Y-2437033D01*
X-2254833Y-2578955D01*
X-2350320Y-2744343D01*
X-2352361Y-2750625D01*
X-2352362Y-2750627D01*
X-2357676Y-2766981D01*
X-2409335Y-2925971D01*
X-2429297Y-3115899D01*
X-2409502Y-3304237D01*
X-2409335Y-3305827D01*
X-2410192Y-3305917D01*
X-2413287Y-3365079D01*
X-2448808Y-3419785D01*
X-2506925Y-3449399D01*
X-2619042Y-3473231D01*
X-2619049Y-3473233D01*
X-2625507Y-3474606D01*
X-2799971Y-3552282D01*
X-2871276Y-3604088D01*
X-2949127Y-3660650D01*
X-2949130Y-3660653D01*
X-2954472Y-3664534D01*
X-3082259Y-3806456D01*
X-3177746Y-3971844D01*
X-3179787Y-3978126D01*
X-3179788Y-3978128D01*
X-3183562Y-3989743D01*
X-3236761Y-4153472D01*
X-3256723Y-4343400D01*
X-3236761Y-4533328D01*
X-3195024Y-4661779D01*
X-3177746Y-4714956D01*
X-3178891Y-4715328D01*
X-3170293Y-4752529D01*
X-3177809Y-4800035D01*
X-3202579Y-4841263D01*
X-3236047Y-4878433D01*
X-3286588Y-4912524D01*
X-3347218Y-4918897D01*
X-3403743Y-4896060D01*
X-3524302Y-4808469D01*
X-3524305Y-4808467D01*
X-3529643Y-4804589D01*
X-3535670Y-4801905D01*
X-3535673Y-4801904D01*
X-3698076Y-4729598D01*
X-3698077Y-4729597D01*
X-3704107Y-4726913D01*
X-3710556Y-4725542D01*
X-3710563Y-4725540D01*
X-3884451Y-4688579D01*
X-3884455Y-4688578D01*
X-3890908Y-4687207D01*
X-4081882Y-4687207D01*
X-4088335Y-4688578D01*
X-4088338Y-4688579D01*
X-4262226Y-4725540D01*
X-4262230Y-4725541D01*
X-4268683Y-4726913D01*
X-4443147Y-4804589D01*
X-4493624Y-4841263D01*
X-4592303Y-4912957D01*
X-4592306Y-4912960D01*
X-4597648Y-4916841D01*
X-4725435Y-5058763D01*
X-4820922Y-5224151D01*
X-4822963Y-5230433D01*
X-4822964Y-5230435D01*
X-4826731Y-5242028D01*
X-4879937Y-5405779D01*
X-4899899Y-5595707D01*
X-5249905Y-5595707D01*
X-5210673Y-5527756D01*
X-5208633Y-5521478D01*
X-5208630Y-5521471D01*
X-5153697Y-5352405D01*
X-5153695Y-5352400D01*
X-5151658Y-5346128D01*
X-5146336Y-5295497D01*
X-5132386Y-5162765D01*
X-5131696Y-5156200D01*
X-5137070Y-5105073D01*
X-5150968Y-4972835D01*
X-5150968Y-4972833D01*
X-5151658Y-4966272D01*
X-5153695Y-4960001D01*
X-5153697Y-4959994D01*
X-5208630Y-4790928D01*
X-5208634Y-4790918D01*
X-5210673Y-4784644D01*
X-5213971Y-4778930D01*
X-5213975Y-4778923D01*
X-5261759Y-4696159D01*
X-5278639Y-4633160D01*
X-5261759Y-4570161D01*
X-5241078Y-4534341D01*
X-5241076Y-4534337D01*
X-5237776Y-4528621D01*
X-5235736Y-4522343D01*
X-5235733Y-4522336D01*
X-5180800Y-4353270D01*
X-5180798Y-4353265D01*
X-5178761Y-4346993D01*
X-5176782Y-4328169D01*
X-5159489Y-4163630D01*
X-5158799Y-4157065D01*
X-5164766Y-4100295D01*
X-5178071Y-3973700D01*
X-5178071Y-3973698D01*
X-5178761Y-3967137D01*
X-5180798Y-3960866D01*
X-5180800Y-3960859D01*
X-5235733Y-3791793D01*
X-5235737Y-3791783D01*
X-5237776Y-3785509D01*
X-5251155Y-3762336D01*
X-5329961Y-3625839D01*
X-5329964Y-3625834D01*
X-5333263Y-3620121D01*
X-5337682Y-3615213D01*
X-5456628Y-3483109D01*
X-5456633Y-3483104D01*
X-5461050Y-3478199D01*
X-5466386Y-3474321D01*
X-5466394Y-3474315D01*
X-5610209Y-3369828D01*
X-5610210Y-3369827D01*
X-5615551Y-3365947D01*
X-5621578Y-3363263D01*
X-5621581Y-3363262D01*
X-5783984Y-3290956D01*
X-5783985Y-3290955D01*
X-5790015Y-3288271D01*
X-5796464Y-3286900D01*
X-5796471Y-3286898D01*
X-5970359Y-3249937D01*
X-5970363Y-3249936D01*
X-5976816Y-3248565D01*
X-6167790Y-3248565D01*
X-6174243Y-3249936D01*
X-6174246Y-3249937D01*
X-6348134Y-3286898D01*
X-6348138Y-3286899D01*
X-6354591Y-3288271D01*
X-6529055Y-3365947D01*
X-6552657Y-3383095D01*
X-6678211Y-3474315D01*
X-6678214Y-3474318D01*
X-6683556Y-3478199D01*
X-6811343Y-3620121D01*
X-6906830Y-3785509D01*
X-6908871Y-3791791D01*
X-6908872Y-3791793D01*
X-6935067Y-3872414D01*
X-6965845Y-3967137D01*
X-6985807Y-4157065D01*
X-6965845Y-4346993D01*
X-6906830Y-4528621D01*
X-6879636Y-4575721D01*
X-6855744Y-4617103D01*
X-6838863Y-4680104D01*
X-6855743Y-4743104D01*
X-6879727Y-4784644D01*
X-6938742Y-4966272D01*
X-6958704Y-5156200D01*
X-6938742Y-5346128D01*
X-6879727Y-5527756D01*
X-6784240Y-5693144D01*
X-6760194Y-5719849D01*
X-6729745Y-5782275D01*
X-6737004Y-5851357D01*
X-6779769Y-5906094D01*
X-6904041Y-5996383D01*
X-6904044Y-5996386D01*
X-6909386Y-6000267D01*
X-7037173Y-6142189D01*
X-7132660Y-6307577D01*
X-7134701Y-6313859D01*
X-7134702Y-6313861D01*
X-7151614Y-6365911D01*
X-7191675Y-6489205D01*
X-7211637Y-6679133D01*
X-13816638Y-6679133D01*
X-13751060Y-6606301D01*
X-13736740Y-6581499D01*
X-13683702Y-6489633D01*
X-13655573Y-6440913D01*
X-13653532Y-6434634D01*
X-13653531Y-6434630D01*
X-13631203Y-6365911D01*
X-13602765Y-6318113D01*
X-13556520Y-6287215D01*
X-13501478Y-6279237D01*
X-13448370Y-6295729D01*
X-13430702Y-6305931D01*
X-13374997Y-6330573D01*
X-13230799Y-6354821D01*
X-13085611Y-6337461D01*
X-12951194Y-6279901D01*
X-12915216Y-6250195D01*
X-12844516Y-6191821D01*
X-12844514Y-6191819D01*
X-12838439Y-6186803D01*
X-12833792Y-6180439D01*
X-12833790Y-6180437D01*
X-12804510Y-6140337D01*
X-12802518Y-6137609D01*
X-12779136Y-6097111D01*
X-12255569Y-5190267D01*
X-12255566Y-5190262D01*
X-12253880Y-5187341D01*
X-12252517Y-5184259D01*
X-12252512Y-5184250D01*
X-12232425Y-5138842D01*
X-12232423Y-5138837D01*
X-12229238Y-5131636D01*
X-12222916Y-5094041D01*
X-12206484Y-4996325D01*
X-12206483Y-4996322D01*
X-12204990Y-4987438D01*
X-12206059Y-4978495D01*
X-12206059Y-4978486D01*
X-12206082Y-4978298D01*
X-12206049Y-4978049D01*
X-12205845Y-4969480D01*
X-12204917Y-4969502D01*
X-12197877Y-4916338D01*
X-12160906Y-4865945D01*
X-12054801Y-4778867D01*
X-12054797Y-4778863D01*
X-12050018Y-4774941D01*
X-12029549Y-4750000D01*
X-9663504Y-4750000D01*
X-9643542Y-4939928D01*
X-9584527Y-5121556D01*
X-9489040Y-5286944D01*
X-9361253Y-5428866D01*
X-9206752Y-5541118D01*
X-9032288Y-5618794D01*
X-8845487Y-5658500D01*
X-8661116Y-5658500D01*
X-8654513Y-5658500D01*
X-8467712Y-5618794D01*
X-8293248Y-5541118D01*
X-8167596Y-5449826D01*
X-8144091Y-5432749D01*
X-8144089Y-5432747D01*
X-8138747Y-5428866D01*
X-8010960Y-5286944D01*
X-8004179Y-5275200D01*
X-7966394Y-5209753D01*
X-7915473Y-5121556D01*
X-7913433Y-5115278D01*
X-7913430Y-5115271D01*
X-7858497Y-4946205D01*
X-7858495Y-4946200D01*
X-7856458Y-4939928D01*
X-7854547Y-4921751D01*
X-7837186Y-4756565D01*
X-7836496Y-4750000D01*
X-7838650Y-4729502D01*
X-7855768Y-4566635D01*
X-7855768Y-4566633D01*
X-7856458Y-4560072D01*
X-7858495Y-4553801D01*
X-7858497Y-4553794D01*
X-7913430Y-4384728D01*
X-7913434Y-4384718D01*
X-7915473Y-4378444D01*
X-7920223Y-4370217D01*
X-8007658Y-4218774D01*
X-8007661Y-4218769D01*
X-8010960Y-4213056D01*
X-8031590Y-4190144D01*
X-8134325Y-4076044D01*
X-8134330Y-4076039D01*
X-8138747Y-4071134D01*
X-8144083Y-4067256D01*
X-8144091Y-4067250D01*
X-8287906Y-3962763D01*
X-8287907Y-3962762D01*
X-8293248Y-3958882D01*
X-8299275Y-3956198D01*
X-8299278Y-3956197D01*
X-8461681Y-3883891D01*
X-8461682Y-3883890D01*
X-8467712Y-3881206D01*
X-8474161Y-3879835D01*
X-8474168Y-3879833D01*
X-8648056Y-3842872D01*
X-8648060Y-3842871D01*
X-8654513Y-3841500D01*
X-8845487Y-3841500D01*
X-8851940Y-3842871D01*
X-8851943Y-3842872D01*
X-9025831Y-3879833D01*
X-9025835Y-3879834D01*
X-9032288Y-3881206D01*
X-9206752Y-3958882D01*
X-9256135Y-3994761D01*
X-9355908Y-4067250D01*
X-9355911Y-4067253D01*
X-9361253Y-4071134D01*
X-9489040Y-4213056D01*
X-9584527Y-4378444D01*
X-9586568Y-4384726D01*
X-9586569Y-4384728D01*
X-9615441Y-4473587D01*
X-9643542Y-4560072D01*
X-9663504Y-4750000D01*
X-12029549Y-4750000D01*
X-12024161Y-4743435D01*
X-11927917Y-4626161D01*
X-11927916Y-4626160D01*
X-11923991Y-4621377D01*
X-11830345Y-4446177D01*
X-11811705Y-4384728D01*
X-11774474Y-4261996D01*
X-11774473Y-4261992D01*
X-11772678Y-4256074D01*
X-11772071Y-4249920D01*
X-11772070Y-4249911D01*
X-11753813Y-4064536D01*
X-11753206Y-4058373D01*
X-11754572Y-4044500D01*
X-11759790Y-3991511D01*
X-11754971Y-3942586D01*
X-11731796Y-3899229D01*
X-11693794Y-3868042D01*
X-11568582Y-3801115D01*
X-11415018Y-3675088D01*
X-11406356Y-3664534D01*
X-11292917Y-3526308D01*
X-11292916Y-3526307D01*
X-11288991Y-3521524D01*
X-11273332Y-3492229D01*
X-11198264Y-3351785D01*
X-11195345Y-3346324D01*
X-11182578Y-3304237D01*
X-11139474Y-3162143D01*
X-11139473Y-3162139D01*
X-11137678Y-3156221D01*
X-11137071Y-3150067D01*
X-11137070Y-3150058D01*
X-11118813Y-2964683D01*
X-11118206Y-2958520D01*
X-11118813Y-2952357D01*
X-11137070Y-2766981D01*
X-11137072Y-2766970D01*
X-11137678Y-2760819D01*
X-11139472Y-2754902D01*
X-11139474Y-2754896D01*
X-11193548Y-2576639D01*
X-11193549Y-2576636D01*
X-11195345Y-2570716D01*
X-11198264Y-2565254D01*
X-11286073Y-2400974D01*
X-11286076Y-2400969D01*
X-11288991Y-2395516D01*
X-11292912Y-2390737D01*
X-11292917Y-2390731D01*
X-11411095Y-2246731D01*
X-11411100Y-2246725D01*
X-11415018Y-2241952D01*
X-11419791Y-2238034D01*
X-11419797Y-2238029D01*
X-11563797Y-2119851D01*
X-11563803Y-2119846D01*
X-11568582Y-2115925D01*
X-11574032Y-2113011D01*
X-11574041Y-2113006D01*
X-11605459Y-2096213D01*
X-11653781Y-2050456D01*
X-11672054Y-1986466D01*
X-11655180Y-1922092D01*
X-11337903Y-1372551D01*
X-11334867Y-1361219D01*
X-11346198Y-1358183D01*
X-12920862Y-1358183D01*
X-12957431Y-1352758D01*
X-13033737Y-1329612D01*
X-13039894Y-1329005D01*
X-13039902Y-1329004D01*
X-13225275Y-1310747D01*
X-13231438Y-1310140D01*
X-13237601Y-1310747D01*
X-13422973Y-1329004D01*
X-13422979Y-1329005D01*
X-13429139Y-1329612D01*
X-13435062Y-1331408D01*
X-13435068Y-1331410D01*
X-13516513Y-1356116D01*
X-13516514Y-1356117D01*
X-13541502Y-1363696D01*
X-13541505Y-1363697D01*
X-13613316Y-1385481D01*
X-13613319Y-1385482D01*
X-13619242Y-1387279D01*
X-13624697Y-1390195D01*
X-13624707Y-1390199D01*
X-13768679Y-1467153D01*
X-13831367Y-1481988D01*
X-13893195Y-1463898D01*
X-13938000Y-1417612D01*
X-13954071Y-1355230D01*
X-13937208Y-1293057D01*
X-11748066Y2500704D01*
X-11706466Y2544103D01*
X-11649492Y2563287D01*
X-11590115Y2553889D01*
X-11541850Y2518049D01*
X-11516593Y2465804D01*
X-11516401Y2463972D01*
X-11491956Y2388738D01*
X-11467979Y2314944D01*
X-11457386Y2282344D01*
X-11413576Y2206463D01*
X-11396817Y2137956D01*
X-11419499Y2071172D01*
X-11465882Y2033967D01*
X-11464704Y2031763D01*
X-11639904Y1938117D01*
X-11793468Y1812090D01*
X-11919495Y1658526D01*
X-12013141Y1483326D01*
X-12070808Y1293223D01*
X-12090280Y1095522D01*
X-12083694Y1028660D01*
X-12088512Y979738D01*
X-12111688Y936380D01*
X-12149692Y905191D01*
X-12184610Y886527D01*
X-12274904Y838264D01*
X-12428468Y712237D01*
X-12554495Y558673D01*
X-12648141Y383473D01*
X-12705808Y193370D01*
X-12712618Y124227D01*
X-12736362Y62123D01*
X-12781585Y26178D01*
X-12781050Y25299D01*
X-12788091Y21006D01*
X-12788415Y20750D01*
X-12788745Y20608D01*
X-12803980Y11322D01*
X-12903596Y-70927D01*
X-12914318Y-82307D01*
X-12943567Y-122363D01*
X-12947250Y-128019D01*
X-13355896Y-835814D01*
X-13358932Y-847146D01*
X-13347602Y-850183D01*
X-12300372Y-850183D01*
X-12240975Y-865061D01*
X-12099704Y-940572D01*
X-11909601Y-998239D01*
X-11711900Y-1017711D01*
X-11705737Y-1017104D01*
X-11520361Y-998846D01*
X-11520360Y-998845D01*
X-11514199Y-998239D01*
X-11324096Y-940572D01*
X-11148896Y-846926D01*
X-10995332Y-720899D01*
X-10869305Y-567335D01*
X-10828530Y-491051D01*
X-10778578Y-397596D01*
X-10775659Y-392135D01*
X-10753653Y-319590D01*
X-10719788Y-207954D01*
X-10719787Y-207950D01*
X-10717992Y-202032D01*
X-10717385Y-195878D01*
X-10717384Y-195869D01*
X-10699127Y-10494D01*
X-10698520Y-4331D01*
X-10699127Y1835D01*
X-10705104Y62530D01*
X-10700285Y111455D01*
X-10677110Y154812D01*
X-10639107Y186000D01*
X-10519355Y250009D01*
X-10519354Y250009D01*
X-10513896Y252927D01*
X-10509117Y256848D01*
X-10509111Y256853D01*
X-10365111Y375031D01*
X-10365105Y375036D01*
X-10360332Y378954D01*
X-10356414Y383727D01*
X-10356409Y383733D01*
X-10238231Y527733D01*
X-10238226Y527739D01*
X-10234305Y532518D01*
X-10231390Y537971D01*
X-10231387Y537976D01*
X-10143578Y702256D01*
X-10143576Y702260D01*
X-10140659Y707718D01*
X-10137548Y717972D01*
X-10084788Y891898D01*
X-10084786Y891904D01*
X-10082992Y897821D01*
X-10082386Y903972D01*
X-10082384Y903983D01*
X-10064127Y1089359D01*
X-10064127Y1089361D01*
X-10063520Y1095522D01*
X-10069571Y1156961D01*
X-10082384Y1287060D01*
X-10082385Y1287069D01*
X-10082992Y1293223D01*
X-10098367Y1343907D01*
X-10138862Y1477402D01*
X-10140659Y1483326D01*
X-10234305Y1658526D01*
X-10238231Y1663310D01*
X-10241361Y1667994D01*
X-10261108Y1718692D01*
X-10257639Y1772989D01*
X-10254908Y1778000D01*
X-7414497Y1778000D01*
X-7394535Y1588072D01*
X-7383598Y1554413D01*
X-7352126Y1457550D01*
X-7335520Y1406444D01*
X-7240033Y1241056D01*
X-7112246Y1099134D01*
X-7106904Y1095253D01*
X-7106901Y1095250D01*
X-7098038Y1088811D01*
X-6957745Y986882D01*
X-6951718Y984198D01*
X-6951710Y984194D01*
X-6899526Y960960D01*
X-6846934Y917218D01*
X-6824948Y852441D01*
X-6840050Y785722D01*
X-6883523Y741104D01*
X-6882952Y740318D01*
X-7037453Y628066D01*
X-7165240Y486144D01*
X-7260727Y320756D01*
X-7319742Y139128D01*
X-7339704Y-50800D01*
X-7319742Y-240728D01*
X-7260727Y-422356D01*
X-7165240Y-587744D01*
X-7037453Y-729666D01*
X-6882952Y-841918D01*
X-6708488Y-919594D01*
X-6521687Y-959300D01*
X-6337316Y-959300D01*
X-6330713Y-959300D01*
X-6143912Y-919594D01*
X-5969448Y-841918D01*
X-5814947Y-729666D01*
X-5806688Y-720494D01*
X-5793496Y-705843D01*
X-5687160Y-587744D01*
X-5591673Y-422356D01*
X-5589633Y-416078D01*
X-5589630Y-416071D01*
X-5534697Y-247005D01*
X-5534695Y-247000D01*
X-5532658Y-240728D01*
X-5528866Y-204654D01*
X-5520116Y-121403D01*
X-2013198Y-121403D01*
X-1993236Y-311331D01*
X-1934221Y-492959D01*
X-1838734Y-658347D01*
X-1710947Y-800269D01*
X-1556446Y-912521D01*
X-1381982Y-990197D01*
X-1195181Y-1029903D01*
X-1010810Y-1029903D01*
X-1004207Y-1029903D01*
X-817406Y-990197D01*
X-642942Y-912521D01*
X-536992Y-835544D01*
X-493785Y-804152D01*
X-493783Y-804150D01*
X-488441Y-800269D01*
X-360654Y-658347D01*
X-265167Y-492959D01*
X-263127Y-486681D01*
X-263124Y-486674D01*
X-208191Y-317608D01*
X-208189Y-317603D01*
X-206152Y-311331D01*
X-198041Y-234164D01*
X-186880Y-127968D01*
X-186190Y-121403D01*
X-200140Y11322D01*
X-204289Y50800D01*
X4420496Y50800D01*
X4421186Y44235D01*
X4432428Y-62732D01*
X4440458Y-139128D01*
X4442495Y-145400D01*
X4442497Y-145405D01*
X4497430Y-314471D01*
X4497433Y-314478D01*
X4499473Y-320756D01*
X4594960Y-486144D01*
X4722747Y-628066D01*
X4728089Y-631947D01*
X4728091Y-631949D01*
X4764425Y-658347D01*
X4877248Y-740318D01*
X5051712Y-817994D01*
X5238513Y-857700D01*
X5422884Y-857700D01*
X5429487Y-857700D01*
X5616288Y-817994D01*
X5790752Y-740318D01*
X5945253Y-628066D01*
X6073040Y-486144D01*
X6114911Y-413620D01*
X6157260Y-369767D01*
X6215241Y-350928D01*
X6275278Y-361513D01*
X6349551Y-394582D01*
X6536352Y-434288D01*
X6720723Y-434288D01*
X6727326Y-434288D01*
X6914127Y-394582D01*
X7088591Y-316906D01*
X7243092Y-204654D01*
X7370879Y-62732D01*
X7466366Y102656D01*
X7525381Y284284D01*
X7545343Y474212D01*
X7544666Y480644D01*
X7555547Y531830D01*
X7586346Y574218D01*
X7624761Y596394D01*
X7624360Y597296D01*
X7668095Y616768D01*
X7798824Y674972D01*
X7883416Y736432D01*
X7947980Y783340D01*
X7947983Y783343D01*
X7953325Y787224D01*
X8081112Y929146D01*
X8176599Y1094534D01*
X8201305Y1170569D01*
X8210369Y1198469D01*
X8235614Y1276162D01*
X8255576Y1466090D01*
X8235614Y1656018D01*
X8176599Y1837646D01*
X8081112Y2003034D01*
X7953325Y2144956D01*
X7798824Y2257208D01*
X7624360Y2334884D01*
X7437559Y2374590D01*
X7246585Y2374590D01*
X7059784Y2334884D01*
X6885320Y2257208D01*
X6730819Y2144956D01*
X6603032Y2003034D01*
X6599730Y1997315D01*
X6582600Y1967644D01*
X6507545Y1837646D01*
X6505505Y1831368D01*
X6505502Y1831361D01*
X6450569Y1662295D01*
X6450567Y1662290D01*
X6448530Y1656018D01*
X6428568Y1466090D01*
X6429244Y1459657D01*
X6418364Y1408472D01*
X6387565Y1366084D01*
X6349149Y1343907D01*
X6349551Y1343006D01*
X6175087Y1265330D01*
X6020586Y1153078D01*
X5892799Y1011156D01*
X5874660Y979738D01*
X5850927Y938632D01*
X5808577Y894778D01*
X5750597Y875940D01*
X5690559Y886527D01*
X5622326Y916906D01*
X5622323Y916906D01*
X5616288Y919594D01*
X5429487Y959300D01*
X5238513Y959300D01*
X5051712Y919594D01*
X4877248Y841918D01*
X4790389Y778811D01*
X4732060Y736432D01*
X4722747Y729666D01*
X4718325Y724755D01*
X4710585Y716159D01*
X4594960Y587744D01*
X4499473Y422356D01*
X4497433Y416078D01*
X4497430Y416071D01*
X4442497Y247005D01*
X4442495Y247000D01*
X4440458Y240728D01*
X4439768Y234164D01*
X4429090Y132564D01*
X4420496Y50800D01*
X-204289Y50800D01*
X-205462Y61961D01*
X-206152Y68525D01*
X-208189Y74797D01*
X-208191Y74802D01*
X-263124Y243868D01*
X-263127Y243875D01*
X-265167Y250153D01*
X-360654Y415541D01*
X-488441Y557463D01*
X-496068Y563004D01*
X-578858Y623155D01*
X-642942Y669715D01*
X-817406Y747391D01*
X-1004207Y787097D01*
X-1195181Y787097D01*
X-1381982Y747391D01*
X-1556446Y669715D01*
X-1710947Y557463D01*
X-1838734Y415541D01*
X-1934221Y250153D01*
X-1993236Y68525D01*
X-2013198Y-121403D01*
X-5520116Y-121403D01*
X-5513386Y-57365D01*
X-5512696Y-50800D01*
X-5524064Y57365D01*
X-5531968Y132564D01*
X-5532658Y139128D01*
X-5534695Y145400D01*
X-5534697Y145405D01*
X-5589630Y314471D01*
X-5589633Y314478D01*
X-5591673Y320756D01*
X-5687160Y486144D01*
X-5804774Y616768D01*
X-5834385Y674881D01*
X-5830971Y740014D01*
X-5795449Y794714D01*
X-5737336Y824324D01*
X-5672476Y820926D01*
X-5667065Y818517D01*
X-5660606Y817144D01*
X-5486720Y780183D01*
X-5486717Y780182D01*
X-5480264Y778811D01*
X-5295893Y778811D01*
X-5289290Y778811D01*
X-5282837Y780182D01*
X-5282833Y780183D01*
X-5108949Y817143D01*
X-5108941Y817145D01*
X-5102489Y818517D01*
X-5089446Y824324D01*
X-5066236Y834657D01*
X-5001818Y844858D01*
X-4940930Y821484D01*
X-4936846Y818517D01*
X-4851804Y756730D01*
X-4677340Y679054D01*
X-4670887Y677682D01*
X-4670883Y677681D01*
X-4496995Y640720D01*
X-4496992Y640719D01*
X-4490539Y639348D01*
X-4306168Y639348D01*
X-4299565Y639348D01*
X-4293112Y640719D01*
X-4293108Y640720D01*
X-4119220Y677681D01*
X-4119213Y677683D01*
X-4112764Y679054D01*
X-4060651Y702256D01*
X-3944330Y754045D01*
X-3944327Y754046D01*
X-3938300Y756730D01*
X-3907908Y778811D01*
X-3789143Y865098D01*
X-3789135Y865104D01*
X-3783799Y868982D01*
X-3779382Y873887D01*
X-3779377Y873892D01*
X-3660431Y1005996D01*
X-3660430Y1005997D01*
X-3656012Y1010904D01*
X-3652713Y1016617D01*
X-3652710Y1016622D01*
X-3563829Y1170569D01*
X-3563828Y1170570D01*
X-3560525Y1176292D01*
X-3558486Y1182566D01*
X-3558482Y1182576D01*
X-3503549Y1351642D01*
X-3503547Y1351649D01*
X-3501510Y1357920D01*
X-3495749Y1412728D01*
X-3482238Y1541283D01*
X-3481548Y1547848D01*
X-3486465Y1594635D01*
X-3500657Y1729665D01*
X-3490454Y1794083D01*
X-3449410Y1844770D01*
X-3379012Y1895918D01*
X-3379003Y1895925D01*
X-3373671Y1899800D01*
X-3369255Y1904704D01*
X-3369251Y1904708D01*
X-3250303Y2036814D01*
X-3250302Y2036815D01*
X-3245884Y2041722D01*
X-3242585Y2047435D01*
X-3242582Y2047440D01*
X-3153701Y2201387D01*
X-3153700Y2201388D01*
X-3150397Y2207110D01*
X-3148358Y2213385D01*
X-3148355Y2213392D01*
X-3092670Y2384772D01*
X-3059089Y2437686D01*
X-3004171Y2467877D01*
X-2941502Y2467876D01*
X-2886584Y2437685D01*
X-2853004Y2384772D01*
X-2842924Y2353748D01*
X-2817866Y2276625D01*
X-2815727Y2270044D01*
X-2720240Y2104656D01*
X-2592453Y1962734D01*
X-2587111Y1958853D01*
X-2587108Y1958850D01*
X-2512587Y1904708D01*
X-2437952Y1850482D01*
X-2263488Y1772806D01*
X-2257035Y1771434D01*
X-2257031Y1771433D01*
X-2083143Y1734472D01*
X-2083140Y1734471D01*
X-2076687Y1733100D01*
X-1892316Y1733100D01*
X-1885713Y1733100D01*
X-1879260Y1734471D01*
X-1879256Y1734472D01*
X-1705368Y1771433D01*
X-1705361Y1771435D01*
X-1698912Y1772806D01*
X-1678888Y1781721D01*
X-1530478Y1847797D01*
X-1530475Y1847798D01*
X-1524448Y1850482D01*
X-1511214Y1860097D01*
X-1375291Y1958850D01*
X-1375283Y1958856D01*
X-1369947Y1962734D01*
X-1365530Y1967639D01*
X-1365525Y1967644D01*
X-1246579Y2099748D01*
X-1246578Y2099749D01*
X-1242160Y2104656D01*
X-1238861Y2110369D01*
X-1238858Y2110374D01*
X-1149977Y2264321D01*
X-1149976Y2264322D01*
X-1146673Y2270044D01*
X-1144634Y2276318D01*
X-1144630Y2276328D01*
X-1089697Y2445394D01*
X-1089695Y2445401D01*
X-1087658Y2451672D01*
X-1085954Y2467877D01*
X-1069588Y2623596D01*
X-1044641Y2686605D01*
X-990662Y2727577D01*
X-923265Y2734660D01*
X-861947Y2705806D01*
X-824445Y2649361D01*
X-783727Y2524044D01*
X-688240Y2358656D01*
X-560453Y2216734D01*
X-555111Y2212853D01*
X-555108Y2212850D01*
X-546322Y2206467D01*
X-405952Y2104482D01*
X-231488Y2026806D01*
X-225035Y2025434D01*
X-225031Y2025433D01*
X-51143Y1988472D01*
X-51140Y1988471D01*
X-44687Y1987100D01*
X139684Y1987100D01*
X146287Y1987100D01*
X152740Y1988471D01*
X152743Y1988472D01*
X326631Y2025433D01*
X326635Y2025434D01*
X333088Y2026806D01*
X507552Y2104482D01*
X582589Y2159000D01*
X1334611Y2159000D01*
X1335301Y2152435D01*
X1351604Y1997315D01*
X1354573Y1969072D01*
X1356610Y1962801D01*
X1356612Y1962794D01*
X1411545Y1793728D01*
X1411549Y1793718D01*
X1413588Y1787444D01*
X1416891Y1781722D01*
X1416892Y1781721D01*
X1505773Y1627774D01*
X1505776Y1627769D01*
X1509075Y1622056D01*
X1513493Y1617149D01*
X1513494Y1617148D01*
X1632440Y1485044D01*
X1632445Y1485039D01*
X1636862Y1480134D01*
X1642198Y1476256D01*
X1642206Y1476250D01*
X1786021Y1371763D01*
X1791363Y1367882D01*
X1797390Y1365198D01*
X1797393Y1365197D01*
X1959796Y1292891D01*
X1965827Y1290206D01*
X1972276Y1288835D01*
X1972283Y1288833D01*
X2146171Y1251872D01*
X2146175Y1251871D01*
X2152628Y1250500D01*
X2336999Y1250500D01*
X2343602Y1250500D01*
X2350055Y1251871D01*
X2350058Y1251872D01*
X2523946Y1288833D01*
X2523950Y1288834D01*
X2530403Y1290206D01*
X2704867Y1367882D01*
X2828284Y1457550D01*
X2854023Y1476250D01*
X2854026Y1476253D01*
X2859368Y1480134D01*
X2987155Y1622056D01*
X3082642Y1787444D01*
X3114609Y1885830D01*
X3150131Y1940529D01*
X3208244Y1970139D01*
X3273376Y1966727D01*
X3328077Y1931205D01*
X3361192Y1894427D01*
X3361195Y1894423D01*
X3365611Y1889520D01*
X3370947Y1885642D01*
X3370955Y1885636D01*
X3513983Y1781721D01*
X3520112Y1777268D01*
X3526139Y1774584D01*
X3526142Y1774583D01*
X3651676Y1718692D01*
X3694576Y1699592D01*
X3701025Y1698221D01*
X3701032Y1698219D01*
X3874920Y1661258D01*
X3874924Y1661257D01*
X3881377Y1659886D01*
X4065748Y1659886D01*
X4072351Y1659886D01*
X4078804Y1661257D01*
X4078807Y1661258D01*
X4252695Y1698219D01*
X4252699Y1698220D01*
X4259152Y1699592D01*
X4433616Y1777268D01*
X4516719Y1837646D01*
X4582772Y1885636D01*
X4582775Y1885639D01*
X4588117Y1889520D01*
X4715904Y2031442D01*
X4722134Y2042233D01*
X4768252Y2088352D01*
X4831253Y2105233D01*
X4984103Y2105233D01*
X4990706Y2105233D01*
X4997159Y2106604D01*
X4997162Y2106605D01*
X5171050Y2143566D01*
X5171054Y2143567D01*
X5177507Y2144939D01*
X5351971Y2222615D01*
X5471179Y2309225D01*
X5501127Y2330983D01*
X5501130Y2330986D01*
X5506472Y2334867D01*
X5634259Y2476789D01*
X5729746Y2642177D01*
X5736978Y2664433D01*
X5773782Y2777706D01*
X5788761Y2823805D01*
X5808723Y3013733D01*
X5796593Y3129138D01*
X5806796Y3193557D01*
X5847841Y3244245D01*
X5871772Y3261632D01*
X5871773Y3261633D01*
X5877112Y3265512D01*
X5881525Y3270413D01*
X5939636Y3300026D01*
X6004771Y3296614D01*
X6059471Y3261091D01*
X6067099Y3252621D01*
X6105062Y3210458D01*
X6105065Y3210455D01*
X6109480Y3205552D01*
X6114816Y3201674D01*
X6114824Y3201668D01*
X6258639Y3097181D01*
X6263981Y3093300D01*
X6270008Y3090616D01*
X6270011Y3090615D01*
X6427947Y3020298D01*
X6438445Y3015624D01*
X6444894Y3014253D01*
X6444901Y3014251D01*
X6618789Y2977290D01*
X6618793Y2977289D01*
X6625246Y2975918D01*
X6809617Y2975918D01*
X6816220Y2975918D01*
X6822673Y2977289D01*
X6822676Y2977290D01*
X6996564Y3014251D01*
X6996568Y3014252D01*
X7003021Y3015624D01*
X7177485Y3093300D01*
X7253406Y3148460D01*
X7326641Y3201668D01*
X7326644Y3201671D01*
X7331986Y3205552D01*
X7459773Y3347474D01*
X7555260Y3512862D01*
X7558901Y3524066D01*
X7610488Y3682836D01*
X7614275Y3694490D01*
X7634237Y3884418D01*
X7614275Y4074346D01*
X7555260Y4255974D01*
X7459773Y4421362D01*
X7331986Y4563284D01*
X7177485Y4675536D01*
X7003021Y4753212D01*
X6816220Y4792918D01*
X6625246Y4792918D01*
X6438445Y4753212D01*
X6263981Y4675536D01*
X6109480Y4563284D01*
X6105064Y4558380D01*
X6046952Y4528769D01*
X5981817Y4532182D01*
X5927122Y4567701D01*
X5877112Y4623244D01*
X5722611Y4735496D01*
X5548147Y4813172D01*
X5361346Y4852878D01*
X5170372Y4852878D01*
X4983571Y4813172D01*
X4809107Y4735496D01*
X4654606Y4623244D01*
X4526819Y4481322D01*
X4431332Y4315934D01*
X4429292Y4309656D01*
X4429289Y4309649D01*
X4374356Y4140583D01*
X4374354Y4140578D01*
X4372317Y4134306D01*
X4352355Y3944378D01*
X4353045Y3937813D01*
X4364484Y3828970D01*
X4354280Y3764551D01*
X4313235Y3713864D01*
X4283966Y3692599D01*
X4279544Y3687688D01*
X4181095Y3578349D01*
X4156179Y3550677D01*
X4152876Y3544957D01*
X4152875Y3544955D01*
X4149947Y3539884D01*
X4103828Y3493766D01*
X4040829Y3476886D01*
X3881377Y3476886D01*
X3694576Y3437180D01*
X3520112Y3359504D01*
X3485049Y3334029D01*
X3430702Y3311518D01*
X3372055Y3316134D01*
X3321896Y3346871D01*
X3291158Y3397031D01*
X3281477Y3426825D01*
X3251963Y3517661D01*
X3156476Y3683049D01*
X3028689Y3824971D01*
X2874188Y3937223D01*
X2699724Y4014899D01*
X2512923Y4054605D01*
X2321949Y4054605D01*
X2135148Y4014899D01*
X1960684Y3937223D01*
X1806183Y3824971D01*
X1678396Y3683049D01*
X1582909Y3517661D01*
X1580869Y3511383D01*
X1580866Y3511376D01*
X1525933Y3342310D01*
X1525931Y3342305D01*
X1523894Y3336033D01*
X1523204Y3329469D01*
X1519751Y3296614D01*
X1503932Y3146105D01*
X1504622Y3139540D01*
X1519312Y2999767D01*
X1523894Y2956177D01*
X1525931Y2949906D01*
X1525933Y2949899D01*
X1559618Y2846229D01*
X1563031Y2781095D01*
X1533420Y2722982D01*
X1509075Y2695944D01*
X1413588Y2530556D01*
X1411548Y2524278D01*
X1411545Y2524271D01*
X1356612Y2355205D01*
X1356610Y2355200D01*
X1354573Y2348928D01*
X1353883Y2342364D01*
X1339600Y2206467D01*
X1334611Y2159000D01*
X582589Y2159000D01*
X647922Y2206467D01*
X656708Y2212850D01*
X656711Y2212853D01*
X662053Y2216734D01*
X789840Y2358656D01*
X885327Y2524044D01*
X944342Y2705672D01*
X964304Y2895600D01*
X944342Y3085528D01*
X885327Y3267156D01*
X789840Y3432544D01*
X662053Y3574466D01*
X507552Y3686718D01*
X333088Y3764394D01*
X146287Y3804100D01*
X-44687Y3804100D01*
X-231488Y3764394D01*
X-405952Y3686718D01*
X-560453Y3574466D01*
X-688240Y3432544D01*
X-783727Y3267156D01*
X-842742Y3085528D01*
X-860811Y2913601D01*
X-885758Y2850595D01*
X-939737Y2809622D01*
X-1007133Y2802538D01*
X-1068451Y2831392D01*
X-1105954Y2887837D01*
X-1124183Y2943939D01*
X-1146673Y3013156D01*
X-1242160Y3178544D01*
X-1369947Y3320466D01*
X-1397617Y3340569D01*
X-1437280Y3388257D01*
X-1449384Y3449092D01*
X-1430994Y3508332D01*
X-1392147Y3546180D01*
X-1392874Y3547180D01*
X-1243717Y3655548D01*
X-1243709Y3655554D01*
X-1238373Y3659432D01*
X-1233956Y3664337D01*
X-1233951Y3664342D01*
X-1115005Y3796446D01*
X-1115004Y3796447D01*
X-1110586Y3801354D01*
X-1107287Y3807067D01*
X-1107284Y3807072D01*
X-1018403Y3961019D01*
X-1018402Y3961020D01*
X-1015099Y3966742D01*
X-1013060Y3973016D01*
X-1013056Y3973026D01*
X-958123Y4142092D01*
X-958121Y4142099D01*
X-956084Y4148370D01*
X-936122Y4338298D01*
X-945368Y4426269D01*
X-955394Y4521662D01*
X-956084Y4528226D01*
X-958121Y4534498D01*
X-958123Y4534503D01*
X-1013056Y4703569D01*
X-1013059Y4703576D01*
X-1015099Y4709854D01*
X-1110586Y4875242D01*
X-1238373Y5017164D01*
X-1392874Y5129416D01*
X-1567338Y5207092D01*
X-1754139Y5246798D01*
X-1945113Y5246798D01*
X-2131914Y5207092D01*
X-2306378Y5129416D01*
X-2460879Y5017164D01*
X-2588666Y4875242D01*
X-2684153Y4709854D01*
X-2743168Y4528226D01*
X-2763130Y4338298D01*
X-2743168Y4148370D01*
X-2684153Y3966742D01*
X-2588666Y3801354D01*
X-2460879Y3659432D01*
X-2455533Y3655548D01*
X-2433208Y3639328D01*
X-2393541Y3591632D01*
X-2381442Y3530788D01*
X-2399844Y3471545D01*
X-2438680Y3433721D01*
X-2437952Y3432718D01*
X-2592453Y3320466D01*
X-2720240Y3178544D01*
X-2815727Y3013156D01*
X-2868546Y2850595D01*
X-2873453Y2835494D01*
X-2907033Y2782580D01*
X-2961951Y2752389D01*
X-3024621Y2752388D01*
X-3079539Y2782580D01*
X-3113119Y2835493D01*
X-3132649Y2895600D01*
X-3150397Y2950222D01*
X-3245884Y3115610D01*
X-3373671Y3257532D01*
X-3391399Y3270412D01*
X-3447976Y3311518D01*
X-3528172Y3369784D01*
X-3702636Y3447460D01*
X-3889437Y3487166D01*
X-4080411Y3487166D01*
X-4267212Y3447460D01*
X-4441676Y3369784D01*
X-4596177Y3257532D01*
X-4723964Y3115610D01*
X-4819451Y2950222D01*
X-4819879Y2948903D01*
X-4853224Y2904970D01*
X-4904767Y2879381D01*
X-4962312Y2879379D01*
X-5013857Y2904965D01*
X-5047802Y2949686D01*
X-5048898Y2953057D01*
X-5052202Y2958779D01*
X-5141083Y3112726D01*
X-5144385Y3118445D01*
X-5272172Y3260367D01*
X-5285998Y3270412D01*
X-5342575Y3311518D01*
X-5426673Y3372619D01*
X-5601137Y3450295D01*
X-5787938Y3490001D01*
X-5978912Y3490001D01*
X-6165713Y3450295D01*
X-6340177Y3372619D01*
X-6494678Y3260367D01*
X-6622465Y3118445D01*
X-6717952Y2953057D01*
X-6776967Y2771429D01*
X-6782795Y2715973D01*
X-6806169Y2655081D01*
X-6856855Y2614036D01*
X-6957745Y2569118D01*
X-7112246Y2456866D01*
X-7240033Y2314944D01*
X-7335520Y2149556D01*
X-7394535Y1967928D01*
X-7414497Y1778000D01*
X-10254908Y1778000D01*
X-10231601Y1820761D01*
X-10187848Y1853102D01*
X-10172135Y1860097D01*
X-10172126Y1860102D01*
X-10166107Y1862782D01*
X-10134651Y1885636D01*
X-10016950Y1971150D01*
X-10016942Y1971156D01*
X-10011606Y1975034D01*
X-10007189Y1979939D01*
X-10007184Y1979944D01*
X-9888238Y2112048D01*
X-9888237Y2112049D01*
X-9883819Y2116956D01*
X-9880520Y2122669D01*
X-9880517Y2122674D01*
X-9791636Y2276621D01*
X-9791634Y2276625D01*
X-9788332Y2282344D01*
X-9786293Y2288618D01*
X-9786289Y2288628D01*
X-9731356Y2457694D01*
X-9731354Y2457701D01*
X-9729317Y2463972D01*
X-9727797Y2478429D01*
X-9710045Y2647335D01*
X-9709355Y2653900D01*
X-9726553Y2817527D01*
X-9728627Y2837264D01*
X-9729317Y2843828D01*
X-9731354Y2850100D01*
X-9731356Y2850105D01*
X-9786289Y3019171D01*
X-9786292Y3019178D01*
X-9788332Y3025456D01*
X-9873416Y3172825D01*
X-9880517Y3185125D01*
X-9883819Y3190844D01*
X-10000531Y3320466D01*
X-10007184Y3327855D01*
X-10011606Y3332766D01*
X-10027992Y3344671D01*
X-10141067Y3426825D01*
X-10166107Y3445018D01*
X-10340571Y3522694D01*
X-10527372Y3562400D01*
X-10718346Y3562400D01*
X-10905147Y3522694D01*
X-10907141Y3521805D01*
X-10965153Y3517542D01*
X-11020318Y3541407D01*
X-11058151Y3588112D01*
X-11070042Y3647030D01*
X-11053285Y3704753D01*
X-10126367Y5311093D01*
X-109217Y5311093D01*
X-89255Y5121165D01*
X-30240Y4939537D01*
X4048Y4880149D01*
X61945Y4779867D01*
X61948Y4779862D01*
X65247Y4774149D01*
X69665Y4769242D01*
X69666Y4769241D01*
X188612Y4637137D01*
X188617Y4637132D01*
X193034Y4632227D01*
X198370Y4628349D01*
X198378Y4628343D01*
X342193Y4523856D01*
X347535Y4519975D01*
X353562Y4517291D01*
X353565Y4517290D01*
X515968Y4444984D01*
X521999Y4442299D01*
X528448Y4440928D01*
X528455Y4440926D01*
X702343Y4403965D01*
X702347Y4403964D01*
X708800Y4402593D01*
X893171Y4402593D01*
X899774Y4402593D01*
X906227Y4403964D01*
X906230Y4403965D01*
X1080118Y4440926D01*
X1080122Y4440927D01*
X1086575Y4442299D01*
X1261039Y4519975D01*
X1396417Y4618333D01*
X1410195Y4628343D01*
X1410198Y4628346D01*
X1415540Y4632227D01*
X1543327Y4774149D01*
X1638814Y4939537D01*
X1697829Y5121165D01*
X1717791Y5311093D01*
X1697829Y5501021D01*
X1638814Y5682649D01*
X1543327Y5848037D01*
X1415540Y5989959D01*
X1261039Y6102211D01*
X1248865Y6107631D01*
X2735998Y6107631D01*
X2736688Y6101066D01*
X2747957Y5993842D01*
X2755960Y5917703D01*
X2757997Y5911432D01*
X2757999Y5911425D01*
X2812932Y5742359D01*
X2812936Y5742349D01*
X2814975Y5736075D01*
X2818278Y5730353D01*
X2818279Y5730352D01*
X2907160Y5576405D01*
X2907163Y5576400D01*
X2910462Y5570687D01*
X2914880Y5565780D01*
X2914881Y5565779D01*
X3033827Y5433675D01*
X3033832Y5433670D01*
X3038249Y5428765D01*
X3043585Y5424887D01*
X3043593Y5424881D01*
X3187408Y5320394D01*
X3192750Y5316513D01*
X3198777Y5313829D01*
X3198780Y5313828D01*
X3349333Y5246798D01*
X3367214Y5238837D01*
X3373663Y5237466D01*
X3373670Y5237464D01*
X3547558Y5200503D01*
X3547562Y5200502D01*
X3554015Y5199131D01*
X3738386Y5199131D01*
X3744989Y5199131D01*
X3751442Y5200502D01*
X3751445Y5200503D01*
X3925333Y5237464D01*
X3925337Y5237465D01*
X3931790Y5238837D01*
X4106254Y5316513D01*
X4177559Y5368319D01*
X4255410Y5424881D01*
X4255413Y5424884D01*
X4260755Y5428765D01*
X4388542Y5570687D01*
X4484029Y5736075D01*
X4543044Y5917703D01*
X4563006Y6107631D01*
X4543044Y6297559D01*
X4484029Y6479187D01*
X4388542Y6644575D01*
X4260755Y6786497D01*
X4106254Y6898749D01*
X3931790Y6976425D01*
X3744989Y7016131D01*
X3554015Y7016131D01*
X3367214Y6976425D01*
X3192750Y6898749D01*
X3038249Y6786497D01*
X2910462Y6644575D01*
X2814975Y6479187D01*
X2812935Y6472909D01*
X2812932Y6472902D01*
X2757999Y6303836D01*
X2757997Y6303831D01*
X2755960Y6297559D01*
X2755270Y6290995D01*
X2743592Y6179887D01*
X2735998Y6107631D01*
X1248865Y6107631D01*
X1086575Y6179887D01*
X899774Y6219593D01*
X708800Y6219593D01*
X521999Y6179887D01*
X347535Y6102211D01*
X261872Y6039973D01*
X232725Y6018796D01*
X193034Y5989959D01*
X65247Y5848037D01*
X-30240Y5682649D01*
X-89255Y5501021D01*
X-109217Y5311093D01*
X-10126367Y5311093D01*
X-9393108Y6581825D01*
X-8055571Y6581825D01*
X-8035609Y6391897D01*
X-8033569Y6385619D01*
X-7979178Y6218220D01*
X-7976594Y6210269D01*
X-7881107Y6044881D01*
X-7753320Y5902959D01*
X-7747978Y5899078D01*
X-7747975Y5899075D01*
X-7684481Y5852944D01*
X-7598819Y5790707D01*
X-7424355Y5713031D01*
X-7417902Y5711659D01*
X-7417898Y5711658D01*
X-7244010Y5674697D01*
X-7244007Y5674696D01*
X-7237554Y5673325D01*
X-7053183Y5673325D01*
X-7046580Y5673325D01*
X-7040127Y5674696D01*
X-7040123Y5674697D01*
X-6866235Y5711658D01*
X-6866228Y5711660D01*
X-6859779Y5713031D01*
X-6808021Y5736075D01*
X-6691345Y5788022D01*
X-6691342Y5788023D01*
X-6685315Y5790707D01*
X-6679973Y5794588D01*
X-6536158Y5899075D01*
X-6536150Y5899081D01*
X-6530814Y5902959D01*
X-6526397Y5907864D01*
X-6526392Y5907869D01*
X-6407446Y6039973D01*
X-6407445Y6039974D01*
X-6403027Y6044881D01*
X-6399728Y6050594D01*
X-6399725Y6050599D01*
X-6310844Y6204546D01*
X-6310843Y6204547D01*
X-6307540Y6210269D01*
X-6305501Y6216543D01*
X-6305497Y6216553D01*
X-6250564Y6385619D01*
X-6250562Y6385626D01*
X-6248525Y6391897D01*
X-6239350Y6479187D01*
X-6229253Y6575260D01*
X-6228563Y6581825D01*
X-6239551Y6686374D01*
X-6247835Y6765189D01*
X-6248525Y6771753D01*
X-6250562Y6778025D01*
X-6250564Y6778030D01*
X-6305497Y6947096D01*
X-6305500Y6947103D01*
X-6307540Y6953381D01*
X-6403027Y7118769D01*
X-6530814Y7260691D01*
X-6685315Y7372943D01*
X-6859779Y7450619D01*
X-7046580Y7490325D01*
X-7237554Y7490325D01*
X-7424355Y7450619D01*
X-7598819Y7372943D01*
X-7753320Y7260691D01*
X-7881107Y7118769D01*
X-7976594Y6953381D01*
X-8035609Y6771753D01*
X-8055571Y6581825D01*
X-9393108Y6581825D01*
X-5847052Y12727109D01*
X-5798784Y12774459D01*
X-5732988Y12790039D01*
X-5668612Y12769362D01*
X-5624194Y12718384D01*
X-5612525Y12651785D01*
X-5615344Y12623167D01*
X-5614737Y12617004D01*
X-5607417Y12542678D01*
X-5595872Y12425466D01*
X-5538205Y12235363D01*
X-5444559Y12060163D01*
X-5318532Y11906599D01*
X-5313752Y11902676D01*
X-5269669Y11866498D01*
X-5164968Y11780572D01*
X-5159509Y11777654D01*
X-5087336Y11739077D01*
X-4989768Y11686926D01*
X-4983844Y11685129D01*
X-4805587Y11631055D01*
X-4805583Y11631054D01*
X-4799665Y11629259D01*
X-4793511Y11628652D01*
X-4793502Y11628651D01*
X-4731091Y11622505D01*
X-4668985Y11598760D01*
X-4632824Y11553266D01*
X-4632025Y11553754D01*
X-4628121Y11547350D01*
X-4627615Y11546712D01*
X-4623788Y11537775D01*
X-4618051Y11530826D01*
X-4618050Y11530825D01*
X-4537780Y11433606D01*
X-4530690Y11425020D01*
X-4524326Y11420373D01*
X-4524324Y11420371D01*
X-4486697Y11392896D01*
X-4481496Y11389099D01*
X-4478570Y11387409D01*
X-4478569Y11387409D01*
X-4451040Y11371515D01*
X-3806254Y10999247D01*
X-3764797Y10960587D01*
X-3744482Y10907663D01*
X-3749423Y10851193D01*
X-3763742Y10807128D01*
X-3783704Y10617200D01*
X-3763742Y10427272D01*
X-3761702Y10420994D01*
X-3711085Y10265210D01*
X-3704727Y10245644D01*
X-3609240Y10080256D01*
X-3481453Y9938334D01*
X-3476111Y9934453D01*
X-3476108Y9934450D01*
X-3398257Y9877888D01*
X-3326952Y9826082D01*
X-3304512Y9816091D01*
X-3211866Y9774842D01*
X-3167303Y9741564D01*
X-3141408Y9692344D01*
X-3139225Y9636770D01*
X-3161181Y9585671D01*
X-3164972Y9580451D01*
X-3169399Y9575536D01*
X-3264886Y9410148D01*
X-3323901Y9228520D01*
X-3343863Y9038592D01*
X-3323901Y8848664D01*
X-3321861Y8842386D01*
X-3268310Y8677572D01*
X-3264886Y8667036D01*
X-3169399Y8501648D01*
X-3041612Y8359726D01*
X-3020563Y8344433D01*
X-2980619Y8296147D01*
X-2968876Y8234587D01*
X-2988242Y8174985D01*
X-3033926Y8132084D01*
X-3094627Y8116499D01*
X-3263207Y8116499D01*
X-3450008Y8076793D01*
X-3624472Y7999117D01*
X-3778973Y7886865D01*
X-3906760Y7744943D01*
X-4002247Y7579555D01*
X-4061262Y7397927D01*
X-4066457Y7348494D01*
X-4089831Y7287603D01*
X-4140518Y7246556D01*
X-4300820Y7175186D01*
X-4455321Y7062934D01*
X-4583108Y6921012D01*
X-4678595Y6755624D01*
X-4737610Y6573996D01*
X-4757572Y6384068D01*
X-4737610Y6194140D01*
X-4735570Y6187862D01*
X-4689113Y6044881D01*
X-4678595Y6012512D01*
X-4583108Y5847124D01*
X-4455321Y5705202D01*
X-4449979Y5701321D01*
X-4449976Y5701318D01*
X-4372125Y5644756D01*
X-4300820Y5592950D01*
X-4126356Y5515274D01*
X-4119903Y5513902D01*
X-4119899Y5513901D01*
X-3946011Y5476940D01*
X-3946008Y5476939D01*
X-3939555Y5475568D01*
X-3755184Y5475568D01*
X-3748581Y5475568D01*
X-3742128Y5476939D01*
X-3742124Y5476940D01*
X-3568236Y5513901D01*
X-3568229Y5513903D01*
X-3561780Y5515274D01*
X-3448343Y5565779D01*
X-3393346Y5590265D01*
X-3393343Y5590266D01*
X-3387316Y5592950D01*
X-3381974Y5596831D01*
X-3238159Y5701318D01*
X-3238151Y5701324D01*
X-3232815Y5705202D01*
X-3228398Y5710107D01*
X-3228393Y5710112D01*
X-3109447Y5842216D01*
X-3109446Y5842217D01*
X-3105028Y5847124D01*
X-3101729Y5852837D01*
X-3101726Y5852842D01*
X-3012845Y6006789D01*
X-3012844Y6006790D01*
X-3009541Y6012512D01*
X-3007502Y6018786D01*
X-3007498Y6018796D01*
X-2952566Y6187860D01*
X-2952565Y6187864D01*
X-2950526Y6194140D01*
X-2945330Y6243574D01*
X-2921956Y6304464D01*
X-2871269Y6345510D01*
X-2716998Y6414196D01*
X-2716995Y6414197D01*
X-2710968Y6416881D01*
X-2705626Y6420762D01*
X-2561811Y6525249D01*
X-2561803Y6525255D01*
X-2556467Y6529133D01*
X-2552050Y6534038D01*
X-2552045Y6534043D01*
X-2433099Y6666147D01*
X-2433098Y6666148D01*
X-2428680Y6671055D01*
X-2425381Y6676768D01*
X-2425378Y6676773D01*
X-2336497Y6830720D01*
X-2336496Y6830721D01*
X-2333193Y6836443D01*
X-2331154Y6842717D01*
X-2331150Y6842727D01*
X-2276217Y7011793D01*
X-2276215Y7011800D01*
X-2274178Y7018071D01*
X-2269054Y7066817D01*
X-2254906Y7201434D01*
X-2254216Y7207999D01*
X-2274178Y7397927D01*
X-2276215Y7404199D01*
X-2276217Y7404204D01*
X-2331150Y7573270D01*
X-2331153Y7573277D01*
X-2333193Y7579555D01*
X-2428680Y7744943D01*
X-2556467Y7886865D01*
X-2577515Y7902157D01*
X-2617460Y7950444D01*
X-2629203Y8012004D01*
X-2609837Y8071606D01*
X-2564153Y8114507D01*
X-2503452Y8130092D01*
X-2341475Y8130092D01*
X-2334872Y8130092D01*
X-2328419Y8131463D01*
X-2328415Y8131464D01*
X-2154527Y8168425D01*
X-2154520Y8168427D01*
X-2148071Y8169798D01*
X-2142040Y8172483D01*
X-1979637Y8244789D01*
X-1979634Y8244790D01*
X-1973607Y8247474D01*
X-1962424Y8255599D01*
X-1824450Y8355842D01*
X-1824442Y8355848D01*
X-1819106Y8359726D01*
X-1814689Y8364631D01*
X-1814684Y8364636D01*
X-1695738Y8496740D01*
X-1695737Y8496741D01*
X-1691319Y8501648D01*
X-1688020Y8507361D01*
X-1688017Y8507366D01*
X-1599136Y8661313D01*
X-1599135Y8661314D01*
X-1595832Y8667036D01*
X-1593793Y8673310D01*
X-1593789Y8673320D01*
X-1538856Y8842386D01*
X-1538854Y8842393D01*
X-1536817Y8848664D01*
X-1516855Y9038592D01*
X-1536817Y9228520D01*
X-1538854Y9234792D01*
X-1538856Y9234797D01*
X-1593789Y9403863D01*
X-1593792Y9403870D01*
X-1595832Y9410148D01*
X-1691319Y9575536D01*
X-1723394Y9611159D01*
X-1752429Y9666697D01*
X-1751116Y9729353D01*
X-1719782Y9783627D01*
X-1666176Y9816091D01*
X-1603561Y9818716D01*
X-1447392Y9785521D01*
X-1447389Y9785520D01*
X-1440936Y9784149D01*
X-1256565Y9784149D01*
X-1249962Y9784149D01*
X-1243510Y9785520D01*
X-1243504Y9785521D01*
X-1143730Y9806729D01*
X-1081113Y9804104D01*
X-1027507Y9771637D01*
X-996173Y9717362D01*
X-994863Y9654704D01*
X-1022354Y9602125D01*
X-1022241Y9602043D01*
X-1022798Y9601275D01*
X-1023899Y9599170D01*
X-1030540Y9591795D01*
X-1126027Y9426407D01*
X-1185042Y9244779D01*
X-1205004Y9054851D01*
X-1185042Y8864923D01*
X-1126027Y8683295D01*
X-1030540Y8517907D01*
X-980936Y8462816D01*
X-951327Y8404704D01*
X-954741Y8339570D01*
X-989474Y8286089D01*
X-991908Y8284321D01*
X-1119695Y8142399D01*
X-1215182Y7977011D01*
X-1274197Y7795383D01*
X-1294159Y7605455D01*
X-1274197Y7415527D01*
X-1215182Y7233899D01*
X-1119695Y7068511D01*
X-991908Y6926589D01*
X-986566Y6922708D01*
X-986563Y6922705D01*
X-957284Y6901433D01*
X-837407Y6814337D01*
X-662943Y6736661D01*
X-656490Y6735289D01*
X-656486Y6735288D01*
X-482598Y6698327D01*
X-482595Y6698326D01*
X-476142Y6696955D01*
X-291771Y6696955D01*
X-285168Y6696955D01*
X-278715Y6698326D01*
X-278711Y6698327D01*
X-104823Y6735288D01*
X-104816Y6735290D01*
X-98367Y6736661D01*
X-69891Y6749339D01*
X70066Y6811652D01*
X76097Y6814337D01*
X195974Y6901433D01*
X225253Y6922705D01*
X225256Y6922708D01*
X230598Y6926589D01*
X358385Y7068511D01*
X453872Y7233899D01*
X512887Y7415527D01*
X531593Y7593502D01*
X961496Y7593502D01*
X962186Y7586937D01*
X972484Y7488952D01*
X981458Y7403574D01*
X983495Y7397303D01*
X983497Y7397296D01*
X1038430Y7228230D01*
X1038434Y7228220D01*
X1040473Y7221946D01*
X1043776Y7216224D01*
X1043777Y7216223D01*
X1132658Y7062276D01*
X1132661Y7062271D01*
X1135960Y7056558D01*
X1140378Y7051651D01*
X1140379Y7051650D01*
X1259325Y6919546D01*
X1259330Y6919541D01*
X1263747Y6914636D01*
X1269083Y6910758D01*
X1269091Y6910752D01*
X1412906Y6806265D01*
X1418248Y6802384D01*
X1424275Y6799700D01*
X1424278Y6799699D01*
X1586681Y6727393D01*
X1592712Y6724708D01*
X1599161Y6723337D01*
X1599168Y6723335D01*
X1773056Y6686374D01*
X1773060Y6686373D01*
X1779513Y6685002D01*
X1963884Y6685002D01*
X1970487Y6685002D01*
X1976940Y6686373D01*
X1976943Y6686374D01*
X2150831Y6723335D01*
X2150835Y6723336D01*
X2157288Y6724708D01*
X2331752Y6802384D01*
X2403057Y6854190D01*
X2480908Y6910752D01*
X2480911Y6910755D01*
X2486253Y6914636D01*
X2614040Y7056558D01*
X2709527Y7221946D01*
X2720521Y7255780D01*
X2766502Y7397296D01*
X2768542Y7403574D01*
X2788504Y7593502D01*
X2768542Y7783430D01*
X2709527Y7965058D01*
X2614040Y8130446D01*
X2486253Y8272368D01*
X2331752Y8384620D01*
X2157288Y8462296D01*
X1970487Y8502002D01*
X1779513Y8502002D01*
X1592712Y8462296D01*
X1418248Y8384620D01*
X1330313Y8320731D01*
X1273441Y8279411D01*
X1263747Y8272368D01*
X1135960Y8130446D01*
X1040473Y7965058D01*
X1038433Y7958780D01*
X1038430Y7958773D01*
X983497Y7789707D01*
X983495Y7789702D01*
X981458Y7783430D01*
X961496Y7593502D01*
X531593Y7593502D01*
X532849Y7605455D01*
X512887Y7795383D01*
X453872Y7977011D01*
X358385Y8142399D01*
X308781Y8197489D01*
X279173Y8255599D01*
X282585Y8320731D01*
X317315Y8374214D01*
X319753Y8375985D01*
X447540Y8517907D01*
X543027Y8683295D01*
X602042Y8864923D01*
X622004Y9054851D01*
X602042Y9244779D01*
X543027Y9426407D01*
X447540Y9591795D01*
X319753Y9733717D01*
X165252Y9845969D01*
X-9212Y9923645D01*
X-196013Y9963351D01*
X-386987Y9963351D01*
X-493217Y9940771D01*
X-555830Y9943394D01*
X-609435Y9975856D01*
X-640772Y10030126D01*
X-642088Y10092780D01*
X-614597Y10145376D01*
X-614708Y10145457D01*
X-614162Y10146207D01*
X-613059Y10148319D01*
X-610828Y10150797D01*
X-610827Y10150798D01*
X-606409Y10155705D01*
X-603110Y10161418D01*
X-603107Y10161423D01*
X-514226Y10315370D01*
X-514225Y10315371D01*
X-510922Y10321093D01*
X-508883Y10327367D01*
X-508879Y10327377D01*
X-453946Y10496443D01*
X-453944Y10496450D01*
X-451907Y10502721D01*
X-450671Y10514476D01*
X-432635Y10686084D01*
X-431945Y10692649D01*
X-450207Y10866400D01*
X-451217Y10876013D01*
X-451907Y10882577D01*
X-453944Y10888849D01*
X-453946Y10888854D01*
X-508879Y11057920D01*
X-508882Y11057927D01*
X-510922Y11064205D01*
X-606409Y11229593D01*
X-734196Y11371515D01*
X-872953Y11472328D01*
X-913998Y11523014D01*
X-924202Y11587432D01*
X-915525Y11670002D01*
X-915525Y11670005D01*
X-914835Y11676570D01*
X-925766Y11780572D01*
X-934107Y11859934D01*
X-934797Y11866498D01*
X-936834Y11872770D01*
X-936836Y11872775D01*
X-991769Y12041841D01*
X-991772Y12041848D01*
X-993812Y12048126D01*
X-1089299Y12213514D01*
X-1217086Y12355436D01*
X-1235490Y12368807D01*
X-1301681Y12416898D01*
X-1371587Y12467688D01*
X-1546051Y12545364D01*
X-1732852Y12585070D01*
X-1795908Y12585070D01*
X-1852559Y12598524D01*
X-1897112Y12636012D01*
X-1920053Y12689529D01*
X-1916483Y12747646D01*
X-1875000Y12884395D01*
X-1874998Y12884401D01*
X-1873204Y12890318D01*
X-1872598Y12896469D01*
X-1872596Y12896480D01*
X-1854339Y13081856D01*
X-1853732Y13088019D01*
X-1854339Y13094185D01*
X-1860316Y13154880D01*
X-1855497Y13203805D01*
X-1832322Y13247162D01*
X-1794319Y13278350D01*
X-1674567Y13342359D01*
X-1674566Y13342359D01*
X-1669108Y13345277D01*
X-1664329Y13349198D01*
X-1664323Y13349203D01*
X-1520323Y13467381D01*
X-1520317Y13467386D01*
X-1515544Y13471304D01*
X-1511626Y13476077D01*
X-1511621Y13476083D01*
X-1393443Y13620083D01*
X-1393438Y13620089D01*
X-1389517Y13624868D01*
X-1386602Y13630321D01*
X-1386599Y13630326D01*
X-1298790Y13794606D01*
X-1298788Y13794610D01*
X-1295871Y13800068D01*
X-1290943Y13816314D01*
X-1240000Y13984248D01*
X-1239998Y13984254D01*
X-1238204Y13990171D01*
X-1237598Y13996322D01*
X-1237596Y13996333D01*
X-1219339Y14181709D01*
X-1218732Y14187872D01*
X-1221856Y14219587D01*
X-1237596Y14379410D01*
X-1237597Y14379419D01*
X-1238204Y14385573D01*
X-1273280Y14501202D01*
X-1294074Y14569752D01*
X-1295871Y14575676D01*
X-1389517Y14750876D01*
X-1441376Y14814066D01*
X-1511621Y14899660D01*
X-1515544Y14904440D01*
X-1669108Y15030467D01*
X-1844308Y15124113D01*
X-2034411Y15181780D01*
X-2040572Y15182386D01*
X-2040573Y15182387D01*
X-2225949Y15200645D01*
X-2232112Y15201252D01*
X-2298972Y15194666D01*
X-2347893Y15199484D01*
X-2391252Y15222659D01*
X-2422441Y15260663D01*
X-2486451Y15380416D01*
X-2489369Y15385876D01*
X-2615396Y15539440D01*
X-2768960Y15665467D01*
X-2944160Y15759113D01*
X-3134263Y15816780D01*
X-3140424Y15817386D01*
X-3140425Y15817387D01*
X-3325801Y15835645D01*
X-3331964Y15836252D01*
X-3529665Y15816780D01*
X-3719768Y15759113D01*
X-3876973Y15675085D01*
X-3939658Y15660251D01*
X-4001486Y15678340D01*
X-4046292Y15724626D01*
X-4062363Y15787009D01*
X-4045500Y15849182D01*
X-1868634Y19621673D01*
X-1822521Y19667806D01*
X-1759518Y19684699D01*
X-1696510Y19667824D01*
G37*
%TD.AperFunction*%
%TD*%
M02*
