%TF.GenerationSoftware,KiCad,Pcbnew,7.0.0-da2b9df05c~163~ubuntu22.04.1*%
%TF.CreationDate,2023-02-18T04:30:46+03:00*%
%TF.ProjectId,freeeeg16-alpha,66726565-6565-4673-9136-2d616c706861,rev?*%
%TF.SameCoordinates,Original*%
%TF.FileFunction,Copper,L4,Bot*%
%TF.FilePolarity,Positive*%
%FSLAX46Y46*%
G04 Gerber Fmt 4.6, Leading zero omitted, Abs format (unit mm)*
G04 Created by KiCad (PCBNEW 7.0.0-da2b9df05c~163~ubuntu22.04.1) date 2023-02-18 04:30:46*
%MOMM*%
%LPD*%
G01*
G04 APERTURE LIST*
G04 Aperture macros list*
%AMRoundRect*
0 Rectangle with rounded corners*
0 $1 Rounding radius*
0 $2 $3 $4 $5 $6 $7 $8 $9 X,Y pos of 4 corners*
0 Add a 4 corners polygon primitive as box body*
4,1,4,$2,$3,$4,$5,$6,$7,$8,$9,$2,$3,0*
0 Add four circle primitives for the rounded corners*
1,1,$1+$1,$2,$3*
1,1,$1+$1,$4,$5*
1,1,$1+$1,$6,$7*
1,1,$1+$1,$8,$9*
0 Add four rect primitives between the rounded corners*
20,1,$1+$1,$2,$3,$4,$5,0*
20,1,$1+$1,$4,$5,$6,$7,0*
20,1,$1+$1,$6,$7,$8,$9,0*
20,1,$1+$1,$8,$9,$2,$3,0*%
%AMHorizOval*
0 Thick line with rounded ends*
0 $1 width*
0 $2 $3 position (X,Y) of the first rounded end (center of the circle)*
0 $4 $5 position (X,Y) of the second rounded end (center of the circle)*
0 Add line between two ends*
20,1,$1,$2,$3,$4,$5,0*
0 Add two circle primitives to create the rounded ends*
1,1,$1,$2,$3*
1,1,$1,$4,$5*%
%AMRotRect*
0 Rectangle, with rotation*
0 The origin of the aperture is its center*
0 $1 length*
0 $2 width*
0 $3 Rotation angle, in degrees counterclockwise*
0 Add horizontal line*
21,1,$1,$2,0,0,$3*%
G04 Aperture macros list end*
%TA.AperFunction,ComponentPad*%
%ADD10R,1.000000X1.000000*%
%TD*%
%TA.AperFunction,ComponentPad*%
%ADD11O,1.000000X1.000000*%
%TD*%
%TA.AperFunction,SMDPad,CuDef*%
%ADD12RoundRect,0.140000X0.170000X-0.140000X0.170000X0.140000X-0.170000X0.140000X-0.170000X-0.140000X0*%
%TD*%
%TA.AperFunction,SMDPad,CuDef*%
%ADD13RoundRect,0.135000X-0.185000X0.135000X-0.185000X-0.135000X0.185000X-0.135000X0.185000X0.135000X0*%
%TD*%
%TA.AperFunction,SMDPad,CuDef*%
%ADD14RoundRect,0.140000X0.140000X0.170000X-0.140000X0.170000X-0.140000X-0.170000X0.140000X-0.170000X0*%
%TD*%
%TA.AperFunction,ComponentPad*%
%ADD15RotRect,1.000000X1.000000X210.000000*%
%TD*%
%TA.AperFunction,ComponentPad*%
%ADD16HorizOval,1.000000X0.000000X0.000000X0.000000X0.000000X0*%
%TD*%
%TA.AperFunction,SMDPad,CuDef*%
%ADD17RoundRect,0.225000X0.329006X-0.069856X0.104006X0.319856X-0.329006X0.069856X-0.104006X-0.319856X0*%
%TD*%
%TA.AperFunction,SMDPad,CuDef*%
%ADD18RoundRect,0.140000X-0.219203X-0.021213X-0.021213X-0.219203X0.219203X0.021213X0.021213X0.219203X0*%
%TD*%
%TA.AperFunction,SMDPad,CuDef*%
%ADD19RoundRect,0.225000X-0.104006X0.319856X-0.329006X-0.069856X0.104006X-0.319856X0.329006X0.069856X0*%
%TD*%
%TA.AperFunction,SMDPad,CuDef*%
%ADD20RoundRect,0.140000X-0.170000X0.140000X-0.170000X-0.140000X0.170000X-0.140000X0.170000X0.140000X0*%
%TD*%
%TA.AperFunction,SMDPad,CuDef*%
%ADD21RoundRect,0.075000X-0.415425X-0.521491X0.521491X0.415425X0.415425X0.521491X-0.521491X-0.415425X0*%
%TD*%
%TA.AperFunction,SMDPad,CuDef*%
%ADD22RoundRect,0.075000X0.415425X-0.521491X0.521491X-0.415425X-0.415425X0.521491X-0.521491X0.415425X0*%
%TD*%
%TA.AperFunction,SMDPad,CuDef*%
%ADD23RotRect,0.900000X1.700000X225.000000*%
%TD*%
%TA.AperFunction,SMDPad,CuDef*%
%ADD24RoundRect,0.150000X-0.368838X-0.386154X0.518838X0.126346X0.368838X0.386154X-0.518838X-0.126346X0*%
%TD*%
%TA.AperFunction,ComponentPad*%
%ADD25HorizOval,1.000000X0.000000X0.000000X0.000000X0.000000X0*%
%TD*%
%TA.AperFunction,ComponentPad*%
%ADD26RotRect,1.000000X1.000000X330.000000*%
%TD*%
%TA.AperFunction,SMDPad,CuDef*%
%ADD27R,1.500000X2.000000*%
%TD*%
%TA.AperFunction,SMDPad,CuDef*%
%ADD28R,3.800000X2.000000*%
%TD*%
%TA.AperFunction,SMDPad,CuDef*%
%ADD29RoundRect,0.075000X0.530330X-0.424264X-0.424264X0.530330X-0.530330X0.424264X0.424264X-0.530330X0*%
%TD*%
%TA.AperFunction,SMDPad,CuDef*%
%ADD30RoundRect,0.075000X0.530330X0.424264X0.424264X0.530330X-0.530330X-0.424264X-0.424264X-0.530330X0*%
%TD*%
%TA.AperFunction,SMDPad,CuDef*%
%ADD31RoundRect,0.140000X-0.021213X0.219203X-0.219203X0.021213X0.021213X-0.219203X0.219203X-0.021213X0*%
%TD*%
%TA.AperFunction,SMDPad,CuDef*%
%ADD32RoundRect,0.150000X0.518838X-0.126346X-0.368838X0.386154X-0.518838X0.126346X0.368838X-0.386154X0*%
%TD*%
%TA.AperFunction,SMDPad,CuDef*%
%ADD33RoundRect,0.140000X-0.140000X-0.170000X0.140000X-0.170000X0.140000X0.170000X-0.140000X0.170000X0*%
%TD*%
%TA.AperFunction,SMDPad,CuDef*%
%ADD34RoundRect,0.250000X0.475000X-0.250000X0.475000X0.250000X-0.475000X0.250000X-0.475000X-0.250000X0*%
%TD*%
%TA.AperFunction,SMDPad,CuDef*%
%ADD35RoundRect,0.225000X-0.250000X0.225000X-0.250000X-0.225000X0.250000X-0.225000X0.250000X0.225000X0*%
%TD*%
%TA.AperFunction,SMDPad,CuDef*%
%ADD36RoundRect,0.140000X0.219203X0.021213X0.021213X0.219203X-0.219203X-0.021213X-0.021213X-0.219203X0*%
%TD*%
%TA.AperFunction,SMDPad,CuDef*%
%ADD37RoundRect,0.075000X-0.424264X-0.530330X0.530330X0.424264X0.424264X0.530330X-0.530330X-0.424264X0*%
%TD*%
%TA.AperFunction,SMDPad,CuDef*%
%ADD38RoundRect,0.075000X0.424264X-0.530330X0.530330X-0.424264X-0.424264X0.530330X-0.530330X0.424264X0*%
%TD*%
%TA.AperFunction,SMDPad,CuDef*%
%ADD39RotRect,0.900000X1.700000X315.000000*%
%TD*%
%TA.AperFunction,SMDPad,CuDef*%
%ADD40RoundRect,0.135000X0.035355X-0.226274X0.226274X-0.035355X-0.035355X0.226274X-0.226274X0.035355X0*%
%TD*%
%TA.AperFunction,SMDPad,CuDef*%
%ADD41RoundRect,0.135000X-0.135000X-0.185000X0.135000X-0.185000X0.135000X0.185000X-0.135000X0.185000X0*%
%TD*%
%TA.AperFunction,ViaPad*%
%ADD42C,0.800000*%
%TD*%
%TA.AperFunction,Conductor*%
%ADD43C,0.250000*%
%TD*%
G04 APERTURE END LIST*
D10*
%TO.P,J1,1,Pin_1*%
%TO.N,ACC_5_VDDIO*%
X-624999Y19054999D03*
D11*
%TO.P,J1,2,Pin_2*%
%TO.N,CRYSTAL_4_Vin*%
X644999Y19054999D03*
%TO.P,J1,3,Pin_3*%
%TO.N,MCU_18_PB0_ADC1_SYNC{slash}RESET*%
X-624999Y17784999D03*
%TO.P,J1,4,Pin_4*%
%TO.N,ADC1_16_SYNC{slash}RESET*%
X644999Y17784999D03*
%TO.P,J1,5,Pin_5*%
%TO.N,CRYSTAL_3_OUT*%
X-624999Y16514999D03*
%TO.P,J1,6,Pin_6*%
%TO.N,MCU_5_PDO0_RCC_OSC_IN*%
X644999Y16514999D03*
%TD*%
D12*
%TO.P,C36,1*%
%TO.N,ACC_5_VDDIO*%
X-6985000Y-6576000D03*
%TO.P,C36,2*%
%TO.N,3V3_2_GND*%
X-6985000Y-5616000D03*
%TD*%
D10*
%TO.P,J29,1,Pin_1*%
%TO.N,ADC2_08_AIN5P*%
X11167947Y-9026999D03*
D11*
%TO.P,J29,2,Pin_2*%
X11167947Y-10296999D03*
%TO.P,J29,3,Pin_3*%
%TO.N,ADC2_09_AIN6P*%
X9897947Y-9026999D03*
%TO.P,J29,4,Pin_4*%
X9897947Y-10296999D03*
%TO.P,J29,5,Pin_5*%
%TO.N,ADC2_12_AIN7P*%
X8627947Y-9026999D03*
%TO.P,J29,6,Pin_6*%
X8627947Y-10296999D03*
%TD*%
D10*
%TO.P,J28,1,Pin_1*%
%TO.N,ADC1_29_AIN0P*%
X-8630999Y-9026999D03*
D11*
%TO.P,J28,2,Pin_2*%
X-8630999Y-10296999D03*
%TO.P,J28,3,Pin_3*%
%TO.N,ADC1_32_AIN1P*%
X-9900999Y-9026999D03*
%TO.P,J28,4,Pin_4*%
X-9900999Y-10296999D03*
%TO.P,J28,5,Pin_5*%
%TO.N,ADC1_01_AIN2P*%
X-11170999Y-9026999D03*
%TO.P,J28,6,Pin_6*%
X-11170999Y-10296999D03*
%TD*%
D13*
%TO.P,R6,1*%
%TO.N,MCU_20_PB2_BOOT1*%
X-6985000Y-3808000D03*
%TO.P,R6,2*%
%TO.N,3V3_2_GND*%
X-6985000Y-4828000D03*
%TD*%
D14*
%TO.P,C22,1*%
%TO.N,ADC1_14_REFIN*%
X-5108000Y7239000D03*
%TO.P,C22,2*%
%TO.N,3V3_2_GND*%
X-6068000Y7239000D03*
%TD*%
D15*
%TO.P,J31,1,Pin_1*%
%TO.N,ADC2_01_AIN2P*%
X12133110Y-2961164D03*
D16*
%TO.P,J31,2,Pin_2*%
X13232962Y-2326164D03*
%TO.P,J31,3,Pin_3*%
%TO.N,ADC2_04_AIN3P*%
X12768110Y-4061016D03*
%TO.P,J31,4,Pin_4*%
X13867962Y-3426016D03*
%TO.P,J31,5,Pin_5*%
%TO.N,ADC2_05_AIN4P*%
X13403110Y-5160869D03*
%TO.P,J31,6,Pin_6*%
X14502962Y-4525869D03*
%TD*%
D17*
%TO.P,C3,1*%
%TO.N,3V3_1_IN*%
X-17011500Y-10704170D03*
%TO.P,C3,2*%
%TO.N,3V3_2_GND*%
X-17786500Y-9361830D03*
%TD*%
D18*
%TO.P,C20,1*%
%TO.N,3V3_2_GND*%
X-7349811Y-10328589D03*
%TO.P,C20,2*%
%TO.N,MCU_7_NRST*%
X-6670989Y-11007411D03*
%TD*%
D14*
%TO.P,C35,1*%
%TO.N,ACC_5_VDDIO*%
X480000Y-11049000D03*
%TO.P,C35,2*%
%TO.N,3V3_2_GND*%
X-480000Y-11049000D03*
%TD*%
D19*
%TO.P,C2,1*%
%TO.N,ADC1_15_AVDD*%
X11817500Y-5932830D03*
%TO.P,C2,2*%
%TO.N,3V3_2_GND*%
X11042500Y-7275170D03*
%TD*%
%TO.P,C1,1*%
%TO.N,3V3_1_IN*%
X17786500Y-9361830D03*
%TO.P,C1,2*%
%TO.N,3V3_2_GND*%
X17011500Y-10704170D03*
%TD*%
D20*
%TO.P,C5,1*%
%TO.N,ADC1_15_AVDD*%
X889000Y4008000D03*
%TO.P,C5,2*%
%TO.N,3V3_2_GND*%
X889000Y3048000D03*
%TD*%
%TO.P,C11,1*%
%TO.N,ADC1_15_AVDD*%
X-6096000Y9088000D03*
%TO.P,C11,2*%
%TO.N,3V3_2_GND*%
X-6096000Y8128000D03*
%TD*%
D21*
%TO.P,U6,1,VBAT*%
%TO.N,ACC_5_VDDIO*%
X-998788Y-10475876D03*
%TO.P,U6,2,PC13*%
%TO.N,/MCU/2_PC13*%
X-1352342Y-10122322D03*
%TO.P,U6,3,PC14*%
%TO.N,/MCU/3_PC14*%
X-1705895Y-9768769D03*
%TO.P,U6,4,PC15*%
%TO.N,/MCU/4_PC15*%
X-2059449Y-9415215D03*
%TO.P,U6,5,PD0*%
%TO.N,MCU_5_PDO0_RCC_OSC_IN*%
X-2413002Y-9061662D03*
%TO.P,U6,6,PD1*%
%TO.N,/MCU/6_PD1*%
X-2766555Y-8708109D03*
%TO.P,U6,7,NRST*%
%TO.N,MCU_7_NRST*%
X-3120109Y-8354555D03*
%TO.P,U6,8,VSSA*%
%TO.N,3V3_2_GND*%
X-3473662Y-8001002D03*
%TO.P,U6,9,VDDA*%
%TO.N,ACC_5_VDDIO*%
X-3827215Y-7647449D03*
%TO.P,U6,10,PA0*%
%TO.N,/MCU/10_PA0*%
X-4180769Y-7293895D03*
%TO.P,U6,11,PA1*%
%TO.N,/MCU/11_PA1*%
X-4534322Y-6940342D03*
%TO.P,U6,12,PA2*%
%TO.N,MCU_12_PA2_USART2_TX*%
X-4887876Y-6586788D03*
D22*
%TO.P,U6,13,PA3*%
%TO.N,MCU_13_PA3_USART2_RX*%
X-4887876Y-4589212D03*
%TO.P,U6,14,PA4*%
%TO.N,ADC1_17_CS*%
X-4534322Y-4235658D03*
%TO.P,U6,15,PA5*%
%TO.N,ADC1_19_SCLK*%
X-4180769Y-3882105D03*
%TO.P,U6,16,PA6*%
%TO.N,ADC1_20_DOUT*%
X-3827215Y-3528551D03*
%TO.P,U6,17,PA7*%
%TO.N,ADC1_21_DIN*%
X-3473662Y-3174998D03*
%TO.P,U6,18,PB0*%
%TO.N,MCU_18_PB0_ADC1_SYNC{slash}RESET*%
X-3120109Y-2821445D03*
%TO.P,U6,19,PB1*%
%TO.N,ADC1_18_DRDY*%
X-2766555Y-2467891D03*
%TO.P,U6,20,PB2*%
%TO.N,MCU_20_PB2_BOOT1*%
X-2413002Y-2114338D03*
%TO.P,U6,21,PB10*%
%TO.N,/MCU/21_PB10*%
X-2059449Y-1760785D03*
%TO.P,U6,22,PB11*%
%TO.N,/MCU/22_PB11*%
X-1705895Y-1407231D03*
%TO.P,U6,23,VSS*%
%TO.N,3V3_2_GND*%
X-1352342Y-1053678D03*
%TO.P,U6,24,VDD*%
%TO.N,ACC_5_VDDIO*%
X-998788Y-700124D03*
D21*
%TO.P,U6,25,PB12*%
%TO.N,ADC2_17_CS*%
X998788Y-700124D03*
%TO.P,U6,26,PB13*%
%TO.N,ADC2_19_SCLK*%
X1352342Y-1053678D03*
%TO.P,U6,27,PB14*%
%TO.N,ADC2_20_DOUT*%
X1705895Y-1407231D03*
%TO.P,U6,28,PB15*%
%TO.N,ADC2_21_DIN*%
X2059449Y-1760785D03*
%TO.P,U6,29,PA8*%
%TO.N,ADC1_23_XTAL1{slash}CLKIN*%
X2413002Y-2114338D03*
%TO.P,U6,30,PA9*%
%TO.N,/MCU/30_PA9*%
X2766555Y-2467891D03*
%TO.P,U6,31,PA10*%
%TO.N,/MCU/31_PA10*%
X3120109Y-2821445D03*
%TO.P,U6,32,PA11*%
%TO.N,/MCU/32_PA11*%
X3473662Y-3174998D03*
%TO.P,U6,33,PA12*%
%TO.N,/MCU/33_PA12*%
X3827215Y-3528551D03*
%TO.P,U6,34,PA13*%
%TO.N,MCU_34_PA13_SYS_JTMS-SWDIO*%
X4180769Y-3882105D03*
%TO.P,U6,35,VSS*%
%TO.N,3V3_2_GND*%
X4534322Y-4235658D03*
%TO.P,U6,36,VDD*%
%TO.N,ACC_5_VDDIO*%
X4887876Y-4589212D03*
D22*
%TO.P,U6,37,PA14*%
%TO.N,MCU_37_PA14_SYS_JTCK-SWCLK*%
X4887876Y-6586788D03*
%TO.P,U6,38,PA15*%
%TO.N,MCU_38_PA15_SYS_JTDI*%
X4534322Y-6940342D03*
%TO.P,U6,39,PB3*%
%TO.N,MCU_39_PB3_SYS_JTDO-TRACESWO*%
X4180769Y-7293895D03*
%TO.P,U6,40,PB4*%
%TO.N,/MCU/40_PB4*%
X3827215Y-7647449D03*
%TO.P,U6,41,PB5*%
%TO.N,/MCU/41_PB5*%
X3473662Y-8001002D03*
%TO.P,U6,42,PB6*%
%TO.N,/MCU/42_PB6*%
X3120109Y-8354555D03*
%TO.P,U6,43,PB7*%
%TO.N,/MCU/43_PB7*%
X2766555Y-8708109D03*
%TO.P,U6,44,BOOT0*%
%TO.N,MCU_44_BOOT0*%
X2413002Y-9061662D03*
%TO.P,U6,45,PB8*%
%TO.N,/MCU/45_PB8*%
X2059449Y-9415215D03*
%TO.P,U6,46,PB9*%
%TO.N,/MCU/46_PB9*%
X1705895Y-9768769D03*
%TO.P,U6,47,VSS*%
%TO.N,3V3_2_GND*%
X1352342Y-10122322D03*
%TO.P,U6,48,VDD*%
%TO.N,ACC_5_VDDIO*%
X998788Y-10475876D03*
%TD*%
D23*
%TO.P,SW1,1,1*%
%TO.N,ACC_5_VDDIO*%
X6790081Y-8195917D03*
%TO.P,SW1,2,2*%
%TO.N,MCU_44_BOOT0*%
X4385917Y-10600081D03*
%TD*%
D12*
%TO.P,C21,2*%
%TO.N,3V3_2_GND*%
X889000Y1750000D03*
%TO.P,C21,1*%
%TO.N,ADC1_14_REFIN*%
X889000Y790000D03*
%TD*%
D24*
%TO.P,U4,1,IN*%
%TO.N,3V3_1_IN*%
X-15242104Y-9900474D03*
%TO.P,U4,2,GND*%
%TO.N,3V3_2_GND*%
X-15717104Y-9077750D03*
%TO.P,U4,3,EN*%
%TO.N,3V3_1_IN*%
X-16192104Y-8255026D03*
%TO.P,U4,4,N/C*%
%TO.N,unconnected-(U4-N{slash}C-Pad4)*%
X-14221896Y-7117526D03*
%TO.P,U4,5,OUT*%
%TO.N,ADC1_26_DVDD*%
X-13271896Y-8762974D03*
%TD*%
D25*
%TO.P,J32,6,Pin_6*%
%TO.N,3V3_2_GND*%
X-3331963Y14822871D03*
%TO.P,J32,5,Pin_5*%
X-2232111Y14187871D03*
%TO.P,J32,4,Pin_4*%
%TO.N,ADC1_12_AIN7P*%
X-3966963Y13723018D03*
%TO.P,J32,3,Pin_3*%
X-2867111Y13088018D03*
%TO.P,J32,2,Pin_2*%
%TO.N,ADC1_09_AIN6P*%
X-4601963Y12623166D03*
D26*
%TO.P,J32,1,Pin_1*%
X-3502111Y11988166D03*
%TD*%
D27*
%TO.P,U10,1,GND*%
%TO.N,3V3_2_GND*%
X2299999Y5993999D03*
%TO.P,U10,2,VO*%
%TO.N,3V3_5_OUT*%
X0Y5993999D03*
D28*
X0Y12293999D03*
D27*
%TO.P,U10,3,VI*%
%TO.N,3V3_1_IN*%
X-2299999Y5993999D03*
%TD*%
D20*
%TO.P,C12,1*%
%TO.N,/ADC1/24_CAP*%
X-889000Y4036000D03*
%TO.P,C12,2*%
%TO.N,3V3_2_GND*%
X-889000Y3076000D03*
%TD*%
D29*
%TO.P,U3,1,AIN2P*%
%TO.N,ADC2_01_AIN2P*%
X9705501Y1278373D03*
%TO.P,U3,2,AIN2N*%
%TO.N,ADC1_02_AIN2N*%
X9351948Y924819D03*
%TO.P,U3,3,AIN3N*%
X8998394Y571266D03*
%TO.P,U3,4,AIN3P*%
%TO.N,ADC2_04_AIN3P*%
X8644841Y217713D03*
%TO.P,U3,5,AIN4P*%
%TO.N,ADC2_05_AIN4P*%
X8291287Y-135841D03*
%TO.P,U3,6,AIN4N*%
%TO.N,ADC1_02_AIN2N*%
X7937734Y-489394D03*
%TO.P,U3,7,AIN5N*%
X7584181Y-842948D03*
%TO.P,U3,8,AIN5P*%
%TO.N,ADC2_08_AIN5P*%
X7230627Y-1196501D03*
D30*
%TO.P,U3,9,AIN6P*%
%TO.N,ADC2_09_AIN6P*%
X5215373Y-1196501D03*
%TO.P,U3,10,AIN6N*%
%TO.N,ADC1_02_AIN2N*%
X4861819Y-842948D03*
%TO.P,U3,11,AIN7N*%
X4508266Y-489394D03*
%TO.P,U3,12,AIN7P*%
%TO.N,ADC2_12_AIN7P*%
X4154713Y-135841D03*
%TO.P,U3,13,AGND*%
%TO.N,3V3_2_GND*%
X3801159Y217713D03*
%TO.P,U3,14,REFIN*%
%TO.N,ADC1_14_REFIN*%
X3447606Y571266D03*
%TO.P,U3,15,AVDD*%
%TO.N,ADC1_15_AVDD*%
X3094052Y924819D03*
%TO.P,U3,16,SYNC/RESET*%
%TO.N,ADC1_16_SYNC{slash}RESET*%
X2740499Y1278373D03*
D29*
%TO.P,U3,17,CS*%
%TO.N,ADC2_17_CS*%
X2740499Y3293627D03*
%TO.P,U3,18,DRDY*%
%TO.N,ADC2_18_DRDY*%
X3094052Y3647181D03*
%TO.P,U3,19,SCLK*%
%TO.N,ADC2_19_SCLK*%
X3447606Y4000734D03*
%TO.P,U3,20,DOUT*%
%TO.N,ADC2_20_DOUT*%
X3801159Y4354287D03*
%TO.P,U3,21,DIN*%
%TO.N,ADC2_21_DIN*%
X4154713Y4707841D03*
%TO.P,U3,22,XTAL2*%
%TO.N,/ADC2/22_XTAL2*%
X4508266Y5061394D03*
%TO.P,U3,23,XTAL1/CLKIN*%
%TO.N,ADC1_23_XTAL1{slash}CLKIN*%
X4861819Y5414948D03*
%TO.P,U3,24,CAP*%
%TO.N,/ADC2/24_CAP*%
X5215373Y5768501D03*
D30*
%TO.P,U3,25,DGND*%
%TO.N,3V3_2_GND*%
X7230627Y5768501D03*
%TO.P,U3,26,DVDD*%
%TO.N,ADC1_26_DVDD*%
X7584181Y5414948D03*
%TO.P,U3,27,NC*%
%TO.N,/ADC2/27_NC*%
X7937734Y5061394D03*
%TO.P,U3,28,AGND*%
%TO.N,3V3_2_GND*%
X8291287Y4707841D03*
%TO.P,U3,29,AIN0P*%
%TO.N,ADC2_29_AIN0P*%
X8644841Y4354287D03*
%TO.P,U3,30,AIN0N*%
%TO.N,ADC1_02_AIN2N*%
X8998394Y4000734D03*
%TO.P,U3,31,AIN1N*%
X9351948Y3647181D03*
%TO.P,U3,32,AIN1P*%
%TO.N,ADC2_32_AIN1P*%
X9705501Y3293627D03*
%TD*%
D31*
%TO.P,C33,1*%
%TO.N,ACC_5_VDDIO*%
X-1905000Y254000D03*
%TO.P,C33,2*%
%TO.N,3V3_2_GND*%
X-2583822Y-424822D03*
%TD*%
D17*
%TO.P,C4,1*%
%TO.N,ADC1_26_DVDD*%
X-11042500Y-7275170D03*
%TO.P,C4,2*%
%TO.N,3V3_2_GND*%
X-11817500Y-5932830D03*
%TD*%
D15*
%TO.P,J33,1,Pin_1*%
%TO.N,ADC1_02_AIN2N*%
X2233636Y14185226D03*
D16*
%TO.P,J33,2,Pin_2*%
X3333488Y14820226D03*
%TO.P,J33,3,Pin_3*%
%TO.N,ADC2_29_AIN0P*%
X2868636Y13085374D03*
%TO.P,J33,4,Pin_4*%
X3968488Y13720374D03*
%TO.P,J33,5,Pin_5*%
%TO.N,ADC2_32_AIN1P*%
X3503636Y11985521D03*
%TO.P,J33,6,Pin_6*%
X4603488Y12620521D03*
%TD*%
D32*
%TO.P,U7,1,IN*%
%TO.N,3V3_1_IN*%
X16192104Y-8255026D03*
%TO.P,U7,2,GND*%
%TO.N,3V3_2_GND*%
X15717104Y-9077750D03*
%TO.P,U7,3,EN*%
%TO.N,3V3_1_IN*%
X15242104Y-9900474D03*
%TO.P,U7,4,N/C*%
%TO.N,unconnected-(U7-N{slash}C-Pad4)*%
X13271896Y-8762974D03*
%TO.P,U7,5,OUT*%
%TO.N,ADC1_15_AVDD*%
X14221896Y-7117526D03*
%TD*%
D26*
%TO.P,J30,1,Pin_1*%
%TO.N,ADC1_04_AIN3P*%
X-13401585Y-5158224D03*
D25*
%TO.P,J30,2,Pin_2*%
X-14501437Y-4523224D03*
%TO.P,J30,3,Pin_3*%
%TO.N,ADC1_05_AIN4P*%
X-12766585Y-4058372D03*
%TO.P,J30,4,Pin_4*%
X-13866437Y-3423372D03*
%TO.P,J30,5,Pin_5*%
%TO.N,ADC1_08_AIN5P*%
X-12131585Y-2958519D03*
%TO.P,J30,6,Pin_6*%
X-13231437Y-2323519D03*
%TD*%
D33*
%TO.P,C6,1*%
%TO.N,/ADC2/24_CAP*%
X4219000Y7112000D03*
%TO.P,C6,2*%
%TO.N,3V3_2_GND*%
X5179000Y7112000D03*
%TD*%
D34*
%TO.P,C16,1*%
%TO.N,3V3_1_IN*%
X-4572000Y8448000D03*
%TO.P,C16,2*%
%TO.N,3V3_2_GND*%
X-4572000Y10348000D03*
%TD*%
D20*
%TO.P,C13,1*%
%TO.N,ADC1_26_DVDD*%
X-889000Y1750000D03*
%TO.P,C13,2*%
%TO.N,3V3_2_GND*%
X-889000Y790000D03*
%TD*%
D35*
%TO.P,C32,1*%
%TO.N,ACC_5_VDDIO*%
X6731000Y-4813000D03*
%TO.P,C32,2*%
%TO.N,3V3_2_GND*%
X6731000Y-6363000D03*
%TD*%
D36*
%TO.P,C34,1*%
%TO.N,ACC_5_VDDIO*%
X6054411Y-3810000D03*
%TO.P,C34,2*%
%TO.N,3V3_2_GND*%
X5375589Y-3131178D03*
%TD*%
D37*
%TO.P,U8,1,AIN2P*%
%TO.N,ADC1_01_AIN2P*%
X-7230627Y-1196501D03*
%TO.P,U8,2,AIN2N*%
%TO.N,ADC1_02_AIN2N*%
X-7584181Y-842948D03*
%TO.P,U8,3,AIN3N*%
X-7937734Y-489394D03*
%TO.P,U8,4,AIN3P*%
%TO.N,ADC1_04_AIN3P*%
X-8291287Y-135841D03*
%TO.P,U8,5,AIN4P*%
%TO.N,ADC1_05_AIN4P*%
X-8644841Y217713D03*
%TO.P,U8,6,AIN4N*%
%TO.N,ADC1_02_AIN2N*%
X-8998394Y571266D03*
%TO.P,U8,7,AIN5N*%
X-9351948Y924819D03*
%TO.P,U8,8,AIN5P*%
%TO.N,ADC1_08_AIN5P*%
X-9705501Y1278373D03*
D38*
%TO.P,U8,9,AIN6P*%
%TO.N,ADC1_09_AIN6P*%
X-9705501Y3293627D03*
%TO.P,U8,10,AIN6N*%
%TO.N,ADC1_02_AIN2N*%
X-9351948Y3647181D03*
%TO.P,U8,11,AIN7N*%
X-8998394Y4000734D03*
%TO.P,U8,12,AIN7P*%
%TO.N,ADC1_12_AIN7P*%
X-8644841Y4354287D03*
%TO.P,U8,13,AGND*%
%TO.N,3V3_2_GND*%
X-8291287Y4707841D03*
%TO.P,U8,14,REFIN*%
%TO.N,ADC1_14_REFIN*%
X-7937734Y5061394D03*
%TO.P,U8,15,AVDD*%
%TO.N,ADC1_15_AVDD*%
X-7584181Y5414948D03*
%TO.P,U8,16,SYNC/RESET*%
%TO.N,ADC1_16_SYNC{slash}RESET*%
X-7230627Y5768501D03*
D37*
%TO.P,U8,17,CS*%
%TO.N,ADC1_17_CS*%
X-5215373Y5768501D03*
%TO.P,U8,18,DRDY*%
%TO.N,ADC1_18_DRDY*%
X-4861819Y5414948D03*
%TO.P,U8,19,SCLK*%
%TO.N,ADC1_19_SCLK*%
X-4508266Y5061394D03*
%TO.P,U8,20,DOUT*%
%TO.N,ADC1_20_DOUT*%
X-4154713Y4707841D03*
%TO.P,U8,21,DIN*%
%TO.N,ADC1_21_DIN*%
X-3801159Y4354287D03*
%TO.P,U8,22,XTAL2*%
%TO.N,/ADC1/22_XTAL2*%
X-3447606Y4000734D03*
%TO.P,U8,23,XTAL1/CLKIN*%
%TO.N,ADC1_23_XTAL1{slash}CLKIN*%
X-3094052Y3647181D03*
%TO.P,U8,24,CAP*%
%TO.N,/ADC1/24_CAP*%
X-2740499Y3293627D03*
D38*
%TO.P,U8,25,DGND*%
%TO.N,3V3_2_GND*%
X-2740499Y1278373D03*
%TO.P,U8,26,DVDD*%
%TO.N,ADC1_26_DVDD*%
X-3094052Y924819D03*
%TO.P,U8,27,NC*%
%TO.N,/ADC1/27_NC*%
X-3447606Y571266D03*
%TO.P,U8,28,AGND*%
%TO.N,3V3_2_GND*%
X-3801159Y217713D03*
%TO.P,U8,29,AIN0P*%
%TO.N,ADC1_29_AIN0P*%
X-4154713Y-135841D03*
%TO.P,U8,30,AIN0N*%
%TO.N,ADC1_02_AIN2N*%
X-4508266Y-489394D03*
%TO.P,U8,31,AIN1N*%
X-4861819Y-842948D03*
%TO.P,U8,32,AIN1P*%
%TO.N,ADC1_32_AIN1P*%
X-5215373Y-1196501D03*
%TD*%
D39*
%TO.P,SW2,1,1*%
%TO.N,3V3_2_GND*%
X-6790081Y-8195917D03*
%TO.P,SW2,2,2*%
%TO.N,MCU_7_NRST*%
X-4385917Y-10600081D03*
%TD*%
D14*
%TO.P,C7,1*%
%TO.N,ADC1_26_DVDD*%
X6957000Y7112000D03*
%TO.P,C7,2*%
%TO.N,3V3_2_GND*%
X5997000Y7112000D03*
%TD*%
D40*
%TO.P,R5,1*%
%TO.N,MCU_44_BOOT0*%
X6751376Y-11028624D03*
%TO.P,R5,2*%
%TO.N,3V3_2_GND*%
X7472624Y-10307376D03*
%TD*%
D41*
%TO.P,R2,1*%
%TO.N,MCU_18_PB0_ADC1_SYNC{slash}RESET*%
X-492000Y20574000D03*
%TO.P,R2,2*%
%TO.N,ADC1_16_SYNC{slash}RESET*%
X528000Y20574000D03*
%TD*%
D34*
%TO.P,C17,1*%
%TO.N,3V3_5_OUT*%
X4572000Y8448000D03*
%TO.P,C17,2*%
%TO.N,3V3_2_GND*%
X4572000Y10348000D03*
%TD*%
D42*
%TO.N,ADC1_15_AVDD*%
X17224809Y-7774246D03*
%TO.N,MCU_38_PA15_SYS_JTDI*%
X3349611Y-6218133D03*
%TO.N,RADIO_8_GPIO9*%
X0Y-6221500D03*
X-8255000Y-5080000D03*
%TO.N,3V3_2_GND*%
X-140000Y650000D03*
%TO.N,3V3_5_OUT*%
X508000Y5334000D03*
%TO.N,3V3_2_GND*%
X-7918578Y-6174332D03*
X-11811000Y-1115000D03*
%TO.N,3V3_1_IN*%
X-3167720Y7207999D03*
X-13843000Y-10287000D03*
X14823166Y-5607300D03*
%TO.N,ADC1_15_AVDD*%
X7397001Y2361000D03*
X-291500Y9054851D03*
X14493630Y-6550916D03*
%TO.N,ADC1_26_DVDD*%
X-1931445Y2902448D03*
X-12368202Y-9654691D03*
X6962270Y4038067D03*
%TO.N,ADC1_14_REFIN*%
X-3844068Y6384068D03*
X6566000Y508000D03*
X10099502Y-4953000D03*
X-380655Y7605455D03*
%TO.N,ACC_5_VDDIO*%
X-736730Y-8674000D03*
X-1089502Y-127000D03*
X-7114593Y-6992383D03*
X7390800Y-5422552D03*
X-14872119Y-6454277D03*
X-10695286Y-5777693D03*
X2551948Y-10809404D03*
%TO.N,ADC2_17_CS*%
X3570269Y2424987D03*
X-865846Y-2460352D03*
%TO.N,ADC1_02_AIN2N*%
X10796725Y3303725D03*
X-10581021Y2633053D03*
%TO.N,ADC1_16_SYNC{slash}RESET*%
X2390436Y1628436D03*
X768088Y10681980D03*
X-7142067Y6581825D03*
%TO.N,ADC1_17_CS*%
X-3941885Y-5617067D03*
X-6473054Y1654946D03*
%TO.N,ADC1_18_DRDY*%
X-6001569Y3429000D03*
X-893925Y-4243637D03*
%TO.N,ADC1_19_SCLK*%
X-3212280Y-6300406D03*
X-5659543Y2290577D03*
%TO.N,ADC1_23_XTAL1{slash}CLKIN*%
X2297730Y-3948731D03*
X3649502Y6107631D03*
X-1778000Y4357250D03*
%TO.N,3V3_2_GND*%
X-4025500Y10414000D03*
X14351000Y-10795000D03*
X-16891000Y-7493000D03*
X254000Y-9271000D03*
X-15113000Y-11030000D03*
X12383734Y-6967042D03*
X-7454453Y3456498D03*
X2859120Y9327522D03*
X1778000Y5207000D03*
X6036799Y-5901201D03*
X-140000Y-450002D03*
X-6409554Y7425554D03*
X-12293353Y-7429147D03*
%TO.N,3V3_5_OUT*%
X-1842809Y11647129D03*
%TO.N,MCU_7_NRST*%
X-4088500Y-9475223D03*
%TO.N,MCU_34_PA13_SYS_JTMS-SWDIO*%
X1443397Y-6693910D03*
%TO.N,MCU_37_PA14_SYS_JTCK-SWCLK*%
X2451107Y-6693500D03*
%TO.N,ADC1_20_DOUT*%
X-4775698Y1725873D03*
X-2408975Y-5714718D03*
%TO.N,ADC1_21_DIN*%
X-4210543Y2550255D03*
X-2342925Y-4465864D03*
%TO.N,ADC2_19_SCLK*%
X221983Y-2636152D03*
X4568319Y2371116D03*
%TO.N,ADC2_20_DOUT*%
X5048999Y3247444D03*
X470700Y-3604214D03*
%TO.N,ADC2_21_DIN*%
X5498500Y4140314D03*
X1332531Y-4208340D03*
%TO.N,MCU_5_PDO0_RCC_OSC_IN*%
X-2803543Y-10720500D03*
X-2032000Y10643086D03*
%TO.N,MCU_12_PA2_USART2_TX*%
X-5988782Y-5369279D03*
%TO.N,MCU_13_PA3_USART2_RX*%
X-5987001Y-4318000D03*
%TO.N,MCU_18_PB0_ADC1_SYNC{slash}RESET*%
X0Y4394498D03*
X-2794000Y9398000D03*
X-1572062Y-5102135D03*
%TD*%
D43*
%TO.N,3V3_1_IN*%
X16192104Y-6976238D02*
X14823166Y-5607300D01*
X16192104Y-8255026D02*
X16192104Y-6976238D01*
%TO.N,ADC1_15_AVDD*%
X14493630Y-6845792D02*
X14493630Y-6550916D01*
X14221896Y-7117526D02*
X14493630Y-6845792D01*
%TO.N,ADC1_23_XTAL1{slash}CLKIN*%
X1845485Y-2681855D02*
X1845485Y-3496486D01*
%TO.N,ADC2_21_DIN*%
X1395984Y-4144887D02*
X1332531Y-4208340D01*
%TO.N,ADC1_23_XTAL1{slash}CLKIN*%
X1845485Y-3496486D02*
X2297730Y-3948731D01*
%TO.N,ADC2_21_DIN*%
X1395984Y-2424250D02*
X1395984Y-4144887D01*
%TO.N,3V3_2_GND*%
X5545843Y-7548157D02*
X5809367Y-7284633D01*
X5545843Y-8259827D02*
X5545843Y-7548157D01*
X7472624Y-10307376D02*
X7472624Y-10186608D01*
X6498598Y-6363000D02*
X6036799Y-5901201D01*
X7472624Y-10186608D02*
X5545843Y-8259827D01*
X5809367Y-7284633D02*
X5809367Y-6128633D01*
X6731000Y-6363000D02*
X6498598Y-6363000D01*
X5809367Y-6128633D02*
X6036799Y-5901201D01*
%TO.N,ADC1_23_XTAL1{slash}CLKIN*%
X2413002Y-2114338D02*
X1845485Y-2681855D01*
%TO.N,ADC2_21_DIN*%
X2059449Y-1760785D02*
X1395984Y-2424250D01*
%TO.N,ADC2_19_SCLK*%
X1352342Y-1053678D02*
X821705Y-1584315D01*
%TO.N,3V3_2_GND*%
X-417677Y-1621615D02*
X-77297Y-1281235D01*
%TO.N,ADC2_17_CS*%
X-231488Y-2071116D02*
X-476610Y-2071116D01*
%TO.N,3V3_2_GND*%
X-1352342Y-1053678D02*
X-784405Y-1621615D01*
%TO.N,ADC2_17_CS*%
X-476610Y-2071116D02*
X-865846Y-2460352D01*
%TO.N,ADC1_20_DOUT*%
X-2408975Y-5424412D02*
X-2408975Y-5714718D01*
%TO.N,3V3_2_GND*%
X-77297Y-1281235D02*
X-77297Y-512705D01*
%TO.N,ADC2_19_SCLK*%
X821705Y-1653613D02*
X221983Y-2253335D01*
%TO.N,ADC2_20_DOUT*%
X946483Y-2166643D02*
X946483Y-3128431D01*
%TO.N,MCU_18_PB0_ADC1_SYNC{slash}RESET*%
X-3120109Y-2821445D02*
X-2200190Y-3741364D01*
%TO.N,ADC2_19_SCLK*%
X221983Y-2253335D02*
X221983Y-2636152D01*
%TO.N,3V3_2_GND*%
X-77297Y-512705D02*
X-140000Y-450002D01*
%TO.N,ADC1_18_DRDY*%
X-2052062Y-3085500D02*
X-893925Y-4243637D01*
%TO.N,ADC1_19_SCLK*%
X-3212280Y-5322074D02*
X-3212280Y-6300406D01*
X-3516926Y-5017428D02*
X-3212280Y-5322074D01*
%TO.N,ADC1_20_DOUT*%
X-3067425Y-4765962D02*
X-2408975Y-5424412D01*
%TO.N,ADC1_17_CS*%
X-4534322Y-4235658D02*
X-3966427Y-4803553D01*
%TO.N,ADC2_20_DOUT*%
X946483Y-3128431D02*
X470700Y-3604214D01*
%TO.N,ADC1_20_DOUT*%
X-3067425Y-4288341D02*
X-3067425Y-4765962D01*
%TO.N,ADC2_20_DOUT*%
X1705895Y-1407231D02*
X946483Y-2166643D01*
%TO.N,MCU_18_PB0_ADC1_SYNC{slash}RESET*%
X-1618425Y-4165724D02*
X-1618425Y-5055772D01*
%TO.N,ADC2_17_CS*%
X372204Y-1467424D02*
X-231488Y-2071116D01*
%TO.N,ADC1_18_DRDY*%
X-2766555Y-2467891D02*
X-2148946Y-3085500D01*
%TO.N,ADC2_17_CS*%
X372204Y-1326708D02*
X372204Y-1467424D01*
%TO.N,ADC1_21_DIN*%
X-2342925Y-4305735D02*
X-2342925Y-4465864D01*
X-3473662Y-3174998D02*
X-2342925Y-4305735D01*
%TO.N,ADC1_18_DRDY*%
X-2148946Y-3085500D02*
X-2052062Y-3085500D01*
%TO.N,ADC1_19_SCLK*%
X-3516926Y-4545948D02*
X-3516926Y-5017428D01*
X-4180769Y-3882105D02*
X-3516926Y-4545948D01*
%TO.N,ADC1_20_DOUT*%
X-3827215Y-3528551D02*
X-3067425Y-4288341D01*
%TO.N,3V3_2_GND*%
X-784405Y-1621615D02*
X-417677Y-1621615D01*
%TO.N,ADC1_17_CS*%
X-3966427Y-4803553D02*
X-3966427Y-5592525D01*
%TO.N,MCU_18_PB0_ADC1_SYNC{slash}RESET*%
X-2200190Y-3741364D02*
X-2042785Y-3741364D01*
%TO.N,ADC2_19_SCLK*%
X821705Y-1584315D02*
X821705Y-1653613D01*
%TO.N,ADC1_17_CS*%
X-3966427Y-5592525D02*
X-3941885Y-5617067D01*
%TO.N,MCU_18_PB0_ADC1_SYNC{slash}RESET*%
X-2042785Y-3741364D02*
X-1618425Y-4165724D01*
X-1618425Y-5055772D02*
X-1572062Y-5102135D01*
%TO.N,ADC2_17_CS*%
X998788Y-700124D02*
X372204Y-1326708D01*
%TO.N,MCU_38_PA15_SYS_JTDI*%
X3742815Y-6218133D02*
X3349611Y-6218133D01*
X3934387Y-6409705D02*
X3742815Y-6218133D01*
X4534322Y-6940342D02*
X4003685Y-6409705D01*
X4003685Y-6409705D02*
X3934387Y-6409705D01*
%TO.N,MCU_34_PA13_SYS_JTMS-SWDIO*%
X1716736Y-6420571D02*
X1443397Y-6693910D01*
X3187299Y-4875575D02*
X2978425Y-4875575D01*
%TO.N,MCU_37_PA14_SYS_JTCK-SWCLK*%
X3164614Y-5325076D02*
X2451107Y-6038583D01*
X4887876Y-6586788D02*
X4261292Y-5960204D01*
%TO.N,MCU_34_PA13_SYS_JTMS-SWDIO*%
X2978425Y-4875575D02*
X1991735Y-5862265D01*
%TO.N,MCU_37_PA14_SYS_JTCK-SWCLK*%
X4261292Y-5960204D02*
X4120576Y-5960204D01*
%TO.N,MCU_34_PA13_SYS_JTMS-SWDIO*%
X4180769Y-3882105D02*
X3187299Y-4875575D01*
X1716736Y-6336168D02*
X1716736Y-6420571D01*
%TO.N,MCU_37_PA14_SYS_JTCK-SWCLK*%
X4120576Y-5960204D02*
X3485448Y-5325076D01*
X2451107Y-6038583D02*
X2451107Y-6693500D01*
X3485448Y-5325076D02*
X3164614Y-5325076D01*
%TO.N,MCU_34_PA13_SYS_JTMS-SWDIO*%
X1991735Y-5862265D02*
X1991735Y-6061169D01*
X1991735Y-6061169D02*
X1716736Y-6336168D01*
%TO.N,3V3_2_GND*%
X-7426478Y-8195918D02*
X-7918578Y-7703818D01*
X-7840246Y-6096000D02*
X-7918578Y-6174332D01*
X-7618000Y-6096000D02*
X-7840246Y-6096000D01*
X-6858000Y-5113754D02*
X-7918578Y-6174332D01*
%TO.N,MCU_12_PA2_USART2_TX*%
X-4887876Y-6586788D02*
X-5988782Y-5485882D01*
%TO.N,3V3_2_GND*%
X-6790082Y-8195918D02*
X-7426478Y-8195918D01*
X-7918578Y-7703818D02*
X-7918578Y-6174332D01*
%TO.N,MCU_12_PA2_USART2_TX*%
X-5988782Y-5485882D02*
X-5988782Y-5369279D01*
%TO.N,3V3_2_GND*%
X-6858000Y-4828000D02*
X-6858000Y-5113754D01*
%TO.N,ADC1_01_AIN2P*%
X-8241377Y-2080497D02*
X-8114623Y-2080497D01*
%TO.N,ADC1_32_AIN1P*%
X-8055188Y-2529998D02*
X-9466501Y-3941311D01*
X-9466501Y-8592501D02*
X-9901000Y-9027000D01*
%TO.N,ADC1_01_AIN2P*%
X-9916002Y-7772002D02*
X-9916002Y-3755122D01*
X-8114623Y-2080497D02*
X-7230627Y-1196501D01*
%TO.N,ADC1_32_AIN1P*%
X-6548870Y-2529998D02*
X-8055188Y-2529998D01*
%TO.N,ADC1_01_AIN2P*%
X-11171000Y-9027000D02*
X-9916002Y-7772002D01*
X-9916002Y-3755122D02*
X-8241377Y-2080497D01*
%TO.N,ADC1_32_AIN1P*%
X-5215373Y-1196501D02*
X-6548870Y-2529998D01*
%TO.N,ADC1_29_AIN0P*%
X-5461000Y-2979499D02*
X-7868999Y-2979499D01*
X-7868999Y-2979499D02*
X-9017000Y-4127500D01*
%TO.N,ADC1_32_AIN1P*%
X-9466501Y-3941311D02*
X-9466501Y-8592501D01*
%TO.N,ADC1_29_AIN0P*%
X-9017000Y-4127500D02*
X-9017000Y-8641000D01*
X-9017000Y-8641000D02*
X-8631000Y-9027000D01*
%TO.N,3V3_2_GND*%
X-140000Y41000D02*
X-140000Y-450002D01*
X-889000Y790000D02*
X-140000Y41000D01*
X-140000Y650000D02*
X-140000Y-450002D01*
X-78609Y790000D02*
X881391Y1750000D01*
%TO.N,ADC1_14_REFIN*%
X889000Y973902D02*
X1964360Y-101458D01*
%TO.N,3V3_2_GND*%
X-881391Y790000D02*
X889000Y2560391D01*
X889000Y2560391D02*
X889000Y3048000D01*
X-889000Y790000D02*
X-78609Y790000D01*
X881391Y1750000D02*
X889000Y1750000D01*
X-889000Y790000D02*
X-881391Y790000D01*
X-881391Y790000D02*
X-254000Y1417391D01*
X-254000Y1417391D02*
X-254000Y2441000D01*
X-254000Y2441000D02*
X-889000Y3076000D01*
X-889000Y790000D02*
X-1585400Y790000D01*
X-1585400Y790000D02*
X-2073773Y1278373D01*
X-2073773Y1278373D02*
X-2740499Y1278373D01*
%TO.N,ADC1_26_DVDD*%
X-889000Y1750000D02*
X-889000Y1860003D01*
X-889000Y1860003D02*
X-1931445Y2902448D01*
%TO.N,ADC1_16_SYNC{slash}RESET*%
X2740499Y1278373D02*
X2390436Y1628436D01*
%TO.N,MCU_18_PB0_ADC1_SYNC{slash}RESET*%
X-1075000Y4669000D02*
X-274502Y4669000D01*
X433000Y9354949D02*
X433000Y8754753D01*
X-2794000Y9398000D02*
X-2412649Y9779351D01*
X-2412649Y9779351D02*
X8598Y9779351D01*
X433000Y8754753D02*
X8598Y8330351D01*
X8598Y8330351D02*
X-685286Y8330351D01*
X-685286Y8330351D02*
X-1143000Y7872637D01*
X-1143000Y7872637D02*
X-1143000Y4737000D01*
X-274502Y4669000D02*
X0Y4394498D01*
X8598Y9779351D02*
X433000Y9354949D01*
X-1143000Y4737000D02*
X-1075000Y4669000D01*
%TO.N,ADC1_23_XTAL1{slash}CLKIN*%
X-2383983Y4357250D02*
X-1778000Y4357250D01*
X-3094052Y3647181D02*
X-2383983Y4357250D01*
%TO.N,MCU_13_PA3_USART2_RX*%
X-5715789Y-4589212D02*
X-5987001Y-4318000D01*
X-4887876Y-4589212D02*
X-5715789Y-4589212D01*
%TO.N,MCU_20_PB2_BOOT1*%
X-2413002Y-2114338D02*
X-2980940Y-1546400D01*
X-3347666Y-1546400D02*
X-5394766Y-3593500D01*
X-5394766Y-3593500D02*
X-6643500Y-3593500D01*
X-6643500Y-3593500D02*
X-6858000Y-3808000D01*
X-2980940Y-1546400D02*
X-3347666Y-1546400D01*
%TO.N,ACC_5_VDDIO*%
X-4761880Y-8215386D02*
X-6401266Y-6576000D01*
X-6401266Y-6576000D02*
X-6858000Y-6576000D01*
%TO.N,ADC1_29_AIN0P*%
X-5461000Y-2979499D02*
X-6535499Y-2979499D01*
X-5416455Y-2979499D02*
X-5461000Y-2979499D01*
%TO.N,ADC1_17_CS*%
X-6729953Y4113205D02*
X-6729953Y1911845D01*
X-5850796Y5133078D02*
X-5850796Y4992362D01*
X-6729953Y1911845D02*
X-6473054Y1654946D01*
X-5850796Y4992362D02*
X-6729953Y4113205D01*
X-5215373Y5768501D02*
X-5850796Y5133078D01*
%TO.N,3V3_5_OUT*%
X0Y5994000D02*
X0Y5842000D01*
X0Y5842000D02*
X508000Y5334000D01*
%TO.N,ADC1_29_AIN0P*%
X-3577936Y-1140980D02*
X-5416455Y-2979499D01*
X-3577936Y-712618D02*
X-3577936Y-1140980D01*
X-4154713Y-135841D02*
X-3577936Y-712618D01*
%TO.N,3V3_2_GND*%
X-7454453Y3871007D02*
X-7454453Y3456498D01*
X-8291287Y4707841D02*
X-7454453Y3871007D01*
%TO.N,ADC2_01_AIN2P*%
X9705501Y1278373D02*
X10282278Y701596D01*
X10282278Y701596D02*
X10282278Y334869D01*
X10282278Y334869D02*
X10147000Y199591D01*
X10147000Y199591D02*
X10147000Y-975054D01*
X10147000Y-975054D02*
X12133111Y-2961165D01*
%TO.N,ADC1_02_AIN2N*%
X9779000Y2286000D02*
X10796725Y3303725D01*
X8775171Y2286000D02*
X9779000Y2286000D01*
X-9115551Y2208703D02*
X-10156671Y2208703D01*
X-8775171Y1868323D02*
X-9115551Y2208703D01*
X-8775171Y1501596D02*
X-8775171Y1868323D01*
X-10156671Y2208703D02*
X-10581021Y2633053D01*
%TO.N,ADC1_15_AVDD*%
X-7298675Y7306325D02*
X-7289609Y7315391D01*
%TO.N,ADC1_09_AIN6P*%
X-10282278Y3870404D02*
X-10282278Y4703722D01*
X-8765569Y7116655D02*
X-8765569Y7254301D01*
%TO.N,ADC1_15_AVDD*%
X-7584181Y5414948D02*
X-8160957Y5991724D01*
%TO.N,ADC1_16_SYNC{slash}RESET*%
X-7230627Y5768501D02*
X-7230627Y6493265D01*
X-7230627Y6493265D02*
X-7142067Y6581825D01*
%TO.N,ADC1_15_AVDD*%
X-8160957Y5991724D02*
X-8160957Y6444043D01*
X-8160957Y6444043D02*
X-7866567Y6738433D01*
%TO.N,ADC1_09_AIN6P*%
X-8461002Y7719987D02*
X-8196501Y7984488D01*
%TO.N,ADC1_15_AVDD*%
X-7866567Y6881923D02*
X-7442165Y7306325D01*
X-7442165Y7306325D02*
X-7298675Y7306325D01*
X-7289609Y7315391D02*
X-7289609Y7822011D01*
X-7289609Y7822011D02*
X-6847998Y8263622D01*
X-6847998Y8343611D02*
X-6103609Y9088000D01*
X-6103609Y9088000D02*
X-6096000Y9088000D01*
%TO.N,ADC1_12_AIN7P*%
X-9221617Y5636677D02*
X-8610458Y6247836D01*
%TO.N,ADC1_09_AIN6P*%
X-7366499Y9143501D02*
X-7366499Y9727364D01*
X-9705501Y3293627D02*
X-10282278Y3870404D01*
%TO.N,ADC1_12_AIN7P*%
X-3545782Y10959587D02*
X-3205046Y10959587D01*
X-8316068Y6930466D02*
X-8316068Y7068112D01*
%TO.N,ADC1_09_AIN6P*%
X-9059959Y6434025D02*
X-9059959Y6822265D01*
%TO.N,ADC1_12_AIN7P*%
X-5285173Y11173000D02*
X-3759195Y11173000D01*
X-6916499Y8957811D02*
X-6916499Y9541674D01*
%TO.N,ADC1_15_AVDD*%
X-7866567Y6738433D02*
X-7866567Y6881923D01*
%TO.N,ADC1_09_AIN6P*%
X-9059959Y6822265D02*
X-8765569Y7116655D01*
%TO.N,ADC1_12_AIN7P*%
X-8644841Y4354287D02*
X-9221617Y4931063D01*
%TO.N,ADC1_09_AIN6P*%
X-10282278Y4703722D02*
X-9671118Y5314882D01*
X-8765569Y7254301D02*
X-8461002Y7558868D01*
X-9671118Y5314882D02*
X-9671118Y5822866D01*
%TO.N,ADC1_12_AIN7P*%
X-8610458Y6247836D02*
X-8610458Y6636076D01*
%TO.N,ADC1_09_AIN6P*%
X-8196501Y7984488D02*
X-8196501Y8313499D01*
%TO.N,ADC1_15_AVDD*%
X-6847998Y8263622D02*
X-6847998Y8343611D01*
%TO.N,ADC1_09_AIN6P*%
X-9671118Y5822866D02*
X-9059959Y6434025D01*
%TO.N,ADC1_12_AIN7P*%
X-8610458Y6636076D02*
X-8316068Y6930466D01*
%TO.N,ADC1_09_AIN6P*%
X-8196501Y8313499D02*
X-7366499Y9143501D01*
X-8461002Y7558868D02*
X-8461002Y7719987D01*
X-7366499Y9727364D02*
X-5105697Y11988167D01*
X-5105697Y11988167D02*
X-3502112Y11988167D01*
%TO.N,ADC1_12_AIN7P*%
X-2567309Y11597324D02*
X-2567309Y11947227D01*
X-8316068Y7068112D02*
X-7747000Y7637180D01*
X-2367113Y12588020D02*
X-2867112Y13088019D01*
X-2367113Y12147423D02*
X-2367113Y12588020D01*
X-2567309Y11947227D02*
X-2367113Y12147423D01*
X-3759195Y11173000D02*
X-3545782Y10959587D01*
X-6916499Y9541674D02*
X-5285173Y11173000D01*
X-7747000Y8127310D02*
X-6916499Y8957811D01*
X-9221617Y4931063D02*
X-9221617Y5636677D01*
X-7747000Y7637180D02*
X-7747000Y8127310D01*
X-3205046Y10959587D02*
X-2567309Y11597324D01*
%TO.N,3V3_1_IN*%
X-4572000Y8448000D02*
X-4407721Y8448000D01*
X-15186142Y-8181858D02*
X-14688528Y-8679472D01*
X16192104Y-8255026D02*
X16679696Y-8255026D01*
X-16192104Y-8255026D02*
X-16118936Y-8181858D01*
X16118936Y-8181858D02*
X15186142Y-8181858D01*
X14688528Y-9346898D02*
X15242104Y-9900474D01*
X-16045800Y-10704170D02*
X-15242104Y-9900474D01*
X-2300000Y6340279D02*
X-3167720Y7207999D01*
X16192104Y-8255026D02*
X16118936Y-8181858D01*
X-2300000Y5994000D02*
X-2300000Y6340279D01*
X16679696Y-8255026D02*
X17786500Y-9361830D01*
X14688528Y-8679472D02*
X14688528Y-9346898D01*
X-4407721Y8448000D02*
X-3167720Y7207999D01*
X15186142Y-8181858D02*
X14688528Y-8679472D01*
X-16118936Y-8181858D02*
X-15186142Y-8181858D01*
X-14688528Y-9346898D02*
X-15242104Y-9900474D01*
X-14688528Y-8679472D02*
X-14688528Y-9346898D01*
X-14229526Y-9900474D02*
X-13843000Y-10287000D01*
X-15242104Y-9900474D02*
X-14229526Y-9900474D01*
X-17011500Y-10704170D02*
X-16045800Y-10704170D01*
%TO.N,ADC1_15_AVDD*%
X-2459827Y7874000D02*
X-2286000Y7874000D01*
X13037200Y-5932830D02*
X14221896Y-7117526D01*
X2150549Y348043D02*
X1523500Y975092D01*
X-6096000Y9088000D02*
X-5911000Y9273000D01*
X-1105149Y9054851D02*
X-291500Y9054851D01*
X2517276Y348043D02*
X2150549Y348043D01*
X6633545Y1597544D02*
X7397001Y2361000D01*
X896609Y4008000D02*
X889000Y4008000D01*
X-5911000Y9273000D02*
X-3858827Y9273000D01*
X861000Y4036000D02*
X889000Y4036000D01*
X11817500Y-5932830D02*
X13037200Y-5932830D01*
X-2286000Y7874000D02*
X-1105149Y9054851D01*
X1523500Y975092D02*
X1523500Y3381109D01*
X1523500Y3381109D02*
X896609Y4008000D01*
X-3858827Y9273000D02*
X-2459827Y7874000D01*
X3766777Y1597544D02*
X6633545Y1597544D01*
X3094052Y924819D02*
X3766777Y1597544D01*
X3094052Y924819D02*
X2517276Y348043D01*
%TO.N,ADC1_26_DVDD*%
X-2625190Y2208703D02*
X-1931445Y2902448D01*
X-3505155Y2208703D02*
X-2625190Y2208703D01*
X7407408Y7112000D02*
X8160957Y6358451D01*
X-3094052Y924819D02*
X-3670829Y1501596D01*
X-13271896Y-8762974D02*
X-12530304Y-8762974D01*
X-12530304Y-8762974D02*
X-11042500Y-7275170D01*
X-3670829Y1501596D02*
X-3670829Y2043029D01*
X-12380179Y-9654691D02*
X-12368202Y-9654691D01*
X-3670829Y2043029D02*
X-3505155Y2208703D01*
X8160957Y6358451D02*
X8160957Y5991724D01*
X7584181Y5414948D02*
X6962270Y4793037D01*
X6962270Y4793037D02*
X6962270Y4038067D01*
X-13271896Y-8762974D02*
X-12380179Y-9654691D01*
X8160957Y5991724D02*
X7584181Y5414948D01*
X6957000Y7112000D02*
X7407408Y7112000D01*
%TO.N,/ADC2/24_CAP*%
X4219000Y6764874D02*
X5215373Y5768501D01*
X4219000Y7112000D02*
X4219000Y6764874D01*
%TO.N,ADC1_14_REFIN*%
X-7360958Y4484618D02*
X-6994230Y4484618D01*
X-6300297Y6039094D02*
X-5108000Y7231391D01*
X2774882Y-101458D02*
X3447606Y571266D01*
X-4253068Y6384068D02*
X-3844068Y6384068D01*
X-6994230Y4484618D02*
X-6300297Y5178551D01*
X-7937734Y5061394D02*
X-7360958Y4484618D01*
X5925957Y1148043D02*
X6566000Y508000D01*
X3447606Y571266D02*
X4024383Y1148043D01*
X-6300297Y5178551D02*
X-6300297Y6039094D01*
X-5108000Y7231391D02*
X-5108000Y7239000D01*
X4024383Y1148043D02*
X5925957Y1148043D01*
X-5108000Y7239000D02*
X-4253068Y6384068D01*
X1964360Y-101458D02*
X2774882Y-101458D01*
%TO.N,/ADC1/24_CAP*%
X-2401376Y3632750D02*
X-1292250Y3632750D01*
X-1292250Y3632750D02*
X-889000Y4036000D01*
X-2740499Y3293627D02*
X-2401376Y3632750D01*
%TO.N,ACC_5_VDDIO*%
X-998788Y-10475876D02*
X-430851Y-9907939D01*
X6054411Y-4136411D02*
X6731000Y-4813000D01*
X2551948Y-10809404D02*
X2317539Y-11043813D01*
X-430851Y-9907939D02*
X-430851Y-9541211D01*
X480000Y-10994664D02*
X998788Y-10475876D01*
X-1905000Y254000D02*
X-1905000Y206088D01*
X-1905000Y206088D02*
X-998788Y-700124D01*
X-998788Y-700124D02*
X-998788Y-217714D01*
X5667088Y-3810000D02*
X4887876Y-4589212D01*
X6790082Y-8195918D02*
X7531000Y-7455000D01*
X6054411Y-3810000D02*
X6054411Y-4136411D01*
X-430851Y-9541211D02*
X-736730Y-9235332D01*
X-998788Y-217714D02*
X-1089502Y-127000D01*
X-736730Y-9235332D02*
X-736730Y-8674000D01*
X-4395152Y-8215386D02*
X-3827215Y-7647449D01*
X1566725Y-11043813D02*
X998788Y-10475876D01*
X-4761880Y-8215386D02*
X-4395152Y-8215386D01*
X6054411Y-3810000D02*
X5667088Y-3810000D01*
X7531000Y-5613000D02*
X7531000Y-7455000D01*
X6731000Y-4813000D02*
X7531000Y-5613000D01*
X480000Y-11049000D02*
X480000Y-10994664D01*
X2317539Y-11043813D02*
X1566725Y-11043813D01*
%TO.N,ADC2_01_AIN2P*%
X13232963Y-2326165D02*
X12768111Y-2326165D01*
X12768111Y-2326165D02*
X12133111Y-2961165D01*
%TO.N,ADC2_04_AIN3P*%
X11907317Y-4061017D02*
X9317565Y-1471265D01*
X12768111Y-4061017D02*
X13232963Y-4061017D01*
X9317565Y-455011D02*
X8644841Y217713D01*
X12768111Y-4061017D02*
X11907317Y-4061017D01*
X9317565Y-1471265D02*
X9317565Y-455011D01*
X13232963Y-4061017D02*
X13867963Y-3426017D01*
%TO.N,ADC2_05_AIN4P*%
X13403111Y-5160870D02*
X12030427Y-5160870D01*
X8868064Y-712618D02*
X8291287Y-135841D01*
X12030427Y-5160870D02*
X8868064Y-1998507D01*
X14502963Y-4525870D02*
X14038111Y-4525870D01*
X8868064Y-1998507D02*
X8868064Y-712618D01*
X14038111Y-4525870D02*
X13403111Y-5160870D01*
%TO.N,ADC2_08_AIN5P*%
X11167948Y-9027000D02*
X11167948Y-10297000D01*
X9017000Y-2982874D02*
X7230627Y-1196501D01*
X11167948Y-9008948D02*
X9017000Y-6858000D01*
X11167948Y-9027000D02*
X11167948Y-9008948D01*
X9017000Y-6858000D02*
X9017000Y-2982874D01*
%TO.N,ADC2_09_AIN6P*%
X9897948Y-9027000D02*
X8567499Y-7696551D01*
X8567499Y-4548627D02*
X5215373Y-1196501D01*
X9897948Y-10297000D02*
X9897948Y-9027000D01*
X8567499Y-7696551D02*
X8567499Y-4548627D01*
%TO.N,ADC2_12_AIN7P*%
X4625423Y-2126831D02*
X3577936Y-1079344D01*
X5297648Y-2126831D02*
X4625423Y-2126831D01*
X3577936Y-1079344D02*
X3577936Y-712618D01*
X8117998Y-4947181D02*
X5297648Y-2126831D01*
X8627948Y-9027000D02*
X8117998Y-8517050D01*
X8117998Y-8517050D02*
X8117998Y-4947181D01*
X3577936Y-712618D02*
X4154713Y-135841D01*
X8627948Y-9027000D02*
X8627948Y-10297000D01*
%TO.N,ADC2_17_CS*%
X3570269Y2463857D02*
X3570269Y2424987D01*
X2740499Y3293627D02*
X3570269Y2463857D01*
%TO.N,ADC2_29_AIN0P*%
X5275501Y11234499D02*
X5622000Y10888000D01*
X3333489Y13085375D02*
X3968489Y13720375D01*
X2868637Y13085375D02*
X2368638Y12585376D01*
X2368638Y11953794D02*
X3161910Y11160522D01*
X3919341Y11234499D02*
X5275501Y11234499D01*
X8610957Y5908451D02*
X9221617Y5297791D01*
X2868637Y13085375D02*
X3333489Y13085375D01*
X9221617Y4931063D02*
X8644841Y4354287D01*
X8610957Y6582906D02*
X8610957Y5908451D01*
X5622000Y9571863D02*
X8610957Y6582906D01*
X2368638Y12585376D02*
X2368638Y11953794D01*
X5622000Y10888000D02*
X5622000Y9571863D01*
X3161910Y11160522D02*
X3845364Y11160522D01*
X9221617Y5297791D02*
X9221617Y4931063D01*
X3845364Y11160522D02*
X3919341Y11234499D01*
%TO.N,ADC2_32_AIN1P*%
X9060458Y6769095D02*
X6071501Y9758052D01*
X6071501Y9758052D02*
X6071501Y11074895D01*
X10282278Y4703722D02*
X9671118Y5314882D01*
X10282278Y3870404D02*
X10282278Y4703722D01*
X3968489Y11985522D02*
X4603489Y12620522D01*
X9671118Y5823572D02*
X9060458Y6434232D01*
X5461897Y11684499D02*
X3804660Y11684499D01*
X9671118Y5314882D02*
X9671118Y5823572D01*
X3503637Y11985522D02*
X3968489Y11985522D01*
X9705501Y3293627D02*
X10282278Y3870404D01*
X9060458Y6434232D02*
X9060458Y6769095D01*
X3804660Y11684499D02*
X3503637Y11985522D01*
X6071501Y11074895D02*
X5461897Y11684499D01*
%TO.N,ADC1_01_AIN2P*%
X-11171000Y-9027000D02*
X-11171000Y-10297000D01*
%TO.N,ADC1_02_AIN2N*%
X7360957Y87383D02*
X7360957Y454109D01*
X4508266Y-489394D02*
X4508266Y-489395D01*
X-7360957Y87383D02*
X-7360957Y454109D01*
X-8421617Y1148043D02*
X-8998394Y571266D01*
X7584181Y-842947D02*
X7937734Y-489394D01*
X8054891Y1148043D02*
X8421617Y1148043D01*
X-8775171Y1501596D02*
X-8775171Y3070404D01*
X-7360957Y454109D02*
X-8054891Y1148043D01*
X4508266Y-489395D02*
X4861819Y-842948D01*
X2233637Y14185227D02*
X2698489Y14185227D01*
X4861819Y-842948D02*
X5438596Y-266171D01*
X-8054891Y1148043D02*
X-8421617Y1148043D01*
X8775171Y3070404D02*
X9351948Y3647181D01*
X-8775171Y3070404D02*
X-9351948Y3647181D01*
X8998394Y571266D02*
X8998395Y571266D01*
X8775171Y2286000D02*
X8775171Y3070404D01*
X-7007404Y-266171D02*
X-7584181Y-842948D01*
X2698489Y14185227D02*
X3333489Y14820227D01*
X7007404Y-266171D02*
X7584181Y-842948D01*
X8421617Y1148043D02*
X8998394Y571266D01*
X-9351948Y3647181D02*
X-9351947Y3647181D01*
X9351948Y3647181D02*
X9351947Y3647181D01*
X-4861819Y-842948D02*
X-5438596Y-266171D01*
X7584181Y-842948D02*
X7584181Y-842947D01*
X-7584181Y-842948D02*
X-7584181Y-842947D01*
X8775171Y1501596D02*
X8775171Y2286000D01*
X-4508266Y-489395D02*
X-4861819Y-842948D01*
X-5438596Y-266171D02*
X-7007404Y-266171D01*
X-8998394Y571266D02*
X-8998395Y571266D01*
X8998395Y571266D02*
X9351948Y924819D01*
X-4508266Y-489394D02*
X-4508266Y-489395D01*
X5438596Y-266171D02*
X7007404Y-266171D01*
X-8998395Y571266D02*
X-9351948Y924819D01*
X7360957Y454109D02*
X8054891Y1148043D01*
X9351947Y3647181D02*
X8998394Y4000734D01*
X-7584181Y-842947D02*
X-7937734Y-489394D01*
X-7937734Y-489394D02*
X-7360957Y87383D01*
X9351948Y924819D02*
X8775171Y1501596D01*
X-9351947Y3647181D02*
X-8998394Y4000734D01*
X-9351948Y924819D02*
X-8775171Y1501596D01*
X7937734Y-489394D02*
X7360957Y87383D01*
%TO.N,ADC1_04_AIN3P*%
X-13401586Y-5158225D02*
X-12528874Y-5158225D01*
X-14036586Y-4523225D02*
X-13401586Y-5158225D01*
X-14501438Y-4523225D02*
X-14036586Y-4523225D01*
X-8890000Y-1519351D02*
X-8890000Y-734554D01*
X-12528874Y-5158225D02*
X-8890000Y-1519351D01*
X-8890000Y-734554D02*
X-8291287Y-135841D01*
%TO.N,ADC1_05_AIN4P*%
X-12766586Y-4058373D02*
X-13231438Y-4058373D01*
X-12064712Y-4058373D02*
X-9340000Y-1333661D01*
X-9340000Y-1333661D02*
X-9340000Y-477446D01*
X-12766586Y-4058373D02*
X-12064712Y-4058373D01*
X-13231438Y-4058373D02*
X-13866438Y-3423373D01*
X-9340000Y-477446D02*
X-8644841Y217713D01*
%TO.N,ADC1_08_AIN5P*%
X-13231438Y-2323520D02*
X-12766586Y-2323520D01*
X-12131586Y-2958520D02*
X-10282278Y-1109212D01*
X-12766586Y-2323520D02*
X-12131586Y-2958520D01*
X-10282278Y-1109212D02*
X-10282278Y701596D01*
X-10282278Y701596D02*
X-9705501Y1278373D01*
%TO.N,ADC1_09_AIN6P*%
X-3502112Y11988167D02*
X-3966964Y11988167D01*
X-3966964Y11988167D02*
X-4601964Y12623167D01*
%TO.N,ADC1_12_AIN7P*%
X-3331964Y13088019D02*
X-3966964Y13723019D01*
X-2867112Y13088019D02*
X-3331964Y13088019D01*
%TO.N,ADC1_16_SYNC{slash}RESET*%
X1470000Y18230000D02*
X1470000Y19880000D01*
X645000Y17785000D02*
X1025000Y17785000D01*
X1025000Y17785000D02*
X1470000Y18230000D01*
X776000Y20574000D02*
X528000Y20574000D01*
X1470000Y19880000D02*
X776000Y20574000D01*
%TO.N,ADC1_18_DRDY*%
X-6001569Y4205899D02*
X-6001569Y3429000D01*
X-5401295Y4806173D02*
X-6001569Y4205899D01*
X-5401295Y4875472D02*
X-5401295Y4806173D01*
X-4861819Y5414948D02*
X-5401295Y4875472D01*
%TO.N,ADC1_19_SCLK*%
X-5277069Y3144017D02*
X-5384544Y3036542D01*
X-5277069Y4292591D02*
X-5277069Y3144017D01*
X-5384544Y3036542D02*
X-5384544Y2565576D01*
X-5384544Y2565576D02*
X-5659543Y2290577D01*
X-4508266Y5061394D02*
X-5277069Y4292591D01*
%TO.N,ADC1_23_XTAL1{slash}CLKIN*%
X3649502Y6107631D02*
X4169136Y6107631D01*
X4169136Y6107631D02*
X4861819Y5414948D01*
%TO.N,ADC1_29_AIN0P*%
X-8631000Y-9027000D02*
X-8631000Y-10297000D01*
%TO.N,ADC1_32_AIN1P*%
X-9901000Y-10297000D02*
X-9901000Y-9027000D01*
%TO.N,3V3_2_GND*%
X-12293353Y-6408683D02*
X-12293353Y-7429147D01*
X5997000Y7112000D02*
X5997000Y8561173D01*
X7239000Y3175000D02*
X6800032Y3175000D01*
X-77297Y-10190075D02*
X-77297Y-10646297D01*
X7686770Y3622770D02*
X7239000Y3175000D01*
X-17786500Y-8388500D02*
X-16891000Y-7493000D01*
X4572000Y10348000D02*
X3551522Y9327522D01*
X11350628Y-6967042D02*
X12383734Y-6967042D01*
X3551522Y9327522D02*
X2859120Y9327522D01*
X5375589Y-3131178D02*
X5375589Y-3394391D01*
X-17786500Y-9361830D02*
X-16001184Y-9361830D01*
X-2232112Y14187872D02*
X-2696964Y14187872D01*
X-6096000Y7267000D02*
X-6068000Y7239000D01*
X-4572000Y10348000D02*
X-4091500Y10348000D01*
X-2696964Y14187872D02*
X-3331964Y14822872D01*
X18650Y-9953412D02*
X18650Y-10094128D01*
X-7349811Y-8755647D02*
X-6790082Y-8195918D01*
X5997000Y7002128D02*
X5997000Y7112000D01*
X3127936Y-455510D02*
X3127936Y-1265740D01*
X-2905724Y-7433064D02*
X-953068Y-7433064D01*
X-3473662Y-8001002D02*
X-2905724Y-7433064D01*
X-953068Y-7433064D02*
X254000Y-8640132D01*
X-1352342Y-1053678D02*
X-1981198Y-424822D01*
X417677Y-9434677D02*
X254000Y-9271000D01*
X1352342Y-10122322D02*
X784405Y-9554385D01*
X3801159Y217713D02*
X3127936Y-455510D01*
X-17786500Y-9361830D02*
X-17786500Y-8388500D01*
X-77297Y-10646297D02*
X-480000Y-11049000D01*
X3127936Y-1265740D02*
X4993374Y-3131178D01*
X-6223000Y7239000D02*
X-6409554Y7425554D01*
X-7349811Y-10328589D02*
X-7349811Y-8755647D01*
X-11817500Y-5932830D02*
X-12293353Y-6408683D01*
X-1981198Y-424822D02*
X-2583822Y-424822D01*
X16920670Y-10795000D02*
X14351000Y-10795000D01*
X11042500Y-7275170D02*
X11350628Y-6967042D01*
X2300000Y5729000D02*
X1778000Y5207000D01*
X5997000Y7112000D02*
X5179000Y7112000D01*
X5997000Y8561173D02*
X5230651Y9327522D01*
X417677Y-9554385D02*
X417677Y-9434677D01*
X-16001184Y-9361830D02*
X-15717104Y-9077750D01*
X3931030Y-5134968D02*
X3931030Y-4838950D01*
X784405Y-9554385D02*
X417677Y-9554385D01*
X5878703Y-5510703D02*
X4306765Y-5510703D01*
X8291287Y4707841D02*
X7686770Y4103324D01*
X3931030Y-4838950D02*
X4534322Y-4235658D01*
X-4091500Y10348000D02*
X-4025500Y10414000D01*
X17011500Y-10704170D02*
X16920670Y-10795000D01*
X17011500Y-10372146D02*
X15717104Y-9077750D01*
X7686770Y4103324D02*
X7686770Y3622770D01*
X-6096000Y8128000D02*
X-6096000Y7267000D01*
X5375589Y-3394391D02*
X4534322Y-4235658D01*
X6731000Y-6363000D02*
X5878703Y-5510703D01*
X4306765Y-5510703D02*
X3931030Y-5134968D01*
X2300000Y5994000D02*
X2300000Y5729000D01*
X17011500Y-10704170D02*
X17011500Y-10372146D01*
X18650Y-10094128D02*
X-77297Y-10190075D01*
X-3158624Y-424822D02*
X-3801159Y217713D01*
X7230627Y5768501D02*
X5997000Y7002128D01*
X-2583822Y-424822D02*
X-3158624Y-424822D01*
X254000Y-8640132D02*
X254000Y-9271000D01*
X6223000Y3752032D02*
X6223000Y6886000D01*
X417677Y-9554385D02*
X18650Y-9953412D01*
X5230651Y9327522D02*
X2859120Y9327522D01*
X-6068000Y7239000D02*
X-6223000Y7239000D01*
X6223000Y6886000D02*
X5997000Y7112000D01*
X6800032Y3175000D02*
X6223000Y3752032D01*
X4993374Y-3131178D02*
X5375589Y-3131178D01*
%TO.N,3V3_5_OUT*%
X882501Y9540149D02*
X957501Y9465149D01*
X957501Y6951501D02*
X0Y5994000D01*
X957501Y9465149D02*
X957501Y6951501D01*
X882501Y9541138D02*
X882501Y9540149D01*
X0Y5994000D02*
X0Y5980069D01*
X0Y10423639D02*
X882501Y9541138D01*
X2454000Y8448000D02*
X0Y5994000D01*
X0Y12294000D02*
X0Y10423639D01*
X4572000Y8448000D02*
X2454000Y8448000D01*
%TO.N,MCU_7_NRST*%
X-4385918Y-10600082D02*
X-4385918Y-9772641D01*
X-6263660Y-10600082D02*
X-6670989Y-11007411D01*
X-4088500Y-9322946D02*
X-4088500Y-9475223D01*
X-4385918Y-10600082D02*
X-6263660Y-10600082D01*
X-4385918Y-9772641D02*
X-4088500Y-9475223D01*
X-3120109Y-8354555D02*
X-4088500Y-9322946D01*
%TO.N,MCU_44_BOOT0*%
X3951422Y-10600082D02*
X2413002Y-9061662D01*
X4385918Y-10600082D02*
X3951422Y-10600082D01*
X6322834Y-10600082D02*
X6751376Y-11028624D01*
X4385918Y-10600082D02*
X6322834Y-10600082D01*
%TO.N,ADC1_20_DOUT*%
X-4827069Y2958327D02*
X-4935043Y2850353D01*
X-4827069Y2142183D02*
X-4827069Y1777244D01*
X-4935043Y2850353D02*
X-4935043Y2250157D01*
X-4154713Y4707841D02*
X-4827069Y4035485D01*
X-4935043Y2250157D02*
X-4827069Y2142183D01*
X-4827069Y1777244D02*
X-4775698Y1725873D01*
X-4827069Y4035485D02*
X-4827069Y2958327D01*
%TO.N,ADC1_21_DIN*%
X-4377568Y2717280D02*
X-4210543Y2550255D01*
X-4377568Y3777878D02*
X-4377568Y2717280D01*
X-3801159Y4354287D02*
X-4377568Y3777878D01*
%TO.N,ADC2_19_SCLK*%
X4324499Y2947346D02*
X4568319Y2703526D01*
X4324499Y3123841D02*
X4324499Y2947346D01*
X3447606Y4000734D02*
X4324499Y3123841D01*
X4568319Y2703526D02*
X4568319Y2371116D01*
%TO.N,ADC2_20_DOUT*%
X3801159Y4354287D02*
X4627301Y3528145D01*
X4736143Y3528145D02*
X5016844Y3247444D01*
X4627301Y3528145D02*
X4736143Y3528145D01*
X5016844Y3247444D02*
X5048999Y3247444D01*
%TO.N,ADC2_21_DIN*%
X4154713Y4707841D02*
X4731490Y4131064D01*
X5489250Y4131064D02*
X5498500Y4140314D01*
X4731490Y4131064D02*
X5489250Y4131064D01*
%TO.N,MCU_5_PDO0_RCC_OSC_IN*%
X-2980940Y-10543103D02*
X-2803543Y-10720500D01*
X-2413002Y-9061662D02*
X-2980940Y-9629600D01*
X-2980940Y-9629600D02*
X-2980940Y-10543103D01*
%TO.N,MCU_18_PB0_ADC1_SYNC{slash}RESET*%
X-1450000Y19616000D02*
X-492000Y20574000D01*
X-625000Y17785000D02*
X-1450000Y18610000D01*
X-1450000Y18610000D02*
X-1450000Y19616000D01*
%TD*%
M02*
