%TF.GenerationSoftware,KiCad,Pcbnew,7.0.0-da2b9df05c~163~ubuntu22.04.1*%
%TF.CreationDate,2023-02-19T04:44:01+03:00*%
%TF.ProjectId,freeeeg16-alpha,66726565-6565-4673-9136-2d616c706861,rev?*%
%TF.SameCoordinates,Original*%
%TF.FileFunction,Paste,Bot*%
%TF.FilePolarity,Positive*%
%FSLAX46Y46*%
G04 Gerber Fmt 4.6, Leading zero omitted, Abs format (unit mm)*
G04 Created by KiCad (PCBNEW 7.0.0-da2b9df05c~163~ubuntu22.04.1) date 2023-02-19 04:44:01*
%MOMM*%
%LPD*%
G01*
G04 APERTURE LIST*
G04 Aperture macros list*
%AMRoundRect*
0 Rectangle with rounded corners*
0 $1 Rounding radius*
0 $2 $3 $4 $5 $6 $7 $8 $9 X,Y pos of 4 corners*
0 Add a 4 corners polygon primitive as box body*
4,1,4,$2,$3,$4,$5,$6,$7,$8,$9,$2,$3,0*
0 Add four circle primitives for the rounded corners*
1,1,$1+$1,$2,$3*
1,1,$1+$1,$4,$5*
1,1,$1+$1,$6,$7*
1,1,$1+$1,$8,$9*
0 Add four rect primitives between the rounded corners*
20,1,$1+$1,$2,$3,$4,$5,0*
20,1,$1+$1,$4,$5,$6,$7,0*
20,1,$1+$1,$6,$7,$8,$9,0*
20,1,$1+$1,$8,$9,$2,$3,0*%
%AMRotRect*
0 Rectangle, with rotation*
0 The origin of the aperture is its center*
0 $1 length*
0 $2 width*
0 $3 Rotation angle, in degrees counterclockwise*
0 Add horizontal line*
21,1,$1,$2,0,0,$3*%
G04 Aperture macros list end*
%ADD10RoundRect,0.140000X0.140000X0.170000X-0.140000X0.170000X-0.140000X-0.170000X0.140000X-0.170000X0*%
%ADD11RoundRect,0.135000X-0.135000X-0.185000X0.135000X-0.185000X0.135000X0.185000X-0.135000X0.185000X0*%
%ADD12RoundRect,0.140000X0.170000X-0.140000X0.170000X0.140000X-0.170000X0.140000X-0.170000X-0.140000X0*%
%ADD13RoundRect,0.135000X-0.185000X0.135000X-0.185000X-0.135000X0.185000X-0.135000X0.185000X0.135000X0*%
%ADD14RoundRect,0.225000X0.329006X-0.069856X0.104006X0.319856X-0.329006X0.069856X-0.104006X-0.319856X0*%
%ADD15RoundRect,0.140000X-0.219203X-0.021213X-0.021213X-0.219203X0.219203X0.021213X0.021213X0.219203X0*%
%ADD16RoundRect,0.225000X-0.104006X0.319856X-0.329006X-0.069856X0.104006X-0.319856X0.329006X0.069856X0*%
%ADD17RoundRect,0.140000X-0.170000X0.140000X-0.170000X-0.140000X0.170000X-0.140000X0.170000X0.140000X0*%
%ADD18RoundRect,0.075000X-0.415425X-0.521491X0.521491X0.415425X0.415425X0.521491X-0.521491X-0.415425X0*%
%ADD19RoundRect,0.075000X0.415425X-0.521491X0.521491X-0.415425X-0.415425X0.521491X-0.521491X0.415425X0*%
%ADD20RotRect,0.900000X1.700000X225.000000*%
%ADD21RoundRect,0.150000X-0.368838X-0.386154X0.518838X0.126346X0.368838X0.386154X-0.518838X-0.126346X0*%
%ADD22R,1.500000X2.000000*%
%ADD23R,3.800000X2.000000*%
%ADD24RoundRect,0.075000X0.530330X-0.424264X-0.424264X0.530330X-0.530330X0.424264X0.424264X-0.530330X0*%
%ADD25RoundRect,0.075000X0.530330X0.424264X0.424264X0.530330X-0.530330X-0.424264X-0.424264X-0.530330X0*%
%ADD26RoundRect,0.140000X-0.021213X0.219203X-0.219203X0.021213X0.021213X-0.219203X0.219203X-0.021213X0*%
%ADD27RoundRect,0.150000X0.518838X-0.126346X-0.368838X0.386154X-0.518838X0.126346X0.368838X-0.386154X0*%
%ADD28RoundRect,0.140000X-0.140000X-0.170000X0.140000X-0.170000X0.140000X0.170000X-0.140000X0.170000X0*%
%ADD29RoundRect,0.250000X0.475000X-0.250000X0.475000X0.250000X-0.475000X0.250000X-0.475000X-0.250000X0*%
%ADD30RoundRect,0.225000X-0.250000X0.225000X-0.250000X-0.225000X0.250000X-0.225000X0.250000X0.225000X0*%
%ADD31RoundRect,0.140000X0.219203X0.021213X0.021213X0.219203X-0.219203X-0.021213X-0.021213X-0.219203X0*%
%ADD32RoundRect,0.075000X0.424264X-0.530330X0.530330X-0.424264X-0.424264X0.530330X-0.530330X0.424264X0*%
%ADD33RoundRect,0.075000X-0.424264X-0.530330X0.530330X0.424264X0.424264X0.530330X-0.530330X-0.424264X0*%
%ADD34RotRect,0.900000X1.700000X315.000000*%
%ADD35RoundRect,0.135000X0.035355X-0.226274X0.226274X-0.035355X-0.035355X0.226274X-0.226274X0.035355X0*%
G04 APERTURE END LIST*
D10*
%TO.C,C38*%
X452000Y13970000D03*
X-508000Y13970000D03*
%TD*%
D11*
%TO.C,R4*%
X-510000Y15240000D03*
X510000Y15240000D03*
%TD*%
D12*
%TO.C,C36*%
X-6985000Y-6576000D03*
X-6985000Y-5616000D03*
%TD*%
D13*
%TO.C,R6*%
X-6985000Y-3808000D03*
X-6985000Y-4828000D03*
%TD*%
D10*
%TO.C,C22*%
X-5108000Y7239000D03*
X-6068000Y7239000D03*
%TD*%
D14*
%TO.C,C3*%
X-17011500Y-10704170D03*
X-17786500Y-9361830D03*
%TD*%
D15*
%TO.C,C20*%
X-7349811Y-10328589D03*
X-6670989Y-11007411D03*
%TD*%
D10*
%TO.C,C35*%
X480000Y-11049000D03*
X-480000Y-11049000D03*
%TD*%
D16*
%TO.C,C2*%
X11817500Y-5932830D03*
X11042500Y-7275170D03*
%TD*%
%TO.C,C1*%
X17786500Y-9361830D03*
X17011500Y-10704170D03*
%TD*%
D17*
%TO.C,C5*%
X889000Y4008000D03*
X889000Y3048000D03*
%TD*%
%TO.C,C11*%
X-6096000Y9088000D03*
X-6096000Y8128000D03*
%TD*%
D18*
%TO.C,U6*%
X-998788Y-10475876D03*
X-1352342Y-10122322D03*
X-1705895Y-9768769D03*
X-2059449Y-9415215D03*
X-2413002Y-9061662D03*
X-2766555Y-8708109D03*
X-3120109Y-8354555D03*
X-3473662Y-8001002D03*
X-3827215Y-7647449D03*
X-4180769Y-7293895D03*
X-4534322Y-6940342D03*
X-4887876Y-6586788D03*
D19*
X-4887876Y-4589212D03*
X-4534322Y-4235658D03*
X-4180769Y-3882105D03*
X-3827215Y-3528551D03*
X-3473662Y-3174998D03*
X-3120109Y-2821445D03*
X-2766555Y-2467891D03*
X-2413002Y-2114338D03*
X-2059449Y-1760785D03*
X-1705895Y-1407231D03*
X-1352342Y-1053678D03*
X-998788Y-700124D03*
D18*
X998788Y-700124D03*
X1352342Y-1053678D03*
X1705895Y-1407231D03*
X2059449Y-1760785D03*
X2413002Y-2114338D03*
X2766555Y-2467891D03*
X3120109Y-2821445D03*
X3473662Y-3174998D03*
X3827215Y-3528551D03*
X4180769Y-3882105D03*
X4534322Y-4235658D03*
X4887876Y-4589212D03*
D19*
X4887876Y-6586788D03*
X4534322Y-6940342D03*
X4180769Y-7293895D03*
X3827215Y-7647449D03*
X3473662Y-8001002D03*
X3120109Y-8354555D03*
X2766555Y-8708109D03*
X2413002Y-9061662D03*
X2059449Y-9415215D03*
X1705895Y-9768769D03*
X1352342Y-10122322D03*
X998788Y-10475876D03*
%TD*%
D20*
%TO.C,SW1*%
X6790081Y-8195917D03*
X4385917Y-10600081D03*
%TD*%
D12*
%TO.C,C21*%
X889000Y790000D03*
X889000Y1750000D03*
%TD*%
D21*
%TO.C,U4*%
X-15242104Y-9900474D03*
X-15717104Y-9077750D03*
X-16192104Y-8255026D03*
X-14221896Y-7117526D03*
X-13271896Y-8762974D03*
%TD*%
D22*
%TO.C,U10*%
X2299999Y5993999D03*
X0Y5993999D03*
D23*
X0Y12293999D03*
D22*
X-2299999Y5993999D03*
%TD*%
D17*
%TO.C,C12*%
X-889000Y4036000D03*
X-889000Y3076000D03*
%TD*%
D24*
%TO.C,U3*%
X9705501Y1278373D03*
X9351948Y924819D03*
X8998394Y571266D03*
X8644841Y217713D03*
X8291287Y-135841D03*
X7937734Y-489394D03*
X7584181Y-842948D03*
X7230627Y-1196501D03*
D25*
X5215373Y-1196501D03*
X4861819Y-842948D03*
X4508266Y-489394D03*
X4154713Y-135841D03*
X3801159Y217713D03*
X3447606Y571266D03*
X3094052Y924819D03*
X2740499Y1278373D03*
D24*
X2740499Y3293627D03*
X3094052Y3647181D03*
X3447606Y4000734D03*
X3801159Y4354287D03*
X4154713Y4707841D03*
X4508266Y5061394D03*
X4861819Y5414948D03*
X5215373Y5768501D03*
D25*
X7230627Y5768501D03*
X7584181Y5414948D03*
X7937734Y5061394D03*
X8291287Y4707841D03*
X8644841Y4354287D03*
X8998394Y4000734D03*
X9351948Y3647181D03*
X9705501Y3293627D03*
%TD*%
D26*
%TO.C,C33*%
X-1905000Y254000D03*
X-2583822Y-424822D03*
%TD*%
D14*
%TO.C,C4*%
X-11042500Y-7275170D03*
X-11817500Y-5932830D03*
%TD*%
D27*
%TO.C,U7*%
X16192104Y-8255026D03*
X15717104Y-9077750D03*
X15242104Y-9900474D03*
X13271896Y-8762974D03*
X14221896Y-7117526D03*
%TD*%
D28*
%TO.C,C6*%
X4219000Y7112000D03*
X5179000Y7112000D03*
%TD*%
D29*
%TO.C,C16*%
X-4572000Y8448000D03*
X-4572000Y10348000D03*
%TD*%
D17*
%TO.C,C13*%
X-889000Y1750000D03*
X-889000Y790000D03*
%TD*%
D30*
%TO.C,C32*%
X6731000Y-4813000D03*
X6731000Y-6363000D03*
%TD*%
D31*
%TO.C,C34*%
X6054411Y-3810000D03*
X5375589Y-3131178D03*
%TD*%
D32*
%TO.C,U8*%
X-5215373Y-1196501D03*
X-4861819Y-842948D03*
X-4508266Y-489394D03*
X-4154713Y-135841D03*
X-3801159Y217713D03*
X-3447606Y571266D03*
X-3094052Y924819D03*
X-2740499Y1278373D03*
D33*
X-2740499Y3293627D03*
X-3094052Y3647181D03*
X-3447606Y4000734D03*
X-3801159Y4354287D03*
X-4154713Y4707841D03*
X-4508266Y5061394D03*
X-4861819Y5414948D03*
X-5215373Y5768501D03*
D32*
X-7230627Y5768501D03*
X-7584181Y5414948D03*
X-7937734Y5061394D03*
X-8291287Y4707841D03*
X-8644841Y4354287D03*
X-8998394Y4000734D03*
X-9351948Y3647181D03*
X-9705501Y3293627D03*
D33*
X-9705501Y1278373D03*
X-9351948Y924819D03*
X-8998394Y571266D03*
X-8644841Y217713D03*
X-8291287Y-135841D03*
X-7937734Y-489394D03*
X-7584181Y-842948D03*
X-7230627Y-1196501D03*
%TD*%
D34*
%TO.C,SW2*%
X-6790081Y-8195917D03*
X-4385917Y-10600081D03*
%TD*%
D10*
%TO.C,C7*%
X6957000Y7112000D03*
X5997000Y7112000D03*
%TD*%
D35*
%TO.C,R5*%
X6751376Y-11028624D03*
X7472624Y-10307376D03*
%TD*%
D11*
%TO.C,R2*%
X-492000Y20574000D03*
X528000Y20574000D03*
%TD*%
D29*
%TO.C,C17*%
X4572000Y8448000D03*
X4572000Y10348000D03*
%TD*%
M02*
