%TF.GenerationSoftware,KiCad,Pcbnew,7.0.0-da2b9df05c~163~ubuntu22.04.1*%
%TF.CreationDate,2023-02-23T13:52:18+03:00*%
%TF.ProjectId,freeeeg16-alpha,66726565-6565-4673-9136-2d616c706861,rev?*%
%TF.SameCoordinates,Original*%
%TF.FileFunction,Copper,L1,Top*%
%TF.FilePolarity,Positive*%
%FSLAX46Y46*%
G04 Gerber Fmt 4.6, Leading zero omitted, Abs format (unit mm)*
G04 Created by KiCad (PCBNEW 7.0.0-da2b9df05c~163~ubuntu22.04.1) date 2023-02-23 13:52:18*
%MOMM*%
%LPD*%
G01*
G04 APERTURE LIST*
G04 Aperture macros list*
%AMRoundRect*
0 Rectangle with rounded corners*
0 $1 Rounding radius*
0 $2 $3 $4 $5 $6 $7 $8 $9 X,Y pos of 4 corners*
0 Add a 4 corners polygon primitive as box body*
4,1,4,$2,$3,$4,$5,$6,$7,$8,$9,$2,$3,0*
0 Add four circle primitives for the rounded corners*
1,1,$1+$1,$2,$3*
1,1,$1+$1,$4,$5*
1,1,$1+$1,$6,$7*
1,1,$1+$1,$8,$9*
0 Add four rect primitives between the rounded corners*
20,1,$1+$1,$2,$3,$4,$5,0*
20,1,$1+$1,$4,$5,$6,$7,0*
20,1,$1+$1,$6,$7,$8,$9,0*
20,1,$1+$1,$8,$9,$2,$3,0*%
%AMHorizOval*
0 Thick line with rounded ends*
0 $1 width*
0 $2 $3 position (X,Y) of the first rounded end (center of the circle)*
0 $4 $5 position (X,Y) of the second rounded end (center of the circle)*
0 Add line between two ends*
20,1,$1,$2,$3,$4,$5,0*
0 Add two circle primitives to create the rounded ends*
1,1,$1,$2,$3*
1,1,$1,$4,$5*%
%AMRotRect*
0 Rectangle, with rotation*
0 The origin of the aperture is its center*
0 $1 length*
0 $2 width*
0 $3 Rotation angle, in degrees counterclockwise*
0 Add horizontal line*
21,1,$1,$2,0,0,$3*%
G04 Aperture macros list end*
%TA.AperFunction,SMDPad,CuDef*%
%ADD10RoundRect,0.225000X-0.329006X0.069856X-0.104006X-0.319856X0.329006X-0.069856X0.104006X0.319856X0*%
%TD*%
%TA.AperFunction,SMDPad,CuDef*%
%ADD11RotRect,1.560000X0.650000X150.000000*%
%TD*%
%TA.AperFunction,SMDPad,CuDef*%
%ADD12RoundRect,0.225000X0.104006X-0.319856X0.329006X0.069856X-0.104006X0.319856X-0.329006X-0.069856X0*%
%TD*%
%TA.AperFunction,SMDPad,CuDef*%
%ADD13RoundRect,0.140000X0.170000X-0.140000X0.170000X0.140000X-0.170000X0.140000X-0.170000X-0.140000X0*%
%TD*%
%TA.AperFunction,SMDPad,CuDef*%
%ADD14RoundRect,0.140000X-0.077224X0.206244X-0.217224X-0.036244X0.077224X-0.206244X0.217224X0.036244X0*%
%TD*%
%TA.AperFunction,ComponentPad*%
%ADD15R,1.000000X1.000000*%
%TD*%
%TA.AperFunction,ComponentPad*%
%ADD16O,1.000000X1.000000*%
%TD*%
%TA.AperFunction,SMDPad,CuDef*%
%ADD17RoundRect,0.135000X0.135000X0.185000X-0.135000X0.185000X-0.135000X-0.185000X0.135000X-0.185000X0*%
%TD*%
%TA.AperFunction,SMDPad,CuDef*%
%ADD18RoundRect,0.150000X-0.368838X-0.386154X0.518838X0.126346X0.368838X0.386154X-0.518838X-0.126346X0*%
%TD*%
%TA.AperFunction,SMDPad,CuDef*%
%ADD19RoundRect,0.225000X-0.225000X-0.250000X0.225000X-0.250000X0.225000X0.250000X-0.225000X0.250000X0*%
%TD*%
%TA.AperFunction,SMDPad,CuDef*%
%ADD20RoundRect,0.140000X0.077224X-0.206244X0.217224X0.036244X-0.077224X0.206244X-0.217224X-0.036244X0*%
%TD*%
%TA.AperFunction,SMDPad,CuDef*%
%ADD21RoundRect,0.200000X-0.200000X-0.450000X0.200000X-0.450000X0.200000X0.450000X-0.200000X0.450000X0*%
%TD*%
%TA.AperFunction,SMDPad,CuDef*%
%ADD22RoundRect,0.241072X-0.771428X-1.258928X0.771428X-1.258928X0.771428X1.258928X-0.771428X1.258928X0*%
%TD*%
%TA.AperFunction,SMDPad,CuDef*%
%ADD23RoundRect,0.200000X0.200000X0.450000X-0.200000X0.450000X-0.200000X-0.450000X0.200000X-0.450000X0*%
%TD*%
%TA.AperFunction,SMDPad,CuDef*%
%ADD24RoundRect,0.250001X0.799999X1.249999X-0.799999X1.249999X-0.799999X-1.249999X0.799999X-1.249999X0*%
%TD*%
%TA.AperFunction,ComponentPad*%
%ADD25RotRect,1.000000X1.000000X210.000000*%
%TD*%
%TA.AperFunction,ComponentPad*%
%ADD26HorizOval,1.000000X0.000000X0.000000X0.000000X0.000000X0*%
%TD*%
%TA.AperFunction,SMDPad,CuDef*%
%ADD27RoundRect,0.135000X-0.135000X-0.185000X0.135000X-0.185000X0.135000X0.185000X-0.135000X0.185000X0*%
%TD*%
%TA.AperFunction,SMDPad,CuDef*%
%ADD28R,0.875000X1.625000*%
%TD*%
%TA.AperFunction,SMDPad,CuDef*%
%ADD29R,1.500000X0.900000*%
%TD*%
%TA.AperFunction,SMDPad,CuDef*%
%ADD30R,0.700000X0.700000*%
%TD*%
%TA.AperFunction,ComponentPad*%
%ADD31RotRect,1.000000X1.000000X150.000000*%
%TD*%
%TA.AperFunction,ComponentPad*%
%ADD32HorizOval,1.000000X0.000000X0.000000X0.000000X0.000000X0*%
%TD*%
%TA.AperFunction,ComponentPad*%
%ADD33RotRect,1.000000X1.000000X330.000000*%
%TD*%
%TA.AperFunction,ComponentPad*%
%ADD34HorizOval,1.000000X0.000000X0.000000X0.000000X0.000000X0*%
%TD*%
%TA.AperFunction,ViaPad*%
%ADD35C,0.800000*%
%TD*%
%TA.AperFunction,Conductor*%
%ADD36C,0.250000*%
%TD*%
%TA.AperFunction,Conductor*%
%ADD37C,0.750000*%
%TD*%
%TA.AperFunction,Conductor*%
%ADD38C,0.500000*%
%TD*%
G04 APERTURE END LIST*
D10*
%TO.P,C14,1*%
%TO.N,3V3_1_IN*%
X-17786500Y-9361830D03*
%TO.P,C14,2*%
%TO.N,3V3_2_GND*%
X-17011500Y-10704170D03*
%TD*%
%TO.P,C15,1*%
%TO.N,ACC_5_VDDIO*%
X-11817500Y-5932830D03*
%TO.P,C15,2*%
%TO.N,3V3_2_GND*%
X-11042500Y-7275170D03*
%TD*%
D11*
%TO.P,U13,1,GND*%
%TO.N,3V3_2_GND*%
X15426133Y-10006723D03*
%TO.P,U13,2,GND*%
X15901133Y-9183999D03*
%TO.P,U13,3,EN*%
%TO.N,ADC1_15_AVDD*%
X16376133Y-8361275D03*
%TO.P,U13,4,VIN*%
X14037865Y-7011275D03*
%TO.P,U13,5,NR*%
%TO.N,/vref1/5_NR*%
X13562865Y-7833999D03*
%TO.P,U13,6,VREF*%
%TO.N,ADC1_14_REFIN*%
X13087865Y-8656723D03*
%TD*%
D12*
%TO.P,C29,1*%
%TO.N,ADC1_14_REFIN*%
X11042500Y-7275170D03*
%TO.P,C29,2*%
%TO.N,3V3_2_GND*%
X11817500Y-5932830D03*
%TD*%
D13*
%TO.P,C39,1*%
%TO.N,3V3_2_GND*%
X-10210800Y-1902400D03*
%TO.P,C39,2*%
%TO.N,RADIO_2_EN*%
X-10210800Y-942400D03*
%TD*%
D14*
%TO.P,C26,1*%
%TO.N,ADC1_15_AVDD*%
X18553400Y-10150708D03*
%TO.P,C26,2*%
%TO.N,3V3_2_GND*%
X18073400Y-10982092D03*
%TD*%
%TO.P,C38,1*%
%TO.N,3V3_5_OUT*%
X-10123200Y4428892D03*
%TO.P,C38,2*%
%TO.N,3V3_2_GND*%
X-10603200Y3597508D03*
%TD*%
D15*
%TO.P,J1,1,Pin_1*%
%TO.N,ACC_5_VDDIO*%
X-624999Y19054999D03*
D16*
%TO.P,J1,2,Pin_2*%
%TO.N,CRYSTAL_4_Vin*%
X644999Y19054999D03*
%TO.P,J1,3,Pin_3*%
%TO.N,MCU_18_PB0_ADC1_SYNC{slash}RESET*%
X-624999Y17784999D03*
%TO.P,J1,4,Pin_4*%
%TO.N,ADC1_16_SYNC{slash}RESET*%
X644999Y17784999D03*
%TO.P,J1,5,Pin_5*%
%TO.N,CRYSTAL_3_OUT*%
X-624999Y16514999D03*
%TO.P,J1,6,Pin_6*%
%TO.N,MCU_5_PDO0_RCC_OSC_IN*%
X644999Y16514999D03*
%TD*%
D17*
%TO.P,R9,1*%
%TO.N,RADIO_16_GPIO2*%
X8003000Y8001000D03*
%TO.P,R9,2*%
%TO.N,3V3_5_OUT*%
X6983000Y8001000D03*
%TD*%
D18*
%TO.P,U5,1,IN*%
%TO.N,3V3_1_IN*%
X-16192104Y-8255026D03*
%TO.P,U5,2,GND*%
%TO.N,3V3_2_GND*%
X-15717104Y-9077750D03*
%TO.P,U5,3,EN*%
%TO.N,3V3_1_IN*%
X-15242104Y-9900474D03*
%TO.P,U5,4,N/C*%
%TO.N,unconnected-(U5-N{slash}C-Pad4)*%
X-13271896Y-8762974D03*
%TO.P,U5,5,OUT*%
%TO.N,ACC_5_VDDIO*%
X-14221896Y-7117526D03*
%TD*%
D19*
%TO.P,C37,1*%
%TO.N,3V3_5_OUT*%
X-7887000Y8001000D03*
%TO.P,C37,2*%
%TO.N,3V3_2_GND*%
X-6337000Y8001000D03*
%TD*%
D17*
%TO.P,R7,1*%
%TO.N,RADIO_7_GPIO8*%
X-10033000Y-3175000D03*
%TO.P,R7,2*%
%TO.N,3V3_5_OUT*%
X-11053000Y-3175000D03*
%TD*%
D20*
%TO.P,C28,1*%
%TO.N,ADC1_14_REFIN*%
X10326400Y-6486292D03*
%TO.P,C28,2*%
%TO.N,3V3_2_GND*%
X10806400Y-5654908D03*
%TD*%
D21*
%TO.P,J5,1,Pin_1*%
%TO.N,3V3_2_GND*%
X-4375000Y-7471000D03*
%TO.P,J5,2,Pin_2*%
%TO.N,RADIO_14_GPIO19{slash}USB_D+*%
X-3125000Y-7471000D03*
%TO.P,J5,3,Pin_3*%
%TO.N,RADIO_13_GPIO18{slash}USB_D-*%
X-1875000Y-7471000D03*
%TO.P,J5,4,Pin_4*%
%TO.N,MCU_7_NRST*%
X-625000Y-7471000D03*
%TO.P,J5,5,Pin_5*%
%TO.N,MCU_34_PA13_SYS_JTMS-SWDIO*%
X625000Y-7471000D03*
%TO.P,J5,6,Pin_6*%
%TO.N,MCU_39_PB3_SYS_JTDO-TRACESWO*%
X1875000Y-7471000D03*
%TO.P,J5,7,Pin_7*%
%TO.N,MCU_38_PA15_SYS_JTDI*%
X3125000Y-7471000D03*
%TO.P,J5,8,Pin_8*%
%TO.N,MCU_37_PA14_SYS_JTCK-SWCLK*%
X4375000Y-7471000D03*
D22*
%TO.P,J5,MP*%
%TO.N,N/C*%
X-6887500Y-10221000D03*
X6887500Y-10221000D03*
%TD*%
D23*
%TO.P,J6,1,Pin_1*%
%TO.N,3V3_2_GND*%
X3125000Y7471000D03*
%TO.P,J6,2,Pin_2*%
%TO.N,ADC1_02_AIN2N*%
X1875000Y7471000D03*
%TO.P,J6,3,Pin_3*%
%TO.N,ADC1_16_SYNC{slash}RESET*%
X625000Y7471000D03*
%TO.P,J6,4,Pin_4*%
%TO.N,ADC1_14_REFIN*%
X-625000Y7471000D03*
%TO.P,J6,5,Pin_5*%
%TO.N,MCU_5_PDO0_RCC_OSC_IN*%
X-1875000Y7471000D03*
%TO.P,J6,6,Pin_6*%
%TO.N,3V3_1_IN*%
X-3125000Y7471000D03*
D24*
%TO.P,J6,MP*%
%TO.N,N/C*%
X5675000Y10221000D03*
X-5675000Y10221000D03*
%TD*%
D25*
%TO.P,J3,1,Pin_1*%
%TO.N,ADC1_02_AIN2N*%
X12344399Y-1099851D03*
D26*
%TO.P,J3,2,Pin_2*%
%TO.N,/J17*%
X11709399Y0D03*
%TO.P,J3,3,Pin_3*%
%TO.N,ADC1_09_AIN6P*%
X11074399Y1099852D03*
%TD*%
D14*
%TO.P,C27,1*%
%TO.N,ADC1_15_AVDD*%
X17639000Y-9617308D03*
%TO.P,C27,2*%
%TO.N,3V3_2_GND*%
X17159000Y-10448692D03*
%TD*%
D27*
%TO.P,R1,1*%
%TO.N,ACC_5_VDDIO*%
X-492000Y20574000D03*
%TO.P,R1,2*%
%TO.N,CRYSTAL_4_Vin*%
X528000Y20574000D03*
%TD*%
D28*
%TO.P,U2,1,NC*%
%TO.N,/CRYSTAL/1_NC*%
X-787499Y14976499D03*
%TO.P,U2,2,GND*%
%TO.N,3V3_2_GND*%
X-787499Y12201499D03*
%TO.P,U2,3,OUT*%
%TO.N,CRYSTAL_3_OUT*%
X787499Y12201499D03*
%TO.P,U2,4,Vin*%
%TO.N,CRYSTAL_4_Vin*%
X787499Y14976499D03*
%TD*%
D29*
%TO.P,U9,1,3V3*%
%TO.N,3V3_5_OUT*%
X-8749999Y5749999D03*
%TO.P,U9,2,EN/CHIP_PU*%
%TO.N,RADIO_2_EN*%
X-8749999Y4249999D03*
%TO.P,U9,3,GPIO4/ADC1_CH4*%
%TO.N,/RADIO/3_GPIO4*%
X-8749999Y2749999D03*
%TO.P,U9,4,GPIO5/ADC2_CH0*%
%TO.N,/RADIO/4_GPIO5*%
X-8749999Y1249999D03*
%TO.P,U9,5,GPIO6*%
%TO.N,MCU_13_PA3_USART2_RX*%
X-8749999Y-249999D03*
%TO.P,U9,6,GPIO7*%
%TO.N,MCU_12_PA2_USART2_TX*%
X-8749999Y-1749999D03*
%TO.P,U9,7,GPIO8*%
%TO.N,RADIO_7_GPIO8*%
X-8749999Y-3249999D03*
%TO.P,U9,8,GPIO9*%
%TO.N,RADIO_8_GPIO9*%
X-8749999Y-4749999D03*
%TO.P,U9,9,GND*%
%TO.N,3V3_2_GND*%
X-8749999Y-6249999D03*
%TO.P,U9,10,GPIO10*%
%TO.N,ACC_13_SCL*%
X8749999Y-6249999D03*
%TO.P,U9,11,GPIO20/U0RXD*%
%TO.N,/RADIO/11_GPIO20*%
X8749999Y-4749999D03*
%TO.P,U9,12,GPIO21/U0TXD*%
%TO.N,/RADIO/12_GPIO21*%
X8749999Y-3249999D03*
%TO.P,U9,13,GPIO18/USB_D-*%
%TO.N,RADIO_13_GPIO18{slash}USB_D-*%
X8749999Y-1749999D03*
%TO.P,U9,14,GPIO19/USB_D+*%
%TO.N,RADIO_14_GPIO19{slash}USB_D+*%
X8749999Y-249999D03*
%TO.P,U9,15,GPIO3/ADC1_CH3*%
%TO.N,ACC_14_SDA*%
X8749999Y1249999D03*
%TO.P,U9,16,GPIO2/ADC1_CH2*%
%TO.N,RADIO_16_GPIO2*%
X8749999Y2749999D03*
%TO.P,U9,17,GPIO1/ADC1_CH1/XTAL_32K_N*%
%TO.N,/RADIO/17_GPIO1*%
X8749999Y4249999D03*
%TO.P,U9,18,GPIO0/ADC1_CH0/XTAL_32K_P*%
%TO.N,/RADIO/18_GPIO0*%
X8749999Y5749999D03*
D30*
%TO.P,U9,19,GND*%
%TO.N,3V3_2_GND*%
X-139999Y649999D03*
X-139999Y-449999D03*
X-139999Y-1549999D03*
X909999Y649999D03*
X909999Y-449999D03*
X909999Y-1549999D03*
X2059999Y649999D03*
X2059999Y-449999D03*
X2059999Y-1549999D03*
%TD*%
D31*
%TO.P,J2,1,Pin_1*%
%TO.N,3V3_2_GND*%
X-12346899Y-1104182D03*
D32*
%TO.P,J2,2,Pin_2*%
%TO.N,/J18*%
X-11711899Y-4330D03*
%TO.P,J2,3,Pin_3*%
%TO.N,ADC1_09_AIN6P*%
X-11076899Y1095521D03*
%TD*%
D15*
%TO.P,J29,1,Pin_1*%
%TO.N,ADC2_08_AIN5P*%
X11167947Y-9026999D03*
D16*
%TO.P,J29,2,Pin_2*%
X11167947Y-10296999D03*
%TO.P,J29,3,Pin_3*%
%TO.N,ADC2_09_AIN6P*%
X9897947Y-9026999D03*
%TO.P,J29,4,Pin_4*%
X9897947Y-10296999D03*
%TO.P,J29,5,Pin_5*%
%TO.N,ADC2_12_AIN7P*%
X8627947Y-9026999D03*
%TO.P,J29,6,Pin_6*%
X8627947Y-10296999D03*
%TD*%
D15*
%TO.P,J28,1,Pin_1*%
%TO.N,ADC1_29_AIN0P*%
X-8630999Y-9026999D03*
D16*
%TO.P,J28,2,Pin_2*%
X-8630999Y-10296999D03*
%TO.P,J28,3,Pin_3*%
%TO.N,/J18*%
X-9900999Y-9026999D03*
%TO.P,J28,4,Pin_4*%
X-9900999Y-10296999D03*
%TO.P,J28,5,Pin_5*%
%TO.N,ADC1_32_AIN1P*%
X-11170999Y-9026999D03*
%TO.P,J28,6,Pin_6*%
X-11170999Y-10296999D03*
%TD*%
D25*
%TO.P,J31,1,Pin_1*%
%TO.N,ADC2_04_AIN3P*%
X12133110Y-2961164D03*
D26*
%TO.P,J31,2,Pin_2*%
X13232962Y-2326164D03*
%TO.P,J31,3,Pin_3*%
%TO.N,/J17*%
X12768110Y-4061016D03*
%TO.P,J31,4,Pin_4*%
X13867962Y-3426016D03*
%TO.P,J31,5,Pin_5*%
%TO.N,ADC2_05_AIN4P*%
X13403110Y-5160869D03*
%TO.P,J31,6,Pin_6*%
X14502962Y-4525869D03*
%TD*%
D33*
%TO.P,J32,1,Pin_1*%
%TO.N,ADC1_08_AIN5P*%
X-3502111Y11988166D03*
D34*
%TO.P,J32,2,Pin_2*%
X-4601963Y12623166D03*
%TO.P,J32,3,Pin_3*%
%TO.N,ADC1_09_AIN6P*%
X-2867111Y13088018D03*
%TO.P,J32,4,Pin_4*%
X-3966963Y13723018D03*
%TO.P,J32,5,Pin_5*%
%TO.N,ADC1_12_AIN7P*%
X-2232111Y14187871D03*
%TO.P,J32,6,Pin_6*%
X-3331963Y14822871D03*
%TD*%
D25*
%TO.P,J33,1,Pin_1*%
%TO.N,ADC2_29_AIN0P*%
X2233636Y14185226D03*
D26*
%TO.P,J33,2,Pin_2*%
X3333488Y14820226D03*
%TO.P,J33,3,Pin_3*%
%TO.N,ADC2_32_AIN1P*%
X2868636Y13085374D03*
%TO.P,J33,4,Pin_4*%
X3968488Y13720374D03*
%TO.P,J33,5,Pin_5*%
%TO.N,ADC2_01_AIN2P*%
X3503636Y11985521D03*
%TO.P,J33,6,Pin_6*%
X4603488Y12620521D03*
%TD*%
D33*
%TO.P,J30,1,Pin_1*%
%TO.N,ADC1_01_AIN2P*%
X-13401585Y-5158224D03*
D34*
%TO.P,J30,2,Pin_2*%
X-14501437Y-4523224D03*
%TO.P,J30,3,Pin_3*%
%TO.N,ADC1_04_AIN3P*%
X-12766585Y-4058372D03*
%TO.P,J30,4,Pin_4*%
X-13866437Y-3423372D03*
%TO.P,J30,5,Pin_5*%
%TO.N,ADC1_05_AIN4P*%
X-12131585Y-2958519D03*
%TO.P,J30,6,Pin_6*%
X-13231437Y-2323519D03*
%TD*%
D35*
%TO.N,3V3_5_OUT*%
X952855Y4940900D03*
%TO.N,3V3_2_GND*%
X-10577904Y-5682256D03*
%TO.N,3V3_1_IN*%
X-3167720Y7207999D03*
X-13987908Y-10303090D03*
X-15964500Y-6705600D03*
X14823166Y-5607300D03*
%TO.N,ADC1_15_AVDD*%
X7342072Y1466090D03*
X17224809Y-7774246D03*
X57669Y9170799D03*
X14479264Y-6658590D03*
%TO.N,ADC1_26_DVDD*%
X-1981200Y2641600D03*
X-12368202Y-9654691D03*
X6716707Y3884418D03*
%TO.N,ADC1_14_REFIN*%
X-3844068Y6384068D03*
X6631839Y474212D03*
X10102741Y-4966605D03*
X-587663Y7599508D03*
%TO.N,ACC_5_VDDIO*%
X-6298133Y-6679133D03*
X-806128Y-8764200D03*
X-1099694Y-121403D03*
X7023056Y-5311845D03*
X-14457301Y-5911133D03*
X2844046Y-10517304D03*
%TO.N,ADC2_01_AIN2P*%
X10349900Y2474505D03*
%TO.N,ADC2_17_CS*%
X-812967Y-2405237D03*
X2417436Y3146105D03*
%TO.N,ADC2_29_AIN0P*%
X2873887Y11080071D03*
%TO.N,ADC1_02_AIN2N*%
X-6426200Y-50800D03*
X5334000Y50800D03*
X1873598Y7594734D03*
%TO.N,ADC1_08_AIN5P*%
X-10622859Y2653900D03*
%TO.N,ADC1_09_AIN6P*%
X2463800Y15849600D03*
%TO.N,ADC1_12_AIN7P*%
X-3149600Y10617200D03*
%TO.N,ADC1_16_SYNC{slash}RESET*%
X2248115Y2159000D03*
X1575177Y10338177D03*
X-7142067Y6599500D03*
%TO.N,ADC1_17_CS*%
X-3986395Y-5595707D03*
X-6500993Y1778000D03*
%TO.N,ADC1_18_DRDY*%
X-5883425Y2581501D03*
X-1515793Y-3115899D03*
%TO.N,ADC1_19_SCLK*%
X-3196554Y-6204685D03*
X-5384777Y1687311D03*
%TO.N,ADC1_23_XTAL1{slash}CLKIN*%
X1532753Y-4758553D03*
X3649502Y6107631D03*
X-1792100Y4338298D03*
%TO.N,3V3_2_GND*%
X-3943752Y10010300D03*
X14351000Y-10795000D03*
X-7878847Y-6168372D03*
X-17017009Y-7454768D03*
X254000Y-9271000D03*
X-15113000Y-11030000D03*
X12274293Y-7212197D03*
X-140000Y600500D03*
X-7402127Y3747685D03*
X2815280Y10079859D03*
X2006600Y4551933D03*
X6156471Y-5830636D03*
X-126805Y-350515D03*
X-6396854Y7412854D03*
X-4703049Y-9386346D03*
%TO.N,3V3_5_OUT*%
X-1828339Y11676570D03*
%TO.N,MCU_7_NRST*%
X-624999Y-7471002D03*
%TO.N,MCU_34_PA13_SYS_JTMS-SWDIO*%
X867897Y-7242595D03*
%TO.N,MCU_37_PA14_SYS_JTCK-SWCLK*%
X5143567Y-6489633D03*
%TO.N,ADC1_20_DOUT*%
X-4395052Y1547848D03*
X-2533936Y-5456391D03*
%TO.N,ADC1_21_DIN*%
X-3984924Y2578666D03*
X-2343219Y-4343400D03*
%TO.N,ADC2_19_SCLK*%
X24571Y-2972145D03*
X3976864Y2568386D03*
%TO.N,ADC2_20_DOUT*%
X4895219Y3013733D03*
X285411Y-3937012D03*
%TO.N,ADC2_21_DIN*%
X5265859Y3944378D03*
X337744Y-4935144D03*
%TO.N,MCU_38_PA15_SYS_JTDI*%
X3709418Y-6013573D03*
%TO.N,MCU_39_PB3_SYS_JTDO-TRACESWO*%
X2083941Y-7409134D03*
%TO.N,MCU_5_PDO0_RCC_OSC_IN*%
X-3098800Y-10608059D03*
X-1345449Y10692649D03*
%TO.N,ACC_13_SCL*%
X4378065Y-9102465D03*
%TO.N,ACC_14_SDA*%
X2726877Y-4290223D03*
%TO.N,RADIO_8_GPIO9*%
X-8672118Y-4817203D03*
%TO.N,MCU_12_PA2_USART2_TX*%
X-6045200Y-5156200D03*
%TO.N,MCU_13_PA3_USART2_RX*%
X-6072303Y-4157065D03*
%TO.N,MCU_18_PB0_ADC1_SYNC{slash}RESET*%
X-2325545Y8989485D03*
X-1372544Y-4105083D03*
X50800Y2895600D03*
%TD*%
D36*
%TO.N,3V3_2_GND*%
X1274702Y11062300D02*
X1275079Y11062677D01*
D37*
X3125000Y9770139D02*
X2815280Y10079859D01*
D36*
X1275079Y11062677D02*
X1875275Y11062677D01*
X2299677Y10595462D02*
X2815280Y10079859D01*
X1875275Y11062677D02*
X2299677Y10638275D01*
X-787500Y12201500D02*
X-787500Y11826500D01*
X2299677Y10638275D02*
X2299677Y10595462D01*
D37*
X3125000Y7471000D02*
X3125000Y9770139D01*
D36*
X-787500Y11826500D02*
X-23300Y11062300D01*
X-23300Y11062300D02*
X1274702Y11062300D01*
%TO.N,ADC2_29_AIN0P*%
X2233637Y14185227D02*
X1867611Y13819201D01*
%TO.N,ADC1_16_SYNC{slash}RESET*%
X625000Y8719002D02*
X1575177Y9669179D01*
X625000Y7471000D02*
X625000Y8719002D01*
%TO.N,ADC1_02_AIN2N*%
X1875000Y7471000D02*
X1875000Y7593332D01*
%TO.N,ADC2_29_AIN0P*%
X1867611Y12086347D02*
X2873887Y11080071D01*
%TO.N,ADC1_16_SYNC{slash}RESET*%
X1575177Y9669179D02*
X1575177Y10338177D01*
%TO.N,ADC1_02_AIN2N*%
X1875000Y7593332D02*
X1873598Y7594734D01*
%TO.N,ADC2_29_AIN0P*%
X1867611Y13819201D02*
X1867611Y12086347D01*
D38*
%TO.N,3V3_5_OUT*%
X-2243601Y10272804D02*
X-2243601Y11261308D01*
X-3175045Y9341360D02*
X-2243601Y10272804D01*
X-2243601Y11261308D02*
X-1828339Y11676570D01*
X-3321229Y9188629D02*
X-3175045Y9334813D01*
X-3175045Y9334813D02*
X-3175045Y9341360D01*
D36*
X3340261Y5276433D02*
X2641600Y5276433D01*
X2641600Y5276433D02*
X2641100Y5276933D01*
X2641100Y5276933D02*
X1288888Y5276933D01*
X1288888Y5276933D02*
X952855Y4940900D01*
%TO.N,ADC1_12_AIN7P*%
X-2818102Y10948698D02*
X-3149600Y10617200D01*
X-2818102Y11499274D02*
X-2818102Y10948698D01*
X-2232112Y14187872D02*
X-1732113Y13687873D01*
X-2553989Y11763388D02*
X-2818102Y11499274D01*
X-2553989Y11975518D02*
X-2553989Y11763388D01*
X-1732113Y12797394D02*
X-2553989Y11975518D01*
X-1732113Y13687873D02*
X-1732113Y12797394D01*
D37*
%TO.N,3V3_2_GND*%
X-140000Y600500D02*
X-124694Y585194D01*
X-124694Y585194D02*
X-124694Y-350515D01*
X-126805Y-350515D02*
X-126805Y-253805D01*
X-126805Y-253805D02*
X293750Y166750D01*
X910000Y-450000D02*
X910000Y-449500D01*
X910000Y-449500D02*
X-140000Y600500D01*
X-140000Y-1550000D02*
X-140000Y-450000D01*
X910000Y-1550000D02*
X910000Y-1500000D01*
X910000Y-1500000D02*
X-140000Y-450000D01*
X-126805Y-350515D02*
X810515Y-350515D01*
X810515Y-350515D02*
X910000Y-450000D01*
X910000Y650000D02*
X-140000Y650000D01*
X910000Y-450000D02*
X910000Y650000D01*
X910000Y650000D02*
X960000Y650000D01*
X960000Y650000D02*
X2060000Y-450000D01*
X2060000Y650000D02*
X910000Y650000D01*
X2060000Y-1550000D02*
X2010000Y-1550000D01*
X2010000Y-1550000D02*
X910000Y-450000D01*
X910000Y-450000D02*
X2060000Y-450000D01*
X910000Y-1550000D02*
X910000Y-450000D01*
X910000Y-1550000D02*
X-140000Y-1550000D01*
X2060000Y-1550000D02*
X910000Y-1550000D01*
X2060000Y-450000D02*
X2060000Y-1550000D01*
X2060000Y650000D02*
X2060000Y-450000D01*
X12274293Y-7212197D02*
X12274293Y-6389623D01*
X12274293Y-6389623D02*
X11817500Y-5932830D01*
%TO.N,ADC1_15_AVDD*%
X14479264Y-6658590D02*
X14390552Y-6658590D01*
X14390552Y-6658590D02*
X14037866Y-7011276D01*
%TO.N,3V3_2_GND*%
X17159000Y-10448692D02*
X17692400Y-10982092D01*
X17692400Y-10982092D02*
X18073400Y-10982092D01*
X15426134Y-10006724D02*
X16717032Y-10006724D01*
X16717032Y-10006724D02*
X17159000Y-10448692D01*
X15426134Y-10006724D02*
X15426134Y-9659000D01*
X15426134Y-9659000D02*
X15901134Y-9184000D01*
X14351000Y-10795000D02*
X14637858Y-10795000D01*
X14637858Y-10795000D02*
X15426134Y-10006724D01*
%TO.N,ADC1_15_AVDD*%
X17224809Y-7774246D02*
X16963164Y-7774246D01*
X16963164Y-7774246D02*
X16376134Y-8361276D01*
%TO.N,ACC_5_VDDIO*%
X-14221896Y-7117526D02*
X-13002196Y-7117526D01*
X-13002196Y-7117526D02*
X-11817500Y-5932830D01*
X-14457301Y-5911133D02*
X-14457301Y-6882121D01*
X-14457301Y-6882121D02*
X-14221896Y-7117526D01*
%TO.N,3V3_2_GND*%
X-17011500Y-10704170D02*
X-17011500Y-10222867D01*
X-17011500Y-10222867D02*
X-16400270Y-9611637D01*
D36*
%TO.N,3V3_5_OUT*%
X-7675414Y2449800D02*
X-7675414Y-457416D01*
X-5344002Y-4310084D02*
X-5262501Y-4391585D01*
D37*
%TO.N,3V3_2_GND*%
X-11042500Y-7275170D02*
X-10577904Y-6810574D01*
D36*
%TO.N,3V3_5_OUT*%
X-5344002Y-2788828D02*
X-5344002Y-4310084D01*
X-6668600Y-5881200D02*
X-7159806Y-6372406D01*
X-7159806Y-6372406D02*
X-7159806Y-6579517D01*
X-9853404Y-4374596D02*
X-11053000Y-3175000D01*
X-5262501Y-5410200D02*
X-5733501Y-5881200D01*
X-6641500Y4641500D02*
X-6641500Y3483714D01*
X-5262501Y-4391585D02*
X-5262501Y-5410200D01*
X-9853404Y-6996596D02*
X-9853404Y-4374596D01*
D37*
%TO.N,3V3_2_GND*%
X-10577904Y-6810574D02*
X-10577904Y-5682256D01*
D36*
%TO.N,3V3_5_OUT*%
X-5733501Y-5881200D02*
X-6668600Y-5881200D01*
X-8331200Y-7750911D02*
X-9099089Y-7750911D01*
X-7159806Y-6579517D02*
X-8331200Y-7750911D01*
X-7675414Y-457416D02*
X-5344002Y-2788828D01*
X-8750000Y5750000D02*
X-7750000Y5750000D01*
X-7750000Y5750000D02*
X-6641500Y4641500D01*
X-9099089Y-7750911D02*
X-9853404Y-6996596D01*
X-6641500Y3483714D02*
X-7675414Y2449800D01*
D37*
%TO.N,3V3_1_IN*%
X-16192104Y-8255026D02*
X-15964500Y-8027422D01*
X-15964500Y-8027422D02*
X-15964500Y-6705600D01*
%TO.N,3V3_2_GND*%
X-17011500Y-10372146D02*
X-16454910Y-9815556D01*
X-16454910Y-9815556D02*
X-16400270Y-9611637D01*
X-17011500Y-10704170D02*
X-16685670Y-11030000D01*
X-16685670Y-11030000D02*
X-15113000Y-11030000D01*
%TO.N,3V3_1_IN*%
X-17786500Y-9361830D02*
X-17493965Y-9361830D01*
X-17493965Y-9361830D02*
X-16387161Y-8255026D01*
X-16387161Y-8255026D02*
X-16192104Y-8255026D01*
X-15242104Y-9900474D02*
X-14390524Y-9900474D01*
X-14390524Y-9900474D02*
X-13987908Y-10303090D01*
D36*
%TO.N,RADIO_8_GPIO9*%
X-8517797Y-4817203D02*
X-8672118Y-4817203D01*
X-8255000Y-5080000D02*
X-8517797Y-4817203D01*
D37*
%TO.N,3V3_5_OUT*%
X-8750000Y5750000D02*
X-8750000Y6954555D01*
X-8750000Y6954555D02*
X-8499409Y7388591D01*
X-8499409Y7388591D02*
X-7887000Y8001000D01*
X-8750000Y5750000D02*
X-8624500Y5624500D01*
X-8624500Y5624500D02*
X-6738208Y5624500D01*
X-6738208Y5624500D02*
X-3321229Y9041479D01*
X-3321229Y9041479D02*
X-3321229Y9188629D01*
D38*
%TO.N,ADC1_14_REFIN*%
X9956028Y-6115920D02*
X9956028Y-5113318D01*
X10326400Y-6486292D02*
X9956028Y-6115920D01*
X9956028Y-5113318D02*
X10102741Y-4966605D01*
D36*
%TO.N,3V3_5_OUT*%
X4316000Y5334000D02*
X3397828Y5334000D01*
X3397828Y5334000D02*
X3340261Y5276433D01*
X6983000Y8001000D02*
X4316000Y5334000D01*
%TO.N,ACC_5_VDDIO*%
X-6298133Y-6679133D02*
X-7821000Y-8202000D01*
X-12372707Y-8202000D02*
X-14457301Y-6117406D01*
X-14457301Y-6117406D02*
X-14457301Y-5911133D01*
X-7821000Y-8202000D02*
X-12372707Y-8202000D01*
%TO.N,3V3_2_GND*%
X11049000Y-5632308D02*
X12274293Y-6857601D01*
X12274293Y-6857601D02*
X12274293Y-7212197D01*
D37*
X-4375000Y-7471000D02*
X-4375000Y-9058297D01*
X-4375000Y-9058297D02*
X-4703049Y-9386346D01*
D36*
%TO.N,ACC_13_SCL*%
X8750000Y-6250000D02*
X7230530Y-6250000D01*
X7230530Y-6250000D02*
X4378065Y-9102465D01*
D38*
%TO.N,ADC1_14_REFIN*%
X11042500Y-7275170D02*
X11056312Y-7275170D01*
X11056312Y-7275170D02*
X12437866Y-8656724D01*
X12437866Y-8656724D02*
X13087866Y-8656724D01*
X10326400Y-6486292D02*
X10326400Y-6559070D01*
X10326400Y-6559070D02*
X11042500Y-7275170D01*
%TO.N,3V3_2_GND*%
X11817500Y-5932830D02*
X11084322Y-5932830D01*
X11084322Y-5932830D02*
X10806400Y-5654908D01*
%TO.N,ADC1_15_AVDD*%
X17639000Y-9617308D02*
X18020000Y-9617308D01*
X18020000Y-9617308D02*
X18553400Y-10150708D01*
X16376134Y-8361276D02*
X16550846Y-8361276D01*
X16550846Y-8361276D02*
X17551400Y-9361830D01*
%TO.N,3V3_1_IN*%
X-16192104Y-8255026D02*
X-15984795Y-8047717D01*
X-15984795Y-8047717D02*
X-15134649Y-8047717D01*
X-15134649Y-8047717D02*
X-14390524Y-8791842D01*
X-14390524Y-8791842D02*
X-14390524Y-9048894D01*
X-14390524Y-9048894D02*
X-15242104Y-9900474D01*
%TO.N,3V3_2_GND*%
X-17011500Y-10704170D02*
X-17011500Y-10372146D01*
X-17011500Y-10372146D02*
X-15717104Y-9077750D01*
%TO.N,3V3_5_OUT*%
X-8750000Y5750000D02*
X-9100000Y5750000D01*
X-9100000Y5750000D02*
X-10123200Y4726800D01*
D36*
%TO.N,MCU_5_PDO0_RCC_OSC_IN*%
X-1875000Y7471000D02*
X-1570943Y7775057D01*
X-1570943Y8665886D02*
X-1549826Y8687003D01*
X-1549826Y10488272D02*
X-1345449Y10692649D01*
X-1570943Y7775057D02*
X-1570943Y8665886D01*
X-1549826Y8687003D02*
X-1549826Y10488272D01*
%TO.N,ADC1_14_REFIN*%
X-625000Y7471000D02*
X-587663Y7508337D01*
X-587663Y7508337D02*
X-587663Y7599508D01*
%TO.N,3V3_1_IN*%
X-3125000Y7250719D02*
X-3167720Y7207999D01*
X-3125000Y7471000D02*
X-3125000Y7250719D01*
%TO.N,ADC1_15_AVDD*%
X17786500Y-9361830D02*
X17376688Y-9361830D01*
X18553400Y-10128730D02*
X17786500Y-9361830D01*
X18553400Y-10150708D02*
X18553400Y-10128730D01*
X17376688Y-9361830D02*
X16376134Y-8361276D01*
%TO.N,ADC1_14_REFIN*%
X-625000Y7328538D02*
X-625000Y7471000D01*
%TO.N,CRYSTAL_3_OUT*%
X0Y12989000D02*
X787500Y12201500D01*
X-625000Y16515000D02*
X-521727Y16515000D01*
X-521727Y16515000D02*
X0Y15993273D01*
X0Y15993273D02*
X0Y12989000D01*
%TO.N,ACC_5_VDDIO*%
X-11662363Y-5777693D02*
X-11817500Y-5932830D01*
X-492000Y19188000D02*
X-625000Y19055000D01*
X-492000Y20574000D02*
X-492000Y19188000D01*
%TO.N,CRYSTAL_4_Vin*%
X645000Y19055000D02*
X645000Y20457000D01*
X645000Y20457000D02*
X528000Y20574000D01*
X775000Y14976500D02*
X1470000Y15671500D01*
X1470000Y15671500D02*
X1470000Y18230000D01*
X1470000Y18230000D02*
X645000Y19055000D01*
%TO.N,ADC2_17_CS*%
X-1838115Y193195D02*
X-596810Y1434500D01*
X-812967Y-2405237D02*
X-1824194Y-1394010D01*
X2548213Y1434500D02*
X2973115Y1859402D01*
X-1838115Y64255D02*
X-1838115Y193195D01*
X2973115Y1859402D02*
X2973115Y2590426D01*
X-1824194Y-1394010D02*
X-1824194Y50334D01*
X-596810Y1434500D02*
X2548213Y1434500D01*
X-1824194Y50334D02*
X-1838115Y64255D01*
X2973115Y2590426D02*
X2417436Y3146105D01*
%TO.N,ADC1_16_SYNC{slash}RESET*%
X625000Y7229690D02*
X-449501Y6155189D01*
X625000Y7471000D02*
X625000Y7229690D01*
X-449501Y6155189D02*
X-449501Y4856616D01*
X-449501Y4856616D02*
X2248115Y2159000D01*
%TO.N,ADC1_17_CS*%
X-5705894Y982901D02*
X-6500993Y1778000D01*
X-4198699Y-448811D02*
X-4427299Y-220211D01*
X-4198699Y-5383403D02*
X-4198699Y-448811D01*
X-4427299Y-144011D02*
X-5554211Y982901D01*
X-4427299Y-220211D02*
X-4427299Y-144011D01*
X-5554211Y982901D02*
X-5705894Y982901D01*
X-3986395Y-5595707D02*
X-4198699Y-5383403D01*
%TO.N,ADC1_18_DRDY*%
X-2299095Y1917435D02*
X-3684826Y3303166D01*
X-2273695Y-135855D02*
X-2299095Y-110455D01*
X-2273695Y-1997745D02*
X-2273695Y-135855D01*
X-3684826Y3303166D02*
X-5161760Y3303166D01*
X-1515793Y-2755647D02*
X-2273695Y-1997745D01*
X-2299095Y-110455D02*
X-2299095Y1917435D01*
X-1515793Y-3115899D02*
X-1515793Y-2755647D01*
X-5161760Y3303166D02*
X-5883425Y2581501D01*
%TO.N,ADC1_19_SCLK*%
X-3196554Y-6204685D02*
X-3258436Y-6142803D01*
X-3749198Y-237222D02*
X-3977798Y-8622D01*
X-3977798Y-8622D02*
X-3977798Y42178D01*
X-3749198Y-4787885D02*
X-3749198Y-237222D01*
X-3977798Y42178D02*
X-5384777Y1449157D01*
X-3258436Y-6142803D02*
X-3258436Y-5278647D01*
X-3258436Y-5278647D02*
X-3749198Y-4787885D01*
X-5384777Y1449157D02*
X-5384777Y1687311D01*
%TO.N,3V3_2_GND*%
X910000Y-1387320D02*
X-126805Y-350515D01*
X-10210800Y-1902400D02*
X-11548683Y-1902400D01*
X-11901900Y1244600D02*
X-11901900Y1909759D01*
X-12712926Y-738157D02*
X-12712926Y433574D01*
X-15452720Y-9077750D02*
X-15717104Y-9077750D01*
X910000Y-1550000D02*
X910000Y-1387320D01*
X910000Y650000D02*
X910000Y271042D01*
X254000Y-9271000D02*
X36300Y-9488700D01*
X-127000Y635000D02*
X-127000Y-350320D01*
X-8750000Y-6250000D02*
X-7960475Y-6250000D01*
X-12712926Y433574D02*
X-11901900Y1244600D01*
X-12346900Y-1104183D02*
X-12712926Y-738157D01*
X-10704556Y3597508D02*
X-10603200Y3597508D01*
X910000Y650000D02*
X-112000Y650000D01*
X-11347859Y2463800D02*
X-11347859Y2954205D01*
X-140000Y-450000D02*
X-140000Y-363710D01*
X-11548683Y-1902400D02*
X-12346900Y-1104183D01*
X-7960475Y-6250000D02*
X-7878847Y-6168372D01*
X910000Y-450000D02*
X-140000Y-450000D01*
X-112000Y650000D02*
X-127000Y635000D01*
X-127000Y-350320D02*
X-126805Y-350515D01*
X-127000Y613500D02*
X-140000Y600500D01*
X-127000Y635000D02*
X-127000Y613500D01*
X-140000Y-363710D02*
X-126805Y-350515D01*
X-11347859Y2954205D02*
X-10704556Y3597508D01*
X-11901900Y1909759D02*
X-11347859Y2463800D01*
%TO.N,3V3_5_OUT*%
X-8750000Y7011000D02*
X-7760000Y8001000D01*
X-8750000Y5750000D02*
X-8599069Y5599069D01*
X-8750000Y5750000D02*
X-8750000Y7011000D01*
X-10123200Y4726800D02*
X-10123200Y4428892D01*
%TO.N,MCU_7_NRST*%
X-625000Y-7471000D02*
X-624999Y-7471001D01*
X-624999Y-7471001D02*
X-624999Y-7471002D01*
%TO.N,MCU_34_PA13_SYS_JTMS-SWDIO*%
X853405Y-7242595D02*
X867897Y-7242595D01*
X625000Y-7471000D02*
X853405Y-7242595D01*
%TO.N,MCU_37_PA14_SYS_JTCK-SWCLK*%
X4375000Y-7471000D02*
X4375000Y-7258200D01*
X4375000Y-7258200D02*
X5143567Y-6489633D01*
%TO.N,ADC1_20_DOUT*%
X-3299697Y452493D02*
X-4395052Y1547848D01*
X-3299697Y-381233D02*
X-3299697Y452493D01*
X-2533936Y-5367457D02*
X-3172697Y-4728696D01*
X-3172697Y-508233D02*
X-3299697Y-381233D01*
X-3172697Y-4728696D02*
X-3172697Y-508233D01*
X-2533936Y-5456391D02*
X-2533936Y-5367457D01*
%TO.N,ADC1_21_DIN*%
X-2723196Y-322044D02*
X-2850196Y-195044D01*
X-2343219Y-4343400D02*
X-2723196Y-3963423D01*
X-2723196Y-3963423D02*
X-2723196Y-322044D01*
X-2850196Y1443938D02*
X-3984924Y2578666D01*
X-2850196Y-195044D02*
X-2850196Y1443938D01*
%TO.N,MCU_38_PA15_SYS_JTDI*%
X3125000Y-6597991D02*
X3709418Y-6013573D01*
X3125000Y-7471000D02*
X3125000Y-6597991D01*
%TO.N,MCU_39_PB3_SYS_JTDO-TRACESWO*%
X1936866Y-7409134D02*
X2083941Y-7409134D01*
X1875000Y-7471000D02*
X1936866Y-7409134D01*
%TO.N,RADIO_14_GPIO19{slash}USB_D+*%
X-3125000Y-7185394D02*
X-2155065Y-6215459D01*
X253286Y-6009798D02*
X2050600Y-6009798D01*
X-2155065Y-6215459D02*
X-2155065Y-6137657D01*
X-2155065Y-6137657D02*
X-1467351Y-5449943D01*
X-3125000Y-7471000D02*
X-3125000Y-7185394D01*
X-306569Y-5449943D02*
X253286Y-6009798D01*
X2050600Y-6009798D02*
X7810398Y-250000D01*
X-1467351Y-5449943D02*
X-306569Y-5449943D01*
X7810398Y-250000D02*
X8750000Y-250000D01*
%TO.N,RADIO_13_GPIO18{slash}USB_D-*%
X-1705564Y-7301564D02*
X-1705564Y-6323846D01*
X2236789Y-6459299D02*
X6946088Y-1750000D01*
X-492758Y-5899444D02*
X67097Y-6459299D01*
X6946088Y-1750000D02*
X8750000Y-1750000D01*
X-1705564Y-6323846D02*
X-1281162Y-5899444D01*
X-1281162Y-5899444D02*
X-492758Y-5899444D01*
X67097Y-6459299D02*
X2236789Y-6459299D01*
X-1875000Y-7471000D02*
X-1705564Y-7301564D01*
%TO.N,MCU_5_PDO0_RCC_OSC_IN*%
X-5897537Y3306001D02*
X-1875000Y7328538D01*
X-4505934Y-10608059D02*
X-5427549Y-9686444D01*
X-6183523Y3306001D02*
X-5897537Y3306001D01*
X-1875000Y7328538D02*
X-1875000Y7471000D01*
X-4876800Y-4141596D02*
X-4876800Y-330200D01*
X-5739901Y532901D02*
X-5892290Y532901D01*
X-5427549Y-6291149D02*
X-4813000Y-5676600D01*
X-6819900Y1028700D02*
X-7225499Y1434299D01*
X-5427549Y-9686444D02*
X-5427549Y-6291149D01*
X-4813000Y-5676600D02*
X-4813000Y-4205396D01*
X-3098800Y-10608059D02*
X-4505934Y-10608059D01*
X-7225499Y2264025D02*
X-6183523Y3306001D01*
X-4876800Y-330200D02*
X-5739901Y532901D01*
X-7225499Y1434299D02*
X-7225499Y2264025D01*
X-5892290Y532901D02*
X-6388089Y1028700D01*
X-4813000Y-4205396D02*
X-4876800Y-4141596D01*
X-6388089Y1028700D02*
X-6819900Y1028700D01*
%TO.N,ACC_14_SDA*%
X8450000Y1250000D02*
X8750000Y1250000D01*
X2726877Y-4290223D02*
X2909777Y-4290223D01*
X2909777Y-4290223D02*
X8450000Y1250000D01*
X8750000Y1250000D02*
X8675000Y1325000D01*
%TO.N,RADIO_2_EN*%
X-9880600Y-612200D02*
X-10210800Y-942400D01*
X-9880600Y3469400D02*
X-9880600Y-612200D01*
X-8750000Y4250000D02*
X-9100000Y4250000D01*
X-9100000Y4250000D02*
X-9880600Y3469400D01*
%TO.N,MCU_12_PA2_USART2_TX*%
X-6796803Y-3403197D02*
X-6796803Y-4648787D01*
X-6796803Y-4648787D02*
X-6289390Y-5156200D01*
X-8450000Y-1750000D02*
X-6796803Y-3403197D01*
X-8750000Y-1750000D02*
X-8450000Y-1750000D01*
X-6289390Y-5156200D02*
X-6045200Y-5156200D01*
%TO.N,MCU_13_PA3_USART2_RX*%
X-6136008Y-4093360D02*
X-6072303Y-4157065D01*
X-8750000Y-250000D02*
X-8518520Y-250000D01*
X-6136008Y-2632512D02*
X-6136008Y-4093360D01*
X-8518520Y-250000D02*
X-6136008Y-2632512D01*
%TO.N,RADIO_7_GPIO8*%
X-9958000Y-3250000D02*
X-10033000Y-3175000D01*
X-8750000Y-3250000D02*
X-9958000Y-3250000D01*
%TO.N,RADIO_16_GPIO2*%
X7534500Y7532500D02*
X8003000Y8001000D01*
X7534500Y4276067D02*
X7534500Y7532500D01*
X7540005Y4270562D02*
X7534500Y4276067D01*
X8450000Y2750000D02*
X7540005Y3659995D01*
X8750000Y2750000D02*
X8450000Y2750000D01*
X7540005Y3659995D02*
X7540005Y4270562D01*
%TO.N,/RADIO/11_GPIO20*%
X8750000Y-4750000D02*
X8587345Y-4587345D01*
%TD*%
M02*
