%TF.GenerationSoftware,KiCad,Pcbnew,6.0.4-6f826c9f35~116~ubuntu18.04.1*%
%TF.CreationDate,2022-11-28T19:03:47+03:00*%
%TF.ProjectId,free_dry_electrodes_16x3_4cm,66726565-5f64-4727-995f-656c65637472,rev?*%
%TF.SameCoordinates,Original*%
%TF.FileFunction,Legend,Bot*%
%TF.FilePolarity,Positive*%
%FSLAX46Y46*%
G04 Gerber Fmt 4.6, Leading zero omitted, Abs format (unit mm)*
G04 Created by KiCad (PCBNEW 6.0.4-6f826c9f35~116~ubuntu18.04.1) date 2022-11-28 19:03:47*
%MOMM*%
%LPD*%
G01*
G04 APERTURE LIST*
%ADD10C,0.150000*%
%ADD11C,0.120000*%
G04 APERTURE END LIST*
D10*
X3857142Y-144085D02*
X3857142Y-644085D01*
X3857142Y-215514D02*
X3821428Y-179800D01*
X3750000Y-144085D01*
X3642857Y-144085D01*
X3571428Y-179800D01*
X3535714Y-251228D01*
X3535714Y-644085D01*
X2892857Y-608371D02*
X2964285Y-644085D01*
X3107142Y-644085D01*
X3178571Y-608371D01*
X3214285Y-536942D01*
X3214285Y-251228D01*
X3178571Y-179800D01*
X3107142Y-144085D01*
X2964285Y-144085D01*
X2892857Y-179800D01*
X2857142Y-251228D01*
X2857142Y-322657D01*
X3214285Y-394085D01*
X2214285Y-144085D02*
X2214285Y-644085D01*
X2535714Y-144085D02*
X2535714Y-536942D01*
X2500000Y-608371D01*
X2428571Y-644085D01*
X2321428Y-644085D01*
X2250000Y-608371D01*
X2214285Y-572657D01*
X1857142Y-644085D02*
X1857142Y-144085D01*
X1857142Y-286942D02*
X1821428Y-215514D01*
X1785714Y-179800D01*
X1714285Y-144085D01*
X1642857Y-144085D01*
X1285714Y-644085D02*
X1357142Y-608371D01*
X1392857Y-572657D01*
X1428571Y-501228D01*
X1428571Y-286942D01*
X1392857Y-215514D01*
X1357142Y-179800D01*
X1285714Y-144085D01*
X1178571Y-144085D01*
X1107142Y-179800D01*
X1071428Y-215514D01*
X1035714Y-286942D01*
X1035714Y-501228D01*
X1071428Y-572657D01*
X1107142Y-608371D01*
X1178571Y-644085D01*
X1285714Y-644085D01*
X714285Y-644085D02*
X714285Y-144085D01*
X714285Y105914D02*
X750000Y70200D01*
X714285Y34485D01*
X678571Y70200D01*
X714285Y105914D01*
X714285Y34485D01*
X35714Y-644085D02*
X35714Y105914D01*
X35714Y-608371D02*
X107142Y-644085D01*
X250000Y-644085D01*
X321428Y-608371D01*
X357142Y-572657D01*
X392857Y-501228D01*
X392857Y-286942D01*
X357142Y-215514D01*
X321428Y-179800D01*
X250000Y-144085D01*
X107142Y-144085D01*
X35714Y-179800D01*
X-285714Y-608371D02*
X-357142Y-644085D01*
X-499999Y-644085D01*
X-571428Y-608371D01*
X-607142Y-536942D01*
X-607142Y-501228D01*
X-571428Y-429800D01*
X-499999Y-394085D01*
X-392857Y-394085D01*
X-321428Y-358371D01*
X-285714Y-286942D01*
X-285714Y-251228D01*
X-321428Y-179800D01*
X-392857Y-144085D01*
X-499999Y-144085D01*
X-571428Y-179800D01*
X-892857Y-608371D02*
X-964285Y-644085D01*
X-1107142Y-644085D01*
X-1178571Y-608371D01*
X-1214285Y-536942D01*
X-1214285Y-501228D01*
X-1178571Y-429800D01*
X-1107142Y-394085D01*
X-999999Y-394085D01*
X-928571Y-358371D01*
X-892857Y-286942D01*
X-892857Y-251228D01*
X-928571Y-179800D01*
X-999999Y-144085D01*
X-1107142Y-144085D01*
X-1178571Y-179800D01*
X-1535714Y-572657D02*
X-1571428Y-608371D01*
X-1535714Y-644085D01*
X-1499999Y-608371D01*
X-1535714Y-572657D01*
X-1535714Y-644085D01*
X-2214285Y-608371D02*
X-2142857Y-644085D01*
X-1999999Y-644085D01*
X-1928571Y-608371D01*
X-1892857Y-572657D01*
X-1857142Y-501228D01*
X-1857142Y-286942D01*
X-1892857Y-215514D01*
X-1928571Y-179800D01*
X-1999999Y-144085D01*
X-2142857Y-144085D01*
X-2214285Y-179800D01*
X-2642857Y-644085D02*
X-2571428Y-608371D01*
X-2535714Y-572657D01*
X-2499999Y-501228D01*
X-2499999Y-286942D01*
X-2535714Y-215514D01*
X-2571428Y-179800D01*
X-2642857Y-144085D01*
X-2749999Y-144085D01*
X-2821428Y-179800D01*
X-2857142Y-215514D01*
X-2892857Y-286942D01*
X-2892857Y-501228D01*
X-2857142Y-572657D01*
X-2821428Y-608371D01*
X-2749999Y-644085D01*
X-2642857Y-644085D01*
X-3214285Y-644085D02*
X-3214285Y-144085D01*
X-3214285Y-215514D02*
X-3249999Y-179800D01*
X-3321428Y-144085D01*
X-3428571Y-144085D01*
X-3499999Y-179800D01*
X-3535714Y-251228D01*
X-3535714Y-644085D01*
X-3535714Y-251228D02*
X-3571428Y-179800D01*
X-3642857Y-144085D01*
X-3749999Y-144085D01*
X-3821428Y-179800D01*
X-3857142Y-251228D01*
X-3857142Y-644085D01*
%TO.C,J1*%
X333333Y20987619D02*
X333333Y20273333D01*
X380952Y20130476D01*
X476190Y20035238D01*
X619047Y19987619D01*
X714285Y19987619D01*
X-666666Y19987619D02*
X-95238Y19987619D01*
X-380952Y19987619D02*
X-380952Y20987619D01*
X-285714Y20844761D01*
X-190476Y20749523D01*
X-95238Y20701904D01*
%TO.C,J4*%
X-4616001Y12415119D02*
X-4616001Y11700833D01*
X-4568382Y11557976D01*
X-4473144Y11462738D01*
X-4330287Y11415119D01*
X-4235049Y11415119D01*
X-5520763Y12081785D02*
X-5520763Y11415119D01*
X-5282668Y12462738D02*
X-5044573Y11748452D01*
X-5663620Y11748452D01*
%TO.C,J14*%
X5746582Y-4708618D02*
X5746582Y-5422904D01*
X5794201Y-5565761D01*
X5889439Y-5660999D01*
X6032297Y-5708618D01*
X6127535Y-5708618D01*
X4746582Y-5708618D02*
X5318011Y-5708618D01*
X5032297Y-5708618D02*
X5032297Y-4708618D01*
X5127535Y-4851476D01*
X5222773Y-4946714D01*
X5318011Y-4994333D01*
X3889439Y-5041952D02*
X3889439Y-5708618D01*
X4127535Y-4660999D02*
X4365630Y-5375285D01*
X3746582Y-5375285D01*
%TO.C,J3*%
X5282668Y12415119D02*
X5282668Y11700833D01*
X5330287Y11557976D01*
X5425525Y11462738D01*
X5568382Y11415119D01*
X5663620Y11415119D01*
X4901715Y12415119D02*
X4282668Y12415119D01*
X4616001Y12034166D01*
X4473144Y12034166D01*
X4377906Y11986547D01*
X4330287Y11938928D01*
X4282668Y11843690D01*
X4282668Y11605595D01*
X4330287Y11510357D01*
X4377906Y11462738D01*
X4473144Y11415119D01*
X4758858Y11415119D01*
X4854096Y11462738D01*
X4901715Y11510357D01*
%TO.C,J10*%
X10683642Y-1858205D02*
X10683642Y-2572491D01*
X10731261Y-2715348D01*
X10826499Y-2810586D01*
X10969357Y-2858205D01*
X11064595Y-2858205D01*
X9683642Y-2858205D02*
X10255071Y-2858205D01*
X9969357Y-2858205D02*
X9969357Y-1858205D01*
X10064595Y-2001063D01*
X10159833Y-2096301D01*
X10255071Y-2143920D01*
X9064595Y-1858205D02*
X8969357Y-1858205D01*
X8874119Y-1905825D01*
X8826499Y-1953444D01*
X8778880Y-2048682D01*
X8731261Y-2239158D01*
X8731261Y-2477253D01*
X8778880Y-2667729D01*
X8826499Y-2762967D01*
X8874119Y-2810586D01*
X8969357Y-2858205D01*
X9064595Y-2858205D01*
X9159833Y-2810586D01*
X9207452Y-2762967D01*
X9255071Y-2667729D01*
X9302690Y-2477253D01*
X9302690Y-2239158D01*
X9255071Y-2048682D01*
X9207452Y-1953444D01*
X9159833Y-1905825D01*
X9064595Y-1858205D01*
%TO.C,J18*%
X-4139811Y985119D02*
X-4139811Y270833D01*
X-4092192Y127976D01*
X-3996954Y32738D01*
X-3854096Y-14880D01*
X-3758858Y-14880D01*
X-5139811Y-14880D02*
X-4568382Y-14880D01*
X-4854096Y-14880D02*
X-4854096Y985119D01*
X-4758858Y842261D01*
X-4663620Y747023D01*
X-4568382Y699404D01*
X-5711239Y556547D02*
X-5616001Y604166D01*
X-5568382Y651785D01*
X-5520763Y747023D01*
X-5520763Y794642D01*
X-5568382Y889880D01*
X-5616001Y937500D01*
X-5711239Y985119D01*
X-5901715Y985119D01*
X-5996954Y937500D01*
X-6044573Y889880D01*
X-6092192Y794642D01*
X-6092192Y747023D01*
X-6044573Y651785D01*
X-5996954Y604166D01*
X-5901715Y556547D01*
X-5711239Y556547D01*
X-5616001Y508928D01*
X-5568382Y461309D01*
X-5520763Y366071D01*
X-5520763Y175595D01*
X-5568382Y80357D01*
X-5616001Y32738D01*
X-5711239Y-14880D01*
X-5901715Y-14880D01*
X-5996954Y32738D01*
X-6044573Y80357D01*
X-6092192Y175595D01*
X-6092192Y366071D01*
X-6044573Y461309D01*
X-5996954Y508928D01*
X-5901715Y556547D01*
%TO.C,J5*%
X5282668Y6700119D02*
X5282668Y5985833D01*
X5330287Y5842976D01*
X5425525Y5747738D01*
X5568382Y5700119D01*
X5663620Y5700119D01*
X4330287Y6700119D02*
X4806477Y6700119D01*
X4854096Y6223928D01*
X4806477Y6271547D01*
X4711239Y6319166D01*
X4473144Y6319166D01*
X4377906Y6271547D01*
X4330287Y6223928D01*
X4282668Y6128690D01*
X4282668Y5890595D01*
X4330287Y5795357D01*
X4377906Y5747738D01*
X4473144Y5700119D01*
X4711239Y5700119D01*
X4806477Y5747738D01*
X4854096Y5795357D01*
%TO.C,J2*%
X333333Y15272619D02*
X333333Y14558333D01*
X380952Y14415476D01*
X476190Y14320238D01*
X619047Y14272619D01*
X714285Y14272619D01*
X-95238Y15177380D02*
X-142857Y15225000D01*
X-238095Y15272619D01*
X-476190Y15272619D01*
X-571428Y15225000D01*
X-619047Y15177380D01*
X-666666Y15082142D01*
X-666666Y14986904D01*
X-619047Y14844047D01*
X-47619Y14272619D01*
X-666666Y14272619D01*
%TO.C,J16*%
X-14038482Y-4729880D02*
X-14038482Y-5444166D01*
X-13990863Y-5587023D01*
X-13895625Y-5682261D01*
X-13752767Y-5729880D01*
X-13657529Y-5729880D01*
X-15038482Y-5729880D02*
X-14467053Y-5729880D01*
X-14752767Y-5729880D02*
X-14752767Y-4729880D01*
X-14657529Y-4872738D01*
X-14562291Y-4967976D01*
X-14467053Y-5015595D01*
X-15895625Y-4729880D02*
X-15705148Y-4729880D01*
X-15609910Y-4777500D01*
X-15562291Y-4825119D01*
X-15467053Y-4967976D01*
X-15419434Y-5158452D01*
X-15419434Y-5539404D01*
X-15467053Y-5634642D01*
X-15514672Y-5682261D01*
X-15609910Y-5729880D01*
X-15800386Y-5729880D01*
X-15895625Y-5682261D01*
X-15943244Y-5634642D01*
X-15990863Y-5539404D01*
X-15990863Y-5301309D01*
X-15943244Y-5206071D01*
X-15895625Y-5158452D01*
X-15800386Y-5110833D01*
X-15609910Y-5110833D01*
X-15514672Y-5158452D01*
X-15467053Y-5206071D01*
X-15419434Y-5301309D01*
%TO.C,J6*%
X-4616001Y6700119D02*
X-4616001Y5985833D01*
X-4568382Y5842976D01*
X-4473144Y5747738D01*
X-4330287Y5700119D01*
X-4235049Y5700119D01*
X-5520763Y6700119D02*
X-5330287Y6700119D01*
X-5235049Y6652500D01*
X-5187430Y6604880D01*
X-5092192Y6462023D01*
X-5044573Y6271547D01*
X-5044573Y5890595D01*
X-5092192Y5795357D01*
X-5139811Y5747738D01*
X-5235049Y5700119D01*
X-5425525Y5700119D01*
X-5520763Y5747738D01*
X-5568382Y5795357D01*
X-5616001Y5890595D01*
X-5616001Y6128690D01*
X-5568382Y6223928D01*
X-5520763Y6271547D01*
X-5425525Y6319166D01*
X-5235049Y6319166D01*
X-5139811Y6271547D01*
X-5092192Y6223928D01*
X-5044573Y6128690D01*
%TO.C,J12*%
X-9089146Y-1872380D02*
X-9089146Y-2586666D01*
X-9041527Y-2729523D01*
X-8946289Y-2824761D01*
X-8803431Y-2872380D01*
X-8708193Y-2872380D01*
X-10089146Y-2872380D02*
X-9517717Y-2872380D01*
X-9803431Y-2872380D02*
X-9803431Y-1872380D01*
X-9708193Y-2015238D01*
X-9612955Y-2110476D01*
X-9517717Y-2158095D01*
X-10470098Y-1967619D02*
X-10517717Y-1920000D01*
X-10612955Y-1872380D01*
X-10851050Y-1872380D01*
X-10946289Y-1920000D01*
X-10993908Y-1967619D01*
X-11041527Y-2062857D01*
X-11041527Y-2158095D01*
X-10993908Y-2300952D01*
X-10422479Y-2872380D01*
X-11041527Y-2872380D01*
%TO.C,J7*%
X10207452Y3842619D02*
X10207452Y3128333D01*
X10255071Y2985476D01*
X10350309Y2890238D01*
X10493166Y2842619D01*
X10588404Y2842619D01*
X9826499Y3842619D02*
X9159833Y3842619D01*
X9588404Y2842619D01*
%TO.C,J17*%
X5758858Y985119D02*
X5758858Y270833D01*
X5806477Y127976D01*
X5901715Y32738D01*
X6044573Y-14880D01*
X6139811Y-14880D01*
X4758858Y-14880D02*
X5330287Y-14880D01*
X5044573Y-14880D02*
X5044573Y985119D01*
X5139811Y842261D01*
X5235049Y747023D01*
X5330287Y699404D01*
X4425525Y985119D02*
X3758858Y985119D01*
X4187430Y-14880D01*
%TO.C,J8*%
X333333Y9557619D02*
X333333Y8843333D01*
X380952Y8700476D01*
X476190Y8605238D01*
X619047Y8557619D01*
X714285Y8557619D01*
X-285714Y9129047D02*
X-190476Y9176666D01*
X-142857Y9224285D01*
X-95238Y9319523D01*
X-95238Y9367142D01*
X-142857Y9462380D01*
X-190476Y9510000D01*
X-285714Y9557619D01*
X-476190Y9557619D01*
X-571428Y9510000D01*
X-619047Y9462380D01*
X-666666Y9367142D01*
X-666666Y9319523D01*
X-619047Y9224285D01*
X-571428Y9176666D01*
X-476190Y9129047D01*
X-285714Y9129047D01*
X-190476Y9081428D01*
X-142857Y9033809D01*
X-95238Y8938571D01*
X-95238Y8748095D01*
X-142857Y8652857D01*
X-190476Y8605238D01*
X-285714Y8557619D01*
X-476190Y8557619D01*
X-571428Y8605238D01*
X-619047Y8652857D01*
X-666666Y8748095D01*
X-666666Y8938571D01*
X-619047Y9033809D01*
X-571428Y9081428D01*
X-476190Y9129047D01*
%TO.C,J15*%
X-4139811Y-4729880D02*
X-4139811Y-5444166D01*
X-4092192Y-5587023D01*
X-3996954Y-5682261D01*
X-3854096Y-5729880D01*
X-3758858Y-5729880D01*
X-5139811Y-5729880D02*
X-4568382Y-5729880D01*
X-4854096Y-5729880D02*
X-4854096Y-4729880D01*
X-4758858Y-4872738D01*
X-4663620Y-4967976D01*
X-4568382Y-5015595D01*
X-6044573Y-4729880D02*
X-5568382Y-4729880D01*
X-5520763Y-5206071D01*
X-5568382Y-5158452D01*
X-5663620Y-5110833D01*
X-5901715Y-5110833D01*
X-5996954Y-5158452D01*
X-6044573Y-5206071D01*
X-6092192Y-5301309D01*
X-6092192Y-5539404D01*
X-6044573Y-5634642D01*
X-5996954Y-5682261D01*
X-5901715Y-5729880D01*
X-5663620Y-5729880D01*
X-5568382Y-5682261D01*
X-5520763Y-5634642D01*
%TO.C,J13*%
X15657529Y-4729880D02*
X15657529Y-5444166D01*
X15705148Y-5587023D01*
X15800386Y-5682261D01*
X15943244Y-5729880D01*
X16038482Y-5729880D01*
X14657529Y-5729880D02*
X15228958Y-5729880D01*
X14943244Y-5729880D02*
X14943244Y-4729880D01*
X15038482Y-4872738D01*
X15133720Y-4967976D01*
X15228958Y-5015595D01*
X14324196Y-4729880D02*
X13705148Y-4729880D01*
X14038482Y-5110833D01*
X13895625Y-5110833D01*
X13800386Y-5158452D01*
X13752767Y-5206071D01*
X13705148Y-5301309D01*
X13705148Y-5539404D01*
X13752767Y-5634642D01*
X13800386Y-5682261D01*
X13895625Y-5729880D01*
X14181339Y-5729880D01*
X14276577Y-5682261D01*
X14324196Y-5634642D01*
%TO.C,J9*%
X-9565336Y3842619D02*
X-9565336Y3128333D01*
X-9517717Y2985476D01*
X-9422479Y2890238D01*
X-9279622Y2842619D01*
X-9184384Y2842619D01*
X-10089146Y2842619D02*
X-10279622Y2842619D01*
X-10374860Y2890238D01*
X-10422479Y2937857D01*
X-10517717Y3080714D01*
X-10565336Y3271190D01*
X-10565336Y3652142D01*
X-10517717Y3747380D01*
X-10470098Y3795000D01*
X-10374860Y3842619D01*
X-10184384Y3842619D01*
X-10089146Y3795000D01*
X-10041527Y3747380D01*
X-9993908Y3652142D01*
X-9993908Y3414047D01*
X-10041527Y3318809D01*
X-10089146Y3271190D01*
X-10184384Y3223571D01*
X-10374860Y3223571D01*
X-10470098Y3271190D01*
X-10517717Y3318809D01*
X-10565336Y3414047D01*
%TO.C,J11*%
X809523Y-1872380D02*
X809523Y-2586666D01*
X857142Y-2729523D01*
X952380Y-2824761D01*
X1095238Y-2872380D01*
X1190476Y-2872380D01*
X-190476Y-2872380D02*
X380952Y-2872380D01*
X95238Y-2872380D02*
X95238Y-1872380D01*
X190476Y-2015238D01*
X285714Y-2110476D01*
X380952Y-2158095D01*
X-1142857Y-2872380D02*
X-571428Y-2872380D01*
X-857142Y-2872380D02*
X-857142Y-1872380D01*
X-761904Y-2015238D01*
X-666666Y-2110476D01*
X-571428Y-2158095D01*
D11*
%TO.C,J1*%
X2370000Y17145000D02*
G75*
G03*
X2370000Y17145000I-2370000J0D01*
G01*
%TO.C,J4*%
X-2579335Y8572500D02*
G75*
G03*
X-2579335Y8572500I-2370000J0D01*
G01*
%TO.C,J14*%
X7307059Y-8551238D02*
G75*
G03*
X7307059Y-8551238I-2370000J0D01*
G01*
%TO.C,J3*%
X7319335Y8572500D02*
G75*
G03*
X7319335Y8572500I-2370000J0D01*
G01*
%TO.C,J10*%
X12244119Y-5700825D02*
G75*
G03*
X12244119Y-5700825I-2370000J0D01*
G01*
%TO.C,J18*%
X-2579335Y-2857500D02*
G75*
G03*
X-2579335Y-2857500I-2370000J0D01*
G01*
%TO.C,J5*%
X7319335Y2857500D02*
G75*
G03*
X7319335Y2857500I-2370000J0D01*
G01*
%TO.C,J2*%
X2370000Y11430000D02*
G75*
G03*
X2370000Y11430000I-2370000J0D01*
G01*
%TO.C,J16*%
X-12478006Y-8572500D02*
G75*
G03*
X-12478006Y-8572500I-2370000J0D01*
G01*
%TO.C,J6*%
X-2579335Y2857500D02*
G75*
G03*
X-2579335Y2857500I-2370000J0D01*
G01*
%TO.C,J12*%
X-7528670Y-5715000D02*
G75*
G03*
X-7528670Y-5715000I-2370000J0D01*
G01*
%TO.C,J7*%
X12244119Y0D02*
G75*
G03*
X12244119Y0I-2370000J0D01*
G01*
%TO.C,J17*%
X7319335Y-2857500D02*
G75*
G03*
X7319335Y-2857500I-2370000J0D01*
G01*
%TO.C,J8*%
X2370000Y5715000D02*
G75*
G03*
X2370000Y5715000I-2370000J0D01*
G01*
%TO.C,J15*%
X-2579335Y-8572500D02*
G75*
G03*
X-2579335Y-8572500I-2370000J0D01*
G01*
%TO.C,J13*%
X17218006Y-8572500D02*
G75*
G03*
X17218006Y-8572500I-2370000J0D01*
G01*
%TO.C,J9*%
X-7528670Y0D02*
G75*
G03*
X-7528670Y0I-2370000J0D01*
G01*
%TO.C,J11*%
X2370000Y-5715000D02*
G75*
G03*
X2370000Y-5715000I-2370000J0D01*
G01*
%TD*%
M02*
