M48
; DRILL file {KiCad 6.0.4-6f826c9f35~116~ubuntu18.04.1} date Tue 29 Nov 2022 08:00:42 PM MSK
; FORMAT={-:-/ absolute / inch / decimal}
; #@! TF.CreationDate,2022-11-29T20:00:42+03:00
; #@! TF.GenerationSoftware,Kicad,Pcbnew,6.0.4-6f826c9f35~116~ubuntu18.04.1
; #@! TF.FileFunction,Plated,1,2,PTH
FMAT,2
INCH
; #@! TA.AperFunction,Plated,PTH,ComponentDrill
T1C0.0256
; #@! TA.AperFunction,Plated,PTH,ComponentDrill
T2C0.0394
; #@! TA.AperFunction,Plated,PTH,ComponentDrill
T3C0.0866
%
G90
G05
T1
X-0.5709Y-0.1781
X-0.5459Y-0.1348
X-0.5276Y-0.2031
X-0.5209Y-0.0915
X-0.5026Y-0.1598
X-0.4776Y-0.1165
X-0.4398Y-0.3554
X-0.4398Y-0.4054
X-0.3898Y-0.3554
X-0.3898Y-0.4054
X-0.3398Y-0.3554
X-0.3398Y-0.4054
X-0.1812Y0.497
X-0.1562Y0.5403
X-0.1379Y0.472
X-0.1312Y0.5836
X-0.1129Y0.5153
X-0.0879Y0.5586
X0.0879Y0.5585
X0.1129Y0.5152
X0.1312Y0.5835
X0.1379Y0.4719
X0.1562Y0.5402
X0.1812Y0.4969
X0.3397Y-0.3554
X0.3397Y-0.4054
X0.3897Y-0.3554
X0.3897Y-0.4054
X0.4397Y-0.3554
X0.4397Y-0.4054
X0.4777Y-0.1166
X0.5027Y-0.1599
X0.521Y-0.0916
X0.5277Y-0.2032
X0.546Y-0.1349
X0.571Y-0.1782
T2
X-0.6229Y-0.3596
X-0.5846Y-0.2932
X-0.5462Y-0.3596
X-0.4281Y-0.0221
X-0.4281Y-0.2471
X-0.3897Y0.0443
X-0.3897Y-0.1807
X-0.3514Y-0.0221
X-0.3514Y-0.2471
X-0.2332Y0.3154
X-0.2332Y0.0904
X-0.2332Y-0.1346
X-0.2332Y-0.3596
X-0.1949Y0.3818
X-0.1949Y0.1568
X-0.1949Y-0.0682
X-0.1949Y-0.2932
X-0.1565Y0.3154
X-0.1565Y0.0904
X-0.1565Y-0.1346
X-0.1565Y-0.3596
X-0.0384Y0.6529
X-0.0384Y0.4279
X-0.0384Y0.2029
X-0.0384Y-0.2471
X0.0Y0.7193
X0.0Y0.4943
X0.0Y0.2693
X0.0Y-0.1807
X0.0384Y0.6529
X0.0384Y0.4279
X0.0384Y0.2029
X0.0384Y-0.2471
X0.156Y-0.3588
X0.1565Y0.3154
X0.1565Y0.0904
X0.1565Y-0.1346
X0.1944Y-0.2924
X0.1949Y0.3818
X0.1949Y0.1568
X0.1949Y-0.0682
X0.2327Y-0.3588
X0.2332Y0.3154
X0.2332Y0.0904
X0.2332Y-0.1346
X0.3504Y-0.0221
X0.3514Y-0.2471
X0.3887Y0.0443
X0.3897Y-0.1807
X0.4271Y-0.0221
X0.4281Y-0.2471
X0.5462Y-0.3596
X0.5846Y-0.2932
X0.6229Y-0.3596
T3
X-0.3248Y0.1875
X0.0Y0.0
X0.0Y-0.375
X0.3248Y0.1875
T0
M30
