%TF.GenerationSoftware,KiCad,Pcbnew,6.0.4-6f826c9f35~116~ubuntu18.04.1*%
%TF.CreationDate,2022-11-28T21:12:53+03:00*%
%TF.ProjectId,free_dry_electrodes_16x3_4cm,66726565-5f64-4727-995f-656c65637472,rev?*%
%TF.SameCoordinates,Original*%
%TF.FileFunction,Soldermask,Top*%
%TF.FilePolarity,Negative*%
%FSLAX46Y46*%
G04 Gerber Fmt 4.6, Leading zero omitted, Abs format (unit mm)*
G04 Created by KiCad (PCBNEW 6.0.4-6f826c9f35~116~ubuntu18.04.1) date 2022-11-28 21:12:53*
%MOMM*%
%LPD*%
G01*
G04 APERTURE LIST*
G04 Aperture macros list*
%AMHorizOval*
0 Thick line with rounded ends*
0 $1 width*
0 $2 $3 position (X,Y) of the first rounded end (center of the circle)*
0 $4 $5 position (X,Y) of the second rounded end (center of the circle)*
0 Add line between two ends*
20,1,$1,$2,$3,$4,$5,0*
0 Add two circle primitives to create the rounded ends*
1,1,$1,$2,$3*
1,1,$1,$4,$5*%
%AMRotRect*
0 Rectangle, with rotation*
0 The origin of the aperture is its center*
0 $1 length*
0 $2 width*
0 $3 Rotation angle, in degrees counterclockwise*
0 Add horizontal line*
21,1,$1,$2,0,0,$3*%
G04 Aperture macros list end*
%ADD10C,3.500000*%
%ADD11HorizOval,1.000000X0.000000X0.000000X0.000000X0.000000X0*%
%ADD12RotRect,1.000000X1.000000X150.000000*%
%ADD13RotRect,1.000000X1.000000X30.000000*%
%ADD14HorizOval,1.000000X0.000000X0.000000X0.000000X0.000000X0*%
%ADD15R,1.000000X1.000000*%
%ADD16O,1.000000X1.000000*%
%ADD17O,1.950000X1.950000*%
G04 APERTURE END LIST*
D10*
%TO.C,REF\u002A\u002A*%
X0Y-9525000D03*
%TD*%
D11*
%TO.C,J22*%
X-13113153Y-2392647D03*
X-13748153Y-3492500D03*
D12*
X-14383153Y-4592352D03*
%TD*%
D13*
%TO.C,J21*%
X13110653Y-2388316D03*
D14*
X13745653Y-3488168D03*
X14380653Y-4588021D03*
%TD*%
%TO.C,J19*%
X4481983Y12556978D03*
X3846983Y13656831D03*
D13*
X3211983Y14756683D03*
%TD*%
D15*
%TO.C,J24*%
X-8622948Y-10160000D03*
D16*
X-9892948Y-10160000D03*
X-11162948Y-10160000D03*
%TD*%
D12*
%TO.C,J20*%
X-4486983Y12548317D03*
D11*
X-3851983Y13648169D03*
X-3216983Y14748022D03*
%TD*%
D10*
%TO.C,REF\u002A\u002A*%
X-8248892Y4762500D03*
%TD*%
%TO.C,REF\u002A\u002A*%
X8248892Y4762500D03*
%TD*%
D16*
%TO.C,J23*%
X8628670Y-10160000D03*
X9898670Y-10160000D03*
D15*
X11168670Y-10160000D03*
%TD*%
D17*
%TO.C,J1*%
X0Y18270000D03*
X-974278Y16582501D03*
X974278Y16582500D03*
%TD*%
%TO.C,J4*%
X-4949335Y9697500D03*
X-5923613Y8010001D03*
X-3975057Y8010000D03*
%TD*%
%TO.C,J14*%
X4937059Y-7426238D03*
X3962781Y-9113737D03*
X5911337Y-9113738D03*
%TD*%
%TO.C,J3*%
X4949335Y9697500D03*
X3975057Y8010001D03*
X5923613Y8010000D03*
%TD*%
%TO.C,J10*%
X10872948Y-6277500D03*
X8924392Y-6277499D03*
X9898670Y-4590000D03*
%TD*%
%TO.C,J18*%
X-4949335Y-1732500D03*
X-5923613Y-3419999D03*
X-3975057Y-3420000D03*
%TD*%
%TO.C,J5*%
X4949335Y3982500D03*
X3975057Y2295001D03*
X5923613Y2295000D03*
%TD*%
%TO.C,J2*%
X0Y12555000D03*
X-974278Y10867501D03*
X974278Y10867500D03*
%TD*%
%TO.C,J16*%
X-14848006Y-7447500D03*
X-15822284Y-9134999D03*
X-13873728Y-9135000D03*
%TD*%
%TO.C,J6*%
X-4949335Y3982500D03*
X-5923613Y2295001D03*
X-3975057Y2295000D03*
%TD*%
%TO.C,J12*%
X-8924392Y-6277500D03*
X-10872948Y-6277499D03*
X-9898670Y-4590000D03*
%TD*%
%TO.C,J7*%
X9874119Y1125000D03*
X8899841Y-562499D03*
X10848397Y-562500D03*
%TD*%
%TO.C,J17*%
X4949335Y-1732500D03*
X3975057Y-3419999D03*
X5923613Y-3420000D03*
%TD*%
%TO.C,J8*%
X974278Y5152500D03*
X-974278Y5152501D03*
X0Y6840000D03*
%TD*%
%TO.C,J15*%
X-4949335Y-7447500D03*
X-5923613Y-9134999D03*
X-3975057Y-9135000D03*
%TD*%
%TO.C,J13*%
X14848006Y-7447500D03*
X13873728Y-9134999D03*
X15822284Y-9135000D03*
%TD*%
%TO.C,J9*%
X-9898670Y1125000D03*
X-10872948Y-562499D03*
X-8924392Y-562500D03*
%TD*%
%TO.C,J11*%
X0Y-4590000D03*
X-974278Y-6277499D03*
X974278Y-6277500D03*
%TD*%
M02*
