%TF.GenerationSoftware,KiCad,Pcbnew,6.0.4-6f826c9f35~116~ubuntu18.04.1*%
%TF.CreationDate,2022-11-28T19:03:47+03:00*%
%TF.ProjectId,free_dry_electrodes_16x3_4cm,66726565-5f64-4727-995f-656c65637472,rev?*%
%TF.SameCoordinates,Original*%
%TF.FileFunction,Legend,Top*%
%TF.FilePolarity,Positive*%
%FSLAX46Y46*%
G04 Gerber Fmt 4.6, Leading zero omitted, Abs format (unit mm)*
G04 Created by KiCad (PCBNEW 6.0.4-6f826c9f35~116~ubuntu18.04.1) date 2022-11-28 19:03:47*
%MOMM*%
%LPD*%
G01*
G04 APERTURE LIST*
%ADD10C,0.150000*%
%ADD11C,0.120000*%
G04 APERTURE END LIST*
D10*
X-2535714Y657321D02*
X-2785714Y657321D01*
X-2785714Y264464D02*
X-2785714Y1014464D01*
X-2428571Y1014464D01*
X-2142857Y264464D02*
X-2142857Y764464D01*
X-2142857Y621607D02*
X-2107142Y693035D01*
X-2071428Y728750D01*
X-2000000Y764464D01*
X-1928571Y764464D01*
X-1392857Y300178D02*
X-1464285Y264464D01*
X-1607142Y264464D01*
X-1678571Y300178D01*
X-1714285Y371607D01*
X-1714285Y657321D01*
X-1678571Y728750D01*
X-1607142Y764464D01*
X-1464285Y764464D01*
X-1392857Y728750D01*
X-1357142Y657321D01*
X-1357142Y585892D01*
X-1714285Y514464D01*
X-750000Y300178D02*
X-821428Y264464D01*
X-964285Y264464D01*
X-1035714Y300178D01*
X-1071428Y371607D01*
X-1071428Y657321D01*
X-1035714Y728750D01*
X-964285Y764464D01*
X-821428Y764464D01*
X-750000Y728750D01*
X-714285Y657321D01*
X-714285Y585892D01*
X-1071428Y514464D01*
X-392857Y657321D02*
X-142857Y657321D01*
X-35714Y264464D02*
X-392857Y264464D01*
X-392857Y1014464D01*
X-35714Y1014464D01*
X285714Y657321D02*
X535714Y657321D01*
X642857Y264464D02*
X285714Y264464D01*
X285714Y1014464D01*
X642857Y1014464D01*
X1357142Y978750D02*
X1285714Y1014464D01*
X1178571Y1014464D01*
X1071428Y978750D01*
X999999Y907321D01*
X964285Y835892D01*
X928571Y693035D01*
X928571Y585892D01*
X964285Y443035D01*
X999999Y371607D01*
X1071428Y300178D01*
X1178571Y264464D01*
X1250000Y264464D01*
X1357142Y300178D01*
X1392857Y335892D01*
X1392857Y585892D01*
X1250000Y585892D01*
X2107142Y264464D02*
X1678571Y264464D01*
X1892857Y264464D02*
X1892857Y1014464D01*
X1821428Y907321D01*
X1750000Y835892D01*
X1678571Y800178D01*
X2750000Y1014464D02*
X2607142Y1014464D01*
X2535714Y978750D01*
X2500000Y943035D01*
X2428571Y835892D01*
X2392857Y693035D01*
X2392857Y407321D01*
X2428571Y335892D01*
X2464285Y300178D01*
X2535714Y264464D01*
X2678571Y264464D01*
X2750000Y300178D01*
X2785714Y335892D01*
X2821428Y407321D01*
X2821428Y585892D01*
X2785714Y657321D01*
X2750000Y693035D01*
X2678571Y728750D01*
X2535714Y728750D01*
X2464285Y693035D01*
X2428571Y657321D01*
X2392857Y585892D01*
X-3928571Y-943035D02*
X-3928571Y-193035D01*
X-3750000Y-193035D01*
X-3642857Y-228750D01*
X-3571428Y-300178D01*
X-3535714Y-371607D01*
X-3500000Y-514464D01*
X-3500000Y-621607D01*
X-3535714Y-764464D01*
X-3571428Y-835892D01*
X-3642857Y-907321D01*
X-3750000Y-943035D01*
X-3928571Y-943035D01*
X-3178571Y-943035D02*
X-3178571Y-443035D01*
X-3178571Y-585892D02*
X-3142857Y-514464D01*
X-3107142Y-478750D01*
X-3035714Y-443035D01*
X-2964285Y-443035D01*
X-2785714Y-443035D02*
X-2607142Y-943035D01*
X-2428571Y-443035D02*
X-2607142Y-943035D01*
X-2678571Y-1121607D01*
X-2714285Y-1157321D01*
X-2785714Y-1193035D01*
X-1571428Y-550178D02*
X-1321428Y-550178D01*
X-1214285Y-943035D02*
X-1571428Y-943035D01*
X-1571428Y-193035D01*
X-1214285Y-193035D01*
X-785714Y-943035D02*
X-857142Y-907321D01*
X-892857Y-835892D01*
X-892857Y-193035D01*
X-214285Y-907321D02*
X-285714Y-943035D01*
X-428571Y-943035D01*
X-500000Y-907321D01*
X-535714Y-835892D01*
X-535714Y-550178D01*
X-500000Y-478750D01*
X-428571Y-443035D01*
X-285714Y-443035D01*
X-214285Y-478750D01*
X-178571Y-550178D01*
X-178571Y-621607D01*
X-535714Y-693035D01*
X464285Y-907321D02*
X392857Y-943035D01*
X249999Y-943035D01*
X178571Y-907321D01*
X142857Y-871607D01*
X107142Y-800178D01*
X107142Y-585892D01*
X142857Y-514464D01*
X178571Y-478750D01*
X249999Y-443035D01*
X392857Y-443035D01*
X464285Y-478750D01*
X678571Y-443035D02*
X964285Y-443035D01*
X785714Y-193035D02*
X785714Y-835892D01*
X821428Y-907321D01*
X892857Y-943035D01*
X964285Y-943035D01*
X1214285Y-943035D02*
X1214285Y-443035D01*
X1214285Y-585892D02*
X1249999Y-514464D01*
X1285714Y-478750D01*
X1357142Y-443035D01*
X1428571Y-443035D01*
X1785714Y-943035D02*
X1714285Y-907321D01*
X1678571Y-871607D01*
X1642857Y-800178D01*
X1642857Y-585892D01*
X1678571Y-514464D01*
X1714285Y-478750D01*
X1785714Y-443035D01*
X1892857Y-443035D01*
X1964285Y-478750D01*
X1999999Y-514464D01*
X2035714Y-585892D01*
X2035714Y-800178D01*
X1999999Y-871607D01*
X1964285Y-907321D01*
X1892857Y-943035D01*
X1785714Y-943035D01*
X2678571Y-943035D02*
X2678571Y-193035D01*
X2678571Y-907321D02*
X2607142Y-943035D01*
X2464285Y-943035D01*
X2392857Y-907321D01*
X2357142Y-871607D01*
X2321428Y-800178D01*
X2321428Y-585892D01*
X2357142Y-514464D01*
X2392857Y-478750D01*
X2464285Y-443035D01*
X2607142Y-443035D01*
X2678571Y-478750D01*
X3321428Y-907321D02*
X3249999Y-943035D01*
X3107142Y-943035D01*
X3035714Y-907321D01*
X2999999Y-835892D01*
X2999999Y-550178D01*
X3035714Y-478750D01*
X3107142Y-443035D01*
X3249999Y-443035D01*
X3321428Y-478750D01*
X3357142Y-550178D01*
X3357142Y-621607D01*
X2999999Y-693035D01*
X3642857Y-907321D02*
X3714285Y-943035D01*
X3857142Y-943035D01*
X3928571Y-907321D01*
X3964285Y-835892D01*
X3964285Y-800178D01*
X3928571Y-728750D01*
X3857142Y-693035D01*
X3749999Y-693035D01*
X3678571Y-657321D01*
X3642857Y-585892D01*
X3642857Y-550178D01*
X3678571Y-478750D01*
X3749999Y-443035D01*
X3857142Y-443035D01*
X3928571Y-478750D01*
%TO.C,J22*%
X-14907581Y-6734403D02*
X-14635439Y-6263038D01*
X-14549586Y-6186908D01*
X-14450451Y-6160345D01*
X-14338035Y-6183349D01*
X-14275187Y-6219635D01*
X-15154115Y-6508269D02*
X-15203682Y-6521550D01*
X-15284674Y-6516689D01*
X-15441795Y-6425975D01*
X-15486501Y-6358264D01*
X-15499783Y-6308697D01*
X-15494921Y-6227706D01*
X-15458636Y-6164857D01*
X-15372783Y-6088727D01*
X-14777976Y-5929349D01*
X-15186493Y-5693492D01*
X-15782602Y-6145412D02*
X-15832169Y-6158693D01*
X-15913161Y-6153832D01*
X-16070282Y-6063117D01*
X-16114988Y-5995407D01*
X-16128270Y-5945840D01*
X-16123408Y-5864849D01*
X-16087123Y-5802000D01*
X-16001270Y-5725870D01*
X-15406463Y-5566492D01*
X-15814980Y-5330635D01*
%TO.C,J21*%
X11504155Y-839494D02*
X11776298Y-1310859D01*
X11799302Y-1423275D01*
X11772739Y-1522410D01*
X11696609Y-1608263D01*
X11633760Y-1644548D01*
X11823260Y-739057D02*
X11836541Y-689490D01*
X11881247Y-621780D01*
X12038369Y-531065D01*
X12119360Y-526204D01*
X12168927Y-539486D01*
X12236637Y-584191D01*
X12272923Y-647040D01*
X12295927Y-759456D01*
X12136549Y-1354263D01*
X12545066Y-1118405D01*
X13173553Y-755548D02*
X12796461Y-973263D01*
X12985007Y-864405D02*
X12604007Y-204494D01*
X12595587Y-335053D01*
X12569024Y-434187D01*
X12524318Y-501897D01*
%TO.C,J19*%
X1597749Y16318903D02*
X1869892Y15847538D01*
X1892896Y15735122D01*
X1866333Y15635987D01*
X1790203Y15550134D01*
X1727354Y15513849D01*
X2638660Y16039992D02*
X2261568Y15822277D01*
X2450114Y15931134D02*
X2069114Y16591046D01*
X2060694Y16460487D01*
X2034131Y16361353D01*
X1989425Y16293643D01*
X2952904Y16221420D02*
X3078601Y16293992D01*
X3123307Y16361702D01*
X3136588Y16411269D01*
X3145008Y16541828D01*
X3103861Y16685668D01*
X2958718Y16937063D01*
X2891008Y16981769D01*
X2841441Y16995050D01*
X2760450Y16990189D01*
X2634752Y16917617D01*
X2590046Y16849907D01*
X2576765Y16800340D01*
X2581626Y16719348D01*
X2672341Y16562227D01*
X2740051Y16517521D01*
X2789618Y16504239D01*
X2870609Y16509101D01*
X2996307Y16581672D01*
X3041013Y16649382D01*
X3054294Y16698949D01*
X3049433Y16779941D01*
%TO.C,J24*%
X-7327885Y-10776857D02*
X-6783600Y-10776857D01*
X-6674742Y-10813142D01*
X-6602171Y-10885714D01*
X-6565885Y-10994571D01*
X-6565885Y-11067142D01*
X-7255314Y-10450285D02*
X-7291600Y-10414000D01*
X-7327885Y-10341428D01*
X-7327885Y-10160000D01*
X-7291600Y-10087428D01*
X-7255314Y-10051142D01*
X-7182742Y-10014857D01*
X-7110171Y-10014857D01*
X-7001314Y-10051142D01*
X-6565885Y-10486571D01*
X-6565885Y-10014857D01*
X-7073885Y-9361714D02*
X-6565885Y-9361714D01*
X-7364171Y-9543142D02*
X-6819885Y-9724571D01*
X-6819885Y-9252857D01*
%TO.C,J20*%
X-4999436Y10427008D02*
X-4727294Y10898373D01*
X-4641441Y10974503D01*
X-4542306Y11001066D01*
X-4429890Y10978062D01*
X-4367042Y10941776D01*
X-5245970Y10653142D02*
X-5295537Y10639861D01*
X-5376529Y10644722D01*
X-5533650Y10735436D01*
X-5578356Y10803147D01*
X-5591638Y10852714D01*
X-5586776Y10933705D01*
X-5550491Y10996554D01*
X-5464638Y11072684D01*
X-4869831Y11232062D01*
X-5278348Y11467919D01*
X-6067864Y11043865D02*
X-6130713Y11080151D01*
X-6175419Y11147861D01*
X-6188700Y11197428D01*
X-6183839Y11278420D01*
X-6142692Y11422260D01*
X-6051978Y11579382D01*
X-5947982Y11686936D01*
X-5880272Y11731642D01*
X-5830705Y11744923D01*
X-5749713Y11740062D01*
X-5686864Y11703776D01*
X-5642158Y11636066D01*
X-5628877Y11586499D01*
X-5633738Y11505508D01*
X-5674885Y11361667D01*
X-5765600Y11204546D01*
X-5869595Y11096991D01*
X-5937306Y11052285D01*
X-5986873Y11039004D01*
X-6067864Y11043865D01*
%TO.C,J23*%
X12428314Y-10776857D02*
X12972600Y-10776857D01*
X13081457Y-10813142D01*
X13154028Y-10885714D01*
X13190314Y-10994571D01*
X13190314Y-11067142D01*
X12500885Y-10450285D02*
X12464600Y-10414000D01*
X12428314Y-10341428D01*
X12428314Y-10160000D01*
X12464600Y-10087428D01*
X12500885Y-10051142D01*
X12573457Y-10014857D01*
X12646028Y-10014857D01*
X12754885Y-10051142D01*
X13190314Y-10486571D01*
X13190314Y-10014857D01*
X12428314Y-9760857D02*
X12428314Y-9289142D01*
X12718600Y-9543142D01*
X12718600Y-9434285D01*
X12754885Y-9361714D01*
X12791171Y-9325428D01*
X12863742Y-9289142D01*
X13045171Y-9289142D01*
X13117742Y-9325428D01*
X13154028Y-9361714D01*
X13190314Y-9434285D01*
X13190314Y-9652000D01*
X13154028Y-9724571D01*
X13117742Y-9760857D01*
D11*
%TO.C,J22*%
X-13804365Y-5809861D02*
X-14765653Y-5254861D01*
X-13034482Y-1641325D02*
X-13729441Y-1240090D01*
X-14493633Y-3656767D02*
X-14966941Y-3383503D01*
X-13424365Y-5151682D02*
X-13804365Y-5809861D01*
X-13044365Y-4493503D02*
X-11806865Y-2350090D01*
X-14966941Y-3383503D02*
X-13729441Y-1240090D01*
X-11806865Y-2350090D02*
X-12501824Y-1948855D01*
X-13044365Y-4493503D02*
X-13517673Y-4220238D01*
%TO.C,J21*%
X12513224Y-3573538D02*
X12986532Y-3300274D01*
X13750724Y-5716951D02*
X14445683Y-5315716D01*
X14435800Y-2463538D02*
X15673300Y-4606951D01*
X12513224Y-3573538D02*
X13750724Y-5716951D01*
X12133224Y-2915359D02*
X11753224Y-2257180D01*
X13962492Y-2736803D02*
X14435800Y-2463538D01*
X14978341Y-5008186D02*
X15673300Y-4606951D01*
X11753224Y-2257180D02*
X12714512Y-1702180D01*
%TO.C,J19*%
X1846818Y14901218D02*
X2808106Y15456218D01*
X5071935Y12150212D02*
X5766894Y12551447D01*
X4056086Y14421595D02*
X4529394Y14694860D01*
X2226818Y14243039D02*
X1846818Y14901218D01*
X2606818Y13584860D02*
X3844318Y11441447D01*
X4529394Y14694860D02*
X5766894Y12551447D01*
X3844318Y11441447D02*
X4539277Y11842682D01*
X2606818Y13584860D02*
X3080126Y13858124D01*
%TO.C,J24*%
X-7845600Y-9050000D02*
X-7845600Y-10160000D01*
X-11840600Y-10467530D02*
X-11840600Y-11270000D01*
X-9365600Y-10723471D02*
X-9365600Y-11270000D01*
X-8605600Y-9050000D02*
X-7845600Y-9050000D01*
X-9365600Y-9050000D02*
X-11840600Y-9050000D01*
X-9365600Y-11270000D02*
X-11840600Y-11270000D01*
X-11840600Y-9050000D02*
X-11840600Y-9852470D01*
X-9365600Y-9050000D02*
X-9365600Y-9596529D01*
%TO.C,J20*%
X-3896220Y11351551D02*
X-4857508Y11906551D01*
X-3126337Y15520087D02*
X-3821296Y15921322D01*
X-4585488Y13504645D02*
X-5058796Y13777909D01*
X-3516220Y12009730D02*
X-3896220Y11351551D01*
X-3136220Y12667909D02*
X-1898720Y14811322D01*
X-5058796Y13777909D02*
X-3821296Y15921322D01*
X-1898720Y14811322D02*
X-2593679Y15212557D01*
X-3136220Y12667909D02*
X-3609528Y12941174D01*
%TO.C,J23*%
X11910600Y-9050000D02*
X11910600Y-10160000D01*
X7915600Y-10467530D02*
X7915600Y-11270000D01*
X10390600Y-10723471D02*
X10390600Y-11270000D01*
X11150600Y-9050000D02*
X11910600Y-9050000D01*
X10390600Y-9050000D02*
X7915600Y-9050000D01*
X10390600Y-11270000D02*
X7915600Y-11270000D01*
X7915600Y-9050000D02*
X7915600Y-9852470D01*
X10390600Y-9050000D02*
X10390600Y-9596529D01*
%TD*%
M02*
