%TF.GenerationSoftware,KiCad,Pcbnew,6.0.4-6f826c9f35~116~ubuntu18.04.1*%
%TF.CreationDate,2022-11-29T20:00:39+03:00*%
%TF.ProjectId,free_dry_electrodes_16x3_4cm,66726565-5f64-4727-995f-656c65637472,rev?*%
%TF.SameCoordinates,Original*%
%TF.FileFunction,Legend,Bot*%
%TF.FilePolarity,Positive*%
%FSLAX46Y46*%
G04 Gerber Fmt 4.6, Leading zero omitted, Abs format (unit mm)*
G04 Created by KiCad (PCBNEW 6.0.4-6f826c9f35~116~ubuntu18.04.1) date 2022-11-29 20:00:39*
%MOMM*%
%LPD*%
G01*
G04 APERTURE LIST*
%ADD10C,0.125000*%
%ADD11C,0.150000*%
G04 APERTURE END LIST*
D10*
X3085714Y3687771D02*
X3085714Y3287771D01*
X3085714Y3630628D02*
X3057142Y3659200D01*
X3000000Y3687771D01*
X2914285Y3687771D01*
X2857142Y3659200D01*
X2828571Y3602057D01*
X2828571Y3287771D01*
X2314285Y3316342D02*
X2371428Y3287771D01*
X2485714Y3287771D01*
X2542857Y3316342D01*
X2571428Y3373485D01*
X2571428Y3602057D01*
X2542857Y3659200D01*
X2485714Y3687771D01*
X2371428Y3687771D01*
X2314285Y3659200D01*
X2285714Y3602057D01*
X2285714Y3544914D01*
X2571428Y3487771D01*
X1771428Y3687771D02*
X1771428Y3287771D01*
X2028571Y3687771D02*
X2028571Y3373485D01*
X1999999Y3316342D01*
X1942857Y3287771D01*
X1857142Y3287771D01*
X1799999Y3316342D01*
X1771428Y3344914D01*
X1485714Y3287771D02*
X1485714Y3687771D01*
X1485714Y3573485D02*
X1457142Y3630628D01*
X1428571Y3659200D01*
X1371428Y3687771D01*
X1314285Y3687771D01*
X1028571Y3287771D02*
X1085714Y3316342D01*
X1114285Y3344914D01*
X1142857Y3402057D01*
X1142857Y3573485D01*
X1114285Y3630628D01*
X1085714Y3659200D01*
X1028571Y3687771D01*
X942857Y3687771D01*
X885714Y3659200D01*
X857142Y3630628D01*
X828571Y3573485D01*
X828571Y3402057D01*
X857142Y3344914D01*
X885714Y3316342D01*
X942857Y3287771D01*
X1028571Y3287771D01*
X571428Y3287771D02*
X571428Y3687771D01*
X571428Y3887771D02*
X600000Y3859200D01*
X571428Y3830628D01*
X542857Y3859200D01*
X571428Y3887771D01*
X571428Y3830628D01*
X28571Y3287771D02*
X28571Y3887771D01*
X28571Y3316342D02*
X85714Y3287771D01*
X200000Y3287771D01*
X257142Y3316342D01*
X285714Y3344914D01*
X314285Y3402057D01*
X314285Y3573485D01*
X285714Y3630628D01*
X257142Y3659200D01*
X200000Y3687771D01*
X85714Y3687771D01*
X28571Y3659200D01*
X-228571Y3316342D02*
X-285714Y3287771D01*
X-399999Y3287771D01*
X-457142Y3316342D01*
X-485714Y3373485D01*
X-485714Y3402057D01*
X-457142Y3459200D01*
X-399999Y3487771D01*
X-314285Y3487771D01*
X-257142Y3516342D01*
X-228571Y3573485D01*
X-228571Y3602057D01*
X-257142Y3659200D01*
X-314285Y3687771D01*
X-399999Y3687771D01*
X-457142Y3659200D01*
X-714285Y3316342D02*
X-771428Y3287771D01*
X-885714Y3287771D01*
X-942857Y3316342D01*
X-971428Y3373485D01*
X-971428Y3402057D01*
X-942857Y3459200D01*
X-885714Y3487771D01*
X-800000Y3487771D01*
X-742857Y3516342D01*
X-714285Y3573485D01*
X-714285Y3602057D01*
X-742857Y3659200D01*
X-800000Y3687771D01*
X-885714Y3687771D01*
X-942857Y3659200D01*
X-1228571Y3344914D02*
X-1257142Y3316342D01*
X-1228571Y3287771D01*
X-1200000Y3316342D01*
X-1228571Y3344914D01*
X-1228571Y3287771D01*
X-1771428Y3316342D02*
X-1714285Y3287771D01*
X-1600000Y3287771D01*
X-1542857Y3316342D01*
X-1514285Y3344914D01*
X-1485714Y3402057D01*
X-1485714Y3573485D01*
X-1514285Y3630628D01*
X-1542857Y3659200D01*
X-1600000Y3687771D01*
X-1714285Y3687771D01*
X-1771428Y3659200D01*
X-2114285Y3287771D02*
X-2057142Y3316342D01*
X-2028571Y3344914D01*
X-2000000Y3402057D01*
X-2000000Y3573485D01*
X-2028571Y3630628D01*
X-2057142Y3659200D01*
X-2114285Y3687771D01*
X-2200000Y3687771D01*
X-2257142Y3659200D01*
X-2285714Y3630628D01*
X-2314285Y3573485D01*
X-2314285Y3402057D01*
X-2285714Y3344914D01*
X-2257142Y3316342D01*
X-2200000Y3287771D01*
X-2114285Y3287771D01*
X-2571428Y3287771D02*
X-2571428Y3687771D01*
X-2571428Y3630628D02*
X-2600000Y3659200D01*
X-2657142Y3687771D01*
X-2742857Y3687771D01*
X-2800000Y3659200D01*
X-2828571Y3602057D01*
X-2828571Y3287771D01*
X-2828571Y3602057D02*
X-2857142Y3659200D01*
X-2914285Y3687771D01*
X-3000000Y3687771D01*
X-3057142Y3659200D01*
X-3085714Y3602057D01*
X-3085714Y3287771D01*
D11*
%TO.C,J3*%
X5203335Y12284785D02*
X5203335Y11740500D01*
X5239620Y11631642D01*
X5312192Y11559071D01*
X5421049Y11522785D01*
X5493620Y11522785D01*
X4913049Y12284785D02*
X4441335Y12284785D01*
X4695335Y11994500D01*
X4586477Y11994500D01*
X4513906Y11958214D01*
X4477620Y11921928D01*
X4441335Y11849357D01*
X4441335Y11667928D01*
X4477620Y11595357D01*
X4513906Y11559071D01*
X4586477Y11522785D01*
X4804192Y11522785D01*
X4876763Y11559071D01*
X4913049Y11595357D01*
%TO.C,J1*%
X254000Y20857285D02*
X254000Y20313000D01*
X290285Y20204142D01*
X362857Y20131571D01*
X471714Y20095285D01*
X544285Y20095285D01*
X-507999Y20095285D02*
X-72571Y20095285D01*
X-290285Y20095285D02*
X-290285Y20857285D01*
X-217714Y20748428D01*
X-145142Y20675857D01*
X-72571Y20639571D01*
%TO.C,J4*%
X-4695335Y12284785D02*
X-4695335Y11740500D01*
X-4659049Y11631642D01*
X-4586477Y11559071D01*
X-4477620Y11522785D01*
X-4405049Y11522785D01*
X-5384763Y12030785D02*
X-5384763Y11522785D01*
X-5203335Y12321071D02*
X-5021906Y11776785D01*
X-5493620Y11776785D01*
%TO.C,J14*%
X5553916Y-4838952D02*
X5553916Y-5383238D01*
X5590201Y-5492095D01*
X5662773Y-5564666D01*
X5771630Y-5600952D01*
X5844201Y-5600952D01*
X4791916Y-5600952D02*
X5227344Y-5600952D01*
X5009630Y-5600952D02*
X5009630Y-4838952D01*
X5082201Y-4947809D01*
X5154773Y-5020380D01*
X5227344Y-5056666D01*
X4138773Y-5092952D02*
X4138773Y-5600952D01*
X4320201Y-4802666D02*
X4501630Y-5346952D01*
X4029916Y-5346952D01*
%TO.C,J10*%
X10515527Y-2002714D02*
X10515527Y-2547000D01*
X10551812Y-2655857D01*
X10624384Y-2728428D01*
X10733241Y-2764714D01*
X10805812Y-2764714D01*
X9753527Y-2764714D02*
X10188955Y-2764714D01*
X9971241Y-2764714D02*
X9971241Y-2002714D01*
X10043812Y-2111571D01*
X10116384Y-2184142D01*
X10188955Y-2220428D01*
X9281812Y-2002714D02*
X9209241Y-2002714D01*
X9136670Y-2039000D01*
X9100384Y-2075285D01*
X9064098Y-2147857D01*
X9027812Y-2293000D01*
X9027812Y-2474428D01*
X9064098Y-2619571D01*
X9100384Y-2692142D01*
X9136670Y-2728428D01*
X9209241Y-2764714D01*
X9281812Y-2764714D01*
X9354384Y-2728428D01*
X9390670Y-2692142D01*
X9426955Y-2619571D01*
X9463241Y-2474428D01*
X9463241Y-2293000D01*
X9426955Y-2147857D01*
X9390670Y-2075285D01*
X9354384Y-2039000D01*
X9281812Y-2002714D01*
%TO.C,J18*%
X-4332477Y854785D02*
X-4332477Y310500D01*
X-4296192Y201642D01*
X-4223620Y129071D01*
X-4114763Y92785D01*
X-4042192Y92785D01*
X-5094477Y92785D02*
X-4659049Y92785D01*
X-4876763Y92785D02*
X-4876763Y854785D01*
X-4804192Y745928D01*
X-4731620Y673357D01*
X-4659049Y637071D01*
X-5529906Y528214D02*
X-5457335Y564500D01*
X-5421049Y600785D01*
X-5384763Y673357D01*
X-5384763Y709642D01*
X-5421049Y782214D01*
X-5457335Y818500D01*
X-5529906Y854785D01*
X-5675049Y854785D01*
X-5747620Y818500D01*
X-5783906Y782214D01*
X-5820192Y709642D01*
X-5820192Y673357D01*
X-5783906Y600785D01*
X-5747620Y564500D01*
X-5675049Y528214D01*
X-5529906Y528214D01*
X-5457335Y491928D01*
X-5421049Y455642D01*
X-5384763Y383071D01*
X-5384763Y237928D01*
X-5421049Y165357D01*
X-5457335Y129071D01*
X-5529906Y92785D01*
X-5675049Y92785D01*
X-5747620Y129071D01*
X-5783906Y165357D01*
X-5820192Y237928D01*
X-5820192Y383071D01*
X-5783906Y455642D01*
X-5747620Y491928D01*
X-5675049Y528214D01*
%TO.C,J5*%
X5203335Y6569785D02*
X5203335Y6025500D01*
X5239620Y5916642D01*
X5312192Y5844071D01*
X5421049Y5807785D01*
X5493620Y5807785D01*
X4477620Y6569785D02*
X4840477Y6569785D01*
X4876763Y6206928D01*
X4840477Y6243214D01*
X4767906Y6279500D01*
X4586477Y6279500D01*
X4513906Y6243214D01*
X4477620Y6206928D01*
X4441335Y6134357D01*
X4441335Y5952928D01*
X4477620Y5880357D01*
X4513906Y5844071D01*
X4586477Y5807785D01*
X4767906Y5807785D01*
X4840477Y5844071D01*
X4876763Y5880357D01*
%TO.C,J2*%
X254000Y15142285D02*
X254000Y14598000D01*
X290285Y14489142D01*
X362857Y14416571D01*
X471714Y14380285D01*
X544285Y14380285D01*
X-72571Y15069714D02*
X-108857Y15106000D01*
X-181428Y15142285D01*
X-362857Y15142285D01*
X-435428Y15106000D01*
X-471714Y15069714D01*
X-507999Y14997142D01*
X-507999Y14924571D01*
X-471714Y14815714D01*
X-36285Y14380285D01*
X-507999Y14380285D01*
%TO.C,J16*%
X-14231148Y-4860214D02*
X-14231148Y-5404500D01*
X-14194863Y-5513357D01*
X-14122291Y-5585928D01*
X-14013434Y-5622214D01*
X-13940863Y-5622214D01*
X-14993148Y-5622214D02*
X-14557720Y-5622214D01*
X-14775434Y-5622214D02*
X-14775434Y-4860214D01*
X-14702863Y-4969071D01*
X-14630291Y-5041642D01*
X-14557720Y-5077928D01*
X-15646291Y-4860214D02*
X-15501148Y-4860214D01*
X-15428577Y-4896500D01*
X-15392291Y-4932785D01*
X-15319720Y-5041642D01*
X-15283434Y-5186785D01*
X-15283434Y-5477071D01*
X-15319720Y-5549642D01*
X-15356006Y-5585928D01*
X-15428577Y-5622214D01*
X-15573720Y-5622214D01*
X-15646291Y-5585928D01*
X-15682577Y-5549642D01*
X-15718863Y-5477071D01*
X-15718863Y-5295642D01*
X-15682577Y-5223071D01*
X-15646291Y-5186785D01*
X-15573720Y-5150500D01*
X-15428577Y-5150500D01*
X-15356006Y-5186785D01*
X-15319720Y-5223071D01*
X-15283434Y-5295642D01*
%TO.C,J6*%
X-4695335Y6569785D02*
X-4695335Y6025500D01*
X-4659049Y5916642D01*
X-4586477Y5844071D01*
X-4477620Y5807785D01*
X-4405049Y5807785D01*
X-5384763Y6569785D02*
X-5239620Y6569785D01*
X-5167049Y6533500D01*
X-5130763Y6497214D01*
X-5058192Y6388357D01*
X-5021906Y6243214D01*
X-5021906Y5952928D01*
X-5058192Y5880357D01*
X-5094477Y5844071D01*
X-5167049Y5807785D01*
X-5312192Y5807785D01*
X-5384763Y5844071D01*
X-5421049Y5880357D01*
X-5457335Y5952928D01*
X-5457335Y6134357D01*
X-5421049Y6206928D01*
X-5384763Y6243214D01*
X-5312192Y6279500D01*
X-5167049Y6279500D01*
X-5094477Y6243214D01*
X-5058192Y6206928D01*
X-5021906Y6134357D01*
%TO.C,J12*%
X-9281812Y-2002714D02*
X-9281812Y-2547000D01*
X-9245527Y-2655857D01*
X-9172955Y-2728428D01*
X-9064098Y-2764714D01*
X-8991527Y-2764714D01*
X-10043812Y-2764714D02*
X-9608384Y-2764714D01*
X-9826098Y-2764714D02*
X-9826098Y-2002714D01*
X-9753527Y-2111571D01*
X-9680955Y-2184142D01*
X-9608384Y-2220428D01*
X-10334098Y-2075285D02*
X-10370384Y-2039000D01*
X-10442955Y-2002714D01*
X-10624384Y-2002714D01*
X-10696955Y-2039000D01*
X-10733241Y-2075285D01*
X-10769527Y-2147857D01*
X-10769527Y-2220428D01*
X-10733241Y-2329285D01*
X-10297812Y-2764714D01*
X-10769527Y-2764714D01*
%TO.C,J7*%
X10128119Y3712285D02*
X10128119Y3168000D01*
X10164404Y3059142D01*
X10236976Y2986571D01*
X10345833Y2950285D01*
X10418404Y2950285D01*
X9837833Y3712285D02*
X9329833Y3712285D01*
X9656404Y2950285D01*
%TO.C,J17*%
X5566192Y854785D02*
X5566192Y310500D01*
X5602477Y201642D01*
X5675049Y129071D01*
X5783906Y92785D01*
X5856477Y92785D01*
X4804192Y92785D02*
X5239620Y92785D01*
X5021906Y92785D02*
X5021906Y854785D01*
X5094477Y745928D01*
X5167049Y673357D01*
X5239620Y637071D01*
X4550192Y854785D02*
X4042192Y854785D01*
X4368763Y92785D01*
%TO.C,J8*%
X254000Y9427285D02*
X254000Y8883000D01*
X290285Y8774142D01*
X362857Y8701571D01*
X471714Y8665285D01*
X544285Y8665285D01*
X-217714Y9100714D02*
X-145142Y9137000D01*
X-108857Y9173285D01*
X-72571Y9245857D01*
X-72571Y9282142D01*
X-108857Y9354714D01*
X-145142Y9391000D01*
X-217714Y9427285D01*
X-362857Y9427285D01*
X-435428Y9391000D01*
X-471714Y9354714D01*
X-507999Y9282142D01*
X-507999Y9245857D01*
X-471714Y9173285D01*
X-435428Y9137000D01*
X-362857Y9100714D01*
X-217714Y9100714D01*
X-145142Y9064428D01*
X-108857Y9028142D01*
X-72571Y8955571D01*
X-72571Y8810428D01*
X-108857Y8737857D01*
X-145142Y8701571D01*
X-217714Y8665285D01*
X-362857Y8665285D01*
X-435428Y8701571D01*
X-471714Y8737857D01*
X-507999Y8810428D01*
X-507999Y8955571D01*
X-471714Y9028142D01*
X-435428Y9064428D01*
X-362857Y9100714D01*
%TO.C,J15*%
X-4332477Y-4860214D02*
X-4332477Y-5404500D01*
X-4296192Y-5513357D01*
X-4223620Y-5585928D01*
X-4114763Y-5622214D01*
X-4042192Y-5622214D01*
X-5094477Y-5622214D02*
X-4659049Y-5622214D01*
X-4876763Y-5622214D02*
X-4876763Y-4860214D01*
X-4804192Y-4969071D01*
X-4731620Y-5041642D01*
X-4659049Y-5077928D01*
X-5783906Y-4860214D02*
X-5421049Y-4860214D01*
X-5384763Y-5223071D01*
X-5421049Y-5186785D01*
X-5493620Y-5150500D01*
X-5675049Y-5150500D01*
X-5747620Y-5186785D01*
X-5783906Y-5223071D01*
X-5820192Y-5295642D01*
X-5820192Y-5477071D01*
X-5783906Y-5549642D01*
X-5747620Y-5585928D01*
X-5675049Y-5622214D01*
X-5493620Y-5622214D01*
X-5421049Y-5585928D01*
X-5384763Y-5549642D01*
%TO.C,J13*%
X15464863Y-4860214D02*
X15464863Y-5404500D01*
X15501148Y-5513357D01*
X15573720Y-5585928D01*
X15682577Y-5622214D01*
X15755148Y-5622214D01*
X14702863Y-5622214D02*
X15138291Y-5622214D01*
X14920577Y-5622214D02*
X14920577Y-4860214D01*
X14993148Y-4969071D01*
X15065720Y-5041642D01*
X15138291Y-5077928D01*
X14448863Y-4860214D02*
X13977148Y-4860214D01*
X14231148Y-5150500D01*
X14122291Y-5150500D01*
X14049720Y-5186785D01*
X14013434Y-5223071D01*
X13977148Y-5295642D01*
X13977148Y-5477071D01*
X14013434Y-5549642D01*
X14049720Y-5585928D01*
X14122291Y-5622214D01*
X14340006Y-5622214D01*
X14412577Y-5585928D01*
X14448863Y-5549642D01*
%TO.C,J9*%
X-9644670Y3712285D02*
X-9644670Y3168000D01*
X-9608384Y3059142D01*
X-9535812Y2986571D01*
X-9426955Y2950285D01*
X-9354384Y2950285D01*
X-10043812Y2950285D02*
X-10188955Y2950285D01*
X-10261527Y2986571D01*
X-10297812Y3022857D01*
X-10370384Y3131714D01*
X-10406670Y3276857D01*
X-10406670Y3567142D01*
X-10370384Y3639714D01*
X-10334098Y3676000D01*
X-10261527Y3712285D01*
X-10116384Y3712285D01*
X-10043812Y3676000D01*
X-10007527Y3639714D01*
X-9971241Y3567142D01*
X-9971241Y3385714D01*
X-10007527Y3313142D01*
X-10043812Y3276857D01*
X-10116384Y3240571D01*
X-10261527Y3240571D01*
X-10334098Y3276857D01*
X-10370384Y3313142D01*
X-10406670Y3385714D01*
%TO.C,J11*%
X616857Y-2002714D02*
X616857Y-2547000D01*
X653142Y-2655857D01*
X725714Y-2728428D01*
X834571Y-2764714D01*
X907142Y-2764714D01*
X-145142Y-2764714D02*
X290285Y-2764714D01*
X72571Y-2764714D02*
X72571Y-2002714D01*
X145142Y-2111571D01*
X217714Y-2184142D01*
X290285Y-2220428D01*
X-870857Y-2764714D02*
X-435428Y-2764714D01*
X-653142Y-2764714D02*
X-653142Y-2002714D01*
X-580571Y-2111571D01*
X-508000Y-2184142D01*
X-435428Y-2220428D01*
%TD*%
M02*
