M48
; DRILL file {KiCad 6.0.4-6f826c9f35~116~ubuntu18.04.1} date Mon 28 Nov 2022 07:03:50 PM MSK
; FORMAT={-:-/ absolute / inch / decimal}
; #@! TF.CreationDate,2022-11-28T19:03:50+03:00
; #@! TF.GenerationSoftware,Kicad,Pcbnew,6.0.4-6f826c9f35~116~ubuntu18.04.1
; #@! TF.FileFunction,Plated,1,2,PTH
FMAT,2
INCH
; #@! TA.AperFunction,Plated,PTH,ComponentDrill
T1C0.0256
; #@! TA.AperFunction,Plated,PTH,ComponentDrill
T2C0.0394
; #@! TA.AperFunction,Plated,PTH,ComponentDrill
T3C0.0866
%
G90
G05
T1
X-0.5664Y-0.181
X-0.5414Y-0.1377
X-0.5164Y-0.0944
X-0.4388Y-0.4
X-0.3888Y-0.4
X-0.3388Y-0.4
X-0.1763Y0.4947
X-0.1513Y0.538
X-0.1263Y0.5813
X0.1255Y0.5826
X0.1505Y0.5393
X0.1755Y0.496
X0.339Y-0.4
X0.389Y-0.4
X0.439Y-0.4
X0.5155Y-0.0929
X0.5405Y-0.1362
X0.5655Y-0.1795
T2
X-0.6229Y-0.3596
X-0.5846Y-0.2932
X-0.5462Y-0.3596
X-0.4281Y-0.0221
X-0.4281Y-0.2471
X-0.3897Y0.0443
X-0.3897Y-0.1807
X-0.3514Y-0.0221
X-0.3514Y-0.2471
X-0.2332Y0.3154
X-0.2332Y0.0904
X-0.2332Y-0.1346
X-0.2332Y-0.3596
X-0.1949Y0.3818
X-0.1949Y0.1568
X-0.1949Y-0.0682
X-0.1949Y-0.2932
X-0.1565Y0.3154
X-0.1565Y0.0904
X-0.1565Y-0.1346
X-0.1565Y-0.3596
X-0.0384Y0.6529
X-0.0384Y0.4279
X-0.0384Y0.2029
X-0.0384Y-0.2471
X0.0Y0.7193
X0.0Y0.4943
X0.0Y0.2693
X0.0Y-0.1807
X0.0384Y0.6529
X0.0384Y0.4279
X0.0384Y0.2029
X0.0384Y-0.2471
X0.156Y-0.3588
X0.1565Y0.3154
X0.1565Y0.0904
X0.1565Y-0.1346
X0.1944Y-0.2924
X0.1949Y0.3818
X0.1949Y0.1568
X0.1949Y-0.0682
X0.2327Y-0.3588
X0.2332Y0.3154
X0.2332Y0.0904
X0.2332Y-0.1346
X0.3504Y-0.0221
X0.3504Y-0.2466
X0.3887Y0.0443
X0.3887Y-0.1802
X0.4271Y-0.0221
X0.4271Y-0.2466
X0.5462Y-0.3596
X0.5846Y-0.2932
X0.6229Y-0.3596
T3
X-0.3248Y0.1875
X0.0Y-0.375
X0.3248Y0.1875
T0
M30
