%TF.GenerationSoftware,KiCad,Pcbnew,6.0.4-6f826c9f35~116~ubuntu18.04.1*%
%TF.CreationDate,2022-11-28T21:12:52+03:00*%
%TF.ProjectId,free_dry_electrodes_16x3_4cm,66726565-5f64-4727-995f-656c65637472,rev?*%
%TF.SameCoordinates,Original*%
%TF.FileFunction,Legend,Top*%
%TF.FilePolarity,Positive*%
%FSLAX46Y46*%
G04 Gerber Fmt 4.6, Leading zero omitted, Abs format (unit mm)*
G04 Created by KiCad (PCBNEW 6.0.4-6f826c9f35~116~ubuntu18.04.1) date 2022-11-28 21:12:52*
%MOMM*%
%LPD*%
G01*
G04 APERTURE LIST*
%ADD10C,0.150000*%
%ADD11C,0.120000*%
G04 APERTURE END LIST*
D10*
X-2535714Y657321D02*
X-2785714Y657321D01*
X-2785714Y264464D02*
X-2785714Y1014464D01*
X-2428571Y1014464D01*
X-2142857Y264464D02*
X-2142857Y764464D01*
X-2142857Y621607D02*
X-2107142Y693035D01*
X-2071428Y728750D01*
X-2000000Y764464D01*
X-1928571Y764464D01*
X-1392857Y300178D02*
X-1464285Y264464D01*
X-1607142Y264464D01*
X-1678571Y300178D01*
X-1714285Y371607D01*
X-1714285Y657321D01*
X-1678571Y728750D01*
X-1607142Y764464D01*
X-1464285Y764464D01*
X-1392857Y728750D01*
X-1357142Y657321D01*
X-1357142Y585892D01*
X-1714285Y514464D01*
X-750000Y300178D02*
X-821428Y264464D01*
X-964285Y264464D01*
X-1035714Y300178D01*
X-1071428Y371607D01*
X-1071428Y657321D01*
X-1035714Y728750D01*
X-964285Y764464D01*
X-821428Y764464D01*
X-750000Y728750D01*
X-714285Y657321D01*
X-714285Y585892D01*
X-1071428Y514464D01*
X-392857Y657321D02*
X-142857Y657321D01*
X-35714Y264464D02*
X-392857Y264464D01*
X-392857Y1014464D01*
X-35714Y1014464D01*
X285714Y657321D02*
X535714Y657321D01*
X642857Y264464D02*
X285714Y264464D01*
X285714Y1014464D01*
X642857Y1014464D01*
X1357142Y978750D02*
X1285714Y1014464D01*
X1178571Y1014464D01*
X1071428Y978750D01*
X999999Y907321D01*
X964285Y835892D01*
X928571Y693035D01*
X928571Y585892D01*
X964285Y443035D01*
X999999Y371607D01*
X1071428Y300178D01*
X1178571Y264464D01*
X1250000Y264464D01*
X1357142Y300178D01*
X1392857Y335892D01*
X1392857Y585892D01*
X1250000Y585892D01*
X2107142Y264464D02*
X1678571Y264464D01*
X1892857Y264464D02*
X1892857Y1014464D01*
X1821428Y907321D01*
X1750000Y835892D01*
X1678571Y800178D01*
X2750000Y1014464D02*
X2607142Y1014464D01*
X2535714Y978750D01*
X2500000Y943035D01*
X2428571Y835892D01*
X2392857Y693035D01*
X2392857Y407321D01*
X2428571Y335892D01*
X2464285Y300178D01*
X2535714Y264464D01*
X2678571Y264464D01*
X2750000Y300178D01*
X2785714Y335892D01*
X2821428Y407321D01*
X2821428Y585892D01*
X2785714Y657321D01*
X2750000Y693035D01*
X2678571Y728750D01*
X2535714Y728750D01*
X2464285Y693035D01*
X2428571Y657321D01*
X2392857Y585892D01*
X-3928571Y-943035D02*
X-3928571Y-193035D01*
X-3750000Y-193035D01*
X-3642857Y-228750D01*
X-3571428Y-300178D01*
X-3535714Y-371607D01*
X-3500000Y-514464D01*
X-3500000Y-621607D01*
X-3535714Y-764464D01*
X-3571428Y-835892D01*
X-3642857Y-907321D01*
X-3750000Y-943035D01*
X-3928571Y-943035D01*
X-3178571Y-943035D02*
X-3178571Y-443035D01*
X-3178571Y-585892D02*
X-3142857Y-514464D01*
X-3107142Y-478750D01*
X-3035714Y-443035D01*
X-2964285Y-443035D01*
X-2785714Y-443035D02*
X-2607142Y-943035D01*
X-2428571Y-443035D02*
X-2607142Y-943035D01*
X-2678571Y-1121607D01*
X-2714285Y-1157321D01*
X-2785714Y-1193035D01*
X-1571428Y-550178D02*
X-1321428Y-550178D01*
X-1214285Y-943035D02*
X-1571428Y-943035D01*
X-1571428Y-193035D01*
X-1214285Y-193035D01*
X-785714Y-943035D02*
X-857142Y-907321D01*
X-892857Y-835892D01*
X-892857Y-193035D01*
X-214285Y-907321D02*
X-285714Y-943035D01*
X-428571Y-943035D01*
X-500000Y-907321D01*
X-535714Y-835892D01*
X-535714Y-550178D01*
X-500000Y-478750D01*
X-428571Y-443035D01*
X-285714Y-443035D01*
X-214285Y-478750D01*
X-178571Y-550178D01*
X-178571Y-621607D01*
X-535714Y-693035D01*
X464285Y-907321D02*
X392857Y-943035D01*
X249999Y-943035D01*
X178571Y-907321D01*
X142857Y-871607D01*
X107142Y-800178D01*
X107142Y-585892D01*
X142857Y-514464D01*
X178571Y-478750D01*
X249999Y-443035D01*
X392857Y-443035D01*
X464285Y-478750D01*
X678571Y-443035D02*
X964285Y-443035D01*
X785714Y-193035D02*
X785714Y-835892D01*
X821428Y-907321D01*
X892857Y-943035D01*
X964285Y-943035D01*
X1214285Y-943035D02*
X1214285Y-443035D01*
X1214285Y-585892D02*
X1249999Y-514464D01*
X1285714Y-478750D01*
X1357142Y-443035D01*
X1428571Y-443035D01*
X1785714Y-943035D02*
X1714285Y-907321D01*
X1678571Y-871607D01*
X1642857Y-800178D01*
X1642857Y-585892D01*
X1678571Y-514464D01*
X1714285Y-478750D01*
X1785714Y-443035D01*
X1892857Y-443035D01*
X1964285Y-478750D01*
X1999999Y-514464D01*
X2035714Y-585892D01*
X2035714Y-800178D01*
X1999999Y-871607D01*
X1964285Y-907321D01*
X1892857Y-943035D01*
X1785714Y-943035D01*
X2678571Y-943035D02*
X2678571Y-193035D01*
X2678571Y-907321D02*
X2607142Y-943035D01*
X2464285Y-943035D01*
X2392857Y-907321D01*
X2357142Y-871607D01*
X2321428Y-800178D01*
X2321428Y-585892D01*
X2357142Y-514464D01*
X2392857Y-478750D01*
X2464285Y-443035D01*
X2607142Y-443035D01*
X2678571Y-478750D01*
X3321428Y-907321D02*
X3249999Y-943035D01*
X3107142Y-943035D01*
X3035714Y-907321D01*
X2999999Y-835892D01*
X2999999Y-550178D01*
X3035714Y-478750D01*
X3107142Y-443035D01*
X3249999Y-443035D01*
X3321428Y-478750D01*
X3357142Y-550178D01*
X3357142Y-621607D01*
X2999999Y-693035D01*
X3642857Y-907321D02*
X3714285Y-943035D01*
X3857142Y-943035D01*
X3928571Y-907321D01*
X3964285Y-835892D01*
X3964285Y-800178D01*
X3928571Y-728750D01*
X3857142Y-693035D01*
X3749999Y-693035D01*
X3678571Y-657321D01*
X3642857Y-585892D01*
X3642857Y-550178D01*
X3678571Y-478750D01*
X3749999Y-443035D01*
X3857142Y-443035D01*
X3928571Y-478750D01*
%TO.C,J22*%
X-14905081Y-6730073D02*
X-14632939Y-6258708D01*
X-14547086Y-6182578D01*
X-14447951Y-6156015D01*
X-14335535Y-6179019D01*
X-14272687Y-6215305D01*
X-15151615Y-6503939D02*
X-15201182Y-6517220D01*
X-15282174Y-6512359D01*
X-15439295Y-6421645D01*
X-15484001Y-6353934D01*
X-15497283Y-6304367D01*
X-15492421Y-6223376D01*
X-15456136Y-6160527D01*
X-15370283Y-6084397D01*
X-14775476Y-5925019D01*
X-15183993Y-5689162D01*
X-15780102Y-6141082D02*
X-15829669Y-6154363D01*
X-15910661Y-6149502D01*
X-16067782Y-6058787D01*
X-16112488Y-5991077D01*
X-16125770Y-5941510D01*
X-16120908Y-5860519D01*
X-16084623Y-5797670D01*
X-15998770Y-5721540D01*
X-15403963Y-5562162D01*
X-15812480Y-5326305D01*
%TO.C,J21*%
X11520296Y-867451D02*
X11792439Y-1338816D01*
X11815443Y-1451232D01*
X11788880Y-1550367D01*
X11712750Y-1636220D01*
X11649901Y-1672505D01*
X11839401Y-767014D02*
X11852682Y-717447D01*
X11897388Y-649737D01*
X12054510Y-559022D01*
X12135501Y-554161D01*
X12185068Y-567443D01*
X12252778Y-612148D01*
X12289064Y-674997D01*
X12312068Y-787413D01*
X12152690Y-1382220D01*
X12561207Y-1146362D01*
X13189694Y-783505D02*
X12812602Y-1001220D01*
X13001148Y-892362D02*
X12620148Y-232451D01*
X12611728Y-363010D01*
X12585165Y-462144D01*
X12540459Y-529854D01*
%TO.C,J19*%
X1621626Y16277547D02*
X1893769Y15806182D01*
X1916773Y15693766D01*
X1890210Y15594631D01*
X1814080Y15508778D01*
X1751231Y15472493D01*
X2662537Y15998636D02*
X2285445Y15780921D01*
X2473991Y15889778D02*
X2092991Y16549690D01*
X2084571Y16419131D01*
X2058008Y16319997D01*
X2013302Y16252287D01*
X2976781Y16180064D02*
X3102478Y16252636D01*
X3147184Y16320346D01*
X3160465Y16369913D01*
X3168885Y16500472D01*
X3127738Y16644312D01*
X2982595Y16895707D01*
X2914885Y16940413D01*
X2865318Y16953694D01*
X2784327Y16948833D01*
X2658629Y16876261D01*
X2613923Y16808551D01*
X2600642Y16758984D01*
X2605503Y16677992D01*
X2696218Y16520871D01*
X2763928Y16476165D01*
X2813495Y16462883D01*
X2894486Y16467745D01*
X3020184Y16540316D01*
X3064890Y16608026D01*
X3078171Y16657593D01*
X3073310Y16738585D01*
%TO.C,J24*%
X-7345233Y-10776857D02*
X-6800948Y-10776857D01*
X-6692090Y-10813142D01*
X-6619519Y-10885714D01*
X-6583233Y-10994571D01*
X-6583233Y-11067142D01*
X-7272662Y-10450285D02*
X-7308948Y-10414000D01*
X-7345233Y-10341428D01*
X-7345233Y-10160000D01*
X-7308948Y-10087428D01*
X-7272662Y-10051142D01*
X-7200090Y-10014857D01*
X-7127519Y-10014857D01*
X-7018662Y-10051142D01*
X-6583233Y-10486571D01*
X-6583233Y-10014857D01*
X-7091233Y-9361714D02*
X-6583233Y-9361714D01*
X-7381519Y-9543142D02*
X-6837233Y-9724571D01*
X-6837233Y-9252857D01*
%TO.C,J20*%
X-5008911Y10410595D02*
X-4736769Y10881960D01*
X-4650916Y10958090D01*
X-4551781Y10984653D01*
X-4439365Y10961649D01*
X-4376517Y10925363D01*
X-5255445Y10636729D02*
X-5305012Y10623448D01*
X-5386004Y10628309D01*
X-5543125Y10719023D01*
X-5587831Y10786734D01*
X-5601113Y10836301D01*
X-5596251Y10917292D01*
X-5559966Y10980141D01*
X-5474113Y11056271D01*
X-4879306Y11215649D01*
X-5287823Y11451506D01*
X-6077339Y11027452D02*
X-6140188Y11063738D01*
X-6184894Y11131448D01*
X-6198175Y11181015D01*
X-6193314Y11262007D01*
X-6152167Y11405847D01*
X-6061453Y11562969D01*
X-5957457Y11670523D01*
X-5889747Y11715229D01*
X-5840180Y11728510D01*
X-5759188Y11723649D01*
X-5696339Y11687363D01*
X-5651633Y11619653D01*
X-5638352Y11570086D01*
X-5643213Y11489095D01*
X-5684360Y11345254D01*
X-5775075Y11188133D01*
X-5879070Y11080578D01*
X-5946781Y11035872D01*
X-5996348Y11022591D01*
X-6077339Y11027452D01*
%TO.C,J23*%
X12446384Y-10776857D02*
X12990670Y-10776857D01*
X13099527Y-10813142D01*
X13172098Y-10885714D01*
X13208384Y-10994571D01*
X13208384Y-11067142D01*
X12518955Y-10450285D02*
X12482670Y-10414000D01*
X12446384Y-10341428D01*
X12446384Y-10160000D01*
X12482670Y-10087428D01*
X12518955Y-10051142D01*
X12591527Y-10014857D01*
X12664098Y-10014857D01*
X12772955Y-10051142D01*
X13208384Y-10486571D01*
X13208384Y-10014857D01*
X12446384Y-9760857D02*
X12446384Y-9289142D01*
X12736670Y-9543142D01*
X12736670Y-9434285D01*
X12772955Y-9361714D01*
X12809241Y-9325428D01*
X12881812Y-9289142D01*
X13063241Y-9289142D01*
X13135812Y-9325428D01*
X13172098Y-9361714D01*
X13208384Y-9434285D01*
X13208384Y-9652000D01*
X13172098Y-9724571D01*
X13135812Y-9760857D01*
D11*
%TO.C,J22*%
X-13041865Y-4489173D02*
X-13515173Y-4215908D01*
X-11804365Y-2345760D02*
X-12499324Y-1944525D01*
X-14964441Y-3379173D02*
X-13726941Y-1235760D01*
X-13041865Y-4489173D02*
X-11804365Y-2345760D01*
X-13421865Y-5147352D02*
X-13801865Y-5805531D01*
X-14491133Y-3652437D02*
X-14964441Y-3379173D01*
X-13031982Y-1636995D02*
X-13726941Y-1235760D01*
X-13801865Y-5805531D02*
X-14763153Y-5250531D01*
%TO.C,J21*%
X14451941Y-2491495D02*
X15689441Y-4634908D01*
X12529365Y-3601495D02*
X13766865Y-5744908D01*
X13978633Y-2764760D02*
X14451941Y-2491495D01*
X12149365Y-2943316D02*
X11769365Y-2285137D01*
X14994482Y-5036143D02*
X15689441Y-4634908D01*
X12529365Y-3601495D02*
X13002673Y-3328231D01*
X11769365Y-2285137D02*
X12730653Y-1730137D01*
X13766865Y-5744908D02*
X14461824Y-5343673D01*
%TO.C,J19*%
X3868195Y11400091D02*
X4563154Y11801326D01*
X2250695Y14201683D02*
X1870695Y14859862D01*
X5095812Y12108856D02*
X5790771Y12510091D01*
X4553271Y14653504D02*
X5790771Y12510091D01*
X2630695Y13543504D02*
X3104003Y13816768D01*
X2630695Y13543504D02*
X3868195Y11400091D01*
X1870695Y14859862D02*
X2831983Y15414862D01*
X4079963Y14380239D02*
X4553271Y14653504D01*
%TO.C,J24*%
X-9382948Y-10723471D02*
X-9382948Y-11270000D01*
X-11857948Y-9050000D02*
X-11857948Y-9852470D01*
X-9382948Y-9050000D02*
X-9382948Y-9596529D01*
X-8622948Y-9050000D02*
X-7862948Y-9050000D01*
X-7862948Y-9050000D02*
X-7862948Y-10160000D01*
X-9382948Y-11270000D02*
X-11857948Y-11270000D01*
X-11857948Y-10467530D02*
X-11857948Y-11270000D01*
X-9382948Y-9050000D02*
X-11857948Y-9050000D01*
%TO.C,J20*%
X-4594963Y13488232D02*
X-5068271Y13761496D01*
X-3135812Y15503674D02*
X-3830771Y15904909D01*
X-3145695Y12651496D02*
X-1908195Y14794909D01*
X-3905695Y11335138D02*
X-4866983Y11890138D01*
X-5068271Y13761496D02*
X-3830771Y15904909D01*
X-3145695Y12651496D02*
X-3619003Y12924761D01*
X-1908195Y14794909D02*
X-2603154Y15196144D01*
X-3525695Y11993317D02*
X-3905695Y11335138D01*
%TO.C,J23*%
X11168670Y-9050000D02*
X11928670Y-9050000D01*
X11928670Y-9050000D02*
X11928670Y-10160000D01*
X10408670Y-9050000D02*
X7933670Y-9050000D01*
X10408670Y-10723471D02*
X10408670Y-11270000D01*
X7933670Y-9050000D02*
X7933670Y-9852470D01*
X10408670Y-11270000D02*
X7933670Y-11270000D01*
X7933670Y-10467530D02*
X7933670Y-11270000D01*
X10408670Y-9050000D02*
X10408670Y-9596529D01*
%TD*%
M02*
